<svg width="17" height="20" viewBox="0 0 17 20" fill="none" xmlns="http://www.w3.org/2000/svg">
<path d="M16 10.1667H16.5C16.5 10.0341 16.4473 9.90688 16.3536 9.81311L16 10.1667ZM11 5.16667L11.3536 4.81311C11.2598 4.71935 11.1326 4.66667 11 4.66667V5.16667ZM4.66667 2.66667C4.66667 2.94281 4.89052 3.16667 5.16667 3.16667C5.44281 3.16667 5.66667 2.94281 5.66667 2.66667H4.66667ZM5.66667 1C5.66667 0.723858 5.44281 0.5 5.16667 0.5C4.89052 0.5 4.66667 0.723858 4.66667 1H5.66667ZM2.66667 5.66667C2.94281 5.66667 3.16667 5.44281 3.16667 5.16667C3.16667 4.89052 2.94281 4.66667 2.66667 4.66667V5.66667ZM1 4.66667C0.723858 4.66667 0.5 4.89052 0.5 5.16667C0.5 5.44281 0.723858 5.66667 1 5.66667V4.66667ZM4.66667 6.83333V17.6667H5.66667V6.83333H4.66667ZM6.83333 19.8333H14.3333V18.8333H6.83333V19.8333ZM16.5 17.6667V10.1667H15.5V17.6667H16.5ZM16.3536 9.81311L11.3536 4.81311L10.6464 5.52022L15.6464 10.5202L16.3536 9.81311ZM11 4.66667H6.83333V5.66667H11V4.66667ZM10.5 5.16667V8.5H11.5V5.16667H10.5ZM12.6667 10.6667H16V9.66667H12.6667V10.6667ZM5.66667 2.66667V1H4.66667V2.66667H5.66667ZM2.66667 4.66667H1V5.66667H2.66667V4.66667ZM14.3333 19.8333C15.53 19.8333 16.5 18.8633 16.5 17.6667H15.5C15.5 18.311 14.9777 18.8333 14.3333 18.8333V19.8333ZM4.66667 17.6667C4.66667 18.8633 5.63672 19.8333 6.83333 19.8333V18.8333C6.189 18.8333 5.66667 18.311 5.66667 17.6667H4.66667ZM10.5 8.5C10.5 9.69662 11.47 10.6667 12.6667 10.6667V9.66667C12.0223 9.66667 11.5 9.14433 11.5 8.5H10.5ZM5.66667 6.83333C5.66667 6.189 6.189 5.66667 6.83333 5.66667V4.66667C5.63672 4.66667 4.66667 5.63672 4.66667 6.83333H5.66667Z" fill="#6E7191"/>
</svg>
