<svg width="20" height="20" viewBox="0 0 20 20" fill="none" xmlns="http://www.w3.org/2000/svg">
<path d="M17.5 10H18C18 9.86743 17.9473 9.74026 17.8536 9.64649L17.5 10ZM12.5 5.00004L12.8536 4.64649C12.7598 4.55272 12.6326 4.50004 12.5 4.50004V5.00004ZM6.16667 2.50004C6.16667 2.77618 6.39052 3.00004 6.66667 3.00004C6.94281 3.00004 7.16667 2.77618 7.16667 2.50004H6.16667ZM7.16667 0.833374C7.16667 0.557232 6.94281 0.333374 6.66667 0.333374C6.39052 0.333374 6.16667 0.557232 6.16667 0.833374H7.16667ZM4.16667 5.50004C4.44281 5.50004 4.66667 5.27618 4.66667 5.00004C4.66667 4.7239 4.44281 4.50004 4.16667 4.50004V5.50004ZM2.5 4.50004C2.22386 4.50004 2 4.7239 2 5.00004C2 5.27618 2.22386 5.50004 2.5 5.50004V4.50004ZM6.16667 6.66671V17.5H7.16667V6.66671H6.16667ZM8.33333 19.6667H15.8333V18.6667H8.33333V19.6667ZM18 17.5V10H17V17.5H18ZM17.8536 9.64649L12.8536 4.64649L12.1464 5.35359L17.1464 10.3536L17.8536 9.64649ZM12.5 4.50004H8.33333V5.50004H12.5V4.50004ZM12 5.00004V8.33337H13V5.00004H12ZM14.1667 10.5H17.5V9.50004H14.1667V10.5ZM7.16667 2.50004V0.833374H6.16667V2.50004H7.16667ZM4.16667 4.50004H2.5V5.50004H4.16667V4.50004ZM15.8333 19.6667C17.03 19.6667 18 18.6967 18 17.5H17C17 18.1444 16.4777 18.6667 15.8333 18.6667V19.6667ZM6.16667 17.5C6.16667 18.6967 7.13672 19.6667 8.33333 19.6667V18.6667C7.689 18.6667 7.16667 18.1444 7.16667 17.5H6.16667ZM12 8.33337C12 9.52999 12.97 10.5 14.1667 10.5V9.50004C13.5223 9.50004 13 8.97771 13 8.33337H12ZM7.16667 6.66671C7.16667 6.02238 7.689 5.50004 8.33333 5.50004V4.50004C7.13672 4.50004 6.16667 5.47009 6.16667 6.66671H7.16667Z" fill="#F7F7FF"/>
</svg>
