<svg width="20" height="20" viewBox="0 0 20 20" fill="none" xmlns="http://www.w3.org/2000/svg">
<path d="M15.8327 6.66666H16.666C17.5865 6.66666 18.3327 7.41285 18.3327 8.33333C18.3327 9.2538 17.5865 10 16.666 10H15.8327M4.16602 11.6667H3.33268C2.41221 11.6667 1.66602 10.9205 1.66602 10V6.66666C1.66602 5.74619 2.41221 5 3.33268 5H7.28363C10.0896 5 11.9474 3.88532 13.9315 1.90118C14.6331 1.19959 15.8327 1.69648 15.8327 2.68867V13.978C15.8327 14.9702 14.6331 15.4671 13.9315 14.7655C11.9987 12.8326 10.1858 11.7249 7.49935 11.6689M4.16602 11.6667H7.28363C7.35616 11.6667 7.42806 11.6674 7.49935 11.6689M4.16602 11.6667L5.52651 17.1086C5.70645 17.8284 6.35315 18.3333 7.09506 18.3333C8.14697 18.3333 8.91878 17.3447 8.66358 16.3242L7.49935 11.6689" stroke="#6E7191"/>
</svg>
