<svg width="1400" height="1193" viewBox="0 0 1400 1193" fill="none" xmlns="http://www.w3.org/2000/svg">
<path d="M-1206 -268.139C-673.54 -62.8307 -386.526 207.947 -220.995 429.462C-83.0076 614.141 -85.4556 689.686 61.0663 827.47C379.033 1126.46 988.133 1332.64 1283.34 1075.7C1428.75 949.13 1374.96 788.734 1444.52 485.093C1507.09 211.948 1668.88 -163.723 2120.57 -572" stroke="url(#paint0_linear_572_3712)" stroke-miterlimit="10"/>
<path d="M-1204.93 -201.899C-687.029 -25.4523 -402.885 229.284 -237.44 436.593C-98.2341 611.076 -86.9152 680.849 68.7175 816.265C395.2 1100.34 967.223 1298.11 1262.84 1058.37C1415.11 934.896 1380.47 777.244 1461.97 474.494C1533.73 207.956 1698.81 -161.291 2142.72 -565.906" stroke="url(#paint1_linear_572_3712)" stroke-miterlimit="10"/>
<path d="M-1203.87 -135.668C-700.529 11.9258 -419.034 250.685 -253.859 443.724C-113.145 608.176 -88.6254 672.021 76.3965 805.06C410.674 1074.55 947.224 1264.05 1242.39 1041.06C1401.84 920.58 1385.76 765.911 1479.46 463.904C1560.11 204.038 1728.79 -158.831 2164.93 -559.767" stroke="url(#paint2_linear_572_3712)" stroke-miterlimit="10"/>
<path d="M-1202.8 -69.4286C-714.027 49.313 -434.904 272.15 -270.275 450.909C-127.872 605.45 -90.6128 663.256 84.1152 793.846C425.526 1049.13 928.09 1230.5 1221.96 1023.73C1388.93 906.264 1390.81 754.706 1496.98 453.304C1586.14 200.174 1758.79 -156.372 2187.11 -553.655" stroke="url(#paint3_linear_572_3712)" stroke-miterlimit="10"/>
<path d="M-1201.74 -3.19845C-727.475 86.6722 -450.444 293.614 -286.69 457.993C-142.347 602.871 -92.7607 654.574 91.7405 782.64C439.689 1024.09 909.65 1197.5 1201.45 1006.4C1376.27 891.92 1395.5 743.573 1514.42 442.704C1611.81 196.329 1788.71 -153.922 2209.23 -547.497" stroke="url(#paint4_linear_572_3712)" stroke-miterlimit="10"/>
<path d="M-1200.67 63.0319C-741.011 124.05 -465.632 315.088 -303.106 465.123C-156.517 600.448 -95.257 646.021 99.4208 771.425C453.379 999.456 891.966 1165.06 1180.98 989.086C1363.97 877.659 1399.87 732.496 1531.9 432.105C1637.19 192.474 1818.68 -151.463 2231.41 -541.432" stroke="url(#paint5_linear_572_3712)" stroke-miterlimit="10"/>
<path d="M-1199.61 129.263C-754.51 161.383 -480.398 336.472 -319.523 472.255C-170.361 598.155 -97.9163 637.616 107.092 760.221C466.628 975.23 874.915 1133.2 1160.51 971.761C1351.97 863.527 1404.03 721.42 1549.39 421.515C1662.28 188.584 1848.68 -149.003 2253.58 -535.31" stroke="url(#paint6_linear_572_3712)" stroke-miterlimit="10"/>
<path d="M-1198.5 195.503C-767.971 198.797 -494.666 357.753 -335.903 479.385C-183.784 595.934 -100.692 629.393 114.799 749.016C479.52 951.415 858.478 1101.93 1140.08 954.434C1340.3 849.568 1407.86 710.325 1566.9 410.915C1687.05 184.646 1878.6 -146.516 2275.75 -529.198" stroke="url(#paint7_linear_572_3712)" stroke-miterlimit="10"/>
<path d="M-1197.48 261.733C-781.509 236.175 -508.51 378.832 -352.359 486.525C-196.832 593.749 -103.785 621.427 122.44 737.801C492.057 928.004 842.473 1071.24 1119.57 937.117C1328.86 835.839 1411.3 699.138 1584.35 400.316C1711.57 180.627 1908.56 -144.093 2297.98 -523.086" stroke="url(#paint8_linear_572_3712)" stroke-miterlimit="10"/>
<path d="M-1196.41 327.937C-794.997 273.526 -521.807 399.61 -368.776 493.628C-209.476 591.492 -106.953 613.554 130.111 726.569C504.317 904.952 826.872 1041.08 1099.1 919.764C1317.66 822.368 1414.47 687.814 1601.83 389.689C1735.83 176.479 1938.54 -141.661 2320.1 -517.002" stroke="url(#paint9_linear_572_3712)" stroke-miterlimit="10"/>
<path d="M-1195.34 394.204C-808.445 310.931 -534.583 420.092 -385.181 500.786C-221.608 589.142 -110.234 606.019 137.794 715.382C516.416 882.33 811.639 1011.54 1078.64 902.474C1306.71 809.3 1417.32 676.388 1619.31 379.117C1759.86 172.276 1968.5 -139.174 2342.28 -510.844" stroke="url(#paint10_linear_572_3712)" stroke-miterlimit="10"/>
<path d="M-1194.28 460.434C-821.99 348.3 -546.871 440.107 -401.597 507.916C-233.282 586.49 -113.583 598.714 145.465 704.176C528.369 860.039 796.683 982.497 1058.17 885.148C1295.98 796.617 1419.89 664.752 1636.8 368.526C1783.68 167.917 1998.47 -136.724 2364.44 -504.741" stroke="url(#paint11_linear_572_3712)" stroke-miterlimit="10"/>
<path d="M-1193.21 526.675C-835.491 385.679 -558.739 459.61 -418.016 515.057C-244.517 583.417 -117.099 591.658 153.143 692.972C540.224 838.089 781.915 953.967 1037.71 867.822C1285.4 784.403 1422.17 652.905 1654.28 357.928C1807.33 163.421 2028.43 -134.264 2386.62 -498.629" stroke="url(#paint12_linear_572_3712)" stroke-miterlimit="10"/>
<path d="M-1192.15 592.905C-848.98 423.056 -570.25 478.54 -434.433 522.186C-255.356 579.736 -120.633 584.866 160.795 681.757C551.994 816.439 767.264 925.866 1017.22 850.504C1275.02 772.729 1424.16 640.8 1671.74 347.327C1830.83 158.767 2058.39 -131.833 2408.79 -492.49" stroke="url(#paint13_linear_572_3712)" stroke-miterlimit="10"/>
<path d="M-1191.08 659.136C-862.478 460.426 -581.531 496.859 -450.888 529.318C-265.945 575.258 -124.243 578.332 168.456 670.552C563.754 795.094 752.671 898.308 996.734 833.179C1264.73 761.662 1425.93 628.43 1689.2 336.701C1854.16 153.931 2088.32 -129.382 2430.92 -486.433" stroke="url(#paint14_linear_572_3712)" stroke-miterlimit="10"/>
<path d="M-1190.02 725.375C-875.929 497.803 -592.716 514.551 -467.267 536.448C-276.314 569.779 -127.805 572.064 176.165 659.338C575.543 774.05 738.136 871.134 976.304 815.861C1254.57 751.264 1427.52 615.802 1706.72 326.138C1877.48 148.984 2118.32 -126.896 2453.13 -480.285" stroke="url(#paint15_linear_572_3712)" stroke-miterlimit="10"/>
<path d="M-1188.9 791.606C-889.427 535.182 -602.604 564.823 -483.636 543.588C-289.044 508.844 -131.357 566.062 183.893 648.133C587.399 753.2 723.504 844.365 955.835 798.535C1244.41 741.637 1428.9 602.798 1724.21 315.538C1900.67 143.873 2148.29 -124.436 2475.31 -474.136" stroke="url(#paint16_linear_572_3712)" stroke-miterlimit="10"/>
<path d="M-1187.88 857.837C-902.961 572.56 -612.72 575.561 -500.098 550.718C-302.703 507.182 -135.002 560.308 191.518 636.927C599.297 732.644 708.703 817.99 935.37 781.209C1234.23 732.772 1430.11 589.519 1741.69 304.921C1923.83 138.569 2178.25 -122.004 2497.48 -468.079" stroke="url(#paint17_linear_572_3712)" stroke-miterlimit="10"/>
<path d="M-1186.82 924.077C-916.459 609.929 -624.164 585.243 -516.515 557.85C-315.568 506.724 -138.584 554.812 199.198 625.76C611.259 712.262 693.717 791.919 914.902 763.938C1223.97 724.835 1431.18 575.956 1759.17 294.386C1946.95 133.192 2208.22 -119.498 2519.65 -461.902" stroke="url(#paint18_linear_572_3712)" stroke-miterlimit="10"/>
<path d="M-1185.75 990.307C-929.959 647.306 -640.4 580.094 -532.923 564.979C-321.224 535.273 -142.108 549.544 206.878 614.535C623.345 692.054 678.471 766.112 894.442 746.593C1213.54 717.722 1432.14 561.951 1776.67 283.74C1970.09 127.547 2238.21 -117.067 2541.83 -455.837" stroke="url(#paint19_linear_572_3712)" stroke-miterlimit="10"/>
<path d="M-1184.69 1056.54C-943.457 684.684 -653.783 595.676 -549.35 572.119C-334.636 523.692 -145.613 544.514 214.538 603.321C635.508 672.029 662.879 740.591 873.964 729.266C1202.88 711.628 1433.03 547.745 1794.14 273.168C1993.19 121.811 2268.15 -114.589 2564 -449.698" stroke="url(#paint20_linear_572_3712)" stroke-miterlimit="10"/>
<path d="M-1183.62 1122.78C-956.946 722.063 -668.078 611.278 -565.766 579.25C-349.277 511.45 -149.05 539.706 222.218 592.098C647.816 652.152 646.923 715.272 853.505 711.931C1191.92 706.425 1433.84 533.154 1811.63 262.56C2016.34 115.947 2298.11 -112.157 2586.17 -443.604" stroke="url(#paint21_linear_572_3712)" stroke-miterlimit="10"/>
<defs>
<linearGradient id="paint0_linear_572_3712" x1="457.286" y1="-572" x2="457.286" y2="1192.23" gradientUnits="userSpaceOnUse">
<stop stop-color="#554FD8"/>
<stop offset="1" stop-color="#554FD8" stop-opacity="0"/>
</linearGradient>
<linearGradient id="paint1_linear_572_3712" x1="468.893" y1="-565.906" x2="468.893" y2="1165.67" gradientUnits="userSpaceOnUse">
<stop stop-color="#554FD8"/>
<stop offset="1" stop-color="#554FD8" stop-opacity="0"/>
</linearGradient>
<linearGradient id="paint2_linear_572_3712" x1="480.532" y1="-559.767" x2="480.532" y2="1139.43" gradientUnits="userSpaceOnUse">
<stop stop-color="#554FD8"/>
<stop offset="1" stop-color="#554FD8" stop-opacity="0"/>
</linearGradient>
<linearGradient id="paint3_linear_572_3712" x1="492.153" y1="-553.655" x2="492.153" y2="1113.52" gradientUnits="userSpaceOnUse">
<stop stop-color="#554FD8"/>
<stop offset="1" stop-color="#554FD8" stop-opacity="0"/>
</linearGradient>
<linearGradient id="paint4_linear_572_3712" x1="503.748" y1="-547.497" x2="503.748" y2="1087.98" gradientUnits="userSpaceOnUse">
<stop stop-color="#554FD8"/>
<stop offset="1" stop-color="#554FD8" stop-opacity="0"/>
</linearGradient>
<linearGradient id="paint5_linear_572_3712" x1="515.37" y1="-541.432" x2="515.37" y2="1062.81" gradientUnits="userSpaceOnUse">
<stop stop-color="#554FD8"/>
<stop offset="1" stop-color="#554FD8" stop-opacity="0"/>
</linearGradient>
<linearGradient id="paint6_linear_572_3712" x1="526.986" y1="-535.31" x2="526.986" y2="1038.04" gradientUnits="userSpaceOnUse">
<stop stop-color="#554FD8"/>
<stop offset="1" stop-color="#554FD8" stop-opacity="0"/>
</linearGradient>
<linearGradient id="paint7_linear_572_3712" x1="538.625" y1="-529.198" x2="538.625" y2="1013.64" gradientUnits="userSpaceOnUse">
<stop stop-color="#554FD8"/>
<stop offset="1" stop-color="#554FD8" stop-opacity="0"/>
</linearGradient>
<linearGradient id="paint8_linear_572_3712" x1="550.25" y1="-523.086" x2="550.25" y2="989.637" gradientUnits="userSpaceOnUse">
<stop stop-color="#554FD8"/>
<stop offset="1" stop-color="#554FD8" stop-opacity="0"/>
</linearGradient>
<linearGradient id="paint9_linear_572_3712" x1="561.843" y1="-517.002" x2="561.843" y2="965.979" gradientUnits="userSpaceOnUse">
<stop stop-color="#554FD8"/>
<stop offset="1" stop-color="#554FD8" stop-opacity="0"/>
</linearGradient>
<linearGradient id="paint10_linear_572_3712" x1="573.466" y1="-510.844" x2="573.466" y2="942.756" gradientUnits="userSpaceOnUse">
<stop stop-color="#554FD8"/>
<stop offset="1" stop-color="#554FD8" stop-opacity="0"/>
</linearGradient>
<linearGradient id="paint11_linear_572_3712" x1="585.084" y1="-504.741" x2="585.084" y2="919.862" gradientUnits="userSpaceOnUse">
<stop stop-color="#554FD8"/>
<stop offset="1" stop-color="#554FD8" stop-opacity="0"/>
</linearGradient>
<linearGradient id="paint12_linear_572_3712" x1="596.703" y1="-498.629" x2="596.703" y2="897.329" gradientUnits="userSpaceOnUse">
<stop stop-color="#554FD8"/>
<stop offset="1" stop-color="#554FD8" stop-opacity="0"/>
</linearGradient>
<linearGradient id="paint13_linear_572_3712" x1="608.319" y1="-492.49" x2="608.319" y2="875.126" gradientUnits="userSpaceOnUse">
<stop stop-color="#554FD8"/>
<stop offset="1" stop-color="#554FD8" stop-opacity="0"/>
</linearGradient>
<linearGradient id="paint14_linear_572_3712" x1="619.921" y1="-486.433" x2="619.921" y2="853.304" gradientUnits="userSpaceOnUse">
<stop stop-color="#554FD8"/>
<stop offset="1" stop-color="#554FD8" stop-opacity="0"/>
</linearGradient>
<linearGradient id="paint15_linear_572_3712" x1="631.557" y1="-480.285" x2="631.557" y2="831.821" gradientUnits="userSpaceOnUse">
<stop stop-color="#554FD8"/>
<stop offset="1" stop-color="#554FD8" stop-opacity="0"/>
</linearGradient>
<linearGradient id="paint16_linear_572_3712" x1="643.202" y1="-474.136" x2="643.202" y2="810.687" gradientUnits="userSpaceOnUse">
<stop stop-color="#554FD8"/>
<stop offset="1" stop-color="#554FD8" stop-opacity="0"/>
</linearGradient>
<linearGradient id="paint17_linear_572_3712" x1="654.797" y1="-468.079" x2="654.797" y2="857.837" gradientUnits="userSpaceOnUse">
<stop stop-color="#554FD8"/>
<stop offset="1" stop-color="#554FD8" stop-opacity="0"/>
</linearGradient>
<linearGradient id="paint18_linear_572_3712" x1="666.418" y1="-461.902" x2="666.418" y2="924.077" gradientUnits="userSpaceOnUse">
<stop stop-color="#554FD8"/>
<stop offset="1" stop-color="#554FD8" stop-opacity="0"/>
</linearGradient>
<linearGradient id="paint19_linear_572_3712" x1="678.038" y1="-455.837" x2="678.038" y2="990.307" gradientUnits="userSpaceOnUse">
<stop stop-color="#554FD8"/>
<stop offset="1" stop-color="#554FD8" stop-opacity="0"/>
</linearGradient>
<linearGradient id="paint20_linear_572_3712" x1="689.655" y1="-449.698" x2="689.655" y2="1056.54" gradientUnits="userSpaceOnUse">
<stop stop-color="#554FD8"/>
<stop offset="1" stop-color="#554FD8" stop-opacity="0"/>
</linearGradient>
<linearGradient id="paint21_linear_572_3712" x1="701.276" y1="-443.604" x2="701.276" y2="1122.78" gradientUnits="userSpaceOnUse">
<stop stop-color="#554FD8"/>
<stop offset="1" stop-color="#554FD8" stop-opacity="0"/>
</linearGradient>
</defs>
</svg>
