<svg width="108" height="108" viewBox="0 0 108 108" fill="none" xmlns="http://www.w3.org/2000/svg">
<path d="M0 18C0 8.05888 8.05888 0 18 0H108V90C108 99.9411 99.9411 108 90 108H0V18Z" fill="#DDDCF7"/>
<path d="M87.327 18.4795H20.6V79.1666H87.327V18.4795Z" fill="#756EDF"/>
<path fill-rule="evenodd" clip-rule="evenodd" d="M108 54C108 83.8237 83.8237 108 54 108C24.1766 108 0 83.8237 0 54C0 24.1766 24.1766 0 54 0C83.8237 0 108 24.1766 108 54ZM38.6979 75.4893H28.2181C26.0159 75.4893 24.9282 75.4893 24.2649 75.065C23.5485 74.6005 23.1108 73.8312 23.0577 72.982C23.0179 72.1997 23.5618 71.2442 24.6496 69.3339L50.5257 23.7237C51.6268 21.7869 52.1839 20.8185 52.887 20.4603C53.6431 20.0756 54.5452 20.0756 55.3014 20.4603C56.0045 20.8185 56.5617 21.7869 57.6627 23.7237L62.9823 33.0097L63.0094 33.0571C64.1986 35.1349 64.8017 36.1886 65.065 37.2944C65.3568 38.5016 65.3568 39.7751 65.065 40.9823C64.7996 42.0966 64.2027 43.1579 62.9955 45.2672L49.4034 69.2942L49.3682 69.3557C48.1712 71.4506 47.5645 72.5124 46.7237 73.3134C45.8084 74.1892 44.7073 74.8256 43.5001 75.1844C42.3991 75.4893 41.1654 75.4893 38.6979 75.4893ZM65.1631 75.4893H80.1796C82.3949 75.4893 83.5095 75.4893 84.1731 75.0521C84.8893 74.5876 85.3401 73.8046 85.3804 72.9561C85.4185 72.1989 84.8864 71.2807 83.8438 69.4815C83.8079 69.4202 83.7719 69.3579 83.7352 69.2944L76.2133 56.4268L76.1278 56.2819C75.0708 54.4945 74.5373 53.5919 73.852 53.243C73.0963 52.8582 72.2068 52.8582 71.4511 53.243C70.7612 53.6011 70.2041 54.543 69.103 56.44L61.6079 69.3077L61.5822 69.352C60.485 71.246 59.9367 72.1925 59.9762 72.969C60.0293 73.8182 60.4671 74.6005 61.1834 75.065C61.8335 75.4893 62.9478 75.4893 65.1631 75.4893Z" fill="#DDDCF7"/>
</svg>
