<svg width="108" height="108" viewBox="0 0 108 108" fill="none" xmlns="http://www.w3.org/2000/svg">
<path d="M0 18C0 8.05888 8.05888 0 18 0H108V90C108 99.9411 99.9411 108 90 108H0V18Z" fill="#DDDCF7"/>
<circle cx="53.9024" cy="53.9024" r="40.9024" fill="#DDDCF7"/>
<path d="M79.8623 30.209L77.6108 32.4605C82.9833 38.3357 85.9626 46.0087 85.9626 53.97C85.9626 61.9312 82.9833 69.6042 77.6108 75.4794L79.8623 77.7309C85.8371 71.2502 89.1542 62.7583 89.1542 53.9437C89.1542 45.1291 85.8371 36.6372 79.8623 30.1565V30.209Z" fill="#756EDF"/>
<path d="M32.5131 30.4042C38.3883 25.0318 46.0613 22.0524 54.0225 22.0524C61.9837 22.0524 69.6567 25.0318 75.5319 30.4042L77.7834 28.1527C71.3027 22.178 62.8109 18.8608 53.9962 18.8608C45.1816 18.8608 36.6898 22.178 30.209 28.1527L32.5131 30.4042Z" fill="#756EDF"/>
<path d="M30.4042 75.502C25.0381 69.6281 22.0627 61.9598 22.0627 54.0038C22.0627 46.0479 25.0381 38.3795 30.4042 32.5057L28.1527 30.2542C22.1779 36.7349 18.8608 45.2267 18.8608 54.0413C18.8608 62.856 22.1779 71.3478 28.1527 77.8285L30.4042 75.502Z" fill="#756EDF"/>
<path d="M75.5019 77.5808C69.6267 82.9533 61.9537 85.9326 53.9925 85.9326C46.0313 85.9326 38.3582 82.9533 32.4831 77.5808L30.2316 79.8323C36.7123 85.8071 45.2041 89.1242 54.0188 89.1242C62.8334 89.1242 71.3252 85.8071 77.806 79.8323L75.5019 77.5808Z" fill="#756EDF"/>
<path d="M68.2145 46.4875C67.7642 41.7894 63.7115 40.2133 58.5856 39.733V33.2637H54.6229V39.6129C53.5797 39.6129 52.514 39.6129 51.4558 39.6129V33.2637H47.5231V39.778H39.4853V44.0184C39.4853 44.0184 42.4122 43.9658 42.3672 44.0184C42.8949 43.9603 43.4246 44.1094 43.8446 44.4342C44.2646 44.759 44.5421 45.2342 44.6187 45.7596V63.5915C44.6074 63.7768 44.5591 63.9579 44.4766 64.1242C44.3941 64.2905 44.2791 64.4386 44.1384 64.5597C44.0003 64.683 43.8387 64.7772 43.6633 64.8365C43.4879 64.8959 43.3023 64.9191 43.1177 64.9049C43.1702 64.9499 40.2358 64.9049 40.2358 64.9049L39.4853 69.6406H47.4481V76.26H51.4108V69.7381H54.5779V76.23H58.548V69.6856C65.2425 69.2803 69.9107 67.6292 70.4961 61.3625C70.9689 56.3191 68.5973 54.0676 64.8072 53.1595C67.1113 52.0263 68.5372 49.9248 68.2145 46.4875ZM62.6608 60.582C62.6608 65.5053 54.2251 64.9424 51.5383 64.9424V56.2066C54.2251 56.2141 62.6608 55.441 62.6608 60.582ZM60.8221 48.2737C60.8221 52.7768 53.7823 52.2289 51.5458 52.2289V44.2886C53.7823 44.2886 60.8221 43.5831 60.8221 48.2737Z" fill="#756EDF"/>
<path d="M53.9925 95C45.8841 94.9985 37.9582 92.5928 31.2169 88.0871C24.4757 83.5814 19.2218 77.178 16.1195 69.6866C13.0172 62.1951 12.2059 53.952 13.7882 45.9995C15.3704 38.0469 19.2751 30.7421 25.0086 25.0086C30.7421 19.2751 38.0469 15.3704 45.9994 13.7882C53.952 12.206 62.1951 13.0173 69.6865 16.1195C77.178 19.2218 83.5814 24.4757 88.0871 31.217C92.5928 37.9582 94.9985 45.8841 95 53.9925C95.001 59.378 93.9409 64.7109 91.8805 69.6866C89.82 74.6623 86.7995 79.1833 82.9914 82.9914C79.1833 86.7995 74.6622 89.82 69.6865 91.8805C64.7108 93.941 59.3779 95.001 53.9925 95ZM53.9925 16.1972C46.5222 16.2031 39.2213 18.4235 33.0126 22.5778C26.8039 26.7321 21.9662 32.6338 19.1109 39.5369C16.2555 46.44 15.5107 54.0347 16.9707 61.3609C18.4306 68.6872 22.0297 75.4162 27.3131 80.6975C32.5964 85.9788 39.3269 89.5752 46.6538 91.0322C53.9806 92.4893 61.575 91.7415 68.4769 88.8834C75.3789 86.0253 81.2786 81.1852 85.4305 74.9749C89.5823 68.7646 91.7999 61.4628 91.8028 53.9925C91.8048 49.0273 90.828 44.1105 88.9284 39.523C87.0288 34.9356 84.2435 30.7677 80.7319 27.2574C77.2203 23.7472 73.0512 20.9636 68.4631 19.0658C63.8749 17.168 58.9577 16.1932 53.9925 16.1972Z" fill="#756EDF"/>
</svg>
