<svg width="108" height="108" viewBox="0 0 108 108" fill="none" xmlns="http://www.w3.org/2000/svg">
<path d="M0 18C0 8.05888 8.05888 0 18 0H108V90C108 99.9411 99.9411 108 90 108H0V18Z" fill="#DDDCF7"/>
<path fill-rule="evenodd" clip-rule="evenodd" d="M54 0C83.8255 0 108 24.1745 108 54C108 83.8255 83.8255 108 54 108C24.1745 108 0 83.8255 0 54C0 24.1745 24.1745 0 54 0Z" fill="#DDDCF7"/>
<path fill-rule="evenodd" clip-rule="evenodd" d="M31.4588 29.9334C30.3475 24.1574 34.7926 18.8257 40.5713 18.8257C45.6831 18.8257 49.906 23.0466 49.906 28.1562V39.7082C51.2395 39.7082 52.573 39.4861 53.9066 39.4861C55.2401 39.4861 56.3514 39.4861 57.6849 39.7082V28.1562C57.6849 23.0466 61.9077 18.8257 67.0196 18.8257C72.7982 18.8257 77.2433 24.1574 76.3543 29.9334L73.9095 43.4849C82.5774 47.2615 89.2451 53.9261 89.2451 62.1459V67.2554C89.2451 74.1422 84.8 79.9182 78.3546 83.6949C71.9092 87.6937 63.4635 89.9152 53.9066 89.9152C44.3496 89.9152 35.9039 87.6937 29.4585 83.6949C23.2354 79.9182 18.7903 74.1422 18.7903 67.2554V62.1459C18.7903 53.9261 25.2357 47.2615 33.9036 43.4849L31.4588 29.9334ZM70.5757 45.2621L73.465 29.267C74.1318 25.2682 71.2424 21.4915 67.0196 21.4915C63.4635 21.4915 60.5742 24.3796 60.5742 27.934V42.5962C59.6852 42.3741 58.5739 42.3741 57.6849 42.3741C56.3514 42.3741 55.2401 42.1519 53.9066 42.1519C52.573 42.1519 51.2395 42.1519 49.906 42.3741C49.017 42.3741 47.9057 42.5962 47.0167 42.5962V28.1562C47.0167 24.6017 44.1273 21.7137 40.5713 21.7137C36.5707 21.7137 33.4591 25.4903 34.3481 29.4891L37.2374 45.4843C27.9027 49.0387 21.6796 55.2591 21.6796 62.368V67.4776C21.6796 78.3632 36.1262 87.2493 53.9066 87.2493C71.6869 87.2493 86.1335 78.3632 86.1335 67.4776V62.368C86.3558 55.0369 80.1326 48.8166 70.5757 45.2621Z" fill="#756EDF"/>
<path d="M86.3558 67.2553C86.3558 78.1409 71.9093 87.0271 54.1289 87.0271C36.3485 87.0271 21.9019 78.1409 21.9019 67.2553V62.1458H86.5781V67.2553H86.3558Z" fill="#D6D4F6"/>
<path fill-rule="evenodd" clip-rule="evenodd" d="M34.3482 29.489C33.4592 25.4903 36.5708 21.7136 40.5714 21.7136C44.1274 21.7136 47.0167 24.6016 47.0167 28.1561V42.8183C49.2393 42.5962 51.4618 42.374 53.9066 42.374C56.1292 42.374 58.3517 42.5962 60.5743 42.8183V28.1561C60.5743 24.6016 63.4636 21.7136 67.0197 21.7136C71.0203 21.7136 74.1318 25.4903 73.4651 29.489L70.5758 45.4842C79.9105 49.0387 86.3559 55.259 86.3559 62.3679C86.3559 73.2535 71.9093 82.1397 54.1289 82.1397C36.3485 82.1397 21.9019 73.2535 21.9019 62.3679C21.9019 55.259 28.1251 49.0387 37.4598 45.4842L34.3482 29.489Z" fill="#928CE7"/>
<path d="M45.0162 60.8129C45.0162 63.7009 43.4604 66.1446 41.4601 66.1446C39.4598 66.1446 37.904 63.7009 37.904 60.8129C37.904 57.9249 39.4598 55.4812 41.4601 55.4812C43.4604 55.4812 45.0162 57.9249 45.0162 60.8129Z" fill="#756EDF"/>
<path d="M69.6869 60.8129C69.6869 63.7009 68.1311 66.1446 66.1308 66.1446C64.1305 66.1446 62.5747 63.7009 62.5747 60.8129C62.5747 57.9249 64.1305 55.4812 66.1308 55.4812C68.1311 55.4812 69.6869 57.9249 69.6869 60.8129Z" fill="#756EDF"/>
</svg>
