<svg width="108" height="108" viewBox="0 0 108 108" fill="none" xmlns="http://www.w3.org/2000/svg">
<path d="M0 18C0 8.05888 8.05888 0 18 0H108V90C108 99.9411 99.9411 108 90 108H0V18Z" fill="#DDDCF7"/>
<path d="M54 0C83.8261 0 108 24.1787 108 54C108 83.8261 83.8261 108 54 108C24.1787 108 0 83.8237 0 54C0 24.1787 24.1787 0 54 0Z" fill="#DDDCF7"/>
<path d="M55.9902 57.8127H76.5093C76.9467 57.8127 77.1533 57.8127 77.1849 57.2392C77.3525 55.1518 77.3525 53.0522 77.1849 50.9624C77.1849 50.5566 76.9832 50.3889 76.5433 50.3889H35.7068C35.2013 50.3889 35.0652 50.5566 35.0652 51.0305V57.0375C35.0652 57.8127 35.0652 57.8127 35.8744 57.8127H55.9902V57.8127ZM74.8933 43.3686C74.9517 43.2155 74.9517 43.0478 74.8933 42.8972C74.5507 42.1512 74.1449 41.4392 73.6735 40.7709C72.9639 39.6288 72.128 38.5766 71.1754 37.6313C70.7258 37.0603 70.2058 36.5475 69.6226 36.1125C66.7017 33.6266 63.2292 31.8673 59.4967 30.9828C57.6134 30.5599 55.6889 30.3582 53.7594 30.3753H35.6363C35.1309 30.3753 35.0628 30.577 35.0628 31.0168V42.9968C35.0628 43.5023 35.0628 43.6383 35.7043 43.6383H74.6503C74.6503 43.6383 74.9881 43.5703 75.0562 43.3686H74.8909H74.8933ZM74.8933 64.833C74.3199 64.7698 73.7415 64.7698 73.168 64.833H35.7408C35.2353 64.833 35.0652 64.833 35.0652 65.5085V77.2213C35.0652 77.7607 35.0652 77.8968 35.7408 77.8968H53.0207C53.8469 77.96 54.6731 77.9017 55.4823 77.7291C57.9901 77.5493 60.4566 77.005 62.8088 76.1083C63.6642 75.8119 64.4904 75.4255 65.2704 74.9613H65.5062C69.557 72.8545 72.8473 69.5448 74.9225 65.4818C74.9225 65.4818 75.1582 64.9715 74.8933 64.8379V64.833ZM28.2831 83.9694V83.7677V75.9042V73.2385V65.3069C28.2831 64.867 28.283 64.8014 27.7436 64.8014H20.4195C20.0137 64.8014 19.846 64.8014 19.846 64.2619V57.8491H27.6755C28.1129 57.8491 28.2831 57.8491 28.2831 57.2756V50.9308C28.2831 50.525 28.283 50.4254 27.7436 50.4254H20.4195C20.0137 50.4254 19.846 50.4254 19.846 49.8859V43.9469C19.846 43.5752 19.846 43.4755 20.3855 43.4755H27.6415C28.147 43.4755 28.2831 43.4755 28.2831 42.834V24.6428C28.2831 24.1034 28.283 23.9673 28.9586 23.9673H54.2697C56.1068 24.0402 57.9318 24.2419 59.7373 24.5748C63.4576 25.2625 67.0322 26.5917 70.3006 28.4896C72.4682 29.7653 74.4632 31.306 76.2396 33.0799C77.5761 34.4674 78.7814 35.9692 79.8506 37.5681C80.9125 39.189 81.7946 40.9216 82.4872 42.7319C82.5722 43.2034 83.0242 43.5217 83.4956 43.4415H89.5367C90.3118 43.4415 90.3118 43.4415 90.3459 44.1851V49.7207C90.3459 50.2601 90.1442 50.3962 89.6023 50.3962H84.9439C84.4725 50.3962 84.3364 50.3962 84.3704 51.0037C84.5551 53.0595 84.5551 55.1226 84.3704 57.1784C84.3704 57.7519 84.3704 57.82 85.0144 57.82H90.3434C90.5791 58.1237 90.3434 58.4275 90.3434 58.7336C90.3774 59.1249 90.3774 59.521 90.3434 59.9122V63.9971C90.3434 64.5706 90.1758 64.7407 89.6679 64.7407H83.2891C82.8444 64.6556 82.4118 64.9399 82.3098 65.3822C80.791 69.331 78.361 72.8715 75.2214 75.7098C74.0744 76.7425 72.8691 77.7146 71.6104 78.6112C70.2593 79.3888 68.9446 80.198 67.5595 80.8396C65.0104 81.9865 62.3374 82.8322 59.5939 83.3692C56.9889 83.8358 54.3475 84.0472 51.6963 84.0108H28.2733V83.9767L28.2831 83.9694Z" fill="#756EDF"/>
</svg>
