<svg width="108" height="108" viewBox="0 0 108 108" fill="none" xmlns="http://www.w3.org/2000/svg">
<path d="M0 18C0 8.05888 8.05888 0 18 0H108V90C108 99.9411 99.9411 108 90 108H0V18Z" fill="#DDDCF7"/>
<path fill-rule="evenodd" clip-rule="evenodd" d="M54 0C83.8255 0 108 24.1745 108 54C108 83.8255 83.8255 108 54 108C24.1745 108 0 83.8255 0 54C0 24.1745 24.1745 0 54 0Z" fill="#DDDCF7"/>
<path d="M83.8575 23.8452H73.9373L76.9203 32.933L58.1897 46.53L73.0354 57.3521L90.656 44.5876L83.8575 23.8452Z" fill="#928CE7"/>
<path d="M30.5104 32.8634L33.4934 23.7756H23.5731L16.844 44.4486L34.4646 57.2825L49.3103 46.5298L30.5104 32.8634Z" fill="#756EDF"/>
<path d="M52.0157 34.806L36.9619 23.8452L34.3951 31.6149L52.0157 44.4488V34.806Z" fill="#756EDF"/>
<path d="M70.4686 23.8452L55.4148 34.7367V44.3794L73.0354 31.6149L70.4686 23.8452Z" fill="#928CE7"/>
<path d="M34.4645 61.3756L34.3951 61.5143L52.0157 74.3482V48.6804L34.4645 61.3756Z" fill="#756EDF"/>
<path d="M72.966 61.3756L55.4148 48.6111V74.2789L73.0354 61.5143L72.966 61.3756Z" fill="#928CE7"/>
<path d="M52.0161 78.3717L37.7254 67.9658L34.4649 78.0248L52.0855 90.8587L52.0161 78.3717Z" fill="#756EDF"/>
<path d="M69.7058 67.9658L55.3457 78.3717V90.7893L72.9663 78.0248L69.7058 67.9658Z" fill="#928CE7"/>
</svg>
