<svg width="108" height="108" viewBox="0 0 108 108" fill="none" xmlns="http://www.w3.org/2000/svg">
<path d="M0 18C0 8.05888 8.05888 0 18 0H108V90C108 99.9411 99.9411 108 90 108H0V18Z" fill="#DDDCF7"/>
<path d="M54 108C83.9252 108 108 83.9252 108 54C108 24.0748 83.9252 0 54 0C24.0748 0 0 24.0748 0 54C0 83.9252 24.0748 108 54 108Z" fill="#DDDCF7"/>
<path d="M68.8501 62.5499C68.8501 54.6751 64.1251 51.9751 54.6751 50.8503C47.9251 49.9501 46.5751 48.1503 46.5751 45C46.5751 41.8496 48.8253 39.8251 53.3251 39.8251C57.3751 39.8251 59.6253 41.1751 60.7501 44.5501C60.9753 45.2251 61.6503 45.675 62.3253 45.675H65.925C66.8251 45.675 67.5001 44.9999 67.5001 44.1003V43.8751C66.6 38.925 62.55 35.1001 57.3751 34.6503V29.2503C57.3751 28.3501 56.7001 27.6751 55.5753 27.45H52.2003C51.3001 27.45 50.6251 28.125 50.4 29.2503V34.4251C43.65 35.3253 39.3753 39.8251 39.3753 45.4503C39.3753 52.8753 43.8751 55.8 53.3251 56.9253C59.6253 58.0501 61.6503 59.4001 61.6503 63.0003C61.6503 66.6005 58.5 69.0753 54.2253 69.0753C48.375 69.0753 46.35 66.5999 45.675 63.2249C45.4503 62.3253 44.7753 61.8749 44.1003 61.8749H40.275C39.3753 61.8749 38.7003 62.5499 38.7003 63.4501V63.6753C39.6 69.3 43.2001 73.35 50.6251 74.4753V79.8753C50.6251 80.7749 51.3001 81.4499 52.425 81.6751H55.8C56.7001 81.6751 57.3751 81.0001 57.6003 79.8753V74.4753C64.3503 73.35 68.8501 68.6249 68.8501 62.5499V62.5499Z" fill="#756EDF"/>
<path d="M42.5246 86.1749C24.9746 79.8752 15.9744 60.3002 22.4998 42.9749C25.8748 33.5249 33.2998 26.3251 42.5246 22.9501C43.4248 22.5002 43.8746 21.8252 43.8746 20.6999V17.5501C43.8746 16.6499 43.4248 15.9749 42.5246 15.7502C42.2994 15.7502 41.8496 15.7502 41.6244 15.9749C20.2496 22.7249 8.54942 45.4502 15.2994 66.8251C19.3494 79.4249 29.0246 89.1001 41.6244 93.1501C42.5246 93.5999 43.4248 93.1501 43.6494 92.2499C43.8746 92.0252 43.8746 91.8001 43.8746 91.3502V88.1999C43.8746 87.5249 43.1996 86.6252 42.5246 86.1749ZM66.3748 15.9749C65.4746 15.5251 64.5744 15.9749 64.3498 16.8751C64.1246 17.1002 64.1246 17.3249 64.1246 17.7752V20.9251C64.1246 21.8252 64.7996 22.7249 65.4746 23.1752C83.0246 29.4749 92.0248 49.0499 85.4994 66.3752C82.1244 75.8252 74.6994 83.0251 65.4746 86.4001C64.5744 86.8499 64.1246 87.5249 64.1246 88.6502V91.8001C64.1246 92.7002 64.5744 93.3752 65.4746 93.5999C65.6998 93.5999 66.1496 93.5999 66.3748 93.3752C87.7496 86.6252 99.4498 63.8999 92.6998 42.5251C88.6498 29.7001 78.7494 20.0249 66.3748 15.9749V15.9749Z" fill="#756EDF"/>
</svg>
