<svg width="40" height="40" viewBox="0 0 32 32" fill="none" xmlns="http://www.w3.org/2000/svg">
<path d="M16 32C24.8667 32 32 24.8667 32 16C32 7.13328 24.8667 0 16 0C7.13328 0 0 7.13328 0 16C0 24.8667 7.13328 32 16 32Z" fill="#50AF95"/>
<path fill-rule="evenodd" clip-rule="evenodd" d="M18.1803 17.7772C18.0585 17.7864 17.4293 17.8244 16.0259 17.8244C14.9096 17.8244 14.1171 17.7906 13.839 17.7772C9.5252 17.5853 6.3053 16.8259 6.3053 15.9167C6.3053 15.0074 9.5252 14.249 13.839 14.054V17.0209C14.1212 17.0414 14.9289 17.0896 16.0452 17.0896C17.3847 17.0896 18.0555 17.0332 18.1762 17.0219V14.0561C22.4809 14.2501 25.6937 15.0095 25.6937 15.9167C25.6937 16.8238 22.4819 17.5833 18.1762 17.7762L18.1803 17.7772ZM18.1803 13.7493V11.0944H24.1878V7.0459H7.83153V11.0944H13.838V13.7482C8.95591 13.975 5.28442 14.953 5.28442 16.125C5.28442 17.2969 8.95591 18.2739 13.838 18.5017V27.0092H18.1793V18.4987C23.0502 18.2719 26.7156 17.2949 26.7156 16.124C26.7156 14.953 23.0533 13.976 18.1793 13.7482L18.1803 13.7493Z" fill="white"/>
</svg>
