<svg width="108" height="108" viewBox="0 0 108 108" fill="none" xmlns="http://www.w3.org/2000/svg">
<path d="M0 18C0 8.05888 8.05888 0 18 0H108V90C108 99.9411 99.9411 108 90 108H0V18Z" fill="#DDDCF7"/>
<path d="M54 108C83.9252 108 108 83.9252 108 54C108 24.0748 83.9252 0 54 0C24.0748 0 0 24.0748 0 54C0 83.9252 24.0748 108 54 108Z" fill="#DDDCF7"/>
<path fill-rule="evenodd" clip-rule="evenodd" d="M61.1213 56.9409C60.7236 56.971 58.6686 57.0946 54.0845 57.0946C50.4385 57.0946 47.8499 56.9843 46.9417 56.9409C32.8515 56.316 22.3344 53.8434 22.3344 50.8829C22.3344 47.9225 32.8515 45.4532 46.9417 44.8183V54.4783C47.8631 54.5451 50.5015 54.7022 54.1475 54.7022C58.5227 54.7022 60.7136 54.5184 61.1081 54.4816V44.825C75.1684 45.4565 85.6623 47.9292 85.6623 50.8829C85.6623 53.8367 75.1717 56.3094 61.1081 56.9375L61.1213 56.9409ZM61.1213 43.8259V35.1818H80.7435V22H27.3195V35.1818H46.9383V43.8226C30.992 44.561 19 47.7454 19 51.5613C19 55.3771 30.992 58.5581 46.9383 59.2999V87H61.118V59.2899C77.0278 58.5514 89 55.3704 89 51.5579C89 47.7454 77.0378 44.5644 61.118 43.8226L61.1213 43.8259Z" fill="#756EDF"/>
</svg>
