<svg width="108" height="108" viewBox="0 0 108 108" fill="none" xmlns="http://www.w3.org/2000/svg">
<path d="M0 18C0 8.05888 8.05888 0 18 0H108V90C108 99.9411 99.9411 108 90 108H0V18Z" fill="#DDDCF7"/>
<path fill-rule="evenodd" clip-rule="evenodd" d="M54 0C83.8255 0 108 24.1745 108 54C108 83.8255 83.8255 108 54 108C24.1745 108 0 83.8255 0 54C0 24.1745 24.1745 0 54 0Z" fill="#DDDCF7"/>
<path d="M29.6784 54L29.7173 68.2789L41.85 75.4183V83.7779L22.6168 72.4976V49.8246L29.6784 54ZM29.6784 39.7212V48.0419L22.6125 43.8621V35.5414L29.6784 31.3616L36.7788 35.5414L29.6784 39.7212ZM46.9168 35.5414L53.9827 31.3616L61.0832 35.5414L53.9827 39.7212L46.9168 35.5414Z" fill="#756EDF"/>
<path d="M34.7841 65.3193V56.9597L41.85 61.1395V69.4601L34.7841 65.3193ZM46.9168 78.4125L53.9827 82.5923L61.0832 78.4125V86.7332L53.9827 90.913L46.9168 86.7332V78.4125ZM71.2168 35.5414L78.2827 31.3616L85.3832 35.5414V43.8621L78.2827 48.0419V39.7212L71.2168 35.5414ZM78.2827 68.2789L78.3216 54L85.3875 49.8202V72.4933L66.1543 83.7736V75.414L78.2827 68.2789Z" fill="#756EDF"/>
<path d="M73.2159 65.3193L66.15 69.4602V61.1395L73.2159 56.9597V65.3193Z" fill="#756EDF"/>
<path d="M73.2158 42.6807L73.2548 51.0403L61.0875 58.1797V72.4932L54.0216 76.634L46.9558 72.4932V58.1797L34.7884 51.0403V42.6807L41.8846 38.5009L53.9783 45.6749L66.1457 38.5009L73.2461 42.6807H73.2158ZM34.7841 28.4061L53.9827 17.0869L73.2158 28.4061L66.15 32.586L53.9827 25.4119L41.85 32.586L34.7841 28.4061Z" fill="#756EDF"/>
</svg>
