<svg width="32" height="32" viewBox="0 0 32 32" fill="none" xmlns="http://www.w3.org/2000/svg">
<rect width="32" height="32" rx="6" fill="#766FDE"/>
<path d="M10 25C11.5 23.4 13 21.9673 13 20.2C13 18.4327 11.6569 17 10 17C8.34315 17 7 18.4327 7 20.2C7 21.9673 8.5 23.4 10 25ZM10 25H21.5C22.8807 25 24 23.8807 24 22.5C24 21.1193 22.8807 20 21.5 20H19M22 15C23.5 13.4 25 11.9673 25 10.2C25 8.43269 23.6569 7 22 7C20.3431 7 19 8.43269 19 10.2C19 11.9673 20.5 13.4 22 15ZM22 15H18.5C17.1193 15 16 16.1193 16 17.5C16 18.8807 17.1193 20 18.5 20H19.6" stroke="#F7F7FF" stroke-linecap="round" stroke-linejoin="round"/>
</svg>
