<svg width="109" height="32" viewBox="0 0 109 32" fill="none" xmlns="http://www.w3.org/2000/svg">
<path d="M6.51766 11.6016H0V31.9678H10.3895V28.6217H13.7774V20.2564L6.51766 11.6016ZM10.3895 28.5895H3.38789V14.9799H4.93665L10.3895 21.4791V28.5895Z" fill="url(#paint0_linear_1480_2033)"/>
<path d="M19.6611 26.1443H16.2732V31.9678H23.5975V28.5895H19.6611V26.1443ZM28.8891 11.5694H25.5012V22.4443L18.2414 11.5694H14.176L25.5012 28.5574V32H28.8891V11.5694Z" fill="url(#paint1_linear_1480_2033)"/>
<path d="M36.6898 11.6016L31.9145 15.9451L31.9468 32H35.3347L35.3024 17.4251L38.0127 14.9799H43.5624V18.1973L41.1748 20.5138H36.9157V23.8921H42.5299L46.9503 19.6451V11.6016H36.6898Z" fill="url(#paint2_linear_1480_2033)"/>
<path d="M54.2519 32V16.2347H50.864V32H54.2519ZM54.2842 14.9155V11.5373H47.8311V14.9155H54.2842Z" fill="url(#paint3_linear_1480_2033)"/>
<path d="M70.5431 31.9678H73.9309V20.4173L70.5431 23.7956V31.9678ZM73.9309 17.9721V17.9399L70.4785 11.6338H61.1215L57.0883 17.9077V32H60.4439V31.9678H60.4762L74.1245 18.326L73.9309 17.9721ZM60.4439 27.2061V18.9051L62.9606 15.0121H68.4781L69.93 17.7147L60.4439 27.2061Z" fill="url(#paint4_linear_1480_2033)"/>
<path d="M88.6607 16.8138V32H92.0486V13.1138L88.6607 16.8138ZM89.5319 9.05985L89.4996 9.1242H89.5964L89.5319 9.05985ZM87.241 11.5694L80.2394 19.259V11.5694H76.8838V32H80.2394V24.2782L91.8228 11.5694H87.241Z" fill="url(#paint5_linear_1480_2033)"/>
<path d="M105.546 25.0182V27.8174L104.868 28.493H94.8658V31.8713H106.288L108.901 29.2009V25.0182H105.546ZM108.901 20.3208H98.3505V15.6555L99.0603 14.9799H108.805V11.6016H97.7052L94.9626 14.2077V23.6991H108.901V20.3208Z" fill="url(#paint6_linear_1480_2033)"/>
<path d="M69.1549 0.0113319V3.72826L67.0006 6.39131H65.8943V0.0113319H65.0792V7.18456H67.4081L69.97 4.00023V0.0113319H69.1549ZM61.8187 6.39131V0.0113319H61.0152V7.18456H63.3325L64.5435 5.67739V4.38553L62.9366 6.39131H61.8187Z" fill="url(#paint7_linear_1480_2033)"/>
<path d="M76.2395 3.26365V1.68848L75.0168 0.0226638H72.0707L70.8713 1.68848V5.74538L72.3152 7.20722H75.1682L76.2395 5.70005V4.20421H75.4244V5.45074L74.749 6.41397H72.6529L71.6748 5.42808V1.94912L72.5015 0.815911H74.5976L75.4244 1.94912V3.26365H76.2395Z" fill="url(#paint8_linear_1480_2033)"/>
<path d="M79.348 0.815911H82.2941V0.0226638H79.022L77.2636 1.64316L77.2752 7.19589H78.0904L78.0787 1.98312L79.348 0.815911ZM80.0234 4.37419H80.8153L82.2825 2.99168V1.34852H81.4674V2.65171L80.4776 3.58095H78.8706V4.37419L81.7818 7.19589H82.9346L80.0234 4.37419Z" fill="url(#paint9_linear_1480_2033)"/>
<path d="M84.5171 0H83.7136V7.20722L87.1022 7.21855V6.42531L84.5171 6.41397V0ZM87.3701 3.30898L86.52 4.10222H87.8126V7.20722H88.6277V3.30898H87.3701Z" fill="url(#paint10_linear_1480_2033)"/>
<path d="M92.8526 0.0113319H89.592V0.80458H92.4566L93.3533 1.92646V3.7396L91.1291 6.39131H90.4188V1.49584H89.6037V7.18456H91.5134L94.1684 4.0229V1.65449L92.8526 0.0113319Z" fill="url(#paint11_linear_1480_2033)"/>
<path d="M103.225 3.26365V1.68848L102.002 0.0226638H99.056L97.8566 1.68848V5.74538L99.3006 7.20722H102.154L103.225 5.70005V4.20421H102.41V5.45074L101.734 6.41397H99.6383L98.6601 5.42808V1.94912L99.4869 0.815911H101.583L102.41 1.94912V3.26365H103.225Z" fill="url(#paint12_linear_1480_2033)"/>
<path d="M105.006 7.19589V4.79348H104.202V7.19589H105.006ZM106.112 0.815911H109V0.0226638H105.751L104.202 1.64316V4.13622H107.696V3.34297H105.006V1.94912L106.112 0.815911Z" fill="url(#paint13_linear_1480_2033)"/>
<defs>
<linearGradient id="paint0_linear_1480_2033" x1="54.5" y1="0" x2="54.5" y2="32" gradientUnits="userSpaceOnUse">
<stop stop-color="#5690FF"/>
<stop offset="1" stop-color="#8C56FF"/>
</linearGradient>
<linearGradient id="paint1_linear_1480_2033" x1="54.5" y1="0" x2="54.5" y2="32" gradientUnits="userSpaceOnUse">
<stop stop-color="#5690FF"/>
<stop offset="1" stop-color="#8C56FF"/>
</linearGradient>
<linearGradient id="paint2_linear_1480_2033" x1="54.5" y1="0" x2="54.5" y2="32" gradientUnits="userSpaceOnUse">
<stop stop-color="#5690FF"/>
<stop offset="1" stop-color="#8C56FF"/>
</linearGradient>
<linearGradient id="paint3_linear_1480_2033" x1="54.5" y1="0" x2="54.5" y2="32" gradientUnits="userSpaceOnUse">
<stop stop-color="#5690FF"/>
<stop offset="1" stop-color="#8C56FF"/>
</linearGradient>
<linearGradient id="paint4_linear_1480_2033" x1="54.5" y1="0" x2="54.5" y2="32" gradientUnits="userSpaceOnUse">
<stop stop-color="#5690FF"/>
<stop offset="1" stop-color="#8C56FF"/>
</linearGradient>
<linearGradient id="paint5_linear_1480_2033" x1="54.5" y1="0" x2="54.5" y2="32" gradientUnits="userSpaceOnUse">
<stop stop-color="#5690FF"/>
<stop offset="1" stop-color="#8C56FF"/>
</linearGradient>
<linearGradient id="paint6_linear_1480_2033" x1="54.5" y1="0" x2="54.5" y2="32" gradientUnits="userSpaceOnUse">
<stop stop-color="#5690FF"/>
<stop offset="1" stop-color="#8C56FF"/>
</linearGradient>
<linearGradient id="paint7_linear_1480_2033" x1="54.5" y1="0" x2="54.5" y2="32" gradientUnits="userSpaceOnUse">
<stop stop-color="#5690FF"/>
<stop offset="1" stop-color="#8C56FF"/>
</linearGradient>
<linearGradient id="paint8_linear_1480_2033" x1="54.5" y1="0" x2="54.5" y2="32" gradientUnits="userSpaceOnUse">
<stop stop-color="#5690FF"/>
<stop offset="1" stop-color="#8C56FF"/>
</linearGradient>
<linearGradient id="paint9_linear_1480_2033" x1="54.5" y1="0" x2="54.5" y2="32" gradientUnits="userSpaceOnUse">
<stop stop-color="#5690FF"/>
<stop offset="1" stop-color="#8C56FF"/>
</linearGradient>
<linearGradient id="paint10_linear_1480_2033" x1="54.5" y1="0" x2="54.5" y2="32" gradientUnits="userSpaceOnUse">
<stop stop-color="#5690FF"/>
<stop offset="1" stop-color="#8C56FF"/>
</linearGradient>
<linearGradient id="paint11_linear_1480_2033" x1="54.5" y1="0" x2="54.5" y2="32" gradientUnits="userSpaceOnUse">
<stop stop-color="#5690FF"/>
<stop offset="1" stop-color="#8C56FF"/>
</linearGradient>
<linearGradient id="paint12_linear_1480_2033" x1="54.5" y1="0" x2="54.5" y2="32" gradientUnits="userSpaceOnUse">
<stop stop-color="#5690FF"/>
<stop offset="1" stop-color="#8C56FF"/>
</linearGradient>
<linearGradient id="paint13_linear_1480_2033" x1="54.5" y1="0" x2="54.5" y2="32" gradientUnits="userSpaceOnUse">
<stop stop-color="#5690FF"/>
<stop offset="1" stop-color="#8C56FF"/>
</linearGradient>
</defs>
</svg>
