<svg width="100" height="100" viewBox="0 0 100 100" fill="none" xmlns="http://www.w3.org/2000/svg">
<rect width="100" height="100" rx="50" fill="url(#paint0_linear_416_400)"/>
<path fill-rule="evenodd" clip-rule="evenodd" d="M37.06 44.6779L50.0083 31.7352L62.9619 44.6884L70.4919 37.1534L50.0083 16.6652L29.5247 37.1481L37.06 44.6779ZM16.6992 50L24.2317 42.4678L31.7641 50L24.2317 57.5322L16.6992 50ZM50.0189 68.2676L37.0705 55.3197L29.5247 62.8441L29.5353 62.8547L50.0189 83.3323L70.5024 62.8441L70.5077 62.8389L62.9725 55.3144L50.0189 68.2676ZM68.3051 50.0009L75.8376 42.4686L83.37 50.0009L75.8376 57.5331L68.3051 50.0009ZM50.0447 42.3506L57.6853 49.9961H57.6905L57.6853 50.0014L50.0447 57.6469L42.4042 50.0119L42.3937 49.9961L42.4042 49.9856L43.7417 48.6481L44.3946 48.0005L50.0447 42.3506Z" fill="white"/>
<defs>
<linearGradient id="paint0_linear_416_400" x1="100" y1="100" x2="0" y2="0" gradientUnits="userSpaceOnUse">
<stop stop-color="#D1A000"/>
<stop offset="1" stop-color="#FFD632"/>
<stop offset="1" stop-color="#FFD632"/>
</linearGradient>
</defs>
</svg>
