<svg width="527" height="224" viewBox="0 0 527 224" fill="none" xmlns="http://www.w3.org/2000/svg">
<path d="M0 18C0 8.05887 8.05887 0 18 0H526V206C526 215.941 517.941 224 508 224H0V18Z" fill="url(#paint0_linear_232_485)"/>
<g opacity="0.3">
<mask id="mask0_232_485" style="mask-type:alpha" maskUnits="userSpaceOnUse" x="1" y="0" width="526" height="224">
<path d="M1 18C1 8.05887 9.05887 0 19 0H527V206C527 215.941 518.941 224 509 224H1V18Z" fill="#F16640"/>
</mask>
<g mask="url(#mask0_232_485)">
<path d="M205.752 97.1165L205.752 97.1166L205.758 97.1146C209.683 95.7096 212.587 95.9139 214.808 96.9474C217.059 97.9942 218.782 99.9705 220.176 102.436C221.57 104.9 222.58 107.754 223.456 110.437C223.6 110.879 223.742 111.32 223.881 111.755C224.569 113.894 225.212 115.897 225.93 117.271L225.93 117.271L225.937 117.284C228.382 121.807 228.56 126.623 228.746 131.632C228.751 131.764 228.756 131.897 228.761 132.029C228.951 137.103 229.21 142.385 232.338 147.161L232.343 147.169L232.348 147.176C234.849 150.853 235.093 155.636 233.149 160.185C232.574 161.134 231.947 162.132 230.954 162.86C229.502 163.857 227.598 164.093 225.75 163.784C223.897 163.474 222.271 162.643 221.393 161.718C220.555 160.71 220.044 159.516 219.528 158.152C219.463 157.979 219.397 157.803 219.33 157.625C218.883 156.425 218.392 155.105 217.636 153.884L217.632 153.878C216.315 151.786 214.218 150.126 211.914 148.691C210.104 147.564 208.086 146.529 206.127 145.524C205.596 145.252 205.069 144.981 204.551 144.712C202.088 143.43 199.831 142.164 198.119 140.722C196.418 139.289 195.349 137.762 195.099 135.969L195.097 135.957L195.096 135.946C194.698 133.504 195.89 130.947 197.523 128.076C197.744 127.687 197.973 127.292 198.205 126.893C198.798 125.871 199.406 124.822 199.932 123.787C200.667 122.338 201.29 120.824 201.536 119.276L201.536 119.275C201.892 117.007 201.435 114.883 200.871 112.901C200.722 112.38 200.568 111.873 200.417 111.376C199.978 109.929 199.562 108.56 199.367 107.118L199.364 107.095L199.36 107.072C198.704 103.503 200.491 98.9639 205.752 97.1165Z" fill="url(#paint1_linear_232_485)" fill-opacity="0.3" stroke="white" stroke-width="2" stroke-miterlimit="10"/>
<path d="M201.803 156.049L201.803 156.049L201.793 156.045C200.428 155.448 198.979 154.861 197.49 154.257C194.954 153.23 192.302 152.156 189.753 150.904C185.729 148.928 182.277 146.646 180.397 143.755C178.693 141.096 178.546 138.277 179.158 135.152C179.692 132.582 180.957 130.015 182.562 127.303C183.293 126.067 184.084 124.817 184.899 123.531C184.977 123.408 185.054 123.285 185.132 123.162C186.024 121.753 186.938 120.3 187.805 118.801C189.416 116.147 190.699 113.479 191.13 110.711C191.779 107.576 191.431 104.565 190.785 101.584C190.49 100.226 190.13 98.857 189.768 97.4848C189.733 97.3492 189.697 97.2137 189.661 97.0781C189.263 95.5614 188.868 94.0337 188.549 92.4575L188.549 92.4575L188.547 92.4486C186.721 83.8388 192.176 75.9164 201.908 72.7086C205.193 71.6258 208.367 70.9763 211.433 70.7526C216.026 70.5325 221.102 70.8767 225.54 72.1934C229.989 73.5131 233.677 75.7705 235.698 79.2907C236.087 79.9696 236.267 80.8622 236.285 81.9693C236.304 83.0729 236.163 84.2934 235.988 85.5848C235.958 85.8021 235.928 86.0218 235.897 86.243C235.749 87.3092 235.596 88.4114 235.531 89.4475C235.452 90.6944 235.49 91.9644 235.872 93.0799L235.874 93.087L235.877 93.0941C236.702 95.3943 237.547 97.581 238.358 99.6803C239.852 103.546 241.232 107.115 242.165 110.554L242.168 110.563L242.17 110.573C243.543 115.262 245.623 119.632 247.639 123.868C247.871 124.353 248.101 124.837 248.329 125.319C250.564 130.04 252.614 134.632 253.563 139.525C253.981 141.695 253.456 144.118 252.809 146.797C252.775 146.94 252.74 147.084 252.705 147.228C252.111 149.674 251.468 152.325 251.731 154.825C251.733 155.79 251.911 156.532 252.351 157.415L252.358 157.429L252.366 157.443C255.722 163.675 255.129 170.775 251.576 177.164L251.569 177.177L251.562 177.19C250.661 178.931 249.368 180.554 247.257 181.965L247.079 182.084L247.018 182.184L246.973 182.21C243.845 184.019 239.827 184.516 236.077 184.078C232.304 183.637 229.011 182.273 227.284 180.591L227.271 180.578L227.257 180.566C225.639 179.096 224.703 177.323 223.878 175.369C223.678 174.896 223.482 174.404 223.282 173.902C222.68 172.391 222.04 170.786 221.148 169.326C220.47 168.184 219.814 167.2 218.94 166.248C216.781 163.82 213.98 161.949 211.004 160.354C208.663 159.099 206.161 157.988 203.738 156.913C203.086 156.623 202.439 156.336 201.803 156.049Z" fill="url(#paint2_linear_232_485)" fill-opacity="0.3" stroke="white" stroke-width="2" stroke-miterlimit="10"/>
<path d="M163.42 147.518L163.417 147.512L163.414 147.506C161.093 143.149 161.697 138.724 163.224 134.314C164.45 130.825 166.498 127.441 168.864 123.959C169.704 122.723 170.589 121.467 171.489 120.191C173.093 117.917 174.741 115.58 176.249 113.186C178.535 109.706 179.986 106.178 180.845 102.769L180.848 102.756L180.851 102.744C181.78 98.6023 181.405 94.5916 180.594 90.5798C180.189 88.5765 179.671 86.555 179.146 84.5162L179.117 84.4027C178.6 82.3933 178.078 80.3631 177.637 78.2694C174.695 64.0526 183.818 53.0384 197.921 48.5049C202.999 47.0476 208.035 45.818 212.889 45.6388L212.889 45.6389L212.902 45.6382C219.638 45.3013 227.798 45.3418 235.078 46.8612C242.384 48.3859 248.574 51.35 251.701 56.6687C252.221 57.5961 252.333 58.9447 252.099 60.7088C251.867 62.4532 251.326 64.4194 250.733 66.4728C250.671 66.6895 250.608 66.9072 250.544 67.1255C250.016 68.9462 249.474 70.8149 249.146 72.5402C248.783 74.4493 248.644 76.3609 249.194 77.9405L249.198 77.9506C250.327 81.0823 251.541 84.1044 252.718 87.0363C253.342 88.5895 253.956 90.1173 254.541 91.6226C256.242 95.9959 257.728 100.234 258.644 104.569C260.136 111.825 264.271 118.176 268.364 124.304C268.516 124.531 268.668 124.758 268.82 124.985C272.796 130.933 276.647 136.694 278.337 143.11L278.339 143.115C278.659 144.303 278.528 145.696 278.052 147.294C277.578 148.887 276.791 150.589 275.902 152.362C275.639 152.888 275.366 153.421 275.09 153.959C274.451 155.208 273.8 156.479 273.242 157.71C272.444 159.472 271.783 161.259 271.575 162.963C271.412 164.14 271.442 165.381 271.971 166.571L271.985 166.604L272.003 166.636C276.821 175.684 275.336 185.692 270.27 194.306C268.729 196.843 266.798 199.226 263.446 201.311L262.859 201.676L262.869 201.722C258.249 204.253 252.344 205.012 246.853 204.483C241.226 203.942 236.258 202.073 233.655 199.629L233.646 199.62L233.636 199.611C231.133 197.377 229.746 194.751 228.509 191.907C228.254 191.32 228.004 190.719 227.75 190.108C226.792 187.808 225.782 185.382 224.262 183.119L224.255 183.109L224.248 183.099C223.324 181.789 222.136 180.286 220.777 179.017C214.549 173.117 205.529 169.559 197.533 166.405C196.662 166.062 195.804 165.723 194.962 165.387L194.955 165.384C193.183 164.691 191.252 164 189.236 163.278C185.326 161.879 181.097 160.365 177.091 158.503C171.03 155.685 165.839 152.216 163.42 147.518Z" fill="url(#paint3_linear_232_485)" fill-opacity="0.3" stroke="white" stroke-width="2" stroke-miterlimit="10"/>
<path d="M187.755 174.817L187.756 174.817C189.537 175.51 191.392 176.2 193.286 176.905C197.339 178.414 201.573 179.99 205.65 181.791C211.646 184.44 217.432 187.628 222.066 191.947C223.9 193.533 225.377 195.395 226.784 197.17L226.813 197.205L226.829 197.226L226.844 197.247C228.967 200.218 230.308 203.442 231.593 206.529C231.9 207.267 232.204 207.997 232.514 208.714C234.142 212.474 235.989 215.993 239.462 218.967L239.469 218.972C243.032 222.077 249.682 224.399 257.166 225.063C264.622 225.725 272.693 224.72 279.028 221.395L279.137 221.338C279.176 221.306 279.253 221.243 279.34 221.186C279.407 221.142 279.502 221.086 279.623 221.041C284.195 218.491 286.871 215.149 288.84 211.907C295.562 200.845 297.814 188.168 291.587 176.493C291.132 175.713 291.021 174.853 291.032 174.059C291.043 173.277 291.177 172.458 291.298 171.724L291.304 171.688L291.311 171.644L291.322 171.601C291.864 169.517 293.036 167.316 294.394 165.13C295.263 163.73 296.242 162.284 297.211 160.854C297.751 160.058 298.287 159.266 298.8 158.49C300.255 156.285 301.543 154.166 302.346 152.194C303.154 150.214 303.415 148.519 303.003 147.103C300.629 139.318 295.221 132.395 289.651 125.264C289.24 124.738 288.829 124.212 288.418 123.683C282.491 116.068 276.633 108.14 274.978 98.8626C273.856 92.8029 271.819 87.0647 269.467 81.202C268.704 79.2986 267.904 77.3757 267.092 75.4242C265.416 71.394 263.689 67.2418 262.125 62.8874L262.123 62.8813C261.416 60.8728 261.726 58.3619 262.37 55.8085C262.954 53.4916 263.864 50.9611 264.758 48.4748C264.863 48.1835 264.967 47.8928 265.071 47.6032C266.072 44.8091 267.003 42.1069 267.462 39.7194C267.929 37.2961 267.86 35.4313 267.126 34.1709L267.125 34.169C262.97 26.9987 254.243 23.3348 244.086 21.6162C233.975 19.9056 222.75 20.1734 213.992 20.6055L187.755 174.817ZM187.755 174.817C185.455 173.924 182.902 173.028 180.213 172.084C175.113 170.293 169.522 168.33 164.231 165.89C156.165 162.17 149.197 157.502 146.16 151.068C143.5 145.339 144.843 139.085 147.291 133.415C149.218 129.026 152.046 124.839 155.126 120.6C155.867 119.58 156.623 118.557 157.384 117.527C159.764 114.305 162.187 111.024 164.315 107.629C167.37 103.162 169.267 98.9115 170.329 94.5998L170.329 94.5971C172.445 85.9022 170.214 77.4266 167.799 68.2487C167.435 66.8675 167.067 65.4703 166.71 64.0542L166.709 64.0527C164.228 54.2945 166.404 45.9085 171.467 39.2178C176.55 32.5011 184.576 27.4572 193.814 24.5337L193.825 24.5301M187.755 174.817L193.825 24.5301M193.825 24.5301C200.49 22.3358 207.324 20.9389 213.991 20.6055L193.825 24.5301Z" fill="url(#paint4_linear_232_485)" fill-opacity="0.3" stroke="white" stroke-width="2" stroke-miterlimit="10"/>
<path d="M129.139 154.769L129.141 154.772C132.698 162.964 141.49 168.824 151.632 173.409C158.35 176.446 165.474 178.85 171.867 181.007C175.131 182.109 178.205 183.146 180.937 184.17C182.922 184.901 184.982 185.635 187.089 186.386C192.308 188.245 197.808 190.204 203.134 192.469C210.617 195.652 217.865 199.482 223.695 204.598C226.015 206.507 227.975 208.693 229.771 211.1C232.653 214.857 234.382 218.98 236.049 222.952C236.368 223.713 236.685 224.468 237.007 225.214C239.03 229.899 241.294 234.325 245.65 238.06L245.656 238.064C250.102 241.931 258.382 244.76 267.709 245.521C277.005 246.279 287.128 244.963 295.184 240.759L295.307 240.695L295.32 240.692C295.326 240.688 295.332 240.684 295.338 240.68C295.349 240.672 295.361 240.663 295.372 240.656C295.505 240.565 295.709 240.436 295.997 240.351C301.811 237.125 305.111 233.026 307.512 229.076L307.517 229.068L307.521 229.061C315.938 215.758 318.923 200.196 311.209 185.672L311.203 185.661L311.197 185.649C310.254 183.76 310.614 181.909 311.154 179.911L311.162 179.884L311.171 179.857C311.99 177.401 313.655 174.775 315.571 172.144C316.76 170.511 318.088 168.823 319.407 167.146C320.207 166.13 321.003 165.118 321.762 164.125C323.804 161.458 325.616 158.888 326.756 156.514C327.905 154.119 328.281 152.104 327.731 150.461L327.73 150.458C324.647 141.148 317.624 133.006 310.427 124.664C309.762 123.893 309.095 123.12 308.43 122.345C300.65 113.273 293.088 103.826 291.373 92.5216C290.116 84.6156 287.516 77.3254 284.518 69.9976C283.611 67.7785 282.664 65.5499 281.707 63.2989C279.518 58.1483 277.279 52.8807 275.348 47.3434M129.139 154.769L276.297 47.039M129.139 154.769C125.86 147.295 128.006 139.407 131.375 132.491C134.004 127.211 137.611 122.227 141.463 117.17C142.149 116.27 142.843 115.366 143.54 114.459C146.741 110.293 150.009 106.039 152.878 101.549L129.139 154.769ZM275.348 47.3434C275.348 47.3426 275.348 47.3418 275.348 47.341L276.297 47.039M275.348 47.3434C275.349 47.3442 275.349 47.3449 275.349 47.3457L276.297 47.039M275.348 47.3434C274.491 44.9212 274.965 41.8245 275.892 38.6242C276.745 35.6805 278.048 32.4462 279.333 29.2541C279.465 28.9276 279.596 28.6016 279.727 28.2764C281.148 24.7392 282.49 21.2943 283.207 18.254C283.935 15.1702 283.952 12.7641 283.036 11.1449M276.297 47.039C274.877 43.0287 277.561 36.3652 280.271 29.6356C283.243 22.2579 286.247 14.8009 283.909 10.6738M283.036 11.1449C283.037 11.1458 283.037 11.1468 283.038 11.1477L283.909 10.6738M283.036 11.1449C283.036 11.144 283.035 11.143 283.035 11.1421L283.909 10.6738M283.036 11.1449L283.909 10.6738M189.942 -0.107354C189.943 -0.107763 189.945 -0.108169 189.946 -0.108578L189.62 -1.05653L189.938 -0.106178C189.939 -0.106571 189.941 -0.106962 189.942 -0.107354Z" fill="url(#paint5_linear_232_485)" fill-opacity="0.3" stroke="white" stroke-width="2" stroke-miterlimit="10"/>
<path d="M173.876 193.364L173.871 193.362C170.789 192.253 167.322 191.125 163.633 189.924C155.84 187.387 147.053 184.528 138.803 180.842C126.649 175.412 116.066 168.348 111.866 158.304C108.25 149.435 111.019 139.945 115.451 131.552C118.785 125.382 123.123 119.613 127.707 113.803C128.564 112.716 129.431 111.628 130.3 110.535C134.065 105.804 137.893 100.994 141.321 95.9221C145.591 89.7378 148.321 83.8448 149.829 77.9649L149.831 77.9548C153.145 64.426 149.559 51.2902 145.384 35.9962L145.169 35.2078L145.169 35.2071C141.043 20.1273 144.432 7.46169 152.226 -2.51436C160.044 -12.5225 172.332 -19.8624 186.019 -24.1183C196.134 -27.233 206.391 -29.5358 216.657 -29.9783L216.664 -29.9786C216.989 -29.9948 217.316 -30.0111 217.646 -30.0276C230.418 -30.665 247.277 -31.5063 262.634 -29.522C278.447 -27.4788 292.28 -22.4861 298.61 -11.6034C299.709 -9.61779 299.599 -6.66483 298.61 -2.92516C297.633 0.767658 295.879 4.95484 294.038 9.23493C293.882 9.59794 293.725 9.96162 293.568 10.3257C291.889 14.2217 290.192 18.1574 289.07 21.7248C287.859 25.5759 287.228 29.254 288.234 32.0831L288.236 32.0874C290.535 38.4625 293.167 44.5218 295.741 50.4456C297.04 53.4375 298.325 56.395 299.544 59.3411C303.194 68.1587 306.301 76.9673 307.668 86.6286L307.669 86.6347C309.615 99.8081 318.855 110.713 328.459 121.22C329.336 122.179 330.216 123.135 331.094 124.089C339.927 133.688 348.603 143.115 352.503 154.005L352.506 154.012C353.197 155.9 352.71 158.244 351.231 161.043C349.768 163.816 347.445 166.826 344.827 169.939C343.736 171.236 342.583 172.564 341.428 173.894C339.853 175.707 338.275 177.524 336.847 179.273C334.363 182.316 332.186 185.323 331.029 188.093C329.896 190.552 329.65 192.786 330.624 194.865L330.635 194.889L330.647 194.912C339.786 212.075 335.927 230.755 326.001 246.264C322.961 250.994 319.02 255.862 311.934 259.768C311.831 259.805 311.749 259.847 311.698 259.873C311.611 259.919 311.523 259.971 311.463 260.008L311.454 260.013C311.395 260.048 311.357 260.071 311.328 260.087L311.265 260.1L311.142 260.164C301.468 265.224 289.283 266.805 278.113 265.93C266.91 265.052 256.946 261.724 251.637 257.191C246.275 252.613 243.536 247.234 241.116 241.609C240.736 240.725 240.363 239.833 239.988 238.936C237.994 234.166 235.942 229.257 232.463 224.808C230.361 222.016 227.921 219.518 225.347 217.276L225.345 217.274C218.262 211.144 209.492 206.676 200.471 202.991C194.612 200.597 188.584 198.511 182.825 196.518C179.742 195.45 176.736 194.41 173.876 193.364Z" fill="url(#paint6_linear_232_485)" fill-opacity="0.3" stroke="white" stroke-width="2" stroke-miterlimit="10"/>
<path d="M257.467 276.556L257.472 276.561C263.665 281.855 275.309 285.681 288.387 286.675C301.431 287.666 315.68 285.821 327 280.002L327.12 279.94L327.254 279.912C327.264 279.91 327.269 279.914 327.402 279.834L327.418 279.824C327.532 279.756 327.729 279.637 328.001 279.557C336.327 274.978 340.896 269.356 344.567 263.863C356.146 245.911 360.78 224.556 350.222 204.755C348.932 202.424 349.567 199.634 350.809 197.023C352.283 193.876 354.956 190.441 358.002 186.949C359.76 184.933 361.69 182.847 363.616 180.765C365.016 179.251 366.414 177.74 367.742 176.26C370.938 172.699 373.791 169.255 375.624 166.096C377.477 162.902 378.146 160.241 377.404 158.13C374.869 151.316 370.58 144.986 365.459 138.836C361.355 133.909 356.752 129.137 352.122 124.337C350.965 123.138 349.806 121.936 348.652 120.73C337.188 108.741 326.248 96.2786 324.243 81.0974L324.242 81.0948C322.764 69.6785 319.091 59.3115 314.789 49.0002C313.414 45.705 311.971 42.4063 310.515 39.0795C307.432 32.0361 304.295 24.8665 301.637 17.337M257.467 276.556L302.584 17.0288M257.467 276.556C251.245 271.314 248.054 265.085 245.217 258.545C244.777 257.529 244.344 256.504 243.909 255.473C241.561 249.907 239.143 244.177 235.052 238.957M257.467 276.556L234.258 239.546M301.637 17.337C301.637 17.3362 301.636 17.3353 301.636 17.3344L302.584 17.0288M301.637 17.337C301.637 17.3372 301.637 17.3374 301.637 17.3376L302.584 17.0288M301.637 17.337C300.484 14.1041 301.284 9.84516 302.79 5.34206C304.169 1.22112 306.224 -3.33209 308.265 -7.85467C308.482 -8.33447 308.698 -8.81392 308.914 -9.29247C311.174 -14.3146 313.328 -19.2391 314.528 -23.573C315.743 -27.9635 315.889 -31.4482 314.519 -33.7808L314.516 -33.7872C307.145 -46.5495 290.692 -52.2211 271.993 -54.4411C254.615 -56.5042 235.657 -55.5473 221.103 -54.8127C220.056 -54.7598 219.033 -54.7081 218.034 -54.6588M302.584 17.0288C300.625 11.5361 304.88 2.10759 309.187 -7.43587C313.926 -17.9348 318.727 -28.5728 315.386 -34.2628C300.622 -59.8244 251.173 -57.3273 221.039 -55.8056C219.988 -55.7525 218.96 -55.7006 217.958 -55.6511M218.034 -54.6588C218.034 -54.6588 218.034 -54.6588 218.034 -54.6588L217.958 -55.6511M218.034 -54.6588L217.958 -55.6511M218.034 -54.6588C205.979 -54.0622 193.79 -51.3634 182.127 -47.9314M217.958 -55.6511C205.79 -55.0489 193.514 -52.3265 181.811 -48.8822M181.811 -48.8822L182.134 -47.9334C182.131 -47.9327 182.129 -47.9321 182.127 -47.9314M181.811 -48.8822C149.828 -38.9796 123.434 -14.6963 133.319 21.4626M181.811 -48.8822L182.12 -47.9294C182.122 -47.9301 182.125 -47.9307 182.127 -47.9314M182.127 -47.9314C166.266 -43.0195 151.867 -34.5628 142.662 -22.9316C133.484 -11.3328 129.433 3.46175 134.289 21.2254M133.319 21.4626L134.288 21.2215C134.288 21.2228 134.288 21.2241 134.289 21.2254M133.319 21.4626C138.357 39.5223 142.453 54.4184 138.565 69.6898M133.319 21.4626L134.289 21.2266C134.289 21.2262 134.289 21.2258 134.289 21.2254M134.289 21.2254C139.312 39.2289 143.503 54.3875 139.541 69.9531M138.565 69.6898L139.541 69.9531M138.565 69.6898C136.892 76.326 133.823 83.0379 128.975 89.9044M138.565 69.6898L139.541 69.9552C139.541 69.9545 139.541 69.9538 139.541 69.9531M139.541 69.9531C137.836 76.7137 134.715 83.5312 129.807 90.4832M128.975 89.9044L129.81 90.4797C129.809 90.4808 129.808 90.482 129.807 90.4832M128.975 89.9044L129.805 90.4868C129.805 90.4856 129.806 90.4844 129.807 90.4832M128.975 89.9044L225.99 230.958M129.807 90.4832C125.784 96.2919 121.229 101.777 116.735 107.189C115.807 108.306 114.882 109.42 113.964 110.534C108.587 117.059 103.465 123.567 99.5262 130.594C94.1626 140.245 90.395 151.409 94.6272 162.027C99.3479 173.844 111.72 182.113 125.901 188.417C135.618 192.736 145.991 196.058 155.1 198.975C159.28 200.313 163.193 201.566 166.656 202.792C169.437 203.761 172.325 204.732 175.277 205.725C182.536 208.166 190.191 210.739 197.641 213.757C208.134 218.008 218.328 223.18 226.63 230.208M226.63 230.208C226.631 230.209 226.632 230.21 226.633 230.211L225.99 230.958M226.63 230.208C226.63 230.208 226.63 230.208 226.629 230.208L225.99 230.958M226.63 230.208C229.692 232.778 232.661 235.801 235.052 238.957M225.99 230.958C229.004 233.488 231.92 236.458 234.258 239.546M235.052 238.957C235.05 238.955 235.048 238.952 235.046 238.95L234.258 239.546M235.052 238.957C235.054 238.959 235.055 238.962 235.057 238.964L234.258 239.546" fill="url(#paint7_linear_232_485)" fill-opacity="0.3" stroke="white" stroke-width="2" stroke-miterlimit="10"/>
<path d="M77.5567 165.518L77.5528 165.509C72.8021 153.537 77.3383 140.539 83.6244 129.646C88.267 121.735 94.165 114.436 100.29 107.099C101.03 106.213 101.773 105.325 102.518 104.437C107.924 97.9862 113.403 91.4475 118.185 84.4397C123.667 76.5412 127.228 69.0073 129.133 61.3596C133.685 43.992 129.07 27.0266 123.483 6.61948L123.481 6.6112C117.706 -13.7946 122.357 -30.7561 132.91 -44.0267C143.492 -57.3327 160.043 -66.9659 178.078 -72.5321L178.082 -72.5334C191.569 -76.7567 205.489 -79.81 219.369 -80.3619L219.372 -80.362C221.406 -80.4497 223.535 -80.5494 225.742 -80.6528C241.903 -81.4095 262.321 -82.3657 281.171 -80.2744C302.668 -77.8894 321.685 -71.5834 330.196 -56.9594L330.198 -56.9555C331.726 -54.3575 331.474 -50.3906 329.985 -45.3732C328.516 -40.423 325.946 -34.7682 323.265 -29.0027C323.053 -28.5461 322.84 -28.0887 322.627 -27.6311C320.163 -22.3427 317.68 -17.011 316.016 -12.2006C315.111 -9.58329 314.435 -7.08516 314.14 -4.80199C313.845 -2.52583 313.92 -0.398061 314.577 1.44237C317.65 10.1371 321.302 18.3768 324.887 26.4669C326.561 30.2427 328.22 33.9859 329.799 37.7275C334.778 49.5261 339.005 61.4025 340.594 74.5751L340.594 74.5804C342.757 91.7398 355.377 105.705 368.671 119.155C370.037 120.536 371.41 121.913 372.782 123.287C378.125 128.643 383.441 133.971 388.185 139.484C394.14 146.403 399.134 153.547 402.082 161.271C402.989 163.693 402.189 166.712 399.99 170.308C397.815 173.865 394.427 177.734 390.638 181.733C389.102 183.354 387.492 185.004 385.878 186.658C383.553 189.041 381.221 191.431 379.095 193.75C375.493 197.679 372.341 201.548 370.606 205.114C368.985 208.078 368.445 211.031 369.79 213.725L369.796 213.736L369.802 213.748C381.841 236.397 376.279 260.676 363.19 280.834C359.063 287.073 353.698 293.711 344.205 298.735L344.117 298.782L344.041 298.844C343.971 298.902 343.889 298.947 343.698 299.042L343.676 299.052C343.525 299.127 343.298 299.239 343.071 299.409C330.145 306.052 313.884 308.199 299.005 307.119C284.06 306.033 270.737 301.71 263.66 295.654L263.655 295.649L263.649 295.645C256.448 289.66 252.794 282.531 249.566 275.075C249.065 273.918 248.574 272.75 248.08 271.577C245.409 265.233 242.67 258.725 237.986 252.822C235.083 249.162 231.831 245.777 228.273 242.872C218.748 234.941 207.091 229.126 195.11 224.34C186.882 221.054 178.445 218.233 170.421 215.551C166.776 214.332 163.216 213.142 159.801 211.95C155.713 210.509 151.066 209.045 146.097 207.479C135.801 204.235 124.125 200.557 113.187 195.753C96.9716 188.632 82.8218 179.209 77.5567 165.518Z" fill="url(#paint8_linear_232_485)" fill-opacity="0.3" stroke="white" stroke-width="2" stroke-miterlimit="10"/>
<path d="M241.068 266.454C237.858 262.408 234.167 258.905 230.117 255.506L230.109 255.5C219.36 246.661 206.187 240.21 192.671 234.923C183.433 231.31 173.978 228.221 165.009 225.291C160.873 223.94 156.841 222.622 152.98 221.303C148.598 219.793 143.63 218.249 138.314 216.597C126.572 212.948 113.136 208.773 100.585 203.272C82.3479 195.279 66.402 184.65 60.5193 169.2C55.3341 155.418 60.5111 140.81 67.9006 128.655L67.904 128.649C73.1547 119.875 79.7343 111.803 86.5681 103.717C87.5294 102.579 88.4958 101.442 89.4642 100.301C95.3643 93.3547 101.336 86.3243 106.632 78.8105C112.948 70.1005 116.899 61.642 119.048 53.3179L119.049 53.3138C123.948 33.9892 119.061 14.9919 112.759 -7.60111L112.758 -7.60365C106.252 -30.695 111.565 -49.7869 123.505 -64.6807C135.474 -79.6107 154.14 -90.3604 174.349 -96.5817L174.355 -96.5836C189.527 -101.362 205.186 -104.771 220.853 -105.477C223.397 -105.59 226.076 -105.721 228.866 -105.858C246.939 -106.744 269.68 -107.859 290.707 -105.644C315.056 -103.079 336.648 -96.0899 346.205 -79.5869C347.053 -78.1186 347.406 -76.2562 347.313 -74.0137C347.22 -71.7716 346.683 -69.2144 345.819 -66.4164C344.09 -60.8143 341.107 -54.4176 338.006 -47.9097C337.77 -47.4144 337.533 -46.9185 337.296 -46.4223C334.437 -40.4306 331.558 -34.3985 329.625 -28.9659C328.576 -26.0209 327.793 -23.2165 327.442 -20.6598C327.093 -18.1103 327.165 -15.7392 327.896 -13.699C331.287 -4.15529 335.329 4.93303 339.31 13.8865C341.259 18.2683 343.193 22.6179 345.03 26.9728C350.637 40.2689 355.385 53.7172 357.084 68.6503L357.084 68.6517C359.282 87.7099 373.535 103.189 388.66 118.1C390.31 119.727 391.972 121.348 393.631 122.966C399.618 128.806 405.579 134.621 410.917 140.635C417.728 148.307 423.459 156.233 426.856 164.81L426.856 164.811C427.9 167.44 426.975 170.76 424.435 174.741C421.926 178.673 418.021 182.972 413.654 187.417C411.857 189.247 409.973 191.109 408.086 192.975C405.429 195.602 402.765 198.236 400.327 200.793C396.148 205.177 392.486 209.482 390.435 213.428L390.43 213.438C388.77 216.727 387.794 220.029 389.438 222.955C402.945 248.448 396.645 275.602 381.866 297.991C377.106 304.996 371.108 312.396 360.355 318.099L360.268 318.145L360.192 318.208C360.122 318.265 360.04 318.31 359.849 318.405L359.827 318.415C359.676 318.49 359.451 318.601 359.225 318.77C344.56 326.191 326.273 328.542 309.565 327.311C292.793 326.075 277.829 321.247 269.788 314.539C261.796 307.772 257.724 299.729 254.103 291.353C253.573 290.126 253.052 288.891 252.528 287.65C249.495 280.459 246.394 273.106 241.068 266.454ZM241.068 266.454C241.068 266.453 241.067 266.453 241.067 266.452L240.284 267.056L241.069 266.455C241.069 266.455 241.069 266.455 241.068 266.454Z" fill="url(#paint9_linear_232_485)" fill-opacity="0.3" stroke="white" stroke-width="2" stroke-miterlimit="10"/>
<path d="M51.9908 127.694L51.9894 127.696C43.6764 141.094 37.727 157.538 43.4311 172.676L43.4329 172.681C49.8591 190.011 67.5998 201.846 87.8551 210.687C101.802 216.774 116.738 221.364 129.743 225.36C135.621 227.167 141.105 228.852 145.924 230.499L145.925 230.499C150.409 232.036 155.105 233.567 159.924 235.138C169.667 238.314 179.914 241.655 189.939 245.544C204.943 251.366 219.581 258.462 231.553 268.205L231.557 268.208C236.111 271.948 240.124 276.009 243.79 280.344L243.798 280.353L243.806 280.363C249.72 287.695 253.141 295.821 256.496 303.789C257.078 305.173 257.659 306.551 258.25 307.92C262.263 317.214 266.798 326.158 275.772 333.67C284.697 341.141 301.343 346.466 319.959 347.798C338.512 349.126 358.801 346.47 374.988 338.212C375.246 338.025 375.535 337.9 375.714 337.823L375.751 337.807C376.013 337.693 376.103 337.646 376.146 337.611L376.221 337.548L376.308 337.502C388.324 331.119 395.144 322.914 400.334 315.201C416.771 290.367 423.806 260.328 408.913 232.387C407.238 229.28 408.085 225.603 410.124 221.964C412.491 217.643 416.648 212.926 421.385 208.114C424.122 205.334 427.104 202.473 430.079 199.619C432.242 197.543 434.402 195.471 436.461 193.436C441.397 188.559 445.815 183.839 448.665 179.521C451.549 175.15 452.63 171.486 451.473 168.578C447.661 159.091 441.226 150.354 433.582 141.914C427.601 135.309 420.923 128.93 414.221 122.529C412.349 120.742 410.476 118.953 408.616 117.157C391.66 100.784 375.732 83.8042 373.378 62.7732L373.377 62.7705C371.544 45.9777 366.24 31.0177 359.962 16.2592C357.924 11.4673 355.777 6.6855 353.614 1.86693C349.134 -8.11196 344.583 -18.2485 340.777 -28.9577M51.9908 127.694L341.725 -29.2671M51.9908 127.694C57.9457 118.036 65.3015 109.174 72.8457 100.337C73.6766 99.3634 74.5099 98.3903 75.3437 97.4165C82.0653 89.5672 88.8273 81.6707 94.7041 73.2449M51.9908 127.694L51.1285 127.161C57.7875 116.362 66.175 106.567 74.5687 96.7641C81.2956 88.9083 88.0266 81.0478 93.8752 72.6617M340.777 -28.9577C340.777 -28.9583 340.777 -28.9589 340.777 -28.9595L341.725 -29.2671M340.777 -28.9577C340.778 -28.9574 340.778 -28.9571 340.778 -28.9567L341.725 -29.2671M340.777 -28.9577C339.974 -31.1969 339.904 -33.8105 340.308 -36.633C340.712 -39.4629 341.603 -42.5732 342.793 -45.8455C344.98 -51.8626 348.222 -58.5492 351.448 -65.2016C351.727 -65.7767 352.006 -66.3516 352.284 -66.9258C355.792 -74.1734 359.171 -81.3073 361.133 -87.5541C362.114 -90.6746 362.727 -93.5306 362.837 -96.0367C362.948 -98.5436 362.553 -100.634 361.588 -102.286L361.585 -102.291C350.982 -120.674 326.826 -128.296 299.662 -130.995C276.717 -133.275 251.967 -132.016 232.153 -131.008C228.576 -130.826 225.161 -130.652 221.946 -130.508M341.725 -29.2671C338.929 -37.0605 345.621 -50.8616 352.362 -64.7635C359.657 -79.8087 367.01 -94.972 362.455 -102.766C342.355 -137.614 275.25 -134.198 232.058 -131.999C228.486 -131.817 225.077 -131.644 221.873 -131.501M221.946 -130.508C221.947 -130.509 221.948 -130.509 221.948 -130.509L221.873 -131.501M221.946 -130.508C221.945 -130.508 221.944 -130.508 221.944 -130.508L221.873 -131.501M221.946 -130.508C204.493 -129.648 187.096 -125.882 170.183 -120.747M221.873 -131.501C204.31 -130.635 186.826 -126.847 169.863 -121.697M169.863 -121.697L170.184 -120.747C170.183 -120.747 170.183 -120.747 170.183 -120.747M169.863 -121.697C124.661 -107.829 85.9796 -73.8898 100.681 -21.493C107.75 3.50385 112.776 24.0917 107.363 44.9272M169.863 -121.697L170.181 -120.747C170.182 -120.747 170.182 -120.747 170.183 -120.747M170.183 -120.747C147.705 -113.851 126.927 -101.985 113.602 -85.4133C100.306 -68.8783 94.3881 -47.6158 101.649 -21.7365C108.71 3.23376 113.826 24.0713 108.337 45.1973M108.337 45.1973C108.337 45.1959 108.338 45.1944 108.338 45.193L107.363 44.9272M108.337 45.1973L107.363 44.9272M108.337 45.1973C105.988 54.4083 101.596 63.5847 94.7041 73.2449M107.363 44.9272C105.048 54.0054 100.714 63.0773 93.8752 72.6617M93.8752 72.6617L94.7078 73.2395C94.7066 73.2413 94.7053 73.2431 94.7041 73.2449M93.8752 72.6617L94.7019 73.248C94.7027 73.2469 94.7034 73.2459 94.7041 73.2449" fill="url(#paint10_linear_232_485)" fill-opacity="0.3" stroke="white" stroke-width="2" stroke-miterlimit="10"/>
<path d="M36.0781 126.735L36.0743 126.741C26.6558 141.405 20.0663 159.455 26.201 176.402C33.1473 195.509 52.7286 208.541 75.0636 218.27C90.2753 224.897 106.555 229.912 120.741 234.282C127.38 236.327 133.56 238.231 138.957 240.092M36.0781 126.735L138.653 241.031M36.0781 126.735C42.7359 116.197 50.8781 106.596 59.2046 96.9937C59.9149 96.1745 60.6266 95.3553 61.3388 94.5355C68.9601 85.7629 76.6399 76.923 83.3052 67.3624C90.7801 56.7438 95.5599 46.6513 98.1529 36.7664C104.428 13.794 98.8857 -8.85334 91.0676 -36.1899L91.0673 -36.1908C82.9096 -64.6127 89.4399 -87.9936 104.117 -106.177C118.825 -124.398 141.753 -137.439 166.402 -144.989L166.403 -144.989C184.817 -150.642 203.9 -154.961 223.368 -155.815L223.369 -155.815M36.0781 126.735L223.369 -155.815M138.957 240.092C138.959 240.093 138.961 240.094 138.963 240.094L138.653 241.031M138.957 240.092C138.957 240.092 138.957 240.092 138.956 240.092L138.653 241.031M138.957 240.092C143.804 241.728 148.884 243.357 154.101 245.03C164.867 248.483 176.221 252.125 187.334 256.398C203.851 262.749 219.966 270.541 233.089 281.309M138.653 241.031C143.53 242.677 148.626 244.311 153.852 245.987C180.578 254.559 210.718 264.225 232.464 282.071M233.089 281.309C233.088 281.308 233.088 281.308 233.088 281.308L232.464 282.071M233.089 281.309C233.091 281.31 233.092 281.311 233.094 281.313L232.464 282.071M233.089 281.309L232.464 282.071M223.369 -155.815C227.077 -155.981 231.033 -156.187 235.186 -156.402C256.829 -157.525 283.824 -158.925 308.898 -156.508C323.834 -155.068 338.025 -152.277 349.953 -147.297C361.875 -142.32 371.478 -135.181 377.345 -125.068C378.405 -123.228 378.822 -120.904 378.676 -118.129C378.531 -115.353 377.826 -112.194 376.715 -108.747C374.492 -101.849 370.7 -93.9737 366.772 -85.9838C366.47 -85.37 366.168 -84.7555 365.865 -84.1407C362.243 -76.7861 358.606 -69.4003 356.15 -62.7624C354.818 -59.1623 353.819 -55.7459 353.359 -52.6429C352.902 -49.5483 352.97 -46.6936 353.844 -44.2567L223.369 -155.815ZM246.45 294.721C246.447 294.718 246.444 294.714 246.442 294.711L245.664 295.32L246.458 294.732C246.455 294.728 246.453 294.725 246.45 294.721ZM390.935 358.224C390.925 358.231 390.914 358.237 390.903 358.243L391.441 359.096L390.964 358.21C390.955 358.215 390.945 358.22 390.935 358.224ZM418.744 333.047L419.589 333.607L418.746 333.045C418.745 333.046 418.745 333.047 418.744 333.047ZM429.843 230.715L430.725 231.214L429.845 230.712C429.844 230.713 429.844 230.714 429.843 230.715Z" fill="url(#paint11_linear_232_485)" fill-opacity="0.3" stroke="white" stroke-width="2" stroke-miterlimit="10"/>
<path d="M20.1641 125.775L20.1661 125.772C27.5277 114.353 36.4462 103.961 45.5769 93.5914C46.5109 92.5306 47.4473 91.4699 48.3844 90.4084C56.5937 81.1091 64.8604 71.7448 72.1399 61.6472L72.143 61.6428C80.2498 50.264 85.4708 39.4473 88.2626 28.6739C94.835 3.5455 88.9212 -20.6994 80.5381 -50.4443L80.5372 -50.4476C71.6243 -81.6573 78.806 -107.22 94.8647 -127.051C110.955 -146.921 135.996 -161.078 162.819 -169.283L162.822 -169.284C182.915 -175.489 203.785 -179.965 225.045 -180.975C229.235 -181.166 233.719 -181.404 238.435 -181.655C262.002 -182.91 291.352 -184.472 318.627 -181.922C334.987 -180.392 350.536 -177.386 363.597 -171.978C376.651 -166.573 387.16 -158.794 393.55 -147.741C394.706 -145.712 395.148 -143.154 394.972 -140.109C394.796 -137.065 394.006 -133.604 392.772 -129.834C390.303 -122.287 386.115 -113.674 381.779 -104.944C381.432 -104.244 381.083 -103.544 380.735 -102.843C376.75 -94.8346 372.754 -86.8021 370.036 -79.584C368.556 -75.6556 367.441 -71.9324 366.914 -68.5548C366.388 -65.1848 366.436 -62.0858 367.357 -59.447L367.359 -59.4404C371.901 -46.7092 377.357 -34.6478 382.738 -22.7522C385.392 -16.8863 388.027 -11.0607 390.526 -5.21504C398.11 12.5304 404.49 30.5751 406.544 50.8895L406.544 50.8907C409.091 75.7855 428.319 95.7764 448.939 115.073C451.29 117.273 453.66 119.465 456.029 121.655C464.093 129.113 472.138 136.552 479.357 144.257C488.689 154.217 496.569 164.549 501.246 175.8C502.67 179.256 501.282 183.615 497.688 188.79C494.136 193.904 488.648 199.501 482.533 205.276C479.956 207.711 477.256 210.187 474.554 212.665C470.893 216.022 467.227 219.384 463.853 222.654C457.98 228.346 452.834 233.906 449.881 238.972C447.216 243.359 446.092 247.731 448.115 251.424C465.959 285.061 457.254 320.902 437.613 350.173C431.371 359.342 423.314 369.04 408.857 376.768C408.174 376.939 407.574 377.3 407.114 377.576L407.088 377.592C387.631 387.482 363.198 390.673 340.883 389.112C318.52 387.547 298.51 381.228 287.837 372.331L287.836 372.33C276.993 363.309 271.542 352.61 266.727 341.512C266.018 339.877 265.321 338.231 264.623 336.58C260.598 327.065 256.5 317.376 249.384 308.589C245.027 303.099 240.042 298.391 234.745 293.986L234.739 293.981L234.733 293.976C220.291 282.323 202.662 273.896 184.63 267.013C172.738 262.475 160.61 258.588 149.089 254.895C143.162 252.995 137.395 251.147 131.904 249.288C126.208 247.353 119.704 245.367 112.719 243.234C97.0919 238.463 79.0496 232.954 62.2212 225.629C37.8624 215.027 16.4819 200.788 8.91935 179.916L8.91899 179.915C2.26597 161.615 9.81673 141.69 20.1641 125.775Z" fill="url(#paint12_linear_232_485)" fill-opacity="0.3" stroke="white" stroke-width="2" stroke-miterlimit="10"/>
<path d="M4.26147 124.815L4.26193 124.814C12.3282 112.513 21.975 101.341 31.804 90.1701C32.5503 89.3221 33.2975 88.474 34.0453 87.6255C43.133 77.3121 52.2836 66.9275 60.3176 55.6441L60.3204 55.6401C69.0119 43.2992 74.4726 31.8067 77.6532 20.125L77.6546 20.1195C84.8167 -6.80981 78.6742 -32.8962 69.5324 -65.0146L69.5309 -65.0199C59.697 -98.8734 67.4922 -126.554 84.9373 -148.008C102.414 -169.5 129.618 -184.783 158.613 -193.643L158.616 -193.644C180.597 -200.446 203.152 -205.475 226.232 -206.439L226.233 -206.439C231.296 -206.651 236.761 -206.934 242.534 -207.233C267.72 -208.536 298.743 -210.141 327.648 -207.517C345.404 -205.905 362.295 -202.701 376.491 -196.881C390.68 -191.064 402.118 -182.66 409.079 -170.673C410.345 -168.487 410.825 -165.72 410.628 -162.423C410.432 -159.128 409.563 -155.376 408.212 -151.288C405.506 -143.105 400.925 -133.748 396.185 -124.266C395.81 -123.518 395.435 -122.769 395.06 -122.019C390.697 -113.306 386.321 -104.568 383.342 -96.7226C381.724 -92.4591 380.503 -88.4231 379.924 -84.7675C379.345 -81.12 379.392 -77.7766 380.385 -74.9404L380.386 -74.9385C385.299 -60.9894 391.274 -47.7776 397.174 -34.7319C399.986 -28.5148 402.78 -22.3354 405.435 -16.1319C413.678 3.13295 420.626 22.74 422.79 44.8149C425.397 71.7002 446.298 93.1909 468.773 113.944C471.356 116.329 473.96 118.704 476.563 121.078C485.334 129.079 494.088 137.064 501.945 145.341C512.125 156.066 520.723 167.209 525.815 179.369C527.341 183.055 525.791 187.734 521.848 193.291C517.951 198.782 511.95 204.807 505.27 211.027C502.448 213.653 499.495 216.324 496.539 218.998C492.542 222.612 488.54 226.232 484.851 229.754C478.42 235.894 472.779 241.883 469.512 247.328L469.507 247.336L469.502 247.345C466.755 252.144 465.432 256.552 467.537 260.646L467.543 260.657C486.865 297.141 477.187 335.706 456.081 367.383C449.259 377.505 440.381 388.004 424.855 396.371C424.173 396.543 423.572 396.903 423.113 397.179L423.09 397.193C401.893 407.861 375.447 411.306 351.31 409.619C327.126 407.928 305.478 401.104 293.821 391.459C282.117 381.776 276.202 370.175 270.965 358.138C270.2 356.381 269.45 354.613 268.697 352.839C264.309 342.503 259.845 331.986 252.124 322.499L252.116 322.49C247.29 316.692 242.026 311.626 236.236 306.889L236.234 306.887C220.64 294.207 201.533 285.083 181.985 277.67C169.001 272.746 155.761 268.556 143.212 264.584C136.891 262.584 130.745 260.639 124.895 258.684C118.765 256.613 111.751 254.487 104.208 252.201C87.3175 247.082 67.7718 241.158 49.5443 233.246C23.169 221.797 -0.00700096 206.351 -8.11349 183.599L-8.11536 183.594C-15.3834 163.533 -7.00836 141.969 4.26147 124.815ZM3.41397 124.259C-7.89808 141.478 -16.495 163.388 -9.06098 183.908L3.41397 124.259Z" fill="url(#paint13_linear_232_485)" fill-opacity="0.3" stroke="white" stroke-width="2" stroke-miterlimit="10"/>
<path d="M-11.6458 123.858L-11.6434 123.855C-2.87286 110.672 7.54964 98.7104 18.1203 86.7033C18.5527 86.2121 18.9854 85.7209 19.4182 85.2295C29.5507 73.7249 39.7611 62.132 48.6382 49.4027C58.1602 36.2535 63.961 23.6398 67.3838 11.289L67.3855 11.2827C75.138 -17.4506 68.5709 -45.3435 58.6722 -79.8289L58.6717 -79.8309C48.1303 -116.27 56.587 -146.083 75.4148 -169.185C94.2744 -192.327 123.58 -208.775 154.746 -218.289C178.466 -225.448 202.759 -230.833 227.626 -231.951L227.627 -231.951C232.909 -232.195 238.602 -232.511 244.611 -232.844C271.858 -234.356 305.616 -236.228 337.051 -233.459C356.228 -231.77 374.475 -228.357 389.803 -222.112C405.124 -215.87 417.468 -206.825 424.953 -193.898C426.314 -191.523 426.815 -188.521 426.583 -184.956C426.351 -181.391 425.391 -177.337 423.909 -172.922C420.943 -164.088 415.948 -153.99 410.787 -143.765C410.39 -142.977 409.991 -142.188 409.592 -141.399C404.833 -131.984 400.062 -122.546 396.814 -114.079C395.052 -109.488 393.724 -105.146 393.09 -101.217C392.457 -97.2967 392.503 -93.712 393.568 -90.6784L393.568 -90.6767C398.867 -75.6678 405.322 -61.4871 411.698 -47.4799C414.737 -40.8043 417.758 -34.1681 420.627 -27.5004C429.536 -6.79733 437.04 14.3228 439.339 38.2595C442.102 67.1123 464.636 90.1617 488.926 112.408C491.788 115.029 494.676 117.64 497.562 120.249C506.971 128.756 516.361 137.246 524.801 146.04C535.823 157.524 545.148 169.451 550.691 182.465C552.388 186.476 550.695 191.535 546.411 197.506C542.173 203.412 535.64 209.88 528.37 216.549C525.273 219.39 522.03 222.278 518.785 225.167C514.464 229.015 510.139 232.866 506.151 236.613C499.156 243.186 493.03 249.59 489.494 255.405C486.379 260.528 485.176 265.32 487.313 269.599L487.319 269.61L487.325 269.622C508.029 308.553 497.659 350.198 474.856 384.113L474.854 384.115C467.433 395.22 457.899 406.503 441.003 415.358L440.978 415.371L440.954 415.385C440.712 415.531 440.419 415.689 440.1 415.861L440.083 415.87C439.791 416.027 439.476 416.197 439.2 416.362C416.385 427.886 387.878 431.595 361.867 429.791C335.81 427.985 312.479 420.664 299.959 410.355L299.958 410.354C287.273 399.927 280.894 387.424 275.265 374.47C274.44 372.571 273.63 370.659 272.818 368.742C268.109 357.63 263.326 346.342 255.017 336.175L255.012 336.169C249.898 330.009 244.106 324.419 237.832 319.357L237.827 319.353C220.939 305.89 200.332 296.183 179.278 288.265C165.572 283.11 151.614 278.694 138.355 274.498C131.271 272.256 124.387 270.078 117.847 267.884L117.845 267.883C111.418 265.738 104.084 263.53 96.1976 261.156C77.8683 255.638 56.5557 249.221 36.7068 240.609C8.30828 228.288 -16.6665 211.636 -25.3894 187.12C-32.9916 165.652 -24.0244 142.283 -11.6458 123.858Z" fill="url(#paint14_linear_232_485)" fill-opacity="0.3" stroke="white" stroke-width="2" stroke-miterlimit="10"/>
<path d="M-27.5536 122.889L-27.5545 122.891C-40.8561 142.556 -50.6483 167.563 -42.4312 190.793L-42.4304 190.796C-33.1641 217.194 -6.39235 235.053 24.0477 248.217C45.4192 257.459 68.3889 264.307 88.0964 270.182C96.4488 272.672 104.215 274.987 111.026 277.236L111.027 277.237C117.853 279.503 125.03 281.755 132.415 284.072C146.758 288.572 161.886 293.319 176.752 298.894C199.297 307.347 221.381 317.751 239.516 332.219C246.277 337.609 252.354 343.561 257.988 350.234L257.994 350.241C267.052 361.167 272.213 373.334 277.299 385.323C278.128 387.278 278.955 389.228 279.796 391.166C285.818 405.04 292.614 418.454 306.185 429.645L306.186 429.646C319.59 440.716 344.59 448.484 372.508 450.357C400.39 452.227 430.962 448.201 455.426 435.907L455.431 435.904C455.776 435.734 456.075 435.572 456.39 435.402L456.393 435.401C456.702 435.235 457.025 435.06 457.399 434.875C475.546 425.344 485.708 413.303 493.565 401.483L493.569 401.476C518.068 365.326 529.178 320.799 506.999 279.019C504.589 274.548 506.128 269.245 509.365 263.921L509.37 263.913C513.221 257.72 519.839 250.89 527.39 243.871C531.694 239.87 536.355 235.761 541.012 231.656C544.511 228.572 548.007 225.49 551.348 222.457C559.184 215.344 566.23 208.448 570.812 202.165C575.445 195.813 577.302 190.435 575.503 186.191C569.496 172.274 559.44 159.539 547.577 147.292C538.505 137.928 528.422 128.892 518.325 119.845C515.21 117.053 512.094 114.261 509.006 111.457C482.913 87.7689 458.769 63.2609 455.873 32.5403L455.873 32.5398C453.464 6.84058 445.44 -15.8531 435.896 -38.0799C432.783 -45.3287 429.503 -52.5403 426.204 -59.7928C419.408 -74.7328 412.533 -89.8467 406.883 -105.818L406.883 -105.82C405.746 -109.051 405.705 -112.878 406.397 -117.072C407.09 -121.275 408.533 -125.925 410.445 -130.845C413.963 -139.902 419.12 -150.001 424.269 -160.083C424.711 -160.95 425.153 -161.816 425.595 -162.682C431.187 -173.651 436.601 -184.492 439.819 -193.974C441.427 -198.713 442.471 -203.068 442.725 -206.898C442.98 -210.73 442.44 -213.962 440.961 -216.522L440.96 -216.523C432.952 -230.392 419.7 -240.079 403.249 -246.75C386.791 -253.423 367.192 -257.052 346.604 -258.833C313.027 -261.738 276.994 -259.72 247.906 -258.091C241.309 -257.721 235.07 -257.372 229.297 -257.104M-27.5536 122.889L229.224 -258.097M-27.5536 122.889C-18.0804 108.828 -6.8712 96.1269 4.5205 83.4282C5.27136 82.5912 6.02309 81.7541 6.77512 80.9167C17.4192 69.0642 28.1314 57.1358 37.5676 44.0871L37.5701 44.0836C47.6741 29.9781 53.9158 16.6432 57.5383 3.40331L57.5392 3.40005C65.8326 -27.3327 58.9905 -57.2659 48.3799 -93.9249L48.3796 -93.9259C36.9876 -133.133 46.0006 -165.107 66.1611 -189.846C86.3542 -214.625 117.773 -232.189 151.208 -242.377M-27.5536 122.889L150.889 -243.327M229.297 -257.104C229.297 -257.104 229.297 -257.104 229.296 -257.104L229.224 -258.097M229.297 -257.104C229.297 -257.105 229.298 -257.105 229.298 -257.105L229.224 -258.097M229.297 -257.104C202.645 -255.832 176.422 -250.051 151.208 -242.377M229.224 -258.097C202.46 -256.819 176.151 -251.016 150.889 -243.327M151.208 -242.377C151.208 -242.377 151.208 -242.377 151.208 -242.377L150.889 -243.327M151.208 -242.377L150.889 -243.327" fill="url(#paint15_linear_232_485)" fill-opacity="0.3" stroke="white" stroke-width="2" stroke-miterlimit="10"/>
<path d="M103.774 286.475L103.778 286.476C111.286 288.978 119.2 291.459 127.348 294.014C142.422 298.74 158.299 303.718 173.898 309.543C197.955 318.527 221.505 329.575 240.766 344.969C248 350.675 254.564 356.951 260.303 364.04M103.774 286.475L259.529 364.655M103.774 286.475C96.6158 284.118 88.4525 281.687 79.6686 279.071C58.6395 272.809 34.0527 265.487 11.1796 255.586C-21.259 241.545 -49.8291 222.479 -59.712 194.318C-68.2609 169.684 -57.8335 143.075 -43.4643 121.93C-33.287 106.988 -21.3023 93.4978 -9.23505 80.0021L-8.31424 78.9724C3.43424 65.8354 15.2194 52.6575 25.3542 38.1611C36.0855 23.3 42.7658 9.24565 46.5866 -4.87805L46.5873 -4.88076C55.2751 -37.3724 48.205 -69.1454 36.8361 -108.176M103.774 286.475L45.6148 -5.15751C54.2255 -37.3609 47.2397 -68.8922 35.8703 -107.924M260.303 364.04C260.305 364.042 260.306 364.045 260.308 364.047L259.529 364.655M260.303 364.04C260.302 364.04 260.302 364.039 260.301 364.038L259.529 364.655M260.303 364.04C269.955 375.716 275.435 388.649 280.832 401.386C281.726 403.495 282.618 405.599 283.526 407.691C289.933 422.455 297.18 436.722 311.734 448.657L311.738 448.66C326.028 460.494 352.708 468.758 382.499 470.747C412.253 472.733 444.886 468.443 470.992 455.392L470.996 455.39C471.733 455.025 472.416 454.686 472.906 454.393L472.93 454.379L472.954 454.366C492.364 444.157 503.159 431.354 511.65 418.768M259.529 364.655C269.079 376.206 274.497 388.988 279.898 401.73C287.091 418.699 294.253 435.596 311.103 449.415C340.174 473.488 418.854 482.581 471.465 456.28C472.188 455.922 472.913 455.564 473.444 455.245C493.043 444.937 503.947 431.999 512.491 419.333M511.65 418.768L512.491 419.333M511.65 418.768C537.612 380.214 549.697 332.965 526.041 288.338L526.038 288.332L526.034 288.325C523.549 283.467 525.017 277.984 528.813 272.299M511.65 418.768C511.65 418.768 511.65 418.768 511.65 418.768L512.491 419.333M512.491 419.333C538.562 380.618 550.824 332.972 526.929 287.895C524.693 283.524 525.926 278.443 529.665 272.85M472.926 26.4419C469.564 -10.2053 455.467 -41.0505 441.133 -72.4133C433.866 -88.3145 426.538 -104.349 420.517 -121.34C416.172 -133.668 427.636 -155.972 439.183 -178.437C451.663 -202.717 464.24 -227.186 457.063 -239.457C425.596 -293.742 320.472 -287.955 251.275 -284.146C243.677 -283.727 236.513 -283.333 229.927 -283.044C201.334 -281.812 173.288 -275.654 146.338 -267.41C74.889 -245.652 11.4364 -192.359 35.8703 -107.924M472.926 26.4419L471.924 26.5049C471.924 26.5054 471.924 26.5058 471.924 26.5062M472.926 26.4419C476.185 62.5114 507.649 90.4475 539.301 118.551C564.266 140.716 589.349 162.986 600.801 189.433C606.122 201.696 584.888 220.163 563.688 238.6C549.887 250.602 536.101 262.592 529.665 272.85M472.926 26.4419L471.924 26.5062M471.924 26.5062C469.405 -0.954259 460.824 -25.1607 450.609 -48.8513C447.28 -56.5715 443.771 -64.2495 440.243 -71.97C432.965 -87.895 425.604 -104.001 419.569 -121.033L419.569 -121.035C418.361 -124.463 418.32 -128.53 419.066 -132.997C419.814 -137.473 421.364 -142.428 423.417 -147.674C427.201 -157.343 432.745 -168.128 438.279 -178.895C438.747 -179.805 439.215 -180.716 439.682 -181.626C445.685 -193.322 451.499 -204.882 454.958 -214.981C456.686 -220.029 457.81 -224.667 458.086 -228.742C458.363 -232.82 457.786 -236.258 456.196 -238.976L456.194 -238.98C447.614 -253.782 433.434 -264.093 415.844 -271.175C398.247 -278.259 377.301 -282.085 355.304 -283.946C320.012 -286.932 282.189 -284.85 251.391 -283.155C243.783 -282.736 236.604 -282.341 229.997 -282.052L229.997 -282.052C201.517 -280.825 173.56 -274.689 146.658 -266.46L146.657 -266.46C111.05 -255.617 77.5177 -236.938 55.9367 -210.535C34.3887 -184.173 24.7135 -150.068 36.8361 -108.176M471.924 26.5062C474.881 59.2151 500.695 85.2222 528.644 110.367C531.962 113.353 535.311 116.327 538.66 119.3C549.465 128.893 560.259 138.477 569.969 148.416C582.681 161.428 593.457 174.975 599.878 189.804L599.879 189.804C601.839 194.322 599.842 200.027 594.87 206.75C589.952 213.401 582.382 220.7 573.963 228.234C570.428 231.398 566.734 234.61 563.035 237.828C557.97 242.233 552.895 246.647 548.207 250.953C540.088 258.409 532.969 265.68 528.813 272.299M36.8361 -108.176C36.8361 -108.176 36.836 -108.176 36.836 -108.176L35.8703 -107.924M36.8361 -108.176C36.8362 -108.175 36.8364 -108.175 36.8365 -108.174L35.8703 -107.924M528.813 272.299C528.816 272.295 528.819 272.291 528.821 272.287L529.665 272.85M528.813 272.299C528.811 272.303 528.809 272.307 528.806 272.31L529.665 272.85" fill="url(#paint16_linear_232_485)" fill-opacity="0.3" stroke="white" stroke-width="2" stroke-miterlimit="10"/>
<path d="M143.078 -290.753L142.758 -291.702L143.078 -290.753C171.667 -299.536 201.554 -306.067 232.012 -307.488C239.134 -307.799 246.9 -308.228 255.145 -308.685C287.707 -310.487 327.738 -312.703 365.129 -309.588C388.549 -307.638 410.865 -303.599 429.607 -296.089C448.342 -288.582 463.441 -277.632 472.545 -261.888L472.546 -261.886C474.225 -259.004 474.819 -255.351 474.504 -251.017C474.189 -246.686 472.971 -241.753 471.111 -236.384C467.389 -225.642 461.163 -213.335 454.743 -200.883C454.269 -199.965 453.795 -199.046 453.32 -198.126C447.376 -186.613 441.419 -175.076 437.358 -164.743C435.164 -159.16 433.508 -153.893 432.707 -149.139C431.908 -144.395 431.948 -140.083 433.228 -136.458L433.228 -136.457C439.615 -118.461 447.395 -101.421 455.093 -84.5624C458.881 -76.2659 462.65 -68.0136 466.222 -59.7129C477.072 -34.4984 486.174 -8.71815 488.803 20.5049C491.916 55.1806 519.411 82.7364 549.198 109.369C552.757 112.551 556.349 115.72 559.939 118.888C571.431 129.026 582.91 139.152 593.235 149.65C606.779 163.422 618.257 177.757 625.082 193.447L625.082 193.448C626.35 196.355 626.061 199.731 624.402 203.585C622.742 207.443 619.756 211.662 615.833 216.147C608.063 225.028 596.807 234.739 585.497 244.497L585.163 244.785C573.777 254.609 562.368 264.474 554.64 273.471C550.776 277.969 547.78 282.309 546.176 286.371C544.568 290.444 544.322 294.35 546.15 297.849L546.151 297.851C571.046 345.167 558.22 395.299 530.561 436.091L530.559 436.094C521.634 449.395 510.015 462.998 489.346 473.886L489.344 473.887C461.694 488.506 426.633 493.399 394.555 491.415C362.443 489.428 333.551 480.566 318.159 467.907C302.717 455.208 295.005 440.037 288.182 424.359C287.222 422.154 286.28 419.937 285.335 417.715C279.578 404.177 273.74 390.448 263.479 378.068C243.728 354.173 215.557 338.09 185.642 325.748C164.536 317.041 142.474 310.165 121.835 303.733C113.241 301.054 104.893 298.452 96.9639 295.827L96.9615 295.827C89.3859 293.339 80.7293 290.77 71.4041 288.002C49.0764 281.376 22.9155 273.611 -1.42018 263.102C-35.933 248.197 -66.3476 227.933 -76.7495 197.989C-85.914 171.593 -74.6605 143.344 -59.3679 120.959L-59.3676 120.958C-48.5836 105.157 -35.8719 90.8876 -23.0249 76.6296C-22.4385 75.9788 -21.8518 75.328 -21.265 74.6771C-9.00926 61.0824 3.29433 47.4347 14.0039 32.478L14.0042 32.4776C32.6676 6.38689 40.1213 -17.458 40.6975 -42.2712C41.2728 -67.0406 34.9908 -92.7162 26.3088 -122.435C13.3599 -166.993 23.6967 -203.227 46.6509 -231.243C69.6387 -259.3 105.322 -279.155 143.078 -290.753Z" fill="url(#paint17_linear_232_485)" fill-opacity="0.3" stroke="white" stroke-width="2" stroke-miterlimit="10"/>
</g>
</g>
<defs>
<linearGradient id="paint0_linear_232_485" x1="263" y1="0" x2="263" y2="224" gradientUnits="userSpaceOnUse">
<stop stop-color="#75CAC2"/>
<stop offset="1" stop-color="#57B6AB"/>
</linearGradient>
<linearGradient id="paint1_linear_232_485" x1="230.094" y1="127.703" x2="194.081" y2="136.109" gradientUnits="userSpaceOnUse">
<stop stop-color="#75CAC2"/>
<stop offset="1" stop-color="#57B6AB"/>
</linearGradient>
<linearGradient id="paint2_linear_232_485" x1="250.587" y1="122.309" x2="177.755" y2="139.347" gradientUnits="userSpaceOnUse">
<stop stop-color="#75CAC2"/>
<stop offset="1" stop-color="#57B6AB"/>
</linearGradient>
<linearGradient id="paint3_linear_232_485" x1="273.174" y1="116.661" x2="160.866" y2="142.955" gradientUnits="userSpaceOnUse">
<stop stop-color="#75CAC2"/>
<stop offset="1" stop-color="#57B6AB"/>
</linearGradient>
<linearGradient id="paint4_linear_232_485" x1="295.616" y1="111.156" x2="143.784" y2="146.717" gradientUnits="userSpaceOnUse">
<stop stop-color="#75CAC2"/>
<stop offset="1" stop-color="#57B6AB"/>
</linearGradient>
<linearGradient id="paint5_linear_232_485" x1="318.199" y1="105.301" x2="126.703" y2="150.16" gradientUnits="userSpaceOnUse">
<stop stop-color="#75CAC2"/>
<stop offset="1" stop-color="#57B6AB"/>
</linearGradient>
<linearGradient id="paint6_linear_232_485" x1="340.84" y1="99.6821" x2="109.521" y2="153.877" gradientUnits="userSpaceOnUse">
<stop stop-color="#75CAC2"/>
<stop offset="1" stop-color="#57B6AB"/>
</linearGradient>
<linearGradient id="paint7_linear_232_485" x1="363.53" y1="94.4086" x2="92.3546" y2="157.947" gradientUnits="userSpaceOnUse">
<stop stop-color="#75CAC2"/>
<stop offset="1" stop-color="#57B6AB"/>
</linearGradient>
<linearGradient id="paint8_linear_232_485" x1="386.088" y1="88.4315" x2="75.2261" y2="161.272" gradientUnits="userSpaceOnUse">
<stop stop-color="#75CAC2"/>
<stop offset="1" stop-color="#57B6AB"/>
</linearGradient>
<linearGradient id="paint9_linear_232_485" x1="408.721" y1="82.7596" x2="58.2048" y2="164.896" gradientUnits="userSpaceOnUse">
<stop stop-color="#75CAC2"/>
<stop offset="1" stop-color="#57B6AB"/>
</linearGradient>
<linearGradient id="paint10_linear_232_485" x1="431.152" y1="77.1797" x2="41.1434" y2="168.573" gradientUnits="userSpaceOnUse">
<stop stop-color="#75CAC2"/>
<stop offset="1" stop-color="#57B6AB"/>
</linearGradient>
<linearGradient id="paint11_linear_232_485" x1="453.62" y1="71.7261" x2="23.9627" y2="172.413" gradientUnits="userSpaceOnUse">
<stop stop-color="#75CAC2"/>
<stop offset="1" stop-color="#57B6AB"/>
</linearGradient>
<linearGradient id="paint12_linear_232_485" x1="476.629" y1="65.973" x2="6.70372" y2="176.1" gradientUnits="userSpaceOnUse">
<stop stop-color="#75CAC2"/>
<stop offset="1" stop-color="#57B6AB"/>
</linearGradient>
<linearGradient id="paint13_linear_232_485" x1="499.02" y1="60.2253" x2="-10.3928" y2="179.608" gradientUnits="userSpaceOnUse">
<stop stop-color="#75CAC2"/>
<stop offset="1" stop-color="#57B6AB"/>
</linearGradient>
<linearGradient id="paint14_linear_232_485" x1="521.79" y1="54.2541" x2="-27.6737" y2="183.025" gradientUnits="userSpaceOnUse">
<stop stop-color="#75CAC2"/>
<stop offset="1" stop-color="#57B6AB"/>
</linearGradient>
<linearGradient id="paint15_linear_232_485" x1="544.434" y1="48.7068" x2="-44.7184" y2="186.781" gradientUnits="userSpaceOnUse">
<stop stop-color="#75CAC2"/>
<stop offset="1" stop-color="#57B6AB"/>
</linearGradient>
<linearGradient id="paint16_linear_232_485" x1="566.655" y1="43.0415" x2="-61.968" y2="190.367" gradientUnits="userSpaceOnUse">
<stop stop-color="#75CAC2"/>
<stop offset="1" stop-color="#57B6AB"/>
</linearGradient>
<linearGradient id="paint17_linear_232_485" x1="589.687" y1="37.3769" x2="-79.0142" y2="194.097" gradientUnits="userSpaceOnUse">
<stop stop-color="#75CAC2"/>
<stop offset="1" stop-color="#57B6AB"/>
</linearGradient>
</defs>
</svg>
