<svg width="60" height="60" viewBox="0 0 60 60" fill="none" xmlns="http://www.w3.org/2000/svg">
<circle cx="30" cy="30" r="30" fill="url(#paint0_linear_0_1)"/>
<path d="M20 22C20 21.4477 19.5523 21 19 21C18.4477 21 18 21.4477 18 22H20ZM41 39C41.5523 39 42 38.5523 42 38C42 37.4477 41.5523 37 41 37V39ZM22.2929 31.2929C21.9024 31.6834 21.9024 32.3166 22.2929 32.7071C22.6834 33.0976 23.3166 33.0976 23.7071 32.7071L22.2929 31.2929ZM32.2929 29.2929L33 28.5858L33 28.5858L32.2929 29.2929ZM33.7071 29.2929L33 28.5858L33 28.5858L33.7071 29.2929ZM41 22H42C42 21.4477 41.5523 21 41 21V22ZM40 26C40 26.5523 40.4477 27 41 27C41.5523 27 42 26.5523 42 26H40ZM37 21C36.4477 21 36 21.4477 36 22C36 22.5523 36.4477 23 37 23V21ZM18 22V36H20V22H18ZM21 39H41V37H21V39ZM23.7071 32.7071L29 27.4142L27.5858 26L22.2929 31.2929L23.7071 32.7071ZM29 27.4142L31.5858 30L33 28.5858L30.4142 26L29 27.4142ZM34.4142 30L41.7071 22.7071L40.2929 21.2929L33 28.5858L34.4142 30ZM40 22V26H42V22H40ZM41 21H37V23H41V21ZM31.5858 30C32.3668 30.7811 33.6332 30.781 34.4142 30L33 28.5858L33 28.5858L31.5858 30ZM29 27.4142H29L30.4142 26C29.6332 25.219 28.3668 25.219 27.5858 26L29 27.4142ZM18 36C18 37.6569 19.3431 39 21 39V37C20.4477 37 20 36.5523 20 36H18Z" fill="#F7F7FC"/>
<defs>
<linearGradient id="paint0_linear_0_1" x1="30" y1="60" x2="30" y2="-15.5" gradientUnits="userSpaceOnUse">
<stop stop-color="#554FD8"/>
<stop offset="1" stop-color="#554FD8" stop-opacity="0.3"/>
</linearGradient>
</defs>
</svg>
