<svg width="60" height="60" viewBox="0 0 60 60" fill="none" xmlns="http://www.w3.org/2000/svg">
<circle cx="30" cy="30" r="30" fill="url(#paint0_linear_0_1)"/>
<path d="M23.5834 27.5L20.6095 29.1221C19.9147 29.5011 19.9147 30.4989 20.6095 30.8779L23.5834 32.5M23.5834 27.5L29.0423 30.4776C29.6393 30.8032 30.3608 30.8032 30.9578 30.4776L36.4167 27.5M23.5834 27.5L20.6095 25.8779C19.9147 25.4989 19.9147 24.5011 20.6095 24.1221L29.0423 19.5224C29.6393 19.1968 30.3608 19.1968 30.9578 19.5224L39.3906 24.1221C40.0854 24.5011 40.0854 25.4989 39.3906 25.8779L36.4167 27.5M36.4167 27.5L39.3906 29.1221C40.0854 29.5011 40.0854 30.4989 39.3906 30.8779L36.4167 32.5M23.5834 32.5L20.6095 34.1221C19.9147 34.5011 19.9147 35.4989 20.6095 35.8779L29.0423 40.4776C29.6393 40.8032 30.3608 40.8032 30.9578 40.4776L39.3906 35.8779C40.0854 35.4989 40.0854 34.5011 39.3906 34.1221L36.4167 32.5M23.5834 32.5L29.0423 35.4776C29.6393 35.8032 30.3608 35.8032 30.9578 35.4776L36.4167 32.5" stroke="#F7F7FC" stroke-width="2" stroke-linecap="round"/>
<defs>
<linearGradient id="paint0_linear_0_1" x1="30" y1="60" x2="30" y2="-15.5" gradientUnits="userSpaceOnUse">
<stop stop-color="#554FD8"/>
<stop offset="1" stop-color="#554FD8" stop-opacity="0.3"/>
</linearGradient>
</defs>
</svg>
