<svg width="526" height="224" viewBox="0 0 526 224" fill="none" xmlns="http://www.w3.org/2000/svg">
<g style="mix-blend-mode:luminosity">
<path d="M400.241 -666.072C396.967 -577.643 300.778 -549.676 264.849 -472.724C227.849 -393.579 261.948 -368.499 213.486 -260.603C182.975 -192.206 -46.8556 -107.027 -97.5502 -51.7763C-158.401 14.7136 -138.468 88.6667 -212.047 142.132C-255.909 174.098 -299.771 206.065 -343.836 237.872" fill="url(#paint0_linear_95_5240)"/>
<path d="M424.093 -647.282C421.775 -588.438 378.322 -556.155 339.161 -518.481C319.764 -499.668 301.421 -479.692 289.406 -454.41C252.332 -376.004 285.444 -349.676 235.777 -244.42C225.902 -223.526 197.529 -201.648 161.578 -179.316C85.8349 -132.275 -19.9015 -82.1527 -63.7922 -43.4729C-67.3515 -40.2006 -70.9109 -36.9282 -73.5727 -33.9624C-122.632 20.881 -118.925 80.4097 -156.307 129.59C-164.465 140.375 -174.698 150.878 -187.983 160.671C-231.802 193.003 -275.7 224.6 -319.722 256.773" fill="url(#paint1_linear_95_5240)"/>
<path d="M448.151 -628.337C445.998 -569.704 402.915 -537.472 363.756 -499.799C344.524 -481.196 326.182 -461.22 314.168 -435.94C277.019 -358.273 308.981 -330.487 258.272 -228.079C247.992 -207.504 219.215 -185.946 183.227 -163.982C106.553 -117.004 3.75 -65.5983 -39.8179 -25.6582C-43.377 -22.3861 -46.5693 -19.163 -49.3948 -15.989C-97.3115 39.0723 -94.9075 98.5863 -132.249 148.132C-140.569 159.124 -150.638 169.419 -163.922 179.211C-207.536 211.701 -251.594 243.505 -295.817 275.517" fill="url(#paint2_linear_95_5240)"/>
<path d="M472.214 -609.379C470.022 -551.117 427.348 -518.568 388.521 -481.314C369.29 -462.712 351.316 -442.786 339.265 -417.875C302.04 -340.947 333.016 -311.913 281.102 -212.145C270.456 -191.522 241.237 -170.651 205.416 -148.897C127.976 -102.191 27.9434 -49.2938 -15.2621 -7.72645C-18.8209 -4.45447 -22.013 -1.23155 -24.6354 2.10157C-71.5728 57.5885 -70.1054 117.038 -107.444 166.581C-115.764 177.573 -125.995 188.075 -138.911 197.818C-182.483 230.673 -226.74 262.316 -271.123 294.535" fill="url(#paint3_linear_95_5240)"/>
<path d="M496.264 -590.433C494.033 -532.542 451.73 -500.044 413.108 -462.633C394.043 -444.24 376.071 -424.315 363.817 -399.564C326.517 -323.376 356.344 -292.885 303.35 -196.332C292.135 -175.82 262.676 -155.478 226.819 -134.093C148.41 -87.8175 51.3115 -33.637 8.46809 9.55764C5.11242 12.9887 1.92061 16.2115 -0.701569 19.5444C-46.6599 75.457 -46.129 134.842 -83.4254 184.75C-91.7447 195.741 -101.773 206.402 -114.852 216.353C-158.217 249.366 -202.838 281.056 -247.217 313.273" fill="url(#paint4_linear_95_5240)"/>
<path d="M520.115 -571.652C518.048 -513.972 475.95 -481.315 437.495 -444.114C418.432 -425.722 400.663 -405.639 388.371 -381.257C351.363 -305.856 379.471 -274.019 325.638 -180.153C313.854 -159.752 284.156 -139.937 248.426 -119.129C169.086 -72.9172 74.9193 -17.4533 32.2346 27.2096C28.8792 30.6405 25.8904 34.0223 23.0656 37.1959C-21.7506 93.3263 -22.5227 152.697 -59.6138 202.762C-68.0964 213.961 -78.1237 224.621 -91.0379 234.363C-134.361 267.742 -178.979 299.431 -223.519 331.855" fill="url(#paint5_linear_95_5240)"/>
<path d="M544.176 -552.698C542.071 -495.388 500.545 -462.623 462.094 -425.424C443.195 -407.241 425.428 -387.16 413.137 -362.779C376.054 -288.117 402.81 -254.983 348.139 -163.804C335.786 -143.515 305.685 -124.02 270.083 -103.788C189.773 -58.0074 98.5789 -0.892956 56.4202 45.1885C53.2678 48.7784 50.0764 52.0009 47.4546 55.3335C3.41432 111.73 1.90888 171.196 -35.1792 221.258C-43.4583 232.616 -53.6879 243.116 -66.5621 253.225C-109.843 286.97 -154.496 318.29 -199.197 350.92" fill="url(#paint6_linear_95_5240)"/>
<path d="M568.243 -533.748C566.098 -476.808 524.981 -443.726 487.062 -406.786C468.368 -388.445 450.563 -368.732 438.273 -344.352C400.911 -270.588 426.518 -235.997 371.009 -147.505C358.29 -127.168 327.543 -108.518 292.107 -88.4958C211.031 -42.9863 122.768 15.4114 80.7675 62.9609C77.6154 66.5507 74.627 69.9322 72.0054 73.2647C28.9431 130.088 26.5016 189.49 -10.748 239.758C-19.0266 251.115 -29.4192 261.823 -42.1287 271.723C-85.2038 305.626 -130.018 337.153 -175.083 369.831" fill="url(#paint7_linear_95_5240)"/>
<path d="M592.298 -514.799C590.317 -458.071 549.367 -425.199 511.654 -388.101C493.125 -369.969 475.525 -350.098 463.033 -325.878C425.596 -252.853 449.851 -216.965 393.302 -131.32C380.014 -111.094 349.028 -92.9721 313.556 -73.3185C231.347 -28.0317 146.016 31.6488 104.378 80.8249C101.226 84.4145 98.4405 87.955 95.819 91.2873C53.8989 148.328 50.155 207.714 13.1111 258.139C4.66933 269.704 -5.55866 280.203 -18.2282 290.471C-61.261 324.739 -106.275 356.105 -151.133 388.94" fill="url(#paint8_linear_95_5240)"/>
<path d="M616.151 -496.008C613.968 -439.442 573.591 -406.462 536.045 -369.575C517.517 -351.444 500.082 -331.781 487.591 -307.563C450.079 -235.277 472.78 -198.251 415.759 -115.342C401.904 -95.2272 370.678 -77.633 335.17 -58.3478C252.195 -13.3328 169.796 47.6303 128.519 98.4329C125.57 102.181 122.582 105.563 120.164 109.054C79.0194 166.361 74.7063 225.634 37.3377 276.473C28.8966 288.037 18.7084 298.903 6.20363 308.962C-36.7868 343.596 -81.797 374.96 -127.018 407.843" fill="url(#paint9_linear_95_5240)"/>
<path d="M640.211 -477.063C637.989 -420.867 598.02 -387.57 560.64 -350.893C542.278 -332.97 524.882 -312.942 512.353 -289.092C474.766 -217.543 495.75 -179.172 438.257 -98.9975C423.833 -78.9937 392.368 -61.9269 356.823 -43.01C272.878 1.57457 193.245 64.0289 152.494 116.25C149.545 119.999 146.76 123.539 144.342 127.03C104.175 184.763 98.9259 243.972 61.5597 294.809C53.1192 306.373 42.9316 317.239 30.4277 327.296C-12.3572 362.088 -57.7311 393.5 -102.949 426.382" fill="url(#paint10_linear_95_5240)"/>
<path d="M664.273 -458.109C662.215 -402.124 622.413 -369.037 585.402 -332.411C567.041 -314.489 549.811 -294.67 537.283 -270.822C499.621 -200.012 518.887 -160.295 460.923 -82.8557C445.931 -62.9631 414.227 -46.4238 378.646 -27.8754C293.772 16.6458 217.03 80.015 176.68 134.23C173.731 137.978 170.947 141.518 168.731 145.168C129.503 202.959 123.358 262.472 85.831 313.514C77.3911 325.077 67.0405 336.151 54.7403 346.367C11.9978 381.525 -33.3725 412.935 -78.9536 445.864" fill="url(#paint11_linear_95_5240)"/>
<path d="M688.324 -439.172C686.227 -383.557 646.833 -350.153 609.988 -313.736C591.995 -295.864 574.563 -276.205 561.997 -252.725C524.462 -182.494 541.769 -141.958 483.17 -67.0447C467.61 -47.2631 435.463 -31.4103 400.048 -13.0708C314.205 31.02 240.432 96.0395 200.403 151.513C197.657 155.421 194.873 158.961 192.455 162.451C154.204 220.668 146.921 279.958 109.599 331.158C100.996 342.929 90.8096 353.793 78.5102 364.009C35.8093 399.533 -9.59711 430.574 -55.1364 463.869" fill="url(#paint12_linear_95_5240)"/>
<path d="M712.178 -420.382C710.042 -365.137 671.22 -331.625 634.378 -295.21C616.387 -277.339 599.323 -257.73 586.555 -234.41C549.108 -165.126 564.332 -123.195 505.629 -51.066C489.337 -31.1873 457.114 -16.0701 421.663 1.901C334.852 45.5611 264.008 111.863 224.178 169.171C221.432 173.078 218.851 176.777 216.433 180.267C179.121 238.542 170.941 298.136 133.825 349.492C125.222 361.262 115.24 372.285 102.777 382.709C60.2826 418.39 14.7159 449.638 -31.1863 482.98" fill="url(#paint13_linear_95_5240)"/>
<path d="M736.243 -401.428C734.271 -346.394 695.654 -312.724 658.979 -276.519C640.989 -258.649 624.09 -239.249 611.323 -215.931C573.801 -147.384 587.106 -104.268 528.134 -34.7134C511.274 -14.9458 478.812 -0.355906 443.488 17.0388C355.709 60.2682 287.631 128.06 248.528 186.945C245.783 190.852 243.201 194.551 240.986 198.2C204.652 256.901 195.537 316.431 158.26 367.992C149.658 379.762 139.512 390.993 127.417 401.367C84.9644 437.414 39.1983 468.501 -6.70053 501.842" fill="url(#paint14_linear_95_5240)"/>
<path d="M760.308 -382.478C758.297 -327.814 720.05 -294.194 683.743 -258.04C665.918 -240.379 649.059 -220.613 636.254 -197.663C598.657 -129.853 609.84 -85.71 550.802 -18.5712C533.374 1.08543 500.673 15.1481 465.312 32.1747C376.603 75.3412 311.414 144.048 272.672 204.559C270.13 208.625 267.549 212.324 265.334 215.973C229.773 274.941 219.723 334.406 182.651 386.125C174.089 398.261 163.905 409.125 151.647 419.707C109.236 456.119 63.473 487.205 17.4134 520.752" fill="url(#paint15_linear_95_5240)"/>
<path d="M784.164 -363.692C782.114 -309.398 744.275 -275.461 708.135 -239.517C690.31 -221.857 673.616 -202.299 660.812 -179.35C623.14 -112.279 632.568 -67.1578 572.895 -2.54443C554.899 17.0012 521.756 30.3777 486.561 47.1954C396.884 89.9315 334.622 159.921 296.281 222.425C293.739 226.491 291.158 230.189 289.146 233.997C254.726 293.183 243.577 352.793 206.344 404.717C197.782 416.853 187.638 428.083 175.545 438.456C133.339 475.026 87.2127 506.16 41.1562 539.706" fill="url(#paint16_linear_95_5240)"/>
<path d="M808.231 -344.759C806.182 -290.466 768.874 -256.788 732.735 -220.844C715.278 -203.233 698.584 -183.676 685.578 -160.887C647.829 -94.5517 655.136 -48.4025 595.559 13.5891C576.995 33.0242 543.611 45.8739 508.379 62.3238C417.73 104.631 358.23 176.112 320.412 240.035C317.87 244.1 315.491 247.958 313.479 251.766C279.832 311.219 267.952 370.926 230.719 422.849C222.158 434.985 212.014 446.215 200.124 456.747C157.959 493.684 111.998 524.608 65.4126 558.411" fill="url(#paint17_linear_95_5240)"/>
<path d="M832.302 -325.843C830.214 -271.917 793.109 -238.08 757.539 -202.026C740.082 -184.415 723.552 -165.066 710.546 -142.277C672.719 -76.6766 677.703 -29.6577 618.259 30.0807C598.962 49.6139 565.5 61.7289 530.229 77.8114C438.606 119.69 382.029 192.456 344.569 258.007C342.23 262.232 339.852 266.09 337.84 269.898C304.965 329.62 292.149 389.266 254.955 441.556C246.23 453.9 236.086 465.13 224.196 475.662C182.07 512.966 135.906 543.732 89.3214 577.534" fill="url(#paint18_linear_95_5240)"/>
<path d="M856.371 -306.935C854.243 -253.377 817.543 -219.22 782.301 -183.583C765.007 -166.181 748.68 -146.672 735.47 -124.042C697.73 -59.3839 700.429 -11.1276 640.915 46.199C620.845 65.463 587.142 77.0516 552.034 92.926C459.272 134.584 405.415 208.477 368.719 275.976C366.38 280.201 364.001 284.058 361.989 287.867C330.252 347.809 316.337 407.603 279.143 459.893C270.418 472.237 260.274 483.467 248.586 494.159C206.662 531.622 160.334 562.596 113.585 596.606" fill="url(#paint19_linear_95_5240)"/>
<path d="M880.228 -288.196C878.265 -234.845 841.93 -200.738 806.687 -165.1C789.393 -147.697 773.066 -128.189 760.184 -105.975C722.365 -42.0507 722.74 7.07571 663.155 61.9907C642.517 81.1448 608.571 92.207 573.424 107.714C479.889 149.104 428.752 224.124 392.414 293.251C390.074 297.476 387.899 301.493 385.887 305.301C354.921 365.514 340.272 425.406 303.078 477.697C294.352 490.041 284.247 501.639 272.357 512.171C230.471 550.002 183.94 580.817 137.19 614.828" fill="url(#paint20_linear_95_5240)"/>
<path d="M904.293 -269.299C902.291 -216.314 866.361 -181.888 831.281 -146.458C814.15 -129.263 798.025 -109.595 784.737 -87.6993C747.042 -24.3501 745.056 25.2794 685.439 78.1502C664.028 97.0353 630.042 107.73 594.856 122.87C500.344 163.832 451.763 240.187 416.188 311.263C414.215 315.439 411.875 319.664 409.863 323.472C379.668 383.955 364.084 443.787 326.928 496.446C318.038 508.998 308.097 520.388 296.409 531.079C254.764 569.437 208.029 600.093 160.912 634.154" fill="url(#paint21_linear_95_5240)"/>
<path d="M928.365 -250.399C926.323 -197.78 890.759 -163.403 855.881 -127.813C838.75 -110.618 822.788 -91.1576 809.5 -69.2611C771.726 -6.64543 767.416 43.8547 708.094 94.2651C686.113 113.04 651.682 123.05 616.659 137.982C521.17 178.516 475.511 256.158 440.293 328.863C438.32 333.039 435.981 337.264 434.172 341.232C404.911 401.777 388.43 461.916 351.273 514.576C342.383 527.129 332.278 538.726 320.792 549.577C279.349 588.095 232.41 618.593 185.33 653.021" fill="url(#paint22_linear_95_5240)"/>
<path d="M952.438 -231.502C950.56 -179.091 915.197 -144.553 880.645 -109.379C863.88 -92.2324 847.918 -72.7718 834.426 -51.0339C796.573 10.8484 789.939 62.2194 730.748 110.378C707.995 128.884 673.524 138.527 638.46 153.092C541.994 193.198 498.891 272.176 464.396 346.463C462.423 350.639 460.286 355.023 458.477 358.991C429.988 419.806 412.773 480.045 375.654 533.073C366.764 545.626 356.658 557.224 345.172 568.076C303.766 606.961 256.826 637.46 209.378 671.938" fill="url(#paint23_linear_95_5240)"/>
<path d="M976.299 -212.774C974.383 -160.729 939.588 -126.08 905.034 -90.9047C888.269 -73.758 872.469 -54.5052 858.978 -32.7667C821.045 28.3825 812.048 80.2573 752.824 126.372C729.298 144.609 694.787 153.885 659.846 167.875C562.401 207.554 521.854 287.868 488.122 364.104C486.352 368.439 484.012 372.664 482.405 376.791C454.89 438.037 436.535 498.057 399.617 551.246C390.93 563.958 380.66 575.765 369.337 586.408C327.969 625.662 280.824 656.002 233.374 690.482" fill="url(#paint24_linear_95_5240)"/>
<path d="M1000.38 -193.88C998.42 -142.201 964.029 -107.233 929.638 -72.2648C912.871 -55.1176 897.438 -35.9133 883.743 -14.3334C845.894 45.8746 834.574 98.6208 775.316 142.691C750.853 160.869 716.262 169.409 681.484 183.191C583.06 222.443 545.233 303.886 512.06 381.911C510.29 386.247 508.153 390.631 506.343 394.599C479.762 455.908 460.674 516.027 423.591 569.426C414.739 582.347 404.632 593.946 393.145 604.798C351.978 644.212 304.464 674.602 257.013 709.082" fill="url(#paint25_linear_95_5240)"/>
<path d="M1024.45 -174.985C1022.5 -123.304 988.431 -88.7517 954.241 -53.6236C937.637 -36.6842 922.04 -17.271 908.508 4.10119C870.58 63.576 856.732 117.034 797.971 158.804C772.736 176.712 738.105 184.885 703.489 198.46C603.884 237.125 568.815 320.063 536.569 399.83C534.799 404.165 533.028 408.501 531.055 412.677C505.244 474.257 485.423 534.476 448.174 588.085C439.322 601.006 429.215 612.605 417.93 623.616C376.8 663.399 329.284 693.79 281.667 728.479" fill="url(#paint26_linear_95_5240)"/>
<path d="M1048.53 -156.092C1046.54 -104.777 1012.87 -69.9047 979.011 -35.1919C962.406 -18.2519 947.174 1.11275 933.439 22.3265C895.634 81.2275 879.22 135.031 820.628 174.915C794.783 192.347 759.948 200.361 725.292 213.569C624.707 251.806 592.397 336.241 560.508 417.639C558.737 421.975 556.967 426.31 555.196 430.646C530.156 492.497 509.398 552.657 472.35 606.426C463.498 619.348 453.429 631.315 442.144 642.326C401.051 682.478 353.494 712.502 305.711 747.401" fill="url(#paint27_linear_95_5240)"/>
<path d="M1072.4 -137.369C1070.37 -86.4201 1037.27 -51.4366 1003.41 -16.7225C987.168 0.169117 971.732 19.3753 957.996 40.5898C920.111 98.7583 901.333 153.066 842.707 190.907C816.088 208.07 781.01 215.558 746.515 228.558C644.95 266.368 614.993 351.982 584.03 435.122C582.462 439.617 580.691 443.953 578.92 448.288C554.815 510.203 533.159 570.671 495.945 624.651C486.928 637.781 477.023 649.54 465.737 660.552C424.844 700.865 377.121 731.098 328.968 766.048" fill="url(#paint28_linear_95_5240)"/>
<path d="M1096.48 -118.478C1094.61 -67.7353 1061.52 -32.7506 1028.02 1.91583C1011.78 18.808 996.706 37.9659 982.93 58.8138C944.966 116.25 923.823 171.062 865.366 207.018C837.974 223.912 802.854 231.033 768.319 243.666C665.773 281.049 638.372 368.001 608.171 453.091C606.603 457.586 604.832 461.922 603.264 466.417C579.93 528.603 557.539 589.172 520.323 643.154C511.306 656.285 501.236 668.252 490.152 679.424C449.499 720.264 401.368 750.181 353.212 785.131" fill="url(#paint29_linear_95_5240)"/>
<path d="M1120.57 -99.5885C1118.66 -49.2109 1085.97 -13.9063 1052.83 20.7124C1036.75 37.397 1021.68 56.5556 1007.7 77.2451C969.657 133.948 946.15 189.265 888.025 223.128C859.656 239.594 824.495 246.348 790.122 258.773C686.595 295.73 661.751 384.019 632.273 470.693C630.705 475.188 629.137 479.683 627.569 484.179C605.005 546.636 581.677 607.146 544.498 661.498C535.48 674.629 525.41 686.597 514.325 697.769C473.708 738.979 425.574 768.897 377.252 804.056" fill="url(#paint30_linear_95_5240)"/>
<path d="M1144.44 -80.8626C1142.7 -30.6913 1110.37 4.56564 1077.39 38.9775C1061.32 55.6627 1046.45 74.9813 1032.43 95.3042C994.467 151.066 968.393 206.729 910.474 239.074C881.332 255.272 846.13 261.659 811.715 273.717C707.208 310.246 684.92 399.874 656.369 488.29C654.801 492.785 653.232 497.281 651.867 501.936C630.074 564.665 606.011 625.276 568.83 679.629C559.648 692.969 549.779 705.097 538.694 716.27C498.278 757.64 449.774 787.608 401.45 822.769" fill="url(#paint31_linear_95_5240)"/>
<path d="M1168.53 -61.9792C1166.75 -12.1728 1134.82 23.4043 1102.01 57.6096C1086.09 74.0875 1071.22 93.4071 1057.2 113.731C1019.36 168.92 990.721 224.929 932.767 255.23C902.812 270.792 867.404 277.02 833.151 288.87C727.457 324.813 707.929 415.94 679.937 506.149C678.572 510.804 677.003 515.299 675.435 519.795C654.576 582.589 629.615 643.509 592.634 698.025C583.451 711.366 573.582 723.494 562.698 734.826C522.318 776.566 473.974 806.327 425.115 841.748" fill="url(#paint32_linear_95_5240)"/>
<path d="M1192.62 -43.0909C1190.8 6.35048 1159.24 41.8803 1126.63 76.2464C1110.91 92.8843 1096.2 111.997 1081.98 132.162C1044.06 186.619 1013.22 242.925 955.266 271.55C924.536 286.842 889.087 292.703 854.956 303.978C748.28 339.495 731.106 431.801 704.041 523.754C702.675 528.409 701.309 533.064 699.741 537.56C679.653 600.626 653.753 661.488 616.808 716.374C607.828 729.875 597.591 742.053 586.871 753.177C546.527 795.287 497.977 824.89 449.317 860.471" fill="url(#paint33_linear_95_5240)"/>
<path d="M1216.71 -24.2014C1214.85 24.8747 1183.69 60.7246 1151.24 94.8842C1135.69 111.315 1120.98 130.428 1106.76 150.594C1068.76 204.319 1035.51 260.762 977.93 287.661C946.386 302.318 911.099 307.97 876.762 319.087C769.103 354.176 754.487 447.822 728.348 541.519C726.982 546.174 725.616 550.829 724.25 555.485C704.933 618.823 678.299 679.786 641.351 734.675C632.37 748.176 622.335 760.514 611.45 771.847C571.306 814.118 522.589 843.931 473.559 879.563" fill="url(#paint34_linear_95_5240)"/>
<path d="M1240.61 -5.47752C1238.74 43.6015 1208.12 79.1961 1175.83 113.149C1160.27 129.581 1145.93 148.646 1131.5 168.654C1093.42 221.647 1057.97 278.388 1000.39 303.61C968.033 317.63 932.54 323.124 898.364 334.033C789.682 368.328 777.663 463.682 752.082 559.172C750.919 563.987 749.553 568.643 748.187 573.299C729.641 636.91 702.271 697.975 665.156 753.074C656.01 766.785 645.975 779.123 635.253 790.249C595.144 832.89 546.22 862.545 497.186 898.179" fill="url(#paint35_linear_95_5240)"/>
<path d="M1264.72 13.4074C1262.82 62.1223 1232.39 97.8786 1200.46 131.785C1144.1 191.327 1102.22 287.513 1022.7 319.772C989.527 333.157 954.03 338.651 919.812 349.193C810.143 383.062 800.478 479.598 776.027 576.994C758.594 645.866 729.16 712.057 689.334 771.437C645.488 836.76 583.581 872.067 521.424 917.287" fill="url(#paint36_linear_95_5240)"/>
</g>
<defs>
<linearGradient id="paint0_linear_95_5240" x1="18.1957" y1="-221.997" x2="121.432" y2="-140.768" gradientUnits="userSpaceOnUse">
<stop stop-color="#FF7BAC"/>
<stop offset="1" stop-color="#FF7BAC" stop-opacity="0"/>
</linearGradient>
<linearGradient id="paint1_linear_95_5240" x1="42.2268" y1="-203.114" x2="142.942" y2="-123.87" gradientUnits="userSpaceOnUse">
<stop stop-color="#FF7BAC"/>
<stop offset="1" stop-color="#FF7BAC" stop-opacity="0"/>
</linearGradient>
<linearGradient id="paint2_linear_95_5240" x1="66.2568" y1="-184.232" x2="164.483" y2="-106.948" gradientUnits="userSpaceOnUse">
<stop stop-color="#FF7BAC"/>
<stop offset="1" stop-color="#FF7BAC" stop-opacity="0"/>
</linearGradient>
<linearGradient id="paint3_linear_95_5240" x1="90.2968" y1="-165.341" x2="186.049" y2="-90.0061" gradientUnits="userSpaceOnUse">
<stop stop-color="#FF7BAC"/>
<stop offset="1" stop-color="#FF7BAC" stop-opacity="0"/>
</linearGradient>
<linearGradient id="paint4_linear_95_5240" x1="114.323" y1="-146.462" x2="207.621" y2="-73.0591" gradientUnits="userSpaceOnUse">
<stop stop-color="#FF7BAC"/>
<stop offset="1" stop-color="#FF7BAC" stop-opacity="0"/>
</linearGradient>
<linearGradient id="paint5_linear_95_5240" x1="138.349" y1="-127.583" x2="229.213" y2="-56.0968" gradientUnits="userSpaceOnUse">
<stop stop-color="#FF7BAC"/>
<stop offset="1" stop-color="#FF7BAC" stop-opacity="0"/>
</linearGradient>
<linearGradient id="paint6_linear_95_5240" x1="162.386" y1="-108.695" x2="250.835" y2="-39.1105" gradientUnits="userSpaceOnUse">
<stop stop-color="#FF7BAC"/>
<stop offset="1" stop-color="#FF7BAC" stop-opacity="0"/>
</linearGradient>
<linearGradient id="paint7_linear_95_5240" x1="186.422" y1="-89.8072" x2="272.477" y2="-22.1082" gradientUnits="userSpaceOnUse">
<stop stop-color="#FF7BAC"/>
<stop offset="1" stop-color="#FF7BAC" stop-opacity="0"/>
</linearGradient>
<linearGradient id="paint8_linear_95_5240" x1="210.453" y1="-70.9243" x2="294.13" y2="-5.09744" gradientUnits="userSpaceOnUse">
<stop stop-color="#FF7BAC"/>
<stop offset="1" stop-color="#FF7BAC" stop-opacity="0"/>
</linearGradient>
<linearGradient id="paint9_linear_95_5240" x1="234.486" y1="-52.0402" x2="315.803" y2="11.929" gradientUnits="userSpaceOnUse">
<stop stop-color="#FF7BAC"/>
<stop offset="1" stop-color="#FF7BAC" stop-opacity="0"/>
</linearGradient>
<linearGradient id="paint10_linear_95_5240" x1="258.516" y1="-33.1568" x2="337.494" y2="28.9704" gradientUnits="userSpaceOnUse">
<stop stop-color="#FF7BAC"/>
<stop offset="1" stop-color="#FF7BAC" stop-opacity="0"/>
</linearGradient>
<linearGradient id="paint11_linear_95_5240" x1="282.554" y1="-14.2687" x2="359.209" y2="46.0301" gradientUnits="userSpaceOnUse">
<stop stop-color="#FF7BAC"/>
<stop offset="1" stop-color="#FF7BAC" stop-opacity="0"/>
</linearGradient>
<linearGradient id="paint12_linear_95_5240" x1="306.575" y1="4.60752" x2="380.928" y2="63.0942" gradientUnits="userSpaceOnUse">
<stop stop-color="#FF7BAC"/>
<stop offset="1" stop-color="#FF7BAC" stop-opacity="0"/>
</linearGradient>
<linearGradient id="paint13_linear_95_5240" x1="330.607" y1="23.4914" x2="402.705" y2="80.2026" gradientUnits="userSpaceOnUse">
<stop stop-color="#FF7BAC"/>
<stop offset="1" stop-color="#FF7BAC" stop-opacity="0"/>
</linearGradient>
<linearGradient id="paint14_linear_95_5240" x1="354.645" y1="42.3816" x2="424.585" y2="97.3936" gradientUnits="userSpaceOnUse">
<stop stop-color="#FF7BAC"/>
<stop offset="1" stop-color="#FF7BAC" stop-opacity="0"/>
</linearGradient>
<linearGradient id="paint15_linear_95_5240" x1="378.681" y1="61.2696" x2="446.547" y2="114.649" gradientUnits="userSpaceOnUse">
<stop stop-color="#FF7BAC"/>
<stop offset="1" stop-color="#FF7BAC" stop-opacity="0"/>
</linearGradient>
<linearGradient id="paint16_linear_95_5240" x1="402.712" y1="80.1522" x2="468.578" y2="131.958" gradientUnits="userSpaceOnUse">
<stop stop-color="#FF7BAC"/>
<stop offset="1" stop-color="#FF7BAC" stop-opacity="0"/>
</linearGradient>
<linearGradient id="paint17_linear_95_5240" x1="426.042" y1="98.4864" x2="490.673" y2="149.32" gradientUnits="userSpaceOnUse">
<stop stop-color="#FF7BAC"/>
<stop offset="1" stop-color="#FF7BAC" stop-opacity="0"/>
</linearGradient>
<linearGradient id="paint18_linear_95_5240" x1="448.186" y1="115.888" x2="512.818" y2="166.723" gradientUnits="userSpaceOnUse">
<stop stop-color="#FF7BAC"/>
<stop offset="1" stop-color="#FF7BAC" stop-opacity="0"/>
</linearGradient>
<linearGradient id="paint19_linear_95_5240" x1="470.133" y1="133.136" x2="535.012" y2="184.165" gradientUnits="userSpaceOnUse">
<stop stop-color="#FF7BAC"/>
<stop offset="1" stop-color="#FF7BAC" stop-opacity="0"/>
</linearGradient>
<linearGradient id="paint20_linear_95_5240" x1="491.902" y1="150.244" x2="557.249" y2="201.64" gradientUnits="userSpaceOnUse">
<stop stop-color="#FF7BAC"/>
<stop offset="1" stop-color="#FF7BAC" stop-opacity="0"/>
</linearGradient>
<linearGradient id="paint21_linear_95_5240" x1="513.524" y1="167.235" x2="579.537" y2="219.157" gradientUnits="userSpaceOnUse">
<stop stop-color="#FF7BAC"/>
<stop offset="1" stop-color="#FF7BAC" stop-opacity="0"/>
</linearGradient>
<linearGradient id="paint22_linear_95_5240" x1="535.021" y1="184.129" x2="601.881" y2="236.718" gradientUnits="userSpaceOnUse">
<stop stop-color="#FF7BAC"/>
<stop offset="1" stop-color="#FF7BAC" stop-opacity="0"/>
</linearGradient>
<linearGradient id="paint23_linear_95_5240" x1="556.403" y1="200.934" x2="624.273" y2="254.317" gradientUnits="userSpaceOnUse">
<stop stop-color="#FF7BAC"/>
<stop offset="1" stop-color="#FF7BAC" stop-opacity="0"/>
</linearGradient>
<linearGradient id="paint24_linear_95_5240" x1="577.678" y1="217.654" x2="646.707" y2="271.949" gradientUnits="userSpaceOnUse">
<stop stop-color="#FF7BAC"/>
<stop offset="1" stop-color="#FF7BAC" stop-opacity="0"/>
</linearGradient>
<linearGradient id="paint25_linear_95_5240" x1="598.879" y1="234.316" x2="669.205" y2="289.632" gradientUnits="userSpaceOnUse">
<stop stop-color="#FF7BAC"/>
<stop offset="1" stop-color="#FF7BAC" stop-opacity="0"/>
</linearGradient>
<linearGradient id="paint26_linear_95_5240" x1="620.008" y1="250.921" x2="691.762" y2="307.362" gradientUnits="userSpaceOnUse">
<stop stop-color="#FF7BAC"/>
<stop offset="1" stop-color="#FF7BAC" stop-opacity="0"/>
</linearGradient>
<linearGradient id="paint27_linear_95_5240" x1="641.073" y1="267.476" x2="714.383" y2="325.141" gradientUnits="userSpaceOnUse">
<stop stop-color="#FF7BAC"/>
<stop offset="1" stop-color="#FF7BAC" stop-opacity="0"/>
</linearGradient>
<linearGradient id="paint28_linear_95_5240" x1="662.07" y1="283.978" x2="737.06" y2="342.966" gradientUnits="userSpaceOnUse">
<stop stop-color="#FF7BAC"/>
<stop offset="1" stop-color="#FF7BAC" stop-opacity="0"/>
</linearGradient>
<linearGradient id="paint29_linear_95_5240" x1="683.031" y1="300.451" x2="759.823" y2="360.857" gradientUnits="userSpaceOnUse">
<stop stop-color="#FF7BAC"/>
<stop offset="1" stop-color="#FF7BAC" stop-opacity="0"/>
</linearGradient>
<linearGradient id="paint30_linear_95_5240" x1="703.947" y1="316.89" x2="782.666" y2="378.813" gradientUnits="userSpaceOnUse">
<stop stop-color="#FF7BAC"/>
<stop offset="1" stop-color="#FF7BAC" stop-opacity="0"/>
</linearGradient>
<linearGradient id="paint31_linear_95_5240" x1="724.819" y1="333.294" x2="805.592" y2="396.834" gradientUnits="userSpaceOnUse">
<stop stop-color="#FF7BAC"/>
<stop offset="1" stop-color="#FF7BAC" stop-opacity="0"/>
</linearGradient>
<linearGradient id="paint32_linear_95_5240" x1="745.66" y1="349.674" x2="828.654" y2="414.963" gradientUnits="userSpaceOnUse">
<stop stop-color="#FF7BAC"/>
<stop offset="1" stop-color="#FF7BAC" stop-opacity="0"/>
</linearGradient>
<linearGradient id="paint33_linear_95_5240" x1="766.475" y1="366.033" x2="851.786" y2="433.147" gradientUnits="userSpaceOnUse">
<stop stop-color="#FF7BAC"/>
<stop offset="1" stop-color="#FF7BAC" stop-opacity="0"/>
</linearGradient>
<linearGradient id="paint34_linear_95_5240" x1="787.263" y1="382.372" x2="875.031" y2="451.421" gradientUnits="userSpaceOnUse">
<stop stop-color="#FF7BAC"/>
<stop offset="1" stop-color="#FF7BAC" stop-opacity="0"/>
</linearGradient>
<linearGradient id="paint35_linear_95_5240" x1="807.975" y1="398.651" x2="898.497" y2="469.867" gradientUnits="userSpaceOnUse">
<stop stop-color="#FF7BAC"/>
<stop offset="1" stop-color="#FF7BAC" stop-opacity="0"/>
</linearGradient>
<linearGradient id="paint36_linear_95_5240" x1="828.769" y1="414.995" x2="922.623" y2="488.835" gradientUnits="userSpaceOnUse">
<stop stop-color="#FF7BAC"/>
<stop offset="1" stop-color="#FF7BAC" stop-opacity="0"/>
</linearGradient>
</defs>
</svg>
