<svg width="526" height="224" viewBox="0 0 526 224" fill="none" xmlns="http://www.w3.org/2000/svg">
<path d="M204.752 97.1165L204.752 97.1166L204.758 97.1146C208.683 95.7096 211.587 95.9139 213.808 96.9474C216.059 97.9942 217.782 99.9705 219.176 102.436C220.57 104.9 221.58 107.754 222.456 110.437C222.6 110.879 222.742 111.32 222.881 111.755C223.569 113.894 224.212 115.897 224.93 117.271L224.93 117.271L224.937 117.284C227.382 121.807 227.56 126.623 227.746 131.632C227.751 131.764 227.756 131.897 227.761 132.029C227.951 137.103 228.21 142.385 231.338 147.161L231.343 147.169L231.348 147.176C233.849 150.853 234.093 155.636 232.149 160.185C231.574 161.134 230.947 162.132 229.954 162.86C228.502 163.857 226.598 164.093 224.75 163.784C222.897 163.474 221.271 162.643 220.393 161.718C219.555 160.71 219.044 159.516 218.528 158.152C218.463 157.979 218.397 157.803 218.33 157.625C217.883 156.425 217.392 155.105 216.636 153.884L216.632 153.878C215.315 151.786 213.218 150.126 210.914 148.691C209.104 147.564 207.086 146.529 205.127 145.524C204.596 145.252 204.069 144.981 203.551 144.712C201.088 143.43 198.831 142.164 197.119 140.722C195.418 139.289 194.349 137.762 194.099 135.969L194.097 135.957L194.096 135.946C193.698 133.504 194.89 130.947 196.523 128.076C196.744 127.687 196.973 127.292 197.205 126.893C197.798 125.871 198.406 124.822 198.932 123.787C199.667 122.338 200.29 120.824 200.536 119.276L200.536 119.275C200.892 117.007 200.435 114.883 199.871 112.901C199.722 112.38 199.568 111.873 199.417 111.376C198.978 109.929 198.562 108.56 198.367 107.118L198.364 107.095L198.36 107.072C197.704 103.503 199.491 98.9639 204.752 97.1165Z" fill="url(#paint0_linear_95_5314)" fill-opacity="0.3" stroke="white" stroke-width="2" stroke-miterlimit="10"/>
<path d="M200.803 156.049L200.803 156.049L200.793 156.045C199.428 155.448 197.979 154.861 196.49 154.257C193.954 153.23 191.302 152.156 188.753 150.904C184.729 148.928 181.277 146.646 179.397 143.755C177.693 141.096 177.546 138.277 178.158 135.152C178.692 132.582 179.957 130.015 181.562 127.303C182.293 126.067 183.084 124.817 183.899 123.531C183.977 123.408 184.054 123.285 184.132 123.162C185.024 121.753 185.938 120.3 186.805 118.801C188.416 116.147 189.699 113.479 190.13 110.711C190.779 107.576 190.431 104.565 189.785 101.584C189.49 100.226 189.13 98.857 188.768 97.4848C188.733 97.3492 188.697 97.2137 188.661 97.0781C188.263 95.5614 187.868 94.0337 187.549 92.4575L187.549 92.4575L187.547 92.4486C185.721 83.8388 191.176 75.9164 200.908 72.7086C204.193 71.6258 207.367 70.9763 210.433 70.7526C215.026 70.5325 220.102 70.8767 224.54 72.1934C228.989 73.5131 232.677 75.7705 234.698 79.2907C235.087 79.9696 235.267 80.8622 235.285 81.9693C235.304 83.0729 235.163 84.2934 234.988 85.5848C234.958 85.8021 234.928 86.0218 234.897 86.243C234.749 87.3092 234.596 88.4114 234.531 89.4475C234.452 90.6944 234.49 91.9644 234.872 93.0799L234.874 93.087L234.877 93.0941C235.702 95.3943 236.547 97.581 237.358 99.6803C238.852 103.546 240.232 107.115 241.165 110.554L241.168 110.563L241.17 110.573C242.543 115.262 244.623 119.632 246.639 123.868C246.871 124.353 247.101 124.837 247.329 125.319C249.564 130.04 251.614 134.632 252.563 139.525C252.981 141.695 252.456 144.118 251.809 146.797C251.775 146.94 251.74 147.084 251.705 147.228C251.111 149.674 250.468 152.325 250.731 154.825C250.733 155.79 250.911 156.532 251.351 157.415L251.358 157.429L251.366 157.443C254.722 163.675 254.129 170.775 250.576 177.164L250.569 177.177L250.562 177.19C249.661 178.931 248.368 180.554 246.257 181.965L246.079 182.084L246.018 182.184L245.973 182.21C242.845 184.019 238.827 184.516 235.077 184.078C231.304 183.637 228.011 182.273 226.284 180.591L226.271 180.578L226.257 180.566C224.639 179.096 223.703 177.323 222.878 175.369C222.678 174.896 222.482 174.404 222.282 173.902C221.68 172.391 221.04 170.786 220.148 169.326C219.47 168.184 218.814 167.2 217.94 166.248C215.781 163.82 212.98 161.949 210.004 160.354C207.663 159.099 205.161 157.988 202.738 156.913C202.086 156.623 201.439 156.336 200.803 156.049Z" fill="url(#paint1_linear_95_5314)" fill-opacity="0.3" stroke="white" stroke-width="2" stroke-miterlimit="10"/>
<path d="M162.42 147.518L162.417 147.512L162.413 147.506C160.093 143.149 160.697 138.724 162.224 134.314C163.449 130.825 165.498 127.441 167.864 123.959C168.703 122.723 169.589 121.467 170.489 120.191C172.093 117.917 173.741 115.58 175.249 113.186C177.535 109.706 178.986 106.178 179.845 102.769L179.848 102.756L179.851 102.744C180.78 98.6023 180.405 94.5916 179.594 90.5798C179.189 88.5765 178.67 86.555 178.146 84.5162L178.117 84.4027C177.6 82.3933 177.078 80.3631 176.636 78.2694C173.694 64.0526 182.818 53.0384 196.921 48.5049C201.999 47.0476 207.034 45.818 211.889 45.6388L211.889 45.6389L211.902 45.6382C218.638 45.3013 226.798 45.3418 234.078 46.8612C241.384 48.3859 247.573 51.35 250.701 56.6687C251.22 57.5961 251.332 58.9447 251.098 60.7088C250.867 62.4532 250.326 64.4194 249.733 66.4728C249.67 66.6895 249.607 66.9072 249.544 67.1255C249.016 68.9462 248.474 70.8149 248.146 72.5402C247.783 74.4493 247.643 76.3609 248.194 77.9405L248.198 77.9506C249.326 81.0823 250.54 84.1044 251.718 87.0363C252.342 88.5895 252.955 90.1173 253.541 91.6226C255.242 95.9959 256.728 100.234 257.644 104.569C259.136 111.825 263.271 118.176 267.364 124.304C267.516 124.531 267.668 124.758 267.819 124.985C271.796 130.933 275.647 136.694 277.337 143.11L277.339 143.115C277.658 144.303 277.527 145.696 277.052 147.294C276.578 148.887 275.791 150.589 274.902 152.362C274.639 152.888 274.366 153.421 274.09 153.959C273.45 155.208 272.8 156.479 272.242 157.71C271.443 159.472 270.783 161.259 270.575 162.963C270.412 164.14 270.442 165.381 270.97 166.571L270.985 166.604L271.002 166.636C275.821 175.684 274.335 185.692 269.27 194.306C267.729 196.843 265.797 199.226 262.446 201.311L261.858 201.676L261.869 201.722C257.249 204.253 251.344 205.012 245.853 204.483C240.225 203.942 235.258 202.073 232.655 199.629L232.645 199.62L232.636 199.611C230.132 197.377 228.745 194.751 227.509 191.907C227.254 191.32 227.003 190.719 226.749 190.108C225.792 187.808 224.781 185.382 223.262 183.119L223.255 183.109L223.248 183.099C222.324 181.789 221.136 180.286 219.777 179.017C213.548 173.117 204.529 169.559 196.533 166.405C195.662 166.062 194.803 165.723 193.962 165.387L193.955 165.384C192.183 164.691 190.252 164 188.236 163.278C184.326 161.879 180.096 160.365 176.091 158.503C170.03 155.685 164.838 152.216 162.42 147.518Z" fill="url(#paint2_linear_95_5314)" fill-opacity="0.3" stroke="white" stroke-width="2" stroke-miterlimit="10"/>
<path d="M186.755 174.817L186.755 174.817C188.537 175.51 190.391 176.2 192.285 176.905C196.339 178.414 200.572 179.99 204.65 181.791C210.645 184.44 216.432 187.628 221.065 191.947C222.9 193.533 224.377 195.395 225.784 197.17L225.813 197.205L225.829 197.226L225.844 197.247C227.967 200.218 229.308 203.442 230.592 206.529C230.899 207.267 231.203 207.997 231.514 208.714C233.142 212.474 234.989 215.993 238.462 218.967L238.469 218.972C242.032 222.077 248.681 224.399 256.166 225.063C263.622 225.725 271.692 224.72 278.028 221.395L278.137 221.338C278.176 221.306 278.253 221.243 278.34 221.186C278.407 221.142 278.502 221.086 278.623 221.041C283.195 218.491 285.871 215.149 287.84 211.907C294.562 200.845 296.814 188.168 290.587 176.493C290.131 175.713 290.02 174.853 290.032 174.059C290.043 173.277 290.177 172.458 290.297 171.724L290.304 171.688L290.311 171.644L290.322 171.601C290.863 169.517 292.036 167.316 293.393 165.13C294.263 163.73 295.242 162.284 296.211 160.854C296.751 160.058 297.287 159.266 297.799 158.49C299.254 156.285 300.542 154.166 301.346 152.194C302.154 150.214 302.415 148.519 302.003 147.103C299.629 139.318 294.221 132.395 288.651 125.264C288.24 124.738 287.829 124.212 287.418 123.683C281.49 116.068 275.632 108.14 273.978 98.8626C272.856 92.8029 270.819 87.0647 268.467 81.202C267.703 79.2986 266.904 77.3757 266.092 75.4242C264.416 71.394 262.689 67.2418 261.125 62.8874L261.122 62.8812C260.415 60.8728 260.726 58.3619 261.37 55.8085C261.954 53.4916 262.864 50.9611 263.758 48.4748C263.863 48.1835 263.967 47.8928 264.071 47.6032C265.072 44.8091 266.003 42.1069 266.462 39.7194C266.929 37.2961 266.859 35.4313 266.125 34.1709L266.124 34.169C261.97 26.9987 253.243 23.3348 243.086 21.6162C232.975 19.9056 221.75 20.1734 212.991 20.6055L186.755 174.817ZM186.755 174.817C184.455 173.924 181.902 173.028 179.213 172.084C174.113 170.293 168.522 168.33 163.231 165.89C155.165 162.17 148.196 157.502 145.16 151.068C142.5 145.339 143.843 139.085 146.291 133.415C148.217 129.026 151.046 124.839 154.126 120.6C154.867 119.58 155.623 118.557 156.383 117.527C158.763 114.305 161.187 111.024 163.315 107.629C166.37 103.162 168.267 98.9115 169.329 94.5998L169.329 94.5971C171.445 85.9022 169.214 77.4266 166.798 68.2487C166.435 66.8675 166.067 65.4703 165.71 64.0542L165.709 64.0527C163.228 54.2945 165.404 45.9085 170.467 39.2178C175.55 32.5011 183.576 27.4572 192.814 24.5337L192.825 24.5301M186.755 174.817L192.825 24.5301M192.825 24.5301C199.49 22.3358 206.323 20.9389 212.991 20.6055L192.825 24.5301Z" fill="url(#paint3_linear_95_5314)" fill-opacity="0.3" stroke="white" stroke-width="2" stroke-miterlimit="10"/>
<path d="M128.139 154.769L128.141 154.772C131.698 162.964 140.49 168.824 150.631 173.409C157.35 176.446 164.473 178.85 170.867 181.007C174.13 182.109 177.204 183.146 179.936 184.17C181.921 184.901 183.982 185.635 186.088 186.386C191.307 188.245 196.807 190.204 202.133 192.469C209.617 195.652 216.864 199.482 222.694 204.598C225.015 206.507 226.975 208.693 228.77 211.1C231.652 214.857 233.382 218.98 235.048 222.952C235.367 223.713 235.684 224.468 236.006 225.214C238.03 229.899 240.293 234.325 244.65 238.06L244.655 238.064C249.101 241.931 257.381 244.76 266.708 245.521C276.004 246.279 286.128 244.963 294.184 240.759L294.307 240.695L294.32 240.692C294.325 240.688 294.331 240.684 294.337 240.68C294.349 240.672 294.361 240.663 294.372 240.656C294.504 240.565 294.709 240.436 294.996 240.351C300.811 237.125 304.111 233.026 306.512 229.076L306.516 229.068L306.521 229.061C314.938 215.758 317.923 200.196 310.209 185.672L310.203 185.661L310.197 185.649C309.253 183.76 309.614 181.909 310.154 179.911L310.161 179.884L310.17 179.857C310.99 177.401 312.654 174.775 314.57 172.144C315.76 170.511 317.088 168.823 318.406 167.146C319.206 166.13 320.002 165.118 320.762 164.125C322.804 161.458 324.616 158.888 325.755 156.514C326.904 154.119 327.28 152.104 326.73 150.461L326.729 150.458C323.647 141.148 316.623 133.006 309.427 124.664C308.761 123.893 308.095 123.12 307.429 122.345C299.649 113.273 292.088 103.826 290.372 92.5216C289.116 84.6156 286.516 77.3254 283.518 69.9976C282.61 67.7785 281.663 65.5499 280.706 63.2989C278.518 58.1483 276.279 52.8807 274.348 47.3434M128.139 154.769L275.297 47.039M128.139 154.769C124.86 147.295 127.005 139.407 130.374 132.491C133.004 127.211 136.611 122.227 140.462 117.17C141.148 116.27 141.842 115.366 142.54 114.459C145.74 110.293 149.009 106.039 151.877 101.549L128.139 154.769ZM274.348 47.3434C274.348 47.3426 274.347 47.3418 274.347 47.341L275.297 47.039M274.348 47.3434C274.348 47.3442 274.348 47.3449 274.349 47.3457L275.297 47.039M274.348 47.3434C273.491 44.9212 273.964 41.8245 274.891 38.6242C275.744 35.6805 277.047 32.4462 278.333 29.2541C278.465 28.9276 278.596 28.6016 278.726 28.2764C280.148 24.7392 281.489 21.2943 282.207 18.254C282.934 15.1702 282.951 12.7641 282.036 11.1449M275.297 47.039C273.876 43.0287 276.56 36.3652 279.271 29.6356C282.243 22.2579 285.246 14.8009 282.909 10.6738M282.036 11.1449C282.036 11.1458 282.037 11.1468 282.037 11.1477L282.909 10.6738M282.036 11.1449C282.035 11.144 282.035 11.143 282.034 11.1421L282.909 10.6738M282.036 11.1449L282.909 10.6738M188.942 -0.107353C188.943 -0.107762 188.944 -0.108168 188.945 -0.108577L188.62 -1.05653L188.938 -0.106177C188.939 -0.10657 188.94 -0.106961 188.942 -0.107353Z" fill="url(#paint4_linear_95_5314)" fill-opacity="0.3" stroke="white" stroke-width="2" stroke-miterlimit="10"/>
<path d="M172.875 193.364L172.87 193.362C169.789 192.253 166.322 191.125 162.633 189.924C154.84 187.387 146.053 184.528 137.803 180.842C125.648 175.412 115.066 168.348 110.866 158.304C107.25 149.435 110.019 139.945 114.451 131.552C117.785 125.382 122.123 119.613 126.707 113.803C127.564 112.716 128.43 111.628 129.3 110.535C133.065 105.804 136.893 100.994 140.32 95.9221C144.591 89.7378 147.321 83.8448 148.828 77.9649L148.831 77.9548C152.144 64.426 148.559 51.2902 144.384 35.9962L144.169 35.2078L144.168 35.2071C140.042 20.1273 143.432 7.46169 151.225 -2.51436C159.044 -12.5225 171.331 -19.8624 185.019 -24.1183C195.134 -27.233 205.391 -29.5358 215.657 -29.9783L215.664 -29.9786C215.988 -29.9948 216.316 -30.0111 216.646 -30.0276C229.418 -30.665 246.277 -31.5063 261.634 -29.522C277.447 -27.4788 291.28 -22.4861 297.61 -11.6034C298.708 -9.61779 298.598 -6.66483 297.609 -2.92516C296.633 0.767658 294.879 4.95484 293.038 9.23493C292.882 9.59794 292.725 9.96162 292.568 10.3257C290.888 14.2217 289.192 18.1574 288.07 21.7248C286.859 25.5759 286.228 29.254 287.234 32.0831L287.235 32.0874C289.535 38.4625 292.167 44.5218 294.74 50.4456C296.04 53.4375 297.325 56.395 298.544 59.3411C302.193 68.1587 305.3 76.9673 306.667 86.6286L306.668 86.6347C308.615 99.8081 317.855 110.713 327.459 121.22C328.336 122.179 329.215 123.135 330.094 124.089C338.927 133.688 347.603 143.115 351.503 154.005L351.506 154.012C352.197 155.9 351.709 158.244 350.231 161.043C348.767 163.816 346.445 166.826 343.827 169.939C342.736 171.236 341.583 172.564 340.428 173.894C338.853 175.707 337.275 177.524 335.847 179.273C333.363 182.316 331.186 185.323 330.029 188.093C328.896 190.552 328.649 192.786 329.624 194.865L329.635 194.889L329.647 194.912C338.786 212.075 334.927 230.755 325.001 246.264C321.961 250.994 318.02 255.862 310.934 259.768C310.831 259.805 310.748 259.847 310.698 259.873C310.61 259.919 310.523 259.971 310.463 260.008L310.454 260.013C310.395 260.048 310.357 260.071 310.328 260.087L310.265 260.1L310.142 260.164C300.468 265.224 288.283 266.805 277.112 265.93C265.909 265.052 255.945 261.724 250.637 257.191C245.275 252.613 242.536 247.234 240.115 241.609C239.736 240.725 239.363 239.833 238.988 238.936C236.993 234.166 234.941 229.257 231.463 224.808C229.361 222.016 226.921 219.518 224.347 217.276L224.345 217.274C217.262 211.144 208.492 206.676 199.471 202.991C193.612 200.597 187.583 198.511 181.825 196.518C178.742 195.45 175.736 194.41 172.875 193.364Z" fill="url(#paint5_linear_95_5314)" fill-opacity="0.3" stroke="white" stroke-width="2" stroke-miterlimit="10"/>
<path d="M256.467 276.556L256.472 276.561C262.665 281.855 274.309 285.681 287.387 286.675C300.431 287.666 314.68 285.821 326 280.002L326.12 279.94L326.254 279.912C326.264 279.91 326.269 279.914 326.402 279.834L326.418 279.824C326.532 279.756 326.729 279.637 327.001 279.557C335.327 274.978 339.896 269.356 343.567 263.863C355.146 245.911 359.78 224.556 349.222 204.755C347.932 202.424 348.567 199.634 349.809 197.023C351.283 193.876 353.956 190.441 357.002 186.949C358.76 184.933 360.69 182.847 362.616 180.765C364.016 179.251 365.414 177.74 366.742 176.26C369.938 172.699 372.791 169.255 374.624 166.096C376.477 162.902 377.146 160.241 376.404 158.13C373.869 151.316 369.58 144.986 364.459 138.836C360.355 133.909 355.752 129.137 351.122 124.337C349.965 123.138 348.806 121.936 347.652 120.73C336.188 108.741 325.248 96.2786 323.243 81.0974L323.242 81.0948C321.764 69.6785 318.091 59.3115 313.789 49.0002C312.414 45.705 310.971 42.4063 309.515 39.0795C306.432 32.0361 303.295 24.8665 300.637 17.337M256.467 276.556L301.584 17.0288M256.467 276.556C250.245 271.314 247.054 265.085 244.217 258.545C243.777 257.529 243.344 256.504 242.909 255.473C240.561 249.907 238.143 244.177 234.052 238.957M256.467 276.556L233.258 239.546M300.637 17.337C300.637 17.3362 300.636 17.3353 300.636 17.3344L301.584 17.0288M300.637 17.337C300.637 17.3372 300.637 17.3374 300.637 17.3376L301.584 17.0288M300.637 17.337C299.484 14.1041 300.284 9.84516 301.79 5.34206C303.169 1.22112 305.224 -3.33209 307.265 -7.85467C307.482 -8.33447 307.698 -8.81392 307.914 -9.29247C310.174 -14.3146 312.328 -19.2391 313.528 -23.573C314.743 -27.9635 314.889 -31.4482 313.519 -33.7808L313.516 -33.7872C306.145 -46.5495 289.692 -52.2211 270.993 -54.4411C253.615 -56.5042 234.657 -55.5473 220.103 -54.8127C219.056 -54.7598 218.033 -54.7081 217.034 -54.6588M301.584 17.0288C299.625 11.5361 303.88 2.10759 308.187 -7.43587C312.926 -17.9348 317.727 -28.5728 314.386 -34.2628C299.622 -59.8244 250.173 -57.3273 220.039 -55.8056C218.988 -55.7525 217.96 -55.7006 216.958 -55.6511M217.034 -54.6588C217.034 -54.6588 217.034 -54.6588 217.034 -54.6588L216.958 -55.6511M217.034 -54.6588L216.958 -55.6511M217.034 -54.6588C204.979 -54.0622 192.79 -51.3634 181.127 -47.9314M216.958 -55.6511C204.79 -55.0489 192.514 -52.3265 180.811 -48.8822M180.811 -48.8822L181.134 -47.9334C181.131 -47.9327 181.129 -47.9321 181.127 -47.9314M180.811 -48.8822C148.828 -38.9796 122.434 -14.6963 132.319 21.4626M180.811 -48.8822L181.12 -47.9294C181.122 -47.9301 181.125 -47.9307 181.127 -47.9314M181.127 -47.9314C165.266 -43.0195 150.867 -34.5628 141.662 -22.9316C132.484 -11.3328 128.433 3.46175 133.289 21.2254M132.319 21.4626L133.288 21.2215C133.288 21.2228 133.288 21.2241 133.289 21.2254M132.319 21.4626C137.357 39.5223 141.453 54.4184 137.565 69.6898M132.319 21.4626L133.289 21.2266C133.289 21.2262 133.289 21.2258 133.289 21.2254M133.289 21.2254C138.312 39.2289 142.503 54.3875 138.541 69.9531M137.565 69.6898L138.541 69.9531M137.565 69.6898C135.892 76.326 132.823 83.0379 127.975 89.9044M137.565 69.6898L138.541 69.9552C138.541 69.9545 138.541 69.9538 138.541 69.9531M138.541 69.9531C136.836 76.7137 133.715 83.5312 128.807 90.4832M127.975 89.9044L128.81 90.4797C128.809 90.4808 128.808 90.482 128.807 90.4832M127.975 89.9044L128.805 90.4868C128.805 90.4856 128.806 90.4844 128.807 90.4832M127.975 89.9044L224.99 230.958M128.807 90.4832C124.784 96.2919 120.229 101.777 115.735 107.189C114.807 108.306 113.882 109.42 112.964 110.534C107.587 117.059 102.465 123.567 98.5262 130.594C93.1626 140.245 89.395 151.409 93.6272 162.027C98.3479 173.844 110.72 182.113 124.901 188.417C134.618 192.736 144.991 196.058 154.1 198.975C158.28 200.313 162.193 201.566 165.656 202.792C168.437 203.761 171.325 204.732 174.277 205.725C181.536 208.166 189.191 210.739 196.641 213.757C207.134 218.008 217.328 223.18 225.63 230.208M225.63 230.208C225.631 230.209 225.632 230.21 225.633 230.211L224.99 230.958M225.63 230.208C225.63 230.208 225.63 230.208 225.629 230.208L224.99 230.958M225.63 230.208C228.692 232.778 231.661 235.801 234.052 238.957M224.99 230.958C228.004 233.488 230.92 236.458 233.258 239.546M234.052 238.957C234.05 238.955 234.048 238.952 234.046 238.95L233.258 239.546M234.052 238.957C234.054 238.959 234.055 238.962 234.057 238.964L233.258 239.546" fill="url(#paint6_linear_95_5314)" fill-opacity="0.3" stroke="white" stroke-width="2" stroke-miterlimit="10"/>
<path d="M76.5565 165.518L76.5526 165.509C71.8018 153.537 76.338 140.539 82.6242 129.646C87.2668 121.735 93.1648 114.436 99.2897 107.099C100.03 106.213 100.773 105.325 101.518 104.437C106.924 97.9862 112.403 91.4475 117.185 84.4397C122.667 76.5412 126.228 69.0073 128.133 61.3596C132.684 43.992 128.069 27.0266 122.483 6.61948L122.48 6.6112C116.705 -13.7946 121.357 -30.7561 131.91 -44.0267C142.491 -57.3327 159.043 -66.9659 177.078 -72.5321L177.082 -72.5334C190.569 -76.7567 204.489 -79.81 218.369 -80.3619L218.372 -80.362C220.406 -80.4497 222.534 -80.5494 224.742 -80.6528C240.903 -81.4095 261.321 -82.3657 280.171 -80.2744C301.668 -77.8894 320.685 -71.5834 329.196 -56.9594L329.198 -56.9555C330.725 -54.3575 330.474 -50.3906 328.985 -45.3732C327.516 -40.423 324.946 -34.7682 322.265 -29.0027C322.053 -28.5461 321.84 -28.0887 321.627 -27.6311C319.163 -22.3427 316.679 -17.011 315.016 -12.2006C314.11 -9.58329 313.435 -7.08516 313.139 -4.80199C312.845 -2.52583 312.92 -0.398061 313.577 1.44237C316.649 10.1371 320.301 18.3768 323.887 26.4669C325.56 30.2427 327.22 33.9859 328.798 37.7275C333.777 49.5261 338.005 61.4025 339.593 74.5751L339.594 74.5804C341.757 91.7398 354.377 105.705 367.671 119.155C369.037 120.536 370.41 121.913 371.781 123.287C377.124 128.643 382.441 133.971 387.185 139.484C393.14 146.403 398.134 153.547 401.082 161.271C401.988 163.693 401.189 166.712 398.99 170.308C396.815 173.865 393.427 177.734 389.638 181.733C388.102 183.354 386.491 185.004 384.878 186.658C382.553 189.041 380.221 191.431 378.095 193.75C374.493 197.679 371.341 201.548 369.606 205.114C367.985 208.078 367.445 211.031 368.79 213.725L368.796 213.736L368.802 213.748C380.841 236.397 375.279 260.676 362.189 280.834C358.063 287.073 352.698 293.711 343.204 298.735L343.117 298.782L343.041 298.844C342.97 298.902 342.889 298.947 342.697 299.042L342.676 299.052C342.524 299.127 342.298 299.239 342.071 299.409C329.145 306.052 312.883 308.199 298.005 307.119C283.06 306.033 269.736 301.71 262.66 295.654L262.654 295.649L262.649 295.645C255.448 289.66 251.794 282.531 248.566 275.075C248.065 273.918 247.573 272.75 247.08 271.577C244.409 265.233 241.67 258.725 236.986 252.822C234.083 249.162 230.83 245.777 227.272 242.872C217.748 234.941 206.091 229.126 194.11 224.34C185.881 221.054 177.444 218.233 169.421 215.551C165.776 214.332 162.216 213.142 158.8 211.95C154.713 210.509 150.066 209.045 145.097 207.479C134.801 204.235 123.125 200.557 112.187 195.753C95.9713 188.632 81.8215 179.209 76.5565 165.518Z" fill="url(#paint7_linear_95_5314)" fill-opacity="0.3" stroke="white" stroke-width="2" stroke-miterlimit="10"/>
<path d="M240.068 266.454C236.858 262.408 233.166 258.905 229.117 255.506L229.108 255.5C218.359 246.661 205.186 240.21 191.671 234.923C182.433 231.31 172.978 228.221 164.008 225.291C159.873 223.94 155.84 222.622 151.98 221.303C147.598 219.793 142.63 218.249 137.314 216.597C125.572 212.948 112.136 208.773 99.5845 203.272C81.3474 195.279 65.4015 184.65 59.5188 169.2C54.3336 155.418 59.5106 140.81 66.9001 128.655L66.9035 128.649C72.1543 119.875 78.7338 111.803 85.5677 103.717C86.5289 102.579 87.4953 101.442 88.4637 100.301C94.3638 93.3547 100.335 86.3243 105.631 78.8105C111.947 70.1005 115.899 61.642 118.048 53.3179L118.049 53.3138C122.947 33.9892 118.06 14.9919 111.758 -7.60112L111.758 -7.60366C105.252 -30.695 110.565 -49.7869 122.505 -64.6807C134.474 -79.6107 153.139 -90.3604 173.348 -96.5817L173.354 -96.5836C188.527 -101.362 204.185 -104.771 219.852 -105.477C222.396 -105.59 225.075 -105.721 227.866 -105.858C245.938 -106.744 268.679 -107.859 289.707 -105.644C314.055 -103.079 335.648 -96.09 345.204 -79.5869C346.053 -78.1186 346.406 -76.2562 346.313 -74.0137C346.219 -71.7716 345.682 -69.2144 344.819 -66.4164C343.089 -60.8143 340.106 -54.4176 337.005 -47.9097C336.769 -47.4144 336.532 -46.9185 336.296 -46.4223C333.436 -40.4306 330.558 -34.3985 328.624 -28.9659C327.576 -26.0209 326.792 -23.2165 326.442 -20.6598C326.093 -18.1103 326.165 -15.7392 326.895 -13.699C330.286 -4.1553 334.328 4.93302 338.31 13.8864C340.258 18.2683 342.193 22.6179 344.029 26.9728C349.637 40.2689 354.384 53.7172 356.084 68.6503L356.084 68.6517C358.282 87.7099 372.534 103.189 387.659 118.1C389.31 119.727 390.971 121.348 392.63 122.966C398.617 128.806 404.579 134.621 409.917 140.635C416.728 148.307 422.458 156.233 425.856 164.81L425.856 164.811C426.899 167.44 425.974 170.76 423.434 174.741C420.925 178.673 417.02 182.972 412.653 187.417C410.856 189.247 408.973 191.109 407.085 192.975C404.429 195.602 401.765 198.236 399.327 200.793C395.147 205.177 391.485 209.482 389.435 213.428L389.43 213.438C387.769 216.727 386.793 220.029 388.437 222.955C401.945 248.448 395.645 275.602 380.865 297.991C376.105 304.996 370.107 312.396 359.355 318.099L359.267 318.145L359.192 318.208C359.121 318.265 359.04 318.31 358.848 318.405L358.827 318.415C358.676 318.49 358.451 318.601 358.224 318.77C343.56 326.191 325.273 328.542 308.564 327.311C291.793 326.075 276.828 321.247 268.787 314.539C260.795 307.772 256.724 299.729 253.103 291.353C252.572 290.126 252.051 288.891 251.528 287.65C248.495 280.459 245.393 273.106 240.068 266.454ZM240.068 266.454C240.067 266.453 240.067 266.453 240.066 266.452L239.284 267.056L240.069 266.455C240.069 266.455 240.068 266.455 240.068 266.454Z" fill="url(#paint8_linear_95_5314)" fill-opacity="0.3" stroke="white" stroke-width="2" stroke-miterlimit="10"/>
<path d="M50.9903 127.694L50.9889 127.696C42.6759 141.094 36.7265 157.538 42.4306 172.676L42.4324 172.681C48.8586 190.011 66.5993 201.846 86.8546 210.687C100.802 216.774 115.738 221.364 128.743 225.36C134.621 227.167 140.104 228.852 144.924 230.499L144.925 230.499C149.409 232.036 154.105 233.567 158.924 235.138C168.666 238.314 178.914 241.655 188.938 245.544C203.943 251.366 218.581 258.462 230.553 268.205L230.556 268.208C235.111 271.948 239.124 276.009 242.79 280.344L242.798 280.353L242.805 280.363C248.719 287.695 252.141 295.821 255.495 303.789C256.078 305.173 256.658 306.551 257.249 307.92C261.263 317.214 265.798 326.158 274.772 333.67C283.697 341.141 300.343 346.466 318.959 347.798C337.511 349.126 357.8 346.47 373.988 338.212C374.245 338.025 374.535 337.9 374.714 337.823L374.75 337.807C375.013 337.693 375.103 337.646 375.145 337.611L375.221 337.548L375.308 337.502C387.323 331.119 394.143 322.914 399.334 315.201C415.771 290.367 422.806 260.328 407.913 232.387C406.238 229.28 407.085 225.603 409.124 221.964C411.491 217.643 415.648 212.926 420.385 208.114C423.122 205.334 426.103 202.473 429.079 199.619C431.242 197.543 433.401 195.471 435.461 193.436C440.396 188.559 444.814 183.839 447.664 179.521C450.549 175.15 451.629 171.486 450.473 168.578C446.661 159.091 440.225 150.354 432.582 141.914C426.601 135.309 419.922 128.93 413.22 122.529C411.349 120.742 409.476 118.953 407.616 117.157C390.66 100.784 374.732 83.8042 372.377 62.7732L372.377 62.7705C370.543 45.9777 365.24 31.0177 358.962 16.2592C356.923 11.4673 354.777 6.6855 352.613 1.86693C348.133 -8.11196 343.583 -18.2485 339.777 -28.9577M50.9903 127.694L340.724 -29.2671M50.9903 127.694C56.9452 118.036 64.301 109.174 71.8452 100.337C72.6761 99.3634 73.5094 98.3903 74.3433 97.4165C81.0648 89.5672 87.8268 81.6707 93.7036 73.2449M50.9903 127.694L50.1281 127.161C56.787 116.362 65.1745 106.567 73.5682 96.7641C80.2952 88.9083 87.0261 81.0478 92.8748 72.6617M339.777 -28.9577C339.777 -28.9583 339.776 -28.9589 339.776 -28.9595L340.724 -29.2671M339.777 -28.9577C339.777 -28.9574 339.777 -28.9571 339.777 -28.9567L340.724 -29.2671M339.777 -28.9577C338.974 -31.1969 338.904 -33.8105 339.307 -36.633C339.712 -39.4629 340.603 -42.5732 341.792 -45.8455C343.979 -51.8626 347.222 -58.5492 350.448 -65.2016C350.727 -65.7767 351.005 -66.3516 351.283 -66.9258C354.792 -74.1734 358.17 -81.3073 360.133 -87.5541C361.113 -90.6746 361.726 -93.5306 361.837 -96.0367C361.947 -98.5436 361.552 -100.634 360.587 -102.286L360.584 -102.291C349.982 -120.674 325.825 -128.296 298.661 -130.995C275.717 -133.275 250.966 -132.016 231.152 -131.008C227.576 -130.826 224.16 -130.652 220.945 -130.508M340.724 -29.2671C337.928 -37.0605 344.62 -50.8616 351.361 -64.7635C358.657 -79.8087 366.009 -94.972 361.455 -102.766C341.355 -137.614 274.25 -134.198 231.057 -131.999C227.485 -131.817 224.077 -131.644 220.872 -131.501M220.945 -130.508C220.946 -130.509 220.947 -130.509 220.948 -130.509L220.872 -131.501M220.945 -130.508C220.945 -130.508 220.944 -130.508 220.943 -130.508L220.872 -131.501M220.945 -130.508C203.493 -129.648 186.095 -125.882 169.182 -120.747M220.872 -131.501C203.309 -130.635 185.826 -126.847 168.863 -121.697M168.863 -121.697L169.183 -120.747C169.183 -120.747 169.183 -120.747 169.182 -120.747M168.863 -121.697C123.661 -107.829 84.9791 -73.8898 99.6802 -21.493C106.749 3.50385 111.776 24.0917 106.362 44.9272M168.863 -121.697L169.181 -120.747C169.181 -120.747 169.182 -120.747 169.182 -120.747M169.182 -120.747C146.704 -113.851 125.927 -101.985 112.601 -85.4133C99.3055 -68.8783 93.3876 -47.6158 100.648 -21.7365C107.71 3.23376 112.825 24.0713 107.336 45.1973M107.336 45.1973C107.337 45.1959 107.337 45.1944 107.337 45.193L106.362 44.9272M107.336 45.1973L106.362 44.9272M107.336 45.1973C104.988 54.4083 100.596 63.5847 93.7036 73.2449M106.362 44.9272C104.048 54.0054 99.7135 63.0773 92.8748 72.6617M92.8748 72.6617L93.7074 73.2395C93.7061 73.2413 93.7048 73.2431 93.7036 73.2449M92.8748 72.6617L93.7014 73.248C93.7022 73.2469 93.7029 73.2459 93.7036 73.2449" fill="url(#paint9_linear_95_5314)" fill-opacity="0.3" stroke="white" stroke-width="2" stroke-miterlimit="10"/>
<path d="M35.0781 126.735L35.0743 126.741C25.6558 141.405 19.0663 159.455 25.201 176.402C32.1473 195.509 51.7286 208.541 74.0636 218.27C89.2753 224.897 105.555 229.912 119.741 234.282C126.38 236.327 132.56 238.231 137.957 240.092M35.0781 126.735L137.653 241.031M35.0781 126.735C41.7359 116.197 49.8781 106.596 58.2046 96.9937C58.9149 96.1745 59.6266 95.3553 60.3388 94.5355C67.9601 85.7629 75.6399 76.923 82.3052 67.3624C89.7801 56.7438 94.5599 46.6513 97.1529 36.7664C103.428 13.794 97.8857 -8.85334 90.0676 -36.1899L90.0673 -36.1908C81.9096 -64.6127 88.4399 -87.9936 103.117 -106.177C117.825 -124.398 140.753 -137.439 165.402 -144.989L165.403 -144.989C183.817 -150.642 202.9 -154.961 222.368 -155.815L222.369 -155.815M35.0781 126.735L222.369 -155.815M137.957 240.092C137.959 240.093 137.961 240.094 137.963 240.094L137.653 241.031M137.957 240.092C137.957 240.092 137.957 240.092 137.956 240.092L137.653 241.031M137.957 240.092C142.804 241.728 147.884 243.357 153.101 245.03C163.867 248.483 175.221 252.125 186.334 256.398C202.851 262.749 218.966 270.541 232.089 281.309M137.653 241.031C142.53 242.677 147.626 244.311 152.852 245.987C179.578 254.559 209.718 264.225 231.464 282.071M232.089 281.309C232.088 281.308 232.088 281.308 232.088 281.308L231.464 282.071M232.089 281.309C232.091 281.31 232.092 281.311 232.094 281.313L231.464 282.071M232.089 281.309L231.464 282.071M222.369 -155.815C226.077 -155.981 230.033 -156.187 234.186 -156.402C255.829 -157.525 282.824 -158.925 307.898 -156.508C322.834 -155.068 337.025 -152.277 348.953 -147.297C360.875 -142.32 370.478 -135.181 376.345 -125.068C377.405 -123.228 377.822 -120.904 377.676 -118.129C377.531 -115.353 376.826 -112.194 375.715 -108.747C373.492 -101.849 369.7 -93.9737 365.772 -85.9838C365.47 -85.37 365.168 -84.7555 364.865 -84.1407C361.243 -76.7861 357.606 -69.4003 355.15 -62.7624C353.818 -59.1623 352.819 -55.7459 352.359 -52.6429C351.902 -49.5483 351.97 -46.6936 352.844 -44.2567L222.369 -155.815ZM245.45 294.721C245.447 294.718 245.444 294.714 245.442 294.711L244.664 295.32L245.458 294.732C245.455 294.728 245.453 294.725 245.45 294.721ZM389.935 358.224C389.925 358.231 389.914 358.237 389.903 358.243L390.441 359.096L389.964 358.21C389.955 358.215 389.945 358.22 389.935 358.224ZM417.744 333.047L418.589 333.607L417.746 333.045C417.745 333.046 417.745 333.047 417.744 333.047ZM428.843 230.715L429.725 231.214L428.845 230.712C428.844 230.713 428.844 230.714 428.843 230.715Z" fill="url(#paint10_linear_95_5314)" fill-opacity="0.3" stroke="white" stroke-width="2" stroke-miterlimit="10"/>
<path d="M19.1639 125.775L19.1659 125.772C26.5275 114.353 35.446 103.961 44.5766 93.5914C45.5107 92.5306 46.447 91.4699 47.3841 90.4084C55.5934 81.1091 63.8601 71.7448 71.1396 61.6472L71.1427 61.6428C79.2495 50.264 84.4706 39.4473 87.2623 28.6739C93.8347 3.5455 87.921 -20.6994 79.5379 -50.4443L79.5369 -50.4476C70.6241 -81.6573 77.8057 -107.22 93.8644 -127.051C109.954 -146.921 134.996 -161.078 161.819 -169.283L161.822 -169.284C181.915 -175.489 202.785 -179.965 224.044 -180.975C228.234 -181.166 232.719 -181.404 237.435 -181.655C261.001 -182.91 290.352 -184.472 317.627 -181.922C333.987 -180.392 349.536 -177.386 362.597 -171.978C375.651 -166.573 386.16 -158.794 392.55 -147.741C393.706 -145.712 394.147 -143.154 393.971 -140.109C393.795 -137.065 393.005 -133.604 391.772 -129.834C389.302 -122.287 385.115 -113.674 380.779 -104.944C380.432 -104.244 380.083 -103.544 379.735 -102.843C375.75 -94.8346 371.754 -86.8021 369.035 -79.584C367.556 -75.6556 366.441 -71.9324 365.914 -68.5548C365.388 -65.1848 365.436 -62.0858 366.357 -59.447L366.359 -59.4404C370.901 -46.7092 376.357 -34.6478 381.738 -22.7522C384.392 -16.8863 387.027 -11.0607 389.526 -5.21504C397.11 12.5304 403.49 30.5751 405.544 50.8895L405.544 50.8907C408.091 75.7855 427.319 95.7764 447.939 115.073C450.29 117.273 452.66 119.465 455.029 121.655C463.093 129.113 471.138 136.552 478.357 144.257C487.689 154.217 495.568 164.549 500.245 175.8C501.67 179.256 500.282 183.615 496.688 188.79C493.135 193.904 487.648 199.501 481.533 205.276C478.955 207.711 476.256 210.187 473.554 212.665C469.892 216.022 466.226 219.384 462.853 222.654C456.98 228.346 451.834 233.906 448.881 238.972C446.215 243.359 445.091 247.731 447.115 251.424C464.959 285.061 456.254 320.902 436.613 350.173C430.37 359.342 422.314 369.04 407.857 376.768C407.174 376.939 406.573 377.3 406.114 377.576L406.088 377.592C386.631 387.482 362.198 390.673 339.882 389.112C317.52 387.547 297.51 381.228 286.837 372.331L286.836 372.33C275.993 363.309 270.542 352.61 265.727 341.512C265.017 339.877 264.321 338.231 263.623 336.58C259.598 327.065 255.5 317.376 248.383 308.589C244.026 303.099 239.042 298.391 233.745 293.986L233.739 293.981L233.733 293.976C219.291 282.323 201.662 273.896 183.629 267.013C171.738 262.475 159.61 258.588 148.088 254.895C142.161 252.995 136.395 251.147 130.903 249.288C125.207 247.353 118.704 245.367 111.718 243.234C96.0916 238.463 78.0494 232.954 61.221 225.629C36.8621 215.027 15.4817 200.788 7.91911 179.916L7.91874 179.915C1.26573 161.615 8.81649 141.69 19.1639 125.775Z" fill="url(#paint11_linear_95_5314)" fill-opacity="0.3" stroke="white" stroke-width="2" stroke-miterlimit="10"/>
<path d="M3.26147 124.815L3.26193 124.814C11.3282 112.513 20.975 101.341 30.804 90.1701C31.5503 89.3221 32.2975 88.474 33.0453 87.6255C42.133 77.3121 51.2836 66.9275 59.3176 55.6441L59.3204 55.6401C68.0119 43.2992 73.4726 31.8067 76.6532 20.125L76.6546 20.1195C83.8167 -6.80981 77.6742 -32.8962 68.5324 -65.0146L68.5309 -65.0199C58.697 -98.8734 66.4922 -126.554 83.9373 -148.008C101.414 -169.5 128.618 -184.783 157.613 -193.643L157.616 -193.644C179.597 -200.446 202.152 -205.475 225.232 -206.439L225.233 -206.439C230.296 -206.651 235.761 -206.934 241.534 -207.233C266.72 -208.536 297.743 -210.141 326.648 -207.517C344.404 -205.905 361.295 -202.701 375.491 -196.881C389.68 -191.064 401.118 -182.66 408.079 -170.673C409.345 -168.487 409.825 -165.72 409.628 -162.423C409.432 -159.128 408.563 -155.376 407.212 -151.288C404.506 -143.105 399.925 -133.748 395.185 -124.266C394.81 -123.518 394.435 -122.769 394.06 -122.019C389.697 -113.306 385.321 -104.568 382.342 -96.7226C380.724 -92.4591 379.503 -88.4231 378.924 -84.7675C378.345 -81.12 378.392 -77.7766 379.385 -74.9404L379.386 -74.9385C384.299 -60.9894 390.274 -47.7776 396.174 -34.7319C398.986 -28.5148 401.78 -22.3354 404.435 -16.1319C412.678 3.13295 419.626 22.74 421.79 44.8149C424.397 71.7002 445.298 93.1909 467.773 113.944C470.356 116.329 472.96 118.704 475.563 121.078C484.334 129.079 493.088 137.064 500.945 145.341C511.125 156.066 519.723 167.209 524.815 179.369C526.341 183.055 524.791 187.734 520.848 193.291C516.951 198.782 510.95 204.807 504.27 211.027C501.448 213.653 498.495 216.324 495.539 218.998C491.542 222.612 487.54 226.232 483.851 229.754C477.42 235.894 471.779 241.883 468.512 247.328L468.507 247.336L468.502 247.345C465.755 252.144 464.432 256.552 466.537 260.646L466.543 260.657C485.865 297.141 476.187 335.706 455.081 367.383C448.259 377.505 439.381 388.004 423.855 396.371C423.173 396.543 422.572 396.903 422.113 397.179L422.09 397.193C400.893 407.861 374.447 411.306 350.31 409.619C326.126 407.928 304.478 401.104 292.821 391.459C281.117 381.776 275.202 370.175 269.965 358.138C269.2 356.381 268.45 354.613 267.697 352.839C263.309 342.503 258.845 331.986 251.124 322.499L251.116 322.49C246.29 316.692 241.026 311.626 235.236 306.889L235.234 306.887C219.64 294.207 200.533 285.083 180.985 277.67C168.001 272.746 154.761 268.556 142.212 264.584C135.891 262.584 129.745 260.639 123.895 258.684C117.765 256.613 110.751 254.487 103.208 252.201C86.3175 247.082 66.7718 241.158 48.5443 233.246C22.169 221.797 -1.007 206.351 -9.11349 183.599L-9.11536 183.594C-16.3834 163.533 -8.00836 141.969 3.26147 124.815ZM2.41397 124.259C-8.89808 141.478 -17.495 163.388 -10.061 183.908L2.41397 124.259Z" fill="url(#paint12_linear_95_5314)" fill-opacity="0.3" stroke="white" stroke-width="2" stroke-miterlimit="10"/>
<path d="M-12.6463 123.858L-12.6439 123.855C-3.87335 110.672 6.54915 98.7104 17.1198 86.7033C17.5522 86.2122 17.9849 85.7209 18.4177 85.2296C28.5502 73.7249 38.7606 62.1321 47.6377 49.4027C57.1598 36.2535 62.9606 23.6399 66.3834 11.289L66.3851 11.2827C74.1375 -17.4506 67.5705 -45.3435 57.6718 -79.8289L57.6712 -79.8309C47.1298 -116.27 55.5865 -146.083 74.4143 -169.185C93.2739 -192.327 122.579 -208.775 153.745 -218.289C177.466 -225.448 201.759 -230.833 226.625 -231.951L226.627 -231.951C231.908 -232.195 237.601 -232.511 243.611 -232.844C270.858 -234.356 304.615 -236.228 336.05 -233.459C355.227 -231.77 373.474 -228.357 388.802 -222.112C404.123 -215.87 416.467 -206.825 423.953 -193.898C425.313 -191.523 425.815 -188.521 425.583 -184.956C425.351 -181.391 424.391 -177.336 422.908 -172.922C419.942 -164.088 414.947 -153.99 409.787 -143.765C409.389 -142.977 408.99 -142.188 408.592 -141.399C403.832 -131.984 399.061 -122.546 395.813 -114.079C394.052 -109.488 392.724 -105.146 392.089 -101.217C391.457 -97.2966 391.503 -93.712 392.567 -90.6784L392.568 -90.6766C397.866 -75.6678 404.322 -61.4871 410.698 -47.4798C413.737 -40.8043 416.758 -34.1681 419.627 -27.5004C428.536 -6.79731 436.04 14.3228 438.338 38.2595C441.101 67.1123 463.635 90.1617 487.925 112.408C490.788 115.029 493.675 117.64 496.561 120.249C505.97 128.756 515.361 137.246 523.801 146.04C534.823 157.524 544.147 169.451 549.69 182.465C551.388 186.476 549.695 191.535 545.41 197.506C541.173 203.412 534.64 209.88 527.369 216.549C524.272 219.39 521.029 222.278 517.785 225.167C513.463 229.015 509.139 232.866 505.151 236.613C498.156 243.186 492.029 249.59 488.493 255.405C485.379 260.528 484.176 265.32 486.313 269.599L486.319 269.61L486.325 269.622C507.028 308.553 496.658 350.198 473.855 384.113L473.854 384.115C466.432 395.22 456.899 406.503 440.003 415.358L439.978 415.371L439.954 415.385C439.711 415.531 439.418 415.689 439.099 415.861L439.083 415.87C438.79 416.027 438.475 416.197 438.199 416.362C415.384 427.886 386.877 431.595 360.866 429.791C334.81 427.985 311.479 420.664 298.959 410.355L298.958 410.354C286.273 399.927 279.894 387.424 274.265 374.47C273.439 372.571 272.629 370.659 271.817 368.742C267.108 357.63 262.325 346.342 254.017 336.175L254.011 336.169C248.898 330.009 243.105 324.419 236.832 319.357L236.827 319.353C219.939 305.89 199.331 296.183 178.278 288.265C164.572 283.11 150.614 278.694 137.355 274.498C130.271 272.256 123.386 270.078 116.846 267.884L116.845 267.883C110.417 265.738 103.083 263.53 95.1971 261.156C76.8678 255.638 55.5552 249.221 35.7063 240.609C7.30779 228.288 -17.667 211.636 -26.3899 187.12C-33.992 165.652 -25.0248 142.283 -12.6463 123.858Z" fill="url(#paint13_linear_95_5314)" fill-opacity="0.3" stroke="white" stroke-width="2" stroke-miterlimit="10"/>
<path d="M-28.5538 122.889L-28.5548 122.891C-41.8564 142.556 -51.6486 167.563 -43.4314 190.793L-43.4306 190.796C-34.1643 217.194 -7.39259 235.053 23.0475 248.217C44.4189 257.459 67.3887 264.307 87.0961 270.182C95.4486 272.672 103.215 274.987 110.026 277.236L110.027 277.237C116.853 279.503 124.03 281.755 131.415 284.072C145.758 288.572 160.885 293.319 175.752 298.894C198.297 307.347 220.381 317.751 238.515 332.219C245.277 337.609 251.354 343.561 256.988 350.234L256.993 350.241C266.052 361.167 271.213 373.334 276.299 385.323C277.128 387.278 277.955 389.228 278.796 391.166C284.818 405.04 291.613 418.454 305.185 429.645L305.186 429.646C318.59 440.716 343.589 448.484 371.507 450.357C399.39 452.227 429.962 448.201 454.425 435.907L454.431 435.904C454.776 435.734 455.075 435.572 455.39 435.402L455.393 435.401C455.701 435.235 456.025 435.06 456.399 434.875C474.546 425.344 484.707 413.303 492.564 401.483L492.569 401.476C517.068 365.326 528.178 320.799 505.998 279.019C503.588 274.548 505.127 269.245 508.364 263.921L508.369 263.913C512.22 257.72 518.839 250.89 526.39 243.871C530.694 239.87 535.355 235.761 540.012 231.656C543.51 228.572 547.006 225.49 550.347 222.457C558.183 215.344 565.23 208.448 569.812 202.165C574.444 195.813 576.302 190.435 574.502 186.191C568.496 172.274 558.44 159.539 546.576 147.292C537.505 137.928 527.421 128.892 517.325 119.845C514.21 117.053 511.094 114.261 508.005 111.457C481.913 87.7689 457.769 63.2609 454.873 32.5403L454.873 32.5398C452.464 6.84058 444.439 -15.8531 434.895 -38.0799C431.783 -45.3287 428.502 -52.5403 425.203 -59.7928C418.407 -74.7328 411.532 -89.8467 405.883 -105.818L405.882 -105.82C404.746 -109.051 404.704 -112.878 405.397 -117.072C406.09 -121.275 407.533 -125.925 409.445 -130.845C412.963 -139.902 418.12 -150.001 423.269 -160.083C423.711 -160.95 424.153 -161.816 424.594 -162.682C430.187 -173.651 435.601 -184.492 438.819 -193.974C440.427 -198.713 441.471 -203.068 441.725 -206.898C441.98 -210.73 441.44 -213.962 439.96 -216.522L439.96 -216.523C431.951 -230.392 418.7 -240.079 402.248 -246.75C385.79 -253.423 366.192 -257.052 345.603 -258.833C312.027 -261.738 275.994 -259.72 246.906 -258.091C240.309 -257.721 234.07 -257.372 228.297 -257.104M-28.5538 122.889L228.223 -258.097M-28.5538 122.889C-19.0807 108.828 -7.87145 96.1269 3.52025 83.4282C4.27111 82.5912 5.02285 81.7541 5.77487 80.9167C16.4189 69.0642 27.1311 57.1358 36.5674 44.0871L36.5699 44.0836C46.6738 29.9781 52.9155 16.6432 56.5381 3.40331L56.5389 3.40005C64.8324 -27.3327 57.9903 -57.2659 47.3796 -93.9249L47.3794 -93.9259C35.9873 -133.133 45.0004 -165.107 65.1609 -189.846C85.354 -214.625 116.772 -232.189 150.207 -242.377M-28.5538 122.889L149.889 -243.327M228.297 -257.104C228.297 -257.104 228.296 -257.104 228.296 -257.104L228.223 -258.097M228.297 -257.104C228.297 -257.105 228.297 -257.105 228.298 -257.105L228.223 -258.097M228.297 -257.104C201.644 -255.832 175.422 -250.051 150.207 -242.377M228.223 -258.097C201.46 -256.819 175.15 -251.016 149.889 -243.327M150.207 -242.377C150.207 -242.377 150.207 -242.377 150.208 -242.377L149.889 -243.327M150.207 -242.377L149.889 -243.327" fill="url(#paint14_linear_95_5314)" fill-opacity="0.3" stroke="white" stroke-width="2" stroke-miterlimit="10"/>
<path d="M102.774 286.475L102.777 286.476C110.286 288.978 118.2 291.459 126.348 294.014C141.422 298.74 157.299 303.718 172.898 309.543C196.955 318.527 220.505 329.575 239.766 344.969C247 350.675 253.563 356.951 259.303 364.04M102.774 286.475L258.529 364.655M102.774 286.475C95.6155 284.118 87.4523 281.687 78.6683 279.071C57.6392 272.809 33.0525 265.487 10.1794 255.586C-22.2593 241.545 -50.8293 222.479 -60.7123 194.318C-69.2612 169.684 -58.8338 143.075 -44.4646 121.93C-34.2872 106.988 -22.3026 93.4978 -10.2353 80.0021L-9.31448 78.9724C2.434 65.8354 14.2191 52.6575 24.354 38.1611C35.0853 23.3 41.7655 9.24565 45.5864 -4.87805L45.5871 -4.88076C54.2749 -37.3724 47.2048 -69.1454 35.8359 -108.176M102.774 286.475L44.6146 -5.15751C53.2253 -37.3609 46.2394 -68.8922 34.87 -107.924M259.303 364.04C259.304 364.042 259.306 364.045 259.308 364.047L258.529 364.655M259.303 364.04C259.302 364.04 259.301 364.039 259.301 364.038L258.529 364.655M259.303 364.04C268.955 375.716 274.435 388.649 279.832 401.386C280.726 403.495 281.618 405.599 282.525 407.691C288.933 422.455 296.18 436.722 310.733 448.657L310.737 448.66C325.027 460.494 351.708 468.758 381.498 470.747C411.253 472.733 443.886 468.443 469.992 455.392L469.996 455.39C470.732 455.025 471.416 454.686 471.906 454.393L471.929 454.379L471.954 454.366C491.363 444.157 502.159 431.354 510.65 418.768M258.529 364.655C268.079 376.206 273.497 388.988 278.897 401.73C286.09 418.699 293.252 435.596 310.103 449.415C339.174 473.488 417.854 482.581 470.464 456.28C471.188 455.922 471.912 455.564 472.444 455.245C492.043 444.937 502.947 431.999 511.491 419.333M510.65 418.768L511.491 419.333M510.65 418.768C536.612 380.214 548.697 332.965 525.041 288.338L525.038 288.332L525.034 288.325C522.549 283.467 524.017 277.984 527.813 272.299M510.65 418.768C510.65 418.768 510.65 418.768 510.65 418.768L511.491 419.333M511.491 419.333C537.561 380.618 549.824 332.972 525.929 287.895C523.693 283.524 524.926 278.443 528.664 272.85M471.926 26.4419C468.564 -10.2053 454.467 -41.0505 440.133 -72.4133C432.866 -88.3145 425.538 -104.349 419.517 -121.34C415.172 -133.668 426.636 -155.972 438.183 -178.437C450.663 -202.717 463.24 -227.186 456.063 -239.457C424.595 -293.742 319.472 -287.955 250.274 -284.146C242.677 -283.727 235.513 -283.333 228.927 -283.044C200.333 -281.812 172.288 -275.654 145.338 -267.41C73.8888 -245.652 10.4362 -192.359 34.87 -107.924M471.926 26.4419L470.924 26.5049C470.924 26.5054 470.924 26.5058 470.924 26.5062M471.926 26.4419C475.185 62.5114 506.649 90.4475 538.301 118.551C563.266 140.716 588.348 162.986 599.801 189.433C605.122 201.696 583.888 220.163 562.688 238.6C548.887 250.602 535.1 262.592 528.664 272.85M471.926 26.4419L470.924 26.5062M470.924 26.5062C468.405 -0.954259 459.824 -25.1607 449.609 -48.8513C446.28 -56.5715 442.771 -64.2495 439.243 -71.97C431.965 -87.895 424.604 -104.001 418.569 -121.033L418.569 -121.035C417.36 -124.463 417.32 -128.53 418.066 -132.997C418.814 -137.473 420.364 -142.428 422.417 -147.674C426.201 -157.343 431.745 -168.128 437.279 -178.895C437.747 -179.805 438.215 -180.716 438.682 -181.626C444.685 -193.322 450.499 -204.882 453.957 -214.981C455.686 -220.029 456.81 -224.667 457.086 -228.742C457.362 -232.82 456.786 -236.258 455.196 -238.976L455.194 -238.98C446.613 -253.782 432.433 -264.093 414.843 -271.175C397.247 -278.259 376.301 -282.085 354.304 -283.946C319.011 -286.932 281.188 -284.85 250.39 -283.155C242.783 -282.736 235.604 -282.341 228.997 -282.052L228.996 -282.052C200.517 -280.825 172.56 -274.689 145.658 -266.46L145.656 -266.46C110.05 -255.617 76.5175 -236.938 54.9364 -210.535C33.3885 -184.173 23.7133 -150.068 35.8359 -108.176M470.924 26.5062C473.88 59.2151 499.695 85.2222 527.643 110.367C530.962 113.353 534.311 116.327 537.66 119.3C548.464 128.893 559.258 138.477 568.968 148.416C581.681 161.428 592.457 174.975 598.878 189.804L598.878 189.804C600.839 194.322 598.842 200.027 593.87 206.75C588.952 213.401 581.382 220.7 572.962 228.234C569.428 231.398 565.734 234.61 562.034 237.828C556.969 242.233 551.895 246.647 547.206 250.953C539.087 258.409 531.969 265.68 527.813 272.299M35.8359 -108.176C35.8358 -108.176 35.8358 -108.176 35.8357 -108.176L34.87 -107.924M35.8359 -108.176C35.836 -108.175 35.8361 -108.175 35.8362 -108.174L34.87 -107.924M527.813 272.299C527.816 272.295 527.818 272.291 527.821 272.287L528.664 272.85M527.813 272.299C527.811 272.303 527.808 272.307 527.806 272.31L528.664 272.85" fill="url(#paint15_linear_95_5314)" fill-opacity="0.3" stroke="white" stroke-width="2" stroke-miterlimit="10"/>
<path d="M142.078 -290.753L141.757 -291.702L142.078 -290.753C170.667 -299.536 200.553 -306.067 231.011 -307.488C238.134 -307.799 245.9 -308.228 254.144 -308.685C286.707 -310.487 326.738 -312.703 364.129 -309.588C387.549 -307.638 409.865 -303.599 428.606 -296.089C447.342 -288.582 462.44 -277.632 471.544 -261.888L471.546 -261.886C473.224 -259.004 473.819 -255.351 473.504 -251.017C473.189 -246.686 471.971 -241.753 470.111 -236.384C466.389 -225.642 460.163 -213.335 453.743 -200.883C453.269 -199.965 452.795 -199.046 452.32 -198.126C446.376 -186.613 440.419 -175.076 436.358 -164.743C434.164 -159.16 432.507 -153.893 431.707 -149.139C430.908 -144.395 430.948 -140.083 432.228 -136.458L432.228 -136.457C438.615 -118.461 446.395 -101.421 454.093 -84.5624C457.881 -76.2659 461.649 -68.0136 465.221 -59.7129C476.072 -34.4984 485.173 -8.71815 487.803 20.5049C490.916 55.1806 518.41 82.7364 548.198 109.369C551.756 112.551 555.348 115.72 558.939 118.888C570.431 129.026 581.91 139.152 592.235 149.65C605.779 163.422 617.256 177.757 624.082 193.447L624.082 193.448C625.35 196.355 625.061 199.731 623.402 203.585C621.742 207.443 618.756 211.662 614.832 216.147C607.062 225.028 595.807 234.739 584.497 244.497L584.162 244.785C572.776 254.609 561.368 264.474 553.639 273.471C549.776 277.969 546.78 282.309 545.176 286.371C543.568 290.444 543.321 294.35 545.15 297.849L545.151 297.851C570.046 345.167 557.22 395.299 529.561 436.091L529.559 436.094C520.634 449.395 509.015 462.998 488.345 473.886L488.344 473.887C460.694 488.506 425.633 493.399 393.555 491.415C361.442 489.428 332.551 480.566 317.158 467.907C301.717 455.208 294.005 440.037 287.182 424.359C286.222 422.154 285.279 419.937 284.334 417.715C278.578 404.177 272.74 390.448 262.479 378.068C242.728 354.173 214.557 338.09 184.642 325.748C163.536 317.041 141.473 310.165 120.835 303.733C112.24 301.054 103.893 298.452 95.9637 295.827L95.9613 295.827C88.3856 293.339 79.7291 290.77 70.4039 288.002C48.0761 281.376 21.9152 273.611 -2.42043 263.102C-36.9332 248.197 -67.3479 227.933 -77.7498 197.989C-86.9143 171.593 -75.6608 143.344 -60.3681 120.959L-60.3678 120.958C-49.5838 105.157 -36.8722 90.8876 -24.0251 76.6296C-23.4387 75.9788 -22.852 75.328 -22.2652 74.6771C-10.0095 61.0824 2.29409 47.4347 13.0037 32.478L13.004 32.4776C31.6673 6.38689 39.121 -17.458 39.6973 -42.2712C40.2726 -67.0406 33.9905 -92.7162 25.3085 -122.435C12.3597 -166.993 22.6965 -203.227 45.6507 -231.243C68.6384 -259.3 104.322 -279.155 142.078 -290.753Z" fill="url(#paint16_linear_95_5314)" fill-opacity="0.3" stroke="white" stroke-width="2" stroke-miterlimit="10"/>
<defs>
<linearGradient id="paint0_linear_95_5314" x1="229.094" y1="127.703" x2="193.081" y2="136.109" gradientUnits="userSpaceOnUse">
<stop stop-color="#75CAC2"/>
<stop offset="1" stop-color="#57B6AB"/>
</linearGradient>
<linearGradient id="paint1_linear_95_5314" x1="249.587" y1="122.309" x2="176.755" y2="139.347" gradientUnits="userSpaceOnUse">
<stop stop-color="#75CAC2"/>
<stop offset="1" stop-color="#57B6AB"/>
</linearGradient>
<linearGradient id="paint2_linear_95_5314" x1="272.174" y1="116.661" x2="159.865" y2="142.955" gradientUnits="userSpaceOnUse">
<stop stop-color="#75CAC2"/>
<stop offset="1" stop-color="#57B6AB"/>
</linearGradient>
<linearGradient id="paint3_linear_95_5314" x1="294.616" y1="111.156" x2="142.784" y2="146.717" gradientUnits="userSpaceOnUse">
<stop stop-color="#75CAC2"/>
<stop offset="1" stop-color="#57B6AB"/>
</linearGradient>
<linearGradient id="paint4_linear_95_5314" x1="317.198" y1="105.301" x2="125.702" y2="150.16" gradientUnits="userSpaceOnUse">
<stop stop-color="#75CAC2"/>
<stop offset="1" stop-color="#57B6AB"/>
</linearGradient>
<linearGradient id="paint5_linear_95_5314" x1="339.84" y1="99.6821" x2="108.521" y2="153.877" gradientUnits="userSpaceOnUse">
<stop stop-color="#75CAC2"/>
<stop offset="1" stop-color="#57B6AB"/>
</linearGradient>
<linearGradient id="paint6_linear_95_5314" x1="362.53" y1="94.4086" x2="91.3546" y2="157.947" gradientUnits="userSpaceOnUse">
<stop stop-color="#75CAC2"/>
<stop offset="1" stop-color="#57B6AB"/>
</linearGradient>
<linearGradient id="paint7_linear_95_5314" x1="385.088" y1="88.4315" x2="74.2259" y2="161.272" gradientUnits="userSpaceOnUse">
<stop stop-color="#75CAC2"/>
<stop offset="1" stop-color="#57B6AB"/>
</linearGradient>
<linearGradient id="paint8_linear_95_5314" x1="407.72" y1="82.7595" x2="57.2043" y2="164.896" gradientUnits="userSpaceOnUse">
<stop stop-color="#75CAC2"/>
<stop offset="1" stop-color="#57B6AB"/>
</linearGradient>
<linearGradient id="paint9_linear_95_5314" x1="430.152" y1="77.1797" x2="40.1429" y2="168.573" gradientUnits="userSpaceOnUse">
<stop stop-color="#75CAC2"/>
<stop offset="1" stop-color="#57B6AB"/>
</linearGradient>
<linearGradient id="paint10_linear_95_5314" x1="452.62" y1="71.7261" x2="22.9627" y2="172.413" gradientUnits="userSpaceOnUse">
<stop stop-color="#75CAC2"/>
<stop offset="1" stop-color="#57B6AB"/>
</linearGradient>
<linearGradient id="paint11_linear_95_5314" x1="475.629" y1="65.973" x2="5.70347" y2="176.1" gradientUnits="userSpaceOnUse">
<stop stop-color="#75CAC2"/>
<stop offset="1" stop-color="#57B6AB"/>
</linearGradient>
<linearGradient id="paint12_linear_95_5314" x1="498.02" y1="60.2253" x2="-11.3928" y2="179.608" gradientUnits="userSpaceOnUse">
<stop stop-color="#75CAC2"/>
<stop offset="1" stop-color="#57B6AB"/>
</linearGradient>
<linearGradient id="paint13_linear_95_5314" x1="520.789" y1="54.2541" x2="-28.6742" y2="183.025" gradientUnits="userSpaceOnUse">
<stop stop-color="#75CAC2"/>
<stop offset="1" stop-color="#57B6AB"/>
</linearGradient>
<linearGradient id="paint14_linear_95_5314" x1="543.433" y1="48.7068" x2="-45.7186" y2="186.781" gradientUnits="userSpaceOnUse">
<stop stop-color="#75CAC2"/>
<stop offset="1" stop-color="#57B6AB"/>
</linearGradient>
<linearGradient id="paint15_linear_95_5314" x1="565.655" y1="43.0415" x2="-62.9682" y2="190.367" gradientUnits="userSpaceOnUse">
<stop stop-color="#75CAC2"/>
<stop offset="1" stop-color="#57B6AB"/>
</linearGradient>
<linearGradient id="paint16_linear_95_5314" x1="588.687" y1="37.3769" x2="-80.0144" y2="194.097" gradientUnits="userSpaceOnUse">
<stop stop-color="#75CAC2"/>
<stop offset="1" stop-color="#57B6AB"/>
</linearGradient>
</defs>
</svg>
