<svg width="20" height="20" viewBox="0 0 20 20" fill="none" xmlns="http://www.w3.org/2000/svg">
<path d="M20 10.2718C20 4.60121 15.5215 0 9.99781 0C4.47409 0 0 4.60121 0 10.2718C0 14.7787 2.82091 18.6026 6.74393 19.991C6.98447 19.8158 7.26 19.5956 7.26 19.2271C7.26 18.661 7.24688 17.2096 7.24688 17.2096C7.24688 17.2096 6.81391 17.286 6.19287 17.286C4.63153 17.286 4.13733 16.2705 3.90553 15.6998C3.59939 14.9584 3.2014 14.608 2.78154 14.3294C2.52351 14.1586 2.46228 13.9564 2.76405 13.898C4.14607 13.6329 4.50033 15.4976 5.42314 15.7987C6.08353 16.0099 6.92762 15.92 7.34747 15.6414C7.40433 15.0708 7.80669 14.5765 8.13908 14.3204C5.79051 14.0912 4.39974 13.2554 3.67811 11.9164L3.59939 11.7681L3.42007 11.3413L3.36759 11.1885C3.14017 10.51 3.03958 9.73264 3.03958 8.86093C3.03958 7.3197 3.51192 6.73557 4.1417 5.91328C3.66062 4.15188 4.31664 2.95215 4.31664 2.95215C4.31664 2.95215 5.33129 2.73646 7.25126 4.14289C8.29215 3.68906 11.0649 3.64862 12.3814 4.03954C13.1861 3.49584 14.66 2.72298 15.2548 2.93867C15.4166 3.20377 15.7621 3.97663 15.4647 5.67064C15.6659 6.04359 16.7155 6.83442 16.7199 9.07661C16.7024 9.90339 16.6193 10.5999 16.4618 11.1885L16.3744 11.4896C16.3744 11.4896 16.3263 11.6333 16.2694 11.7681L16.2082 11.9164C15.5128 13.4801 14.0827 14.0643 11.7778 14.3024C12.5257 14.7832 12.74 15.3853 12.74 17.0209C12.74 18.6565 12.7181 18.8722 12.7225 19.2496C12.7269 19.5821 12.9849 19.8203 13.2167 20C17.1616 18.625 20 14.7877 20 10.2718Z" fill="black"/>
</svg>
