<svg width="998" height="504" viewBox="0 0 998 504" fill="none" xmlns="http://www.w3.org/2000/svg">
<g opacity="0.5">
<path d="M1081.1 488.766C880.178 390.424 811.615 281.973 786.766 199.699C759.037 107.877 773.338 7.52014 743.404 1.28789C724.237 -2.70422 700.653 34.7701 656.683 116.918C523.344 366.023 520.325 432.175 463.516 449.345C383.935 473.414 334.876 360.18 212.549 362.62C122.704 364.417 50.0018 427.465 1.00034 483.507" stroke="url(#paint0_radial_177_427)" stroke-miterlimit="10"/>
<path d="M1085.92 478.88C890.66 382.656 818.158 277.238 791.34 200.13C761.37 113.959 775.524 18.7866 745.902 14.2854C726.858 11.3894 703.717 48.2228 661.244 127.556C532.167 368.613 528.163 435.589 471.791 451.911C391.748 474.762 344.828 353.336 221.204 351.683C218.509 351.647 215.856 351.647 213.199 351.719C125.487 354.16 51.7478 417.237 1.69816 472.935" stroke="url(#paint1_radial_177_427)" stroke-miterlimit="10"/>
<path d="M1090.73 468.994C901.142 374.896 824.759 272.691 795.901 200.567C763.736 120.174 777.689 30.0651 748.388 27.2889C729.46 25.492 706.759 61.6876 665.796 138.203C541.007 371.2 536.042 439.216 480.045 454.478C399.612 476.4 354.735 346.433 229.838 340.743C227.098 340.617 224.367 340.491 221.636 340.506C132.473 340.998 54.9012 405.378 2.38084 462.36" stroke="url(#paint2_radial_177_427)" stroke-miterlimit="10"/>
<path d="M1095.55 459.108C911.607 367.11 831.462 268.364 800.469 201.004C766.199 126.52 779.85 41.3527 750.883 40.2955C732.064 39.6067 709.83 75.1494 670.355 148.846C549.84 373.812 543.893 442.723 488.306 457.044C407.445 477.876 364.634 339.479 238.48 329.803C235.68 329.587 232.882 329.381 230.094 329.291C139.489 326.398 58.0771 393.515 3.08595 451.779" stroke="url(#paint3_radial_177_427)" stroke-miterlimit="10"/>
<path d="M1100.37 449.222C922.083 359.35 838.299 264.267 805.039 201.442C768.801 132.995 781.996 52.6523 753.375 53.3021C734.66 53.7244 712.888 88.6142 674.91 159.493C558.672 376.412 551.739 446.221 496.565 459.608C415.252 479.338 374.52 332.474 247.119 318.851C244.259 318.551 241.396 318.252 238.524 318.066C146.481 312.55 61.2302 381.647 3.75933 441.205" stroke="url(#paint4_radial_177_427)" stroke-miterlimit="10"/>
<path d="M1105.19 439.336C932.556 351.587 845.31 260.419 809.6 201.882C771.602 139.589 784.144 63.9607 755.861 66.3056C737.245 67.851 715.943 102.076 679.463 170.139C567.495 379.011 559.573 449.707 504.819 462.175C423.06 480.787 384.397 325.422 255.754 307.92C252.831 307.521 249.908 307.117 246.961 306.86C153.483 298.744 64.3749 369.793 4.44229 430.639" stroke="url(#paint5_radial_177_427)" stroke-miterlimit="10"/>
<path d="M1110 429.45C943.031 343.816 852.548 256.816 814.172 202.319C774.691 146.25 786.272 75.2841 758.358 79.3121C739.835 81.9835 719.006 115.55 684.026 180.783C576.332 381.607 567.413 453.184 513.084 464.738C430.861 482.225 394.282 318.327 264.399 296.98C261.404 296.488 258.427 295.985 255.415 295.647C160.508 284.949 67.5457 357.939 5.14234 420.064" stroke="url(#paint6_radial_177_427)" stroke-miterlimit="10"/>
<path d="M1114.82 419.564C953.507 336.047 868.948 244.666 818.74 202.756C788.33 146.133 788.405 86.6226 760.85 92.3158C742.419 96.1252 722.063 129.002 688.581 191.445C585.164 384.222 575.248 456.664 521.344 467.32C438.66 483.662 404.165 311.205 273.042 286.054C269.994 285.47 266.942 284.871 263.854 284.446C167.513 271.194 70.6875 346.086 5.82242 409.504" stroke="url(#paint7_radial_177_427)" stroke-miterlimit="10"/>
<path d="M1119.64 409.678C963.98 328.279 877.136 239.332 823.306 203.193C792.514 151.598 790.537 97.9759 763.341 105.322C745.001 110.276 725.124 142.458 693.139 202.076C594.01 386.807 583.076 460.105 529.6 469.871C446.452 485.055 414.051 304.014 281.682 275.099C278.573 274.419 275.459 273.725 272.296 273.216C174.521 257.43 73.8587 334.211 6.51089 398.915" stroke="url(#paint8_radial_177_427)" stroke-miterlimit="10"/>
<path d="M1124.46 399.792C974.456 320.51 885.327 234.004 827.877 203.631C796.7 157.061 792.669 109.341 765.833 118.326C747.585 124.432 728.182 155.923 697.697 212.72C602.827 389.415 590.902 463.546 537.86 472.432C454.238 486.445 423.946 296.803 290.322 264.153C287.154 263.381 283.973 262.593 280.739 261.997C181.529 243.693 77.0183 322.346 7.19981 388.337" stroke="url(#paint9_radial_177_427)" stroke-miterlimit="10"/>
<path d="M1129.28 389.906C984.926 312.742 893.515 228.674 832.445 204.071C800.885 162.53 794.806 120.725 768.328 131.333C750.174 138.604 731.24 169.391 702.253 223.358C611.66 391.997 598.725 466.972 546.121 474.993C462.026 487.813 433.847 289.556 298.963 253.207C295.732 252.336 292.488 251.461 289.185 250.775C188.532 229.97 80.1787 310.48 7.88944 377.756" stroke="url(#paint10_radial_177_427)" stroke-miterlimit="10"/>
<path d="M1134.1 380.017C995.408 304.976 901.697 223.343 837.009 204.52C805.066 168.007 796.944 132.126 770.823 144.351C752.767 152.797 734.301 182.865 706.814 234.025C620.494 394.617 606.551 470.413 554.378 477.577C469.803 489.194 443.757 282.314 307.603 242.288C304.309 241.321 301.015 240.353 297.628 239.593C195.531 216.299 83.3382 298.648 8.57822 367.212" stroke="url(#paint11_radial_177_427)" stroke-miterlimit="10"/>
<path d="M1138.91 370.131C1005.88 297.207 909.896 218.012 841.578 204.946C809.252 173.461 799.096 143.519 773.311 157.343C755.36 166.968 737.358 196.317 711.369 244.66C629.31 397.205 614.366 473.813 562.639 480.132C477.586 490.521 453.684 275.001 316.243 231.336C312.891 230.27 309.519 229.216 306.06 228.356C202.514 202.601 86.488 286.755 9.25729 356.619" stroke="url(#paint12_radial_177_427)" stroke-miterlimit="10"/>
<path d="M1143.72 360.245C1016.36 289.439 918.087 212.684 846.145 205.389C813.439 178.932 801.256 154.929 775.802 170.349C757.959 181.161 740.416 209.779 715.924 255.304C638.151 399.804 622.186 477.221 570.899 482.698C485.361 491.844 463.621 267.669 324.886 220.396C321.471 219.231 318.033 218.087 314.511 217.14C209.513 188.917 89.6564 274.905 9.93697 346.044" stroke="url(#paint13_radial_177_427)" stroke-miterlimit="10"/>
<path d="M1148.55 350.36C1026.83 281.67 926.275 207.353 850.712 205.823C817.622 184.395 803.421 166.342 778.294 183.362C760.568 195.362 743.473 223.247 720.494 265.956C646.995 402.41 630.017 480.608 579.171 485.268C493.15 493.153 473.582 260.356 333.538 209.459C330.064 208.198 326.56 206.967 322.969 205.931C216.506 175.258 92.828 263.051 10.6528 335.475" stroke="url(#paint14_radial_177_427)" stroke-miterlimit="10"/>
<path d="M1153.37 340.474C1037.31 273.902 934.466 202.023 855.283 206.26C821.806 189.86 805.598 177.761 780.786 196.359C763.183 209.555 746.534 236.706 725.037 276.597C655.815 405 637.825 483.98 587.416 487.828C500.913 494.432 483.531 252.986 342.166 198.528C338.632 197.168 335.062 195.85 331.385 194.727C223.472 161.598 95.9759 251.183 11.3299 324.883" stroke="url(#paint15_radial_177_427)" stroke-miterlimit="10"/>
<path d="M1158.19 330.588C1047.78 266.136 942.656 196.704 859.849 206.698C826.007 195.317 807.784 189.187 783.277 209.366C765.805 223.756 749.591 250.168 729.595 287.232C664.646 407.588 645.643 487.337 595.675 490.38C508.69 495.681 493.506 245.6 350.805 187.561C347.211 186.099 343.576 184.697 339.841 183.485C230.443 147.954 99.1255 239.323 12.0178 314.32" stroke="url(#paint16_radial_177_427)" stroke-miterlimit="10"/>
<path d="M1163 320.69C1058.26 258.355 950.847 191.352 864.419 207.126C830.179 200.78 809.979 200.597 785.775 222.358C768.435 237.931 752.652 263.617 734.156 297.875C673.481 410.181 653.466 490.695 603.938 492.947C516.468 496.936 503.494 238.224 359.445 176.638C355.795 175.075 352.09 173.59 348.287 172.287C237.406 134.321 102.294 227.467 12.7068 303.76" stroke="url(#paint17_radial_177_427)" stroke-miterlimit="10"/>
<path d="M1167.82 310.807C1068.73 250.611 960.174 223.636 868.984 207.575C834.861 201.564 812.178 212.034 788.264 235.376C771.065 252.147 755.707 277.094 738.709 308.534C682.31 412.799 661.286 494.055 612.195 495.525C524.249 498.157 513.494 230.821 368.086 165.689C364.379 164.03 360.599 162.458 356.73 161.065C244.367 120.686 105.463 215.601 13.3932 293.17" stroke="url(#paint18_radial_177_427)" stroke-miterlimit="10"/>
<path d="M1172.64 300.924C1079.2 242.824 969.29 189.133 873.551 208.006C839.015 214.816 814.388 223.451 790.756 248.377C773.704 266.346 758.768 290.55 743.267 319.174C691.139 415.392 669.112 497.385 620.455 498.083C532.036 499.352 523.509 223.403 376.73 154.743C372.959 152.982 369.114 151.335 365.173 149.847C251.237 107.287 108.614 203.739 14.0734 282.595" stroke="url(#paint19_radial_177_427)" stroke-miterlimit="10"/>
<path d="M1177.46 291.041C1089.68 235.058 976.741 179.561 878.118 208.446C843.135 218.695 816.604 234.876 793.248 261.383C776.348 280.55 761.826 304.017 747.825 329.821C699.97 417.995 676.937 500.925 628.714 500.652C539.825 500.149 533.641 215.772 385.369 143.806C381.546 141.937 377.629 140.213 373.618 138.634C258.221 93.5586 111.774 191.876 14.7709 272.018" stroke="url(#paint20_radial_177_427)" stroke-miterlimit="10"/>
<path d="M1182.28 281.158C1100.16 227.296 983.608 170.05 882.688 208.89C730.551 267.451 717.389 504.596 636.971 503.219C545.299 501.649 543.425 193.137 382.06 127.421C265.208 79.8333 114.921 180.016 15.4597 261.449" stroke="url(#paint21_radial_177_427)" stroke-miterlimit="10"/>
</g>
<defs>
<radialGradient id="paint0_radial_177_427" cx="0" cy="0" r="1" gradientUnits="userSpaceOnUse" gradientTransform="translate(541.049 244.883) rotate(90) scale(243.883 540.049)">
<stop stop-color="#5C56BE"/>
<stop offset="1" stop-color="#BEB9FF" stop-opacity="0"/>
</radialGradient>
<radialGradient id="paint1_radial_177_427" cx="0" cy="0" r="1" gradientUnits="userSpaceOnUse" gradientTransform="translate(543.811 246.503) rotate(90) scale(232.376 542.113)">
<stop stop-color="#5C56BE"/>
<stop offset="1" stop-color="#BEB9FF" stop-opacity="0"/>
</radialGradient>
<radialGradient id="paint2_radial_177_427" cx="0" cy="0" r="1" gradientUnits="userSpaceOnUse" gradientTransform="translate(546.557 248.109) rotate(90) scale(220.884 544.176)">
<stop stop-color="#5C56BE"/>
<stop offset="1" stop-color="#BEB9FF" stop-opacity="0"/>
</radialGradient>
<radialGradient id="paint3_radial_177_427" cx="0" cy="0" r="1" gradientUnits="userSpaceOnUse" gradientTransform="translate(549.319 249.731) rotate(90) scale(209.446 546.233)">
<stop stop-color="#5C56BE"/>
<stop offset="1" stop-color="#BEB9FF" stop-opacity="0"/>
</radialGradient>
<radialGradient id="paint4_radial_177_427" cx="0" cy="0" r="1" gradientUnits="userSpaceOnUse" gradientTransform="translate(552.065 257.363) rotate(90) scale(204.065 548.306)">
<stop stop-color="#5C56BE"/>
<stop offset="1" stop-color="#BEB9FF" stop-opacity="0"/>
</radialGradient>
<radialGradient id="paint5_radial_177_427" cx="0" cy="0" r="1" gradientUnits="userSpaceOnUse" gradientTransform="translate(554.816 264.986) rotate(90) scale(198.734 550.374)">
<stop stop-color="#5C56BE"/>
<stop offset="1" stop-color="#BEB9FF" stop-opacity="0"/>
</radialGradient>
<radialGradient id="paint6_radial_177_427" cx="0" cy="0" r="1" gradientUnits="userSpaceOnUse" gradientTransform="translate(557.574 272.595) rotate(90) scale(193.447 552.431)">
<stop stop-color="#5C56BE"/>
<stop offset="1" stop-color="#BEB9FF" stop-opacity="0"/>
</radialGradient>
<radialGradient id="paint7_radial_177_427" cx="0" cy="0" r="1" gradientUnits="userSpaceOnUse" gradientTransform="translate(560.323 280.173) rotate(90) scale(188.236 554.501)">
<stop stop-color="#5C56BE"/>
<stop offset="1" stop-color="#BEB9FF" stop-opacity="0"/>
</radialGradient>
<radialGradient id="paint8_radial_177_427" cx="0" cy="0" r="1" gradientUnits="userSpaceOnUse" gradientTransform="translate(563.076 287.709) rotate(90) scale(183.065 556.566)">
<stop stop-color="#5C56BE"/>
<stop offset="1" stop-color="#BEB9FF" stop-opacity="0"/>
</radialGradient>
<radialGradient id="paint9_radial_177_427" cx="0" cy="0" r="1" gradientUnits="userSpaceOnUse" gradientTransform="translate(565.83 295.199) rotate(90) scale(177.971 558.631)">
<stop stop-color="#5C56BE"/>
<stop offset="1" stop-color="#BEB9FF" stop-opacity="0"/>
</radialGradient>
<radialGradient id="paint10_radial_177_427" cx="0" cy="0" r="1" gradientUnits="userSpaceOnUse" gradientTransform="translate(568.583 302.625) rotate(90) scale(172.962 560.694)">
<stop stop-color="#5C56BE"/>
<stop offset="1" stop-color="#BEB9FF" stop-opacity="0"/>
</radialGradient>
<radialGradient id="paint11_radial_177_427" cx="0" cy="0" r="1" gradientUnits="userSpaceOnUse" gradientTransform="translate(571.337 309.981) rotate(90) scale(168.067 562.759)">
<stop stop-color="#5C56BE"/>
<stop offset="1" stop-color="#BEB9FF" stop-opacity="0"/>
</radialGradient>
<radialGradient id="paint12_radial_177_427" cx="0" cy="0" r="1" gradientUnits="userSpaceOnUse" gradientTransform="translate(574.086 317.187) rotate(90) scale(163.308 564.828)">
<stop stop-color="#5C56BE"/>
<stop offset="1" stop-color="#BEB9FF" stop-opacity="0"/>
</radialGradient>
<radialGradient id="paint13_radial_177_427" cx="0" cy="0" r="1" gradientUnits="userSpaceOnUse" gradientTransform="translate(576.83 324.236) rotate(90) scale(158.734 566.893)">
<stop stop-color="#5C56BE"/>
<stop offset="1" stop-color="#BEB9FF" stop-opacity="0"/>
</radialGradient>
<radialGradient id="paint14_radial_177_427" cx="0" cy="0" r="1" gradientUnits="userSpaceOnUse" gradientTransform="translate(579.601 331.041) rotate(90) scale(154.423 568.948)">
<stop stop-color="#5C56BE"/>
<stop offset="1" stop-color="#BEB9FF" stop-opacity="0"/>
</radialGradient>
<radialGradient id="paint15_radial_177_427" cx="0" cy="0" r="1" gradientUnits="userSpaceOnUse" gradientTransform="translate(582.349 337.469) rotate(90) scale(150.492 571.019)">
<stop stop-color="#5C56BE"/>
<stop offset="1" stop-color="#BEB9FF" stop-opacity="0"/>
</radialGradient>
<radialGradient id="paint16_radial_177_427" cx="0" cy="0" r="1" gradientUnits="userSpaceOnUse" gradientTransform="translate(585.101 333.019) rotate(90) scale(157.444 573.084)">
<stop stop-color="#5C56BE"/>
<stop offset="1" stop-color="#BEB9FF" stop-opacity="0"/>
</radialGradient>
<radialGradient id="paint17_radial_177_427" cx="0" cy="0" r="1" gradientUnits="userSpaceOnUse" gradientTransform="translate(587.855 328.259) rotate(90) scale(164.733 575.149)">
<stop stop-color="#5C56BE"/>
<stop offset="1" stop-color="#BEB9FF" stop-opacity="0"/>
</radialGradient>
<radialGradient id="paint18_radial_177_427" cx="0" cy="0" r="1" gradientUnits="userSpaceOnUse" gradientTransform="translate(590.607 323.493) rotate(90) scale(172.051 577.214)">
<stop stop-color="#5C56BE"/>
<stop offset="1" stop-color="#BEB9FF" stop-opacity="0"/>
</radialGradient>
<radialGradient id="paint19_radial_177_427" cx="0" cy="0" r="1" gradientUnits="userSpaceOnUse" gradientTransform="translate(593.356 318.755) rotate(90) scale(179.332 579.283)">
<stop stop-color="#5C56BE"/>
<stop offset="1" stop-color="#BEB9FF" stop-opacity="0"/>
</radialGradient>
<radialGradient id="paint20_radial_177_427" cx="0" cy="0" r="1" gradientUnits="userSpaceOnUse" gradientTransform="translate(596.114 313.965) rotate(90) scale(186.688 581.343)">
<stop stop-color="#5C56BE"/>
<stop offset="1" stop-color="#BEB9FF" stop-opacity="0"/>
</radialGradient>
<radialGradient id="paint21_radial_177_427" cx="0" cy="0" r="1" gradientUnits="userSpaceOnUse" gradientTransform="translate(598.868 309.17) rotate(90) scale(194.055 583.408)">
<stop stop-color="#5C56BE"/>
<stop offset="1" stop-color="#BEB9FF" stop-opacity="0"/>
</radialGradient>
</defs>
</svg>
