<svg width="38" height="38" viewBox="0 0 38 38" fill="none" xmlns="http://www.w3.org/2000/svg">
<path d="M19.0002 11.0834C19.0002 8.46002 16.8735 6.33337 14.2502 6.33337H4.75016C3.00126 6.33337 1.5835 7.75114 1.5835 9.50004V25.3334C1.5835 27.0823 3.00126 28.5 4.75016 28.5H14.2502C16.8735 28.5 19.0002 30.6267 19.0002 33.25M19.0002 11.0834C19.0002 8.46002 21.1268 6.33337 23.7502 6.33337H33.2502C34.9991 6.33337 36.4168 7.75114 36.4168 9.50004V25.3334C36.4168 27.0823 34.9991 28.5 33.2502 28.5H23.7502C21.1268 28.5 19.0002 30.6267 19.0002 33.25M19.0002 11.0834V33.25" stroke="#F7F7FC" stroke-width="2"/>
</svg>
