<svg width="38" height="29" viewBox="0 0 38 29" fill="none" xmlns="http://www.w3.org/2000/svg">
<path d="M19.0002 6.08337C19.0002 3.46002 16.8735 1.33337 14.2502 1.33337H4.75016C3.00126 1.33337 1.5835 2.75114 1.5835 4.50004V20.3334C1.5835 22.0823 3.00126 23.5 4.75016 23.5H14.2502C16.8735 23.5 19.0002 25.6267 19.0002 28.25M19.0002 6.08337C19.0002 3.46002 21.1268 1.33337 23.7502 1.33337H33.2502C34.9991 1.33337 36.4168 2.75114 36.4168 4.50004V20.3334C36.4168 22.0823 34.9991 23.5 33.2502 23.5H23.7502C21.1268 23.5 19.0002 25.6267 19.0002 28.25M19.0002 6.08337V28.25" stroke="#7770E0" stroke-width="2"/>
</svg>
