<svg width="1400" height="934" viewBox="0 0 1400 934" fill="none" xmlns="http://www.w3.org/2000/svg">
<path d="M1718.12 906.345C1345.01 723.729 1217.69 522.337 1171.55 369.557C1120.06 199.047 1146.61 12.6878 1091.03 1.11469C1055.44 -6.29854 1011.64 63.2901 929.99 215.837C682.384 678.415 676.778 801.259 571.286 833.142C423.505 877.838 332.405 667.565 105.248 672.098C-61.5909 675.434 -196.597 792.511 -287.591 896.58" stroke="url(#paint0_radial_360_617)" stroke-miterlimit="10"/>
<path d="M1727.08 887.987C1364.48 709.302 1229.85 513.544 1180.04 370.357C1124.39 210.342 1150.67 33.6092 1095.67 25.2505C1060.3 19.8728 1017.33 88.2713 938.461 235.59C698.768 683.225 691.333 807.598 586.652 837.908C438.015 880.34 350.886 654.857 121.321 651.787C116.316 651.721 111.389 651.721 106.456 651.854C-56.4239 656.387 -193.354 773.519 -286.295 876.948" stroke="url(#paint1_radial_360_617)" stroke-miterlimit="10"/>
<path d="M1736.01 869.629C1383.94 694.893 1242.1 505.102 1188.51 371.169C1128.78 221.882 1154.69 54.5531 1100.28 49.3977C1065.13 46.0609 1022.98 113.275 946.912 255.361C715.184 688.03 705.963 814.333 601.978 842.674C452.618 883.382 369.281 642.038 137.353 631.472C132.264 631.238 127.192 631.005 122.12 631.033C-43.4509 631.945 -187.5 751.496 -285.029 857.311" stroke="url(#paint2_radial_360_617)" stroke-miterlimit="10"/>
<path d="M1744.96 851.272C1403.38 680.434 1254.55 497.066 1197 371.981C1133.36 233.666 1158.71 75.5137 1104.92 73.5506C1069.97 72.2715 1028.68 138.273 955.379 275.126C731.587 692.88 720.542 820.846 617.319 847.44C467.163 886.124 387.665 629.125 153.4 611.157C148.2 610.756 143.006 610.372 137.829 610.206C-30.4232 604.833 -181.602 729.468 -283.719 837.663" stroke="url(#paint3_radial_360_617)" stroke-miterlimit="10"/>
<path d="M1753.9 832.914C1422.83 666.025 1267.25 489.459 1205.48 372.793C1138.19 245.69 1162.69 96.4966 1109.54 97.7034C1074.79 98.4876 1034.36 163.277 963.837 294.896C747.986 697.707 735.112 827.341 632.656 852.2C481.661 888.838 406.021 616.117 169.443 590.819C164.132 590.263 158.816 589.707 153.482 589.362C-17.4388 579.118 -175.747 707.429 -282.468 818.026" stroke="url(#paint4_radial_360_617)" stroke-miterlimit="10"/>
<path d="M1762.85 814.556C1442.28 651.61 1280.26 482.312 1213.95 373.611C1143.39 257.936 1166.68 117.496 1114.16 121.851C1079.59 124.72 1040.03 188.275 972.291 314.667C764.37 702.534 749.66 833.815 647.983 856.966C496.159 891.53 424.363 603.02 185.477 570.52C180.049 569.78 174.621 569.03 169.149 568.551C-4.43642 553.48 -169.907 685.417 -281.2 798.406" stroke="url(#paint5_radial_360_617)" stroke-miterlimit="10"/>
<path d="M1771.79 796.198C1461.73 637.178 1293.71 475.622 1222.44 374.423C1149.13 270.304 1170.63 138.523 1118.8 146.003C1084.4 150.964 1045.72 213.295 980.766 334.431C780.781 707.356 764.22 840.271 663.332 861.727C510.646 894.199 442.72 589.845 201.532 550.204C195.971 549.292 190.443 548.358 184.848 547.73C8.61043 527.865 -164.018 663.405 -279.899 778.769" stroke="url(#paint6_radial_360_617)" stroke-miterlimit="10"/>
<path d="M1780.74 777.84C1481.18 622.752 1324.16 453.06 1230.93 375.235C1174.46 270.087 1174.6 159.578 1123.43 170.15C1089.2 177.224 1051.4 238.276 989.226 354.23C797.183 712.211 778.769 846.733 678.671 866.521C525.129 896.869 461.074 576.621 217.583 529.917C211.922 528.832 206.255 527.72 200.521 526.93C21.6195 502.322 -158.183 641.393 -278.635 759.16" stroke="url(#paint7_radial_360_617)" stroke-miterlimit="10"/>
<path d="M1789.69 759.482C1500.63 608.326 1339.36 443.155 1239.4 376.047C1182.22 280.237 1178.55 180.661 1128.05 194.303C1093.99 203.502 1057.08 263.263 997.687 373.972C813.608 717.011 793.303 853.123 694.001 871.259C539.597 899.455 479.429 563.268 233.625 509.574C227.852 508.311 222.068 507.021 216.196 506.076C34.63 476.762 -152.297 619.343 -277.359 739.495" stroke="url(#paint8_radial_360_617)" stroke-miterlimit="10"/>
<path d="M1798.64 741.124C1520.08 593.9 1354.57 433.261 1247.89 376.859C1190 290.38 1182.51 201.767 1132.68 218.45C1098.79 229.79 1062.76 288.267 1006.15 393.737C829.981 721.854 807.836 859.513 709.34 876.014C554.057 902.035 497.804 549.877 249.67 489.247C243.786 487.812 237.88 486.35 231.874 485.243C47.6445 451.252 -146.428 597.309 -276.079 719.852" stroke="url(#paint9_radial_360_617)" stroke-miterlimit="10"/>
<path d="M1807.58 722.767C1539.53 579.474 1369.78 423.362 1256.37 377.676C1197.77 300.535 1186.48 222.905 1137.31 242.603C1103.6 256.106 1068.44 313.276 1014.61 413.491C846.383 726.648 822.363 865.876 724.679 880.769C568.517 904.577 516.191 536.418 265.715 468.921C259.715 467.302 253.692 465.678 247.558 464.405C60.6478 425.77 -140.56 575.275 -274.799 700.204" stroke="url(#paint10_radial_360_617)" stroke-miterlimit="10"/>
<path d="M1816.53 704.403C1558.99 565.054 1384.97 413.464 1264.85 378.511C1205.53 310.707 1190.45 244.077 1141.94 266.779C1108.41 282.461 1074.12 338.297 1023.08 433.301C862.788 731.515 836.895 872.266 740.011 885.568C582.96 907.141 534.593 522.971 281.76 448.644C275.642 446.848 269.525 445.052 263.235 443.639C73.6444 400.383 -134.693 553.303 -273.52 680.623" stroke="url(#paint11_radial_360_617)" stroke-miterlimit="10"/>
<path d="M1825.48 686.045C1578.44 550.627 1400.2 403.564 1273.34 379.3C1213.31 320.834 1194.45 265.232 1146.57 290.903C1113.23 308.777 1079.8 363.278 1031.54 453.049C879.161 736.32 851.41 878.578 755.355 890.312C597.414 909.604 553.029 509.39 297.804 428.307C291.581 426.327 285.319 424.369 278.896 422.773C86.6135 374.946 -128.843 531.219 -272.258 660.953" stroke="url(#paint12_radial_360_617)" stroke-miterlimit="10"/>
<path d="M1834.41 667.687C1597.89 536.201 1415.41 393.671 1281.81 380.123C1221.08 330.995 1198.46 286.421 1151.19 315.056C1118.06 335.132 1085.48 388.276 1040 472.814C895.576 741.147 865.929 884.906 770.692 895.078C611.85 912.062 571.48 495.776 313.853 407.991C307.513 405.828 301.128 403.703 294.588 401.946C99.6087 349.536 -122.96 509.212 -270.997 641.316" stroke="url(#paint13_radial_360_617)" stroke-miterlimit="10"/>
<path d="M1843.37 649.329C1617.34 521.775 1430.61 383.772 1290.3 380.93C1228.85 341.139 1202.48 307.615 1155.82 339.22C1122.9 361.504 1091.16 413.285 1048.48 492.595C911.999 745.985 880.471 891.196 786.052 899.85C626.314 914.493 589.977 482.196 329.919 387.681C323.468 385.34 316.961 383.054 310.293 381.13C112.594 324.171 -117.071 487.201 -269.668 621.69" stroke="url(#paint14_radial_360_617)" stroke-miterlimit="10"/>
<path d="M1852.32 630.972C1636.8 507.349 1445.82 373.872 1298.78 381.742C1236.62 351.288 1206.52 328.82 1160.45 363.356C1127.76 387.859 1096.84 438.278 1056.92 512.354C928.378 750.795 894.971 897.458 801.363 904.605C640.73 916.867 608.452 468.509 345.942 367.382C339.38 364.857 332.751 362.411 325.921 360.325C125.531 298.806 -111.225 465.161 -268.41 602.019" stroke="url(#paint15_radial_360_617)" stroke-miterlimit="10"/>
<path d="M1861.26 612.614C1656.25 492.929 1461.03 363.996 1307.26 382.554C1244.42 361.421 1210.58 350.037 1165.07 387.509C1132.63 414.231 1102.52 463.276 1065.39 532.103C944.778 755.601 909.492 903.693 816.701 909.343C655.173 919.187 626.977 454.795 361.986 347.017C355.313 344.303 348.561 341.7 341.627 339.448C138.478 273.469 -105.375 443.139 -267.131 582.405" stroke="url(#paint16_radial_360_617)" stroke-miterlimit="10"/>
<path d="M1870.21 594.234C1675.7 478.481 1476.24 354.057 1315.75 383.349C1252.17 371.564 1214.66 371.225 1169.71 411.634C1137.51 440.552 1108.2 488.252 1073.85 551.868C961.182 760.417 924.016 909.927 832.043 914.109C669.614 921.517 645.522 441.097 378.029 326.735C371.25 323.832 364.37 321.073 357.308 318.654C151.406 248.153 -99.4925 421.121 -265.853 562.796" stroke="url(#paint17_radial_360_617)" stroke-miterlimit="10"/>
<path d="M1879.16 575.881C1695.15 464.099 1493.56 414.008 1324.23 384.183C1260.86 373.021 1218.74 392.463 1174.33 435.808C1142.39 466.952 1113.88 513.277 1082.31 571.66C977.579 765.277 938.539 916.166 847.378 918.897C684.065 923.785 664.094 427.35 394.076 306.402C387.191 303.321 380.172 300.402 372.987 297.816C164.333 222.832 -93.6064 399.087 -264.578 543.13" stroke="url(#paint18_radial_360_617)" stroke-miterlimit="10"/>
<path d="M1888.11 557.529C1714.59 449.64 1510.49 349.937 1332.71 384.984C1268.58 397.63 1222.85 413.664 1178.96 459.95C1147.29 493.318 1119.56 538.265 1090.78 591.42C993.975 770.093 953.072 922.351 862.717 923.646C698.525 926.004 682.692 413.575 410.127 286.076C403.125 282.806 395.985 279.747 388.666 276.983C177.092 197.952 -87.7545 377.059 -263.314 523.494" stroke="url(#paint19_radial_360_617)" stroke-miterlimit="10"/>
<path d="M1897.05 539.177C1734.06 435.219 1524.33 332.162 1341.19 385.801C1276.23 404.832 1226.96 434.88 1183.59 484.103C1152.2 519.695 1125.24 563.274 1099.24 611.19C1010.37 774.926 967.602 928.924 878.054 928.418C712.988 927.484 701.504 399.404 426.17 265.766C419.07 262.296 411.796 259.094 404.347 256.162C190.059 172.458 -81.889 355.031 -262.02 503.851" stroke="url(#paint20_radial_360_617)" stroke-miterlimit="10"/>
<path d="M1906 520.824C1753.51 420.804 1537.08 314.5 1349.67 386.624C1067.16 495.37 1042.72 935.742 893.386 933.184C723.155 930.27 719.673 357.372 420.024 235.34C203.033 146.971 -76.0441 333.008 -260.741 484.225" stroke="url(#paint21_radial_360_617)" stroke-miterlimit="10"/>
<defs>
<radialGradient id="paint0_radial_360_617" cx="0" cy="0" r="1" gradientUnits="userSpaceOnUse" gradientTransform="translate(715.262 453.463) rotate(90) scale(452.883 1002.85)">
<stop stop-color="#7770E0"/>
<stop offset="0.96875" stop-color="#AAA5EB" stop-opacity="0"/>
</radialGradient>
<radialGradient id="paint1_radial_360_617" cx="0" cy="0" r="1" gradientUnits="userSpaceOnUse" gradientTransform="translate(720.391 456.472) rotate(90) scale(431.515 1006.69)">
<stop stop-color="#7770E0"/>
<stop offset="0.96875" stop-color="#AAA5EB" stop-opacity="0"/>
</radialGradient>
<radialGradient id="paint2_radial_360_617" cx="0" cy="0" r="1" gradientUnits="userSpaceOnUse" gradientTransform="translate(725.489 459.454) rotate(90) scale(410.175 1010.52)">
<stop stop-color="#7770E0"/>
<stop offset="0.96875" stop-color="#AAA5EB" stop-opacity="0"/>
</radialGradient>
<radialGradient id="paint3_radial_360_617" cx="0" cy="0" r="1" gradientUnits="userSpaceOnUse" gradientTransform="translate(730.619 462.466) rotate(90) scale(388.934 1014.34)">
<stop stop-color="#7770E0"/>
<stop offset="0.96875" stop-color="#AAA5EB" stop-opacity="0"/>
</radialGradient>
<radialGradient id="paint4_radial_360_617" cx="0" cy="0" r="1" gradientUnits="userSpaceOnUse" gradientTransform="translate(735.718 476.638) rotate(90) scale(378.942 1018.19)">
<stop stop-color="#7770E0"/>
<stop offset="0.96875" stop-color="#AAA5EB" stop-opacity="0"/>
</radialGradient>
<radialGradient id="paint5_radial_360_617" cx="0" cy="0" r="1" gradientUnits="userSpaceOnUse" gradientTransform="translate(740.826 490.794) rotate(90) scale(369.042 1022.03)">
<stop stop-color="#7770E0"/>
<stop offset="0.96875" stop-color="#AAA5EB" stop-opacity="0"/>
</radialGradient>
<radialGradient id="paint6_radial_360_617" cx="0" cy="0" r="1" gradientUnits="userSpaceOnUse" gradientTransform="translate(745.948 504.923) rotate(90) scale(359.224 1025.85)">
<stop stop-color="#7770E0"/>
<stop offset="0.96875" stop-color="#AAA5EB" stop-opacity="0"/>
</radialGradient>
<radialGradient id="paint7_radial_360_617" cx="0" cy="0" r="1" gradientUnits="userSpaceOnUse" gradientTransform="translate(751.054 518.996) rotate(90) scale(349.549 1029.69)">
<stop stop-color="#7770E0"/>
<stop offset="0.96875" stop-color="#AAA5EB" stop-opacity="0"/>
</radialGradient>
<radialGradient id="paint8_radial_360_617" cx="0" cy="0" r="1" gradientUnits="userSpaceOnUse" gradientTransform="translate(756.165 532.989) rotate(90) scale(339.946 1033.52)">
<stop stop-color="#7770E0"/>
<stop offset="0.96875" stop-color="#AAA5EB" stop-opacity="0"/>
</radialGradient>
<radialGradient id="paint9_radial_360_617" cx="0" cy="0" r="1" gradientUnits="userSpaceOnUse" gradientTransform="translate(761.28 546.898) rotate(90) scale(330.487 1037.36)">
<stop stop-color="#7770E0"/>
<stop offset="0.96875" stop-color="#AAA5EB" stop-opacity="0"/>
</radialGradient>
<radialGradient id="paint10_radial_360_617" cx="0" cy="0" r="1" gradientUnits="userSpaceOnUse" gradientTransform="translate(766.391 560.688) rotate(90) scale(321.185 1041.19)">
<stop stop-color="#7770E0"/>
<stop offset="0.96875" stop-color="#AAA5EB" stop-opacity="0"/>
</radialGradient>
<radialGradient id="paint11_radial_360_617" cx="0" cy="0" r="1" gradientUnits="userSpaceOnUse" gradientTransform="translate(771.505 574.347) rotate(90) scale(312.096 1045.03)">
<stop stop-color="#7770E0"/>
<stop offset="0.96875" stop-color="#AAA5EB" stop-opacity="0"/>
</radialGradient>
<radialGradient id="paint12_radial_360_617" cx="0" cy="0" r="1" gradientUnits="userSpaceOnUse" gradientTransform="translate(776.61 587.729) rotate(90) scale(303.258 1048.87)">
<stop stop-color="#7770E0"/>
<stop offset="0.96875" stop-color="#AAA5EB" stop-opacity="0"/>
</radialGradient>
<radialGradient id="paint13_radial_360_617" cx="0" cy="0" r="1" gradientUnits="userSpaceOnUse" gradientTransform="translate(781.706 600.819) rotate(90) scale(294.764 1052.7)">
<stop stop-color="#7770E0"/>
<stop offset="0.96875" stop-color="#AAA5EB" stop-opacity="0"/>
</radialGradient>
<radialGradient id="paint14_radial_360_617" cx="0" cy="0" r="1" gradientUnits="userSpaceOnUse" gradientTransform="translate(786.85 613.455) rotate(90) scale(286.758 1056.52)">
<stop stop-color="#7770E0"/>
<stop offset="0.96875" stop-color="#AAA5EB" stop-opacity="0"/>
</radialGradient>
<radialGradient id="paint15_radial_360_617" cx="0" cy="0" r="1" gradientUnits="userSpaceOnUse" gradientTransform="translate(791.953 625.392) rotate(90) scale(279.459 1060.36)">
<stop stop-color="#7770E0"/>
<stop offset="0.96875" stop-color="#AAA5EB" stop-opacity="0"/>
</radialGradient>
<radialGradient id="paint16_radial_360_617" cx="0" cy="0" r="1" gradientUnits="userSpaceOnUse" gradientTransform="translate(797.067 617.128) rotate(90) scale(292.369 1064.2)">
<stop stop-color="#7770E0"/>
<stop offset="0.96875" stop-color="#AAA5EB" stop-opacity="0"/>
</radialGradient>
<radialGradient id="paint17_radial_360_617" cx="0" cy="0" r="1" gradientUnits="userSpaceOnUse" gradientTransform="translate(802.179 608.29) rotate(90) scale(305.904 1068.03)">
<stop stop-color="#7770E0"/>
<stop offset="0.96875" stop-color="#AAA5EB" stop-opacity="0"/>
</radialGradient>
<radialGradient id="paint18_radial_360_617" cx="0" cy="0" r="1" gradientUnits="userSpaceOnUse" gradientTransform="translate(807.289 599.439) rotate(90) scale(319.494 1071.87)">
<stop stop-color="#7770E0"/>
<stop offset="0.96875" stop-color="#AAA5EB" stop-opacity="0"/>
</radialGradient>
<radialGradient id="paint19_radial_360_617" cx="0" cy="0" r="1" gradientUnits="userSpaceOnUse" gradientTransform="translate(812.396 590.642) rotate(90) scale(333.013 1075.71)">
<stop stop-color="#7770E0"/>
<stop offset="0.96875" stop-color="#AAA5EB" stop-opacity="0"/>
</radialGradient>
<radialGradient id="paint20_radial_360_617" cx="0" cy="0" r="1" gradientUnits="userSpaceOnUse" gradientTransform="translate(817.516 581.746) rotate(90) scale(346.673 1079.54)">
<stop stop-color="#7770E0"/>
<stop offset="0.96875" stop-color="#AAA5EB" stop-opacity="0"/>
</radialGradient>
<radialGradient id="paint21_radial_360_617" cx="0" cy="0" r="1" gradientUnits="userSpaceOnUse" gradientTransform="translate(822.63 572.842) rotate(90) scale(360.353 1083.37)">
<stop stop-color="#7770E0"/>
<stop offset="0.96875" stop-color="#AAA5EB" stop-opacity="0"/>
</radialGradient>
</defs>
</svg>
