<svg width="38" height="38" viewBox="0 0 38 38" fill="none" xmlns="http://www.w3.org/2000/svg">
<path d="M30.981 7.1921C29.8297 5.02446 28.1138 3.21076 26.0161 1.94422C23.9185 0.677683 21.5177 0.00575993 19.0694 3.68672e-05C16.6212 -0.0056862 14.2173 0.655005 12.1138 1.91172C10.0103 3.16844 8.28598 4.9741 7.12462 7.13633C4.96683 8.29194 3.16353 10.0153 1.90832 12.1215C0.653118 14.2277 -0.00658231 16.6371 4.95123e-05 19.091C4.95123e-05 24.1179 2.83657 28.7968 7.26241 31.1225C8.44086 33.2118 10.1514 34.9495 12.2189 36.1579C14.2865 37.3663 16.6369 38.002 19.0297 38C21.4296 38.0035 23.7871 37.3648 25.8591 36.1499C27.9311 34.9349 29.6426 33.1876 30.8173 31.088C32.973 29.9387 34.7788 28.2258 36.0432 26.1308C37.3076 24.0358 37.9837 21.6367 37.9997 19.1877C38.0158 16.7386 37.3712 14.3308 36.1344 12.2193C34.8975 10.1078 33.1144 8.3713 30.9739 7.19367L30.981 7.1921ZM19.0046 31.9622C16.4497 31.9622 13.9521 31.2021 11.8277 29.778C9.7033 28.354 8.04755 26.3299 7.0698 23.9618C6.09206 21.5936 5.83624 18.9878 6.33469 16.4738C6.83314 13.9598 8.06347 11.6506 9.87011 9.83809C11.6768 8.0256 13.9785 6.79128 16.4844 6.29122C18.9903 5.79115 21.5877 6.0478 23.9482 7.02872C26.3087 8.00963 28.3262 9.67074 29.7457 11.802C31.1652 13.9333 31.9228 16.4389 31.9228 19.0022C31.9228 22.4394 30.5618 25.7358 28.1392 28.1663C25.7165 30.5968 22.4308 31.9622 19.0046 31.9622Z" fill="url(#paint0_linear_988_163)"/>
<defs>
<linearGradient id="paint0_linear_988_163" x1="0.00161535" y1="18.9998" x2="38.0061" y2="18.9998" gradientUnits="userSpaceOnUse">
<stop stop-color="#487FC1"/>
<stop offset="1" stop-color="#1CC3F2"/>
</linearGradient>
</defs>
</svg>
