<svg width="64" height="64" viewBox="0 0 64 64" fill="none" xmlns="http://www.w3.org/2000/svg">
<mask id="mask0_1319_570" style="mask-type:alpha" maskUnits="userSpaceOnUse" x="0" y="0" width="64" height="64">
<rect width="64" height="64" fill="#D9D9D9"/>
</mask>
<g mask="url(#mask0_1319_570)">
<path fill-rule="evenodd" clip-rule="evenodd" d="M44.5295 9C45.0348 9 45.4445 9.41502 45.4445 9.92697V17.3427C45.4445 17.8547 45.0348 18.2697 44.5295 18.2697H37.2094C36.704 18.2697 36.2944 17.8547 36.2944 17.3427C36.2944 16.8308 36.704 16.4158 37.2094 16.4158H42.0302C42.0302 16.4157 42.0302 16.4157 42.0302 16.4157C41.1505 13.8942 38.7767 12.0899 35.9894 12.0899C34.0925 12.0899 32.3891 12.9241 31.215 14.2531C30.878 14.6345 30.2995 14.667 29.923 14.3256C29.5464 13.9841 29.5144 13.3981 29.8514 13.0166C31.358 11.3113 33.5503 10.236 35.9894 10.236C39.4362 10.236 42.3865 12.3808 43.6145 15.4224V9.92697C43.6145 9.41502 44.0241 9 44.5295 9Z" fill="url(#paint0_linear_1319_570)"/>
<path d="M10.1738 50.7138C10.1738 43.9086 15.6905 38.3918 22.4957 38.3918V38.3918C29.301 38.3918 34.8177 43.9086 34.8177 50.7138V52.7109C34.8177 54.2925 33.5355 55.5747 31.9539 55.5747H13.0376C11.456 55.5747 10.1738 54.2925 10.1738 52.7109V50.7138Z" fill="url(#paint1_linear_1319_570)"/>
<path d="M29.8438 53.1255C29.8438 46.3619 35.4021 40.8789 42.1657 40.8789V40.8789C48.9293 40.8789 54.4876 46.3619 54.4876 53.1255V53.1255C54.4876 54.4782 53.391 55.5748 52.0383 55.5748H32.2931C30.9403 55.5748 29.8438 54.4782 29.8438 53.1255V53.1255Z" fill="url(#paint2_linear_1319_570)"/>
<ellipse cx="22.4954" cy="25.7305" rx="7.80011" ry="7.68707" fill="url(#paint3_linear_1319_570)"/>
<ellipse cx="42.1656" cy="30.7047" rx="4.86094" ry="4.97399" fill="url(#paint4_linear_1319_570)"/>
</g>
<defs>
<linearGradient id="paint0_linear_1319_570" x1="45.4445" y1="17.5914" x2="31.8092" y2="9.8758" gradientUnits="userSpaceOnUse">
<stop stop-color="#F0603A"/>
<stop offset="1" stop-color="#F8845B" stop-opacity="0.3"/>
</linearGradient>
<linearGradient id="paint1_linear_1319_570" x1="16.9565" y1="46.0257" x2="43.4135" y2="51.484" gradientUnits="userSpaceOnUse">
<stop stop-color="#808BF7"/>
<stop offset="1" stop-color="#808BF7" stop-opacity="0"/>
</linearGradient>
<linearGradient id="paint2_linear_1319_570" x1="37.7569" y1="45.3747" x2="57.2988" y2="50.7608" gradientUnits="userSpaceOnUse">
<stop stop-color="#F8845B"/>
<stop offset="1" stop-color="#F8845B" stop-opacity="0"/>
</linearGradient>
<linearGradient id="paint3_linear_1319_570" x1="20.0084" y1="22.7468" x2="39.0235" y2="24.0518" gradientUnits="userSpaceOnUse">
<stop stop-color="#808BF7"/>
<stop offset="1" stop-color="#808BF7" stop-opacity="0"/>
</linearGradient>
<linearGradient id="paint4_linear_1319_570" x1="40.47" y1="28.774" x2="53.6571" y2="29.4922" gradientUnits="userSpaceOnUse">
<stop stop-color="#F8845B"/>
<stop offset="1" stop-color="#F8845B" stop-opacity="0"/>
</linearGradient>
</defs>
</svg>
