<svg width="29" height="28" viewBox="0 0 29 28" fill="none" xmlns="http://www.w3.org/2000/svg">
<path d="M28.7111 8.40007C28.7111 8.40007 28.4279 6.4696 27.5557 5.62194C26.4512 4.50632 25.2164 4.50085 24.65 4.43522C20.5945 4.15085 14.5057 4.15085 14.5057 4.15085H14.4943C14.4943 4.15085 8.40547 4.15085 4.35 4.43522C3.78359 4.50085 2.54883 4.50632 1.44434 5.62194C0.57207 6.4696 0.294531 8.40007 0.294531 8.40007C0.294531 8.40007 0 10.6696 0 12.9337V15.0555C0 17.3196 0.288867 19.5891 0.288867 19.5891C0.288867 19.5891 0.57207 21.5196 1.43867 22.3673C2.54316 23.4829 3.99316 23.4446 4.63887 23.5649C6.96113 23.7782 14.5 23.8438 14.5 23.8438C14.5 23.8438 20.5945 23.8329 24.65 23.554C25.2164 23.4883 26.4512 23.4829 27.5557 22.3673C28.4279 21.5196 28.7111 19.5891 28.7111 19.5891C28.7111 19.5891 29 17.3251 29 15.0555V12.9337C29 10.6696 28.7111 8.40007 28.7111 8.40007ZM11.5037 17.6313V9.76179L19.3371 13.7102L11.5037 17.6313Z" fill="#F8845B"/>
</svg>
