<svg width="25" height="21" viewBox="0 0 25 21" fill="none" xmlns="http://www.w3.org/2000/svg">
<path d="M7.86475 20.6563C17.2964 20.6563 22.4565 12.8403 22.4565 6.06447C22.4565 5.84474 22.4517 5.62013 22.4419 5.40041C23.4457 4.67447 24.312 3.7753 25 2.74513C24.0651 3.16107 23.0725 3.43272 22.0562 3.5508C23.1263 2.90931 23.9276 1.90156 24.3115 0.714371C23.3047 1.31103 22.2037 1.73192 21.0557 1.959C20.2821 1.13707 19.2594 0.59286 18.1455 0.4105C17.0316 0.228141 15.8887 0.417791 14.8935 0.950131C13.8982 1.48247 13.106 2.32785 12.6394 3.35556C12.1728 4.38328 12.0577 5.53609 12.312 6.63576C10.2734 6.53346 8.2791 6.00389 6.45831 5.08138C4.63753 4.15888 3.03093 2.86403 1.74268 1.28078C1.08792 2.40966 0.887559 3.74549 1.18232 5.01679C1.47709 6.28809 2.24486 7.39946 3.32959 8.12502C2.51524 8.09916 1.71872 7.87991 1.00586 7.48537V7.54884C1.00513 8.73352 1.41469 9.88189 2.16491 10.7987C2.91513 11.7156 3.95971 12.3444 5.12109 12.5781C4.36672 12.7845 3.57498 12.8146 2.80713 12.666C3.13485 13.6849 3.77247 14.576 4.63101 15.215C5.48955 15.854 6.52617 16.209 7.59619 16.2305C5.77961 17.6574 3.5356 18.4314 1.22559 18.4278C0.815924 18.4271 0.406666 18.402 0 18.3526C2.34673 19.8581 5.07659 20.6577 7.86475 20.6563Z" fill="#F8845B"/>
</svg>
