<svg width="29" height="29" viewBox="0 0 29 29" fill="none" xmlns="http://www.w3.org/2000/svg">
<path d="M16.3577 14.2918C16.3577 18.8481 12.6959 22.5417 8.17901 22.5417C3.66213 22.5417 0 18.8472 0 14.2918C0 9.73635 3.66185 6.04166 8.17901 6.04166C12.6962 6.04166 16.3577 9.73551 16.3577 14.2918Z" fill="#F8845B"/>
<path d="M25.3304 14.2918C25.3304 18.5806 23.4995 22.0587 21.2409 22.0587C18.9823 22.0587 17.1514 18.5806 17.1514 14.2918C17.1514 10.003 18.982 6.52493 21.2406 6.52493C23.4992 6.52493 25.3301 10.0019 25.3301 14.2918" fill="#F8845B"/>
<path d="M29.0003 14.2918C29.0003 18.1335 28.3565 21.2497 27.562 21.2497C26.7676 21.2497 26.124 18.1343 26.124 14.2918C26.124 10.4493 26.7679 7.33392 27.562 7.33392C28.3562 7.33392 29.0003 10.449 29.0003 14.2918Z" fill="#F8845B"/>
</svg>
