<svg width="22" height="22" viewBox="0 0 22 22" fill="none" xmlns="http://www.w3.org/2000/svg">
<g id="Group 1000002389">
<g id="Group 1000002295">
<path id="Rectangle 1366" d="M0 4C0 1.79086 1.79086 0 4 0H22V18C22 20.2091 20.2091 22 18 22H0V4Z" fill="url(#paint0_linear_2787_8979)"/>
</g>
<g id="Group 1000002388">
<path id="Vector" d="M5.71401 11.1786L5.72264 14.3423L8.41085 15.9242V17.7764L4.1494 15.277V10.2534L5.71401 11.1786ZM5.71401 8.01482V9.85842L4.14844 8.93231V7.08871L5.71401 6.1626L7.28725 7.08871L5.71401 8.01482ZM9.5335 7.08871L11.0991 6.1626L12.6723 7.08871L11.0991 8.01482L9.5335 7.08871Z" fill="white"/>
<path id="Vector_2" d="M6.84375 13.6865V11.8343L8.40932 12.7604V14.604L6.84375 13.6865ZM9.53197 16.5876L11.0975 17.5137L12.6708 16.5876V18.4312L11.0975 19.3573L9.53197 18.4312V16.5876ZM14.9161 7.08871L16.4816 6.1626L18.0549 7.08871V8.93231L16.4816 9.85842V8.01482L14.9161 7.08871ZM16.4816 14.3423L16.4903 11.1786L18.0558 10.2524V15.2761L13.7944 17.7754V15.9232L16.4816 14.3423Z" fill="white"/>
<path id="Vector_3" d="M15.3624 13.6867L13.7969 14.6042V12.7606L15.3624 11.8345V13.6867Z" fill="white"/>
<path id="Vector_4" d="M15.359 8.67076L15.3676 10.523L12.6717 12.1049V15.2763L11.1062 16.1937L9.5406 15.2763V12.1049L6.84471 10.523V8.67076L8.41699 7.74465L11.0966 9.33418L13.7925 7.74465L15.3657 8.67076H15.359ZM6.84375 5.50798L11.0975 3L15.359 5.50798L13.7934 6.43409L11.0975 4.84455L8.40932 6.43409L6.84375 5.50798Z" fill="white"/>
</g>
</g>
<defs>
<linearGradient id="paint0_linear_2787_8979" x1="22" y1="22" x2="0" y2="0" gradientUnits="userSpaceOnUse">
<stop stop-color="#D1A000"/>
<stop offset="1" stop-color="#FFD632"/>
</linearGradient>
</defs>
</svg>
