<svg width="22" height="22" viewBox="0 0 22 22" fill="none" xmlns="http://www.w3.org/2000/svg">
<g id="Group 1000002295">
<path id="Rectangle 1366" d="M0 4C0 1.79086 1.79086 0 4 0H22V18C22 20.2091 20.2091 22 18 22H0V4Z" fill="url(#paint0_linear_2787_8966)"/>
<g id="Ethereum">
<path id="Vector" d="M11.1657 4.40039L11.0781 4.69046V13.1069L11.1657 13.1921L15.1711 10.8828L11.1657 4.40039Z" fill="#C1CCF8"/>
<path id="Vector_2" d="M11.1617 4.40039L7.15625 10.8828L11.1617 13.1921V9.10698V4.40039Z" fill="white"/>
<path id="Vector_3" d="M11.1665 13.9316L11.1172 13.9903V16.9884L11.1665 17.1289L15.1744 11.6235L11.1665 13.9316Z" fill="#C1CCF8"/>
<path id="Vector_4" d="M11.1617 17.1289V13.9316L7.15625 11.6235L11.1617 17.1289Z" fill="white"/>
<path id="Vector_5" d="M11.1641 13.1915L15.1694 10.8822L11.1641 9.10645V13.1915Z" fill="#8197EE"/>
<path id="Vector_6" d="M7.15625 10.8822L11.1617 13.1915V9.10645L7.15625 10.8822Z" fill="#C1CCF8"/>
</g>
</g>
<defs>
<linearGradient id="paint0_linear_2787_8966" x1="22" y1="22" x2="0" y2="0" gradientUnits="userSpaceOnUse">
<stop stop-color="#556ECC"/>
<stop offset="1" stop-color="#627EEA"/>
</linearGradient>
</defs>
</svg>
