<svg width="2021" height="1893" fill="none" xmlns="http://www.w3.org/2000/svg"><path d="M1818.13.449 1548.52.235l59.76 190.039 20.16 64.118-52.88 39.525-454.96 340.418 402.01 301.746L2000 578.947 1818.13.449Z" fill="#FFC800"/><path d="m424.051 293.228-52.798-39.657 20.231-64.012L451.248.213 182.62 0 0 578.286l476.795 357.878L879.35 634.952 424.051 293.228Z" fill="#E1AA00"/><path d="M953.823 306.45 545.875.366l-68.847 217.985L953.823 576.23l.259-.213v-269.62l-.259.053Z" fill="#E1AA00"/><path d="M1454.17.677 1045.68 306.28v269.62l477.08-356.92L1454.17.677Z" fill="#FFC800"/><path d="m529.644 1011.18-51.609 38.67-1.007 3.14 476.795 357.88.259-.21V693.623L529.644 1011.18Z" fill="#E1AA00"/><path d="m1521.6 1050.08-51.87-38.97-423.51-317.872-.54.4v717.032l477.08-356.92-1.16-3.67Z" fill="#FFC800"/><path d="m953.746 1525.48-52.796-39.64-335.308-251.62-88.614 280.63 476.795 357.88.259-.21v-347.31l-.336.27Z" fill="#E1AA00"/><path d="m1434.41 1234.4-336.19 251.52-52.54 39.31v347.31l477.08-356.92-88.35-281.22Z" fill="#FFC800"/></svg>