<svg width="40" height="40" viewBox="0 0 40 40" fill="none" xmlns="http://www.w3.org/2000/svg">
<path d="M0 8C0 3.58172 3.58172 0 8 0H40V32C40 36.4183 36.4183 40 32 40H0V8Z" fill="url(#paint0_linear_0_1)"/>
<path fill-rule="evenodd" clip-rule="evenodd" d="M14.0233 28H9.98787C9.1399 28 8.72103 28 8.46564 27.8389C8.18978 27.6626 8.02122 27.3705 8.00079 27.0482C7.98545 26.7512 8.19491 26.3885 8.61377 25.6633L18.5778 8.34839C19.0018 7.61313 19.2164 7.24549 19.4871 7.10953C19.7783 6.96349 20.1256 6.96349 20.4168 7.10953C20.6875 7.24549 20.9021 7.61313 21.326 8.34839L23.3745 11.8736L23.3849 11.8916C23.8428 12.6804 24.075 13.0804 24.1764 13.5002C24.2888 13.9585 24.2888 14.442 24.1764 14.9002C24.0743 15.3233 23.8444 15.7262 23.3796 16.5269L18.1457 25.6482L18.1321 25.6715C17.6712 26.4668 17.4376 26.8699 17.1138 27.174C16.7613 27.5065 16.3374 27.7481 15.8725 27.8843C15.4485 28 14.9735 28 14.0233 28ZM24.2142 28H29.9966C30.8497 28 31.2788 28 31.5344 27.834C31.8102 27.6577 31.9838 27.3604 31.9993 27.0383C32.0139 26.7509 31.809 26.4023 31.4076 25.7193C31.3937 25.696 31.3799 25.6724 31.3658 25.6483L28.4693 20.7634L28.4364 20.7084C28.0294 20.0298 27.8239 19.6872 27.56 19.5547C27.269 19.4086 26.9265 19.4086 26.6355 19.5547C26.3699 19.6907 26.1554 20.0482 25.7314 20.7684L22.8452 25.6533L22.8353 25.6701C22.4129 26.3891 22.2017 26.7484 22.2169 27.0432C22.2374 27.3656 22.4059 27.6626 22.6818 27.8389C22.9321 28 23.3612 28 24.2142 28Z" fill="white"/>
<defs>
<linearGradient id="paint0_linear_0_1" x1="20" y1="0" x2="20" y2="40" gradientUnits="userSpaceOnUse">
<stop stop-color="#7670DF"/>
<stop offset="1" stop-color="#554FD8"/>
</linearGradient>
</defs>
</svg>
