<svg width="40" height="40" viewBox="0 0 40 40" fill="none" xmlns="http://www.w3.org/2000/svg">
<path d="M0 8C0 3.58172 3.58172 0 8 0H40V32C40 36.4183 36.4183 40 32 40H0V8Z" fill="white"/>
<path d="M8 0.5H39.5V32C39.5 36.1421 36.1421 39.5 32 39.5H0.5V8C0.5 3.85786 3.85786 0.5 8 0.5Z" stroke="#756EDF" stroke-opacity="0.3"/>
<path fill-rule="evenodd" clip-rule="evenodd" d="M14.0233 30H9.98787C9.1399 30 8.72103 30 8.46564 29.8389C8.18978 29.6626 8.02122 29.3705 8.00079 29.0482C7.98545 28.7512 8.19491 28.3885 8.61377 27.6633L18.5778 10.3484C19.0018 9.61313 19.2164 9.24549 19.4871 9.10953C19.7783 8.96349 20.1256 8.96349 20.4168 9.10953C20.6875 9.24549 20.9021 9.61313 21.326 10.3484L23.3745 13.8736L23.3849 13.8916C23.8428 14.6804 24.075 15.0804 24.1764 15.5002C24.2888 15.9585 24.2888 16.442 24.1764 16.9002C24.0743 17.3233 23.8444 17.7262 23.3796 18.5269L18.1457 27.6482L18.1321 27.6715C17.6712 28.4668 17.4376 28.8699 17.1138 29.174C16.7613 29.5065 16.3374 29.7481 15.8725 29.8843C15.4485 30 14.9735 30 14.0233 30ZM24.2142 30H29.9966C30.8497 30 31.2788 30 31.5344 29.834C31.8102 29.6577 31.9838 29.3604 31.9993 29.0383C32.0139 28.7509 31.809 28.4023 31.4076 27.7193C31.3937 27.696 31.3799 27.6724 31.3658 27.6483L28.4693 22.7634L28.4364 22.7084C28.0294 22.0298 27.8239 21.6872 27.56 21.5547C27.269 21.4086 26.9265 21.4086 26.6355 21.5547C26.3699 21.6907 26.1554 22.0482 25.7314 22.7684L22.8452 27.6533L22.8353 27.6701C22.4129 28.3891 22.2017 28.7484 22.2169 29.0432C22.2374 29.3656 22.4059 29.6626 22.6818 29.8389C22.9321 30 23.3612 30 24.2142 30Z" fill="#756EDF"/>
</svg>
