<svg width="64" height="64" viewBox="10 0 64 64" fill="none" xmlns="http://www.w3.org/2000/svg">
<g filter="url(#filter0_d_91_3442)">
<path d="M12 12C12 7.58172 15.5817 4 20 4H52V36C52 40.4183 48.4183 44 44 44H12V12Z" fill="url(#paint0_linear_91_3442)"/>
</g>
<path fill-rule="evenodd" clip-rule="evenodd" d="M26.9056 21.8602L31.9256 16.8425L36.9476 21.8643L39.8668 18.9431L31.9256 11L23.9843 18.941L26.9056 21.8602ZM19 23.9236L21.9203 21.0034L24.8405 23.9236L21.9203 26.8438L19 23.9236ZM31.9256 31.0057L26.9056 25.9859L23.9802 28.9031L23.9843 28.9072L31.9256 36.8462L39.8668 28.9031L39.8689 28.901L36.9476 25.9839L31.9256 31.0057ZM39.0056 23.9243L41.9259 21.0041L44.8462 23.9243L41.9259 26.8445L39.0056 23.9243ZM31.9256 20.958L34.8877 23.9221H34.8898L34.8877 23.9242L31.9256 26.8883L28.9634 23.9282L28.9593 23.9221L28.9634 23.918L29.4819 23.3995L29.7351 23.1484L31.9256 20.958Z" fill="white"/>
<defs>
<filter id="filter0_d_91_3442" x="0" y="0" width="64" height="64" filterUnits="userSpaceOnUse" color-interpolation-filters="sRGB">
<feFlood flood-opacity="0" result="BackgroundImageFix"/>
<feColorMatrix in="SourceAlpha" type="matrix" values="0 0 0 0 0 0 0 0 0 0 0 0 0 0 0 0 0 0 127 0" result="hardAlpha"/>
<feOffset dy="8"/>
<feGaussianBlur stdDeviation="6"/>
<feComposite in2="hardAlpha" operator="out"/>
<feColorMatrix type="matrix" values="0 0 0 0 0 0 0 0 0 0 0 0 0 0 0 0 0 0 0.12 0"/>
<feBlend mode="normal" in2="BackgroundImageFix" result="effect1_dropShadow_91_3442"/>
<feBlend mode="normal" in="SourceGraphic" in2="effect1_dropShadow_91_3442" result="shape"/>
</filter>
<linearGradient id="paint0_linear_91_3442" x1="32" y1="4" x2="32" y2="44" gradientUnits="userSpaceOnUse">
<stop stop-color="#7670DF"/>
<stop offset="1" stop-color="#554FD8"/>
</linearGradient>
</defs>
</svg>
