<svg width="40" height="40" viewBox="0 0 40 40" fill="none" xmlns="http://www.w3.org/2000/svg">
<path d="M0 8C0 3.58172 3.58172 0 8 0H40V32C40 36.4183 36.4183 40 32 40H0V8Z" fill="white"/>
<path d="M8 0.5H39.5V32C39.5 36.1421 36.1421 39.5 32 39.5H0.5V8C0.5 3.85786 3.85786 0.5 8 0.5Z" stroke="#756EDF" stroke-opacity="0.3"/>
<path fill-rule="evenodd" clip-rule="evenodd" d="M14.9056 17.8602L19.9256 12.8425L24.9476 17.8643L27.8668 14.9431L19.9256 7L11.9843 14.941L14.9056 17.8602ZM7 19.9236L9.92027 17.0034L12.8405 19.9236L9.92027 22.8438L7 19.9236ZM19.9256 27.0057L14.9056 21.9859L11.9802 24.9031L11.9843 24.9072L19.9256 32.8462L27.8668 24.9031L27.8689 24.901L24.9476 21.9839L19.9256 27.0057ZM27.0056 19.9243L29.9259 17.0041L32.8462 19.9243L29.9259 22.8445L27.0056 19.9243ZM19.9256 16.958L22.8877 19.9221H22.8898L22.8877 19.9242L19.9256 22.8883L16.9634 19.9282L16.9593 19.9221L16.9634 19.918L17.4819 19.3995L17.7351 19.1484L19.9256 16.958Z" fill="#756EDF"/>
</svg>
