<svg width="270" height="283" viewBox="0 0 270 283" fill="none" xmlns="http://www.w3.org/2000/svg">
<g clip-path="url(#clip0_95_4829)">
<path d="M9.84842 278.698C8.72203 278.698 7.80892 279.611 7.80892 280.736C7.80892 281.861 8.72203 282.774 9.84842 282.774C10.9748 282.774 11.8879 281.861 11.8879 280.736C11.8879 279.611 10.9748 278.698 9.84842 278.698Z" fill="#AAA5EB"/>
<path d="M28.4307 278.698C27.3043 278.698 26.3912 279.611 26.3912 280.736C26.3912 281.861 27.3043 282.774 28.4307 282.774C29.5571 282.774 30.4702 281.861 30.4702 280.736C30.4702 279.611 29.5571 278.698 28.4307 278.698Z" fill="#AAA5EB"/>
<path d="M47.013 278.925C46.0118 278.925 45.2001 279.736 45.2001 280.736C45.2001 281.736 46.0118 282.547 47.013 282.547C48.0143 282.547 48.8259 281.736 48.8259 280.736C48.8259 279.736 48.0143 278.925 47.013 278.925Z" fill="#AAA5EB"/>
<path d="M65.5954 279.151C66.5018 279.151 67.1816 279.83 67.1816 280.736C67.1816 281.642 66.5018 282.321 65.5954 282.321C64.6889 282.321 63.7824 281.642 63.7824 280.736C63.7824 279.83 64.6889 279.151 65.5954 279.151Z" fill="#AAA5EB"/>
<path d="M84.1776 279.151C85.0841 279.151 85.7639 279.83 85.7639 280.736C85.7639 281.642 85.0841 282.321 84.1776 282.321C83.2712 282.321 82.5913 281.642 82.5913 280.736C82.5913 279.83 83.2712 279.151 84.1776 279.151Z" fill="#AAA5EB"/>
<path d="M102.76 279.378C103.44 279.378 104.12 280.057 104.12 280.736C104.12 281.415 103.44 282.094 102.76 282.094C102.08 282.094 101.4 281.415 101.4 280.736C101.4 280.057 101.853 279.378 102.76 279.378Z" fill="#AAA5EB"/>
<path d="M121.342 279.604C122.022 279.604 122.475 280.057 122.475 280.736C122.475 281.415 122.022 281.868 121.342 281.868C120.662 281.868 120.209 281.415 120.209 280.736C119.982 280.057 120.662 279.604 121.342 279.604Z" fill="#AAA5EB"/>
<path d="M139.924 279.604C140.377 279.604 140.831 280.057 140.831 280.736C140.831 281.415 140.377 281.868 139.698 281.868C139.018 281.868 138.564 281.415 138.564 280.736C138.791 280.057 139.244 279.604 139.924 279.604Z" fill="#AAA5EB"/>
<path d="M158.507 279.83C158.96 279.83 159.413 280.283 159.413 280.736C159.413 281.189 158.96 281.642 158.507 281.642C158.053 281.642 157.6 281.189 157.6 280.736C157.6 280.283 158.053 279.83 158.507 279.83Z" fill="#AAA5EB"/>
<path d="M177.089 280.057C177.542 280.057 177.769 280.283 177.769 280.736C177.769 281.189 177.542 281.415 177.089 281.415C176.635 281.415 176.409 281.189 176.409 280.736C176.409 280.283 176.635 280.057 177.089 280.057Z" fill="#AAA5EB"/>
<path d="M195.671 280.057C195.898 280.057 196.351 280.283 196.351 280.736C196.351 281.189 196.124 281.415 195.671 281.415C195.218 281.415 194.991 281.189 194.991 280.736C194.991 280.283 195.218 280.057 195.671 280.057Z" fill="#AAA5EB"/>
<path d="M214.253 280.283C214.48 280.283 214.707 280.51 214.707 280.736C214.707 280.962 214.48 281.189 214.253 281.189C214.027 281.189 213.8 280.962 213.8 280.736C213.8 280.51 214.027 280.283 214.253 280.283Z" fill="#AAA5EB"/>
<path d="M232.836 280.51C233.062 280.51 233.063 280.736 233.063 280.736L232.836 280.962C232.609 280.962 232.609 280.736 232.609 280.736C232.609 280.736 232.609 280.51 232.836 280.51Z" fill="#AAA5EB"/>
<path d="M251.418 280.51C251.293 280.51 251.191 280.611 251.191 280.736C251.191 280.861 251.293 280.962 251.418 280.962C251.543 280.962 251.645 280.861 251.645 280.736C251.645 280.611 251.543 280.51 251.418 280.51Z" fill="#AAA5EB"/>
<path d="M9.84842 262.171C10.9815 262.171 11.8879 263.077 11.8879 264.209C11.8879 265.341 10.9815 266.246 9.84842 266.246C8.71535 266.246 7.80892 265.341 7.80892 264.209C7.5823 263.077 8.48874 262.171 9.84842 262.171Z" fill="#AAA5EB"/>
<path d="M28.4307 262.398C29.5638 262.398 30.4702 263.303 30.4702 264.435C30.4702 265.567 29.5638 266.473 28.4307 266.473C27.2976 266.473 26.3912 265.567 26.3912 264.435C26.3912 263.303 27.2976 262.398 28.4307 262.398Z" fill="#AAA5EB"/>
<path d="M47.013 262.624C47.9195 262.624 48.8259 263.53 48.8259 264.435C48.8259 265.341 47.9195 266.246 47.013 266.246C46.1066 266.246 45.2001 265.341 45.2001 264.435C45.2001 263.303 45.88 262.624 47.013 262.624Z" fill="#AAA5EB"/>
<path d="M65.5954 262.624C66.5018 262.624 67.1816 263.303 67.1816 264.209C67.1816 265.114 66.5018 265.794 65.5954 265.794C64.6889 265.794 64.0091 265.114 64.0091 264.209C63.7824 263.53 64.6889 262.624 65.5954 262.624Z" fill="#AAA5EB"/>
<path d="M84.1776 262.85C85.0841 262.85 85.7639 263.53 85.7639 264.435C85.7639 265.341 85.0841 266.02 84.1776 266.02C83.2712 266.02 82.5913 265.341 82.5913 264.435C82.5913 263.53 83.2712 262.85 84.1776 262.85Z" fill="#AAA5EB"/>
<path d="M102.76 263.077C103.44 263.077 104.12 263.756 104.12 264.435C104.12 265.114 103.44 265.794 102.76 265.794C102.08 265.794 101.4 265.114 101.4 264.435C101.4 263.53 101.853 263.077 102.76 263.077Z" fill="#AAA5EB"/>
<path d="M121.342 263.077C122.022 263.077 122.475 263.53 122.475 264.209C122.475 264.888 122.022 265.341 121.342 265.341C120.662 265.341 120.209 264.888 120.209 264.209C119.982 263.756 120.662 263.077 121.342 263.077Z" fill="#AAA5EB"/>
<path d="M139.924 263.303C140.604 263.303 141.057 263.756 141.057 264.435C141.057 265.114 140.604 265.567 139.924 265.567C139.244 265.567 138.791 265.114 138.791 264.435C138.791 263.756 139.244 263.303 139.924 263.303Z" fill="#AAA5EB"/>
<path d="M158.507 263.53C158.96 263.53 159.413 263.982 159.413 264.435C159.413 264.888 158.96 265.341 158.507 265.341C158.053 265.341 157.6 264.888 157.6 264.435C157.6 263.756 158.053 263.53 158.507 263.53Z" fill="#AAA5EB"/>
<path d="M177.089 263.53C177.542 263.53 177.769 263.756 177.769 264.209C177.769 264.662 177.542 264.888 177.089 264.888C176.635 264.888 176.409 264.662 176.409 264.209C176.409 263.982 176.635 263.53 177.089 263.53Z" fill="#AAA5EB"/>
<path d="M195.671 263.756C195.898 263.756 196.351 263.982 196.351 264.435C196.351 264.662 196.124 265.114 195.671 265.114C195.218 265.114 194.991 264.888 194.991 264.435C194.991 263.982 195.218 263.756 195.671 263.756Z" fill="#AAA5EB"/>
<path d="M214.253 263.982C214.48 263.982 214.707 264.209 214.707 264.435C214.707 264.662 214.48 264.888 214.253 264.888C214.027 264.888 213.8 264.662 213.8 264.435C213.8 264.209 214.027 263.982 214.253 263.982Z" fill="#AAA5EB"/>
<path d="M232.835 263.982C233.062 263.982 233.062 264.209 233.062 264.209C233.062 264.435 232.835 264.435 232.835 264.435C232.609 264.435 232.609 264.209 232.609 264.209C232.609 264.209 232.609 263.982 232.835 263.982Z" fill="#AAA5EB"/>
<path d="M251.417 264.207C251.417 264.207 251.645 264.207 251.417 264.207C251.645 264.435 251.417 264.435 251.417 264.435C251.417 264.435 251.189 264.435 251.417 264.207C251.189 264.207 251.417 264.207 251.417 264.207Z" fill="#AAA5EB"/>
<path d="M9.84842 245.87C8.72203 245.87 7.80892 246.783 7.80892 247.908C7.80892 249.033 8.72203 249.946 9.84842 249.946C10.9748 249.946 11.8879 249.033 11.8879 247.908C11.8879 246.783 10.9748 245.87 9.84842 245.87Z" fill="#AAA5EB"/>
<path d="M28.4307 245.87C27.3043 245.87 26.3912 246.783 26.3912 247.908C26.3912 249.033 27.3043 249.946 28.4307 249.946C29.5571 249.946 30.4702 249.033 30.4702 247.908C30.4702 246.783 29.5571 245.87 28.4307 245.87Z" fill="#AAA5EB"/>
<path d="M47.013 246.097C47.9195 246.097 48.8259 247.002 48.8259 247.908C48.8259 248.814 47.9195 249.719 47.013 249.719C46.1066 249.719 45.2001 248.814 45.2001 247.908C45.2001 247.002 45.88 246.097 47.013 246.097Z" fill="#AAA5EB"/>
<path d="M65.5954 246.323C66.5018 246.323 67.1816 247.002 67.1816 247.908C67.1816 248.814 66.5018 249.493 65.5954 249.493C64.6889 249.493 64.0091 248.814 64.0091 247.908C63.7824 247.002 64.6889 246.323 65.5954 246.323Z" fill="#AAA5EB"/>
<path d="M84.1776 246.55C85.0841 246.55 85.7639 247.229 85.7639 248.134C85.7639 249.04 85.0841 249.719 84.1776 249.719C83.2712 249.719 82.5913 249.04 82.5913 248.134C82.5913 247.229 83.2712 246.55 84.1776 246.55Z" fill="#AAA5EB"/>
<path d="M102.76 246.55C103.44 246.55 104.12 247.229 104.12 247.908C104.12 248.587 103.44 249.266 102.76 249.266C102.08 249.266 101.4 248.587 101.4 247.908C101.4 247.229 101.853 246.55 102.76 246.55Z" fill="#AAA5EB"/>
<path d="M121.342 246.776C122.022 246.776 122.475 247.229 122.475 247.908C122.475 248.587 122.022 249.04 121.342 249.04C120.662 249.04 120.209 248.587 120.209 247.908C119.982 247.229 120.662 246.776 121.342 246.776Z" fill="#AAA5EB"/>
<path d="M139.925 247.002C140.604 247.002 141.058 247.455 141.058 248.134C141.058 248.814 140.604 249.266 139.925 249.266C139.245 249.266 138.791 248.814 138.791 248.134C138.791 247.455 139.245 247.002 139.925 247.002Z" fill="#AAA5EB"/>
<path d="M158.507 247.002C158.96 247.002 159.413 247.455 159.413 247.908C159.413 248.361 158.96 248.814 158.507 248.814C158.053 248.814 157.6 248.361 157.6 247.908C157.6 247.455 158.053 247.002 158.507 247.002Z" fill="#AAA5EB"/>
<path d="M177.089 247.229C177.542 247.229 177.769 247.455 177.769 247.908C177.769 248.361 177.542 248.587 177.089 248.587C176.635 248.587 176.409 248.361 176.409 247.908C176.409 247.455 176.635 247.229 177.089 247.229Z" fill="#AAA5EB"/>
<path d="M195.671 247.455C195.898 247.455 196.351 247.682 196.351 248.134C196.351 248.587 196.124 248.814 195.671 248.814C195.218 248.814 194.991 248.587 194.991 248.134C194.991 247.682 195.218 247.455 195.671 247.455Z" fill="#AAA5EB"/>
<path d="M214.253 247.455C214.48 247.455 214.707 247.682 214.707 247.908C214.707 248.134 214.48 248.361 214.253 248.361C214.027 248.361 213.8 248.134 213.8 247.908C213.8 247.682 214.027 247.455 214.253 247.455Z" fill="#AAA5EB"/>
<path d="M232.836 247.682C233.062 247.682 233.063 247.908 233.063 247.908L232.836 248.134C232.609 248.134 232.609 247.908 232.609 247.908C232.609 247.908 232.609 247.682 232.836 247.682Z" fill="#AAA5EB"/>
<path d="M251.418 247.682C251.293 247.682 251.191 247.783 251.191 247.908C251.191 248.033 251.293 248.134 251.418 248.134C251.543 248.134 251.645 248.033 251.645 247.908C251.645 247.783 251.543 247.682 251.418 247.682Z" fill="#AAA5EB"/>
<path d="M9.84842 229.57C8.72203 229.57 7.80892 230.482 7.80892 231.607C7.80892 232.733 8.72203 233.645 9.84842 233.645C10.9748 233.645 11.8879 232.733 11.8879 231.607C11.8879 230.482 10.9748 229.57 9.84842 229.57Z" fill="#AAA5EB"/>
<path d="M28.4307 229.57C27.3043 229.57 26.3912 230.482 26.3912 231.607C26.3912 232.733 27.3043 233.645 28.4307 233.645C29.5571 233.645 30.4702 232.733 30.4702 231.607C30.4702 230.482 29.5571 229.57 28.4307 229.57Z" fill="#AAA5EB"/>
<path d="M47.013 229.796C46.0118 229.796 45.2001 230.607 45.2001 231.607C45.2001 232.607 46.0118 233.418 47.013 233.418C48.0143 233.418 48.8259 232.607 48.8259 231.607C48.8259 230.607 48.0143 229.796 47.013 229.796Z" fill="#AAA5EB"/>
<path d="M65.5954 230.022C64.7193 230.022 64.0091 230.732 64.0091 231.607C64.0091 232.482 64.7193 233.192 65.5954 233.192C66.4714 233.192 67.1816 232.482 67.1816 231.607C67.1816 230.732 66.4714 230.022 65.5954 230.022Z" fill="#AAA5EB"/>
<path d="M84.1776 230.022C83.3015 230.022 82.5913 230.732 82.5913 231.607C82.5913 232.482 83.3015 233.192 84.1776 233.192C85.0537 233.192 85.7639 232.482 85.7639 231.607C85.7639 230.732 85.0537 230.022 84.1776 230.022Z" fill="#AAA5EB"/>
<path d="M102.76 230.249C103.44 230.249 104.12 230.928 104.12 231.607C104.12 232.286 103.44 232.966 102.76 232.966C102.08 232.966 101.4 232.286 101.4 231.607C101.4 230.928 101.853 230.249 102.76 230.249Z" fill="#AAA5EB"/>
<path d="M121.342 230.475C122.022 230.475 122.475 230.928 122.475 231.607C122.475 232.286 122.022 232.739 121.342 232.739C120.662 232.739 120.209 232.286 120.209 231.607C120.209 230.928 120.662 230.475 121.342 230.475Z" fill="#AAA5EB"/>
<path d="M139.925 230.475C140.604 230.475 141.058 230.928 141.058 231.607C141.058 232.286 140.604 232.739 139.925 232.739C139.245 232.739 138.791 232.286 138.791 231.607C138.791 230.928 139.245 230.475 139.925 230.475Z" fill="#AAA5EB"/>
<path d="M158.507 230.702C158.96 230.702 159.413 231.154 159.413 231.607C159.413 232.06 158.96 232.513 158.507 232.513C158.053 232.513 157.6 232.06 157.6 231.607C157.6 231.154 158.053 230.702 158.507 230.702Z" fill="#AAA5EB"/>
<path d="M177.089 230.928C177.542 230.928 177.769 231.154 177.769 231.607C177.769 232.06 177.542 232.286 177.089 232.286C176.635 232.286 176.409 232.06 176.409 231.607C176.409 231.154 176.635 230.928 177.089 230.928Z" fill="#AAA5EB"/>
<path d="M195.671 230.928C195.898 230.928 196.351 231.154 196.351 231.607C196.351 232.06 196.124 232.286 195.671 232.286C195.218 232.286 194.991 232.06 194.991 231.607C194.991 231.154 195.218 230.928 195.671 230.928Z" fill="#AAA5EB"/>
<path d="M214.253 231.154C214.48 231.154 214.707 231.381 214.707 231.607C214.707 231.834 214.48 232.06 214.253 232.06C214.027 232.06 213.8 231.834 213.8 231.607C213.8 231.381 214.027 231.154 214.253 231.154Z" fill="#AAA5EB"/>
<path d="M232.836 231.381C233.062 231.381 233.063 231.607 233.063 231.607L232.836 231.834C232.609 231.834 232.609 231.607 232.609 231.607C232.609 231.607 232.609 231.381 232.836 231.381Z" fill="#AAA5EB"/>
<path d="M251.418 231.381C251.293 231.381 251.191 231.482 251.191 231.607C251.191 231.732 251.293 231.834 251.418 231.834C251.543 231.834 251.645 231.732 251.645 231.607C251.645 231.482 251.543 231.381 251.418 231.381Z" fill="#AAA5EB"/>
<path d="M9.84842 213.269C8.72203 213.269 7.80892 214.181 7.80892 215.306C7.80892 216.432 8.72203 217.344 9.84842 217.344C10.9748 217.344 11.8879 216.432 11.8879 215.306C11.8879 214.181 10.9748 213.269 9.84842 213.269Z" fill="#AAA5EB"/>
<path d="M28.4307 213.269C27.3043 213.269 26.3912 214.181 26.3912 215.306C26.3912 216.432 27.3043 217.344 28.4307 217.344C29.5571 217.344 30.4702 216.432 30.4702 215.306C30.4702 214.181 29.5571 213.269 28.4307 213.269Z" fill="#AAA5EB"/>
<path d="M47.013 213.495C46.0118 213.495 45.2001 214.306 45.2001 215.306C45.2001 216.307 46.0118 217.118 47.013 217.118C48.0143 217.118 48.8259 216.307 48.8259 215.306C48.8259 214.306 48.0143 213.495 47.013 213.495Z" fill="#AAA5EB"/>
<path d="M65.5954 213.722C64.7193 213.722 64.0091 214.431 64.0091 215.306C64.0091 216.182 64.7193 216.891 65.5954 216.891C66.4714 216.891 67.1816 216.182 67.1816 215.306C67.1816 214.431 66.4714 213.722 65.5954 213.722Z" fill="#AAA5EB"/>
<path d="M82.6548 215.036C82.5927 215.909 83.2508 216.667 84.1247 216.729C84.9986 216.791 85.7573 216.134 85.8194 215.261C85.8815 214.388 85.2235 213.63 84.3496 213.568C83.4757 213.506 82.7169 214.163 82.6548 215.036Z" fill="#AAA5EB"/>
<path d="M102.76 213.948C102.009 213.948 101.4 214.556 101.4 215.306C101.4 216.057 102.009 216.665 102.76 216.665C103.511 216.665 104.12 216.057 104.12 215.306C104.12 214.556 103.511 213.948 102.76 213.948Z" fill="#AAA5EB"/>
<path d="M121.342 214.174C120.716 214.174 120.209 214.681 120.209 215.306C120.209 215.932 120.716 216.438 121.342 216.438C121.968 216.438 122.475 215.932 122.475 215.306C122.475 214.681 121.968 214.174 121.342 214.174Z" fill="#AAA5EB"/>
<path d="M139.925 214.174C140.604 214.174 141.058 214.627 141.058 215.306C141.058 215.986 140.604 216.438 139.925 216.438C139.245 216.438 138.791 215.986 138.791 215.306C138.791 214.627 139.245 214.174 139.925 214.174Z" fill="#AAA5EB"/>
<path d="M158.507 214.401C158.006 214.401 157.6 214.806 157.6 215.306C157.6 215.807 158.006 216.212 158.507 216.212C159.007 216.212 159.413 215.807 159.413 215.306C159.413 214.806 159.007 214.401 158.507 214.401Z" fill="#AAA5EB"/>
<path d="M177.089 214.401C177.542 214.401 177.769 214.627 177.769 215.08C177.769 215.533 177.542 215.759 177.089 215.759C176.635 215.759 176.409 215.533 176.409 215.08C176.409 214.627 176.635 214.401 177.089 214.401Z" fill="#AAA5EB"/>
<path d="M195.671 214.627C195.898 214.627 196.351 214.854 196.351 215.306C196.351 215.759 196.124 215.986 195.671 215.986C195.218 215.986 194.991 215.759 194.991 215.306C194.991 214.854 195.218 214.627 195.671 214.627Z" fill="#AAA5EB"/>
<path d="M214.253 214.854C214.48 214.854 214.707 215.08 214.707 215.306C214.707 215.533 214.48 215.759 214.253 215.759C214.027 215.759 213.8 215.533 213.8 215.306C213.8 215.08 214.027 214.854 214.253 214.854Z" fill="#AAA5EB"/>
<path d="M232.836 214.854C233.062 214.854 233.063 215.08 233.063 215.08L232.836 215.306C232.609 215.306 232.609 215.08 232.609 215.08C232.609 215.08 232.609 214.854 232.836 214.854Z" fill="#AAA5EB"/>
<path d="M251.418 215.08C251.293 215.08 251.191 215.181 251.191 215.306C251.191 215.431 251.293 215.533 251.418 215.533C251.543 215.533 251.645 215.431 251.645 215.306C251.645 215.181 251.543 215.08 251.418 215.08Z" fill="#AAA5EB"/>
<path d="M9.84842 196.742C10.9815 196.742 11.8879 197.647 11.8879 198.779C11.8879 199.911 10.9815 200.817 9.84842 200.817C8.71535 200.817 7.80892 199.911 7.80892 198.779C7.5823 197.647 8.48874 196.742 9.84842 196.742Z" fill="#AAA5EB"/>
<path d="M28.4307 196.742C27.3043 196.742 26.3912 197.654 26.3912 198.779C26.3912 199.905 27.3043 200.817 28.4307 200.817C29.5571 200.817 30.4702 199.905 30.4702 198.779C30.4702 197.654 29.5571 196.742 28.4307 196.742Z" fill="#AAA5EB"/>
<path d="M47.013 196.968C47.9195 196.968 48.8259 197.874 48.8259 198.779C48.8259 199.685 47.9195 200.59 47.013 200.59C46.1066 200.59 45.2001 199.685 45.2001 198.779C45.2001 197.874 45.88 196.968 47.013 196.968Z" fill="#AAA5EB"/>
<path d="M65.5954 197.194C66.5018 197.194 67.1816 197.874 67.1816 198.779C67.1816 199.685 66.5018 200.364 65.5954 200.364C64.6889 200.364 64.0091 199.685 64.0091 198.779C63.7824 197.874 64.6889 197.194 65.5954 197.194Z" fill="#AAA5EB"/>
<path d="M84.1776 197.194C85.0841 197.194 85.7639 197.874 85.7639 198.779C85.7639 199.685 85.0841 200.364 84.1776 200.364C83.2712 200.364 82.5913 199.685 82.5913 198.779C82.5913 197.874 83.2712 197.194 84.1776 197.194Z" fill="#AAA5EB"/>
<path d="M102.76 197.421C103.44 197.421 104.12 198.1 104.12 198.779C104.12 199.458 103.44 200.138 102.76 200.138C102.08 200.138 101.4 199.458 101.4 198.779C101.4 198.1 101.853 197.421 102.76 197.421Z" fill="#AAA5EB"/>
<path d="M121.342 197.647C122.022 197.647 122.475 198.1 122.475 198.779C122.475 199.458 122.022 199.911 121.342 199.911C120.662 199.911 120.209 199.458 120.209 198.779C120.209 198.1 120.662 197.647 121.342 197.647Z" fill="#AAA5EB"/>
<path d="M139.924 197.647C140.604 197.647 141.057 198.1 141.057 198.779C141.057 199.458 140.604 199.911 139.924 199.911C139.244 199.911 138.791 199.458 138.791 198.779C138.791 198.326 139.244 197.647 139.924 197.647Z" fill="#AAA5EB"/>
<path d="M158.507 197.874C158.96 197.874 159.413 198.326 159.413 198.779C159.413 199.232 158.96 199.685 158.507 199.685C158.053 199.685 157.6 199.232 157.6 198.779C157.6 198.326 158.053 197.874 158.507 197.874Z" fill="#AAA5EB"/>
<path d="M177.089 198.1C177.542 198.1 177.769 198.326 177.769 198.779C177.769 199.232 177.542 199.458 177.089 199.458C176.635 199.458 176.409 199.232 176.409 198.779C176.409 198.326 176.635 198.1 177.089 198.1Z" fill="#AAA5EB"/>
<path d="M195.671 198.1C195.898 198.1 196.351 198.326 196.351 198.779C196.351 199.232 196.124 199.458 195.671 199.458C195.218 199.458 194.991 199.232 194.991 198.779C194.991 198.326 195.218 198.1 195.671 198.1Z" fill="#AAA5EB"/>
<path d="M214.253 198.326C214.48 198.326 214.707 198.553 214.707 198.779C214.707 199.006 214.48 199.232 214.253 199.232C214.027 199.232 213.8 199.006 213.8 198.779C213.8 198.553 214.027 198.326 214.253 198.326Z" fill="#AAA5EB"/>
<path d="M232.835 198.553C233.062 198.553 233.062 198.779 233.062 198.779L232.835 199.006C232.609 199.006 232.609 198.779 232.609 198.779C232.609 198.779 232.609 198.553 232.835 198.553Z" fill="#AAA5EB"/>
<path d="M251.417 198.551C251.417 198.551 251.645 198.779 251.417 198.551C251.645 198.779 251.417 198.779 251.417 198.779C251.417 198.779 251.189 198.779 251.417 198.551C251.189 198.779 251.417 198.551 251.417 198.551Z" fill="#AAA5EB"/>
<path d="M9.84842 180.214C10.9815 180.214 11.8879 181.12 11.8879 182.252C11.8879 183.384 10.9815 184.29 9.84842 184.29C8.71535 184.29 7.80892 183.384 7.80892 182.252C7.80892 181.12 8.48874 180.214 9.84842 180.214Z" fill="#AAA5EB"/>
<path d="M28.4307 180.441C27.3043 180.441 26.3912 181.353 26.3912 182.478C26.3912 183.604 27.3043 184.516 28.4307 184.516C29.5571 184.516 30.4702 183.604 30.4702 182.478C30.4702 181.353 29.5571 180.441 28.4307 180.441Z" fill="#AAA5EB"/>
<path d="M47.013 180.667C47.9195 180.667 48.8259 181.573 48.8259 182.478C48.8259 183.384 47.9195 184.29 47.013 184.29C46.1066 184.29 45.2001 183.384 45.2001 182.478C45.2001 181.573 45.88 180.667 47.013 180.667Z" fill="#AAA5EB"/>
<path d="M65.5954 180.894C64.7193 180.894 64.0091 181.603 64.0091 182.478C64.0091 183.354 64.7193 184.063 65.5954 184.063C66.4714 184.063 67.1816 183.354 67.1816 182.478C67.1816 181.603 66.4714 180.894 65.5954 180.894Z" fill="#AAA5EB"/>
<path d="M84.1776 180.894C85.0841 180.894 85.7639 181.573 85.7639 182.478C85.7639 183.384 85.0841 184.063 84.1776 184.063C83.2712 184.063 82.5913 183.384 82.5913 182.478C82.5913 181.573 83.2712 180.894 84.1776 180.894Z" fill="#AAA5EB"/>
<path d="M102.76 181.12C102.009 181.12 101.4 181.728 101.4 182.478C101.4 183.229 102.009 183.837 102.76 183.837C103.511 183.837 104.12 183.229 104.12 182.478C104.12 181.728 103.511 181.12 102.76 181.12Z" fill="#AAA5EB"/>
<path d="M121.342 181.346C120.716 181.346 120.209 181.853 120.209 182.478C120.209 183.104 120.716 183.61 121.342 183.61C121.968 183.61 122.475 183.104 122.475 182.478C122.475 181.853 121.968 181.346 121.342 181.346Z" fill="#AAA5EB"/>
<path d="M139.924 181.346C140.604 181.346 141.057 181.799 141.057 182.478C141.057 183.158 140.604 183.61 139.924 183.61C139.244 183.61 138.791 183.158 138.791 182.478C138.791 181.799 139.244 181.346 139.924 181.346Z" fill="#AAA5EB"/>
<path d="M158.507 181.573C158.006 181.573 157.6 181.978 157.6 182.478C157.6 182.979 158.006 183.384 158.507 183.384C159.007 183.384 159.413 182.979 159.413 182.478C159.413 181.978 159.007 181.573 158.507 181.573Z" fill="#AAA5EB"/>
<path d="M177.089 181.573C177.542 181.573 177.769 181.799 177.769 182.252C177.769 182.705 177.542 182.931 177.089 182.931C176.635 182.931 176.409 182.705 176.409 182.252C176.409 182.026 176.635 181.573 177.089 181.573Z" fill="#AAA5EB"/>
<path d="M195.671 181.799C195.898 181.799 196.351 182.026 196.351 182.478C196.351 182.931 196.124 183.158 195.671 183.158C195.218 183.158 194.991 182.931 194.991 182.478C194.991 182.026 195.218 181.799 195.671 181.799Z" fill="#AAA5EB"/>
<path d="M214.253 182.026C214.48 182.026 214.707 182.252 214.707 182.478C214.707 182.705 214.48 182.931 214.253 182.931C214.027 182.931 213.8 182.705 213.8 182.478C213.8 182.252 214.027 182.026 214.253 182.026Z" fill="#AAA5EB"/>
<path d="M232.835 182.026C233.062 182.026 233.062 182.252 233.062 182.252L232.835 182.478C232.609 182.478 232.609 182.252 232.609 182.252C232.609 182.252 232.609 182.026 232.835 182.026Z" fill="#AAA5EB"/>
<path d="M251.417 182.251C251.417 182.251 251.645 182.251 251.417 182.251C251.645 182.478 251.417 182.478 251.417 182.478C251.417 182.478 251.189 182.478 251.417 182.251C251.189 182.251 251.417 182.251 251.417 182.251Z" fill="#AAA5EB"/>
<path d="M9.84842 163.914C10.9815 163.914 11.8879 164.819 11.8879 165.951C11.8879 167.083 10.9815 167.989 9.84842 167.989C8.71535 167.989 7.80892 167.083 7.80892 165.951C7.80892 164.819 8.48874 163.914 9.84842 163.914Z" fill="#AAA5EB"/>
<path d="M28.4307 163.914C27.3043 163.914 26.3912 164.826 26.3912 165.951C26.3912 167.077 27.3043 167.989 28.4307 167.989C29.5571 167.989 30.4702 167.077 30.4702 165.951C30.4702 164.826 29.5571 163.914 28.4307 163.914Z" fill="#AAA5EB"/>
<path d="M47.013 164.14C47.9195 164.14 48.8259 165.046 48.8259 165.951C48.8259 166.857 47.9195 167.762 47.013 167.762C46.1066 167.762 45.2001 166.857 45.2001 165.951C45.2001 165.046 45.88 164.14 47.013 164.14Z" fill="#AAA5EB"/>
<path d="M65.5954 164.366C64.7193 164.366 64.0091 165.076 64.0091 165.951C64.0091 166.826 64.7193 167.536 65.5954 167.536C66.4714 167.536 67.1816 166.826 67.1816 165.951C67.1816 165.076 66.4714 164.366 65.5954 164.366Z" fill="#AAA5EB"/>
<path d="M82.4558 165.865C82.3937 166.738 83.0518 167.496 83.9257 167.558C84.7996 167.62 85.5584 166.963 85.6205 166.09C85.6826 165.217 85.0245 164.459 84.1506 164.397C83.2767 164.335 82.5179 164.992 82.4558 165.865Z" fill="#AAA5EB"/>
<path d="M102.76 164.593C102.009 164.593 101.4 165.201 101.4 165.951C101.4 166.701 102.009 167.31 102.76 167.31C103.511 167.31 104.12 166.701 104.12 165.951C104.12 165.201 103.511 164.593 102.76 164.593Z" fill="#AAA5EB"/>
<path d="M121.342 164.819C120.716 164.819 120.209 165.326 120.209 165.951C120.209 166.576 120.716 167.083 121.342 167.083C121.968 167.083 122.475 166.576 122.475 165.951C122.475 165.326 121.968 164.819 121.342 164.819Z" fill="#AAA5EB"/>
<path d="M139.924 165.046C140.604 165.046 141.057 165.498 141.057 166.178C141.057 166.857 140.604 167.31 139.924 167.31C139.244 167.31 138.791 166.857 138.791 166.178C138.791 165.498 139.244 165.046 139.924 165.046Z" fill="#AAA5EB"/>
<path d="M158.507 165.046C158.006 165.046 157.6 165.451 157.6 165.951C157.6 166.451 158.006 166.857 158.507 166.857C159.007 166.857 159.413 166.451 159.413 165.951C159.413 165.451 159.007 165.046 158.507 165.046Z" fill="#AAA5EB"/>
<path d="M177.089 165.272C177.542 165.272 177.769 165.498 177.769 165.951C177.769 166.404 177.542 166.63 177.089 166.63C176.635 166.63 176.409 166.404 176.409 165.951C176.409 165.725 176.635 165.272 177.089 165.272Z" fill="#AAA5EB"/>
<path d="M195.671 165.498C195.898 165.498 196.351 165.725 196.351 166.178C196.351 166.63 196.124 166.857 195.671 166.857C195.218 166.857 194.991 166.63 194.991 166.178C194.991 165.725 195.218 165.498 195.671 165.498Z" fill="#AAA5EB"/>
<path d="M214.253 165.498C214.48 165.498 214.707 165.725 214.707 165.951C214.707 166.178 214.48 166.404 214.253 166.404C214.027 166.404 213.8 166.178 213.8 165.951C213.8 165.725 214.027 165.498 214.253 165.498Z" fill="#AAA5EB"/>
<path d="M232.835 165.725C233.062 165.725 233.062 165.951 233.062 165.951L232.835 166.178C232.609 166.178 232.609 165.951 232.609 165.951C232.609 165.951 232.609 165.725 232.835 165.725Z" fill="#AAA5EB"/>
<path d="M251.417 165.95C251.417 165.95 251.645 165.95 251.417 165.95C251.645 166.178 251.417 166.178 251.417 166.178C251.417 166.178 251.189 166.178 251.417 165.95C251.189 165.95 251.417 165.95 251.417 165.95Z" fill="#AAA5EB"/>
<path d="M9.84842 147.613C10.9815 147.613 11.8879 148.518 11.8879 149.65C11.8879 150.782 10.9815 151.688 9.84842 151.688C8.71535 151.688 7.80892 150.782 7.80892 149.65C7.5823 148.518 8.48874 147.613 9.84842 147.613Z" fill="#AAA5EB"/>
<path d="M28.4307 147.613C27.3043 147.613 26.3912 148.525 26.3912 149.65C26.3912 150.776 27.3043 151.688 28.4307 151.688C29.5571 151.688 30.4702 150.776 30.4702 149.65C30.4702 148.525 29.5571 147.613 28.4307 147.613Z" fill="#AAA5EB"/>
<path d="M47.013 147.839C47.9195 147.839 48.8259 148.745 48.8259 149.65C48.8259 150.556 47.9195 151.462 47.013 151.462C46.1066 151.462 45.2001 150.556 45.2001 149.65C45.2001 148.745 45.88 147.839 47.013 147.839Z" fill="#AAA5EB"/>
<path d="M65.5954 148.066C64.7193 148.066 64.0091 148.775 64.0091 149.65C64.0091 150.526 64.7193 151.235 65.5954 151.235C66.4714 151.235 67.1816 150.526 67.1816 149.65C67.1816 148.775 66.4714 148.066 65.5954 148.066Z" fill="#AAA5EB"/>
<path d="M84.1776 148.066C85.0841 148.066 85.7639 148.745 85.7639 149.65C85.7639 150.556 85.0841 151.235 84.1776 151.235C83.2712 151.235 82.5913 150.556 82.5913 149.65C82.5913 148.745 83.2712 148.066 84.1776 148.066Z" fill="#AAA5EB"/>
<path d="M102.76 148.292C102.009 148.292 101.4 148.9 101.4 149.65C101.4 150.401 102.009 151.009 102.76 151.009C103.511 151.009 104.12 150.401 104.12 149.65C104.12 148.9 103.511 148.292 102.76 148.292Z" fill="#AAA5EB"/>
<path d="M121.342 148.518C122.022 148.518 122.475 148.971 122.475 149.65C122.475 150.33 122.022 150.782 121.342 150.782C120.662 150.782 120.209 150.33 120.209 149.65C120.209 148.971 120.662 148.518 121.342 148.518Z" fill="#AAA5EB"/>
<path d="M139.924 148.518C140.604 148.518 141.057 148.971 141.057 149.65C141.057 150.33 140.604 150.782 139.924 150.782C139.244 150.782 138.791 150.33 138.791 149.65C138.791 148.971 139.244 148.518 139.924 148.518Z" fill="#AAA5EB"/>
<path d="M158.507 148.745C158.006 148.745 157.6 149.15 157.6 149.65C157.6 150.151 158.006 150.556 158.507 150.556C159.007 150.556 159.413 150.151 159.413 149.65C159.413 149.15 159.007 148.745 158.507 148.745Z" fill="#AAA5EB"/>
<path d="M177.089 148.971C177.542 148.971 177.769 149.198 177.769 149.65C177.769 150.103 177.542 150.33 177.089 150.33C176.635 150.33 176.409 150.103 176.409 149.65C176.409 149.198 176.635 148.971 177.089 148.971Z" fill="#AAA5EB"/>
<path d="M195.671 148.971C195.898 148.971 196.351 149.198 196.351 149.65C196.351 150.103 196.124 150.33 195.671 150.33C195.218 150.33 194.991 150.103 194.991 149.65C194.991 149.198 195.218 148.971 195.671 148.971Z" fill="#AAA5EB"/>
<path d="M214.253 149.198C214.48 149.198 214.707 149.424 214.707 149.65C214.707 149.877 214.48 150.103 214.253 150.103C214.027 150.103 213.8 149.877 213.8 149.65C213.8 149.424 214.027 149.198 214.253 149.198Z" fill="#AAA5EB"/>
<path d="M232.835 149.424C233.062 149.424 233.062 149.65 233.062 149.65L232.835 149.877C232.609 149.877 232.609 149.65 232.609 149.65C232.609 149.65 232.609 149.424 232.835 149.424Z" fill="#AAA5EB"/>
<path d="M251.417 149.423C251.417 149.423 251.645 149.65 251.417 149.423C251.645 149.65 251.417 149.65 251.417 149.65C251.417 149.65 251.189 149.65 251.417 149.423C251.189 149.65 251.417 149.423 251.417 149.423Z" fill="#AAA5EB"/>
<path d="M9.84842 131.086C10.9815 131.086 11.8879 131.991 11.8879 133.123C11.8879 134.255 10.9815 135.161 9.84842 135.161C8.71535 135.161 7.80892 134.255 7.80892 133.123C7.5823 131.991 8.48874 131.086 9.84842 131.086Z" fill="#AAA5EB"/>
<path d="M28.4307 131.312C27.3043 131.312 26.3912 132.224 26.3912 133.35C26.3912 134.475 27.3043 135.387 28.4307 135.387C29.5571 135.387 30.4702 134.475 30.4702 133.35C30.4702 132.224 29.5571 131.312 28.4307 131.312Z" fill="#AAA5EB"/>
<path d="M47.013 131.538C47.9195 131.538 48.8259 132.444 48.8259 133.35C48.8259 134.255 47.9195 135.161 47.013 135.161C46.1066 135.161 45.2001 134.255 45.2001 133.35C45.2001 132.444 45.88 131.538 47.013 131.538Z" fill="#AAA5EB"/>
<path d="M65.5954 131.765C64.7193 131.765 64.0091 132.474 64.0091 133.35C64.0091 134.225 64.7193 134.934 65.5954 134.934C66.4714 134.934 67.1816 134.225 67.1816 133.35C67.1816 132.474 66.4714 131.765 65.5954 131.765Z" fill="#AAA5EB"/>
<path d="M84.1776 131.765C85.0841 131.765 85.7639 132.444 85.7639 133.35C85.7639 134.255 85.0841 134.934 84.1776 134.934C83.2712 134.934 82.5913 134.255 82.5913 133.35C82.5913 132.444 83.2712 131.765 84.1776 131.765Z" fill="#AAA5EB"/>
<path d="M102.76 131.991C103.44 131.991 104.12 132.67 104.12 133.35C104.12 134.029 103.44 134.708 102.76 134.708C102.08 134.708 101.4 134.029 101.4 133.35C101.4 132.444 101.853 131.991 102.76 131.991Z" fill="#AAA5EB"/>
<path d="M121.342 131.991C122.022 131.991 122.475 132.444 122.475 133.123C122.475 133.802 122.022 134.255 121.342 134.255C120.662 134.255 120.209 133.802 120.209 133.123C120.209 132.444 120.662 131.991 121.342 131.991Z" fill="#AAA5EB"/>
<path d="M139.924 132.218C140.604 132.218 141.057 132.67 141.057 133.35C141.057 134.029 140.604 134.482 139.924 134.482C139.244 134.482 138.791 134.029 138.791 133.35C138.791 132.67 139.244 132.218 139.924 132.218Z" fill="#AAA5EB"/>
<path d="M158.507 132.444C158.96 132.444 159.413 132.897 159.413 133.35C159.413 133.802 158.96 134.255 158.507 134.255C158.053 134.255 157.6 133.802 157.6 133.35C157.6 132.897 158.053 132.444 158.507 132.444Z" fill="#AAA5EB"/>
<path d="M177.089 132.444C177.542 132.444 177.769 132.67 177.769 133.123C177.769 133.576 177.542 133.802 177.089 133.802C176.635 133.802 176.409 133.576 176.409 133.123C176.409 132.897 176.635 132.444 177.089 132.444Z" fill="#AAA5EB"/>
<path d="M195.671 132.67C195.898 132.67 196.351 132.897 196.351 133.35C196.351 133.802 196.124 134.029 195.671 134.029C195.218 134.029 194.991 133.802 194.991 133.35C194.991 132.897 195.218 132.67 195.671 132.67Z" fill="#AAA5EB"/>
<path d="M214.253 132.897C214.48 132.897 214.707 133.123 214.707 133.35C214.707 133.576 214.48 133.802 214.253 133.802C214.027 133.802 213.8 133.576 213.8 133.35C213.8 133.123 214.027 132.897 214.253 132.897Z" fill="#AAA5EB"/>
<path d="M232.835 132.897C233.062 132.897 233.062 133.123 233.062 133.123L232.835 133.35C232.609 133.35 232.609 133.123 232.609 133.123C232.609 133.123 232.609 132.897 232.835 132.897Z" fill="#AAA5EB"/>
<path d="M251.417 133.122C251.417 133.122 251.645 133.122 251.417 133.122C251.645 133.35 251.417 133.35 251.417 133.35C251.417 133.35 251.189 133.35 251.417 133.122C251.189 133.122 251.417 133.122 251.417 133.122Z" fill="#AAA5EB"/>
<path d="M9.84842 114.785C10.9815 114.785 11.8879 115.69 11.8879 116.822C11.8879 117.954 10.9815 118.86 9.84842 118.86C8.71535 118.86 7.80892 117.954 7.80892 116.822C7.80892 115.69 8.48874 114.785 9.84842 114.785Z" fill="#AAA5EB"/>
<path d="M28.4307 114.785C27.3043 114.785 26.3912 115.697 26.3912 116.822C26.3912 117.948 27.3043 118.86 28.4307 118.86C29.5571 118.86 30.4702 117.948 30.4702 116.822C30.4702 115.697 29.5571 114.785 28.4307 114.785Z" fill="#AAA5EB"/>
<path d="M47.013 115.011C46.0118 115.011 45.2001 115.822 45.2001 116.822C45.2001 117.823 46.0118 118.634 47.013 118.634C48.0143 118.634 48.8259 117.823 48.8259 116.822C48.8259 115.822 48.0143 115.011 47.013 115.011Z" fill="#AAA5EB"/>
<path d="M65.5954 115.238C64.7193 115.238 64.0091 115.947 64.0091 116.822C64.0091 117.698 64.7193 118.407 65.5954 118.407C66.4714 118.407 67.1816 117.698 67.1816 116.822C67.1816 115.947 66.4714 115.238 65.5954 115.238Z" fill="#AAA5EB"/>
<path d="M82.4834 116.71C82.4213 117.583 83.0794 118.341 83.9533 118.403C84.8272 118.465 85.5859 117.808 85.648 116.935C85.7102 116.062 85.0521 115.304 84.1782 115.242C83.3043 115.179 82.5455 115.837 82.4834 116.71Z" fill="#AAA5EB"/>
<path d="M102.76 115.464C102.009 115.464 101.4 116.072 101.4 116.822C101.4 117.573 102.009 118.181 102.76 118.181C103.511 118.181 104.12 117.573 104.12 116.822C104.12 116.072 103.511 115.464 102.76 115.464Z" fill="#AAA5EB"/>
<path d="M121.342 115.69C120.716 115.69 120.209 116.197 120.209 116.822C120.209 117.448 120.716 117.954 121.342 117.954C121.968 117.954 122.475 117.448 122.475 116.822C122.475 116.197 121.968 115.69 121.342 115.69Z" fill="#AAA5EB"/>
<path d="M139.924 115.917C140.604 115.917 141.057 116.37 141.057 117.049C141.057 117.728 140.604 118.181 139.924 118.181C139.244 118.181 138.791 117.728 138.791 117.049C138.791 116.37 139.244 115.917 139.924 115.917Z" fill="#AAA5EB"/>
<path d="M158.507 115.917C158.006 115.917 157.6 116.322 157.6 116.822C157.6 117.323 158.006 117.728 158.507 117.728C159.007 117.728 159.413 117.323 159.413 116.822C159.413 116.322 159.007 115.917 158.507 115.917Z" fill="#AAA5EB"/>
<path d="M177.089 116.143C177.542 116.143 177.769 116.37 177.769 116.822C177.769 117.275 177.542 117.502 177.089 117.502C176.635 117.502 176.409 117.275 176.409 116.822C176.409 116.37 176.635 116.143 177.089 116.143Z" fill="#AAA5EB"/>
<path d="M195.671 116.37C195.898 116.37 196.351 116.596 196.351 117.049C196.351 117.502 196.124 117.728 195.671 117.728C195.218 117.728 194.991 117.502 194.991 117.049C194.991 116.596 195.218 116.37 195.671 116.37Z" fill="#AAA5EB"/>
<path d="M214.253 116.37C214.48 116.37 214.707 116.596 214.707 116.822C214.707 117.049 214.48 117.275 214.253 117.275C214.027 117.275 213.8 117.049 213.8 116.822C213.8 116.596 214.027 116.37 214.253 116.37Z" fill="#AAA5EB"/>
<path d="M232.835 116.596C233.062 116.596 233.062 116.822 233.062 116.822L232.835 117.049C232.609 117.049 232.609 116.822 232.609 116.822C232.609 116.822 232.609 116.596 232.835 116.596Z" fill="#AAA5EB"/>
<path d="M251.417 116.821C251.417 116.821 251.645 116.821 251.417 116.821C251.645 117.049 251.417 117.049 251.417 117.049C251.417 117.049 251.189 117.049 251.417 116.821C251.189 116.821 251.417 116.821 251.417 116.821Z" fill="#AAA5EB"/>
<path d="M9.84842 98.484C10.9815 98.484 11.8879 99.3896 11.8879 100.522C11.8879 101.654 10.9815 102.559 9.84842 102.559C8.71535 102.559 7.80892 101.654 7.80892 100.522C7.5823 99.3896 8.48874 98.484 9.84842 98.484Z" fill="#AAA5EB"/>
<path d="M28.4307 98.484C29.5638 98.484 30.4702 99.3896 30.4702 100.522C30.4702 101.654 29.5638 102.559 28.4307 102.559C27.2976 102.559 26.3912 101.654 26.3912 100.522C26.3912 99.3896 27.2976 98.484 28.4307 98.484Z" fill="#AAA5EB"/>
<path d="M47.013 98.7104C47.9195 98.7104 48.8259 99.616 48.8259 100.522C48.8259 101.427 47.9195 102.333 47.013 102.333C46.1066 102.333 45.2001 101.427 45.2001 100.522C45.2001 99.3896 45.88 98.7104 47.013 98.7104Z" fill="#AAA5EB"/>
<path d="M65.5954 98.9368C66.5018 98.9368 67.1816 99.616 67.1816 100.522C67.1816 101.427 66.5018 102.106 65.5954 102.106C64.6889 102.106 64.0091 101.427 64.0091 100.522C63.7824 99.616 64.6889 98.9368 65.5954 98.9368Z" fill="#AAA5EB"/>
<path d="M84.1776 98.9368C85.0841 98.9368 85.7639 99.616 85.7639 100.522C85.7639 101.427 85.0841 102.106 84.1776 102.106C83.2712 102.106 82.5913 101.427 82.5913 100.522C82.5913 99.616 83.2712 98.9368 84.1776 98.9368Z" fill="#AAA5EB"/>
<path d="M102.76 99.1632C103.44 99.1632 104.12 99.8424 104.12 100.522C104.12 101.201 103.44 101.88 102.76 101.88C102.08 101.88 101.4 101.201 101.4 100.522C101.4 99.8424 101.853 99.1632 102.76 99.1632Z" fill="#AAA5EB"/>
<path d="M121.342 99.3896C122.022 99.3896 122.475 99.8424 122.475 100.522C122.475 101.201 122.022 101.654 121.342 101.654C120.662 101.654 120.209 101.201 120.209 100.522C119.982 99.8424 120.662 99.3896 121.342 99.3896Z" fill="#AAA5EB"/>
<path d="M139.924 99.3896C140.604 99.3896 141.057 99.8424 141.057 100.522C141.057 101.201 140.604 101.654 139.924 101.654C139.244 101.654 138.791 101.201 138.791 100.522C138.791 99.8424 139.244 99.3896 139.924 99.3896Z" fill="#AAA5EB"/>
<path d="M158.507 99.616C158.96 99.616 159.413 100.069 159.413 100.522C159.413 100.974 158.96 101.427 158.507 101.427C158.053 101.427 157.6 100.974 157.6 100.522C157.6 100.069 158.053 99.616 158.507 99.616Z" fill="#AAA5EB"/>
<path d="M177.089 99.8424C177.542 99.8424 177.769 100.069 177.769 100.522C177.769 100.974 177.542 101.201 177.089 101.201C176.635 101.201 176.409 100.974 176.409 100.522C176.409 100.069 176.635 99.8424 177.089 99.8424Z" fill="#AAA5EB"/>
<path d="M195.671 99.8424C195.898 99.8424 196.351 100.069 196.351 100.522C196.351 100.748 196.124 101.201 195.671 101.201C195.218 101.201 194.991 100.974 194.991 100.522C194.991 100.069 195.218 99.8424 195.671 99.8424Z" fill="#AAA5EB"/>
<path d="M214.253 100.069C214.48 100.069 214.707 100.295 214.707 100.522C214.707 100.748 214.48 100.974 214.253 100.974C214.027 100.974 213.8 100.748 213.8 100.522C213.8 100.295 214.027 100.069 214.253 100.069Z" fill="#AAA5EB"/>
<path d="M232.835 100.295C233.062 100.295 233.062 100.522 233.062 100.522C233.062 100.748 232.835 100.748 232.835 100.748C232.609 100.748 232.609 100.522 232.609 100.522C232.609 100.295 232.609 100.295 232.835 100.295Z" fill="#AAA5EB"/>
<path d="M251.417 100.294C251.417 100.294 251.645 100.522 251.417 100.294C251.645 100.522 251.417 100.522 251.417 100.522C251.417 100.522 251.189 100.522 251.417 100.294C251.189 100.522 251.417 100.294 251.417 100.294Z" fill="#AAA5EB"/>
<path d="M9.84842 81.9568C10.9815 81.9568 11.8879 82.8624 11.8879 83.9944C11.8879 85.1264 10.9815 86.032 9.84842 86.032C8.71535 86.032 7.80892 85.1264 7.80892 83.9944C7.5823 82.8624 8.48874 81.9568 9.84842 81.9568Z" fill="#AAA5EB"/>
<path d="M28.4307 82.1832C27.3043 82.1832 26.3912 83.0955 26.3912 84.2208C26.3912 85.3461 27.3043 86.2584 28.4307 86.2584C29.5571 86.2584 30.4702 85.3461 30.4702 84.2208C30.4702 83.0955 29.5571 82.1832 28.4307 82.1832Z" fill="#AAA5EB"/>
<path d="M47.013 82.4096C47.9195 82.4096 48.8259 83.3152 48.8259 84.2208C48.8259 85.1264 47.9195 86.032 47.013 86.032C46.1066 86.032 45.2001 85.1264 45.2001 84.2208C45.2001 83.0888 45.88 82.4096 47.013 82.4096Z" fill="#AAA5EB"/>
<path d="M65.5954 82.4096C66.5018 82.4096 67.1816 83.0888 67.1816 83.9944C67.1816 84.9 66.5018 85.5792 65.5954 85.5792C64.6889 85.5792 64.0091 84.9 64.0091 83.9944C63.7824 83.0888 64.6889 82.4096 65.5954 82.4096Z" fill="#AAA5EB"/>
<path d="M84.1776 82.636C85.0841 82.636 85.7639 83.3152 85.7639 84.2208C85.7639 85.1264 85.0841 85.8056 84.1776 85.8056C83.2712 85.8056 82.5913 85.1264 82.5913 84.2208C82.5913 83.3152 83.2712 82.636 84.1776 82.636Z" fill="#AAA5EB"/>
<path d="M102.76 82.8624C103.44 82.8624 104.12 83.5416 104.12 84.2208C104.12 84.9 103.44 85.5792 102.76 85.5792C102.08 85.5792 101.4 84.9 101.4 84.2208C101.4 83.3152 101.853 82.8624 102.76 82.8624Z" fill="#AAA5EB"/>
<path d="M121.342 82.8624C122.022 82.8624 122.475 83.3152 122.475 83.9944C122.475 84.6736 122.022 85.1264 121.342 85.1264C120.662 85.1264 120.209 84.6736 120.209 83.9944C119.982 83.5416 120.662 82.8624 121.342 82.8624Z" fill="#AAA5EB"/>
<path d="M139.924 83.0888C140.604 83.0888 141.057 83.5416 141.057 84.2208C141.057 84.9 140.604 85.3528 139.924 85.3528C139.244 85.3528 138.791 84.9 138.791 84.2208C138.791 83.5416 139.244 83.0888 139.924 83.0888Z" fill="#AAA5EB"/>
<path d="M158.507 83.3152C158.96 83.3152 159.413 83.768 159.413 84.2208C159.413 84.6736 158.96 85.1264 158.507 85.1264C158.053 85.1264 157.6 84.6736 157.6 84.2208C157.6 83.768 158.053 83.3152 158.507 83.3152Z" fill="#AAA5EB"/>
<path d="M177.089 83.3152C177.542 83.3152 177.769 83.5416 177.769 83.9944C177.769 84.4472 177.542 84.6736 177.089 84.6736C176.635 84.6736 176.409 84.4472 176.409 83.9944C176.409 83.768 176.635 83.3152 177.089 83.3152Z" fill="#AAA5EB"/>
<path d="M195.671 83.5416C195.898 83.5416 196.351 83.768 196.351 84.2208C196.351 84.6736 196.124 84.9 195.671 84.9C195.218 84.9 194.991 84.6736 194.991 84.2208C194.991 83.768 195.218 83.5416 195.671 83.5416Z" fill="#AAA5EB"/>
<path d="M214.253 83.768C214.48 83.768 214.707 83.9944 214.707 84.2208C214.707 84.4472 214.48 84.6736 214.253 84.6736C214.027 84.6736 213.8 84.4472 213.8 84.2208C213.8 83.768 214.027 83.768 214.253 83.768Z" fill="#AAA5EB"/>
<path d="M232.835 83.768C233.062 83.768 233.062 83.9944 233.062 83.9944L232.835 84.2208C232.609 84.2208 232.609 83.9944 232.609 83.9944C232.609 83.9944 232.609 83.768 232.835 83.768Z" fill="#AAA5EB"/>
<path d="M251.417 83.993C251.417 83.993 251.645 83.993 251.417 83.993C251.645 84.2208 251.417 84.2208 251.417 84.2208C251.417 84.2208 251.189 84.2208 251.417 83.993C251.189 83.993 251.417 83.993 251.417 83.993Z" fill="#AAA5EB"/>
<path d="M9.84842 65.656C8.72203 65.656 7.80892 66.5683 7.80892 67.6936C7.80892 68.819 8.72203 69.7312 9.84842 69.7312C10.9748 69.7312 11.8879 68.819 11.8879 67.6936C11.8879 66.5683 10.9748 65.656 9.84842 65.656Z" fill="#AAA5EB"/>
<path d="M28.4307 65.656C27.3043 65.656 26.3912 66.5683 26.3912 67.6936C26.3912 68.819 27.3043 69.7312 28.4307 69.7312C29.5571 69.7312 30.4702 68.819 30.4702 67.6936C30.4702 66.5683 29.5571 65.656 28.4307 65.656Z" fill="#AAA5EB"/>
<path d="M47.013 65.8824C46.0118 65.8824 45.2001 66.6933 45.2001 67.6936C45.2001 68.6939 46.0118 69.5048 47.013 69.5048C48.0143 69.5048 48.8259 68.6939 48.8259 67.6936C48.8259 66.6933 48.0143 65.8824 47.013 65.8824Z" fill="#AAA5EB"/>
<path d="M65.5954 66.1088C64.7193 66.1088 64.0091 66.8184 64.0091 67.6936C64.0091 68.5689 64.7193 69.2784 65.5954 69.2784C66.4714 69.2784 67.1816 68.5689 67.1816 67.6936C67.1816 66.8184 66.4714 66.1088 65.5954 66.1088Z" fill="#AAA5EB"/>
<path d="M82.5107 67.5551C82.4486 68.4281 83.1067 69.1862 83.9806 69.2482C84.8545 69.3103 85.6133 68.6528 85.6754 67.7797C85.7375 66.9067 85.0794 66.1486 84.2055 66.0866C83.3316 66.0245 82.5728 66.682 82.5107 67.5551Z" fill="#AAA5EB"/>
<path d="M102.76 66.3352C102.009 66.3352 101.4 66.9434 101.4 67.6936C101.4 68.4439 102.009 69.052 102.76 69.052C103.511 69.052 104.12 68.4439 104.12 67.6936C104.12 66.9434 103.511 66.3352 102.76 66.3352Z" fill="#AAA5EB"/>
<path d="M121.342 66.5616C120.716 66.5616 120.209 67.0684 120.209 67.6936C120.209 68.3188 120.716 68.8256 121.342 68.8256C121.968 68.8256 122.475 68.3188 122.475 67.6936C122.475 67.0684 121.968 66.5616 121.342 66.5616Z" fill="#AAA5EB"/>
<path d="M139.925 66.5616C140.604 66.5616 141.058 67.0144 141.058 67.6936C141.058 68.3728 140.604 68.8256 139.925 68.8256C139.245 68.8256 138.791 68.3728 138.791 67.6936C138.791 67.0144 139.245 66.5616 139.925 66.5616Z" fill="#AAA5EB"/>
<path d="M158.507 66.788C158.006 66.788 157.6 67.1935 157.6 67.6936C157.6 68.1938 158.006 68.5992 158.507 68.5992C159.007 68.5992 159.413 68.1938 159.413 67.6936C159.413 67.1935 159.007 66.788 158.507 66.788Z" fill="#AAA5EB"/>
<path d="M177.089 67.0144C177.542 67.0144 177.769 67.2408 177.769 67.6936C177.769 68.1464 177.542 68.3728 177.089 68.3728C176.635 68.3728 176.409 68.1464 176.409 67.6936C176.409 67.2408 176.635 67.0144 177.089 67.0144Z" fill="#AAA5EB"/>
<path d="M195.671 67.0144C195.898 67.0144 196.351 67.2408 196.351 67.6936C196.351 68.1464 196.124 68.3728 195.671 68.3728C195.218 68.3728 194.991 68.1464 194.991 67.6936C194.991 67.2408 195.218 67.0144 195.671 67.0144Z" fill="#AAA5EB"/>
<path d="M214.253 67.2408C214.48 67.2408 214.707 67.4672 214.707 67.6936C214.707 67.92 214.48 68.1464 214.253 68.1464C214.027 68.1464 213.8 67.92 213.8 67.6936C213.8 67.4672 214.027 67.2408 214.253 67.2408Z" fill="#AAA5EB"/>
<path d="M232.836 67.4673C233.062 67.4673 233.063 67.6936 233.063 67.6936L232.836 67.92C232.609 67.92 232.609 67.6936 232.609 67.6936C232.609 67.6936 232.609 67.4673 232.836 67.4673Z" fill="#AAA5EB"/>
<path d="M251.418 67.4673C251.293 67.4673 251.191 67.5686 251.191 67.6936C251.191 67.8187 251.293 67.92 251.418 67.92C251.543 67.92 251.645 67.8187 251.645 67.6936C251.645 67.5686 251.543 67.4673 251.418 67.4673Z" fill="#AAA5EB"/>
<path d="M9.84842 49.1288C10.9815 49.1288 11.8879 50.0344 11.8879 51.1664C11.8879 52.2984 10.9815 53.204 9.84842 53.204C8.71535 53.204 7.80892 52.2984 7.80892 51.1664C7.5823 50.2608 8.48874 49.1288 9.84842 49.1288Z" fill="#AAA5EB"/>
<path d="M28.4307 49.3552C27.3043 49.3552 26.3912 50.2675 26.3912 51.3928C26.3912 52.5181 27.3043 53.4304 28.4307 53.4304C29.5571 53.4304 30.4702 52.5181 30.4702 51.3928C30.4702 50.2675 29.5571 49.3552 28.4307 49.3552Z" fill="#AAA5EB"/>
<path d="M47.013 49.5816C47.9195 49.5816 48.8259 50.4872 48.8259 51.3928C48.8259 52.2984 47.9195 53.204 47.013 53.204C46.1066 53.204 45.2001 52.2984 45.2001 51.3928C45.2001 50.2608 45.88 49.5816 47.013 49.5816Z" fill="#AAA5EB"/>
<path d="M65.5954 49.5816C66.5018 49.5816 67.1816 50.2608 67.1816 51.1664C67.1816 52.072 66.5018 52.7512 65.5954 52.7512C64.6889 52.7512 64.0091 52.072 64.0091 51.1664C63.7824 50.4872 64.6889 49.5816 65.5954 49.5816Z" fill="#AAA5EB"/>
<path d="M84.1776 49.808C85.0841 49.808 85.7639 50.4872 85.7639 51.3928C85.7639 52.2984 85.0841 52.9776 84.1776 52.9776C83.2712 52.9776 82.5913 52.2984 82.5913 51.3928C82.5913 50.4872 83.2712 49.808 84.1776 49.808Z" fill="#AAA5EB"/>
<path d="M102.76 50.0344C103.44 50.0344 104.12 50.7136 104.12 51.3928C104.12 52.072 103.44 52.7512 102.76 52.7512C102.08 52.7512 101.4 52.072 101.4 51.3928C101.4 50.4872 101.853 50.0344 102.76 50.0344Z" fill="#AAA5EB"/>
<path d="M121.342 50.0344C122.022 50.0344 122.475 50.4872 122.475 51.1664C122.475 51.8456 122.022 52.2984 121.342 52.2984C120.662 52.2984 120.209 51.8456 120.209 51.1664C119.982 50.7136 120.662 50.0344 121.342 50.0344Z" fill="#AAA5EB"/>
<path d="M139.924 50.2608C140.604 50.2608 141.057 50.7136 141.057 51.3928C141.057 52.072 140.604 52.5248 139.924 52.5248C139.244 52.5248 138.791 52.072 138.791 51.3928C138.791 50.7136 139.244 50.2608 139.924 50.2608Z" fill="#AAA5EB"/>
<path d="M158.507 50.4872C158.96 50.4872 159.413 50.94 159.413 51.3928C159.413 51.8456 158.96 52.2984 158.507 52.2984C158.053 52.2984 157.6 51.8456 157.6 51.3928C157.6 50.94 158.053 50.4872 158.507 50.4872Z" fill="#AAA5EB"/>
<path d="M177.089 50.4872C177.542 50.4872 177.769 50.7136 177.769 51.1664C177.769 51.6192 177.542 51.8456 177.089 51.8456C176.635 51.8456 176.409 51.6192 176.409 51.1664C176.409 50.94 176.635 50.4872 177.089 50.4872Z" fill="#AAA5EB"/>
<path d="M195.671 50.7136C195.898 50.7136 196.351 50.94 196.351 51.3928C196.351 51.8456 196.124 52.072 195.671 52.072C195.218 52.072 194.991 51.8456 194.991 51.3928C194.991 50.94 195.218 50.7136 195.671 50.7136Z" fill="#AAA5EB"/>
<path d="M214.253 50.94C214.48 50.94 214.707 51.1664 214.707 51.3928C214.707 51.6192 214.48 51.8456 214.253 51.8456C214.027 51.8456 213.8 51.6192 213.8 51.3928C213.8 51.1664 214.027 50.94 214.253 50.94Z" fill="#AAA5EB"/>
<path d="M232.835 50.94C233.062 50.94 233.062 51.1664 233.062 51.1664L232.835 51.3928C232.609 51.3928 232.609 51.1664 232.609 51.1664C232.609 51.1664 232.609 50.94 232.835 50.94Z" fill="#AAA5EB"/>
<path d="M251.417 51.165C251.417 51.165 251.645 51.165 251.417 51.165C251.645 51.3928 251.417 51.3928 251.417 51.3928C251.417 51.3928 251.189 51.3928 251.417 51.165C251.189 51.165 251.417 51.165 251.417 51.165Z" fill="#AAA5EB"/>
<path d="M9.84842 32.828C10.9815 32.828 11.8879 33.7336 11.8879 34.8656C11.8879 35.9976 10.9815 36.9032 9.84842 36.9032C8.71535 36.9032 7.80892 35.9976 7.80892 34.8656C7.80892 33.7336 8.48874 32.828 9.84842 32.828Z" fill="#AAA5EB"/>
<path d="M28.4307 32.828C27.3043 32.828 26.3912 33.7403 26.3912 34.8656C26.3912 35.991 27.3043 36.9032 28.4307 36.9032C29.5571 36.9032 30.4702 35.991 30.4702 34.8656C30.4702 33.7403 29.5571 32.828 28.4307 32.828Z" fill="#AAA5EB"/>
<path d="M47.013 33.0544C47.9195 33.0544 48.8259 33.96 48.8259 34.8656C48.8259 35.7712 47.9195 36.6768 47.013 36.6768C46.1066 36.6768 45.2001 35.7712 45.2001 34.8656C45.2001 33.96 45.88 33.0544 47.013 33.0544Z" fill="#AAA5EB"/>
<path d="M65.5954 33.2808C64.7193 33.2808 64.0091 33.9904 64.0091 34.8656C64.0091 35.7409 64.7193 36.4504 65.5954 36.4504C66.4714 36.4504 67.1816 35.7409 67.1816 34.8656C67.1816 33.9904 66.4714 33.2808 65.5954 33.2808Z" fill="#AAA5EB"/>
<path d="M84.1776 33.5072C85.0841 33.5072 85.7639 34.1864 85.7639 35.092C85.7639 35.9976 85.0841 36.6768 84.1776 36.6768C83.2712 36.6768 82.5913 35.9976 82.5913 35.092C82.5913 34.1864 83.2712 33.5072 84.1776 33.5072Z" fill="#AAA5EB"/>
<path d="M102.76 33.5072C102.009 33.5072 101.4 34.1154 101.4 34.8656C101.4 35.6158 102.009 36.224 102.76 36.224C103.511 36.224 104.12 35.6158 104.12 34.8656C104.12 34.1154 103.511 33.5072 102.76 33.5072Z" fill="#AAA5EB"/>
<path d="M121.342 33.7336C120.716 33.7336 120.209 34.2404 120.209 34.8656C120.209 35.4908 120.716 35.9976 121.342 35.9976C121.968 35.9976 122.475 35.4908 122.475 34.8656C122.475 34.2404 121.968 33.7336 121.342 33.7336Z" fill="#AAA5EB"/>
<path d="M139.924 33.96C140.604 33.96 141.057 34.4128 141.057 35.092C141.057 35.7712 140.604 36.224 139.924 36.224C139.244 36.224 138.791 35.7712 138.791 35.092C138.791 34.4128 139.244 33.96 139.924 33.96Z" fill="#AAA5EB"/>
<path d="M158.507 33.96C158.006 33.96 157.6 34.3655 157.6 34.8656C157.6 35.3658 158.006 35.7712 158.507 35.7712C159.007 35.7712 159.413 35.3658 159.413 34.8656C159.413 34.3655 159.007 33.96 158.507 33.96Z" fill="#AAA5EB"/>
<path d="M177.089 34.1864C177.542 34.1864 177.769 34.4128 177.769 34.8656C177.769 35.3184 177.542 35.5448 177.089 35.5448C176.635 35.5448 176.409 35.3184 176.409 34.8656C176.409 34.6392 176.635 34.1864 177.089 34.1864Z" fill="#AAA5EB"/>
<path d="M195.671 34.4128C195.898 34.4128 196.351 34.6392 196.351 35.092C196.351 35.5448 196.124 35.7712 195.671 35.7712C195.218 35.7712 194.991 35.5448 194.991 35.092C194.991 34.6392 195.218 34.4128 195.671 34.4128Z" fill="#AAA5EB"/>
<path d="M214.253 34.4128C214.48 34.4128 214.707 34.6392 214.707 34.8656C214.707 35.092 214.48 35.3184 214.253 35.3184C214.027 35.3184 213.8 35.092 213.8 34.8656C213.8 34.6392 214.027 34.4128 214.253 34.4128Z" fill="#AAA5EB"/>
<path d="M232.835 34.6392C233.062 34.6392 233.062 34.8656 233.062 34.8656L232.835 35.092C232.609 35.092 232.609 34.8656 232.609 34.8656C232.609 34.8656 232.609 34.6392 232.835 34.6392Z" fill="#AAA5EB"/>
<path d="M251.417 34.8642C251.417 34.8642 251.645 34.8642 251.417 34.8642C251.645 35.092 251.417 35.092 251.417 35.092C251.417 35.092 251.189 35.092 251.417 34.8642C251.189 34.8642 251.417 34.8642 251.417 34.8642Z" fill="#AAA5EB"/>
<path d="M9.84842 16.5272C10.9815 16.5272 11.8879 17.4328 11.8879 18.5648C11.8879 19.6968 10.9815 20.6024 9.84842 20.6024C8.71535 20.6024 7.80892 19.6968 7.80892 18.5648C7.80892 17.4328 8.48874 16.5272 9.84842 16.5272Z" fill="#AAA5EB"/>
<path d="M28.4307 16.5272C27.3043 16.5272 26.3912 17.4395 26.3912 18.5648C26.3912 19.6901 27.3043 20.6024 28.4307 20.6024C29.5571 20.6024 30.4702 19.6901 30.4702 18.5648C30.4702 17.4395 29.5571 16.5272 28.4307 16.5272Z" fill="#AAA5EB"/>
<path d="M47.013 16.7536C47.9195 16.7536 48.8259 17.6592 48.8259 18.5648C48.8259 19.4704 47.9195 20.376 47.013 20.376C46.1066 20.376 45.2001 19.4704 45.2001 18.5648C45.2001 17.6592 45.88 16.7536 47.013 16.7536Z" fill="#AAA5EB"/>
<path d="M65.5954 16.98C64.7193 16.98 64.0091 17.6896 64.0091 18.5648C64.0091 19.4401 64.7193 20.1496 65.5954 20.1496C66.4714 20.1496 67.1816 19.4401 67.1816 18.5648C67.1816 17.6896 66.4714 16.98 65.5954 16.98Z" fill="#AAA5EB"/>
<path d="M84.1776 16.98C85.0841 16.98 85.7639 17.6592 85.7639 18.5648C85.7639 19.4704 85.0841 20.1496 84.1776 20.1496C83.2712 20.1496 82.5913 19.4704 82.5913 18.5648C82.5913 17.6592 83.2712 16.98 84.1776 16.98Z" fill="#AAA5EB"/>
<path d="M102.76 17.2064C102.009 17.2064 101.4 17.8146 101.4 18.5648C101.4 19.315 102.009 19.9232 102.76 19.9232C103.511 19.9232 104.12 19.315 104.12 18.5648C104.12 17.8146 103.511 17.2064 102.76 17.2064Z" fill="#AAA5EB"/>
<path d="M121.342 17.4328C120.716 17.4328 120.209 17.9396 120.209 18.5648C120.209 19.19 120.716 19.6968 121.342 19.6968C121.968 19.6968 122.475 19.19 122.475 18.5648C122.475 17.9396 121.968 17.4328 121.342 17.4328Z" fill="#AAA5EB"/>
<path d="M139.924 17.4328C140.604 17.4328 141.057 17.8856 141.057 18.5648C141.057 19.244 140.604 19.6968 139.924 19.6968C139.244 19.6968 138.791 19.244 138.791 18.5648C138.791 17.8856 139.244 17.4328 139.924 17.4328Z" fill="#AAA5EB"/>
<path d="M158.507 17.6592C158.006 17.6592 157.6 18.0647 157.6 18.5648C157.6 19.065 158.006 19.4704 158.507 19.4704C159.007 19.4704 159.413 19.065 159.413 18.5648C159.413 18.0647 159.007 17.6592 158.507 17.6592Z" fill="#AAA5EB"/>
<path d="M177.089 17.8856C177.542 17.8856 177.769 18.112 177.769 18.5648C177.769 19.0176 177.542 19.244 177.089 19.244C176.635 19.244 176.409 19.0176 176.409 18.5648C176.409 18.112 176.635 17.8856 177.089 17.8856Z" fill="#AAA5EB"/>
<path d="M195.671 17.8856C195.898 17.8856 196.351 18.112 196.351 18.5648C196.351 19.0176 196.124 19.244 195.671 19.244C195.218 19.244 194.991 19.0176 194.991 18.5648C194.991 18.112 195.218 17.8856 195.671 17.8856Z" fill="#AAA5EB"/>
<path d="M214.253 18.112C214.48 18.112 214.707 18.3384 214.707 18.5648C214.707 18.7912 214.48 19.0176 214.253 19.0176C214.027 19.0176 213.8 18.7912 213.8 18.5648C213.8 18.3384 214.027 18.112 214.253 18.112Z" fill="#AAA5EB"/>
<path d="M232.835 18.3384C233.062 18.3384 233.062 18.5648 233.062 18.5648L232.835 18.7912C232.609 18.7912 232.609 18.5648 232.609 18.5648C232.609 18.5648 232.609 18.3384 232.835 18.3384Z" fill="#AAA5EB"/>
<path d="M251.417 18.337C251.417 18.337 251.645 18.5648 251.417 18.337C251.645 18.5648 251.417 18.5648 251.417 18.5648C251.417 18.5648 251.189 18.5648 251.417 18.337C251.189 18.5648 251.417 18.337 251.417 18.337Z" fill="#AAA5EB"/>
<path d="M9.84842 1.88952e-05C10.9815 1.89942e-05 11.8879 0.905622 11.8879 2.03762C11.8879 3.16962 10.9815 4.07523 9.84842 4.07523C8.71535 4.07523 7.80892 3.16962 7.80892 2.03762C7.5823 0.905622 8.48874 1.87763e-05 9.84842 1.88952e-05Z" fill="#AAA5EB"/>
<path d="M28.4307 0.226398C27.3043 0.226398 26.3912 1.13867 26.3912 2.264C26.3912 3.38934 27.3043 4.3016 28.4307 4.30161C29.5571 4.30161 30.4702 3.38934 30.4702 2.264C30.4702 1.13867 29.5571 0.226398 28.4307 0.226398Z" fill="#AAA5EB"/>
<path d="M47.013 0.452812C47.9195 0.452812 48.8259 1.35842 48.8259 2.26402C48.8259 3.16962 47.9195 4.07523 47.013 4.07523C46.1066 4.07523 45.2001 3.16962 45.2001 2.26402C45.2001 1.13202 45.88 0.452812 47.013 0.452812Z" fill="#AAA5EB"/>
<path d="M65.5954 0.67923C64.7193 0.67923 64.0091 1.38876 64.0091 2.26402C64.0091 3.13928 64.7193 3.84882 65.5954 3.84882C66.4714 3.84882 67.1816 3.13928 67.1816 2.26402C67.1816 1.38876 66.4714 0.67923 65.5954 0.67923Z" fill="#AAA5EB"/>
<path d="M84.1776 0.67923C85.0841 0.67923 85.7639 1.35842 85.7639 2.26402C85.7639 3.16962 85.0841 3.84882 84.1776 3.84882C83.2712 3.84882 82.5913 3.16962 82.5913 2.26402C82.5913 1.35842 83.2712 0.67923 84.1776 0.67923Z" fill="#AAA5EB"/>
<path d="M102.76 0.905613C103.44 0.905613 104.12 1.58481 104.12 2.26401C104.12 2.94321 103.44 3.62241 102.76 3.62241C102.08 3.62241 101.4 2.94321 101.4 2.26401C101.4 1.35841 101.853 0.905613 102.76 0.905613Z" fill="#AAA5EB"/>
<path d="M121.342 0.905617C122.022 0.905617 122.475 1.35842 122.475 2.03762C122.475 2.71682 122.022 3.16962 121.342 3.16962C120.662 3.16962 120.209 2.71682 120.209 2.03762C120.209 1.35842 120.662 0.905617 121.342 0.905617Z" fill="#AAA5EB"/>
<path d="M139.924 1.13203C140.604 1.13203 141.057 1.58483 141.057 2.26403C141.057 2.94323 140.604 3.39603 139.924 3.39603C139.244 3.39603 138.791 2.94323 138.791 2.26403C138.791 1.58483 139.244 1.13203 139.924 1.13203Z" fill="#AAA5EB"/>
<path d="M158.507 1.35841C158.96 1.35841 159.413 1.81121 159.413 2.26401C159.413 2.71681 158.96 3.16962 158.507 3.16962C158.053 3.16962 157.6 2.71681 157.6 2.26401C157.6 1.81121 158.053 1.35841 158.507 1.35841Z" fill="#AAA5EB"/>
<path d="M177.089 1.35843C177.542 1.35843 177.769 1.58484 177.769 2.03764C177.769 2.49044 177.542 2.71683 177.089 2.71683C176.635 2.71683 176.409 2.49044 176.409 2.03764C176.409 1.81124 176.635 1.35843 177.089 1.35843Z" fill="#AAA5EB"/>
<path d="M195.671 1.58482C195.898 1.58482 196.351 1.81123 196.351 2.26403C196.351 2.71683 196.124 2.94324 195.671 2.94324C195.218 2.94324 194.991 2.71683 194.991 2.26403C194.991 1.81123 195.218 1.58482 195.671 1.58482Z" fill="#AAA5EB"/>
<path d="M214.253 1.81124C214.48 1.81124 214.707 2.03763 214.707 2.26403C214.707 2.49043 214.48 2.71683 214.253 2.71683C214.027 2.71683 213.8 2.49043 213.8 2.26403C213.8 2.03763 214.027 1.81124 214.253 1.81124Z" fill="#AAA5EB"/>
<path d="M232.835 1.81124C233.062 1.81124 233.062 2.03764 233.062 2.03764L232.835 2.26404C232.609 2.26404 232.609 2.03764 232.609 2.03764C232.609 2.03764 232.609 1.81124 232.835 1.81124Z" fill="#AAA5EB"/>
<path d="M251.417 2.0362C251.417 2.0362 251.645 2.0362 251.417 2.0362C251.645 2.26404 251.417 2.26404 251.417 2.26404C251.417 2.26404 251.189 2.26404 251.417 2.0362C251.189 2.0362 251.417 2.0362 251.417 2.0362Z" fill="#AAA5EB"/>
</g>
<defs>
<clipPath id="clip0_95_4829">
<rect width="281" height="283" fill="white" transform="translate(270 283) rotate(-180)"/>
</clipPath>
</defs>
</svg>
