<svg width="45" height="45" viewBox="0 0 45 45" fill="none" xmlns="http://www.w3.org/2000/svg">
<path d="M5.65034 22.4825L16.7241 30.7483C16.7417 30.7483 16.7417 30.7659 16.7592 30.7659L20.8658 33.8195C21.2168 34.0827 21.7082 33.837 21.7082 33.3983L21.7257 10.6365C21.6906 10.2329 21.638 9.81169 21.5502 9.40805C21.4625 9.02196 21.3396 8.65342 21.1642 8.33752C21.4625 10.5663 20.1989 13.1637 18.0579 14.866C17.584 15.2521 16.9347 15.6732 16.2152 15.9716C15.443 16.305 13.1089 17.1123 13.1089 17.1123L6.07153 19.657C4.86061 20.0957 4.61492 21.7103 5.65034 22.4825Z" fill="#554FD8"/>
<path d="M16.6363 15.7785C16.6539 15.761 16.689 15.761 16.7065 15.7434C16.7416 15.7259 16.7767 15.7083 16.8294 15.6732C16.882 15.6557 16.9171 15.6206 16.9698 15.603C16.9873 15.5855 17.0224 15.5679 17.04 15.5679C17.0926 15.5328 17.1628 15.4977 17.2155 15.4626C17.233 15.4451 17.2506 15.4451 17.2681 15.4275C17.3208 15.3924 17.3734 15.3573 17.4436 15.3222C17.4787 15.3047 17.4963 15.2871 17.5314 15.2696C17.5665 15.2345 17.6191 15.2169 17.6542 15.1818C17.7069 15.1467 17.7595 15.0941 17.8297 15.059C17.8473 15.059 17.8473 15.0414 17.8648 15.0414C17.935 14.9888 18.0052 14.9361 18.0754 14.8835C20.2165 13.1812 21.48 10.5838 21.1817 8.35504C21.0588 8.14445 20.9009 7.9514 20.7254 7.81101L17.0751 5.10837C16.7241 4.84513 16.2152 5.09082 16.2152 5.52956V11.9001C16.2152 15.9014 13.1089 17.1123 13.1089 17.1123C13.1089 17.1123 15.4605 16.3225 16.2152 15.9891C16.3556 15.9189 16.496 15.8487 16.6363 15.7785Z" fill="#7770E0"/>
<path d="M39.4857 21.6576L28.4119 13.3918C28.3944 13.3918 28.3944 13.3742 28.3768 13.3742L24.2702 10.3206C23.9192 10.0573 23.4279 10.303 23.4279 10.7418V33.5036C23.463 33.9072 23.5156 34.3284 23.6034 34.732C23.6911 35.1181 23.8139 35.4867 23.9894 35.8026C23.6911 33.5738 24.9547 30.9764 27.0957 29.2741C27.5696 28.888 28.2189 28.4668 28.9384 28.1685C29.693 27.8351 32.0447 27.0453 32.0447 27.0453L39.0821 24.5006C40.293 24.0444 40.5211 22.4298 39.4857 21.6576Z" fill="#554FD8"/>
<path d="M28.5174 28.3615C28.4999 28.3791 28.4648 28.3791 28.4472 28.3966C28.4121 28.4142 28.377 28.4317 28.3244 28.4668C28.2717 28.4844 28.2366 28.5195 28.184 28.537C28.1664 28.5546 28.1313 28.5721 28.1138 28.5721C28.0611 28.6072 27.9909 28.6423 27.9383 28.6774C27.9207 28.695 27.9032 28.695 27.8856 28.7125C27.833 28.7476 27.7803 28.7827 27.7101 28.8178C27.675 28.8354 27.6575 28.8529 27.6224 28.8705C27.5873 28.9056 27.5346 28.9231 27.4995 28.9582C27.4469 28.9933 27.3942 29.046 27.324 29.0811C27.3065 29.0811 27.3065 29.0986 27.2889 29.0986C27.2187 29.1513 27.1485 29.2039 27.0783 29.2566C24.9373 30.9589 23.6737 33.5562 23.9721 35.785C24.0949 35.9956 24.2529 36.1886 24.4284 36.329L28.0611 39.0317C28.4121 39.2949 28.921 39.0492 28.921 38.6105V32.24C28.921 28.2562 32.0273 27.0278 32.0273 27.0278C32.0273 27.0278 29.6757 27.8175 28.921 28.1509C28.7982 28.2211 28.6578 28.2913 28.5174 28.3615Z" fill="#7770E0"/>
<path opacity="0.2" d="M0 6C0 2.68629 2.68629 0 6 0H45V39C45 42.3137 42.3137 45 39 45H0V6Z" fill="#554FD8"/>
</svg>
