<svg width="32" height="32" viewBox="0 0 32 32" fill="none" xmlns="http://www.w3.org/2000/svg">
<circle cx="16" cy="16" r="16" fill="url(#paint0_linear_289_7747)"/>
<path d="M6.13414 16.3751L12.6349 21.2274C12.6452 21.2274 12.6452 21.2378 12.6555 21.2378L15.0662 23.0303C15.2722 23.1849 15.5607 23.0406 15.5607 22.7831L15.571 9.42107C15.5504 9.18412 15.5195 8.93686 15.468 8.69991C15.4165 8.47326 15.3444 8.25691 15.2413 8.07147C15.4165 9.37986 14.6747 10.9046 13.4178 11.9039C13.1397 12.1306 12.7585 12.3778 12.3361 12.553C11.8828 12.7487 10.5126 13.2226 10.5126 13.2226L6.3814 14.7164C5.67054 14.974 5.52631 15.9218 6.13414 16.3751Z" fill="#F2EEFF"/>
<path d="M12.5839 12.4397C12.5942 12.4294 12.6148 12.4294 12.6251 12.4191C12.6457 12.4088 12.6664 12.3985 12.6973 12.3779C12.7282 12.3676 12.7488 12.347 12.7797 12.3367C12.79 12.3264 12.8106 12.3161 12.8209 12.3161C12.8518 12.2955 12.893 12.2749 12.9239 12.2543C12.9342 12.2439 12.9445 12.2439 12.9548 12.2336C12.9857 12.213 13.0166 12.1924 13.0578 12.1718C13.0784 12.1615 13.0887 12.1512 13.1094 12.1409C13.13 12.1203 13.1609 12.11 13.1815 12.0894C13.2124 12.0688 13.2433 12.0379 13.2845 12.0173C13.2948 12.0173 13.2948 12.007 13.3051 12.007C13.3463 11.9761 13.3875 11.9452 13.4287 11.9143C14.6856 10.915 15.4274 9.39023 15.2522 8.08184C15.1801 7.95821 15.0874 7.84489 14.9844 7.76247L12.8415 6.17592C12.6354 6.02139 12.3367 6.16562 12.3367 6.42318V10.1629C12.3367 12.5118 10.5132 13.2227 10.5132 13.2227C10.5132 13.2227 11.8937 12.7591 12.3367 12.5633C12.4191 12.5221 12.5015 12.4809 12.5839 12.4397Z" fill="#DBD9FF"/>
<path d="M25.9971 15.8909L19.4964 11.0386C19.4861 11.0386 19.4861 11.0283 19.4758 11.0283L17.0651 9.23568C16.859 9.08114 16.5706 9.22538 16.5706 9.48293V22.845C16.5912 23.0819 16.6221 23.3292 16.6736 23.5661C16.7251 23.7928 16.7972 24.0091 16.9002 24.1945C16.7251 22.8862 17.4669 21.3614 18.7237 20.3621C19.0019 20.1355 19.3831 19.8882 19.8055 19.7131C20.2485 19.5173 21.629 19.0537 21.629 19.0537L25.7602 17.5599C26.471 17.292 26.6049 16.3442 25.9971 15.8909Z" fill="#F2EEFF"/>
<path d="M19.5585 19.8264C19.5482 19.8367 19.5276 19.8367 19.5173 19.847C19.4967 19.8573 19.4761 19.8676 19.4452 19.8882C19.4142 19.8985 19.3936 19.9191 19.3627 19.9295C19.3524 19.9398 19.3318 19.9501 19.3215 19.9501C19.2906 19.9707 19.2494 19.9913 19.2185 20.0119C19.2082 20.0222 19.1979 20.0222 19.1876 20.0325C19.1567 20.0531 19.1258 20.0737 19.0846 20.0943C19.064 20.1046 19.0537 20.1149 19.0331 20.1252C19.0125 20.1458 18.9816 20.1561 18.9609 20.1767C18.93 20.1973 18.8991 20.2282 18.8579 20.2488C18.8476 20.2488 18.8476 20.2591 18.8373 20.2591C18.7961 20.29 18.7549 20.3209 18.7137 20.3518C17.4568 21.3512 16.7151 22.8759 16.8902 24.1843C16.9623 24.3079 17.055 24.4212 17.1581 24.5037L19.2906 26.0902C19.4967 26.2447 19.7954 26.1005 19.7954 25.8429V22.1032C19.7954 19.7646 21.6189 19.0435 21.6189 19.0435C21.6189 19.0435 20.2384 19.5071 19.7954 19.7028C19.7233 19.744 19.6409 19.7852 19.5585 19.8264Z" fill="#DBD9FF"/>
<defs>
<linearGradient id="paint0_linear_289_7747" x1="16" y1="0" x2="16" y2="32" gradientUnits="userSpaceOnUse">
<stop stop-color="#7770E0"/>
<stop offset="1" stop-color="#554FD8"/>
</linearGradient>
</defs>
</svg>
