<svg width="40" height="40" viewBox="0 0 40 40" fill="none" xmlns="http://www.w3.org/2000/svg">
<path d="M0 8C0 3.58172 3.58172 0 8 0H40V32C40 36.4183 36.4183 40 32 40H0V8Z" fill="white"/>
<path d="M8 0.5H39.5V32C39.5 36.1421 36.1421 39.5 32 39.5H0.5V8C0.5 3.85786 3.85786 0.5 8 0.5Z" stroke="#756EDF" stroke-opacity="0.3"/>
<path d="M20.2844 8L20.1252 8.5274V23.83L20.2844 23.9849L27.567 19.7862L20.2844 8Z" fill="#928CE7"/>
<path d="M20.2827 8L13 19.7862L20.2827 23.9849V16.5574V8Z" fill="#D6D4F6"/>
<path d="M20.2843 25.3296L20.1946 25.4363V30.8873L20.2843 31.1428L27.5713 21.1331L20.2843 25.3296Z" fill="#756EDF"/>
<path d="M20.2827 31.1428V25.3296L13 21.1331L20.2827 31.1428Z" fill="#928CE7"/>
<path d="M20.2817 23.9846L27.5643 19.7858L20.2817 16.5571V23.9846Z" fill="#756EDF"/>
<path d="M13 19.7858L20.2827 23.9846V16.5571L13 19.7858Z" fill="#928CE7"/>
</svg>
