<svg width="40" height="40" viewBox="0 0 40 40" fill="none" xmlns="http://www.w3.org/2000/svg">
<path d="M0 8C0 3.58172 3.58172 0 8 0H40V32C40 36.4183 36.4183 40 32 40H0V8Z" fill="url(#paint0_linear_121_5981)"/>
<path d="M20.2844 8L20.1252 8.5274V23.83L20.2844 23.9849L27.567 19.7862L20.2844 8Z" fill="#C8C6EA"/>
<path d="M20.2827 8L13 19.7862L20.2827 23.9849V16.5574V8Z" fill="#F2F1FF"/>
<path d="M20.2843 25.3296L20.1946 25.4363V30.8873L20.2843 31.1428L27.5713 21.1331L20.2843 25.3296Z" fill="#AEAAEA"/>
<path d="M20.2827 31.1428V25.3296L13 21.1331L20.2827 31.1428Z" fill="#C8C6EA"/>
<path d="M20.2817 23.9846L27.5643 19.7858L20.2817 16.5571V23.9846Z" fill="#AEAAEA"/>
<path d="M13 19.7858L20.2827 23.9846V16.5571L13 19.7858Z" fill="#C8C6EA"/>
<defs>
<linearGradient id="paint0_linear_121_5981" x1="20" y1="0" x2="20" y2="40" gradientUnits="userSpaceOnUse">
<stop stop-color="#7670DF"/>
<stop offset="1" stop-color="#554FD8"/>
</linearGradient>
</defs>
</svg>

