<svg width="45" height="45" viewBox="0 0 45 45" fill="none" xmlns="http://www.w3.org/2000/svg">
<path opacity="0.2" d="M0 6C0 2.68629 2.68629 0 6 0H45V39C45 42.3137 42.3137 45 39 45H0V6Z" fill="#554FD8"/>
<path d="M22.2842 8.73083L22.0938 9.36166V27.6651L22.2842 27.8504L30.9948 22.8283L22.2842 8.73083Z" fill="#928CE7"/>
<path d="M22.2821 8.73083L13.5713 22.8283L22.2821 27.8504V18.9664V8.73083Z" fill="#D6D4F6"/>
<path d="M22.2841 29.459L22.1768 29.5866V36.1066L22.2841 36.4121L31 24.4395L22.2841 29.459Z" fill="#756EDF"/>
<path d="M22.2821 36.4121V29.459L13.5713 24.4395L22.2821 36.4121Z" fill="#928CE7"/>
<path d="M22.281 27.85L30.9916 22.8279L22.281 18.9661V27.85Z" fill="#756EDF"/>
<path d="M13.5713 22.8279L22.2821 27.85V18.9661L13.5713 22.8279Z" fill="#928CE7"/>
</svg>
