<svg width="372" height="405" viewBox="0 0 372 405" fill="none" xmlns="http://www.w3.org/2000/svg">
<path d="M28 2H344C358.359 2 370 13.6406 370 28V350C370 364.359 358.359 376 344 376H28C13.6406 376 2 364.359 2 350V28C2 13.6406 13.6406 2 28 2Z" fill="white" stroke="#F5F6FA" stroke-width="4"/>
<path d="M176.374 57.294L170.522 71H167.398L173.294 57.646H165.77V55.006H176.374V57.294ZM181.563 66.49C181.68 67.1353 181.944 67.634 182.355 67.986C182.78 68.3233 183.345 68.492 184.049 68.492C184.958 68.492 185.618 68.118 186.029 67.37C186.439 66.6073 186.645 65.3313 186.645 63.542C186.307 64.0113 185.831 64.378 185.215 64.642C184.613 64.906 183.961 65.038 183.257 65.038C182.318 65.038 181.467 64.8473 180.705 64.466C179.957 64.07 179.363 63.4907 178.923 62.728C178.483 61.9507 178.263 61.012 178.263 59.912C178.263 58.284 178.747 56.9933 179.715 56.04C180.683 55.072 182.003 54.588 183.675 54.588C185.757 54.588 187.224 55.2553 188.075 56.59C188.94 57.9247 189.373 59.934 189.373 62.618C189.373 64.5247 189.204 66.0867 188.867 67.304C188.544 68.5213 187.979 69.4453 187.173 70.076C186.381 70.7067 185.295 71.022 183.917 71.022C182.831 71.022 181.907 70.8167 181.145 70.406C180.382 69.9807 179.795 69.4307 179.385 68.756C178.989 68.0667 178.761 67.3113 178.703 66.49H181.563ZM183.895 62.53C184.657 62.53 185.259 62.2953 185.699 61.826C186.139 61.3567 186.359 60.726 186.359 59.934C186.359 59.0687 186.124 58.4013 185.655 57.932C185.2 57.448 184.577 57.206 183.785 57.206C182.993 57.206 182.362 57.4553 181.893 57.954C181.438 58.438 181.211 59.0833 181.211 59.89C181.211 60.6673 181.431 61.3053 181.871 61.804C182.325 62.288 183 62.53 183.895 62.53ZM191.198 58.9C191.198 57.7853 191.521 56.9127 192.166 56.282C192.826 55.6513 193.67 55.336 194.696 55.336C195.723 55.336 196.559 55.6513 197.204 56.282C197.864 56.9127 198.194 57.7853 198.194 58.9C198.194 60.0293 197.864 60.9093 197.204 61.54C196.559 62.1707 195.723 62.486 194.696 62.486C193.67 62.486 192.826 62.1707 192.166 61.54C191.521 60.9093 191.198 60.0293 191.198 58.9ZM205.322 55.6L196.676 71H193.684L202.308 55.6H205.322ZM194.674 57.184C193.868 57.184 193.464 57.756 193.464 58.9C193.464 60.0587 193.868 60.638 194.674 60.638C195.07 60.638 195.378 60.4987 195.598 60.22C195.818 59.9267 195.928 59.4867 195.928 58.9C195.928 57.756 195.51 57.184 194.674 57.184ZM200.856 67.678C200.856 66.5487 201.179 65.676 201.824 65.06C202.484 64.4293 203.328 64.114 204.354 64.114C205.381 64.114 206.21 64.4293 206.84 65.06C207.486 65.676 207.808 66.5487 207.808 67.678C207.808 68.8073 207.486 69.6873 206.84 70.318C206.21 70.9487 205.381 71.264 204.354 71.264C203.313 71.264 202.47 70.9487 201.824 70.318C201.179 69.6873 200.856 68.8073 200.856 67.678ZM204.332 65.962C203.496 65.962 203.078 66.534 203.078 67.678C203.078 68.8367 203.496 69.416 204.332 69.416C205.154 69.416 205.564 68.8367 205.564 67.678C205.564 66.534 205.154 65.962 204.332 65.962Z" fill="#554FD8"/>
<circle cx="157" cy="63" r="4" fill="#554FD8"/>
<path d="M171.216 41L168.892 37.01H167.352V41H166.078V31.242H169.228C169.965 31.242 170.586 31.368 171.09 31.62C171.603 31.872 171.986 32.2127 172.238 32.642C172.49 33.0713 172.616 33.5613 172.616 34.112C172.616 34.784 172.42 35.3767 172.028 35.89C171.645 36.4033 171.067 36.744 170.292 36.912L172.742 41H171.216ZM167.352 35.988H169.228C169.919 35.988 170.437 35.82 170.782 35.484C171.127 35.1387 171.3 34.6813 171.3 34.112C171.3 33.5333 171.127 33.0853 170.782 32.768C170.446 32.4507 169.928 32.292 169.228 32.292H167.352V35.988ZM175.772 39.236L174.204 43.002H173.35L174.372 39.236H175.772ZM186.989 31.312V41H185.715V33.776L182.495 41H181.599L178.365 33.762V41H177.091V31.312H178.463L182.047 39.32L185.631 31.312H186.989ZM190.326 39.236L188.758 43.002H187.904L188.926 39.236H190.326ZM192.919 32.278V35.54H196.475V36.59H192.919V39.95H196.895V41H191.645V31.228H196.895V32.278H192.919Z" fill="#ACACAC"/>
<path d="M276.792 57.8V54.962H282.094V71H278.926V57.8H276.792ZM284.917 62.772C284.917 60.2347 285.371 58.2473 286.281 56.81C287.205 55.3727 288.73 54.654 290.857 54.654C292.983 54.654 294.501 55.3727 295.411 56.81C296.335 58.2473 296.797 60.2347 296.797 62.772C296.797 65.324 296.335 67.326 295.411 68.778C294.501 70.23 292.983 70.956 290.857 70.956C288.73 70.956 287.205 70.23 286.281 68.778C285.371 67.326 284.917 65.324 284.917 62.772ZM293.761 62.772C293.761 61.6867 293.687 60.7773 293.541 60.044C293.409 59.296 293.13 58.6873 292.705 58.218C292.294 57.7487 291.678 57.514 290.857 57.514C290.035 57.514 289.412 57.7487 288.987 58.218C288.576 58.6873 288.297 59.296 288.151 60.044C288.019 60.7773 287.953 61.6867 287.953 62.772C287.953 63.8867 288.019 64.8253 288.151 65.588C288.283 66.336 288.561 66.9447 288.987 67.414C289.412 67.8687 290.035 68.096 290.857 68.096C291.678 68.096 292.301 67.8687 292.727 67.414C293.152 66.9447 293.431 66.336 293.563 65.588C293.695 64.8253 293.761 63.8867 293.761 62.772ZM298.567 58.9C298.567 57.7853 298.89 56.9127 299.535 56.282C300.195 55.6513 301.039 55.336 302.065 55.336C303.092 55.336 303.928 55.6513 304.573 56.282C305.233 56.9127 305.563 57.7853 305.563 58.9C305.563 60.0293 305.233 60.9093 304.573 61.54C303.928 62.1707 303.092 62.486 302.065 62.486C301.039 62.486 300.195 62.1707 299.535 61.54C298.89 60.9093 298.567 60.0293 298.567 58.9ZM312.691 55.6L304.045 71H301.053L309.677 55.6H312.691ZM302.043 57.184C301.237 57.184 300.833 57.756 300.833 58.9C300.833 60.0587 301.237 60.638 302.043 60.638C302.439 60.638 302.747 60.4987 302.967 60.22C303.187 59.9267 303.297 59.4867 303.297 58.9C303.297 57.756 302.879 57.184 302.043 57.184ZM308.225 67.678C308.225 66.5487 308.548 65.676 309.193 65.06C309.853 64.4293 310.697 64.114 311.723 64.114C312.75 64.114 313.579 64.4293 314.209 65.06C314.855 65.676 315.177 66.5487 315.177 67.678C315.177 68.8073 314.855 69.6873 314.209 70.318C313.579 70.9487 312.75 71.264 311.723 71.264C310.682 71.264 309.839 70.9487 309.193 70.318C308.548 69.6873 308.225 68.8073 308.225 67.678ZM311.701 65.962C310.865 65.962 310.447 66.534 310.447 67.678C310.447 68.8367 310.865 69.416 311.701 69.416C312.523 69.416 312.933 68.8367 312.933 67.678C312.933 66.534 312.523 65.962 311.701 65.962Z" fill="#F0603A"/>
<circle cx="268" cy="63" r="4" fill="#F0603A"/>
<path d="M283.084 31.242V32.278H280.424V41H279.15V32.278H276.476V31.242H283.084ZM291.512 36.87C291.512 37.1127 291.498 37.3693 291.47 37.64H285.338C285.385 38.396 285.642 38.9887 286.108 39.418C286.584 39.838 287.158 40.048 287.83 40.048C288.381 40.048 288.838 39.922 289.202 39.67C289.576 39.4087 289.837 39.0633 289.986 38.634H291.358C291.153 39.3713 290.742 39.9733 290.126 40.44C289.51 40.8973 288.745 41.126 287.83 41.126C287.102 41.126 286.449 40.9627 285.87 40.636C285.301 40.3093 284.853 39.8473 284.526 39.25C284.2 38.6433 284.036 37.9433 284.036 37.15C284.036 36.3567 284.195 35.6613 284.512 35.064C284.83 34.4667 285.273 34.0093 285.842 33.692C286.421 33.3653 287.084 33.202 287.83 33.202C288.558 33.202 289.202 33.3607 289.762 33.678C290.322 33.9953 290.752 34.434 291.05 34.994C291.358 35.5447 291.512 36.17 291.512 36.87ZM290.196 36.604C290.196 36.1187 290.089 35.7033 289.874 35.358C289.66 35.0033 289.366 34.7373 288.992 34.56C288.628 34.3733 288.222 34.28 287.774 34.28C287.13 34.28 286.58 34.4853 286.122 34.896C285.674 35.3067 285.418 35.876 285.352 36.604H290.196ZM292.578 37.136C292.578 36.352 292.737 35.666 293.054 35.078C293.371 34.4807 293.805 34.0187 294.356 33.692C294.916 33.3653 295.537 33.202 296.218 33.202C296.89 33.202 297.473 33.3467 297.968 33.636C298.463 33.9253 298.831 34.2893 299.074 34.728V33.328H300.362V41H299.074V39.572C298.822 40.02 298.444 40.3933 297.94 40.692C297.445 40.9813 296.867 41.126 296.204 41.126C295.523 41.126 294.907 40.958 294.356 40.622C293.805 40.286 293.371 39.8147 293.054 39.208C292.737 38.6013 292.578 37.9107 292.578 37.136ZM299.074 37.15C299.074 36.5713 298.957 36.0673 298.724 35.638C298.491 35.2087 298.173 34.882 297.772 34.658C297.38 34.4247 296.946 34.308 296.47 34.308C295.994 34.308 295.56 34.42 295.168 34.644C294.776 34.868 294.463 35.1947 294.23 35.624C293.997 36.0533 293.88 36.5573 293.88 37.136C293.88 37.724 293.997 38.2373 294.23 38.676C294.463 39.1053 294.776 39.4367 295.168 39.67C295.56 39.894 295.994 40.006 296.47 40.006C296.946 40.006 297.38 39.894 297.772 39.67C298.173 39.4367 298.491 39.1053 298.724 38.676C298.957 38.2373 299.074 37.7287 299.074 37.15ZM311.601 33.188C312.198 33.188 312.73 33.314 313.197 33.566C313.663 33.8087 314.032 34.1773 314.303 34.672C314.573 35.1667 314.709 35.7687 314.709 36.478V41H313.449V36.66C313.449 35.8947 313.257 35.3113 312.875 34.91C312.501 34.4993 311.993 34.294 311.349 34.294C310.686 34.294 310.159 34.5087 309.767 34.938C309.375 35.358 309.179 35.9693 309.179 36.772V41H307.919V36.66C307.919 35.8947 307.727 35.3113 307.345 34.91C306.971 34.4993 306.463 34.294 305.819 34.294C305.156 34.294 304.629 34.5087 304.237 34.938C303.845 35.358 303.649 35.9693 303.649 36.772V41H302.375V33.328H303.649V34.434C303.901 34.0327 304.237 33.7247 304.657 33.51C305.086 33.2953 305.557 33.188 306.071 33.188C306.715 33.188 307.284 33.3327 307.779 33.622C308.273 33.9113 308.642 34.336 308.885 34.896C309.099 34.3547 309.454 33.9347 309.949 33.636C310.443 33.3373 310.994 33.188 311.601 33.188Z" fill="#ACACAC"/>
<g filter="url(#filter0_d_1321_609)">
<circle cx="186.5" cy="220.5" r="114.5" fill="white"/>
</g>
<circle cx="186.5" cy="220.5" r="74.5" stroke="#F1EFFB" stroke-width="20"/>
<g filter="url(#filter1_d_1321_609)">
<path d="M186.5 130C205.513 130 224.043 135.988 239.46 147.114C254.877 158.24 266.399 173.939 272.39 191.984C278.381 210.028 278.537 229.501 272.835 247.639C267.134 265.776 255.865 281.658 240.627 293.029C225.39 304.401 206.958 310.684 187.948 310.988C168.937 311.293 150.314 305.602 134.721 294.724C119.127 283.846 107.356 268.333 101.077 250.387C94.7985 232.44 94.3313 212.973 99.7418 194.746L130.091 203.755C126.573 215.606 126.877 228.264 130.959 239.932C135.042 251.6 142.695 261.686 152.834 268.759C162.972 275.832 175.081 279.532 187.441 279.334C199.802 279.137 211.786 275.051 221.693 267.658C231.6 260.264 238.927 249.938 242.634 238.145C246.341 226.352 246.24 213.691 242.344 201.959C238.449 190.227 230.958 180.02 220.934 172.785C210.91 165.551 198.862 161.658 186.5 161.658L186.5 130Z" fill="url(#paint0_linear_1321_609)"/>
</g>
<g filter="url(#filter2_d_1321_609)">
<path d="M128.312 151.186C144.719 137.413 165.478 129.907 186.899 130.001L186.759 161.659C172.832 161.597 159.334 166.478 148.667 175.433L128.312 151.186Z" fill="url(#paint1_linear_1321_609)"/>
</g>
<g filter="url(#filter3_d_1321_609)">
<path d="M99.5996 195.23C104.693 177.714 114.961 162.147 129.056 150.568L149.151 175.031C139.986 182.559 133.31 192.681 129.998 204.07L99.5996 195.23Z" fill="url(#paint2_linear_1321_609)"/>
</g>
<path opacity="0.4" d="M178.011 206.636V207.524H175.731V215H174.639V207.524H172.347V206.636H178.011ZM182.103 215.108C181.487 215.108 180.927 214.968 180.423 214.688C179.927 214.408 179.535 214.012 179.247 213.5C178.967 212.98 178.827 212.38 178.827 211.7C178.827 211.028 178.971 210.436 179.259 209.924C179.555 209.404 179.955 209.008 180.459 208.736C180.963 208.456 181.527 208.316 182.151 208.316C182.775 208.316 183.339 208.456 183.843 208.736C184.347 209.008 184.743 209.4 185.031 209.912C185.327 210.424 185.475 211.02 185.475 211.7C185.475 212.38 185.323 212.98 185.019 213.5C184.723 214.012 184.319 214.408 183.807 214.688C183.295 214.968 182.727 215.108 182.103 215.108ZM182.103 214.148C182.495 214.148 182.863 214.056 183.207 213.872C183.551 213.688 183.827 213.412 184.035 213.044C184.251 212.676 184.359 212.228 184.359 211.7C184.359 211.172 184.255 210.724 184.047 210.356C183.839 209.988 183.567 209.716 183.231 209.54C182.895 209.356 182.531 209.264 182.139 209.264C181.739 209.264 181.371 209.356 181.035 209.54C180.707 209.716 180.443 209.988 180.243 210.356C180.043 210.724 179.943 211.172 179.943 211.7C179.943 212.236 180.039 212.688 180.231 213.056C180.431 213.424 180.695 213.7 181.023 213.884C181.351 214.06 181.711 214.148 182.103 214.148ZM188.123 209.324V213.2C188.123 213.52 188.191 213.748 188.327 213.884C188.463 214.012 188.699 214.076 189.035 214.076H189.839V215H188.855C188.247 215 187.791 214.86 187.487 214.58C187.183 214.3 187.031 213.84 187.031 213.2V209.324H186.179V208.424H187.031V206.768H188.123V208.424H189.839V209.324H188.123ZM190.634 211.688C190.634 211.016 190.77 210.428 191.042 209.924C191.314 209.412 191.686 209.016 192.158 208.736C192.638 208.456 193.17 208.316 193.754 208.316C194.33 208.316 194.83 208.44 195.254 208.688C195.678 208.936 195.994 209.248 196.202 209.624V208.424H197.306V215H196.202V213.776C195.986 214.16 195.662 214.48 195.23 214.736C194.806 214.984 194.31 215.108 193.742 215.108C193.158 215.108 192.63 214.964 192.158 214.676C191.686 214.388 191.314 213.984 191.042 213.464C190.77 212.944 190.634 212.352 190.634 211.688ZM196.202 211.7C196.202 211.204 196.102 210.772 195.902 210.404C195.702 210.036 195.43 209.756 195.086 209.564C194.75 209.364 194.378 209.264 193.97 209.264C193.562 209.264 193.19 209.36 192.854 209.552C192.518 209.744 192.25 210.024 192.05 210.392C191.85 210.76 191.75 211.192 191.75 211.688C191.75 212.192 191.85 212.632 192.05 213.008C192.25 213.376 192.518 213.66 192.854 213.86C193.19 214.052 193.562 214.148 193.97 214.148C194.378 214.148 194.75 214.052 195.086 213.86C195.43 213.66 195.702 213.376 195.902 213.008C196.102 212.632 196.202 212.196 196.202 211.7ZM200.124 206.12V215H199.032V206.12H200.124ZM157.106 224.636V225.524H154.826V233H153.734V225.524H151.442V224.636H157.106ZM161.198 233.108C160.582 233.108 160.022 232.968 159.518 232.688C159.022 232.408 158.63 232.012 158.342 231.5C158.062 230.98 157.922 230.38 157.922 229.7C157.922 229.028 158.066 228.436 158.354 227.924C158.65 227.404 159.05 227.008 159.554 226.736C160.058 226.456 160.622 226.316 161.246 226.316C161.87 226.316 162.434 226.456 162.938 226.736C163.442 227.008 163.838 227.4 164.126 227.912C164.422 228.424 164.57 229.02 164.57 229.7C164.57 230.38 164.418 230.98 164.114 231.5C163.818 232.012 163.414 232.408 162.902 232.688C162.39 232.968 161.822 233.108 161.198 233.108ZM161.198 232.148C161.59 232.148 161.958 232.056 162.302 231.872C162.646 231.688 162.922 231.412 163.13 231.044C163.346 230.676 163.454 230.228 163.454 229.7C163.454 229.172 163.35 228.724 163.142 228.356C162.934 227.988 162.662 227.716 162.326 227.54C161.99 227.356 161.626 227.264 161.234 227.264C160.834 227.264 160.466 227.356 160.13 227.54C159.802 227.716 159.538 227.988 159.338 228.356C159.138 228.724 159.038 229.172 159.038 229.7C159.038 230.236 159.134 230.688 159.326 231.056C159.526 231.424 159.79 231.7 160.118 231.884C160.446 232.06 160.806 232.148 161.198 232.148ZM169.558 233L166.978 230.096V233H165.886V224.12H166.978V229.34L169.51 226.424H171.034L167.938 229.7L171.046 233H169.558ZM177.942 229.46C177.942 229.668 177.93 229.888 177.906 230.12H172.65C172.69 230.768 172.91 231.276 173.31 231.644C173.718 232.004 174.21 232.184 174.786 232.184C175.258 232.184 175.65 232.076 175.962 231.86C176.282 231.636 176.506 231.34 176.634 230.972H177.81C177.634 231.604 177.282 232.12 176.754 232.52C176.226 232.912 175.57 233.108 174.786 233.108C174.162 233.108 173.602 232.968 173.106 232.688C172.618 232.408 172.234 232.012 171.954 231.5C171.674 230.98 171.534 230.38 171.534 229.7C171.534 229.02 171.67 228.424 171.942 227.912C172.214 227.4 172.594 227.008 173.082 226.736C173.578 226.456 174.146 226.316 174.786 226.316C175.41 226.316 175.962 226.452 176.442 226.724C176.922 226.996 177.29 227.372 177.546 227.852C177.81 228.324 177.942 228.86 177.942 229.46ZM176.814 229.232C176.814 228.816 176.722 228.46 176.538 228.164C176.354 227.86 176.102 227.632 175.782 227.48C175.47 227.32 175.122 227.24 174.738 227.24C174.186 227.24 173.714 227.416 173.322 227.768C172.938 228.12 172.718 228.608 172.662 229.232H176.814ZM182.467 226.304C183.267 226.304 183.915 226.548 184.411 227.036C184.907 227.516 185.155 228.212 185.155 229.124V233H184.075V229.28C184.075 228.624 183.911 228.124 183.583 227.78C183.255 227.428 182.807 227.252 182.239 227.252C181.663 227.252 181.203 227.432 180.859 227.792C180.523 228.152 180.355 228.676 180.355 229.364V233H179.263V226.424H180.355V227.36C180.571 227.024 180.863 226.764 181.231 226.58C181.607 226.396 182.019 226.304 182.467 226.304ZM189.687 233.108C189.071 233.108 188.511 232.968 188.007 232.688C187.511 232.408 187.119 232.012 186.831 231.5C186.551 230.98 186.411 230.38 186.411 229.7C186.411 229.028 186.555 228.436 186.843 227.924C187.139 227.404 187.539 227.008 188.043 226.736C188.547 226.456 189.111 226.316 189.735 226.316C190.359 226.316 190.923 226.456 191.427 226.736C191.931 227.008 192.327 227.4 192.615 227.912C192.911 228.424 193.059 229.02 193.059 229.7C193.059 230.38 192.907 230.98 192.603 231.5C192.307 232.012 191.903 232.408 191.391 232.688C190.879 232.968 190.311 233.108 189.687 233.108ZM189.687 232.148C190.079 232.148 190.447 232.056 190.791 231.872C191.135 231.688 191.411 231.412 191.619 231.044C191.835 230.676 191.943 230.228 191.943 229.7C191.943 229.172 191.839 228.724 191.631 228.356C191.423 227.988 191.151 227.716 190.815 227.54C190.479 227.356 190.115 227.264 189.723 227.264C189.323 227.264 188.955 227.356 188.619 227.54C188.291 227.716 188.027 227.988 187.827 228.356C187.627 228.724 187.527 229.172 187.527 229.7C187.527 230.236 187.623 230.688 187.815 231.056C188.015 231.424 188.279 231.7 188.607 231.884C188.935 232.06 189.295 232.148 189.687 232.148ZM202.283 226.304C202.795 226.304 203.251 226.412 203.651 226.628C204.051 226.836 204.367 227.152 204.599 227.576C204.831 228 204.947 228.516 204.947 229.124V233H203.867V229.28C203.867 228.624 203.703 228.124 203.375 227.78C203.055 227.428 202.619 227.252 202.067 227.252C201.499 227.252 201.047 227.436 200.711 227.804C200.375 228.164 200.207 228.688 200.207 229.376V233H199.127V229.28C199.127 228.624 198.963 228.124 198.635 227.78C198.315 227.428 197.879 227.252 197.327 227.252C196.759 227.252 196.307 227.436 195.971 227.804C195.635 228.164 195.467 228.688 195.467 229.376V233H194.375V226.424H195.467V227.372C195.683 227.028 195.971 226.764 196.331 226.58C196.699 226.396 197.103 226.304 197.543 226.304C198.095 226.304 198.583 226.428 199.007 226.676C199.431 226.924 199.747 227.288 199.955 227.768C200.139 227.304 200.443 226.944 200.867 226.688C201.291 226.432 201.763 226.304 202.283 226.304ZM207.182 225.356C206.974 225.356 206.798 225.284 206.654 225.14C206.51 224.996 206.438 224.82 206.438 224.612C206.438 224.404 206.51 224.228 206.654 224.084C206.798 223.94 206.974 223.868 207.182 223.868C207.382 223.868 207.55 223.94 207.686 224.084C207.83 224.228 207.902 224.404 207.902 224.612C207.902 224.82 207.83 224.996 207.686 225.14C207.55 225.284 207.382 225.356 207.182 225.356ZM207.71 226.424V233H206.618V226.424H207.71ZM209.043 229.7C209.043 229.02 209.179 228.428 209.451 227.924C209.723 227.412 210.099 227.016 210.579 226.736C211.067 226.456 211.623 226.316 212.247 226.316C213.055 226.316 213.719 226.512 214.239 226.904C214.767 227.296 215.115 227.84 215.283 228.536H214.107C213.995 228.136 213.775 227.82 213.447 227.588C213.127 227.356 212.727 227.24 212.247 227.24C211.623 227.24 211.119 227.456 210.735 227.888C210.351 228.312 210.159 228.916 210.159 229.7C210.159 230.492 210.351 231.104 210.735 231.536C211.119 231.968 211.623 232.184 212.247 232.184C212.727 232.184 213.127 232.072 213.447 231.848C213.767 231.624 213.987 231.304 214.107 230.888H215.283C215.107 231.56 214.755 232.1 214.227 232.508C213.699 232.908 213.039 233.108 212.247 233.108C211.623 233.108 211.067 232.968 210.579 232.688C210.099 232.408 209.723 232.012 209.451 231.5C209.179 230.988 209.043 230.388 209.043 229.7ZM218.948 233.108C218.444 233.108 217.992 233.024 217.592 232.856C217.192 232.68 216.876 232.44 216.644 232.136C216.412 231.824 216.284 231.468 216.26 231.068H217.388C217.42 231.396 217.572 231.664 217.844 231.872C218.124 232.08 218.488 232.184 218.936 232.184C219.352 232.184 219.68 232.092 219.92 231.908C220.16 231.724 220.28 231.492 220.28 231.212C220.28 230.924 220.152 230.712 219.896 230.576C219.64 230.432 219.244 230.292 218.708 230.156C218.22 230.028 217.82 229.9 217.508 229.772C217.204 229.636 216.94 229.44 216.716 229.184C216.5 228.92 216.392 228.576 216.392 228.152C216.392 227.816 216.492 227.508 216.692 227.228C216.892 226.948 217.176 226.728 217.544 226.568C217.912 226.4 218.332 226.316 218.804 226.316C219.532 226.316 220.12 226.5 220.568 226.868C221.016 227.236 221.256 227.74 221.288 228.38H220.196C220.172 228.036 220.032 227.76 219.776 227.552C219.528 227.344 219.192 227.24 218.768 227.24C218.376 227.24 218.064 227.324 217.832 227.492C217.6 227.66 217.484 227.88 217.484 228.152C217.484 228.368 217.552 228.548 217.688 228.692C217.832 228.828 218.008 228.94 218.216 229.028C218.432 229.108 218.728 229.2 219.104 229.304C219.576 229.432 219.96 229.56 220.256 229.688C220.552 229.808 220.804 229.992 221.012 230.24C221.228 230.488 221.34 230.812 221.348 231.212C221.348 231.572 221.248 231.896 221.048 232.184C220.848 232.472 220.564 232.7 220.196 232.868C219.836 233.028 219.42 233.108 218.948 233.108Z" fill="#1E2029"/>
<path d="M44.792 57.8V54.962H50.094V71H46.926V57.8H44.792ZM52.5427 57.8V54.962H57.8447V71H54.6767V57.8H52.5427ZM60.3154 58.9C60.3154 57.7853 60.6381 56.9127 61.2834 56.282C61.9434 55.6513 62.7867 55.336 63.8134 55.336C64.8401 55.336 65.6761 55.6513 66.3214 56.282C66.9814 56.9127 67.3114 57.7853 67.3114 58.9C67.3114 60.0293 66.9814 60.9093 66.3214 61.54C65.6761 62.1707 64.8401 62.486 63.8134 62.486C62.7867 62.486 61.9434 62.1707 61.2834 61.54C60.6381 60.9093 60.3154 60.0293 60.3154 58.9ZM74.4394 55.6L65.7934 71H62.8014L71.4254 55.6H74.4394ZM63.7914 57.184C62.9847 57.184 62.5814 57.756 62.5814 58.9C62.5814 60.0587 62.9847 60.638 63.7914 60.638C64.1874 60.638 64.4954 60.4987 64.7154 60.22C64.9354 59.9267 65.0454 59.4867 65.0454 58.9C65.0454 57.756 64.6274 57.184 63.7914 57.184ZM69.9734 67.678C69.9734 66.5487 70.2961 65.676 70.9414 65.06C71.6014 64.4293 72.4447 64.114 73.4714 64.114C74.4981 64.114 75.3267 64.4293 75.9574 65.06C76.6027 65.676 76.9254 66.5487 76.9254 67.678C76.9254 68.8073 76.6027 69.6873 75.9574 70.318C75.3267 70.9487 74.4981 71.264 73.4714 71.264C72.4301 71.264 71.5867 70.9487 70.9414 70.318C70.2961 69.6873 69.9734 68.8073 69.9734 67.678ZM73.4494 65.962C72.6134 65.962 72.1954 66.534 72.1954 67.678C72.1954 68.8367 72.6134 69.416 73.4494 69.416C74.2707 69.416 74.6814 68.8367 74.6814 67.678C74.6814 66.534 74.2707 65.962 73.4494 65.962Z" fill="#5CB9AE"/>
<path d="M44.602 36.114C44.602 35.162 44.8167 34.308 45.246 33.552C45.6753 32.7867 46.2587 32.1893 46.996 31.76C47.7427 31.3307 48.5687 31.116 49.474 31.116C50.538 31.116 51.4667 31.3727 52.26 31.886C53.0533 32.3993 53.632 33.1273 53.996 34.07H52.47C52.1993 33.482 51.8073 33.0293 51.294 32.712C50.79 32.3947 50.1833 32.236 49.474 32.236C48.7927 32.236 48.1813 32.3947 47.64 32.712C47.0987 33.0293 46.674 33.482 46.366 34.07C46.058 34.6487 45.904 35.33 45.904 36.114C45.904 36.8887 46.058 37.57 46.366 38.158C46.674 38.7367 47.0987 39.1847 47.64 39.502C48.1813 39.8193 48.7927 39.978 49.474 39.978C50.1833 39.978 50.79 39.824 51.294 39.516C51.8073 39.1987 52.1993 38.746 52.47 38.158H53.996C53.632 39.0913 53.0533 39.8147 52.26 40.328C51.4667 40.832 50.538 41.084 49.474 41.084C48.5687 41.084 47.7427 40.874 46.996 40.454C46.2587 40.0247 45.6753 39.432 45.246 38.676C44.8167 37.92 44.602 37.066 44.602 36.114ZM59.0985 41.126C58.3798 41.126 57.7265 40.9627 57.1385 40.636C56.5598 40.3093 56.1025 39.8473 55.7665 39.25C55.4398 38.6433 55.2765 37.9433 55.2765 37.15C55.2765 36.366 55.4445 35.6753 55.7805 35.078C56.1258 34.4713 56.5925 34.0093 57.1805 33.692C57.7685 33.3653 58.4265 33.202 59.1545 33.202C59.8825 33.202 60.5405 33.3653 61.1285 33.692C61.7165 34.0093 62.1785 34.4667 62.5145 35.064C62.8598 35.6613 63.0325 36.3567 63.0325 37.15C63.0325 37.9433 62.8551 38.6433 62.5005 39.25C62.1551 39.8473 61.6838 40.3093 61.0865 40.636C60.4891 40.9627 59.8265 41.126 59.0985 41.126ZM59.0985 40.006C59.5558 40.006 59.9851 39.8987 60.3865 39.684C60.7878 39.4693 61.1098 39.1473 61.3525 38.718C61.6045 38.2887 61.7305 37.766 61.7305 37.15C61.7305 36.534 61.6091 36.0113 61.3665 35.582C61.1238 35.1527 60.8065 34.8353 60.4145 34.63C60.0225 34.4153 59.5978 34.308 59.1405 34.308C58.6738 34.308 58.2445 34.4153 57.8525 34.63C57.4698 34.8353 57.1618 35.1527 56.9285 35.582C56.6951 36.0113 56.5785 36.534 56.5785 37.15C56.5785 37.7753 56.6905 38.3027 56.9145 38.732C57.1478 39.1613 57.4558 39.4833 57.8385 39.698C58.2211 39.9033 58.6411 40.006 59.0985 40.006ZM73.7935 33.188C74.3909 33.188 74.9229 33.314 75.3895 33.566C75.8562 33.8087 76.2249 34.1773 76.4955 34.672C76.7662 35.1667 76.9015 35.7687 76.9015 36.478V41H75.6415V36.66C75.6415 35.8947 75.4502 35.3113 75.0675 34.91C74.6942 34.4993 74.1855 34.294 73.5415 34.294C72.8789 34.294 72.3515 34.5087 71.9595 34.938C71.5675 35.358 71.3715 35.9693 71.3715 36.772V41H70.1115V36.66C70.1115 35.8947 69.9202 35.3113 69.5375 34.91C69.1642 34.4993 68.6555 34.294 68.0115 34.294C67.3489 34.294 66.8215 34.5087 66.4295 34.938C66.0375 35.358 65.8415 35.9693 65.8415 36.772V41H64.5675V33.328H65.8415V34.434C66.0935 34.0327 66.4295 33.7247 66.8495 33.51C67.2789 33.2953 67.7502 33.188 68.2635 33.188C68.9075 33.188 69.4769 33.3327 69.9715 33.622C70.4662 33.9113 70.8349 34.336 71.0775 34.896C71.2922 34.3547 71.6469 33.9347 72.1415 33.636C72.6362 33.3373 73.1869 33.188 73.7935 33.188ZM88.0774 33.188C88.6747 33.188 89.2067 33.314 89.6734 33.566C90.14 33.8087 90.5087 34.1773 90.7794 34.672C91.05 35.1667 91.1854 35.7687 91.1854 36.478V41H89.9254V36.66C89.9254 35.8947 89.734 35.3113 89.3514 34.91C88.978 34.4993 88.4694 34.294 87.8254 34.294C87.1627 34.294 86.6354 34.5087 86.2434 34.938C85.8514 35.358 85.6554 35.9693 85.6554 36.772V41H84.3954V36.66C84.3954 35.8947 84.204 35.3113 83.8214 34.91C83.448 34.4993 82.9394 34.294 82.2954 34.294C81.6327 34.294 81.1054 34.5087 80.7134 34.938C80.3214 35.358 80.1254 35.9693 80.1254 36.772V41H78.8514V33.328H80.1254V34.434C80.3774 34.0327 80.7134 33.7247 81.1334 33.51C81.5627 33.2953 82.034 33.188 82.5474 33.188C83.1914 33.188 83.7607 33.3327 84.2554 33.622C84.75 33.9113 85.1187 34.336 85.3614 34.896C85.576 34.3547 85.9307 33.9347 86.4254 33.636C86.92 33.3373 87.4707 33.188 88.0774 33.188ZM99.9392 33.328V41H98.6652V39.866C98.4225 40.258 98.0819 40.566 97.6432 40.79C97.2139 41.0047 96.7379 41.112 96.2152 41.112C95.6179 41.112 95.0812 40.9907 94.6052 40.748C94.1292 40.496 93.7512 40.1227 93.4712 39.628C93.2005 39.1333 93.0652 38.5313 93.0652 37.822V33.328H94.3252V37.654C94.3252 38.41 94.5165 38.9933 94.8992 39.404C95.2819 39.8053 95.8045 40.006 96.4672 40.006C97.1485 40.006 97.6852 39.796 98.0772 39.376C98.4692 38.956 98.6652 38.3447 98.6652 37.542V33.328H99.9392ZM105.688 33.188C106.622 33.188 107.378 33.4727 107.956 34.042C108.535 34.602 108.824 35.414 108.824 36.478V41H107.564V36.66C107.564 35.8947 107.373 35.3113 106.99 34.91C106.608 34.4993 106.085 34.294 105.422 34.294C104.75 34.294 104.214 34.504 103.812 34.924C103.42 35.344 103.224 35.9553 103.224 36.758V41H101.95V33.328H103.224V34.42C103.476 34.028 103.817 33.7247 104.246 33.51C104.685 33.2953 105.166 33.188 105.688 33.188ZM111.423 32.082C111.181 32.082 110.975 31.998 110.807 31.83C110.639 31.662 110.555 31.4567 110.555 31.214C110.555 30.9713 110.639 30.766 110.807 30.598C110.975 30.43 111.181 30.346 111.423 30.346C111.657 30.346 111.853 30.43 112.011 30.598C112.179 30.766 112.263 30.9713 112.263 31.214C112.263 31.4567 112.179 31.662 112.011 31.83C111.853 31.998 111.657 32.082 111.423 32.082ZM112.039 33.328V41H110.765V33.328H112.039ZM115.625 34.378V38.9C115.625 39.2733 115.704 39.5393 115.863 39.698C116.021 39.8473 116.297 39.922 116.689 39.922H117.627V41H116.479C115.769 41 115.237 40.8367 114.883 40.51C114.528 40.1833 114.351 39.6467 114.351 38.9V34.378H113.357V33.328H114.351V31.396H115.625V33.328H117.627V34.378H115.625ZM125.638 33.328L121.018 44.612H119.702L121.214 40.916L118.12 33.328H119.534L121.942 39.544L124.322 33.328H125.638Z" fill="#ACACAC"/>
<circle cx="36" cy="63" r="4" fill="#5CB9AE"/>
<defs>
<filter id="filter0_d_1321_609" x="12" y="56" width="349" height="349" filterUnits="userSpaceOnUse" color-interpolation-filters="sRGB">
<feFlood flood-opacity="0" result="BackgroundImageFix"/>
<feColorMatrix in="SourceAlpha" type="matrix" values="0 0 0 0 0 0 0 0 0 0 0 0 0 0 0 0 0 0 127 0" result="hardAlpha"/>
<feOffset dy="10"/>
<feGaussianBlur stdDeviation="30"/>
<feComposite in2="hardAlpha" operator="out"/>
<feColorMatrix type="matrix" values="0 0 0 0 0.885625 0 0 0 0 0.92625 0 0 0 0 0.975 0 0 0 0.5 0"/>
<feBlend mode="normal" in2="BackgroundImageFix" result="effect1_dropShadow_1321_609"/>
<feBlend mode="normal" in="SourceGraphic" in2="effect1_dropShadow_1321_609" result="shape"/>
</filter>
<filter id="filter1_d_1321_609" x="82" y="120" width="209" height="209" filterUnits="userSpaceOnUse" color-interpolation-filters="sRGB">
<feFlood flood-opacity="0" result="BackgroundImageFix"/>
<feColorMatrix in="SourceAlpha" type="matrix" values="0 0 0 0 0 0 0 0 0 0 0 0 0 0 0 0 0 0 127 0" result="hardAlpha"/>
<feOffset dy="4"/>
<feGaussianBlur stdDeviation="7"/>
<feComposite in2="hardAlpha" operator="out"/>
<feColorMatrix type="matrix" values="0 0 0 0 0.329412 0 0 0 0 0.309804 0 0 0 0 0.835294 0 0 0 0.32 0"/>
<feBlend mode="normal" in2="BackgroundImageFix" result="effect1_dropShadow_1321_609"/>
<feBlend mode="normal" in="SourceGraphic" in2="effect1_dropShadow_1321_609" result="shape"/>
</filter>
<filter id="filter2_d_1321_609" x="114.312" y="120" width="86.5859" height="73.4328" filterUnits="userSpaceOnUse" color-interpolation-filters="sRGB">
<feFlood flood-opacity="0" result="BackgroundImageFix"/>
<feColorMatrix in="SourceAlpha" type="matrix" values="0 0 0 0 0 0 0 0 0 0 0 0 0 0 0 0 0 0 127 0" result="hardAlpha"/>
<feOffset dy="4"/>
<feGaussianBlur stdDeviation="7"/>
<feComposite in2="hardAlpha" operator="out"/>
<feColorMatrix type="matrix" values="0 0 0 0 0.376471 0 0 0 0 0.694118 0 0 0 0 0.647059 0 0 0 0.32 0"/>
<feBlend mode="normal" in2="BackgroundImageFix" result="effect1_dropShadow_1321_609"/>
<feBlend mode="normal" in="SourceGraphic" in2="effect1_dropShadow_1321_609" result="shape"/>
</filter>
<filter id="filter3_d_1321_609" x="85.5996" y="140.568" width="77.5508" height="81.5018" filterUnits="userSpaceOnUse" color-interpolation-filters="sRGB">
<feFlood flood-opacity="0" result="BackgroundImageFix"/>
<feColorMatrix in="SourceAlpha" type="matrix" values="0 0 0 0 0 0 0 0 0 0 0 0 0 0 0 0 0 0 127 0" result="hardAlpha"/>
<feOffset dy="4"/>
<feGaussianBlur stdDeviation="7"/>
<feComposite in2="hardAlpha" operator="out"/>
<feColorMatrix type="matrix" values="0 0 0 0 0.941176 0 0 0 0 0.376471 0 0 0 0 0.227451 0 0 0 0.32 0"/>
<feBlend mode="normal" in2="BackgroundImageFix" result="effect1_dropShadow_1321_609"/>
<feBlend mode="normal" in="SourceGraphic" in2="effect1_dropShadow_1321_609" result="shape"/>
</filter>
<linearGradient id="paint0_linear_1321_609" x1="187" y1="155" x2="259.212" y2="203.513" gradientUnits="userSpaceOnUse">
<stop stop-color="#A8A3F0"/>
<stop offset="1" stop-color="#544FD5"/>
</linearGradient>
<linearGradient id="paint1_linear_1321_609" x1="187" y1="145" x2="183.797" y2="175.767" gradientUnits="userSpaceOnUse">
<stop stop-color="#A3EBE4"/>
<stop offset="1" stop-color="#57B6AB"/>
</linearGradient>
<linearGradient id="paint2_linear_1321_609" x1="145.5" y1="182.5" x2="138.58" y2="214.801" gradientUnits="userSpaceOnUse">
<stop stop-color="#FBB59C"/>
<stop offset="1" stop-color="#F0603A"/>
</linearGradient>
</defs>
</svg>
