<svg width="492" height="211" viewBox="0 0 492 211" fill="none" xmlns="http://www.w3.org/2000/svg">
<g opacity="0.1">
<line x1="4" y1="180.5" x2="484" y2="180.5" stroke="white" stroke-dasharray="8 8"/>
<line x1="4" y1="124.5" x2="484" y2="124.5" stroke="white" stroke-dasharray="8 8"/>
<line x1="4" y1="69.5" x2="484" y2="69.5" stroke="white" stroke-dasharray="8 8"/>
</g>
<mask id="mask0_95_5146" style="mask-type:alpha" maskUnits="userSpaceOnUse" x="0" y="38" width="489" height="173">
<rect y="38" width="489" height="173" fill="white"/>
</mask>
<g mask="url(#mask0_95_5146)">
<g filter="url(#filter0_d_95_5146)">
<path d="M-3.99999 43L-3.99999 58.5792L1.14094 58.5792C6.28191 58.5792 16.5639 58.5792 26.3785 77.057C36.6604 95.1724 46.9424 131.765 57.2243 129.229C67.5063 126.331 77.7882 84.6654 87.6028 82.1293C97.8847 79.5931 108.167 116.186 118.449 123.795C128.731 131.765 138.545 110.752 148.827 108.215C159.109 105.679 169.391 121.259 179.673 136.838C189.955 152.417 199.769 168.359 210.051 162.924C220.333 157.852 230.615 131.765 240.897 129.229C250.712 126.331 260.994 147.345 271.276 136.838C281.558 126.331 291.84 84.6655 302.122 77.057C311.936 69.0862 322.218 95.1724 332.5 97.7086C342.782 100.245 353.064 79.5931 362.878 82.1293C373.16 84.6655 383.442 110.752 393.724 123.795C404.006 136.838 414.288 136.838 424.103 142.272C434.385 147.345 444.667 157.852 454.949 162.924C465.231 168.359 475.045 168.359 485.327 162.924C495.609 157.852 505.891 147.345 516.173 147.345C526.455 147.345 536.269 157.852 546.551 160.388C556.833 162.924 567.115 157.852 577.397 155.316C587.212 152.417 597.494 152.417 607.776 155.316C618.058 157.852 628.34 162.924 638.622 149.881C648.436 136.838 658.718 105.679 663.859 90.1001L669 74.1586L669 43.0001" stroke="white" stroke-width="4"/>
</g>
</g>
<g style="mix-blend-mode:darken">
<rect x="397" width="95" height="192" fill="url(#paint0_linear_95_5146)"/>
</g>
<rect width="97" height="189" transform="matrix(-1 0 0 1 97 0)" fill="url(#paint1_linear_95_5146)"/>
<defs>
<filter id="filter0_d_95_5146" x="-32" y="21" width="729" height="178" filterUnits="userSpaceOnUse" color-interpolation-filters="sRGB">
<feFlood flood-opacity="0" result="BackgroundImageFix"/>
<feColorMatrix in="SourceAlpha" type="matrix" values="0 0 0 0 0 0 0 0 0 0 0 0 0 0 0 0 0 0 127 0" result="hardAlpha"/>
<feOffset dy="4"/>
<feGaussianBlur stdDeviation="13"/>
<feComposite in2="hardAlpha" operator="out"/>
<feColorMatrix type="matrix" values="0 0 0 0 0.588235 0 0 0 0 0.392157 0 0 0 0 1 0 0 0 0.5 0"/>
<feBlend mode="normal" in2="BackgroundImageFix" result="effect1_dropShadow_95_5146"/>
<feBlend mode="normal" in="SourceGraphic" in2="effect1_dropShadow_95_5146" result="shape"/>
</filter>
<linearGradient id="paint0_linear_95_5146" x1="522.978" y1="114.146" x2="372.217" y2="114.146" gradientUnits="userSpaceOnUse">
<stop offset="0.331818" stop-color="#746DDE"/>
<stop offset="0.793401" stop-color="#716ADE" stop-opacity="0"/>
</linearGradient>
<linearGradient id="paint1_linear_95_5146" x1="91.3275" y1="112.363" x2="-25.3044" y2="112.363" gradientUnits="userSpaceOnUse">
<stop offset="0.409578" stop-color="#736CDE"/>
<stop offset="0.793401" stop-color="#736CDE" stop-opacity="0"/>
</linearGradient>
</defs>
</svg>

