<svg width="45" height="45" viewBox="0 0 45 45" fill="none" xmlns="http://www.w3.org/2000/svg">
<path d="M0 6C0 2.68629 2.68629 0 6 0H45V39C45 42.3137 42.3137 45 39 45H0V6Z" fill="url(#paint0_linear_73_1644)"/>
<path d="M12 24C11.4477 24 11 23.5523 11 23C11 22.4477 11.4477 22 12 22V24ZM34 23L34.7071 22.2929C35.0976 22.6834 35.0976 23.3166 34.7071 23.7071L34 23ZM27.2929 17.7071C26.9024 17.3166 26.9024 16.6834 27.2929 16.2929C27.6834 15.9024 28.3166 15.9024 28.7071 16.2929L27.2929 17.7071ZM28.7071 29.7071C28.3166 30.0976 27.6834 30.0976 27.2929 29.7071C26.9024 29.3166 26.9024 28.6834 27.2929 28.2929L28.7071 29.7071ZM12 22H34V24H12V22ZM33.2929 23.7071L27.2929 17.7071L28.7071 16.2929L34.7071 22.2929L33.2929 23.7071ZM34.7071 23.7071L28.7071 29.7071L27.2929 28.2929L33.2929 22.2929L34.7071 23.7071Z" fill="white"/>
<defs>
<linearGradient id="paint0_linear_73_1644" x1="22.5" y1="0" x2="22.5" y2="45" gradientUnits="userSpaceOnUse">
<stop stop-color="#7770E0"/>
<stop offset="1" stop-color="#554FD8"/>
</linearGradient>
</defs>
</svg>
