<svg width="18" height="20" viewBox="0 0 18 20" fill="none" xmlns="http://www.w3.org/2000/svg">
<path d="M17 10.8076L14.5126 6.93335H10.8319M17 10.8076H12.563M17 10.8076L8.96639 18.9333M1 10.8076L3.31933 6.93335H7.01681M1 10.8076H5.40336M1 10.8076L8.96639 18.9333M7.01681 6.93335L5.40336 10.8076M7.01681 6.93335H10.8319M5.40336 10.8076H12.563M5.40336 10.8076L8.96639 18.9333M10.8319 6.93335L12.563 10.8076M12.563 10.8076L8.96639 18.9333" stroke="white" stroke-linejoin="round"/>
<path d="M9 3.33333V1" stroke="white" stroke-linecap="round" stroke-linejoin="round"/>
<path d="M11.6665 4.15403L12.8332 2.1333" stroke="white" stroke-linecap="round" stroke-linejoin="round"/>
<path d="M15.0001 5.25001L16.65 3.6001" stroke="white" stroke-linecap="round" stroke-linejoin="round"/>
<path d="M2.64992 5.25001L1 3.6001" stroke="white" stroke-linecap="round" stroke-linejoin="round"/>
<path d="M6.16667 4.15403L5 2.1333" stroke="white" stroke-linecap="round" stroke-linejoin="round"/>
</svg>
