<svg width="1400" height="1267" viewBox="0 0 1400 1267" fill="none" xmlns="http://www.w3.org/2000/svg">
<mask id="mask0_0_1" style="mask-type:alpha" maskUnits="userSpaceOnUse" x="981" y="367" width="489" height="900">
<rect x="981" y="367" width="489" height="900" fill="#D9D9D9"/>
</mask>

<path d="M-334.028 17.2151C-249.959 68.2443 -178.26 129.401 -122.376 197.745C9.00954 359.973 -31.3642 469.038 54.8942 498.645C188.187 544.386 321.746 296.586 618.758 294.816C836.604 293.498 1035.49 425.231 1081.52 455.746C1261.11 574.683 1269.48 680.629 1409.14 702.341C1511.28 718.302 1550.78 668.499 1714.98 667.388C1829.29 666.617 1925.23 689.95 1989.14 710.09" stroke="url(#paint0_linear_0_1)" stroke-opacity="0.4" stroke-miterlimit="10"/>
<path d="M-336.158 29.9146C-252.083 80.9577 -180.373 142.123 -124.471 210.474C6.91278 372.729 -33.4593 481.767 52.7627 511.372C186.092 557.115 319.651 309.315 616.626 307.542C834.507 306.253 1033.39 437.987 1079.42 468.476C1259.02 587.413 1267.35 693.356 1407.04 715.07C1509.19 731.031 1548.65 681.226 1712.89 680.117C1827.23 679.349 1923.14 702.679 1987.04 722.819" stroke="url(#paint1_linear_0_1)" stroke-opacity="0.4" stroke-miterlimit="10"/>
<path d="M-338.287 42.614C-254.203 93.6499 -182.491 154.817 -126.601 223.173C4.78315 385.428 -35.589 494.467 50.6694 524.074C183.853 569.806 317.558 322.017 614.533 320.244C832.378 318.953 1031.26 450.687 1077.29 481.175C1256.88 600.139 1265.26 706.058 1404.91 727.77C1507.06 743.731 1546.56 693.902 1710.76 692.79C1825.1 692.022 1921.01 715.352 1984.92 735.492" stroke="url(#paint2_linear_0_1)" stroke-opacity="0.4" stroke-miterlimit="10"/>
<path d="M-340.345 55.3185C-256.281 106.371 -184.584 167.545 -128.697 235.902C2.68703 398.157 -37.6851 507.196 48.5369 536.8C181.866 582.544 315.426 334.743 612.401 332.97C830.282 331.682 1029.16 463.415 1075.2 493.904C1254.79 612.868 1263.12 718.784 1402.81 740.499C1504.96 756.46 1544.43 706.628 1708.66 705.52C1823.01 704.751 1918.91 728.081 1982.82 748.221" stroke="url(#paint3_linear_0_1)" stroke-opacity="0.4" stroke-miterlimit="10"/>
<path d="M-342.512 68.015C-258.437 119.058 -186.728 180.223 -130.825 248.574C0.594713 410.832 -39.8155 519.894 46.4446 549.475C179.737 595.216 313.333 347.418 610.308 345.645C828.189 344.357 1027.04 476.088 1073.1 506.579C1252.66 625.54 1261.03 731.459 1400.69 753.171C1502.83 769.132 1542.34 719.303 1706.53 718.191C1820.88 717.423 1916.78 740.779 1980.69 760.893" stroke="url(#paint4_linear_0_1)" stroke-opacity="0.4" stroke-miterlimit="10"/>
<path d="M-344.604 80.7171C-260.537 131.767 -188.829 192.93 -132.917 261.275C-1.53303 423.53 -41.9068 532.594 44.3169 562.172C177.537 607.907 311.205 360.116 608.223 358.24C826.068 356.948 1024.95 488.681 1070.98 519.17C1250.57 638.133 1258.91 744.049 1398.6 765.763C1500.75 781.724 1540.21 731.892 1704.45 730.784C1818.79 730.015 1914.7 753.372 1978.64 773.488" stroke="url(#paint5_linear_0_1)" stroke-opacity="0.4" stroke-miterlimit="10"/>
<path d="M-346.667 93.4485C-262.603 144.504 -190.918 205.687 -135.056 274.056C-3.63589 436.314 -44.0461 545.377 42.214 574.957C175.505 620.725 309.101 372.926 606.076 371.154C823.959 369.839 1022.81 501.57 1068.87 532.061C1248.43 651.022 1256.8 756.942 1396.46 778.654C1498.6 794.615 1538.11 744.786 1702.3 743.674C1816.65 742.933 1912.55 766.263 1976.46 786.376" stroke="url(#paint6_linear_0_1)" stroke-opacity="0.4" stroke-miterlimit="10"/>
<path d="M-348.823 106.033C-264.739 157.069 -193.027 218.235 -137.136 286.592C-5.75109 448.821 -46.1249 557.886 40.0971 587.49C173.426 633.234 306.986 385.433 603.997 383.663C821.844 382.345 1020.73 514.079 1066.76 544.594C1246.35 663.531 1254.69 769.448 1394.37 791.189C1496.52 807.15 1536.02 757.321 1700.22 756.236C1814.53 755.464 1910.43 778.794 1974.38 798.937" stroke="url(#paint7_linear_0_1)" stroke-opacity="0.4" stroke-miterlimit="10"/>
<path d="M-350.961 118.839C-266.874 169.881 -195.152 231.047 -139.238 299.401C-7.85291 461.629 -48.2631 570.691 37.9953 600.298C171.215 646.033 304.884 398.241 601.864 396.389C819.746 395.074 1018.59 526.804 1064.66 557.322C1244.22 676.256 1252.59 782.202 1392.24 803.913C1494.39 819.874 1533.89 770.072 1698.09 768.96C1812.43 768.192 1908.34 791.522 1972.24 811.662" stroke="url(#paint8_linear_0_1)" stroke-opacity="0.4" stroke-miterlimit="10"/>
<path d="M-352.984 131.547C-268.925 182.625 -197.242 243.825 -141.377 312.207C-9.99319 474.463 -50.3654 583.502 35.8931 613.109C169.186 658.85 302.745 411.049 599.757 409.279C817.603 407.961 1016.49 539.695 1062.52 570.21C1242.11 689.148 1250.44 795.092 1390.13 816.806C1492.28 832.768 1531.78 782.965 1695.98 781.854C1810.29 781.082 1906.19 804.412 1970.14 824.556" stroke="url(#paint9_linear_0_1)" stroke-opacity="0.4" stroke-miterlimit="10"/>
<path d="M-355.145 144.19C-271.079 195.24 -199.371 256.403 -143.458 324.749C-12.0743 487.004 -52.4464 596.043 33.7756 625.647C167.068 671.388 300.664 423.59 597.639 421.817C815.52 420.529 1014.37 552.26 1060.43 582.751C1239.99 701.685 1248.36 807.631 1388.05 829.346C1490.16 845.304 1529.66 795.501 1693.9 794.393C1808.24 793.624 1904.15 816.954 1968.06 837.094" stroke="url(#paint10_linear_0_1)" stroke-opacity="0.4" stroke-miterlimit="10"/>
<path d="M-357.281 156.943C-273.206 207.986 -201.497 269.151 -145.594 337.502C-14.2108 499.757 -54.5829 608.796 31.6755 638.403C164.968 684.144 298.528 436.343 595.539 434.573C813.384 433.282 1012.27 565.015 1058.3 595.504C1237.89 714.467 1246.23 820.384 1385.92 842.098C1488.06 858.06 1527.57 808.23 1691.76 807.119C1806.07 806.348 1901.98 829.678 1965.92 849.821" stroke="url(#paint11_linear_0_1)" stroke-opacity="0.4" stroke-miterlimit="10"/>
<path d="M-359.301 169.65C-275.243 220.706 -203.537 281.869 -147.614 350.209C-16.2303 512.465 -56.6024 621.503 29.6195 651.107C162.841 696.816 296.515 448.944 593.41 447.272C811.291 445.983 1010.14 577.714 1056.21 608.206C1235.76 727.166 1244.13 833.086 1383.82 854.801C1485.93 870.759 1525.44 820.93 1689.67 819.821C1804.02 819.053 1899.92 842.409 1963.83 862.523" stroke="url(#paint12_linear_0_1)" stroke-opacity="0.4" stroke-miterlimit="10"/>
<path d="M-361.505 182.344C-277.43 233.387 -205.72 294.552 -149.818 362.903C-18.4344 525.159 -58.8081 634.224 27.4519 663.804C160.745 709.545 294.304 461.744 591.316 459.975C809.16 458.683 1008.04 590.417 1054.04 620.902C1233.63 739.866 1241.97 845.783 1381.66 867.497C1483.8 883.459 1523.31 833.629 1687.5 832.518C1801.81 831.747 1897.72 855.103 1961.66 875.22" stroke="url(#paint13_linear_0_1)" stroke-opacity="0.4" stroke-miterlimit="10"/>
<path d="M-363.599 195.046C-279.533 246.096 -207.824 307.26 -151.912 375.606C-20.5281 537.861 -60.9019 646.926 25.3218 676.504C158.578 722.242 292.21 474.447 589.184 472.7C807.065 471.412 1005.91 603.143 1051.98 633.634C1231.53 752.595 1239.91 858.515 1379.6 880.229C1481.71 896.188 1521.21 846.358 1685.44 845.25C1799.79 844.508 1895.69 867.838 1959.6 887.951" stroke="url(#paint14_linear_0_1)" stroke-opacity="0.4" stroke-miterlimit="10"/>
<path d="M-365.62 207.78C-281.527 258.81 -209.814 319.978 -153.933 388.339C-22.5477 550.568 -62.9215 659.633 23.3386 689.214C156.52 734.972 290.194 487.101 587.091 485.402C804.938 484.084 1003.82 615.818 1049.85 646.306C1229.44 765.27 1237.78 871.186 1377.47 892.901C1479.62 908.862 1519.12 859.033 1683.32 857.921C1797.62 857.177 1893.53 880.507 1957.48 900.623" stroke="url(#paint15_linear_0_1)" stroke-opacity="0.4" stroke-miterlimit="10"/>
<path d="M-367.826 220.501C-283.741 271.537 -212.03 332.703 -156.139 401.06C-24.7535 563.289 -65.1273 672.354 21.0947 701.958C154.387 747.699 287.983 499.901 584.958 498.129C802.841 496.813 1001.69 628.544 1047.75 659.062C1227.31 777.996 1235.68 883.942 1375.37 905.657C1477.52 921.618 1516.98 871.812 1681.22 870.704C1795.56 869.935 1891.47 893.265 1955.38 913.405" stroke="url(#paint16_linear_0_1)" stroke-opacity="0.4" stroke-miterlimit="10"/>
<path d="M-369.955 233.174C-285.87 284.21 -214.159 345.376 -158.268 413.733C-26.8829 575.962 -67.2567 685.027 19.0017 714.635C152.258 760.373 285.854 512.574 582.862 510.858C800.709 509.54 999.592 641.274 1045.62 671.789C1225.21 790.726 1233.55 896.669 1373.24 918.384C1475.38 934.345 1514.89 884.543 1679.09 883.431C1793.39 882.66 1889.3 905.99 1953.24 926.133" stroke="url(#paint17_linear_0_1)" stroke-opacity="0.4" stroke-miterlimit="10"/>
<path d="M-371.939 245.883C-287.865 296.926 -216.155 358.092 -160.253 426.443C-28.8689 588.698 -69.241 697.737 16.981 727.341C150.161 773.126 283.871 525.257 580.735 523.503C798.617 522.214 997.5 653.948 1043.53 684.436C1223.09 803.371 1231.46 909.317 1371.15 931.031C1473.29 946.993 1512.76 897.187 1676.99 896.078C1791.34 895.31 1887.25 918.64 1951.15 938.78" stroke="url(#paint18_linear_0_1)" stroke-opacity="0.4" stroke-miterlimit="10"/>
<path d="M-374.182 258.655C-290.097 309.691 -218.386 370.858 -162.495 439.214C-31.1112 601.469 -71.4833 710.507 14.7751 740.114C148.068 785.854 281.627 538.055 578.639 536.285C796.488 534.914 995.371 666.647 1041.4 697.135C1220.99 816.098 1229.33 922.015 1369.02 943.729C1471.17 959.69 1510.67 909.861 1674.87 908.75C1789.18 907.978 1885.08 931.308 1949.03 951.451" stroke="url(#paint19_linear_0_1)" stroke-opacity="0.4" stroke-miterlimit="10"/>
<path d="M-376.273 271.277C-292.198 322.32 -220.489 383.485 -164.586 451.837C-33.2026 614.093 -73.5748 723.131 12.6472 752.736C145.94 798.477 279.536 550.678 576.505 549.012C794.386 547.723 993.269 679.457 1039.3 709.946C1218.86 828.907 1227.23 934.827 1366.92 956.542C1469.06 972.503 1508.53 922.671 1672.77 921.562C1787.11 920.794 1883.02 944.124 1946.92 964.264" stroke="url(#paint20_linear_0_1)" stroke-opacity="0.4" stroke-miterlimit="10"/>
<path d="M-378.256 283.986C-294.182 335.03 -222.472 396.195 -166.57 464.546C-35.1857 626.801 -75.5595 735.866 10.7005 765.447C143.841 811.282 277.551 563.413 574.419 561.606C792.263 560.314 991.147 692.048 1037.18 722.537C1216.77 841.5 1225.11 947.417 1364.8 969.132C1466.94 985.093 1506.45 935.264 1670.64 934.152C1784.95 933.381 1880.89 956.741 1944.8 976.854" stroke="url(#paint21_linear_0_1)" stroke-opacity="0.4" stroke-miterlimit="10"/>
<path d="M-380.502 296.812C-296.436 347.862 -224.728 409.025 -168.816 477.371C-37.4318 639.625 -77.8055 748.689 8.41811 778.267C141.711 824.008 275.306 576.211 572.281 574.438C790.171 573.017 989.054 704.75 1035.08 735.238C1214.68 854.201 1223.01 960.117 1362.7 981.831C1464.85 997.793 1504.32 947.961 1668.55 946.852C1782.89 946.084 1878.8 969.44 1942.71 989.554" stroke="url(#paint22_linear_0_1)" stroke-opacity="0.4" stroke-miterlimit="10"/>
<path d="M-382.627 309.404C-298.545 360.432 -226.833 421.589 -170.939 489.937C-39.5548 652.192 -79.9286 761.257 6.33146 790.837C139.623 836.605 273.182 588.804 570.195 587.008C788.04 585.716 986.923 717.45 1032.95 747.938C1212.55 866.902 1220.92 972.821 1360.57 994.533C1462.72 1010.49 1502.22 960.665 1666.42 959.553C1780.73 958.809 1876.67 982.141 1940.58 1002.25" stroke="url(#paint23_linear_0_1)" stroke-opacity="0.4" stroke-miterlimit="10"/>
<path d="M-384.575 322.111C-300.491 373.147 -228.779 434.314 -172.889 502.671C-41.5032 664.9 -81.877 773.965 4.34504 803.569C137.52 849.434 271.23 601.565 568.063 599.728C785.946 598.413 984.829 730.147 1030.86 760.662C1210.45 879.599 1218.79 985.516 1358.48 1007.26C1460.62 1023.22 1500.09 973.386 1664.32 972.304C1778.67 971.536 1874.57 994.866 1938.48 1015.01" stroke="url(#paint24_linear_0_1)" stroke-opacity="0.4" stroke-miterlimit="10"/>
<path d="M-386.85 334.801C-302.765 385.837 -231.054 447.003 -175.163 515.36C-43.7777 677.588 -84.1515 786.653 2.10694 816.261C135.4 862.001 268.995 614.204 565.971 612.431C783.817 611.113 982.705 742.767 1028.77 773.364C1208.32 892.299 1216.69 998.245 1356.35 1019.96C1458.49 1035.92 1498 986.115 1662.19 985.003C1776.54 984.235 1872.44 1007.57 1936.35 1027.71" stroke="url(#paint25_linear_0_1)" stroke-opacity="0.4" stroke-miterlimit="10"/>
<path d="M-388.944 347.503C-304.869 398.546 -233.16 459.711 -177.257 528.062C-45.8736 690.317 -86.2457 799.355 -0.0237132 828.96C133.306 874.703 266.865 626.903 563.84 625.13C781.723 623.815 980.606 755.549 1026.64 786.064C1206.23 905.001 1214.56 1010.94 1354.25 1032.66C1456.4 1048.62 1495.87 998.814 1660.1 997.705C1774.44 996.937 1870.35 1020.27 1934.26 1040.41" stroke="url(#paint26_linear_0_1)" stroke-opacity="0.4" stroke-miterlimit="10"/>
<defs>
<filter id="filter0_b_0_1" x="821.244" y="207.244" width="1219.51" height="1219.51" filterUnits="userSpaceOnUse" color-interpolation-filters="sRGB">
<feFlood flood-opacity="0" result="BackgroundImageFix"/>
<feGaussianBlur in="BackgroundImageFix" stdDeviation="79.8781"/>
<feComposite in2="SourceAlpha" operator="in" result="effect1_backgroundBlur_0_1"/>
<feBlend mode="normal" in="SourceGraphic" in2="effect1_backgroundBlur_0_1" result="shape"/>
</filter>
<linearGradient id="paint0_linear_0_1" x1="843.395" y1="109.114" x2="800.736" y2="655.672" gradientUnits="userSpaceOnUse">
<stop offset="0.473958" stop-color="#7770E0" stop-opacity="0"/>
<stop offset="1" stop-color="#7770E0"/>
</linearGradient>
<linearGradient id="paint1_linear_0_1" x1="841.284" y1="121.815" x2="798.622" y2="668.4" gradientUnits="userSpaceOnUse">
<stop offset="0.473958" stop-color="#7770E0" stop-opacity="0"/>
<stop offset="1" stop-color="#7770E0"/>
</linearGradient>
<linearGradient id="paint2_linear_0_1" x1="839.154" y1="134.514" x2="796.493" y2="681.099" gradientUnits="userSpaceOnUse">
<stop offset="0.473958" stop-color="#7770E0" stop-opacity="0"/>
<stop offset="1" stop-color="#7770E0"/>
</linearGradient>
<linearGradient id="paint3_linear_0_1" x1="837.078" y1="147.218" x2="794.414" y2="693.829" gradientUnits="userSpaceOnUse">
<stop offset="0.473958" stop-color="#7770E0" stop-opacity="0"/>
<stop offset="1" stop-color="#7770E0"/>
</linearGradient>
<linearGradient id="paint4_linear_0_1" x1="834.929" y1="159.915" x2="792.268" y2="706.5" gradientUnits="userSpaceOnUse">
<stop offset="0.473958" stop-color="#7770E0" stop-opacity="0"/>
<stop offset="1" stop-color="#7770E0"/>
</linearGradient>
<linearGradient id="paint5_linear_0_1" x1="832.856" y1="172.618" x2="790.203" y2="719.094" gradientUnits="userSpaceOnUse">
<stop offset="0.473958" stop-color="#7770E0" stop-opacity="0"/>
<stop offset="1" stop-color="#7770E0"/>
</linearGradient>
<linearGradient id="paint6_linear_0_1" x1="830.739" y1="185.346" x2="788.073" y2="731.986" gradientUnits="userSpaceOnUse">
<stop offset="0.473958" stop-color="#7770E0" stop-opacity="0"/>
<stop offset="1" stop-color="#7770E0"/>
</linearGradient>
<linearGradient id="paint7_linear_0_1" x1="828.618" y1="197.933" x2="785.957" y2="744.518" gradientUnits="userSpaceOnUse">
<stop offset="0.473958" stop-color="#7770E0" stop-opacity="0"/>
<stop offset="1" stop-color="#7770E0"/>
</linearGradient>
<linearGradient id="paint8_linear_0_1" x1="826.48" y1="210.739" x2="783.825" y2="757.243" gradientUnits="userSpaceOnUse">
<stop offset="0.473958" stop-color="#7770E0" stop-opacity="0"/>
<stop offset="1" stop-color="#7770E0"/>
</linearGradient>
<linearGradient id="paint9_linear_0_1" x1="824.421" y1="223.445" x2="781.751" y2="770.138" gradientUnits="userSpaceOnUse">
<stop offset="0.473958" stop-color="#7770E0" stop-opacity="0"/>
<stop offset="1" stop-color="#7770E0"/>
</linearGradient>
<linearGradient id="paint10_linear_0_1" x1="822.297" y1="236.09" x2="779.635" y2="782.675" gradientUnits="userSpaceOnUse">
<stop offset="0.473958" stop-color="#7770E0" stop-opacity="0"/>
<stop offset="1" stop-color="#7770E0"/>
</linearGradient>
<linearGradient id="paint11_linear_0_1" x1="820.16" y1="248.843" x2="777.499" y2="795.428" gradientUnits="userSpaceOnUse">
<stop offset="0.473958" stop-color="#7770E0" stop-opacity="0"/>
<stop offset="1" stop-color="#7770E0"/>
</linearGradient>
<linearGradient id="paint12_linear_0_1" x1="818.104" y1="261.547" x2="775.443" y2="808.132" gradientUnits="userSpaceOnUse">
<stop offset="0.473958" stop-color="#7770E0" stop-opacity="0"/>
<stop offset="1" stop-color="#7770E0"/>
</linearGradient>
<linearGradient id="paint13_linear_0_1" x1="815.918" y1="274.243" x2="773.257" y2="820.828" gradientUnits="userSpaceOnUse">
<stop offset="0.473958" stop-color="#7770E0" stop-opacity="0"/>
<stop offset="1" stop-color="#7770E0"/>
</linearGradient>
<linearGradient id="paint14_linear_0_1" x1="813.843" y1="286.946" x2="771.179" y2="833.558" gradientUnits="userSpaceOnUse">
<stop offset="0.473958" stop-color="#7770E0" stop-opacity="0"/>
<stop offset="1" stop-color="#7770E0"/>
</linearGradient>
<linearGradient id="paint15_linear_0_1" x1="811.767" y1="299.676" x2="769.108" y2="846.234" gradientUnits="userSpaceOnUse">
<stop offset="0.473958" stop-color="#7770E0" stop-opacity="0"/>
<stop offset="1" stop-color="#7770E0"/>
</linearGradient>
<linearGradient id="paint16_linear_0_1" x1="809.616" y1="312.401" x2="766.954" y2="858.986" gradientUnits="userSpaceOnUse">
<stop offset="0.473958" stop-color="#7770E0" stop-opacity="0"/>
<stop offset="1" stop-color="#7770E0"/>
</linearGradient>
<linearGradient id="paint17_linear_0_1" x1="807.487" y1="325.074" x2="764.821" y2="871.713" gradientUnits="userSpaceOnUse">
<stop offset="0.473958" stop-color="#7770E0" stop-opacity="0"/>
<stop offset="1" stop-color="#7770E0"/>
</linearGradient>
<linearGradient id="paint18_linear_0_1" x1="805.448" y1="337.779" x2="762.786" y2="884.365" gradientUnits="userSpaceOnUse">
<stop offset="0.473958" stop-color="#7770E0" stop-opacity="0"/>
<stop offset="1" stop-color="#7770E0"/>
</linearGradient>
<linearGradient id="paint19_linear_0_1" x1="803.259" y1="350.555" x2="760.605" y2="897.059" gradientUnits="userSpaceOnUse">
<stop offset="0.473958" stop-color="#7770E0" stop-opacity="0"/>
<stop offset="1" stop-color="#7770E0"/>
</linearGradient>
<linearGradient id="paint20_linear_0_1" x1="801.169" y1="363.178" x2="758.499" y2="909.87" gradientUnits="userSpaceOnUse">
<stop offset="0.473958" stop-color="#7770E0" stop-opacity="0"/>
<stop offset="1" stop-color="#7770E0"/>
</linearGradient>
<linearGradient id="paint21_linear_0_1" x1="799.113" y1="375.881" x2="756.451" y2="922.466" gradientUnits="userSpaceOnUse">
<stop offset="0.473958" stop-color="#7770E0" stop-opacity="0"/>
<stop offset="1" stop-color="#7770E0"/>
</linearGradient>
<linearGradient id="paint22_linear_0_1" x1="796.939" y1="388.712" x2="754.288" y2="935.161" gradientUnits="userSpaceOnUse">
<stop offset="0.473958" stop-color="#7770E0" stop-opacity="0"/>
<stop offset="1" stop-color="#7770E0"/>
</linearGradient>
<linearGradient id="paint23_linear_0_1" x1="794.814" y1="401.304" x2="752.155" y2="947.862" gradientUnits="userSpaceOnUse">
<stop offset="0.473958" stop-color="#7770E0" stop-opacity="0"/>
<stop offset="1" stop-color="#7770E0"/>
</linearGradient>
<linearGradient id="paint24_linear_0_1" x1="792.793" y1="414.006" x2="750.132" y2="960.592" gradientUnits="userSpaceOnUse">
<stop offset="0.473958" stop-color="#7770E0" stop-opacity="0"/>
<stop offset="1" stop-color="#7770E0"/>
</linearGradient>
<linearGradient id="paint25_linear_0_1" x1="790.592" y1="426.701" x2="747.93" y2="973.286" gradientUnits="userSpaceOnUse">
<stop offset="0.473958" stop-color="#7770E0" stop-opacity="0"/>
<stop offset="1" stop-color="#7770E0"/>
</linearGradient>
<linearGradient id="paint26_linear_0_1" x1="788.497" y1="439.403" x2="745.836" y2="985.988" gradientUnits="userSpaceOnUse">
<stop offset="0.473958" stop-color="#7770E0" stop-opacity="0"/>
<stop offset="1" stop-color="#7770E0"/>
</linearGradient>
</defs>
</svg>
