<svg width="489" height="173" viewBox="0 0 489 173" fill="none" xmlns="http://www.w3.org/2000/svg">
<mask id="mask0_73_533" style="mask-type:alpha" maskUnits="userSpaceOnUse" x="0" y="0" width="489" height="173">
<rect width="489" height="173" fill="white"/>
</mask>
<g mask="url(#mask0_73_533)">
<g filter="url(#filter0_d_73_533)">
<path d="M-3.99999 5L-3.99999 20.5792L1.14094 20.5792C6.28191 20.5792 16.5639 20.5792 26.3785 39.057C36.6604 57.1724 46.9424 93.7655 57.2243 91.2293C67.5063 88.3309 77.7882 46.6654 87.6028 44.1293C97.8847 41.5931 108.167 78.1862 118.449 85.7947C128.731 93.7655 138.545 72.7516 148.827 70.2155C159.109 67.6793 169.391 83.2586 179.673 98.8378C189.955 114.417 199.769 130.359 210.051 124.924C220.333 119.852 230.615 93.7655 240.897 91.2293C250.712 88.3309 260.994 109.345 271.276 98.8378C281.558 88.3309 291.84 46.6655 302.122 39.057C311.936 31.0862 322.218 57.1724 332.5 59.7086C342.782 62.2447 353.064 41.5931 362.878 44.1293C373.16 46.6655 383.442 72.7516 393.724 85.7947C404.006 98.8378 414.288 98.8378 424.103 104.272C434.385 109.345 444.667 119.852 454.949 124.924C465.231 130.359 475.045 130.359 485.327 124.924C495.609 119.852 505.891 109.345 516.173 109.345C526.455 109.345 536.269 119.852 546.551 122.388C556.833 124.924 567.115 119.852 577.397 117.316C587.212 114.417 597.494 114.417 607.776 117.316C618.058 119.852 628.34 124.924 638.622 111.881C648.436 98.8379 658.718 67.6794 663.859 52.1001L669 36.1586L669 5.00006" stroke="white" stroke-width="4"/>
</g>
</g>
<defs>
<filter id="filter0_d_73_533" x="-32" y="-17" width="729" height="178" filterUnits="userSpaceOnUse" color-interpolation-filters="sRGB">
<feFlood flood-opacity="0" result="BackgroundImageFix"/>
<feColorMatrix in="SourceAlpha" type="matrix" values="0 0 0 0 0 0 0 0 0 0 0 0 0 0 0 0 0 0 127 0" result="hardAlpha"/>
<feOffset dy="4"/>
<feGaussianBlur stdDeviation="13"/>
<feComposite in2="hardAlpha" operator="out"/>
<feColorMatrix type="matrix" values="0 0 0 0 0.588235 0 0 0 0 0.392157 0 0 0 0 1 0 0 0 0.5 0"/>
<feBlend mode="normal" in2="BackgroundImageFix" result="effect1_dropShadow_73_533"/>
<feBlend mode="normal" in="SourceGraphic" in2="effect1_dropShadow_73_533" result="shape"/>
</filter>
</defs>
</svg>
