<svg width="1190" height="1920" viewBox="0 0 1190 1920" fill="none" xmlns="http://www.w3.org/2000/svg">
<path d="M-746.76 845.73C-380.801 743.583 282.721 1066.94 299.69 1270.14C310.806 1403.35 -34.5224 1546.88 -121.313 1608.6C-239.683 1692.74 -33.9622 1478.57 -27.5409 1329.22C-19.9201 1151.76 -243.699 788.746 63.0794 739.022C330.822 695.661 451.222 872.295 626.794 792.473C785.565 720.22 854.209 499.907 887.334 326.132" stroke="url(#paint0_linear_422_1198)" stroke-miterlimit="10"/>
<path d="M-741.752 858.131C-389.114 767.763 249.584 1081.49 271.409 1273.37C285.686 1399.09 -41.4098 1533.46 -121.813 1589.87C-233.292 1668.04 -36.7164 1463.04 -28.9706 1319.41C-19.724 1147.2 -229.353 798.787 66.4268 750.791C330.233 707.812 447.76 890.485 626.36 815.059C786.571 746.805 861.267 528.51 898.879 356.61" stroke="url(#paint1_linear_422_1198)" stroke-miterlimit="10"/>
<path d="M-736.776 870.41C-397.432 791.776 216.481 1095.84 243.189 1276.47C260.619 1394.72 -48.3088 1519.96 -122.339 1571.09C-226.995 1643.24 -39.4921 1447.46 -30.432 1309.5C-19.5635 1142.55 -215.036 808.729 69.7373 762.447C329.621 719.872 444.457 909.065 625.916 837.462C787.707 773.712 868.277 556.961 910.383 386.91" stroke="url(#paint2_linear_422_1198)" stroke-miterlimit="10"/>
<path d="M-731.739 882.716C-405.653 815.788 183.5 1110.12 215.075 1279.61C235.629 1390.35 -55.1496 1506.56 -122.821 1552.41C-220.768 1618.44 -42.2232 1431.89 -31.8695 1299.62C-19.2191 1137.82 -200.737 818.636 73.0697 774.033C329.021 731.895 441.05 927.367 625.424 859.763C788.626 800.017 875.258 585.34 921.832 417.104" stroke="url(#paint3_linear_422_1198)" stroke-miterlimit="10"/>
<path d="M-726.744 894.922C-413.75 839.567 150.535 1124.21 187.012 1282.63C210.675 1385.87 -61.9712 1493.07 -123.335 1533.57C-214.491 1593.68 -44.917 1416.33 -33.3043 1289.74C-18.9426 1133.13 -186.465 828.51 76.3746 785.592C328.417 743.862 437.592 945.318 625.004 881.93C789.584 826.257 882.275 613.54 933.271 447.192" stroke="url(#paint4_linear_422_1198)" stroke-miterlimit="10"/>
<path d="M-721.752 907.07C-421.91 863.296 117.64 1138.16 158.996 1285.62C185.739 1381.31 -68.7711 1479.58 -123.83 1514.86C-208.196 1568.9 -47.5575 1400.75 -34.7306 1279.86C-18.6445 1128.41 -172.215 838.361 79.7071 797.115C327.806 755.835 434.154 963.283 624.543 904.022C790.538 852.363 889.298 641.608 944.688 477.186" stroke="url(#paint5_linear_422_1198)" stroke-miterlimit="10"/>
<path d="M-716.73 919.164C-430.042 886.903 84.6994 1151.7 131.083 1288.55C160.871 1376.64 -75.6607 1466.1 -124.326 1496.16C-201.987 1544.1 -50.1793 1385.22 -36.1413 1270.01C-18.3178 1123.67 -158.04 848.108 82.9626 808.613C327.161 767.721 430.638 981.125 624.057 925.994C791.345 878.311 896.134 669.708 956.024 507.075" stroke="url(#paint6_linear_422_1198)" stroke-miterlimit="10"/>
<path d="M-711.743 931.182C-438.179 910.374 51.7911 1165.16 103.232 1291.39C136.042 1371.88 -82.2956 1452.49 -124.787 1477.49C-195.812 1519.3 -52.7202 1369.68 -37.4398 1260.07C-17.8629 1118.73 -143.731 858.213 86.4146 819.924C326.729 779.943 427.299 998.708 623.747 947.71C792.466 903.924 903.206 697.466 967.502 536.716" stroke="url(#paint7_linear_422_1198)" stroke-miterlimit="10"/>
<path d="M-706.757 943.118C-446.255 933.708 18.8342 1178.41 75.4337 1294.17C111.086 1367.06 -88.9356 1438.87 -125.267 1458.84C-189.677 1494.27 -55.245 1354.16 -38.9226 1250.29C-17.5647 1114.11 -129.796 868.04 89.6142 831.319C326.04 791.801 423.774 1016.22 623.19 969.427C793.226 929.517 910.013 725.217 978.704 566.358" stroke="url(#paint8_linear_422_1198)" stroke-miterlimit="10"/>
<path d="M-701.752 954.979C-454.314 956.888 -14.1946 1191.44 47.7281 1296.88C86.0961 1362.18 -95.5555 1425.19 -125.739 1440.25C-183.602 1469.11 -57.8116 1338.69 -40.3187 1240.44C-17.1086 1109.31 -115.585 877.592 93.0298 842.589C325.575 803.536 420.447 1033.53 622.852 990.93C794.218 954.846 917.011 752.729 990.118 595.782" stroke="url(#paint9_linear_422_1198)" stroke-miterlimit="10"/>
<path d="M-696.773 966.824C-462.326 979.994 -47.3377 1204.39 20.1339 1299.61C61.047 1357.38 -101.942 1411.51 -126.294 1421.86C-177.613 1443.66 -60.2771 1323.37 -41.7924 1230.74C-16.7166 1104.6 -101.593 887.293 96.1291 853.938C324.796 815.379 416.803 1050.86 622.23 1012.44C794.901 980.076 923.702 780.244 1001.18 625.188" stroke="url(#paint10_linear_422_1198)" stroke-miterlimit="10"/>
<path d="M-691.781 978.792C-470.286 1003.12 -80.5846 1217.44 -7.30364 1302.58C35.9556 1352.85 -107.642 1401.68 -126.517 1403.69C-168.338 1425.89 -62.392 1308.24 -42.9337 1221.23C-15.9461 1100.01 -87.2838 896.935 99.6585 865.257C324.512 827.125 413.668 1068.1 622.095 1033.88C796.135 1005.28 930.914 807.61 1012.79 654.405" stroke="url(#paint11_linear_422_1198)" stroke-miterlimit="10"/>
<path d="M-686.78 990.574C-478.255 1026.04 -114.151 1230.32 -34.7421 1305.35C10.6629 1348.23 -114.095 1388.75 -126.902 1385.52C-161.849 1402.27 -64.4997 1293.05 -44.2298 1211.66C-15.2566 1095.36 -73.204 906.517 103.001 876.434C324.022 838.762 410.345 1085.09 621.778 1055.05C797.155 1030.13 937.889 834.732 1024.15 683.404" stroke="url(#paint12_linear_422_1198)" stroke-miterlimit="10"/>
<path d="M-681.75 1003.9C-485.937 1050.54 -147.414 1245.63 -61.4296 1310.6C-14.0958 1346.38 -119.947 1378.59 -126.617 1370.06C-154.763 1381.42 -65.8953 1280.36 -44.7668 1204.37C-13.7209 1092.6 -58.4127 917.425 107.28 888.995C324.674 851.69 408.251 1104 622.875 1078.12C799.74 1056.78 946.636 863.146 1037.26 713.332" stroke="url(#paint13_linear_422_1198)" stroke-miterlimit="10"/>
<path d="M-676.698 1018.19C-493.474 1076.13 -180.716 1262.63 -87.7265 1317.39C-38.6556 1346.29 -125.414 1370.07 -126.113 1356.32C-147.457 1362.27 -66.9581 1269.22 -45.074 1198.41C-11.856 1090.9 -43.3948 929.202 111.835 902.339C325.756 865.343 406.631 1124.06 624.558 1102.34C803.045 1084.57 956.061 892.411 1051.24 743.802" stroke="url(#paint14_linear_422_1198)" stroke-miterlimit="10"/>
<path d="M-671.616 1032.48C-501.021 1101.73 -214.302 1280.09 -114.061 1324.19C-63.4199 1346.43 -130.904 1361.53 -125.506 1342.49C-140.06 1343.05 -67.8636 1258.01 -45.2536 1192.53C-9.68061 1089.51 -28.2511 941.059 116.524 915.807C326.956 879.079 405.16 1144.23 626.401 1126.69C806.517 1112.44 965.672 921.796 1065.37 774.434" stroke="url(#paint15_linear_422_1198)" stroke-miterlimit="10"/>
<path d="M-666.561 1046.78C-508.572 1127.37 -248.311 1298.17 -140.399 1330.94C-88.285 1346.79 -136.381 1352.91 -124.937 1328.58C-132.672 1323.72 -68.6832 1246.75 -45.4681 1186.51C-7.45567 1087.9 -13.1233 952.844 121.192 929.132C328.109 892.683 403.643 1164.21 628.172 1150.95C809.919 1140.21 975.248 951.102 1079.43 804.983" stroke="url(#paint16_linear_422_1198)" stroke-miterlimit="10"/>
<path d="M-661.494 1061.11C-516.159 1153.04 -282.274 1316.88 -166.744 1337.71C-113.135 1347.37 -141.882 1344.26 -124.356 1314.63C-125.266 1304.35 -69.3872 1235.45 -45.7737 1180.5C-5.11516 1086.34 1.95027 964.661 125.786 942.616C329.203 906.415 402.111 1184.38 629.92 1175.37C813.293 1168.13 984.811 980.582 1093.49 835.706" stroke="url(#paint17_linear_422_1198)" stroke-miterlimit="10"/>
<path d="M-656.413 1075.41C-523.726 1178.74 -316.129 1336.16 -193.125 1344.44C-137.904 1348.15 -142.814 1337.23 -123.782 1300.63C-115.855 1285.37 -70.0336 1224.05 -45.862 1174.38C-2.39217 1084.76 17.2084 976.357 130.58 955.971C330.489 919.998 400.731 1204.38 631.818 1199.7C816.868 1195.95 994.524 1009.97 1107.74 866.35" stroke="url(#paint18_linear_422_1198)" stroke-miterlimit="10"/>
<path d="M-651.327 1089.79C-531.281 1204.51 -349.602 1356 -219.402 1351.17C-162.297 1349.08 -150.598 1327.82 -123.043 1286.55C-109.222 1265.83 -70.3619 1212.86 -45.9304 1168.26C0.641154 1083.3 32.5133 988.137 135.399 969.371C331.807 933.575 399.426 1224.44 633.79 1224.08C820.51 1223.81 1004.31 1039.46 1122.01 897.078" stroke="url(#paint19_linear_422_1198)" stroke-miterlimit="10"/>
<path d="M-646.295 1104.02C-538.893 1230.17 -382.68 1375.96 -245.977 1357.83C-186.768 1349.98 -157.576 1318.4 -122.62 1272.38C-102.607 1246.02 -70.9349 1201.57 -46.2915 1162.07C3.66936 1081.96 47.5549 999.689 139.909 982.68C332.827 946.773 397.887 1244.07 635.427 1248.4C823.879 1251.37 1013.77 1068.86 1136.02 927.742" stroke="url(#paint20_linear_422_1198)" stroke-miterlimit="10"/>
<path d="M-641.215 1118.33C-546.496 1255.94 -415.226 1396.13 -272.425 1364.51C-87.9494 1323.78 -35.0099 1029.9 144.637 996.119C334.046 960.532 396.428 1264.44 637.288 1272.88C827.383 1279.57 1023.49 1098.46 1150.24 958.584" stroke="url(#paint21_linear_422_1198)" stroke-miterlimit="10"/>
<defs>
<linearGradient id="paint0_linear_422_1198" x1="44.6995" y1="509.681" x2="416.659" y2="1385.72" gradientUnits="userSpaceOnUse">
<stop stop-color="#4A3AFF" stop-opacity="0.672727"/>
<stop offset="0.322917" stop-color="#4A3AFF" stop-opacity="0"/>
<stop offset="0.557292" stop-color="#4A3AFF"/>
<stop offset="1" stop-color="#4A3AFF" stop-opacity="0"/>
</linearGradient>
<linearGradient id="paint1_linear_422_1198" x1="49.9766" y1="522.27" x2="409.336" y2="1369.39" gradientUnits="userSpaceOnUse">
<stop stop-color="#4A3AFF" stop-opacity="0.672727"/>
<stop offset="0.322917" stop-color="#4A3AFF" stop-opacity="0"/>
<stop offset="0.557292" stop-color="#4A3AFF"/>
<stop offset="1" stop-color="#4A3AFF" stop-opacity="0"/>
</linearGradient>
<linearGradient id="paint2_linear_422_1198" x1="55.2248" y1="534.759" x2="402.003" y2="1353.01" gradientUnits="userSpaceOnUse">
<stop stop-color="#4A3AFF" stop-opacity="0.672727"/>
<stop offset="0.322917" stop-color="#4A3AFF" stop-opacity="0"/>
<stop offset="0.557292" stop-color="#4A3AFF"/>
<stop offset="1" stop-color="#4A3AFF" stop-opacity="0"/>
</linearGradient>
<linearGradient id="paint3_linear_422_1198" x1="60.5017" y1="547.313" x2="394.714" y2="1336.74" gradientUnits="userSpaceOnUse">
<stop stop-color="#4A3AFF" stop-opacity="0.672727"/>
<stop offset="0.322917" stop-color="#4A3AFF" stop-opacity="0"/>
<stop offset="0.557292" stop-color="#4A3AFF"/>
<stop offset="1" stop-color="#4A3AFF" stop-opacity="0"/>
</linearGradient>
<linearGradient id="paint4_linear_422_1198" x1="65.7501" y1="559.789" x2="387.4" y2="1320.4" gradientUnits="userSpaceOnUse">
<stop stop-color="#4A3AFF" stop-opacity="0.672727"/>
<stop offset="0.322917" stop-color="#4A3AFF" stop-opacity="0"/>
<stop offset="0.557292" stop-color="#4A3AFF"/>
<stop offset="1" stop-color="#4A3AFF" stop-opacity="0"/>
</linearGradient>
<linearGradient id="paint5_linear_422_1198" x1="70.9903" y1="572.237" x2="380.146" y2="1304.19" gradientUnits="userSpaceOnUse">
<stop stop-color="#4A3AFF" stop-opacity="0.672727"/>
<stop offset="0.322917" stop-color="#4A3AFF" stop-opacity="0"/>
<stop offset="0.557292" stop-color="#4A3AFF"/>
<stop offset="1" stop-color="#4A3AFF" stop-opacity="0"/>
</linearGradient>
<linearGradient id="paint6_linear_422_1198" x1="76.2171" y1="584.678" x2="372.904" y2="1288.02" gradientUnits="userSpaceOnUse">
<stop stop-color="#4A3AFF" stop-opacity="0.672727"/>
<stop offset="0.322917" stop-color="#4A3AFF" stop-opacity="0"/>
<stop offset="0.557292" stop-color="#4A3AFF"/>
<stop offset="1" stop-color="#4A3AFF" stop-opacity="0"/>
</linearGradient>
<linearGradient id="paint7_linear_422_1198" x1="81.5094" y1="597.035" x2="365.791" y2="1271.91" gradientUnits="userSpaceOnUse">
<stop stop-color="#4A3AFF" stop-opacity="0.672727"/>
<stop offset="0.322917" stop-color="#4A3AFF" stop-opacity="0"/>
<stop offset="0.557292" stop-color="#4A3AFF"/>
<stop offset="1" stop-color="#4A3AFF" stop-opacity="0"/>
</linearGradient>
<linearGradient id="paint8_linear_422_1198" x1="86.6647" y1="609.4" x2="358.589" y2="1255.9" gradientUnits="userSpaceOnUse">
<stop stop-color="#4A3AFF" stop-opacity="0.672727"/>
<stop offset="0.322917" stop-color="#4A3AFF" stop-opacity="0"/>
<stop offset="0.557292" stop-color="#4A3AFF"/>
<stop offset="1" stop-color="#4A3AFF" stop-opacity="0"/>
</linearGradient>
<linearGradient id="paint9_linear_422_1198" x1="91.9397" y1="621.682" x2="351.59" y2="1240" gradientUnits="userSpaceOnUse">
<stop stop-color="#4A3AFF" stop-opacity="0.672727"/>
<stop offset="0.322917" stop-color="#4A3AFF" stop-opacity="0"/>
<stop offset="0.557292" stop-color="#4A3AFF"/>
<stop offset="1" stop-color="#4A3AFF" stop-opacity="0"/>
</linearGradient>
<linearGradient id="paint10_linear_422_1198" x1="97.0411" y1="634.027" x2="344.924" y2="1225.3" gradientUnits="userSpaceOnUse">
<stop stop-color="#4A3AFF" stop-opacity="0.672727"/>
<stop offset="0.322917" stop-color="#4A3AFF" stop-opacity="0"/>
<stop offset="0.557292" stop-color="#4A3AFF"/>
<stop offset="1" stop-color="#4A3AFF" stop-opacity="0"/>
</linearGradient>
<linearGradient id="paint11_linear_422_1198" x1="102.423" y1="646.371" x2="339.638" y2="1213.11" gradientUnits="userSpaceOnUse">
<stop stop-color="#4A3AFF" stop-opacity="0.672727"/>
<stop offset="0.322917" stop-color="#4A3AFF" stop-opacity="0"/>
<stop offset="0.557292" stop-color="#4A3AFF"/>
<stop offset="1" stop-color="#4A3AFF" stop-opacity="0"/>
</linearGradient>
<linearGradient id="paint12_linear_422_1198" x1="107.701" y1="658.634" x2="333.85" y2="1199.91" gradientUnits="userSpaceOnUse">
<stop stop-color="#4A3AFF" stop-opacity="0.672727"/>
<stop offset="0.322917" stop-color="#4A3AFF" stop-opacity="0"/>
<stop offset="0.557292" stop-color="#4A3AFF"/>
<stop offset="1" stop-color="#4A3AFF" stop-opacity="0"/>
</linearGradient>
<linearGradient id="paint13_linear_422_1198" x1="113.791" y1="671.628" x2="338.187" y2="1208.89" gradientUnits="userSpaceOnUse">
<stop stop-color="#4A3AFF" stop-opacity="0.672727"/>
<stop offset="0.322917" stop-color="#4A3AFF" stop-opacity="0"/>
<stop offset="0.557292" stop-color="#4A3AFF"/>
<stop offset="1" stop-color="#4A3AFF" stop-opacity="0"/>
</linearGradient>
<linearGradient id="paint14_linear_422_1198" x1="120.31" y1="685.109" x2="348.683" y2="1231.57" gradientUnits="userSpaceOnUse">
<stop stop-color="#4A3AFF" stop-opacity="0.672727"/>
<stop offset="0.322917" stop-color="#4A3AFF" stop-opacity="0"/>
<stop offset="0.557292" stop-color="#4A3AFF"/>
<stop offset="1" stop-color="#4A3AFF" stop-opacity="0"/>
</linearGradient>
<linearGradient id="paint15_linear_422_1198" x1="126.89" y1="698.579" x2="359.366" y2="1254.53" gradientUnits="userSpaceOnUse">
<stop stop-color="#4A3AFF" stop-opacity="0.672727"/>
<stop offset="0.322917" stop-color="#4A3AFF" stop-opacity="0"/>
<stop offset="0.557292" stop-color="#4A3AFF"/>
<stop offset="1" stop-color="#4A3AFF" stop-opacity="0"/>
</linearGradient>
<linearGradient id="paint16_linear_422_1198" x1="133.445" y1="712.054" x2="370.043" y2="1277.53" gradientUnits="userSpaceOnUse">
<stop stop-color="#4A3AFF" stop-opacity="0.672727"/>
<stop offset="0.322917" stop-color="#4A3AFF" stop-opacity="0"/>
<stop offset="0.557292" stop-color="#4A3AFF"/>
<stop offset="1" stop-color="#4A3AFF" stop-opacity="0"/>
</linearGradient>
<linearGradient id="paint17_linear_422_1198" x1="139.984" y1="725.568" x2="380.814" y2="1300.82" gradientUnits="userSpaceOnUse">
<stop stop-color="#4A3AFF" stop-opacity="0.672727"/>
<stop offset="0.322917" stop-color="#4A3AFF" stop-opacity="0"/>
<stop offset="0.557292" stop-color="#4A3AFF"/>
<stop offset="1" stop-color="#4A3AFF" stop-opacity="0"/>
</linearGradient>
<linearGradient id="paint18_linear_422_1198" x1="146.623" y1="739.022" x2="391.748" y2="1324.2" gradientUnits="userSpaceOnUse">
<stop stop-color="#4A3AFF" stop-opacity="0.672727"/>
<stop offset="0.322917" stop-color="#4A3AFF" stop-opacity="0"/>
<stop offset="0.557292" stop-color="#4A3AFF"/>
<stop offset="1" stop-color="#4A3AFF" stop-opacity="0"/>
</linearGradient>
<linearGradient id="paint19_linear_422_1198" x1="153.283" y1="752.55" x2="402.771" y2="1347.8" gradientUnits="userSpaceOnUse">
<stop stop-color="#4A3AFF" stop-opacity="0.672727"/>
<stop offset="0.322917" stop-color="#4A3AFF" stop-opacity="0"/>
<stop offset="0.557292" stop-color="#4A3AFF"/>
<stop offset="1" stop-color="#4A3AFF" stop-opacity="0"/>
</linearGradient>
<linearGradient id="paint20_linear_422_1198" x1="159.783" y1="765.973" x2="413.659" y2="1371.35" gradientUnits="userSpaceOnUse">
<stop stop-color="#4A3AFF" stop-opacity="0.672727"/>
<stop offset="0.322917" stop-color="#4A3AFF" stop-opacity="0"/>
<stop offset="0.557292" stop-color="#4A3AFF"/>
<stop offset="1" stop-color="#4A3AFF" stop-opacity="0"/>
</linearGradient>
<linearGradient id="paint21_linear_422_1198" x1="166.395" y1="779.448" x2="424.858" y2="1395.41" gradientUnits="userSpaceOnUse">
<stop stop-color="#4A3AFF" stop-opacity="0.672727"/>
<stop offset="0.322917" stop-color="#4A3AFF" stop-opacity="0"/>
<stop offset="0.557292" stop-color="#4A3AFF"/>
<stop offset="1" stop-color="#4A3AFF" stop-opacity="0"/>
</linearGradient>
</defs>
</svg>
