<svg width="10" height="18" viewBox="0 0 10 18" fill="none" xmlns="http://www.w3.org/2000/svg">
<path d="M9 8.875L9.70711 8.16789C10.0976 8.55842 10.0976 9.19158 9.70711 9.58211L9 8.875ZM0.417893 1.70711C0.0273685 1.31658 0.0273686 0.683417 0.417893 0.292892C0.808417 -0.0976318 1.44158 -0.0976318 1.83211 0.292893L0.417893 1.70711ZM1.83211 17.4571C1.44158 17.8476 0.808416 17.8476 0.417892 17.4571C0.0273671 17.0666 0.0273672 16.4334 0.417892 16.0429L1.83211 17.4571ZM8.29289 9.58211L0.417893 1.70711L1.83211 0.292893L9.70711 8.16789L8.29289 9.58211ZM9.70711 9.58211L1.83211 17.4571L0.417892 16.0429L8.29289 8.16789L9.70711 9.58211Z" fill="#FCFCFC"/>
</svg>
