<svg width="91" height="24" viewBox="0 0 91 24" fill="none" xmlns="http://www.w3.org/2000/svg">
<path d="M7.03613 15.138H3.14413L2.50013 17H0.442125L3.95613 7.214H6.23813L9.75213 17H7.68013L7.03613 15.138ZM6.50413 13.57L5.09013 9.482L3.67612 13.57H6.50413ZM11.3116 13.094C11.3116 12.31 11.4656 11.6147 11.7736 11.008C12.0909 10.4013 12.5203 9.93467 13.0616 9.608C13.6029 9.28133 14.2049 9.118 14.8676 9.118C15.3716 9.118 15.8523 9.23 16.3096 9.454C16.7669 9.66867 17.1309 9.958 17.4016 10.322V6.64H19.3896V17H17.4016V15.852C17.1589 16.2347 16.8183 16.5427 16.3796 16.776C15.9409 17.0093 15.4323 17.126 14.8536 17.126C14.2003 17.126 13.6029 16.958 13.0616 16.622C12.5203 16.286 12.0909 15.8147 11.7736 15.208C11.4656 14.592 11.3116 13.8873 11.3116 13.094ZM17.4156 13.122C17.4156 12.646 17.3223 12.24 17.1356 11.904C16.9489 11.5587 16.6969 11.2973 16.3796 11.12C16.0623 10.9333 15.7216 10.84 15.3576 10.84C14.9936 10.84 14.6576 10.9287 14.3496 11.106C14.0416 11.2833 13.7896 11.5447 13.5936 11.89C13.4069 12.226 13.3136 12.6273 13.3136 13.094C13.3136 13.5607 13.4069 13.9713 13.5936 14.326C13.7896 14.6713 14.0416 14.9373 14.3496 15.124C14.6669 15.3107 15.0029 15.404 15.3576 15.404C15.7216 15.404 16.0623 15.3153 16.3796 15.138C16.6969 14.9513 16.9489 14.69 17.1356 14.354C17.3223 14.0087 17.4156 13.598 17.4156 13.122ZM21.5499 13.094C21.5499 12.31 21.7039 11.6147 22.0119 11.008C22.3292 10.4013 22.7586 9.93467 23.2999 9.608C23.8412 9.28133 24.4432 9.118 25.1059 9.118C25.6099 9.118 26.0906 9.23 26.5479 9.454C27.0052 9.66867 27.3692 9.958 27.6399 10.322V6.64H29.6279V17H27.6399V15.852C27.3972 16.2347 27.0566 16.5427 26.6179 16.776C26.1792 17.0093 25.6706 17.126 25.0919 17.126C24.4386 17.126 23.8412 16.958 23.2999 16.622C22.7586 16.286 22.3292 15.8147 22.0119 15.208C21.7039 14.592 21.5499 13.8873 21.5499 13.094ZM27.6539 13.122C27.6539 12.646 27.5606 12.24 27.3739 11.904C27.1872 11.5587 26.9352 11.2973 26.6179 11.12C26.3006 10.9333 25.9599 10.84 25.5959 10.84C25.2319 10.84 24.8959 10.9287 24.5879 11.106C24.2799 11.2833 24.0279 11.5447 23.8319 11.89C23.6452 12.226 23.5519 12.6273 23.5519 13.094C23.5519 13.5607 23.6452 13.9713 23.8319 14.326C24.0279 14.6713 24.2799 14.9373 24.5879 15.124C24.9052 15.3107 25.2412 15.404 25.5959 15.404C25.9599 15.404 26.3006 15.3153 26.6179 15.138C26.9352 14.9513 27.1872 14.69 27.3739 14.354C27.5606 14.0087 27.6539 13.598 27.6539 13.122ZM39.9341 10.854H38.5761V17H36.5881V10.854H35.7061V9.244H36.5881V8.852C36.5881 7.9 36.8588 7.2 37.4001 6.752C37.9414 6.304 38.7581 6.094 39.8501 6.122V7.774C39.3741 7.76467 39.0428 7.844 38.8561 8.012C38.6694 8.18 38.5761 8.48333 38.5761 8.922V9.244H39.9341V10.854ZM42.9483 8.32C42.6029 8.32 42.3136 8.21267 42.0803 7.998C41.8563 7.774 41.7443 7.49867 41.7443 7.172C41.7443 6.84533 41.8563 6.57467 42.0803 6.36C42.3136 6.136 42.6029 6.024 42.9483 6.024C43.2936 6.024 43.5783 6.136 43.8023 6.36C44.0356 6.57467 44.1523 6.84533 44.1523 7.172C44.1523 7.49867 44.0356 7.774 43.8023 7.998C43.5783 8.21267 43.2936 8.32 42.9483 8.32ZM43.9143 9.244V17H41.9543V9.244H43.9143ZM48.5608 6.64V17H46.6008V6.64H48.5608ZM58.4573 12.954C58.4573 13.234 58.4386 13.486 58.4013 13.71H52.7313C52.7779 14.27 52.9739 14.7087 53.3193 15.026C53.6646 15.3433 54.0893 15.502 54.5933 15.502C55.3213 15.502 55.8393 15.1893 56.1473 14.564H58.2613C58.0373 15.3107 57.6079 15.9267 56.9733 16.412C56.3386 16.888 55.5593 17.126 54.6353 17.126C53.8886 17.126 53.2166 16.9627 52.6193 16.636C52.0313 16.3 51.5693 15.8287 51.2333 15.222C50.9066 14.6153 50.7432 13.9153 50.7432 13.122C50.7432 12.3193 50.9066 11.6147 51.2333 11.008C51.5599 10.4013 52.0173 9.93467 52.6053 9.608C53.1933 9.28133 53.8699 9.118 54.6353 9.118C55.3726 9.118 56.0306 9.27667 56.6093 9.594C57.1973 9.91133 57.6499 10.364 57.9673 10.952C58.2939 11.5307 58.4573 12.198 58.4573 12.954ZM56.4273 12.394C56.4179 11.89 56.2359 11.4887 55.8813 11.19C55.5266 10.882 55.0926 10.728 54.5793 10.728C54.0939 10.728 53.6833 10.8773 53.3473 11.176C53.0206 11.4653 52.8199 11.8713 52.7453 12.394H56.4273Z" fill="url(#paint0_linear_608_7352)"/>
<path d="M74.3407 11.2696L74.5383 12.0448C74.8785 11.9582 75.1224 11.6598 75.1398 11.3091L74.3407 11.2696ZM86.129 8.69877L85.4196 9.0685C85.5418 9.30305 85.7721 9.46202 86.0347 9.49319L86.129 8.69877ZM76.833 18.6333C77.2748 18.6333 77.633 18.2751 77.633 17.8333C77.633 17.3914 77.2748 17.0333 76.833 17.0333V18.6333ZM85.1663 17.0333C84.7245 17.0333 84.3663 17.3914 84.3663 17.8333C84.3663 18.2751 84.7245 18.6333 85.1663 18.6333V17.0333ZM80.1997 17.8333C80.1997 18.2751 80.5578 18.6333 80.9997 18.6333C81.4415 18.6333 81.7997 18.2751 81.7997 17.8333H80.1997ZM80.9997 11.1666L81.5654 10.6009C81.2529 10.2885 80.7464 10.2885 80.434 10.6009L80.9997 11.1666ZM82.934 14.2323C83.2464 14.5447 83.7529 14.5447 84.0654 14.2323C84.3778 13.9199 84.3778 13.4133 84.0654 13.1009L82.934 14.2323ZM77.934 13.1009C77.6216 13.4133 77.6216 13.9199 77.934 14.2323C78.2464 14.5447 78.7529 14.5447 79.0654 14.2323L77.934 13.1009ZM89.3663 13.2499C89.3663 15.3394 87.6725 17.0333 85.583 17.0333V18.6333C88.5561 18.6333 90.9663 16.2231 90.9663 13.2499H89.3663ZM75.1663 17.0333C73.7672 17.0333 72.633 15.899 72.633 14.4999H71.033C71.033 16.7827 72.8836 18.6333 75.1663 18.6333V17.0333ZM72.633 14.4999C72.633 13.3185 73.4425 12.3241 74.5383 12.0448L74.1432 10.4944C72.3558 10.9499 71.033 12.5694 71.033 14.4999H72.633ZM75.1398 11.3091C75.2822 8.42688 77.665 6.13325 80.583 6.13325V4.53325C76.8078 4.53325 73.7261 7.50023 73.5417 11.2301L75.1398 11.3091ZM86.0347 9.49319C87.9109 9.71591 89.3663 11.3135 89.3663 13.2499H90.9663C90.9663 10.4932 88.895 8.22149 86.2233 7.90435L86.0347 9.49319ZM80.583 6.13325C82.6846 6.13325 84.5097 7.32252 85.4196 9.0685L86.8385 8.32904C85.6638 6.07508 83.3041 4.53325 80.583 4.53325V6.13325ZM75.1663 18.6333H76.833V17.0333H75.1663V18.6333ZM85.1663 18.6333H85.583V17.0333H85.1663V18.6333ZM81.7997 17.8333V11.1666H80.1997V17.8333H81.7997ZM80.434 11.7323L82.934 14.2323L84.0654 13.1009L81.5654 10.6009L80.434 11.7323ZM80.434 10.6009L77.934 13.1009L79.0654 14.2323L81.5654 11.7323L80.434 10.6009Z" fill="#6660DC"/>
<defs>
<linearGradient id="paint0_linear_608_7352" x1="29.5" y1="0" x2="29.5" y2="24" gradientUnits="userSpaceOnUse">
<stop stop-color="#7770E0"/>
<stop offset="1" stop-color="#554FD8"/>
</linearGradient>
</defs>
</svg>
