<svg width="109" height="24" viewBox="0 0 109 24" fill="none" xmlns="http://www.w3.org/2000/svg">
<path d="M35.2314 7.228V8.81H31.1574V11.316H34.2794V12.87H31.1574V17H29.1974V7.228H35.2314ZM38.3653 8.32C38.0199 8.32 37.7306 8.21267 37.4973 7.998C37.2733 7.774 37.1613 7.49867 37.1613 7.172C37.1613 6.84533 37.2733 6.57467 37.4973 6.36C37.7306 6.136 38.0199 6.024 38.3653 6.024C38.7106 6.024 38.9953 6.136 39.2193 6.36C39.4526 6.57467 39.5693 6.84533 39.5693 7.172C39.5693 7.49867 39.4526 7.774 39.2193 7.998C38.9953 8.21267 38.7106 8.32 38.3653 8.32ZM39.3313 9.244V17H37.3713V9.244H39.3313ZM43.9778 6.64V17H42.0178V6.64H43.9778ZM53.8742 12.954C53.8742 13.234 53.8556 13.486 53.8182 13.71H48.1482C48.1949 14.27 48.3909 14.7087 48.7362 15.026C49.0816 15.3433 49.5062 15.502 50.0102 15.502C50.7382 15.502 51.2562 15.1893 51.5642 14.564H53.6782C53.4542 15.3107 53.0249 15.9267 52.3902 16.412C51.7556 16.888 50.9762 17.126 50.0522 17.126C49.3056 17.126 48.6336 16.9627 48.0362 16.636C47.4482 16.3 46.9862 15.8287 46.6502 15.222C46.3236 14.6153 46.1602 13.9153 46.1602 13.122C46.1602 12.3193 46.3236 11.6147 46.6502 11.008C46.9769 10.4013 47.4342 9.93467 48.0222 9.608C48.6102 9.28133 49.2869 9.118 50.0522 9.118C50.7896 9.118 51.4476 9.27667 52.0262 9.594C52.6142 9.91133 53.0669 10.364 53.3842 10.952C53.7109 11.5307 53.8742 12.198 53.8742 12.954ZM51.8442 12.394C51.8349 11.89 51.6529 11.4887 51.2982 11.19C50.9436 10.882 50.5096 10.728 49.9962 10.728C49.5109 10.728 49.1002 10.8773 48.7642 11.176C48.4376 11.4653 48.2369 11.8713 48.1622 12.394H51.8442ZM59.6368 13.094C59.6368 12.31 59.7908 11.6147 60.0988 11.008C60.4161 10.4013 60.8408 9.93467 61.3728 9.608C61.9141 9.28133 62.5161 9.118 63.1788 9.118C63.7575 9.118 64.2615 9.23467 64.6908 9.468C65.1295 9.70133 65.4795 9.99533 65.7408 10.35V9.244H67.7148V17H65.7408V15.866C65.4888 16.23 65.1388 16.5333 64.6908 16.776C64.2521 17.0093 63.7435 17.126 63.1648 17.126C62.5115 17.126 61.9141 16.958 61.3728 16.622C60.8408 16.286 60.4161 15.8147 60.0988 15.208C59.7908 14.592 59.6368 13.8873 59.6368 13.094ZM65.7408 13.122C65.7408 12.646 65.6475 12.24 65.4608 11.904C65.2741 11.5587 65.0221 11.2973 64.7048 11.12C64.3875 10.9333 64.0468 10.84 63.6828 10.84C63.3188 10.84 62.9828 10.9287 62.6748 11.106C62.3668 11.2833 62.1148 11.5447 61.9188 11.89C61.7321 12.226 61.6388 12.6273 61.6388 13.094C61.6388 13.5607 61.7321 13.9713 61.9188 14.326C62.1148 14.6713 62.3668 14.9373 62.6748 15.124C62.9921 15.3107 63.3281 15.404 63.6828 15.404C64.0468 15.404 64.3875 15.3153 64.7048 15.138C65.0221 14.9513 65.2741 14.69 65.4608 14.354C65.6475 14.0087 65.7408 13.598 65.7408 13.122ZM69.8751 13.094C69.8751 12.31 70.0291 11.6147 70.3371 11.008C70.6544 10.4013 71.0838 9.93467 71.6251 9.608C72.1664 9.28133 72.7684 9.118 73.4311 9.118C73.9351 9.118 74.4158 9.23 74.8731 9.454C75.3304 9.66867 75.6944 9.958 75.9651 10.322V6.64H77.9531V17H75.9651V15.852C75.7224 16.2347 75.3818 16.5427 74.9431 16.776C74.5044 17.0093 73.9958 17.126 73.4171 17.126C72.7638 17.126 72.1664 16.958 71.6251 16.622C71.0838 16.286 70.6544 15.8147 70.3371 15.208C70.0291 14.592 69.8751 13.8873 69.8751 13.094ZM75.9791 13.122C75.9791 12.646 75.8858 12.24 75.6991 11.904C75.5124 11.5587 75.2604 11.2973 74.9431 11.12C74.6258 10.9333 74.2851 10.84 73.9211 10.84C73.5571 10.84 73.2211 10.9287 72.9131 11.106C72.6051 11.2833 72.3531 11.5447 72.1571 11.89C71.9704 12.226 71.8771 12.6273 71.8771 13.094C71.8771 13.5607 71.9704 13.9713 72.1571 14.326C72.3531 14.6713 72.6051 14.9373 72.9131 15.124C73.2304 15.3107 73.5664 15.404 73.9211 15.404C74.2851 15.404 74.6258 15.3153 74.9431 15.138C75.2604 14.9513 75.5124 14.69 75.6991 14.354C75.8858 14.0087 75.9791 13.598 75.9791 13.122ZM80.1134 13.094C80.1134 12.31 80.2674 11.6147 80.5754 11.008C80.8927 10.4013 81.322 9.93467 81.8634 9.608C82.4047 9.28133 83.0067 9.118 83.6694 9.118C84.1734 9.118 84.654 9.23 85.1114 9.454C85.5687 9.66867 85.9327 9.958 86.2034 10.322V6.64H88.1914V17H86.2034V15.852C85.9607 16.2347 85.62 16.5427 85.1814 16.776C84.7427 17.0093 84.234 17.126 83.6554 17.126C83.002 17.126 82.4047 16.958 81.8634 16.622C81.322 16.286 80.8927 15.8147 80.5754 15.208C80.2674 14.592 80.1134 13.8873 80.1134 13.094ZM86.2174 13.122C86.2174 12.646 86.124 12.24 85.9374 11.904C85.7507 11.5587 85.4987 11.2973 85.1814 11.12C84.864 10.9333 84.5234 10.84 84.1594 10.84C83.7954 10.84 83.4594 10.9287 83.1514 11.106C82.8434 11.2833 82.5914 11.5447 82.3954 11.89C82.2087 12.226 82.1154 12.6273 82.1154 13.094C82.1154 13.5607 82.2087 13.9713 82.3954 14.326C82.5914 14.6713 82.8434 14.9373 83.1514 15.124C83.4687 15.3107 83.8047 15.404 84.1594 15.404C84.5234 15.404 84.864 15.3153 85.1814 15.138C85.4987 14.9513 85.7507 14.69 85.9374 14.354C86.124 14.0087 86.2174 13.598 86.2174 13.122ZM98.0656 12.954C98.0656 13.234 98.047 13.486 98.0096 13.71H92.3396C92.3863 14.27 92.5823 14.7087 92.9276 15.026C93.273 15.3433 93.6976 15.502 94.2016 15.502C94.9296 15.502 95.4476 15.1893 95.7556 14.564H97.8696C97.6456 15.3107 97.2163 15.9267 96.5816 16.412C95.947 16.888 95.1676 17.126 94.2436 17.126C93.497 17.126 92.825 16.9627 92.2276 16.636C91.6396 16.3 91.1776 15.8287 90.8416 15.222C90.515 14.6153 90.3516 13.9153 90.3516 13.122C90.3516 12.3193 90.515 11.6147 90.8416 11.008C91.1683 10.4013 91.6256 9.93467 92.2136 9.608C92.8016 9.28133 93.4783 9.118 94.2436 9.118C94.981 9.118 95.639 9.27667 96.2176 9.594C96.8056 9.91133 97.2583 10.364 97.5756 10.952C97.9023 11.5307 98.0656 12.198 98.0656 12.954ZM96.0356 12.394C96.0263 11.89 95.8443 11.4887 95.4896 11.19C95.135 10.882 94.701 10.728 94.1876 10.728C93.7023 10.728 93.2916 10.8773 92.9556 11.176C92.629 11.4653 92.4283 11.8713 92.3536 12.394H96.0356ZM99.7423 13.094C99.7423 12.31 99.8963 11.6147 100.204 11.008C100.522 10.4013 100.951 9.93467 101.492 9.608C102.034 9.28133 102.636 9.118 103.298 9.118C103.802 9.118 104.283 9.23 104.74 9.454C105.198 9.66867 105.562 9.958 105.832 10.322V6.64H107.82V17H105.832V15.852C105.59 16.2347 105.249 16.5427 104.81 16.776C104.372 17.0093 103.863 17.126 103.284 17.126C102.631 17.126 102.034 16.958 101.492 16.622C100.951 16.286 100.522 15.8147 100.204 15.208C99.8963 14.592 99.7423 13.8873 99.7423 13.094ZM105.846 13.122C105.846 12.646 105.753 12.24 105.566 11.904C105.38 11.5587 105.128 11.2973 104.81 11.12C104.493 10.9333 104.152 10.84 103.788 10.84C103.424 10.84 103.088 10.9287 102.78 11.106C102.472 11.2833 102.22 11.5447 102.024 11.89C101.838 12.226 101.744 12.6273 101.744 13.094C101.744 13.5607 101.838 13.9713 102.024 14.326C102.22 14.6713 102.472 14.9373 102.78 15.124C103.098 15.3107 103.434 15.404 103.788 15.404C104.152 15.404 104.493 15.3153 104.81 15.138C105.128 14.9513 105.38 14.69 105.566 14.354C105.753 14.0087 105.846 13.598 105.846 13.122Z" fill="#57B6AB"/>
<path d="M1.35355 11.6464C1.15829 11.4512 0.841709 11.4512 0.646447 11.6464C0.451184 11.8417 0.451184 12.1583 0.646447 12.3536L1.35355 11.6464ZM7 18L6.64645 18.3536C6.84171 18.5488 7.15829 18.5488 7.35355 18.3536L7 18ZM18.3536 7.35355C18.5488 7.15829 18.5488 6.84171 18.3536 6.64645C18.1583 6.45118 17.8417 6.45118 17.6464 6.64645L18.3536 7.35355ZM6.35355 11.6464C6.15829 11.4512 5.84171 11.4512 5.64645 11.6464C5.45118 11.8417 5.45118 12.1583 5.64645 12.3536L6.35355 11.6464ZM11.6464 17.6464C11.4512 17.8417 11.4512 18.1583 11.6464 18.3536C11.8417 18.5488 12.1583 18.5488 12.3536 18.3536L11.6464 17.6464ZM23.3536 7.35355C23.5488 7.15829 23.5488 6.84171 23.3536 6.64645C23.1583 6.45118 22.8417 6.45118 22.6464 6.64645L23.3536 7.35355ZM0.646447 12.3536L6.64645 18.3536L7.35355 17.6464L1.35355 11.6464L0.646447 12.3536ZM12.3536 18.3536L23.3536 7.35355L22.6464 6.64645L11.6464 17.6464L12.3536 18.3536ZM7.35355 18.3536L9.85355 15.8536L9.14645 15.1464L6.64645 17.6464L7.35355 18.3536ZM9.85355 15.8536L18.3536 7.35355L17.6464 6.64645L9.14645 15.1464L9.85355 15.8536ZM5.64645 12.3536L9.14645 15.8536L9.85355 15.1464L6.35355 11.6464L5.64645 12.3536Z" fill="#57B6AB"/>
</svg>
