<svg width="120" height="24" viewBox="0 0 120 24" fill="none" xmlns="http://www.w3.org/2000/svg">
<path d="M3.32476 7.228V13.276C3.32476 13.9387 3.49742 14.4473 3.84276 14.802C4.18809 15.1473 4.67342 15.32 5.29876 15.32C5.93342 15.32 6.42342 15.1473 6.76876 14.802C7.11409 14.4473 7.28676 13.9387 7.28676 13.276V7.228H9.26076V13.262C9.26076 14.0927 9.07876 14.7973 8.71476 15.376C8.36009 15.9453 7.87942 16.3747 7.27276 16.664C6.67542 16.9533 6.00809 17.098 5.27076 17.098C4.54276 17.098 3.88009 16.9533 3.28276 16.664C2.69476 16.3747 2.22809 15.9453 1.88276 15.376C1.53742 14.7973 1.36476 14.0927 1.36476 13.262V7.228H3.32476ZM13.8645 10.364C14.1165 10.0093 14.4618 9.71533 14.9005 9.482C15.3485 9.23933 15.8571 9.118 16.4265 9.118C17.0891 9.118 17.6865 9.28133 18.2185 9.608C18.7598 9.93467 19.1845 10.4013 19.4925 11.008C19.8098 11.6053 19.9685 12.3007 19.9685 13.094C19.9685 13.8873 19.8098 14.592 19.4925 15.208C19.1845 15.8147 18.7598 16.286 18.2185 16.622C17.6865 16.958 17.0891 17.126 16.4265 17.126C15.8571 17.126 15.3531 17.0093 14.9145 16.776C14.4851 16.5427 14.1351 16.2487 13.8645 15.894V20.696H11.9045V9.244H13.8645V10.364ZM17.9665 13.094C17.9665 12.6273 17.8685 12.226 17.6725 11.89C17.4858 11.5447 17.2338 11.2833 16.9165 11.106C16.6085 10.9287 16.2725 10.84 15.9085 10.84C15.5538 10.84 15.2178 10.9333 14.9005 11.12C14.5925 11.2973 14.3405 11.5587 14.1445 11.904C13.9578 12.2493 13.8645 12.6553 13.8645 13.122C13.8645 13.5887 13.9578 13.9947 14.1445 14.34C14.3405 14.6853 14.5925 14.9513 14.9005 15.138C15.2178 15.3153 15.5538 15.404 15.9085 15.404C16.2725 15.404 16.6085 15.3107 16.9165 15.124C17.2338 14.9373 17.4858 14.6713 17.6725 14.326C17.8685 13.9807 17.9665 13.57 17.9665 13.094ZM24.1028 6.64V17H22.1428V6.64H24.1028ZM30.2332 17.126C29.4866 17.126 28.8146 16.9627 28.2172 16.636C27.6199 16.3 27.1486 15.8287 26.8032 15.222C26.4672 14.6153 26.2992 13.9153 26.2992 13.122C26.2992 12.3287 26.4719 11.6287 26.8172 11.022C27.1719 10.4153 27.6526 9.94867 28.2592 9.622C28.8659 9.286 29.5426 9.118 30.2892 9.118C31.0359 9.118 31.7126 9.286 32.3192 9.622C32.9259 9.94867 33.4019 10.4153 33.7472 11.022C34.1019 11.6287 34.2792 12.3287 34.2792 13.122C34.2792 13.9153 34.0972 14.6153 33.7332 15.222C33.3786 15.8287 32.8932 16.3 32.2772 16.636C31.6706 16.9627 30.9892 17.126 30.2332 17.126ZM30.2332 15.418C30.5879 15.418 30.9192 15.334 31.2272 15.166C31.5446 14.9887 31.7966 14.7273 31.9832 14.382C32.1699 14.0367 32.2632 13.6167 32.2632 13.122C32.2632 12.3847 32.0672 11.82 31.6752 11.428C31.2926 11.0267 30.8212 10.826 30.2612 10.826C29.7012 10.826 29.2299 11.0267 28.8472 11.428C28.4739 11.82 28.2872 12.3847 28.2872 13.122C28.2872 13.8593 28.4692 14.4287 28.8332 14.83C29.2066 15.222 29.6732 15.418 30.2332 15.418ZM35.963 13.094C35.963 12.31 36.117 11.6147 36.425 11.008C36.7423 10.4013 37.167 9.93467 37.699 9.608C38.2403 9.28133 38.8423 9.118 39.505 9.118C40.0836 9.118 40.5876 9.23467 41.017 9.468C41.4556 9.70133 41.8056 9.99533 42.067 10.35V9.244H44.041V17H42.067V15.866C41.815 16.23 41.465 16.5333 41.017 16.776C40.5783 17.0093 40.0696 17.126 39.491 17.126C38.8376 17.126 38.2403 16.958 37.699 16.622C37.167 16.286 36.7423 15.8147 36.425 15.208C36.117 14.592 35.963 13.8873 35.963 13.094ZM42.067 13.122C42.067 12.646 41.9736 12.24 41.787 11.904C41.6003 11.5587 41.3483 11.2973 41.031 11.12C40.7136 10.9333 40.373 10.84 40.009 10.84C39.645 10.84 39.309 10.9287 39.001 11.106C38.693 11.2833 38.441 11.5447 38.245 11.89C38.0583 12.226 37.965 12.6273 37.965 13.094C37.965 13.5607 38.0583 13.9713 38.245 14.326C38.441 14.6713 38.693 14.9373 39.001 15.124C39.3183 15.3107 39.6543 15.404 40.009 15.404C40.373 15.404 40.7136 15.3153 41.031 15.138C41.3483 14.9513 41.6003 14.69 41.787 14.354C41.9736 14.0087 42.067 13.598 42.067 13.122ZM46.2013 13.094C46.2013 12.31 46.3553 11.6147 46.6633 11.008C46.9806 10.4013 47.4099 9.93467 47.9513 9.608C48.4926 9.28133 49.0946 9.118 49.7573 9.118C50.2613 9.118 50.7419 9.23 51.1993 9.454C51.6566 9.66867 52.0206 9.958 52.2913 10.322V6.64H54.2793V17H52.2913V15.852C52.0486 16.2347 51.7079 16.5427 51.2693 16.776C50.8306 17.0093 50.3219 17.126 49.7433 17.126C49.0899 17.126 48.4926 16.958 47.9513 16.622C47.4099 16.286 46.9806 15.8147 46.6633 15.208C46.3553 14.592 46.2013 13.8873 46.2013 13.094ZM52.3053 13.122C52.3053 12.646 52.2119 12.24 52.0253 11.904C51.8386 11.5587 51.5866 11.2973 51.2693 11.12C50.9519 10.9333 50.6113 10.84 50.2473 10.84C49.8833 10.84 49.5473 10.9287 49.2393 11.106C48.9313 11.2833 48.6793 11.5447 48.4833 11.89C48.2966 12.226 48.2033 12.6273 48.2033 13.094C48.2033 13.5607 48.2966 13.9713 48.4833 14.326C48.6793 14.6713 48.9313 14.9373 49.2393 15.124C49.5566 15.3107 49.8926 15.404 50.2473 15.404C50.6113 15.404 50.9519 15.3153 51.2693 15.138C51.5866 14.9513 51.8386 14.69 52.0253 14.354C52.2119 14.0087 52.3053 13.598 52.3053 13.122ZM64.5855 10.854H63.2275V17H61.2395V10.854H60.3575V9.244H61.2395V8.852C61.2395 7.9 61.5101 7.2 62.0515 6.752C62.5928 6.304 63.4095 6.094 64.5015 6.122V7.774C64.0255 7.76467 63.6941 7.844 63.5075 8.012C63.3208 8.18 63.2275 8.48333 63.2275 8.922V9.244H64.5855V10.854ZM67.5996 8.32C67.2543 8.32 66.965 8.21267 66.7316 7.998C66.5076 7.774 66.3956 7.49867 66.3956 7.172C66.3956 6.84533 66.5076 6.57467 66.7316 6.36C66.965 6.136 67.2543 6.024 67.5996 6.024C67.945 6.024 68.2296 6.136 68.4536 6.36C68.687 6.57467 68.8036 6.84533 68.8036 7.172C68.8036 7.49867 68.687 7.774 68.4536 7.998C68.2296 8.21267 67.945 8.32 67.5996 8.32ZM68.5656 9.244V17H66.6056V9.244H68.5656ZM73.2121 6.64V17H71.2521V6.64H73.2121ZM83.1086 12.954C83.1086 13.234 83.09 13.486 83.0526 13.71H77.3826C77.4293 14.27 77.6253 14.7087 77.9706 15.026C78.316 15.3433 78.7406 15.502 79.2446 15.502C79.9726 15.502 80.4906 15.1893 80.7986 14.564H82.9126C82.6886 15.3107 82.2593 15.9267 81.6246 16.412C80.99 16.888 80.2106 17.126 79.2866 17.126C78.54 17.126 77.868 16.9627 77.2706 16.636C76.6826 16.3 76.2206 15.8287 75.8846 15.222C75.558 14.6153 75.3946 13.9153 75.3946 13.122C75.3946 12.3193 75.558 11.6147 75.8846 11.008C76.2113 10.4013 76.6686 9.93467 77.2566 9.608C77.8446 9.28133 78.5213 9.118 79.2866 9.118C80.024 9.118 80.682 9.27667 81.2606 9.594C81.8486 9.91133 82.3013 10.364 82.6186 10.952C82.9453 11.5307 83.1086 12.198 83.1086 12.954ZM81.0786 12.394C81.0693 11.89 80.8873 11.4887 80.5326 11.19C80.178 10.882 79.744 10.728 79.2306 10.728C78.7453 10.728 78.3346 10.8773 77.9986 11.176C77.672 11.4653 77.4713 11.8713 77.3966 12.394H81.0786Z" fill="url(#paint0_linear_491_616)"/>
<path d="M103.341 11.2696L103.539 12.0448C103.879 11.9582 104.123 11.6598 104.14 11.3091L103.341 11.2696ZM115.13 8.69877L114.42 9.0685C114.542 9.30305 114.773 9.46202 115.035 9.49319L115.13 8.69877ZM105.833 18.6333C106.275 18.6333 106.633 18.2751 106.633 17.8333C106.633 17.3914 106.275 17.0333 105.833 17.0333V18.6333ZM114.167 17.0333C113.725 17.0333 113.367 17.3914 113.367 17.8333C113.367 18.2751 113.725 18.6333 114.167 18.6333V17.0333ZM109.2 17.8333C109.2 18.2751 109.558 18.6333 110 18.6333C110.442 18.6333 110.8 18.2751 110.8 17.8333H109.2ZM110 11.1666L110.566 10.6009C110.253 10.2885 109.747 10.2885 109.434 10.6009L110 11.1666ZM111.934 14.2323C112.247 14.5447 112.753 14.5447 113.066 14.2323C113.378 13.9199 113.378 13.4133 113.066 13.1009L111.934 14.2323ZM106.934 13.1009C106.622 13.4133 106.622 13.9199 106.934 14.2323C107.247 14.5447 107.753 14.5447 108.066 14.2323L106.934 13.1009ZM118.367 13.2499C118.367 15.3394 116.673 17.0333 114.583 17.0333V18.6333C117.557 18.6333 119.967 16.2231 119.967 13.2499H118.367ZM104.167 17.0333C102.768 17.0333 101.633 15.899 101.633 14.4999H100.033C100.033 16.7827 101.884 18.6333 104.167 18.6333V17.0333ZM101.633 14.4999C101.633 13.3185 102.443 12.3241 103.539 12.0448L103.144 10.4944C101.356 10.9499 100.033 12.5694 100.033 14.4999H101.633ZM104.14 11.3091C104.283 8.42688 106.665 6.13325 109.583 6.13325V4.53325C105.808 4.53325 102.727 7.50023 102.542 11.2301L104.14 11.3091ZM115.035 9.49319C116.911 9.71591 118.367 11.3135 118.367 13.2499H119.967C119.967 10.4932 117.895 8.22149 115.224 7.90435L115.035 9.49319ZM109.583 6.13325C111.685 6.13325 113.51 7.32252 114.42 9.0685L115.839 8.32904C114.664 6.07508 112.305 4.53325 109.583 4.53325V6.13325ZM104.167 18.6333H105.833V17.0333H104.167V18.6333ZM114.167 18.6333H114.583V17.0333H114.167V18.6333ZM110.8 17.8333V11.1666H109.2V17.8333H110.8ZM109.434 11.7323L111.934 14.2323L113.066 13.1009L110.566 10.6009L109.434 11.7323ZM109.434 10.6009L106.934 13.1009L108.066 14.2323L110.566 11.7323L109.434 10.6009Z" fill="#6660DC"/>
<defs>
<linearGradient id="paint0_linear_491_616" x1="42" y1="0" x2="42" y2="24" gradientUnits="userSpaceOnUse">
<stop stop-color="#7770E0"/>
<stop offset="1" stop-color="#554FD8"/>
</linearGradient>
</defs>
</svg>
