<svg width="494" height="40" viewBox="0 0 494 40" fill="none" xmlns="http://www.w3.org/2000/svg">
<path d="M0 10C0 4.47715 4.47715 0 10 0L484 0C489.523 0 494 4.47715 494 10V30C494 35.5228 489.523 40 484 40L10 40C4.47716 40 0 35.5228 0 30L0 10Z" fill="#F0F1F6"/>
<path d="M132.901 15.228L129.597 21.598V25H127.637V21.598L124.319 15.228H126.531L128.631 19.694L130.717 15.228H132.901ZM138.225 25.126C137.479 25.126 136.807 24.9627 136.209 24.636C135.612 24.3 135.141 23.8287 134.795 23.222C134.459 22.6153 134.291 21.9153 134.291 21.122C134.291 20.3287 134.464 19.6287 134.809 19.022C135.164 18.4153 135.645 17.9487 136.251 17.622C136.858 17.286 137.535 17.118 138.281 17.118C139.028 17.118 139.705 17.286 140.311 17.622C140.918 17.9487 141.394 18.4153 141.739 19.022C142.094 19.6287 142.271 20.3287 142.271 21.122C142.271 21.9153 142.089 22.6153 141.725 23.222C141.371 23.8287 140.885 24.3 140.269 24.636C139.663 24.9627 138.981 25.126 138.225 25.126ZM138.225 23.418C138.58 23.418 138.911 23.334 139.219 23.166C139.537 22.9887 139.789 22.7273 139.975 22.382C140.162 22.0367 140.255 21.6167 140.255 21.122C140.255 20.3847 140.059 19.82 139.667 19.428C139.285 19.0267 138.813 18.826 138.253 18.826C137.693 18.826 137.222 19.0267 136.839 19.428C136.466 19.82 136.279 20.3847 136.279 21.122C136.279 21.8593 136.461 22.4287 136.825 22.83C137.199 23.222 137.665 23.418 138.225 23.418ZM151.781 17.244V25H149.807V24.02C149.555 24.356 149.224 24.622 148.813 24.818C148.412 25.0047 147.973 25.098 147.497 25.098C146.89 25.098 146.354 24.972 145.887 24.72C145.42 24.4587 145.052 24.0807 144.781 23.586C144.52 23.082 144.389 22.4847 144.389 21.794V17.244H146.349V21.514C146.349 22.13 146.503 22.606 146.811 22.942C147.119 23.2687 147.539 23.432 148.071 23.432C148.612 23.432 149.037 23.2687 149.345 22.942C149.653 22.606 149.807 22.13 149.807 21.514V17.244H151.781ZM156.425 18.448C156.677 18.0373 157.004 17.7153 157.405 17.482C157.816 17.2487 158.282 17.132 158.805 17.132V19.19H158.287C157.671 19.19 157.204 19.3347 156.887 19.624C156.579 19.9133 156.425 20.4173 156.425 21.136V25H154.465V17.244H156.425V18.448ZM168.517 18.854H167.159V25H165.171V18.854H164.289V17.244H165.171V16.852C165.171 15.9 165.442 15.2 165.983 14.752C166.524 14.304 167.341 14.094 168.433 14.122V15.774C167.957 15.7647 167.626 15.844 167.439 16.012C167.252 16.18 167.159 16.4833 167.159 16.922V17.244H168.517V18.854ZM171.531 16.32C171.186 16.32 170.897 16.2127 170.663 15.998C170.439 15.774 170.327 15.4987 170.327 15.172C170.327 14.8453 170.439 14.5747 170.663 14.36C170.897 14.136 171.186 14.024 171.531 14.024C171.877 14.024 172.161 14.136 172.385 14.36C172.619 14.5747 172.735 14.8453 172.735 15.172C172.735 15.4987 172.619 15.774 172.385 15.998C172.161 16.2127 171.877 16.32 171.531 16.32ZM172.497 17.244V25H170.537V17.244H172.497ZM177.144 14.64V25H175.184V14.64H177.144ZM187.04 20.954C187.04 21.234 187.022 21.486 186.984 21.71H181.314C181.361 22.27 181.557 22.7087 181.902 23.026C182.248 23.3433 182.672 23.502 183.176 23.502C183.904 23.502 184.422 23.1893 184.73 22.564H186.844C186.62 23.3107 186.191 23.9267 185.556 24.412C184.922 24.888 184.142 25.126 183.218 25.126C182.472 25.126 181.8 24.9627 181.202 24.636C180.614 24.3 180.152 23.8287 179.816 23.222C179.49 22.6153 179.326 21.9153 179.326 21.122C179.326 20.3193 179.49 19.6147 179.816 19.008C180.143 18.4013 180.6 17.9347 181.188 17.608C181.776 17.2813 182.453 17.118 183.218 17.118C183.956 17.118 184.614 17.2767 185.192 17.594C185.78 17.9113 186.233 18.364 186.55 18.952C186.877 19.5307 187.04 20.198 187.04 20.954ZM185.01 20.394C185.001 19.89 184.819 19.4887 184.464 19.19C184.11 18.882 183.676 18.728 183.162 18.728C182.677 18.728 182.266 18.8773 181.93 19.176C181.604 19.4653 181.403 19.8713 181.328 20.394H185.01ZM197.675 17.132C198.263 17.132 198.785 17.2627 199.243 17.524C199.7 17.776 200.055 18.154 200.307 18.658C200.568 19.1527 200.699 19.75 200.699 20.45V25H198.739V20.716C198.739 20.1 198.585 19.6287 198.277 19.302C197.969 18.966 197.549 18.798 197.017 18.798C196.475 18.798 196.046 18.966 195.729 19.302C195.421 19.6287 195.267 20.1 195.267 20.716V25H193.307V14.64H195.267V18.21C195.519 17.874 195.855 17.6127 196.275 17.426C196.695 17.23 197.161 17.132 197.675 17.132ZM202.809 21.094C202.809 20.31 202.963 19.6147 203.271 19.008C203.588 18.4013 204.013 17.9347 204.545 17.608C205.086 17.2813 205.688 17.118 206.351 17.118C206.929 17.118 207.433 17.2347 207.863 17.468C208.301 17.7013 208.651 17.9953 208.913 18.35V17.244H210.887V25H208.913V23.866C208.661 24.23 208.311 24.5333 207.863 24.776C207.424 25.0093 206.915 25.126 206.337 25.126C205.683 25.126 205.086 24.958 204.545 24.622C204.013 24.286 203.588 23.8147 203.271 23.208C202.963 22.592 202.809 21.8873 202.809 21.094ZM208.913 21.122C208.913 20.646 208.819 20.24 208.633 19.904C208.446 19.5587 208.194 19.2973 207.877 19.12C207.559 18.9333 207.219 18.84 206.855 18.84C206.491 18.84 206.155 18.9287 205.847 19.106C205.539 19.2833 205.287 19.5447 205.091 19.89C204.904 20.226 204.811 20.6273 204.811 21.094C204.811 21.5607 204.904 21.9713 205.091 22.326C205.287 22.6713 205.539 22.9373 205.847 23.124C206.164 23.3107 206.5 23.404 206.855 23.404C207.219 23.404 207.559 23.3153 207.877 23.138C208.194 22.9513 208.446 22.69 208.633 22.354C208.819 22.0087 208.913 21.598 208.913 21.122ZM216.519 25.126C215.884 25.126 215.315 25.014 214.811 24.79C214.307 24.5567 213.906 24.244 213.607 23.852C213.318 23.46 213.159 23.026 213.131 22.55H215.105C215.142 22.8487 215.287 23.096 215.539 23.292C215.8 23.488 216.122 23.586 216.505 23.586C216.878 23.586 217.168 23.5113 217.373 23.362C217.588 23.2127 217.695 23.0213 217.695 22.788C217.695 22.536 217.564 22.3493 217.303 22.228C217.051 22.0973 216.645 21.9573 216.085 21.808C215.506 21.668 215.03 21.5233 214.657 21.374C214.293 21.2247 213.976 20.996 213.705 20.688C213.444 20.38 213.313 19.9647 213.313 19.442C213.313 19.0127 213.434 18.6207 213.677 18.266C213.929 17.9113 214.284 17.6313 214.741 17.426C215.208 17.2207 215.754 17.118 216.379 17.118C217.303 17.118 218.04 17.3513 218.591 17.818C219.142 18.2753 219.445 18.896 219.501 19.68H217.625C217.597 19.372 217.466 19.1293 217.233 18.952C217.009 18.7653 216.706 18.672 216.323 18.672C215.968 18.672 215.693 18.7373 215.497 18.868C215.31 18.9987 215.217 19.1807 215.217 19.414C215.217 19.6753 215.348 19.876 215.609 20.016C215.87 20.1467 216.276 20.282 216.827 20.422C217.387 20.562 217.849 20.7067 218.213 20.856C218.577 21.0053 218.89 21.2387 219.151 21.556C219.422 21.864 219.562 22.2747 219.571 22.788C219.571 23.236 219.445 23.6373 219.193 23.992C218.95 24.3467 218.596 24.6267 218.129 24.832C217.672 25.028 217.135 25.126 216.519 25.126ZM227.976 18.378C228.228 18.0047 228.573 17.7013 229.012 17.468C229.46 17.2347 229.968 17.118 230.538 17.118C231.2 17.118 231.798 17.2813 232.33 17.608C232.871 17.9347 233.296 18.4013 233.604 19.008C233.921 19.6053 234.08 20.3007 234.08 21.094C234.08 21.8873 233.921 22.592 233.604 23.208C233.296 23.8147 232.871 24.286 232.33 24.622C231.798 24.958 231.2 25.126 230.538 25.126C229.959 25.126 229.45 25.014 229.012 24.79C228.582 24.5567 228.237 24.258 227.976 23.894V25H226.016V14.64H227.976V18.378ZM232.078 21.094C232.078 20.6273 231.98 20.226 231.784 19.89C231.597 19.5447 231.345 19.2833 231.028 19.106C230.72 18.9287 230.384 18.84 230.02 18.84C229.665 18.84 229.329 18.9333 229.012 19.12C228.704 19.2973 228.452 19.5587 228.256 19.904C228.069 20.2493 227.976 20.6553 227.976 21.122C227.976 21.5887 228.069 21.9947 228.256 22.34C228.452 22.6853 228.704 22.9513 229.012 23.138C229.329 23.3153 229.665 23.404 230.02 23.404C230.384 23.404 230.72 23.3107 231.028 23.124C231.345 22.9373 231.597 22.6713 231.784 22.326C231.98 21.9807 232.078 21.57 232.078 21.094ZM243.464 20.954C243.464 21.234 243.445 21.486 243.408 21.71H237.738C237.785 22.27 237.981 22.7087 238.326 23.026C238.671 23.3433 239.096 23.502 239.6 23.502C240.328 23.502 240.846 23.1893 241.154 22.564H243.268C243.044 23.3107 242.615 23.9267 241.98 24.412C241.345 24.888 240.566 25.126 239.642 25.126C238.895 25.126 238.223 24.9627 237.626 24.636C237.038 24.3 236.576 23.8287 236.24 23.222C235.913 22.6153 235.75 21.9153 235.75 21.122C235.75 20.3193 235.913 19.6147 236.24 19.008C236.567 18.4013 237.024 17.9347 237.612 17.608C238.2 17.2813 238.877 17.118 239.642 17.118C240.379 17.118 241.037 17.2767 241.616 17.594C242.204 17.9113 242.657 18.364 242.974 18.952C243.301 19.5307 243.464 20.198 243.464 20.954ZM241.434 20.394C241.425 19.89 241.243 19.4887 240.888 19.19C240.533 18.882 240.099 18.728 239.586 18.728C239.101 18.728 238.69 18.8773 238.354 19.176C238.027 19.4653 237.827 19.8713 237.752 20.394H241.434ZM252.855 20.954C252.855 21.234 252.836 21.486 252.799 21.71H247.129C247.175 22.27 247.371 22.7087 247.717 23.026C248.062 23.3433 248.487 23.502 248.991 23.502C249.719 23.502 250.237 23.1893 250.545 22.564H252.659C252.435 23.3107 252.005 23.9267 251.371 24.412C250.736 24.888 249.957 25.126 249.033 25.126C248.286 25.126 247.614 24.9627 247.017 24.636C246.429 24.3 245.967 23.8287 245.631 23.222C245.304 22.6153 245.141 21.9153 245.141 21.122C245.141 20.3193 245.304 19.6147 245.631 19.008C245.957 18.4013 246.415 17.9347 247.003 17.608C247.591 17.2813 248.267 17.118 249.033 17.118C249.77 17.118 250.428 17.2767 251.007 17.594C251.595 17.9113 252.047 18.364 252.365 18.952C252.691 19.5307 252.855 20.198 252.855 20.954ZM250.825 20.394C250.815 19.89 250.633 19.4887 250.279 19.19C249.924 18.882 249.49 18.728 248.977 18.728C248.491 18.728 248.081 18.8773 247.745 19.176C247.418 19.4653 247.217 19.8713 247.143 20.394H250.825ZM259.333 17.132C260.257 17.132 261.004 17.426 261.573 18.014C262.143 18.5927 262.427 19.4047 262.427 20.45V25H260.467V20.716C260.467 20.1 260.313 19.6287 260.005 19.302C259.697 18.966 259.277 18.798 258.745 18.798C258.204 18.798 257.775 18.966 257.457 19.302C257.149 19.6287 256.995 20.1 256.995 20.716V25H255.035V17.244H256.995V18.21C257.257 17.874 257.588 17.6127 257.989 17.426C258.4 17.23 258.848 17.132 259.333 17.132ZM276.449 17.244V25H274.475V24.02C274.223 24.356 273.892 24.622 273.481 24.818C273.08 25.0047 272.641 25.098 272.165 25.098C271.558 25.098 271.022 24.972 270.555 24.72C270.088 24.4587 269.72 24.0807 269.449 23.586C269.188 23.082 269.057 22.4847 269.057 21.794V17.244H271.017V21.514C271.017 22.13 271.171 22.606 271.479 22.942C271.787 23.2687 272.207 23.432 272.739 23.432C273.28 23.432 273.705 23.2687 274.013 22.942C274.321 22.606 274.475 22.13 274.475 21.514V17.244H276.449ZM281.093 18.364C281.345 18.0093 281.69 17.7153 282.129 17.482C282.577 17.2393 283.086 17.118 283.655 17.118C284.318 17.118 284.915 17.2813 285.447 17.608C285.988 17.9347 286.413 18.4013 286.721 19.008C287.038 19.6053 287.197 20.3007 287.197 21.094C287.197 21.8873 287.038 22.592 286.721 23.208C286.413 23.8147 285.988 24.286 285.447 24.622C284.915 24.958 284.318 25.126 283.655 25.126C283.086 25.126 282.582 25.0093 282.143 24.776C281.714 24.5427 281.364 24.2487 281.093 23.894V28.696H279.133V17.244H281.093V18.364ZM285.195 21.094C285.195 20.6273 285.097 20.226 284.901 19.89C284.714 19.5447 284.462 19.2833 284.145 19.106C283.837 18.9287 283.501 18.84 283.137 18.84C282.782 18.84 282.446 18.9333 282.129 19.12C281.821 19.2973 281.569 19.5587 281.373 19.904C281.186 20.2493 281.093 20.6553 281.093 21.122C281.093 21.5887 281.186 21.9947 281.373 22.34C281.569 22.6853 281.821 22.9513 282.129 23.138C282.446 23.3153 282.782 23.404 283.137 23.404C283.501 23.404 283.837 23.3107 284.145 23.124C284.462 22.9373 284.714 22.6713 284.901 22.326C285.097 21.9807 285.195 21.57 285.195 21.094ZM291.331 14.64V25H289.371V14.64H291.331ZM297.462 25.126C296.715 25.126 296.043 24.9627 295.446 24.636C294.848 24.3 294.377 23.8287 294.032 23.222C293.696 22.6153 293.528 21.9153 293.528 21.122C293.528 20.3287 293.7 19.6287 294.046 19.022C294.4 18.4153 294.881 17.9487 295.488 17.622C296.094 17.286 296.771 17.118 297.518 17.118C298.264 17.118 298.941 17.286 299.548 17.622C300.154 17.9487 300.63 18.4153 300.976 19.022C301.33 19.6287 301.508 20.3287 301.508 21.122C301.508 21.9153 301.326 22.6153 300.962 23.222C300.607 23.8287 300.122 24.3 299.506 24.636C298.899 24.9627 298.218 25.126 297.462 25.126ZM297.462 23.418C297.816 23.418 298.148 23.334 298.456 23.166C298.773 22.9887 299.025 22.7273 299.212 22.382C299.398 22.0367 299.492 21.6167 299.492 21.122C299.492 20.3847 299.296 19.82 298.904 19.428C298.521 19.0267 298.05 18.826 297.49 18.826C296.93 18.826 296.458 19.0267 296.076 19.428C295.702 19.82 295.516 20.3847 295.516 21.122C295.516 21.8593 295.698 22.4287 296.062 22.83C296.435 23.222 296.902 23.418 297.462 23.418ZM303.191 21.094C303.191 20.31 303.345 19.6147 303.653 19.008C303.971 18.4013 304.395 17.9347 304.927 17.608C305.469 17.2813 306.071 17.118 306.733 17.118C307.312 17.118 307.816 17.2347 308.245 17.468C308.684 17.7013 309.034 17.9953 309.295 18.35V17.244H311.269V25H309.295V23.866C309.043 24.23 308.693 24.5333 308.245 24.776C307.807 25.0093 307.298 25.126 306.719 25.126C306.066 25.126 305.469 24.958 304.927 24.622C304.395 24.286 303.971 23.8147 303.653 23.208C303.345 22.592 303.191 21.8873 303.191 21.094ZM309.295 21.122C309.295 20.646 309.202 20.24 309.015 19.904C308.829 19.5587 308.577 19.2973 308.259 19.12C307.942 18.9333 307.601 18.84 307.237 18.84C306.873 18.84 306.537 18.9287 306.229 19.106C305.921 19.2833 305.669 19.5447 305.473 19.89C305.287 20.226 305.193 20.6273 305.193 21.094C305.193 21.5607 305.287 21.9713 305.473 22.326C305.669 22.6713 305.921 22.9373 306.229 23.124C306.547 23.3107 306.883 23.404 307.237 23.404C307.601 23.404 307.942 23.3153 308.259 23.138C308.577 22.9513 308.829 22.69 309.015 22.354C309.202 22.0087 309.295 21.598 309.295 21.122ZM313.43 21.094C313.43 20.31 313.584 19.6147 313.892 19.008C314.209 18.4013 314.638 17.9347 315.18 17.608C315.721 17.2813 316.323 17.118 316.986 17.118C317.49 17.118 317.97 17.23 318.428 17.454C318.885 17.6687 319.249 17.958 319.52 18.322V14.64H321.508V25H319.52V23.852C319.277 24.2347 318.936 24.5427 318.498 24.776C318.059 25.0093 317.55 25.126 316.972 25.126C316.318 25.126 315.721 24.958 315.18 24.622C314.638 24.286 314.209 23.8147 313.892 23.208C313.584 22.592 313.43 21.8873 313.43 21.094ZM319.534 21.122C319.534 20.646 319.44 20.24 319.254 19.904C319.067 19.5587 318.815 19.2973 318.498 19.12C318.18 18.9333 317.84 18.84 317.476 18.84C317.112 18.84 316.776 18.9287 316.468 19.106C316.16 19.2833 315.908 19.5447 315.712 19.89C315.525 20.226 315.432 20.6273 315.432 21.094C315.432 21.5607 315.525 21.9713 315.712 22.326C315.908 22.6713 316.16 22.9373 316.468 23.124C316.785 23.3107 317.121 23.404 317.476 23.404C317.84 23.404 318.18 23.3153 318.498 23.138C318.815 22.9513 319.067 22.69 319.254 22.354C319.44 22.0087 319.534 21.598 319.534 21.122ZM331.382 20.954C331.382 21.234 331.363 21.486 331.326 21.71H325.656C325.703 22.27 325.899 22.7087 326.244 23.026C326.589 23.3433 327.014 23.502 327.518 23.502C328.246 23.502 328.764 23.1893 329.072 22.564H331.186C330.962 23.3107 330.533 23.9267 329.898 24.412C329.263 24.888 328.484 25.126 327.56 25.126C326.813 25.126 326.141 24.9627 325.544 24.636C324.956 24.3 324.494 23.8287 324.158 23.222C323.831 22.6153 323.668 21.9153 323.668 21.122C323.668 20.3193 323.831 19.6147 324.158 19.008C324.485 18.4013 324.942 17.9347 325.53 17.608C326.118 17.2813 326.795 17.118 327.56 17.118C328.297 17.118 328.955 17.2767 329.534 17.594C330.122 17.9113 330.575 18.364 330.892 18.952C331.219 19.5307 331.382 20.198 331.382 20.954ZM329.352 20.394C329.343 19.89 329.161 19.4887 328.806 19.19C328.451 18.882 328.017 18.728 327.504 18.728C327.019 18.728 326.608 18.8773 326.272 19.176C325.945 19.4653 325.745 19.8713 325.67 20.394H329.352ZM333.059 21.094C333.059 20.31 333.213 19.6147 333.521 19.008C333.838 18.4013 334.267 17.9347 334.809 17.608C335.35 17.2813 335.952 17.118 336.615 17.118C337.119 17.118 337.599 17.23 338.057 17.454C338.514 17.6687 338.878 17.958 339.149 18.322V14.64H341.137V25H339.149V23.852C338.906 24.2347 338.565 24.5427 338.127 24.776C337.688 25.0093 337.179 25.126 336.601 25.126C335.947 25.126 335.35 24.958 334.809 24.622C334.267 24.286 333.838 23.8147 333.521 23.208C333.213 22.592 333.059 21.8873 333.059 21.094ZM339.163 21.122C339.163 20.646 339.069 20.24 338.883 19.904C338.696 19.5587 338.444 19.2973 338.127 19.12C337.809 18.9333 337.469 18.84 337.105 18.84C336.741 18.84 336.405 18.9287 336.097 19.106C335.789 19.2833 335.537 19.5447 335.341 19.89C335.154 20.226 335.061 20.6273 335.061 21.094C335.061 21.5607 335.154 21.9713 335.341 22.326C335.537 22.6713 335.789 22.9373 336.097 23.124C336.414 23.3107 336.75 23.404 337.105 23.404C337.469 23.404 337.809 23.3153 338.127 23.138C338.444 22.9513 338.696 22.69 338.883 22.354C339.069 22.0087 339.163 21.598 339.163 21.122Z" fill="#A0A3BD"/>
<path d="M359 14L371 26" stroke="#A0A3BD" stroke-width="2" stroke-linecap="round" stroke-linejoin="round"/>
<path d="M359 26L371 14" stroke="#A0A3BD" stroke-width="2" stroke-linecap="round" stroke-linejoin="round"/>
</svg>
