<svg width="278" height="24" viewBox="0 0 278 24" fill="none" xmlns="http://www.w3.org/2000/svg">
<path d="M38.901 7.228L35.597 13.598V17H33.637V13.598L30.319 7.228H32.531L34.631 11.694L36.717 7.228H38.901ZM44.2254 17.126C43.4788 17.126 42.8068 16.9627 42.2094 16.636C41.6121 16.3 41.1408 15.8287 40.7954 15.222C40.4594 14.6153 40.2914 13.9153 40.2914 13.122C40.2914 12.3287 40.4641 11.6287 40.8094 11.022C41.1641 10.4153 41.6448 9.94867 42.2514 9.622C42.8581 9.286 43.5348 9.118 44.2814 9.118C45.0281 9.118 45.7048 9.286 46.3114 9.622C46.9181 9.94867 47.3941 10.4153 47.7394 11.022C48.0941 11.6287 48.2714 12.3287 48.2714 13.122C48.2714 13.9153 48.0894 14.6153 47.7254 15.222C47.3708 15.8287 46.8854 16.3 46.2694 16.636C45.6628 16.9627 44.9814 17.126 44.2254 17.126ZM44.2254 15.418C44.5801 15.418 44.9114 15.334 45.2194 15.166C45.5368 14.9887 45.7888 14.7273 45.9754 14.382C46.1621 14.0367 46.2554 13.6167 46.2554 13.122C46.2554 12.3847 46.0594 11.82 45.6674 11.428C45.2848 11.0267 44.8134 10.826 44.2534 10.826C43.6934 10.826 43.2221 11.0267 42.8394 11.428C42.4661 11.82 42.2794 12.3847 42.2794 13.122C42.2794 13.8593 42.4614 14.4287 42.8254 14.83C43.1988 15.222 43.6654 15.418 44.2254 15.418ZM57.7812 9.244V17H55.8072V16.02C55.5552 16.356 55.2238 16.622 54.8132 16.818C54.4118 17.0047 53.9732 17.098 53.4972 17.098C52.8905 17.098 52.3538 16.972 51.8872 16.72C51.4205 16.4587 51.0518 16.0807 50.7812 15.586C50.5198 15.082 50.3892 14.4847 50.3892 13.794V9.244H52.3492V13.514C52.3492 14.13 52.5032 14.606 52.8112 14.942C53.1192 15.2687 53.5392 15.432 54.0712 15.432C54.6125 15.432 55.0372 15.2687 55.3452 14.942C55.6532 14.606 55.8072 14.13 55.8072 13.514V9.244H57.7812ZM62.425 10.448C62.677 10.0373 63.0037 9.71533 63.405 9.482C63.8157 9.24867 64.2824 9.132 64.805 9.132V11.19H64.287C63.671 11.19 63.2044 11.3347 62.887 11.624C62.579 11.9133 62.425 12.4173 62.425 13.136V17H60.465V9.244H62.425V10.448ZM74.5171 10.854H73.1591V17H71.1711V10.854H70.2891V9.244H71.1711V8.852C71.1711 7.9 71.4418 7.2 71.9831 6.752C72.5245 6.304 73.3411 6.094 74.4331 6.122V7.774C73.9571 7.76467 73.6258 7.844 73.4391 8.012C73.2525 8.18 73.1591 8.48333 73.1591 8.922V9.244H74.5171V10.854ZM77.5313 8.32C77.186 8.32 76.8966 8.21267 76.6633 7.998C76.4393 7.774 76.3273 7.49867 76.3273 7.172C76.3273 6.84533 76.4393 6.57467 76.6633 6.36C76.8966 6.136 77.186 6.024 77.5313 6.024C77.8766 6.024 78.1613 6.136 78.3853 6.36C78.6186 6.57467 78.7353 6.84533 78.7353 7.172C78.7353 7.49867 78.6186 7.774 78.3853 7.998C78.1613 8.21267 77.8766 8.32 77.5313 8.32ZM78.4973 9.244V17H76.5373V9.244H78.4973ZM83.1438 6.64V17H81.1838V6.64H83.1438ZM93.0403 12.954C93.0403 13.234 93.0216 13.486 92.9843 13.71H87.3143C87.3609 14.27 87.5569 14.7087 87.9023 15.026C88.2476 15.3433 88.6723 15.502 89.1763 15.502C89.9043 15.502 90.4223 15.1893 90.7303 14.564H92.8443C92.6203 15.3107 92.1909 15.9267 91.5563 16.412C90.9216 16.888 90.1423 17.126 89.2183 17.126C88.4716 17.126 87.7996 16.9627 87.2023 16.636C86.6143 16.3 86.1523 15.8287 85.8163 15.222C85.4896 14.6153 85.3263 13.9153 85.3263 13.122C85.3263 12.3193 85.4896 11.6147 85.8163 11.008C86.1429 10.4013 86.6003 9.93467 87.1883 9.608C87.7763 9.28133 88.4529 9.118 89.2183 9.118C89.9556 9.118 90.6136 9.27667 91.1923 9.594C91.7803 9.91133 92.2329 10.364 92.5503 10.952C92.8769 11.5307 93.0403 12.198 93.0403 12.954ZM91.0103 12.394C91.0009 11.89 90.8189 11.4887 90.4643 11.19C90.1096 10.882 89.6756 10.728 89.1623 10.728C88.6769 10.728 88.2663 10.8773 87.9303 11.176C87.6036 11.4653 87.4029 11.8713 87.3283 12.394H91.0103ZM103.675 9.132C104.263 9.132 104.785 9.26267 105.243 9.524C105.7 9.776 106.055 10.154 106.307 10.658C106.568 11.1527 106.699 11.75 106.699 12.45V17H104.739V12.716C104.739 12.1 104.585 11.6287 104.277 11.302C103.969 10.966 103.549 10.798 103.017 10.798C102.475 10.798 102.046 10.966 101.729 11.302C101.421 11.6287 101.267 12.1 101.267 12.716V17H99.3068V6.64H101.267V10.21C101.519 9.874 101.855 9.61267 102.275 9.426C102.695 9.23 103.161 9.132 103.675 9.132ZM108.809 13.094C108.809 12.31 108.963 11.6147 109.271 11.008C109.588 10.4013 110.013 9.93467 110.545 9.608C111.086 9.28133 111.688 9.118 112.351 9.118C112.929 9.118 113.433 9.23467 113.863 9.468C114.301 9.70133 114.651 9.99533 114.913 10.35V9.244H116.887V17H114.913V15.866C114.661 16.23 114.311 16.5333 113.863 16.776C113.424 17.0093 112.915 17.126 112.337 17.126C111.683 17.126 111.086 16.958 110.545 16.622C110.013 16.286 109.588 15.8147 109.271 15.208C108.963 14.592 108.809 13.8873 108.809 13.094ZM114.913 13.122C114.913 12.646 114.819 12.24 114.633 11.904C114.446 11.5587 114.194 11.2973 113.877 11.12C113.559 10.9333 113.219 10.84 112.855 10.84C112.491 10.84 112.155 10.9287 111.847 11.106C111.539 11.2833 111.287 11.5447 111.091 11.89C110.904 12.226 110.811 12.6273 110.811 13.094C110.811 13.5607 110.904 13.9713 111.091 14.326C111.287 14.6713 111.539 14.9373 111.847 15.124C112.164 15.3107 112.5 15.404 112.855 15.404C113.219 15.404 113.559 15.3153 113.877 15.138C114.194 14.9513 114.446 14.69 114.633 14.354C114.819 14.0087 114.913 13.598 114.913 13.122ZM122.519 17.126C121.884 17.126 121.315 17.014 120.811 16.79C120.307 16.5567 119.906 16.244 119.607 15.852C119.318 15.46 119.159 15.026 119.131 14.55H121.105C121.142 14.8487 121.287 15.096 121.539 15.292C121.8 15.488 122.122 15.586 122.505 15.586C122.878 15.586 123.168 15.5113 123.373 15.362C123.588 15.2127 123.695 15.0213 123.695 14.788C123.695 14.536 123.564 14.3493 123.303 14.228C123.051 14.0973 122.645 13.9573 122.085 13.808C121.506 13.668 121.03 13.5233 120.657 13.374C120.293 13.2247 119.976 12.996 119.705 12.688C119.444 12.38 119.313 11.9647 119.313 11.442C119.313 11.0127 119.434 10.6207 119.677 10.266C119.929 9.91133 120.284 9.63133 120.741 9.426C121.208 9.22067 121.754 9.118 122.379 9.118C123.303 9.118 124.04 9.35133 124.591 9.818C125.142 10.2753 125.445 10.896 125.501 11.68H123.625C123.597 11.372 123.466 11.1293 123.233 10.952C123.009 10.7653 122.706 10.672 122.323 10.672C121.968 10.672 121.693 10.7373 121.497 10.868C121.31 10.9987 121.217 11.1807 121.217 11.414C121.217 11.6753 121.348 11.876 121.609 12.016C121.87 12.1467 122.276 12.282 122.827 12.422C123.387 12.562 123.849 12.7067 124.213 12.856C124.577 13.0053 124.89 13.2387 125.151 13.556C125.422 13.864 125.562 14.2747 125.571 14.788C125.571 15.236 125.445 15.6373 125.193 15.992C124.95 16.3467 124.596 16.6267 124.129 16.832C123.672 17.028 123.135 17.126 122.519 17.126ZM133.976 10.378C134.228 10.0047 134.573 9.70133 135.012 9.468C135.46 9.23467 135.968 9.118 136.538 9.118C137.2 9.118 137.798 9.28133 138.33 9.608C138.871 9.93467 139.296 10.4013 139.604 11.008C139.921 11.6053 140.08 12.3007 140.08 13.094C140.08 13.8873 139.921 14.592 139.604 15.208C139.296 15.8147 138.871 16.286 138.33 16.622C137.798 16.958 137.2 17.126 136.538 17.126C135.959 17.126 135.45 17.014 135.012 16.79C134.582 16.5567 134.237 16.258 133.976 15.894V17H132.016V6.64H133.976V10.378ZM138.078 13.094C138.078 12.6273 137.98 12.226 137.784 11.89C137.597 11.5447 137.345 11.2833 137.028 11.106C136.72 10.9287 136.384 10.84 136.02 10.84C135.665 10.84 135.329 10.9333 135.012 11.12C134.704 11.2973 134.452 11.5587 134.256 11.904C134.069 12.2493 133.976 12.6553 133.976 13.122C133.976 13.5887 134.069 13.9947 134.256 14.34C134.452 14.6853 134.704 14.9513 135.012 15.138C135.329 15.3153 135.665 15.404 136.02 15.404C136.384 15.404 136.72 15.3107 137.028 15.124C137.345 14.9373 137.597 14.6713 137.784 14.326C137.98 13.9807 138.078 13.57 138.078 13.094ZM149.464 12.954C149.464 13.234 149.445 13.486 149.408 13.71H143.738C143.785 14.27 143.981 14.7087 144.326 15.026C144.671 15.3433 145.096 15.502 145.6 15.502C146.328 15.502 146.846 15.1893 147.154 14.564H149.268C149.044 15.3107 148.615 15.9267 147.98 16.412C147.345 16.888 146.566 17.126 145.642 17.126C144.895 17.126 144.223 16.9627 143.626 16.636C143.038 16.3 142.576 15.8287 142.24 15.222C141.913 14.6153 141.75 13.9153 141.75 13.122C141.75 12.3193 141.913 11.6147 142.24 11.008C142.567 10.4013 143.024 9.93467 143.612 9.608C144.2 9.28133 144.877 9.118 145.642 9.118C146.379 9.118 147.037 9.27667 147.616 9.594C148.204 9.91133 148.657 10.364 148.974 10.952C149.301 11.5307 149.464 12.198 149.464 12.954ZM147.434 12.394C147.425 11.89 147.243 11.4887 146.888 11.19C146.533 10.882 146.099 10.728 145.586 10.728C145.101 10.728 144.69 10.8773 144.354 11.176C144.027 11.4653 143.827 11.8713 143.752 12.394H147.434ZM158.855 12.954C158.855 13.234 158.836 13.486 158.799 13.71H153.129C153.175 14.27 153.371 14.7087 153.717 15.026C154.062 15.3433 154.487 15.502 154.991 15.502C155.719 15.502 156.237 15.1893 156.545 14.564H158.659C158.435 15.3107 158.005 15.9267 157.371 16.412C156.736 16.888 155.957 17.126 155.033 17.126C154.286 17.126 153.614 16.9627 153.017 16.636C152.429 16.3 151.967 15.8287 151.631 15.222C151.304 14.6153 151.141 13.9153 151.141 13.122C151.141 12.3193 151.304 11.6147 151.631 11.008C151.957 10.4013 152.415 9.93467 153.003 9.608C153.591 9.28133 154.267 9.118 155.033 9.118C155.77 9.118 156.428 9.27667 157.007 9.594C157.595 9.91133 158.047 10.364 158.365 10.952C158.691 11.5307 158.855 12.198 158.855 12.954ZM156.825 12.394C156.815 11.89 156.633 11.4887 156.279 11.19C155.924 10.882 155.49 10.728 154.977 10.728C154.491 10.728 154.081 10.8773 153.745 11.176C153.418 11.4653 153.217 11.8713 153.143 12.394H156.825ZM165.333 9.132C166.257 9.132 167.004 9.426 167.573 10.014C168.143 10.5927 168.427 11.4047 168.427 12.45V17H166.467V12.716C166.467 12.1 166.313 11.6287 166.005 11.302C165.697 10.966 165.277 10.798 164.745 10.798C164.204 10.798 163.775 10.966 163.457 11.302C163.149 11.6287 162.995 12.1 162.995 12.716V17H161.035V9.244H162.995V10.21C163.257 9.874 163.588 9.61267 163.989 9.426C164.4 9.23 164.848 9.132 165.333 9.132ZM182.449 9.244V17H180.475V16.02C180.223 16.356 179.892 16.622 179.481 16.818C179.08 17.0047 178.641 17.098 178.165 17.098C177.558 17.098 177.022 16.972 176.555 16.72C176.088 16.4587 175.72 16.0807 175.449 15.586C175.188 15.082 175.057 14.4847 175.057 13.794V9.244H177.017V13.514C177.017 14.13 177.171 14.606 177.479 14.942C177.787 15.2687 178.207 15.432 178.739 15.432C179.28 15.432 179.705 15.2687 180.013 14.942C180.321 14.606 180.475 14.13 180.475 13.514V9.244H182.449ZM187.093 10.364C187.345 10.0093 187.69 9.71533 188.129 9.482C188.577 9.23933 189.086 9.118 189.655 9.118C190.318 9.118 190.915 9.28133 191.447 9.608C191.988 9.93467 192.413 10.4013 192.721 11.008C193.038 11.6053 193.197 12.3007 193.197 13.094C193.197 13.8873 193.038 14.592 192.721 15.208C192.413 15.8147 191.988 16.286 191.447 16.622C190.915 16.958 190.318 17.126 189.655 17.126C189.086 17.126 188.582 17.0093 188.143 16.776C187.714 16.5427 187.364 16.2487 187.093 15.894V20.696H185.133V9.244H187.093V10.364ZM191.195 13.094C191.195 12.6273 191.097 12.226 190.901 11.89C190.714 11.5447 190.462 11.2833 190.145 11.106C189.837 10.9287 189.501 10.84 189.137 10.84C188.782 10.84 188.446 10.9333 188.129 11.12C187.821 11.2973 187.569 11.5587 187.373 11.904C187.186 12.2493 187.093 12.6553 187.093 13.122C187.093 13.5887 187.186 13.9947 187.373 14.34C187.569 14.6853 187.821 14.9513 188.129 15.138C188.446 15.3153 188.782 15.404 189.137 15.404C189.501 15.404 189.837 15.3107 190.145 15.124C190.462 14.9373 190.714 14.6713 190.901 14.326C191.097 13.9807 191.195 13.57 191.195 13.094ZM197.331 6.64V17H195.371V6.64H197.331ZM203.462 17.126C202.715 17.126 202.043 16.9627 201.446 16.636C200.848 16.3 200.377 15.8287 200.032 15.222C199.696 14.6153 199.528 13.9153 199.528 13.122C199.528 12.3287 199.7 11.6287 200.046 11.022C200.4 10.4153 200.881 9.94867 201.488 9.622C202.094 9.286 202.771 9.118 203.518 9.118C204.264 9.118 204.941 9.286 205.548 9.622C206.154 9.94867 206.63 10.4153 206.976 11.022C207.33 11.6287 207.508 12.3287 207.508 13.122C207.508 13.9153 207.326 14.6153 206.962 15.222C206.607 15.8287 206.122 16.3 205.506 16.636C204.899 16.9627 204.218 17.126 203.462 17.126ZM203.462 15.418C203.816 15.418 204.148 15.334 204.456 15.166C204.773 14.9887 205.025 14.7273 205.212 14.382C205.398 14.0367 205.492 13.6167 205.492 13.122C205.492 12.3847 205.296 11.82 204.904 11.428C204.521 11.0267 204.05 10.826 203.49 10.826C202.93 10.826 202.458 11.0267 202.076 11.428C201.702 11.82 201.516 12.3847 201.516 13.122C201.516 13.8593 201.698 14.4287 202.062 14.83C202.435 15.222 202.902 15.418 203.462 15.418ZM209.191 13.094C209.191 12.31 209.345 11.6147 209.653 11.008C209.971 10.4013 210.395 9.93467 210.927 9.608C211.469 9.28133 212.071 9.118 212.733 9.118C213.312 9.118 213.816 9.23467 214.245 9.468C214.684 9.70133 215.034 9.99533 215.295 10.35V9.244H217.269V17H215.295V15.866C215.043 16.23 214.693 16.5333 214.245 16.776C213.807 17.0093 213.298 17.126 212.719 17.126C212.066 17.126 211.469 16.958 210.927 16.622C210.395 16.286 209.971 15.8147 209.653 15.208C209.345 14.592 209.191 13.8873 209.191 13.094ZM215.295 13.122C215.295 12.646 215.202 12.24 215.015 11.904C214.829 11.5587 214.577 11.2973 214.259 11.12C213.942 10.9333 213.601 10.84 213.237 10.84C212.873 10.84 212.537 10.9287 212.229 11.106C211.921 11.2833 211.669 11.5447 211.473 11.89C211.287 12.226 211.193 12.6273 211.193 13.094C211.193 13.5607 211.287 13.9713 211.473 14.326C211.669 14.6713 211.921 14.9373 212.229 15.124C212.547 15.3107 212.883 15.404 213.237 15.404C213.601 15.404 213.942 15.3153 214.259 15.138C214.577 14.9513 214.829 14.69 215.015 14.354C215.202 14.0087 215.295 13.598 215.295 13.122ZM219.43 13.094C219.43 12.31 219.584 11.6147 219.892 11.008C220.209 10.4013 220.638 9.93467 221.18 9.608C221.721 9.28133 222.323 9.118 222.986 9.118C223.49 9.118 223.97 9.23 224.428 9.454C224.885 9.66867 225.249 9.958 225.52 10.322V6.64H227.508V17H225.52V15.852C225.277 16.2347 224.936 16.5427 224.498 16.776C224.059 17.0093 223.55 17.126 222.972 17.126C222.318 17.126 221.721 16.958 221.18 16.622C220.638 16.286 220.209 15.8147 219.892 15.208C219.584 14.592 219.43 13.8873 219.43 13.094ZM225.534 13.122C225.534 12.646 225.44 12.24 225.254 11.904C225.067 11.5587 224.815 11.2973 224.498 11.12C224.18 10.9333 223.84 10.84 223.476 10.84C223.112 10.84 222.776 10.9287 222.468 11.106C222.16 11.2833 221.908 11.5447 221.712 11.89C221.525 12.226 221.432 12.6273 221.432 13.094C221.432 13.5607 221.525 13.9713 221.712 14.326C221.908 14.6713 222.16 14.9373 222.468 15.124C222.785 15.3107 223.121 15.404 223.476 15.404C223.84 15.404 224.18 15.3153 224.498 15.138C224.815 14.9513 225.067 14.69 225.254 14.354C225.44 14.0087 225.534 13.598 225.534 13.122ZM237.382 12.954C237.382 13.234 237.363 13.486 237.326 13.71H231.656C231.703 14.27 231.899 14.7087 232.244 15.026C232.589 15.3433 233.014 15.502 233.518 15.502C234.246 15.502 234.764 15.1893 235.072 14.564H237.186C236.962 15.3107 236.533 15.9267 235.898 16.412C235.263 16.888 234.484 17.126 233.56 17.126C232.813 17.126 232.141 16.9627 231.544 16.636C230.956 16.3 230.494 15.8287 230.158 15.222C229.831 14.6153 229.668 13.9153 229.668 13.122C229.668 12.3193 229.831 11.6147 230.158 11.008C230.485 10.4013 230.942 9.93467 231.53 9.608C232.118 9.28133 232.795 9.118 233.56 9.118C234.297 9.118 234.955 9.27667 235.534 9.594C236.122 9.91133 236.575 10.364 236.892 10.952C237.219 11.5307 237.382 12.198 237.382 12.954ZM235.352 12.394C235.343 11.89 235.161 11.4887 234.806 11.19C234.451 10.882 234.017 10.728 233.504 10.728C233.019 10.728 232.608 10.8773 232.272 11.176C231.945 11.4653 231.745 11.8713 231.67 12.394H235.352ZM239.059 13.094C239.059 12.31 239.213 11.6147 239.521 11.008C239.838 10.4013 240.267 9.93467 240.809 9.608C241.35 9.28133 241.952 9.118 242.615 9.118C243.119 9.118 243.599 9.23 244.057 9.454C244.514 9.66867 244.878 9.958 245.149 10.322V6.64H247.137V17H245.149V15.852C244.906 16.2347 244.565 16.5427 244.127 16.776C243.688 17.0093 243.179 17.126 242.601 17.126C241.947 17.126 241.35 16.958 240.809 16.622C240.267 16.286 239.838 15.8147 239.521 15.208C239.213 14.592 239.059 13.8873 239.059 13.094ZM245.163 13.122C245.163 12.646 245.069 12.24 244.883 11.904C244.696 11.5587 244.444 11.2973 244.127 11.12C243.809 10.9333 243.469 10.84 243.105 10.84C242.741 10.84 242.405 10.9287 242.097 11.106C241.789 11.2833 241.537 11.5447 241.341 11.89C241.154 12.226 241.061 12.6273 241.061 13.094C241.061 13.5607 241.154 13.9713 241.341 14.326C241.537 14.6713 241.789 14.9373 242.097 15.124C242.414 15.3107 242.75 15.404 243.105 15.404C243.469 15.404 243.809 15.3153 244.127 15.138C244.444 14.9513 244.696 14.69 244.883 14.354C245.069 14.0087 245.163 13.598 245.163 13.122Z" fill="#57B6AB"/>
<path d="M265 6L277 18" stroke="#A0A3BD" stroke-width="2" stroke-linecap="round" stroke-linejoin="round"/>
<path d="M265 18L277 6.00002" stroke="#A0A3BD" stroke-width="2" stroke-linecap="round" stroke-linejoin="round"/>
<path d="M1.35355 11.6464C1.15829 11.4512 0.841709 11.4512 0.646447 11.6464C0.451184 11.8417 0.451184 12.1583 0.646447 12.3536L1.35355 11.6464ZM7 18L6.64645 18.3536C6.84171 18.5488 7.15829 18.5488 7.35355 18.3536L7 18ZM18.3536 7.35355C18.5488 7.15829 18.5488 6.84171 18.3536 6.64645C18.1583 6.45118 17.8417 6.45118 17.6464 6.64645L18.3536 7.35355ZM6.35355 11.6464C6.15829 11.4512 5.84171 11.4512 5.64645 11.6464C5.45118 11.8417 5.45118 12.1583 5.64645 12.3536L6.35355 11.6464ZM11.6464 17.6464C11.4512 17.8417 11.4512 18.1583 11.6464 18.3536C11.8417 18.5488 12.1583 18.5488 12.3536 18.3536L11.6464 17.6464ZM23.3536 7.35355C23.5488 7.15829 23.5488 6.84171 23.3536 6.64645C23.1583 6.45118 22.8417 6.45118 22.6464 6.64645L23.3536 7.35355ZM0.646447 12.3536L6.64645 18.3536L7.35355 17.6464L1.35355 11.6464L0.646447 12.3536ZM12.3536 18.3536L23.3536 7.35355L22.6464 6.64645L11.6464 17.6464L12.3536 18.3536ZM7.35355 18.3536L9.85355 15.8536L9.14645 15.1464L6.64645 17.6464L7.35355 18.3536ZM9.85355 15.8536L18.3536 7.35355L17.6464 6.64645L9.14645 15.1464L9.85355 15.8536ZM5.64645 12.3536L9.14645 15.8536L9.85355 15.1464L6.35355 11.6464L5.64645 12.3536Z" fill="#57B6AB"/>
</svg>
