<svg width="117" height="24" viewBox="0 0 117 24" fill="none" xmlns="http://www.w3.org/2000/svg">
<path d="M7.38866 15.138H3.49666L2.85266 17H0.794664L4.30866 7.214H6.59066L10.1047 17H8.03266L7.38866 15.138ZM6.85666 13.57L5.44266 9.482L4.02866 13.57H6.85666ZM14.4501 10.854V14.606C14.4501 14.8673 14.5108 15.0587 14.6321 15.18C14.7628 15.292 14.9775 15.348 15.2761 15.348H16.1861V17H14.9541C13.3021 17 12.4761 16.1973 12.4761 14.592V10.854H11.5521V9.244H12.4761V7.326H14.4501V9.244H16.1861V10.854H14.4501ZM20.6279 10.854V14.606C20.6279 14.8673 20.6885 15.0587 20.8099 15.18C20.9405 15.292 21.1552 15.348 21.4539 15.348H22.3639V17H21.1319C19.4799 17 18.6539 16.1973 18.6539 14.592V10.854H17.7299V9.244H18.6539V7.326H20.6279V9.244H22.3639V10.854H20.6279ZM24.0196 13.094C24.0196 12.31 24.1736 11.6147 24.4816 11.008C24.799 10.4013 25.2236 9.93467 25.7556 9.608C26.297 9.28133 26.899 9.118 27.5616 9.118C28.1403 9.118 28.6443 9.23467 29.0736 9.468C29.5123 9.70133 29.8623 9.99533 30.1236 10.35V9.244H32.0976V17H30.1236V15.866C29.8716 16.23 29.5216 16.5333 29.0736 16.776C28.635 17.0093 28.1263 17.126 27.5476 17.126C26.8943 17.126 26.297 16.958 25.7556 16.622C25.2236 16.286 24.799 15.8147 24.4816 15.208C24.1736 14.592 24.0196 13.8873 24.0196 13.094ZM30.1236 13.122C30.1236 12.646 30.0303 12.24 29.8436 11.904C29.657 11.5587 29.405 11.2973 29.0876 11.12C28.7703 10.9333 28.4296 10.84 28.0656 10.84C27.7016 10.84 27.3656 10.9287 27.0576 11.106C26.7496 11.2833 26.4976 11.5447 26.3016 11.89C26.115 12.226 26.0216 12.6273 26.0216 13.094C26.0216 13.5607 26.115 13.9713 26.3016 14.326C26.4976 14.6713 26.7496 14.9373 27.0576 15.124C27.375 15.3107 27.711 15.404 28.0656 15.404C28.4296 15.404 28.7703 15.3153 29.0876 15.138C29.405 14.9513 29.657 14.69 29.8436 14.354C30.0303 14.0087 30.1236 13.598 30.1236 13.122ZM34.2579 13.122C34.2579 12.3193 34.4212 11.6193 34.7479 11.022C35.0746 10.4153 35.5272 9.94867 36.1059 9.622C36.6846 9.286 37.3472 9.118 38.0939 9.118C39.0552 9.118 39.8486 9.36067 40.4739 9.846C41.1086 10.322 41.5332 10.994 41.7479 11.862H39.6339C39.5219 11.526 39.3306 11.2647 39.0599 11.078C38.7986 10.882 38.4719 10.784 38.0799 10.784C37.5199 10.784 37.0766 10.9893 36.7499 11.4C36.4232 11.8013 36.2599 12.3753 36.2599 13.122C36.2599 13.8593 36.4232 14.4333 36.7499 14.844C37.0766 15.2453 37.5199 15.446 38.0799 15.446C38.8732 15.446 39.3912 15.0913 39.6339 14.382H41.7479C41.5332 15.222 41.1086 15.8893 40.4739 16.384C39.8392 16.8787 39.0459 17.126 38.0939 17.126C37.3472 17.126 36.6846 16.9627 36.1059 16.636C35.5272 16.3 35.0746 15.8333 34.7479 15.236C34.4212 14.6293 34.2579 13.9247 34.2579 13.122ZM48.3018 9.132C48.8898 9.132 49.4124 9.26267 49.8698 9.524C50.3271 9.776 50.6818 10.154 50.9338 10.658C51.1951 11.1527 51.3258 11.75 51.3258 12.45V17H49.3658V12.716C49.3658 12.1 49.2118 11.6287 48.9038 11.302C48.5958 10.966 48.1758 10.798 47.6438 10.798C47.1024 10.798 46.6731 10.966 46.3558 11.302C46.0478 11.6287 45.8938 12.1 45.8938 12.716V17H43.9338V6.64H45.8938V10.21C46.1458 9.874 46.4818 9.61267 46.9018 9.426C47.3218 9.23 47.7884 9.132 48.3018 9.132ZM61.5816 10.854H60.2236V17H58.2356V10.854H57.3536V9.244H58.2356V8.852C58.2356 7.9 58.5062 7.2 59.0476 6.752C59.5889 6.304 60.4056 6.094 61.4976 6.122V7.774C61.0216 7.76467 60.6902 7.844 60.5036 8.012C60.3169 8.18 60.2236 8.48333 60.2236 8.922V9.244H61.5816V10.854ZM64.5957 8.32C64.2504 8.32 63.9611 8.21267 63.7277 7.998C63.5037 7.774 63.3917 7.49867 63.3917 7.172C63.3917 6.84533 63.5037 6.57467 63.7277 6.36C63.9611 6.136 64.2504 6.024 64.5957 6.024C64.9411 6.024 65.2257 6.136 65.4497 6.36C65.6831 6.57467 65.7997 6.84533 65.7997 7.172C65.7997 7.49867 65.6831 7.774 65.4497 7.998C65.2257 8.21267 64.9411 8.32 64.5957 8.32ZM65.5617 9.244V17H63.6017V9.244H65.5617ZM70.2082 6.64V17H68.2482V6.64H70.2082ZM80.1047 12.954C80.1047 13.234 80.086 13.486 80.0487 13.71H74.3787C74.4254 14.27 74.6214 14.7087 74.9667 15.026C75.312 15.3433 75.7367 15.502 76.2407 15.502C76.9687 15.502 77.4867 15.1893 77.7947 14.564H79.9087C79.6847 15.3107 79.2554 15.9267 78.6207 16.412C77.986 16.888 77.2067 17.126 76.2827 17.126C75.536 17.126 74.864 16.9627 74.2667 16.636C73.6787 16.3 73.2167 15.8287 72.8807 15.222C72.554 14.6153 72.3907 13.9153 72.3907 13.122C72.3907 12.3193 72.554 11.6147 72.8807 11.008C73.2074 10.4013 73.6647 9.93467 74.2527 9.608C74.8407 9.28133 75.5174 9.118 76.2827 9.118C77.02 9.118 77.678 9.27667 78.2567 9.594C78.8447 9.91133 79.2974 10.364 79.6147 10.952C79.9414 11.5307 80.1047 12.198 80.1047 12.954ZM78.0747 12.394C78.0654 11.89 77.8834 11.4887 77.5287 11.19C77.174 10.882 76.74 10.728 76.2267 10.728C75.7414 10.728 75.3307 10.8773 74.9947 11.176C74.668 11.4653 74.4674 11.8713 74.3927 12.394H78.0747Z" fill="url(#paint0_linear_460_3806)"/>
<g clip-path="url(#clip0_460_3806)">
<path d="M105.005 15.3087L109.719 10.5947C110.37 9.94382 110.37 8.88855 109.719 8.23767C109.069 7.5868 108.013 7.5868 107.362 8.23767L100.881 14.7195C99.5788 16.0212 99.5788 18.1318 100.881 19.4335C102.182 20.7353 104.293 20.7353 105.595 19.4335L113.255 11.7732C115.208 9.82058 115.208 6.65476 113.255 4.70214C111.302 2.74952 108.136 2.74952 106.184 4.70214L100.291 10.5947" stroke="#5650D8" stroke-width="2" stroke-linecap="round"/>
</g>
<defs>
<linearGradient id="paint0_linear_460_3806" x1="40.5" y1="0" x2="40.5" y2="24" gradientUnits="userSpaceOnUse">
<stop stop-color="#7770E0"/>
<stop offset="1" stop-color="#554FD8"/>
</linearGradient>
<clipPath id="clip0_460_3806">
<rect width="20" height="20" fill="white" transform="translate(97 2)"/>
</clipPath>
</defs>
</svg>
