<svg width="10" height="18" viewBox="0 0 10 18" fill="none" xmlns="http://www.w3.org/2000/svg">
<path d="M1 9.125L0.292893 9.83211C-0.0976311 9.44158 -0.0976311 8.80842 0.292893 8.41789L1 9.125ZM9.58211 16.2929C9.97263 16.6834 9.97263 17.3166 9.58211 17.7071C9.19158 18.0976 8.55842 18.0976 8.16789 17.7071L9.58211 16.2929ZM8.16789 0.542892C8.55842 0.152369 9.19158 0.152369 9.58211 0.542892C9.97263 0.933418 9.97263 1.56658 9.58211 1.95711L8.16789 0.542892ZM1.70711 8.41789L9.58211 16.2929L8.16789 17.7071L0.292893 9.83211L1.70711 8.41789ZM0.292893 8.41789L8.16789 0.542892L9.58211 1.95711L1.70711 9.83211L0.292893 8.41789Z" fill="#7770E0"/>
</svg>
