<svg width="40" height="40" viewBox="0 0 40 40" fill="none" xmlns="http://www.w3.org/2000/svg">
<path d="M11.6667 15V25M35 23.3333V12C35 10.1331 35 9.19973 34.6367 8.48669C34.3171 7.85948 33.8072 7.34955 33.18 7.02997C32.4669 6.66666 31.5335 6.66666 29.6667 6.66666H10.3333C8.46649 6.66666 7.53307 6.66666 6.82003 7.02997C6.19282 7.34955 5.68289 7.85948 5.36331 8.48669C5 9.19973 5 10.1331 5 12V28C5 29.8668 5 30.8003 5.36331 31.5133C5.68289 32.1405 6.19282 32.6504 6.82003 32.97C7.53307 33.3333 8.46649 33.3333 10.3333 33.3333H20M20 21.6667H21.3294C22.0709 21.6667 22.4417 21.6667 22.7942 21.7439C23.1068 21.8123 23.4079 21.9255 23.6883 22.0798C24.0044 22.2538 24.2834 22.498 24.8414 22.9862L34.7748 31.678C35.7987 32.5738 35.8511 34.1489 34.8891 35.1109C34.0136 35.9864 32.6093 36.0331 31.6775 35.2178L21.8213 26.5936C21.1511 26.0072 20.816 25.714 20.5754 25.3596C20.3622 25.0455 20.2042 24.6974 20.1083 24.3302C20 23.9157 20 23.4705 20 22.5799V21.6667Z" stroke="#7770E0" stroke-width="2" stroke-linecap="round" stroke-linejoin="round"/>
</svg>
