<svg width="40" height="40" viewBox="0 0 40 40" fill="none" xmlns="http://www.w3.org/2000/svg">
<path d="M5 5H35M20 30L11.6667 35M20 30L28.3333 35M20 30V35M20 30V25M20 25H26.3333C28.2002 25 29.1336 25 29.8466 24.6367C30.4738 24.3171 30.9838 23.8072 31.3034 23.18C31.6667 22.4669 31.6667 21.5335 31.6667 19.6667V11.6667M20 25H13.6667C11.7998 25 10.8664 25 10.1534 24.6367C9.52616 24.3171 9.01622 23.8072 8.69665 23.18C8.33333 22.4669 8.33333 21.5335 8.33333 19.6667V11.6667" stroke="#7770E0" stroke-width="2" stroke-linecap="round" stroke-linejoin="round"/>
</svg>
