<svg width="24" height="24" viewBox="0 0 24 24" fill="none" xmlns="http://www.w3.org/2000/svg">
<path d="M12 19L12.7071 19.7071C12.3166 20.0976 11.6834 20.0976 11.2929 19.7071L12 19ZM17.2929 12.2929C17.6834 11.9024 18.3166 11.9024 18.7071 12.2929C19.0976 12.6834 19.0976 13.3166 18.7071 13.7071L17.2929 12.2929ZM5.29289 13.7071C4.90237 13.3166 4.90237 12.6834 5.29289 12.2929C5.68342 11.9024 6.31658 11.9024 6.70711 12.2929L5.29289 13.7071ZM11.2929 18.2929L17.2929 12.2929L18.7071 13.7071L12.7071 19.7071L11.2929 18.2929ZM11.2929 19.7071L5.29289 13.7071L6.70711 12.2929L12.7071 18.2929L11.2929 19.7071Z" fill="white"/>
<path d="M12 11L12.7071 11.7071C12.3166 12.0976 11.6834 12.0976 11.2929 11.7071L12 11ZM17.2929 4.29289C17.6834 3.90237 18.3166 3.90237 18.7071 4.29289C19.0976 4.68342 19.0976 5.31658 18.7071 5.70711L17.2929 4.29289ZM5.29289 5.70711C4.90237 5.31658 4.90237 4.68342 5.29289 4.29289C5.68342 3.90237 6.31658 3.90237 6.70711 4.29289L5.29289 5.70711ZM11.2929 10.2929L17.2929 4.29289L18.7071 5.70711L12.7071 11.7071L11.2929 10.2929ZM11.2929 11.7071L5.29289 5.70711L6.70711 4.29289L12.7071 10.2929L11.2929 11.7071Z" fill="white" fill-opacity="0.4"/>
</svg>
