<svg width="1400" height="1472" viewBox="0 0 1400 1472" fill="none" xmlns="http://www.w3.org/2000/svg">
<path d="M-96.6582 433.978C264.238 394.429 907.282 871.719 919.397 1094.36C927.331 1240.31 585.733 1328.51 499.31 1378.38C381.442 1446.33 587.799 1254.88 597.41 1094.9C608.82 904.801 397.589 469.678 699.326 475.284C962.667 480.216 1076.73 694.163 1250.56 641.923C1407.75 594.607 1479.92 370.04 1516.24 188.849" stroke="url(#paint0_linear_177_458)" stroke-miterlimit="10"/>
<path d="M-92.9351 447.97C255.061 418.45 874.73 881.507 891.873 1093.34C903.083 1232.13 579.168 1314.19 499.026 1359.67C387.91 1422.67 585.339 1238.92 596.135 1085.01C609.04 900.482 411.119 482.939 702.387 488.259C962.173 492.818 1073.42 713.21 1250.33 666.171C1409.03 623.333 1487.18 401.606 1527.91 222.898" stroke="url(#paint1_linear_177_458)" stroke-miterlimit="10"/>
<path d="M-89.2358 461.89C245.861 442.399 842.141 891.174 864.35 1092.25C878.835 1223.87 572.578 1299.8 498.717 1340.89C394.304 1398.85 582.856 1222.88 594.831 1075.02C609.229 896.066 424.654 496.145 705.424 501.161C961.661 505.372 1070.25 732.815 1250.1 690.34C1410.45 652.57 1494.42 433.125 1539.58 256.868" stroke="url(#paint2_linear_177_458)" stroke-miterlimit="10"/>
<path d="M-85.4814 475.9C236.722 466.462 809.587 900.858 836.857 1091.25C854.599 1215.63 566.02 1285.5 498.44 1322.21C400.635 1374.97 580.401 1206.83 593.537 1065.05C609.592 891.605 438.195 509.352 708.483 514.033C961.155 517.926 1066.97 752.19 1249.82 714.498C1411.66 681.237 1501.66 464.673 1551.22 290.82" stroke="url(#paint3_linear_177_458)" stroke-miterlimit="10"/>
<path d="M-81.7637 489.867C227.685 490.42 776.977 910.427 809.352 1090.2C830.344 1207.32 559.467 1271.13 498.136 1303.33C407.028 1351.12 577.978 1190.8 592.245 1055.09C609.891 887.186 451.743 522.582 711.526 526.934C960.649 530.48 1063.65 771.292 1249.61 738.66C1412.92 709.995 1508.96 496.178 1562.9 324.789" stroke="url(#paint4_linear_177_458)" stroke-miterlimit="10"/>
<path d="M-78.0474 503.835C218.557 514.428 744.353 919.948 781.822 1089.16C806.044 1198.95 552.913 1256.75 497.838 1284.57C413.448 1327.19 575.595 1174.74 590.951 1045.12C610.205 882.738 465.296 535.836 714.597 539.854C960.13 543.088 1060.33 790.521 1249.37 762.859C1414.19 738.752 1516.28 527.676 1574.58 358.782" stroke="url(#paint5_linear_177_458)" stroke-miterlimit="10"/>
<path d="M-74.2993 517.821C209.429 538.436 711.608 929.112 754.323 1088.14C781.75 1190.5 546.25 1242.35 497.535 1265.79C419.795 1303.17 573.22 1158.69 589.664 1035.18C610.545 878.283 478.806 549.025 717.597 552.793C959.575 555.655 1056.93 809.722 1249.1 787.066C1415.31 767.47 1523.44 559.323 1586.21 392.789" stroke="url(#paint6_linear_177_458)" stroke-miterlimit="10"/>
<path d="M-70.583 531.788C200.27 562.426 678.814 938.289 726.817 1087.09C757.435 1181.97 539.821 1227.86 497.262 1247.03C426.122 1279.08 570.916 1142.63 588.485 1025.15C611.014 873.636 492.469 562.691 720.802 565.624C959.222 568.687 1053.7 828.797 1249.01 811.171C1416.76 796.047 1530.86 590.795 1598.02 426.695" stroke="url(#paint7_linear_177_458)" stroke-miterlimit="10"/>
<path d="M-66.8633 545.756C191.145 586.434 645.887 947.346 699.289 1086.05C732.928 1173.39 533.366 1213.36 496.961 1228.25C432.422 1254.69 568.616 1126.57 587.11 1015.26C611.316 869.322 505.796 576.059 723.756 578.577C958.616 581.346 1050.28 847.901 1248.68 835.396C1417.85 824.723 1538.02 622.388 1609.58 460.721" stroke="url(#paint8_linear_177_458)" stroke-miterlimit="10"/>
<path d="M-63.123 559.717C182.009 610.418 612.807 956.235 671.783 1085C708.325 1164.76 526.911 1198.77 496.663 1209.5C438.678 1230.05 566.263 1110.52 585.816 1005.29C611.775 864.833 519.433 589.238 726.93 591.494C958.231 593.97 1047.04 866.952 1248.56 859.587C1419.17 853.333 1545.41 653.921 1621.39 494.706" stroke="url(#paint9_linear_177_458)" stroke-miterlimit="10"/>
<path d="M-59.4082 573.685C172.879 634.426 579.494 965.031 644.275 1083.96C683.556 1156.1 520.636 1184.08 496.243 1190.78C444.839 1204.86 563.965 1094.49 584.399 995.359C612.13 860.348 532.845 602.556 729.752 604.454C957.475 606.668 1043.42 886.028 1248.09 883.821C1420.12 881.889 1552.42 685.528 1632.8 528.747" stroke="url(#paint10_linear_177_458)" stroke-miterlimit="10"/>
<path d="M-55.6841 587.677C163.745 658.41 545.926 973.74 616.776 1082.93C658.6 1147.4 514.876 1173.44 496.085 1171.96C454.046 1188.42 561.936 1078.38 583.234 985.384C612.785 855.808 546.539 615.748 732.922 617.348C957.104 619.237 1040.19 904.977 1247.97 907.988C1421.47 910.469 1559.81 717.062 1644.6 562.708" stroke="url(#paint11_linear_177_458)" stroke-miterlimit="10"/>
<path d="M-51.9438 601.638C154.592 682.424 511.991 982.443 589.245 1081.89C633.419 1138.74 508.448 1159.34 495.788 1153.2C460.658 1165.01 559.936 1062.29 581.939 975.416C613.39 851.281 560.06 628.984 735.95 630.2C956.572 631.797 1036.81 923.884 1247.73 932.108C1422.67 938.928 1567.05 748.555 1656.26 596.628" stroke="url(#paint12_linear_177_458)" stroke-miterlimit="10"/>
<path d="M-48.2241 615.606C145.461 706.408 477.703 991.267 561.742 1080.85C608.005 1130.18 501.999 1145.25 495.56 1134.4C467.309 1141.53 557.988 1046.18 580.728 965.455C614.144 846.715 573.676 642.17 739.11 643.149C956.166 644.428 1033.55 942.839 1247.59 956.33C1423.98 967.442 1574.47 780.13 1668 630.658" stroke="url(#paint13_linear_177_458)" stroke-miterlimit="10"/>
<path d="M-44.5122 629.574C136.328 730.416 443.028 1000.32 534.231 1079.8C582.36 1121.74 495.567 1131.15 495.185 1115.67C473.83 1118.09 555.973 1030.15 579.337 955.435C614.803 842.017 587.12 655.323 742.055 655.998C955.569 656.953 1030.1 961.663 1247.25 980.452C1425.1 995.873 1581.58 811.632 1679.58 664.574" stroke="url(#paint14_linear_177_458)" stroke-miterlimit="10"/>
<path d="M-40.771 643.536C127.193 754.401 408.085 1009.82 506.702 1078.76C556.524 1113.55 489.116 1117.06 494.912 1096.91C480.436 1094.66 554.114 1014.1 578.07 945.566C615.76 837.735 600.673 668.579 745.123 668.997C955.082 669.58 1026.78 980.607 1247.05 1004.72C1426.37 1024.37 1588.86 843.248 1691.28 698.641" stroke="url(#paint15_linear_177_458)" stroke-miterlimit="10"/>
<path d="M-37.0557 657.504C118.064 778.409 372.736 1019.94 479.194 1077.71C530.605 1105.63 482.687 1102.96 494.607 1078.13C487.034 1071.2 552.346 998.102 576.775 935.599C616.773 833.281 614.206 681.761 748.174 681.844C954.553 682.061 1023.43 999.326 1246.78 1028.85C1427.57 1052.73 1596.1 874.742 1702.92 732.569" stroke="url(#paint16_linear_177_458)" stroke-miterlimit="10"/>
<path d="M-33.332 671.495C108.905 802.399 337.444 1030.75 451.695 1076.69C504.711 1098 476.235 1088.87 494.31 1059.37C493.64 1047.76 550.69 982.127 575.385 925.657C617.893 828.928 627.667 694.961 751.138 694.844C953.957 694.664 1020.06 1018.23 1246.48 1053.11C1428.74 1081.2 1603.31 906.375 1714.51 766.636" stroke="url(#paint17_linear_177_458)" stroke-miterlimit="10"/>
<path d="M-29.5913 685.457C99.7768 826.408 302.278 1042.22 424.189 1075.64C478.919 1090.65 474.292 1077.55 494.013 1040.62C502.227 1025.22 549.1 966.109 574.218 915.683C619.398 824.654 641.309 708.063 754.307 707.738C953.557 707.138 1016.84 1036.97 1246.33 1077.29C1430.1 1109.57 1610.66 937.892 1726.29 800.604" stroke="url(#paint18_linear_177_458)" stroke-miterlimit="10"/>
<path d="M-25.853 699.496C90.6637 850.463 267.503 1054.37 396.801 1074.64C453.511 1083.56 465.6 1062.26 493.876 1021.87C508.059 1001.6 547.816 950.45 573.067 905.755C621.2 820.611 654.979 721.259 757.491 720.679C953.185 719.602 1013.69 1055.76 1246.25 1101.49C1431.52 1137.94 1618.07 969.497 1738.08 834.619" stroke="url(#paint19_linear_177_458)" stroke-miterlimit="10"/>
<path d="M-22.1553 713.392C81.5166 874.4 233.157 1066.77 369.155 1073.56C428.059 1076.5 457.727 1047.23 493.439 1003.08C513.885 977.78 546.304 934.724 571.64 895.774C623.005 816.778 668.394 734.189 760.379 733.493C952.535 731.624 1010.34 1074.07 1245.84 1125.58C1432.69 1165.95 1625.16 1000.93 1749.6 868.501" stroke="url(#paint20_linear_177_458)" stroke-miterlimit="10"/>
<path d="M-18.415 727.353C72.3812 898.383 199.357 1079.46 341.649 1072.51C525.464 1063.65 584.593 748.563 763.464 746.461C952.054 744.274 1007.03 1093.14 1245.64 1149.82C1433.95 1194.6 1632.47 1032.56 1761.3 902.543" stroke="url(#paint21_linear_177_458)" stroke-miterlimit="10"/>
<defs>
<linearGradient id="paint0_linear_177_458" x1="686.409" y1="224.155" x2="963.917" y2="1259.83" gradientUnits="userSpaceOnUse">
<stop offset="0.255208" stop-color="#4A3AFF" stop-opacity="0"/>
<stop offset="0.557292" stop-color="#4A3AFF"/>
<stop offset="1" stop-color="#4A3AFF" stop-opacity="0"/>
</linearGradient>
<linearGradient id="paint1_linear_177_458" x1="691.332" y1="237.826" x2="960.213" y2="1241.3" gradientUnits="userSpaceOnUse">
<stop offset="0.255208" stop-color="#4A3AFF" stop-opacity="0"/>
<stop offset="0.557292" stop-color="#4A3AFF"/>
<stop offset="1" stop-color="#4A3AFF" stop-opacity="0"/>
</linearGradient>
<linearGradient id="paint2_linear_177_458" x1="696.243" y1="251.421" x2="956.496" y2="1222.7" gradientUnits="userSpaceOnUse">
<stop offset="0.255208" stop-color="#4A3AFF" stop-opacity="0"/>
<stop offset="0.557292" stop-color="#4A3AFF"/>
<stop offset="1" stop-color="#4A3AFF" stop-opacity="0"/>
</linearGradient>
<linearGradient id="paint3_linear_177_458" x1="701.185" y1="265.113" x2="952.806" y2="1204.17" gradientUnits="userSpaceOnUse">
<stop offset="0.255208" stop-color="#4A3AFF" stop-opacity="0"/>
<stop offset="0.557292" stop-color="#4A3AFF"/>
<stop offset="1" stop-color="#4A3AFF" stop-opacity="0"/>
</linearGradient>
<linearGradient id="paint4_linear_177_458" x1="706.115" y1="278.756" x2="949.089" y2="1185.55" gradientUnits="userSpaceOnUse">
<stop offset="0.255208" stop-color="#4A3AFF" stop-opacity="0"/>
<stop offset="0.557292" stop-color="#4A3AFF"/>
<stop offset="1" stop-color="#4A3AFF" stop-opacity="0"/>
</linearGradient>
<linearGradient id="paint5_linear_177_458" x1="711.043" y1="292.399" x2="945.4" y2="1167.03" gradientUnits="userSpaceOnUse">
<stop offset="0.255208" stop-color="#4A3AFF" stop-opacity="0"/>
<stop offset="0.557292" stop-color="#4A3AFF"/>
<stop offset="1" stop-color="#4A3AFF" stop-opacity="0"/>
</linearGradient>
<linearGradient id="paint6_linear_177_458" x1="715.967" y1="306.07" x2="941.703" y2="1148.53" gradientUnits="userSpaceOnUse">
<stop offset="0.255208" stop-color="#4A3AFF" stop-opacity="0"/>
<stop offset="0.557292" stop-color="#4A3AFF"/>
<stop offset="1" stop-color="#4A3AFF" stop-opacity="0"/>
</linearGradient>
<linearGradient id="paint7_linear_177_458" x1="720.968" y1="319.693" x2="938.108" y2="1130.07" gradientUnits="userSpaceOnUse">
<stop offset="0.255208" stop-color="#4A3AFF" stop-opacity="0"/>
<stop offset="0.557292" stop-color="#4A3AFF"/>
<stop offset="1" stop-color="#4A3AFF" stop-opacity="0"/>
</linearGradient>
<linearGradient id="paint8_linear_177_458" x1="725.839" y1="333.352" x2="934.39" y2="1111.68" gradientUnits="userSpaceOnUse">
<stop offset="0.255208" stop-color="#4A3AFF" stop-opacity="0"/>
<stop offset="0.557292" stop-color="#4A3AFF"/>
<stop offset="1" stop-color="#4A3AFF" stop-opacity="0"/>
</linearGradient>
<linearGradient id="paint9_linear_177_458" x1="730.84" y1="346.975" x2="930.836" y2="1093.37" gradientUnits="userSpaceOnUse">
<stop offset="0.255208" stop-color="#4A3AFF" stop-opacity="0"/>
<stop offset="0.557292" stop-color="#4A3AFF"/>
<stop offset="1" stop-color="#4A3AFF" stop-opacity="0"/>
</linearGradient>
<linearGradient id="paint10_linear_177_458" x1="735.633" y1="360.654" x2="927.399" y2="1076.34" gradientUnits="userSpaceOnUse">
<stop offset="0.255208" stop-color="#4A3AFF" stop-opacity="0"/>
<stop offset="0.557292" stop-color="#4A3AFF"/>
<stop offset="1" stop-color="#4A3AFF" stop-opacity="0"/>
</linearGradient>
<linearGradient id="paint11_linear_177_458" x1="740.63" y1="374.305" x2="924.916" y2="1062.07" gradientUnits="userSpaceOnUse">
<stop offset="0.255208" stop-color="#4A3AFF" stop-opacity="0"/>
<stop offset="0.557292" stop-color="#4A3AFF"/>
<stop offset="1" stop-color="#4A3AFF" stop-opacity="0"/>
</linearGradient>
<linearGradient id="paint12_linear_177_458" x1="745.57" y1="387.944" x2="922.068" y2="1046.64" gradientUnits="userSpaceOnUse">
<stop offset="0.255208" stop-color="#4A3AFF" stop-opacity="0"/>
<stop offset="0.557292" stop-color="#4A3AFF"/>
<stop offset="1" stop-color="#4A3AFF" stop-opacity="0"/>
</linearGradient>
<linearGradient id="paint13_linear_177_458" x1="750.526" y1="401.581" x2="925.808" y2="1055.74" gradientUnits="userSpaceOnUse">
<stop offset="0.255208" stop-color="#4A3AFF" stop-opacity="0"/>
<stop offset="0.557292" stop-color="#4A3AFF"/>
<stop offset="1" stop-color="#4A3AFF" stop-opacity="0"/>
</linearGradient>
<linearGradient id="paint14_linear_177_458" x1="755.413" y1="415.234" x2="933.533" y2="1079.99" gradientUnits="userSpaceOnUse">
<stop offset="0.255208" stop-color="#4A3AFF" stop-opacity="0"/>
<stop offset="0.557292" stop-color="#4A3AFF"/>
<stop offset="1" stop-color="#4A3AFF" stop-opacity="0"/>
</linearGradient>
<linearGradient id="paint15_linear_177_458" x1="760.354" y1="428.875" x2="941.399" y2="1104.54" gradientUnits="userSpaceOnUse">
<stop offset="0.255208" stop-color="#4A3AFF" stop-opacity="0"/>
<stop offset="0.557292" stop-color="#4A3AFF"/>
<stop offset="1" stop-color="#4A3AFF" stop-opacity="0"/>
</linearGradient>
<linearGradient id="paint16_linear_177_458" x1="765.269" y1="442.521" x2="949.249" y2="1129.14" gradientUnits="userSpaceOnUse">
<stop offset="0.255208" stop-color="#4A3AFF" stop-opacity="0"/>
<stop offset="0.557292" stop-color="#4A3AFF"/>
<stop offset="1" stop-color="#4A3AFF" stop-opacity="0"/>
</linearGradient>
<linearGradient id="paint17_linear_177_458" x1="770.156" y1="456.201" x2="957.145" y2="1154.05" gradientUnits="userSpaceOnUse">
<stop offset="0.255208" stop-color="#4A3AFF" stop-opacity="0"/>
<stop offset="0.557292" stop-color="#4A3AFF"/>
<stop offset="1" stop-color="#4A3AFF" stop-opacity="0"/>
</linearGradient>
<linearGradient id="paint18_linear_177_458" x1="775.145" y1="469.828" x2="965.186" y2="1179.07" gradientUnits="userSpaceOnUse">
<stop offset="0.255208" stop-color="#4A3AFF" stop-opacity="0"/>
<stop offset="0.557292" stop-color="#4A3AFF"/>
<stop offset="1" stop-color="#4A3AFF" stop-opacity="0"/>
</linearGradient>
<linearGradient id="paint19_linear_177_458" x1="780.144" y1="483.53" x2="973.28" y2="1204.32" gradientUnits="userSpaceOnUse">
<stop offset="0.255208" stop-color="#4A3AFF" stop-opacity="0"/>
<stop offset="0.557292" stop-color="#4A3AFF"/>
<stop offset="1" stop-color="#4A3AFF" stop-opacity="0"/>
</linearGradient>
<linearGradient id="paint20_linear_177_458" x1="784.993" y1="497.118" x2="981.238" y2="1229.51" gradientUnits="userSpaceOnUse">
<stop offset="0.255208" stop-color="#4A3AFF" stop-opacity="0"/>
<stop offset="0.557292" stop-color="#4A3AFF"/>
<stop offset="1" stop-color="#4A3AFF" stop-opacity="0"/>
</linearGradient>
<linearGradient id="paint21_linear_177_458" x1="789.933" y1="510.757" x2="989.424" y2="1255.27" gradientUnits="userSpaceOnUse">
<stop offset="0.255208" stop-color="#4A3AFF" stop-opacity="0"/>
<stop offset="0.557292" stop-color="#4A3AFF"/>
<stop offset="1" stop-color="#4A3AFF" stop-opacity="0"/>
</linearGradient>
</defs>
</svg>
