<svg width="56" height="38" viewBox="0 0 56 38" fill="none" xmlns="http://www.w3.org/2000/svg">
<rect width="56" height="38" rx="10" fill="url(#paint0_linear_177_1581)"/>
<path d="M27 12.5C27.2761 12.5 27.5 12.2761 27.5 12C27.5 11.7239 27.2761 11.5 27 11.5V12.5ZM35.5 20C35.5 19.7239 35.2761 19.5 35 19.5C34.7239 19.5 34.5 19.7239 34.5 20H35.5ZM28.6464 17.6464C28.4512 17.8417 28.4512 18.1583 28.6464 18.3536C28.8417 18.5488 29.1583 18.5488 29.3536 18.3536L28.6464 17.6464ZM38 9H38.5C38.5 8.72386 38.2761 8.5 38 8.5V9ZM37.5 16C37.5 16.2761 37.7239 16.5 38 16.5C38.2761 16.5 38.5 16.2761 38.5 16H37.5ZM31 8.5C30.7239 8.5 30.5 8.72386 30.5 9C30.5 9.27614 30.7239 9.5 31 9.5V8.5ZM33 28.5H20V29.5H33V28.5ZM18.5 27V14H17.5V27H18.5ZM20 12.5H27V11.5H20V12.5ZM34.5 20V27H35.5V20H34.5ZM29.3536 18.3536L38.3536 9.35355L37.6464 8.64645L28.6464 17.6464L29.3536 18.3536ZM37.5 9V16H38.5V9H37.5ZM38 8.5H31V9.5H38V8.5ZM20 28.5C19.1716 28.5 18.5 27.8284 18.5 27H17.5C17.5 28.3807 18.6193 29.5 20 29.5V28.5ZM33 29.5C34.3807 29.5 35.5 28.3807 35.5 27H34.5C34.5 27.8284 33.8284 28.5 33 28.5V29.5ZM18.5 14C18.5 13.1716 19.1716 12.5 20 12.5V11.5C18.6193 11.5 17.5 12.6193 17.5 14H18.5Z" fill="white"/>
<defs>
<linearGradient id="paint0_linear_177_1581" x1="28" y1="0" x2="28" y2="38" gradientUnits="userSpaceOnUse">
<stop stop-color="#7770E0"/>
<stop offset="1" stop-color="#554FD8"/>
</linearGradient>
</defs>
</svg>
