<svg width="443" height="471" viewBox="0 0 443 471" fill="none" xmlns="http://www.w3.org/2000/svg">
<g clip-path="url(#clip0_2693_598)">
<path d="M380.717 107.53C380.717 127.159 379.986 146.82 381.194 166.353C381.575 172.366 387.075 178.156 390.668 183.787C391.685 185.378 394.229 185.95 396.041 187.064C410.856 196.163 431.331 202.048 438.834 215.314C446.401 228.644 441.314 249.323 441.346 266.757C441.441 318.168 441.155 369.61 441.536 421.021C441.6 430.056 438.993 435.56 430.854 439.886C414.481 448.572 398.362 457.766 382.72 467.691C375.312 472.4 369.876 471.859 362.627 467.532C329.848 448.063 296.498 429.547 263.847 409.854C254.341 404.128 247.346 404.573 238.222 410.236C222.548 419.908 206.079 434.924 189.833 435.083C174.255 435.242 158.422 419.526 142.844 410.522C98.8107 385.135 54.9367 359.43 10.713 334.329C2.79661 329.843 -0.414458 324.912 0.0306402 315.623C0.920837 297.107 -0.478043 278.464 0.857251 260.012C1.27056 254.032 5.78513 246.078 10.8402 243.024C43.8728 222.95 77.446 203.798 111.083 184.742C118.777 180.383 122.337 175.484 122.178 166.099C121.829 146.629 116.71 123.373 125.421 108.707C134.196 93.9456 157.278 87.6147 174.223 77.7843C216.825 53.0652 259.587 28.6642 301.966 3.56326C309.469 -0.890645 315.287 -1.43148 322.027 3.78595C324.507 5.69477 327.655 6.74461 330.357 8.39892C346.921 18.6429 369.558 25.3874 378.237 40.2761C386.599 54.5922 380.494 77.3707 380.717 96.4271C380.749 100.117 380.717 103.808 380.717 107.53ZM25.0515 252.727C30.1066 256.068 32.9679 258.135 35.9882 259.885C75.7927 282.95 117.06 303.883 154.988 329.748C181.217 347.627 201.66 347.404 226.586 329.143C247.474 313.841 271.318 302.547 294.686 288.995C254.754 260.49 254.754 260.49 215.903 282.918C210.403 286.1 205.221 290.299 199.308 292.112C194.094 293.735 186.972 294.721 182.521 292.462C165.13 283.555 148.026 273.883 131.78 263.003C126.852 259.694 122.878 251.9 122.306 245.792C120.97 230.744 121.86 215.505 121.86 197.022C88.3827 216.332 57.6391 234.021 25.0515 252.727ZM259.332 196.926C259.332 213.692 258.601 226.958 259.714 240.065C260.127 244.71 264.006 250.437 268.043 253.204C284.894 264.753 309.183 271.656 317.735 287.34C326.447 303.343 319.897 327.648 320.025 348.327C320.025 348.868 319.961 349.409 320.025 349.918C321.678 359.621 317.577 365.538 308.865 370.024C295.353 376.959 282.414 385.04 267.376 393.693C300.567 412.845 331.438 430.66 364.534 449.749C364.534 385.772 364.598 324.912 364.312 264.021C364.312 260.967 362.055 256.608 359.511 255.113C327.242 236.057 294.749 217.414 259.332 196.926ZM363.708 57.8372C357.222 61.2413 352.167 63.6591 347.303 66.4587C310.582 87.6147 275.133 111.443 236.887 129.227C205.221 143.925 193.807 163.745 198.099 197.722C201.152 221.868 198.703 246.746 198.703 273.915C211.675 266.598 221.499 260.458 231.831 255.431C240.511 251.2 244.072 245.569 243.436 235.611C242.514 220.818 243.658 205.929 243.023 191.104C242.641 182.165 245.121 176.534 253.514 172.143C269.919 163.586 286.006 154.232 301.617 144.275C309.533 139.216 315.669 139.98 323.14 144.72C335.889 152.769 349.21 159.991 363.708 168.358C363.708 130.34 363.708 95.1545 363.708 57.8372ZM356.713 42.4394C346.063 36.2676 337.352 32.2591 329.849 26.6599C317.735 17.6249 307.466 17.8157 294.368 26.3418C269.601 42.4076 243.404 56.3102 217.811 71.1035C194.666 84.497 171.521 97.9223 146.15 112.62C160.902 121.21 173.365 128.845 186.209 135.685C188.752 137.021 193.489 136.544 196.128 135.017C248.809 104.889 301.299 74.4757 356.713 42.4394ZM182.616 414.563C182.616 400.915 181.853 390.798 182.807 380.84C183.983 368.306 179.691 360.957 168.31 354.594C121.606 328.571 75.5702 301.338 29.2482 274.615C25.5284 272.452 21.4907 270.861 16.2449 268.348C16.2449 281.296 17.1033 291.953 16.0224 302.42C14.8143 314.032 18.9155 320.776 29.0892 326.503C72.8996 351.19 116.297 376.673 159.853 401.806C166.561 405.687 173.396 409.409 182.616 414.563ZM425.386 232.239C412.987 239.334 404.244 245.315 394.706 249.578C383.419 254.604 380.24 262.08 380.399 274.297C381.13 327.139 380.685 380.013 380.749 432.856C380.749 437.723 381.289 442.591 381.544 447.14C414.576 437.628 432.603 419.939 425.767 384.117C423.319 371.36 425.354 357.776 425.354 344.541C425.386 308.146 425.386 271.784 425.386 232.239ZM417.31 218.019C382.497 197.881 350.546 179.27 318.403 161.009C315.637 159.418 310.868 158.368 308.42 159.641C295.194 166.671 282.382 174.498 267.63 183.119C302.157 203.066 334.077 221.741 366.315 239.843C369.621 241.688 375.598 241.688 379.032 239.938C391.24 233.734 402.813 226.449 417.31 218.019ZM182.553 274.392C182.553 233.766 182.68 195.972 182.33 158.209C182.298 155.25 179.723 151.21 177.116 149.588C165.194 142.207 152.827 135.494 137.979 127.064C137.979 167.689 137.884 205.42 138.17 243.183C138.202 245.824 140.141 249.482 142.335 250.85C154.766 258.549 167.515 265.675 182.553 274.392ZM199.912 414.054C233.739 394.52 265.818 376.132 297.611 357.33C300.567 355.58 303.429 350.967 303.588 347.532C304.255 333.502 303.874 319.408 303.874 302.452C279.044 316.768 256.725 329.621 234.407 342.473C197.273 363.852 197.241 363.852 198.799 406.896C198.862 408.455 199.276 410.013 199.912 414.054Z" fill="#FAA423"/>
<path d="M380.717 107.53C380.717 127.159 379.986 146.82 381.194 166.353C381.575 172.366 387.075 178.156 390.668 183.787C391.685 185.378 394.229 185.95 396.041 187.064C410.856 196.163 431.331 202.048 438.834 215.314C446.401 228.644 441.314 249.323 441.346 266.757C441.441 318.168 441.155 369.61 441.536 421.021C441.6 430.056 438.993 435.56 430.854 439.886C414.481 448.572 398.362 457.766 382.72 467.691C375.312 472.4 369.876 471.859 362.627 467.532C329.848 448.063 296.498 429.547 263.847 409.854C254.341 404.128 247.346 404.573 238.222 410.236C222.548 419.908 206.079 434.924 189.833 435.083C174.255 435.242 158.422 419.526 142.844 410.522C98.8107 385.135 54.9367 359.43 10.713 334.329C2.79661 329.843 -0.414458 324.912 0.0306402 315.623C0.920837 297.107 -0.478043 278.464 0.857251 260.012C1.27056 254.032 5.78513 246.078 10.8402 243.024C43.8728 222.95 77.446 203.798 111.083 184.742C118.777 180.383 122.337 175.484 122.178 166.099C121.829 146.629 116.71 123.373 125.421 108.707C134.196 93.9456 157.278 87.6147 174.223 77.7843C216.825 53.0652 259.587 28.6642 301.966 3.56326C309.469 -0.890645 315.287 -1.43148 322.027 3.78595C324.507 5.69477 327.655 6.74461 330.357 8.39892C346.921 18.6429 369.558 25.3874 378.237 40.2761C386.599 54.5922 380.494 77.3707 380.717 96.4271C380.749 100.117 380.717 103.808 380.717 107.53ZM25.0515 252.727C30.1066 256.068 32.9679 258.135 35.9882 259.885C75.7927 282.95 117.06 303.883 154.988 329.748C181.217 347.627 201.66 347.404 226.586 329.143C247.474 313.841 271.318 302.547 294.686 288.995C254.754 260.49 254.754 260.49 215.903 282.918C210.403 286.1 205.221 290.299 199.308 292.112C194.094 293.735 186.972 294.721 182.521 292.462C165.13 283.555 148.026 273.883 131.78 263.003C126.852 259.694 122.878 251.9 122.306 245.792C120.97 230.744 121.86 215.505 121.86 197.022C88.3827 216.332 57.6391 234.021 25.0515 252.727ZM259.332 196.926C259.332 213.692 258.601 226.958 259.714 240.065C260.127 244.71 264.006 250.437 268.043 253.204C284.894 264.753 309.183 271.656 317.735 287.34C326.447 303.343 319.897 327.648 320.025 348.327C320.025 348.868 319.961 349.409 320.025 349.918C321.678 359.621 317.577 365.538 308.865 370.024C295.353 376.959 282.414 385.04 267.376 393.693C300.567 412.845 331.438 430.66 364.534 449.749C364.534 385.772 364.598 324.912 364.312 264.021C364.312 260.967 362.055 256.608 359.511 255.113C327.242 236.057 294.749 217.414 259.332 196.926ZM363.708 57.8372C357.222 61.2413 352.167 63.6591 347.303 66.4587C310.582 87.6147 275.133 111.443 236.887 129.227C205.221 143.925 193.807 163.745 198.099 197.722C201.152 221.868 198.703 246.746 198.703 273.915C211.675 266.598 221.499 260.458 231.831 255.431C240.511 251.2 244.072 245.569 243.436 235.611C242.514 220.818 243.658 205.929 243.023 191.104C242.641 182.165 245.121 176.534 253.514 172.143C269.919 163.586 286.006 154.232 301.617 144.275C309.533 139.216 315.669 139.98 323.14 144.72C335.889 152.769 349.21 159.991 363.708 168.358C363.708 130.34 363.708 95.1545 363.708 57.8372ZM356.713 42.4394C346.063 36.2676 337.352 32.2591 329.849 26.6599C317.735 17.6249 307.466 17.8157 294.368 26.3418C269.601 42.4076 243.404 56.3102 217.811 71.1035C194.666 84.497 171.521 97.9223 146.15 112.62C160.902 121.21 173.365 128.845 186.209 135.685C188.752 137.021 193.489 136.544 196.128 135.017C248.809 104.889 301.299 74.4757 356.713 42.4394ZM182.616 414.563C182.616 400.915 181.853 390.798 182.807 380.84C183.983 368.306 179.691 360.957 168.31 354.594C121.606 328.571 75.5702 301.338 29.2482 274.615C25.5284 272.452 21.4907 270.861 16.2449 268.348C16.2449 281.296 17.1033 291.953 16.0224 302.42C14.8143 314.032 18.9155 320.776 29.0892 326.503C72.8996 351.19 116.297 376.673 159.853 401.806C166.561 405.687 173.396 409.409 182.616 414.563ZM425.386 232.239C412.987 239.334 404.244 245.315 394.706 249.578C383.419 254.604 380.24 262.08 380.399 274.297C381.13 327.139 380.685 380.013 380.749 432.856C380.749 437.723 381.289 442.591 381.544 447.14C414.576 437.628 432.603 419.939 425.767 384.117C423.319 371.36 425.354 357.776 425.354 344.541C425.386 308.146 425.386 271.784 425.386 232.239ZM417.31 218.019C382.497 197.881 350.546 179.27 318.403 161.009C315.637 159.418 310.868 158.368 308.42 159.641C295.194 166.671 282.382 174.498 267.63 183.119C302.157 203.066 334.077 221.741 366.315 239.843C369.621 241.688 375.598 241.688 379.032 239.938C391.24 233.734 402.813 226.449 417.31 218.019ZM182.553 274.392C182.553 233.766 182.68 195.972 182.33 158.209C182.298 155.25 179.723 151.21 177.116 149.588C165.194 142.207 152.827 135.494 137.979 127.064C137.979 167.689 137.884 205.42 138.17 243.183C138.202 245.824 140.141 249.482 142.335 250.85C154.766 258.549 167.515 265.675 182.553 274.392ZM199.912 414.054C233.739 394.52 265.818 376.132 297.611 357.33C300.567 355.58 303.429 350.967 303.588 347.532C304.255 333.502 303.874 319.408 303.874 302.452C279.044 316.768 256.725 329.621 234.407 342.473C197.273 363.852 197.241 363.852 198.799 406.896C198.862 408.455 199.276 410.013 199.912 414.054Z" fill="#FF7800"/>
<path d="M25.0527 252.727C57.6403 234.02 88.3839 216.332 121.893 197.053C121.893 215.536 121.003 230.775 122.339 245.823C122.879 251.931 126.885 259.725 131.813 263.034C148.059 273.883 165.163 283.554 182.554 292.493C187.005 294.784 194.095 293.766 199.341 292.144C205.254 290.33 210.436 286.099 215.936 282.949C254.787 260.521 254.787 260.521 294.719 289.026C271.351 302.578 247.507 313.84 226.619 329.175C201.693 347.436 181.282 347.658 155.021 329.779C117.093 303.946 75.8575 282.981 36.0212 259.916C32.9691 258.135 30.1078 256.067 25.0527 252.727Z" fill="black"/>
<path d="M259.333 196.926C294.751 217.414 327.243 236.056 359.512 255.113C362.056 256.608 364.313 260.998 364.313 264.021C364.599 324.912 364.536 385.803 364.536 449.748C331.471 430.66 300.569 412.845 267.377 393.693C282.415 385.008 295.355 376.959 308.867 370.023C317.578 365.538 321.679 359.62 320.026 349.917C319.93 349.408 320.026 348.867 320.026 348.327C319.899 327.648 326.448 303.342 317.737 287.34C309.185 271.656 284.895 264.752 268.045 253.204C264.039 250.468 260.128 244.742 259.715 240.065C258.602 226.958 259.333 213.692 259.333 196.926Z" fill="black"/>
<path d="M363.709 57.8379C363.709 95.1552 363.709 130.373 363.709 168.358C349.212 159.991 335.891 152.77 323.142 144.721C315.639 139.981 309.534 139.217 301.618 144.275C286.008 154.233 269.952 163.586 253.516 172.144C245.122 176.503 242.642 182.165 243.024 191.105C243.628 205.93 242.515 220.819 243.437 235.612C244.073 245.57 240.481 251.201 231.833 255.432C221.5 260.459 211.676 266.599 198.705 273.916C198.705 246.715 201.185 221.869 198.101 197.722C193.809 163.745 205.222 143.957 236.888 129.228C275.166 111.444 310.615 87.6154 347.304 66.4594C352.168 63.6598 357.224 61.2101 363.709 57.8379Z" fill="black"/>
<path d="M356.715 42.4399C301.269 74.4761 248.811 104.89 196.162 135.017C193.523 136.544 188.754 137.022 186.242 135.685C173.366 128.814 160.904 121.21 146.184 112.621C171.554 97.9227 194.699 84.4974 217.844 71.1039C243.438 56.3106 269.635 42.4081 294.401 26.3422C307.5 17.848 317.769 17.6253 329.882 26.6603C337.385 32.2595 346.065 36.268 356.715 42.4399Z" fill="black"/>
<path d="M182.617 414.563C173.397 409.409 166.562 405.687 159.854 401.806C116.298 376.641 72.9324 351.19 29.0902 326.503C18.9166 320.776 14.8153 314.032 16.0234 302.42C17.1044 291.953 16.246 281.296 16.246 268.348C21.46 270.829 25.5295 272.452 29.2492 274.615C75.5712 301.338 121.607 328.571 168.279 354.626C179.692 360.989 183.984 368.338 182.776 380.872C181.854 390.798 182.617 400.915 182.617 414.563Z" fill="black"/>
<path d="M425.386 232.238C425.386 271.783 425.386 308.145 425.386 344.508C425.386 357.711 423.352 371.327 425.8 384.085C432.635 419.907 414.609 437.627 381.576 447.107C381.322 442.59 380.781 437.69 380.781 432.823C380.718 379.981 381.163 327.106 380.431 274.264C380.272 262.048 383.452 254.571 394.738 249.545C404.244 245.345 412.987 239.365 425.386 232.238Z" fill="black"/>
<path d="M417.311 218.018C402.813 226.449 391.209 233.766 379.064 239.906C375.63 241.656 369.653 241.656 366.347 239.81C334.109 221.709 302.189 203.066 267.662 183.087C282.414 174.497 295.195 166.639 308.452 159.608C310.9 158.304 315.637 159.386 318.435 160.976C350.546 179.269 382.497 197.848 417.311 218.018Z" fill="black"/>
<path d="M182.555 274.393C167.485 265.676 154.736 258.549 142.337 250.882C140.144 249.514 138.172 245.824 138.172 243.215C137.918 205.484 137.982 167.722 137.982 127.096C152.829 135.526 165.164 142.239 177.119 149.62C179.726 151.21 182.301 155.283 182.333 158.241C182.682 196.004 182.555 233.767 182.555 274.393Z" fill="black"/>
<path d="M199.913 414.053C199.277 410.013 198.864 408.454 198.801 406.895C197.243 363.851 197.275 363.851 234.408 342.473C256.727 329.62 279.014 316.767 303.876 302.451C303.876 319.376 304.257 333.469 303.589 347.531C303.43 350.935 300.601 355.548 297.612 357.33C265.82 376.131 233.741 394.52 199.913 414.053Z" fill="black"/>
</g>
<defs>
<clipPath id="clip0_2693_598">
<rect width="443" height="471" fill="white"/>
</clipPath>
</defs>
</svg>
