<svg width="100" height="100" viewBox="0 0 100 100" fill="none" xmlns="http://www.w3.org/2000/svg">
<circle cx="50" cy="50" r="50" fill="#2B6AFF"/>
<path d="M61.2409 45.9642C60.6904 46.8175 60.1399 47.6846 59.6031 48.5379C57.5524 51.7721 55.5844 55.0477 53.5887 58.3095C52.9556 59.3417 52.1987 60.2776 51.2078 61.007C48.1799 63.2366 45.0558 60.9795 44.6979 58.337C44.4502 56.6304 44.2988 54.9101 44.2713 53.1897C44.2575 51.1941 44.2713 49.1985 44.2713 47.2166C44.2713 46.9276 44.2438 46.6386 44.23 46.3496C44.0924 46.3496 44.0786 46.4597 44.0373 46.5147C40.2663 52.7493 36.3026 58.8738 32.449 65.0533C32.215 65.4249 31.9948 65.8102 31.7471 66.1818C31.637 66.347 31.637 66.4571 31.7884 66.6222C35.6833 70.6548 40.3076 73.3798 45.8953 74.2331C52.6804 75.2791 58.8461 73.7514 64.365 69.6501C65.0394 69.1546 65.645 68.5766 66.3056 68.0536C67.1176 67.4205 68.0122 67.0351 69.0857 67.2829C69.2371 67.3104 69.361 67.3792 69.4711 67.4755C69.7188 67.7233 69.9665 67.9435 70.2418 68.1637C71.0675 68.7692 71.1088 69.5812 70.8886 70.4758C70.6134 71.5356 69.8839 72.265 69.0719 72.9256C65.3284 76.036 61.117 78.2518 56.3275 79.2565C47.1615 81.1971 38.8075 79.3529 31.4443 73.5587C25.8291 69.1408 22.2645 63.3604 20.6956 56.3689C19.8835 52.7493 19.801 49.0884 20.3515 45.4137C22.0305 33.9905 30.1781 25.3337 39.3029 21.8655C42.2482 20.7369 45.3448 20.1176 48.4965 20.0213C51.9372 19.9112 55.3091 20.2139 58.6122 21.2737C63.0163 22.6637 67.035 25.0585 70.3519 28.2652C74.9349 32.6968 77.8251 38.0506 79.0362 44.3127C79.628 47.368 79.7657 50.4509 79.2702 53.52C78.6784 57.2222 75.6781 60.8969 71.6181 61.6676C67.5993 62.4383 63.8558 60.3601 62.2318 56.4377C61.5299 54.7449 61.3372 52.9695 61.3372 51.1666C61.3372 49.5013 61.3372 47.8497 61.3372 46.1844C61.3372 46.1294 61.3372 46.0743 61.3235 46.0193L61.2409 45.9642Z" fill="#FEFEFE"/>
<path d="M49.7065 53.9873V51.4962C49.7065 48.0693 49.7203 44.6286 49.679 41.2016C49.6652 39.8116 49.3487 38.4904 48.3302 37.4444C47.4081 36.5223 46.0181 36.2608 44.8207 36.77C43.9949 37.1278 43.293 37.7196 42.7838 38.4766C41.5727 40.1969 40.5542 42.0412 39.4119 43.8028C35.7235 49.4318 32.2828 55.2122 28.6494 60.8687C28.3603 61.3229 28.1126 61.3367 27.8649 60.8274C27.5621 60.2219 27.3006 59.6026 27.0529 58.9695C25.9931 56.2995 25.4426 53.4643 25.4013 50.5879C25.3188 44.5873 26.9978 39.151 30.7826 34.4716C34.4986 29.8748 39.2743 26.8883 45.1097 25.8148C53.5463 24.2733 60.8682 26.6268 66.9651 32.5861C70.7637 36.2883 72.9657 40.8851 73.8465 46.1287C74.1768 48.0555 74.2457 50.0236 74.053 51.9642C73.9016 53.3955 73.3235 54.6479 72.1812 55.57C71.2316 56.327 70.1581 56.7536 68.9607 56.2719C67.6945 55.7765 67.0477 54.7443 66.8275 53.423C66.5109 51.4962 66.5522 49.5557 66.5935 47.6151C66.621 45.9636 66.7311 44.2845 66.3733 42.6467C65.9467 40.7475 64.8456 39.3987 62.8775 38.9032C61.9279 38.6693 61.0471 38.9858 60.2213 39.4262C58.9689 40.1006 58.0193 41.1191 57.221 42.2614C55.7897 44.2845 54.551 46.4453 53.2298 48.551C52.1288 50.3126 51.0277 52.0743 49.9267 53.8359C49.8854 53.891 49.8441 53.9598 49.8028 54.0148L49.7065 53.9873Z" fill="#2B6AFF"/>
</svg>
