<svg width="30" height="32" viewBox="0 0 30 32" fill="none" xmlns="http://www.w3.org/2000/svg">
<path fill-rule="evenodd" clip-rule="evenodd" d="M26.0112 3.39824C25.3029 2.72101 24.3652 2.35599 23.3988 2.38128L23.3841 2.38167H10.9212C9.43125 2.38367 7.96727 2.78311 6.67205 3.54103C5.37664 4.29906 4.29427 5.38978 3.53056 6.70677C2.76685 8.02376 2.34789 9.52202 2.31456 11.0554C2.29654 11.884 2.39147 12.7075 2.59389 13.5026C3.3646 12.5654 4.28268 11.7602 5.31474 11.1233C7.00799 10.0784 8.94474 9.52533 10.919 9.52295L10.9204 9.52295H23.391L23.4035 9.52323C24.37 9.54476 25.3064 9.1771 26.0134 8.49854C26.7068 7.83305 27.1258 6.92008 27.1856 5.94765C27.1258 4.97518 26.7059 4.06242 26.0112 3.39824ZM23.3555 0.00161679C24.9204 -0.0351895 26.4379 0.557653 27.585 1.65449C28.736 2.75494 29.4227 4.27531 29.4984 5.89031L29.5011 5.94765L29.4984 6.00498C29.4228 7.61838 28.7382 9.13764 27.5905 10.2392C26.4459 11.3377 24.9309 11.9343 23.3666 11.903L10.9217 11.903C10.9215 11.903 10.9213 11.903 10.9211 11.903C9.36501 11.905 7.83848 12.341 6.50384 13.1646C5.16904 13.9883 4.0761 15.169 3.34124 16.5811L2.32401 18.5357L1.30372 16.5828C0.408702 14.8696 -0.039541 12.9468 0.00273639 11.0021C0.0450137 9.05745 0.576366 7.15726 1.54495 5.48697C2.51353 3.81669 3.88625 2.43337 5.52917 1.47199C7.17209 0.510608 9.02909 0.00400789 10.919 0.00161772L10.9204 0.00161596L23.3555 0.00161679Z" fill="#222124"/>
<path fill-rule="evenodd" clip-rule="evenodd" d="M2.32121 13.5078L3.34196 15.4542C4.08047 16.8624 5.1749 18.039 6.50958 18.8598C7.8441 19.6805 9.36923 20.1148 10.9238 20.117H23.3589C24.921 20.0827 26.4351 20.6748 27.5812 21.7684C28.7308 22.8654 29.4194 24.3806 29.5007 25.992V26.0537L29.4996 26.1342C29.3945 27.7298 28.7029 29.2244 27.5654 30.314C26.4286 31.4029 24.9317 32.0056 23.3788 31.9997H10.9229C9.03612 31.9995 7.18152 31.4958 5.54029 30.5379C3.89906 29.58 2.52713 28.2005 1.55836 26.5341C0.589591 24.8677 0.0570758 22.9713 0.0127752 21.0299C-0.0315254 19.0885 0.413903 17.1684 1.30559 15.457L2.32121 13.5078ZM27.1872 26.0444C27.1209 25.0784 26.7002 24.1734 26.009 23.5138C25.3009 22.838 24.3646 22.4732 23.3993 22.4967L23.3856 22.497L10.9214 22.497C8.94999 22.4944 7.0159 21.9437 5.32355 20.903C4.29157 20.2683 3.37286 19.4659 2.60068 18.5314C2.39952 19.3252 2.30567 20.1471 2.32454 20.974C2.35945 22.5041 2.77914 23.9987 3.54266 25.3121C4.30618 26.6254 5.38744 27.7126 6.68094 28.4676C7.9744 29.2225 9.43591 29.6195 10.9229 29.6197H23.3809L23.3857 29.6197C24.3517 29.6238 25.2829 29.249 25.9901 28.5717C26.6803 27.9105 27.1064 27.0095 27.1872 26.0444Z" fill="#222124"/>
<path fill-rule="evenodd" clip-rule="evenodd" d="M10.9141 9.53223L23.3639 9.53223C24.9878 9.53222 26.5454 10.1954 27.6948 11.3762C28.8441 12.5571 29.4913 14.159 29.4942 15.8305L28.338 15.8326H29.4942V16.1683C29.4942 17.8443 28.8474 19.4515 27.696 20.6366C26.5447 21.8216 24.9831 22.4874 23.3548 22.4874H10.9152C10.9151 22.4874 10.9153 22.4874 10.9152 22.4874C9.48064 22.4878 8.05978 22.1968 6.73466 21.6312C5.40959 21.0656 4.20595 20.2365 3.1927 19.1914C2.44462 18.4213 1.80768 17.5448 1.30132 16.5887L1.00195 16.0234L1.29789 15.4561C2.23143 13.6668 3.61846 12.1712 5.31161 11.1281C7.00477 10.0851 8.94082 9.5336 10.9141 9.53223ZM27.1818 15.8348C27.18 14.7938 26.7769 13.7961 26.0611 13.0607C25.3453 12.3253 24.3753 11.9123 23.3639 11.9123H10.9152C9.35985 11.9134 7.8338 12.3482 6.49918 13.1704C5.3475 13.8798 4.37549 14.8549 3.65778 16.0152C3.99487 16.5541 4.38719 17.055 4.82837 17.509L4.82928 17.51C5.62773 18.3336 6.57624 18.987 7.62046 19.4327C8.66468 19.8784 9.78408 20.1077 10.9145 20.1073H23.3548C24.3698 20.1073 25.3432 19.6923 26.0609 18.9536C26.7786 18.2149 27.1818 17.213 27.1818 16.1683V15.8348Z" fill="#222124"/>
</svg>
