<svg width="110" height="20" fill="none" viewBox="0 0 110 20" xmlns="http://www.w3.org/2000/svg"><path stroke="#0C38FD" stroke-width="3.5" d="M7.722 3.132V11.4m0 0-4.705 5.512M7.722 11.4l4.37 5.512M7.721 11.4l7.058-3.1m-7.058 3.1L1 8.3"></path><path fill="currentColor" fill-rule="evenodd" d="M91.611.152c.192-.083.384-.131.596-.15L92.319 0c.41-.004.83.14 1.126.389.033.028.184.182.388.399.184.194 3.1 3.24 6.482 6.768l6.149 6.415.003-6.343c.003-6.061.003-6.345.013-6.395a1.138 1.138 0 0 1 .617-.84 1.14 1.14 0 0 1 .334-.109c.051-.01.109-.01.797-.01.687 0 .745 0 .796.01.267.048.474.158.656.35.151.158.245.347.293.585l.012.061.002 8.505c.001 6.279 0 8.525-.004 8.582a1.813 1.813 0 0 1-.135.547 1.757 1.757 0 0 1-1.239 1.042 1.79 1.79 0 0 1-1.465-.308c-.073-.056-.12-.103-.413-.414-.159-.168-3.069-3.207-6.468-6.753l-6.18-6.447-.002 6.339c-.003 6.057-.003 6.341-.013 6.391a1.139 1.139 0 0 1-.831.922l-.068.018c-.091.02-.186.019-.851.019-.66 0-.752.001-.84-.018l-.065-.016a1.143 1.143 0 0 1-.838-.91l-.012-.062-.002-8.504c-.001-6.28 0-8.525.004-8.583A1.777 1.777 0 0 1 91.611.152Zm-66.458.13.064-.008c.007-.001.34-.002.74-.001.669 0 .732.002.78.01.268.05.472.16.653.35.151.159.246.347.293.585l.012.061.002 3.479.001 3.478h12.374l.002-3.476c.001-3.308.002-3.477.011-3.528a1.144 1.144 0 0 1 .95-.949c.052-.009.11-.01.8-.01.69 0 .748.001.8.01.266.048.472.158.654.35.152.159.246.347.293.585l.012.061.005 4.005v.492c.003 2.1.004 3.152.004 4.205l-.004 4.239v.494c-.004 3.804-.005 4.004-.014 4.054a1.139 1.139 0 0 1-.83.922l-.02.005c-.018.005-.033.01-.05.013-.085.02-.175.02-.751.019h-.214c-.562 0-.647 0-.73-.018l-.046-.011-.02-.005a1.143 1.143 0 0 1-.836-.91l-.013-.062-.001-3.478-.002-3.478H27.698l-.001 3.475c-.002 3.309-.002 3.478-.012 3.528a1.139 1.139 0 0 1-.83.922l-.018.005-.05.013c-.086.02-.177.02-.752.019h-.215c-.561 0-.647 0-.729-.018l-.046-.011-.02-.005a1.14 1.14 0 0 1-.84-.93c-.009-.056-.01-.432-.01-8.766 0-8.333.001-8.709.01-8.762a1.14 1.14 0 0 1 .968-.953ZM51.19 14.698V3.801h12.837c.83 0 1.267-.43 1.267-1.27v-.989c0-.866-.449-1.27-1.267-1.27H49.462c-1.048 0-1.794.768-1.794 1.818v12.744c0 2.968 2.163 4.893 5.177 4.893h11.182c.83 0 1.267-.508 1.267-1.27v-.986c0-.811-.44-1.27-1.267-1.27H52.651c-1.425 0-1.461-1.05-1.461-1.503Zm2.457-6.456a1.164 1.164 0 0 0-.602.233 1.137 1.137 0 0 0-.404.61l-.017.065c-.017.082-.017.167-.017.733v.219c0 .58 0 .67.019.755l.012.05.005.017a1.133 1.133 0 0 0 .924.826c.052.01.261.01 4.59.01 4.328 0 4.537 0 4.593-.01a1.14 1.14 0 0 0 .928-.834l.005-.02.011-.045c.018-.082.018-.167.018-.733v-.115c0-.692 0-.752-.01-.806a1.14 1.14 0 0 0-.947-.947c-.05-.009-.258-.01-4.573-.01-2.487 0-4.528 0-4.535.002ZM68.064.282a.585.585 0 0 0-.462.427.424.424 0 0 0-.016.15c0 .08.002.1.013.141a.695.695 0 0 0 .092.193c.014.02 1.712 2.01 3.772 4.424l3.755 4.398c.006.008-.448.541-3.726 4.381a3340.978 3340.978 0 0 0-3.76 4.407.673.673 0 0 0-.091.188.396.396 0 0 0-.015.147c0 .09 0 .102.014.152a.582.582 0 0 0 .468.429c.043.007.264.008 1.593.008 1.047 0 1.562-.002 1.601-.006a1.15 1.15 0 0 0 .712-.351c.025-.026 1.293-1.51 2.82-3.299 1.525-1.788 2.775-3.25 2.777-3.25.001-.001 1.259 1.47 2.793 3.268A989.643 989.643 0 0 0 83.24 19.4c.135.135.325.242.511.29l.03.007a.564.564 0 0 0 .02.005c.083.021.172.021 1.36.021h1.953l.055-.015a.586.586 0 0 0 .314-.918c-.014-.019-1.704-1.998-3.753-4.399-2.05-2.4-3.727-4.367-3.726-4.37 0-.004 1.692-1.987 3.758-4.407s3.767-4.414 3.778-4.43a.59.59 0 0 0 .099-.389.59.59 0 0 0-.443-.508l-.049-.013h-1.595c-1.504 0-1.599 0-1.651.01-.25.044-.462.153-.629.322-.025.026-1.307 1.524-2.85 3.33a1023.353 1023.353 0 0 1-2.81 3.284c-.003 0-1.262-1.471-2.797-3.27L71.98.635a1.158 1.158 0 0 0-.714-.357A83.325 83.325 0 0 0 69.66.273c-1.319 0-1.559.001-1.596.008Z" clip-rule="evenodd"></path></svg>