<?xml version="1.0" encoding="UTF-8"?>
<svg xmlns="http://www.w3.org/2000/svg" xmlns:xlink="http://www.w3.org/1999/xlink" width="130px" height="130px" viewBox="0 0 130 53" version="1.1">
<g id="surface1">
<path style=" stroke:none;fill-rule:nonzero;fill:rgb(15.686275%,50.980392%,100%);fill-opacity:1;" d="M 99.261719 14.234375 L 87.796875 35.574219 L 90.460938 35.574219 C 91.746094 35.574219 92.929688 34.875 93.535156 33.757812 L 96.648438 28.042969 L 104.625 28.042969 C 105.75 28.035156 106.773438 27.410156 107.28125 26.421875 L 108.3125 24.390625 L 98.625 24.390625 L 102.042969 18.113281 L 116.632812 18.113281 L 107.605469 35.558594 L 110.003906 35.558594 C 111.382812 35.558594 112.648438 34.800781 113.289062 33.597656 L 121.617188 18.097656 L 126.011719 18.097656 C 127.304688 18.101562 128.484375 17.382812 129.0625 16.246094 L 130.089844 14.234375 Z M 38.023438 39.519531 C 38.515625 39.507812 39.007812 39.5625 39.484375 39.675781 C 39.84375 39.757812 40.183594 39.90625 40.480469 40.117188 C 40.726562 40.296875 40.917969 40.535156 41.035156 40.8125 C 41.148438 41.097656 41.203125 41.40625 41.199219 41.714844 C 41.199219 41.890625 41.175781 42.070312 41.121094 42.238281 C 41.066406 42.414062 40.984375 42.582031 40.871094 42.730469 C 40.746094 42.886719 40.597656 43.019531 40.433594 43.132812 C 40.234375 43.265625 40.015625 43.371094 39.789062 43.449219 C 40.246094 43.539062 40.667969 43.757812 41 44.085938 C 41.269531 44.398438 41.410156 44.804688 41.394531 45.21875 C 41.398438 45.554688 41.328125 45.890625 41.191406 46.199219 C 41.050781 46.5 40.84375 46.765625 40.585938 46.980469 C 40.292969 47.21875 39.953125 47.394531 39.589844 47.5 C 39.160156 47.632812 38.714844 47.695312 38.265625 47.6875 L 34.972656 47.6875 L 34.972656 39.519531 Z M 36.882812 40.9375 L 36.882812 42.957031 L 37.878906 42.957031 C 38.070312 42.957031 38.265625 42.941406 38.453125 42.910156 C 38.605469 42.882812 38.753906 42.832031 38.886719 42.753906 C 39.003906 42.679688 39.101562 42.570312 39.160156 42.445312 C 39.230469 42.289062 39.261719 42.121094 39.253906 41.953125 C 39.261719 41.789062 39.234375 41.621094 39.179688 41.464844 C 39.136719 41.339844 39.054688 41.234375 38.953125 41.15625 C 38.835938 41.070312 38.703125 41.011719 38.5625 40.988281 C 38.378906 40.953125 38.191406 40.933594 38.003906 40.9375 Z M 38.234375 46.253906 C 38.453125 46.261719 38.671875 46.230469 38.875 46.160156 C 39.019531 46.105469 39.148438 46.023438 39.25 45.914062 C 39.339844 45.816406 39.40625 45.699219 39.441406 45.570312 C 39.472656 45.445312 39.492188 45.3125 39.488281 45.183594 C 39.492188 45.046875 39.472656 44.910156 39.429688 44.78125 C 39.390625 44.664062 39.320312 44.558594 39.226562 44.476562 C 39.113281 44.390625 38.980469 44.324219 38.84375 44.285156 C 38.644531 44.238281 38.441406 44.214844 38.238281 44.222656 L 36.882812 44.222656 L 36.882812 46.253906 Z M 49.761719 46.167969 L 49.761719 47.679688 L 44.777344 47.679688 L 44.777344 39.519531 L 46.703125 39.519531 L 46.703125 46.167969 Z M 60.851562 43.597656 C 60.855469 44.164062 60.75 44.722656 60.539062 45.246094 C 60.34375 45.742188 60.046875 46.191406 59.667969 46.574219 C 59.28125 46.953125 58.820312 47.253906 58.316406 47.457031 C 57.179688 47.878906 55.925781 47.878906 54.792969 47.457031 C 53.765625 47.058594 52.953125 46.257812 52.546875 45.246094 C 52.136719 44.183594 52.136719 43.011719 52.546875 41.949219 C 52.953125 40.941406 53.765625 40.144531 54.792969 39.75 C 55.925781 39.320312 57.183594 39.320312 58.316406 39.75 C 58.824219 39.953125 59.285156 40.253906 59.671875 40.632812 C 60.050781 41.011719 60.347656 41.460938 60.542969 41.953125 C 60.753906 42.476562 60.859375 43.035156 60.851562 43.597656 Z M 58.859375 43.597656 C 58.863281 43.230469 58.808594 42.863281 58.699219 42.507812 C 58.609375 42.21875 58.460938 41.949219 58.265625 41.714844 C 58.0625 41.496094 57.8125 41.328125 57.53125 41.222656 C 57.21875 41.097656 56.878906 41.035156 56.535156 41.042969 C 56.195312 41.035156 55.855469 41.097656 55.539062 41.222656 C 55.265625 41.332031 55.023438 41.5 54.828125 41.714844 C 54.617188 41.953125 54.460938 42.230469 54.367188 42.535156 C 54.15625 43.246094 54.15625 44.003906 54.367188 44.71875 C 54.460938 45.019531 54.617188 45.296875 54.828125 45.535156 C 55.027344 45.761719 55.277344 45.9375 55.558594 46.050781 C 55.875 46.175781 56.214844 46.234375 56.554688 46.230469 C 56.898438 46.234375 57.234375 46.175781 57.554688 46.050781 C 57.835938 45.9375 58.085938 45.761719 58.285156 45.535156 C 58.492188 45.296875 58.648438 45.019531 58.746094 44.71875 C 58.851562 44.355469 58.898438 43.976562 58.882812 43.597656 Z M 69.746094 45.570312 C 69.789062 45.5625 69.835938 45.5625 69.882812 45.570312 C 69.933594 45.589844 69.980469 45.621094 70.011719 45.660156 L 70.777344 46.472656 C 70.449219 46.902344 70.015625 47.238281 69.519531 47.457031 C 68.953125 47.683594 68.347656 47.796875 67.734375 47.785156 C 67.15625 47.792969 66.582031 47.683594 66.046875 47.464844 C 65.570312 47.261719 65.144531 46.960938 64.796875 46.582031 C 64.441406 46.199219 64.171875 45.75 63.996094 45.261719 C 63.804688 44.726562 63.710938 44.164062 63.71875 43.597656 C 63.710938 43.027344 63.8125 42.457031 64.015625 41.921875 C 64.207031 41.429688 64.496094 40.980469 64.863281 40.601562 C 65.230469 40.234375 65.671875 39.945312 66.15625 39.75 C 66.691406 39.539062 67.261719 39.433594 67.835938 39.441406 C 68.128906 39.441406 68.425781 39.46875 68.710938 39.523438 C 68.976562 39.574219 69.234375 39.652344 69.484375 39.75 C 69.714844 39.839844 69.9375 39.957031 70.144531 40.09375 C 70.335938 40.222656 70.515625 40.367188 70.679688 40.53125 L 70.027344 41.390625 C 69.984375 41.441406 69.9375 41.488281 69.882812 41.53125 C 69.8125 41.578125 69.730469 41.601562 69.644531 41.597656 C 69.578125 41.597656 69.511719 41.582031 69.449219 41.550781 L 69.257812 41.445312 L 69.03125 41.300781 C 68.941406 41.246094 68.84375 41.199219 68.742188 41.160156 C 68.613281 41.113281 68.484375 41.078125 68.347656 41.050781 C 68.175781 41.019531 67.996094 41.003906 67.820312 41.007812 C 67.519531 41.003906 67.222656 41.0625 66.949219 41.179688 C 66.6875 41.289062 66.453125 41.457031 66.265625 41.667969 C 66.066406 41.910156 65.914062 42.1875 65.820312 42.484375 C 65.710938 42.84375 65.660156 43.21875 65.667969 43.59375 C 65.660156 43.972656 65.71875 44.347656 65.84375 44.707031 C 65.941406 45.007812 66.101562 45.285156 66.308594 45.527344 C 66.503906 45.738281 66.742188 45.90625 67.007812 46.019531 C 67.277344 46.132812 67.566406 46.191406 67.859375 46.191406 C 68.027344 46.199219 68.191406 46.199219 68.359375 46.191406 C 68.496094 46.175781 68.632812 46.148438 68.761719 46.105469 C 68.886719 46.066406 69.003906 46.015625 69.117188 45.949219 C 69.238281 45.878906 69.351562 45.792969 69.457031 45.699219 C 69.5 45.664062 69.550781 45.632812 69.601562 45.605469 C 69.644531 45.585938 69.695312 45.574219 69.746094 45.570312 Z M 75.714844 42.824219 L 76.023438 42.824219 C 76.261719 42.84375 76.492188 42.746094 76.636719 42.5625 L 78.507812 39.894531 C 78.597656 39.765625 78.71875 39.664062 78.859375 39.597656 C 79.011719 39.542969 79.171875 39.515625 79.335938 39.519531 L 81.007812 39.519531 L 78.550781 42.816406 C 78.402344 43.019531 78.210938 43.1875 77.988281 43.308594 C 78.128906 43.355469 78.261719 43.429688 78.378906 43.523438 C 78.507812 43.628906 78.617188 43.75 78.710938 43.886719 L 81.203125 47.675781 L 79.484375 47.675781 C 79.390625 47.683594 79.296875 47.683594 79.203125 47.675781 C 79.132812 47.664062 79.066406 47.640625 79 47.609375 C 78.945312 47.582031 78.898438 47.542969 78.855469 47.5 C 78.8125 47.457031 78.769531 47.40625 78.734375 47.351562 L 76.855469 44.511719 C 76.796875 44.410156 76.707031 44.332031 76.597656 44.289062 C 76.460938 44.238281 76.320312 44.214844 76.175781 44.222656 L 75.707031 44.222656 L 75.707031 47.695312 L 73.78125 47.695312 L 73.78125 39.519531 L 75.707031 39.519531 Z M 89.21875 45.570312 C 89.261719 45.5625 89.308594 45.5625 89.351562 45.570312 C 89.40625 45.589844 89.449219 45.621094 89.488281 45.660156 L 90.25 46.449219 C 89.921875 46.875 89.488281 47.214844 88.992188 47.429688 C 88.429688 47.660156 87.820312 47.773438 87.210938 47.761719 C 86.628906 47.769531 86.050781 47.660156 85.515625 47.441406 C 85.035156 47.242188 84.601562 46.945312 84.25 46.566406 C 83.894531 46.183594 83.621094 45.734375 83.445312 45.246094 C 83.257812 44.710938 83.160156 44.148438 83.167969 43.582031 C 83.160156 43.011719 83.261719 42.441406 83.472656 41.90625 C 83.660156 41.414062 83.949219 40.964844 84.320312 40.585938 C 84.699219 40.21875 85.148438 39.9375 85.644531 39.75 C 86.175781 39.539062 86.746094 39.433594 87.320312 39.441406 C 87.613281 39.441406 87.910156 39.46875 88.203125 39.523438 C 88.464844 39.574219 88.722656 39.652344 88.972656 39.75 C 89.203125 39.84375 89.425781 39.957031 89.632812 40.09375 C 89.824219 40.222656 90.003906 40.367188 90.164062 40.53125 L 89.515625 41.390625 C 89.472656 41.445312 89.421875 41.492188 89.367188 41.53125 C 89.296875 41.582031 89.214844 41.601562 89.128906 41.597656 C 89.0625 41.597656 88.996094 41.582031 88.9375 41.550781 C 88.875 41.523438 88.8125 41.484375 88.746094 41.445312 L 88.519531 41.300781 C 88.425781 41.246094 88.332031 41.199219 88.230469 41.160156 C 88.101562 41.113281 87.972656 41.078125 87.835938 41.050781 C 87.664062 41.019531 87.484375 41.003906 87.308594 41.007812 C 87.007812 41.003906 86.710938 41.0625 86.4375 41.179688 C 86.175781 41.289062 85.941406 41.457031 85.753906 41.667969 C 85.550781 41.910156 85.402344 42.1875 85.308594 42.484375 C 85.199219 42.84375 85.144531 43.21875 85.152344 43.59375 C 85.144531 43.972656 85.203125 44.347656 85.324219 44.707031 C 85.425781 45.007812 85.589844 45.285156 85.800781 45.527344 C 85.992188 45.738281 86.230469 45.90625 86.496094 46.019531 C 86.765625 46.132812 87.054688 46.191406 87.347656 46.191406 C 87.515625 46.199219 87.679688 46.199219 87.847656 46.191406 C 87.972656 46.179688 88.097656 46.160156 88.222656 46.128906 C 88.34375 46.089844 88.464844 46.039062 88.574219 45.972656 C 88.695312 45.902344 88.808594 45.816406 88.910156 45.722656 C 88.953125 45.6875 89.003906 45.65625 89.058594 45.628906 C 89.105469 45.597656 89.160156 45.578125 89.21875 45.570312 Z M 100.515625 39.519531 L 100.515625 47.679688 L 98.582031 47.679688 L 98.582031 44.246094 L 95.199219 44.246094 L 95.199219 47.679688 L 93.265625 47.679688 L 93.265625 39.519531 L 95.199219 39.519531 L 95.199219 42.957031 L 98.570312 42.957031 L 98.570312 39.519531 Z M 111.738281 47.679688 L 110.242188 47.679688 C 110.097656 47.691406 109.957031 47.652344 109.839844 47.570312 C 109.734375 47.492188 109.652344 47.390625 109.605469 47.273438 L 109.105469 45.851562 L 105.964844 45.851562 L 105.46875 47.273438 C 105.417969 47.386719 105.339844 47.484375 105.242188 47.558594 C 105.125 47.644531 104.984375 47.6875 104.839844 47.679688 L 103.34375 47.679688 L 106.554688 39.519531 L 108.546875 39.519531 Z M 108.683594 44.558594 L 107.910156 42.328125 C 107.847656 42.164062 107.785156 42 107.730469 41.835938 C 107.664062 41.640625 107.601562 41.433594 107.535156 41.207031 C 107.480469 41.4375 107.414062 41.648438 107.355469 41.839844 C 107.296875 42.03125 107.226562 42.203125 107.171875 42.332031 L 106.410156 44.554688 Z M 116.496094 47.679688 L 114.5625 47.679688 L 114.5625 39.519531 L 116.496094 39.519531 Z M 127.515625 39.519531 L 127.515625 47.679688 L 126.519531 47.679688 C 126.390625 47.6875 126.265625 47.664062 126.148438 47.613281 C 126.03125 47.554688 125.925781 47.46875 125.847656 47.367188 L 121.941406 42.5 C 121.941406 42.644531 121.964844 42.789062 121.96875 42.921875 C 121.976562 43.054688 121.96875 43.1875 121.96875 43.308594 L 121.96875 47.679688 L 120.273438 47.679688 L 120.273438 39.519531 L 121.273438 39.519531 C 121.339844 39.515625 121.410156 39.515625 121.480469 39.519531 C 121.585938 39.535156 121.6875 39.578125 121.765625 39.648438 C 121.816406 39.695312 121.863281 39.746094 121.910156 39.800781 L 125.851562 44.707031 C 125.851562 44.550781 125.824219 44.398438 125.8125 44.25 C 125.800781 44.105469 125.8125 43.964844 125.8125 43.832031 L 125.8125 39.515625 Z M 25.492188 3.175781 C 25.492188 3.175781 22.574219 0.300781 19.128906 0.0390625 C 15.683594 -0.21875 14.355469 0.824219 14.617188 1.871094 C 14.882812 2.914062 16.078125 3.042969 17.667969 2 C 19.257812 0.953125 22.707031 1.21875 25.492188 3.175781 Z M 25.492188 3.175781 "/>
<path style=" stroke:none;fill-rule:nonzero;fill:rgb(15.686275%,50.980392%,100%);fill-opacity:1;" d="M 24.058594 3.601562 C 24.058594 3.601562 21.734375 2.175781 19.472656 2.511719 C 17.210938 2.851562 16.484375 3.722656 16.835938 4.355469 C 17.191406 4.988281 17.957031 4.898438 18.832031 3.992188 C 19.703125 3.082031 21.960938 2.75 24.058594 3.601562 Z M 24.058594 3.601562 "/>
<path style=" stroke:none;fill-rule:nonzero;fill:rgb(15.686275%,50.980392%,100%);fill-opacity:1;" d="M 23.699219 3.964844 C 22.710938 3.640625 21.644531 3.628906 20.648438 3.925781 C 19.269531 4.453125 18.953125 5.101562 19.253906 5.453125 C 19.554688 5.804688 20.035156 5.644531 20.453125 4.960938 C 20.875 4.28125 22.253906 3.714844 23.699219 3.964844 Z M 30.925781 12.445312 C 33.554688 11.335938 35.414062 10.875 40.605469 12.054688 C 40.605469 12.054688 33.183594 -0.214844 24.160156 3.957031 C 20.847656 5.65625 20.585938 9.324219 20.320312 10.617188 C 20.054688 11.90625 20.414062 16.316406 16.871094 18.46875 C 12.101562 21.324219 -4.078125 26.011719 0.960938 52.917969 C 0.960938 52.917969 1.488281 45.867188 11.039062 44.039062 C 20.589844 42.214844 24.296875 42.734375 29.074219 37.511719 C 33.847656 32.292969 31.722656 22.367188 30.664062 19.492188 C 29.601562 16.617188 29.074219 13.25 30.925781 12.445312 Z M 24.226562 34.3125 C 22.183594 38.160156 17.914062 37.570312 16.042969 37.597656 C 15.015625 37.597656 12.476562 37.03125 10.117188 37.722656 C 7.242188 38.566406 6.714844 39.722656 5.824219 40.566406 C 5.824219 40.566406 6.214844 35.167969 9.429688 30.75 C 12.644531 26.335938 17.550781 24.828125 20.777344 25.917969 C 24.007812 27.007812 26.273438 30.460938 24.226562 34.3125 Z M 37.425781 10.488281 C 37.425781 10.488281 32.253906 9.816406 30.265625 11.777344 C 30.265625 11.777344 31.859375 7.363281 37.425781 10.488281 Z M 87.089844 16.195312 L 80.246094 28.953125 L 78.511719 14.234375 L 75.566406 14.234375 C 74.242188 14.234375 73.023438 14.957031 72.40625 16.113281 L 65.429688 29.183594 L 64.039062 15.386719 C 64.035156 15.078125 63.910156 14.78125 63.6875 14.566406 C 63.464844 14.351562 63.164062 14.230469 62.851562 14.234375 L 47.660156 14.234375 C 46.851562 14.273438 46.054688 14.40625 45.28125 14.636719 C 44.371094 14.894531 43.515625 15.316406 42.757812 15.882812 C 42.03125 16.4375 41.433594 17.140625 41.011719 17.949219 C 40.566406 18.839844 40.347656 19.820312 40.371094 20.8125 C 40.320312 21.777344 40.5625 22.730469 41.070312 23.554688 C 41.535156 24.230469 42.148438 24.792969 42.863281 25.199219 C 43.597656 25.617188 44.378906 25.949219 45.191406 26.183594 C 46.03125 26.425781 46.808594 26.675781 47.523438 26.929688 C 48.175781 27.144531 48.789062 27.457031 49.34375 27.855469 C 49.816406 28.195312 50.085938 28.75 50.054688 29.328125 C 50.0625 29.664062 49.964844 29.996094 49.777344 30.273438 C 49.578125 30.542969 49.324219 30.761719 49.023438 30.917969 C 48.714844 31.09375 48.378906 31.226562 48.027344 31.304688 C 47.824219 31.351562 47.613281 31.386719 47.40625 31.410156 L 46.277344 31.410156 L 39.300781 31.347656 C 37.910156 31.339844 36.628906 32.097656 35.984375 33.3125 L 34.769531 35.589844 L 47.378906 35.589844 C 48.152344 35.542969 48.921875 35.417969 49.667969 35.210938 C 50.585938 34.960938 51.445312 34.542969 52.203125 33.976562 C 52.9375 33.417969 53.527344 32.699219 53.933594 31.878906 C 54.378906 30.960938 54.601562 29.953125 54.578125 28.933594 C 54.625 27.941406 54.382812 26.957031 53.878906 26.09375 C 53.429688 25.40625 52.824219 24.824219 52.113281 24.402344 C 51.398438 23.972656 50.632812 23.644531 49.828125 23.417969 C 49.011719 23.191406 48.246094 22.960938 47.539062 22.726562 C 46.914062 22.539062 46.320312 22.261719 45.78125 21.898438 C 45.316406 21.582031 45.050781 21.050781 45.078125 20.496094 C 45.066406 20.144531 45.167969 19.800781 45.371094 19.511719 C 45.566406 19.242188 45.824219 19.019531 46.125 18.871094 C 46.4375 18.703125 46.773438 18.582031 47.121094 18.507812 C 47.300781 18.46875 47.480469 18.4375 47.664062 18.417969 L 59.996094 18.417969 L 62.0625 35.480469 L 66.699219 35.480469 L 74.675781 20.757812 L 76.414062 35.480469 L 81.28125 35.480469 L 92.652344 14.234375 L 90.378906 14.234375 C 88.996094 14.234375 87.730469 14.988281 87.089844 16.195312 Z M 87.089844 16.195312 "/>
</g>
</svg>
