<svg width="32" height="32" viewBox="0 0 32 32" fill="none" xmlns="http://www.w3.org/2000/svg">
<rect width="32" height="32" rx="6" fill="#766FDE"/>
<rect x="10" y="14.8" width="12" height="9.6" rx="1" stroke="#F4F4F9" stroke-linecap="round" stroke-linejoin="round"/>
<path d="M12.9634 12.0881C12.6525 11.7772 12.4971 11.6218 12.4388 11.4426C12.3876 11.2849 12.3876 11.1151 12.4388 10.9574C12.4971 10.7781 12.6525 10.6227 12.9634 10.3118L15.1122 8.16296C15.4231 7.85208 15.5786 7.69664 15.7578 7.6384C15.9155 7.58717 16.0853 7.58717 16.243 7.6384C16.4222 7.69664 16.5777 7.85208 16.8885 8.16296L19.0374 10.3118C19.3483 10.6227 19.5037 10.7781 19.562 10.9574C19.6132 11.1151 19.6132 11.2849 19.562 11.4426C19.5037 11.6218 19.3483 11.7772 19.0374 12.0881L16.8885 14.237C16.5777 14.5479 16.4222 14.7033 16.243 14.7616C16.0853 14.8128 15.9155 14.8128 15.7578 14.7616C15.5786 14.7033 15.4231 14.5479 15.1122 14.237L12.9634 12.0881Z" stroke="#F4F4F9" stroke-linecap="round" stroke-linejoin="round"/>
<path d="M13.6006 17.2001H18.4006" stroke="#F4F4F9" stroke-linecap="round"/>
</svg>
