<svg width="50" height="50" viewBox="0 0 50 50" fill="none" xmlns="http://www.w3.org/2000/svg">
<g clip-path="url(#clip0_187_3207)">
<path d="M21.9198 0C20.398 -1.40849e-07 18.9386 0.60452 17.8626 1.68056L0.960271 18.5833C0.320084 19.2234 -5.24129e-06 20.0625 0 20.9016C5.24141e-06 21.7406 0.320104 22.5797 0.96029 23.22L12.0369 34.2966V14.6869C12.0369 13.2235 13.214 12.0371 14.6774 12.0371C20.8601 12.0371 35.9097 12.0371 37.9626 12.0371L49.9995 0.00017059L21.9198 0Z" fill="#F7F6FF"/>
<path d="M12.0374 37.9627H35.3133C36.7767 37.9627 37.9631 36.7764 37.9631 35.3129V15.7031L49.0397 26.7799C49.6798 27.4201 50 28.2591 50 29.0983C50 29.9374 49.6798 30.7764 49.0397 31.4166L32.1373 48.3192C31.0613 49.3952 29.602 49.9999 28.0802 49.9999L0.000488281 49.9996L12.0374 37.9627Z" fill="#F7F6FF"/>
</g>
<defs>
<clipPath id="clip0_187_3207">
<rect width="50" height="50" fill="white"/>
</clipPath>
</defs>
</svg>
