<svg width="32" height="32" viewBox="0 0 32 32" fill="none" xmlns="http://www.w3.org/2000/svg">
<mask id="mask0_282_1237" style="mask-type:alpha" maskUnits="userSpaceOnUse" x="0" y="0" width="32" height="32">
<rect width="32" height="32" fill="#D9D9D9"/>
</mask>
<g mask="url(#mask0_282_1237)">
<path d="M17.0066 0.0626714C19.5389 0.188014 21.871 0.977673 24.0531 2.23737C24.7284 2.62593 25.3724 3.0709 26.0101 3.52213C26.1039 3.59107 26.2665 3.67254 26.1539 3.81042C26.0477 3.94203 25.9289 3.81669 25.8351 3.74148C23.9031 2.18723 21.721 1.16569 19.3075 0.632981C17.8507 0.313357 16.3814 0.231884 14.9058 0.332158C12.6049 0.488837 10.4416 1.14689 8.41577 2.25617C7.62171 2.6886 6.85891 3.17744 6.16489 3.77282C6.08361 3.84175 5.98982 3.92323 5.89604 3.82295C5.78975 3.71014 5.91479 3.62867 5.98982 3.57227C7.54043 2.34391 9.22234 1.37877 11.1231 0.814728C12.4736 0.419898 13.8366 0.13161 15.2497 0.0564042C15.5185 -0.0125343 15.7999 0.0877399 16.0688 0C16.15 0 16.2376 0 16.3189 0C16.5377 0.0877399 16.7815 -0.00626714 17.0066 0.0626714Z" fill="#014680"/>
<path d="M31.9999 17.2284C31.9374 17.6358 31.8812 18.0431 31.8186 18.4505C31.3997 21.1704 30.3681 23.6334 28.6737 25.8018C28.5861 25.9146 28.4986 26.04 28.4048 26.1465C28.3673 26.1967 28.2985 26.228 28.236 26.1841C28.1735 26.1465 28.1735 26.0713 28.2047 26.0149C28.286 25.8833 28.3673 25.7454 28.4673 25.6264C29.9742 23.8152 30.837 21.6969 31.3622 19.4282C31.6686 18.1121 31.8186 16.7772 31.7373 15.4297C31.5623 12.3714 30.7495 9.52608 28.9237 7.02549C28.7174 6.73721 28.5361 6.43638 28.286 6.17943C28.2047 6.09169 28.1047 5.94755 28.2297 5.85354C28.3485 5.7658 28.4173 5.92248 28.4923 6.00395C30.2305 8.0157 31.1309 10.416 31.6811 12.973C31.8124 13.5809 31.9124 14.2014 31.9437 14.8218C31.9437 14.8719 31.9749 14.9158 31.9937 14.966C32 15.7243 31.9999 16.4763 31.9999 17.2284Z" fill="#014681"/>
<path d="M0.056272 16.8585C0.0375147 16.8585 0.0187573 16.8523 0 16.8523C0 16.307 0 15.7681 0 15.2228C0.0187573 15.2228 0.0375147 15.2228 0.056272 15.2166C0.131301 15.273 0.150059 15.3544 0.156311 15.4359C0.175068 15.837 0.175068 16.2381 0.156311 16.6392C0.150059 16.7269 0.125049 16.8021 0.056272 16.8585Z" fill="#001F3B"/>
<path d="M22.5587 14.8531C22.5587 16.0313 22.5524 17.2095 22.5587 18.3877C22.5587 18.745 22.4274 19.0019 22.146 19.2401C20.2078 20.8695 18.2883 22.5115 16.3625 24.1598C16.1937 24.3039 16.0874 24.3102 15.9186 24.1723C14.1992 22.8186 12.5798 21.3458 10.9542 19.8856C10.5728 19.5472 10.2039 19.1962 9.82246 18.8515C9.69116 18.7324 9.62863 18.6071 9.62863 18.4191C9.61613 16.0313 9.60362 13.6435 9.57861 11.2557C9.57861 11.0489 9.65364 10.9674 9.82871 10.8985C11.5419 10.2217 13.2676 9.58867 14.9495 8.84915C15.6622 8.53579 16.3563 8.52326 17.094 8.79901C18.6384 9.36305 20.139 10.0336 21.6708 10.6165C21.6896 10.6227 21.7084 10.6353 21.7271 10.6416C21.996 10.7418 22.3836 10.7669 22.5149 10.9612C22.6587 11.1743 22.5774 11.544 22.5774 11.8448C22.5837 12.8476 22.5774 13.8503 22.5774 14.8468C22.5712 14.8531 22.5649 14.8531 22.5587 14.8531Z" fill="#76DDFE"/>
<path d="M15.206 29.2675C14.3057 28.5279 13.4366 27.8198 12.5737 27.1053C10.648 25.5135 8.72223 23.9216 6.87151 22.2483C6.61516 22.0164 6.38382 21.7657 6.13998 21.5213C6.00867 21.3897 5.99617 21.2831 6.18374 21.1891C7.02782 20.7567 7.89691 20.3807 8.79101 20.0736C8.93482 20.0234 9.04111 20.061 9.15365 20.1676C10.1478 21.0701 11.1232 21.9976 12.1611 22.8499C13.0802 23.602 13.9055 24.4606 14.8684 25.1625C15.1185 25.3442 15.256 25.6012 15.256 25.9146C15.256 26.9862 15.2498 28.0642 15.2498 29.1359C15.2373 29.1547 15.2248 29.186 15.206 29.2675Z" fill="#014781"/>
<path d="M16.9314 29.2802C16.9314 28.033 16.9314 26.8485 16.9314 25.664C16.9314 25.5011 17.0314 25.4196 17.1252 25.3256C17.8255 24.6237 18.6321 24.0408 19.3698 23.3828C20.5516 22.3299 21.7395 21.277 22.915 20.2242C23.065 20.0925 23.1776 20.0487 23.3714 20.1427C24.2155 20.5187 25.0658 20.8822 25.9224 21.2269C26.16 21.3209 26.2038 21.3836 25.9974 21.5779C24.6407 22.8563 23.2276 24.0722 21.8083 25.2817C20.3452 26.5352 18.8822 27.7823 17.3628 28.9731C17.2378 29.0671 17.1127 29.1548 16.9314 29.2802Z" fill="#77DEF4"/>
<path d="M27.0042 9.02466C27.0042 9.37562 27.0042 9.63884 27.0042 9.90832C26.9979 13.0795 26.9979 16.2507 26.9917 19.4218C26.9917 19.7791 26.9854 19.7791 26.6666 19.6349C25.8662 19.284 25.0722 18.9267 24.2656 18.5883C24.0968 18.5194 24.0405 18.4254 24.0405 18.2436C24.0468 15.906 24.0468 13.5746 24.0468 11.237C24.0468 11.1179 24.028 10.9988 24.1656 10.9111C25.0909 10.3032 26.0038 9.68897 27.0042 9.02466Z" fill="#58C2E2"/>
<path d="M5.18945 9.04358C5.55209 9.18772 5.8272 9.39454 6.10231 9.59509C6.71505 10.0275 7.31528 10.4788 7.95303 10.8736C8.07183 10.9488 8.12185 11.0303 8.12185 11.1744C8.12185 13.5246 8.12185 15.8685 8.12185 18.2187C8.12185 18.3252 8.12185 18.4255 8.00305 18.4756C7.07144 18.8893 6.14608 19.3029 5.18945 19.729C5.18945 16.1568 5.18945 12.6221 5.18945 9.04358Z" fill="#14669B"/>
<path d="M15.2307 5.63416C15.2307 5.96632 15.2057 6.30475 15.237 6.6369C15.2745 7.038 15.1245 7.26362 14.7368 7.40149C13.849 7.72739 12.9799 8.09715 12.0983 8.43557C11.2667 8.7552 10.4226 9.04975 9.60355 9.41325C9.32219 9.53859 9.07834 9.52605 8.80948 9.36311C8.00292 8.868 7.22762 8.3165 6.46482 7.76499C6.22723 7.58951 6.22723 7.52057 6.50859 7.40776C6.99002 7.20721 7.47771 7.03173 7.9654 6.84999C10.1037 6.03526 12.2046 5.13906 14.3554 4.37447C14.5617 4.29926 14.7681 4.23659 14.9744 4.16765C15.1557 4.10498 15.2432 4.14258 15.237 4.36193C15.2245 4.7881 15.2307 5.21426 15.2307 5.6467C15.2307 5.63416 15.2307 5.63416 15.2307 5.63416Z" fill="#2F81B2"/>
<path d="M25.8851 7.62707C25.0285 8.26006 24.1719 8.88677 23.259 9.42574C23.059 9.54482 22.8651 9.52602 22.6588 9.44454C20.8394 8.71129 18.9824 8.06577 17.1692 7.30745C16.9878 7.23224 16.9253 7.13824 16.9316 6.93769C16.9441 6.08536 16.9441 5.22676 16.9316 4.37443C16.9316 4.16135 16.9628 4.09868 17.1879 4.18015C19.9578 5.18916 22.7338 6.19817 25.4474 7.35132C25.5975 7.42026 25.7663 7.46413 25.8851 7.62707Z" fill="#46A0CC"/>
<path d="M14.4618 0.889893C14.5806 0.908694 14.7182 0.889893 14.737 1.0215C14.7557 1.16565 14.6119 1.12804 14.5306 1.14058C13.3427 1.32233 12.1547 1.52287 11.0105 1.93024C9.29108 2.53815 7.74673 3.44688 6.36494 4.62511C4.13907 6.52405 2.59471 8.88049 1.71312 11.6756C1.29421 13.0043 1.08162 14.3642 1.05036 15.7555C0.975331 18.9142 1.84442 21.7908 3.60761 24.3791C5.58963 27.2933 8.25943 29.3114 11.642 30.3517C12.6049 30.6463 13.599 30.828 14.5994 30.9408C14.7057 30.9534 14.8245 30.9408 14.8057 31.1038C14.787 31.2416 14.6744 31.2792 14.5744 31.2416C14.1117 31.0536 13.6115 31.1288 13.1363 31.0286C11.2481 30.64 9.50366 29.9005 7.88428 28.8727C4.3579 26.6353 2.13829 23.4453 1.16916 19.3842C0.762748 17.667 0.700224 15.9248 0.925312 14.17C1.38174 10.5413 2.9511 7.47665 5.59589 4.97607C7.78424 2.90791 10.3728 1.60435 13.3427 1.07164C13.7178 1.0027 14.0992 0.952564 14.4618 0.889893Z" fill="#014680"/>
<path d="M31.2435 16.0313C31.206 19.6851 30.0243 22.9314 27.7109 25.7579C25.4162 28.5531 22.4588 30.2577 18.9387 30.991C18.5948 31.0599 18.2509 31.1477 17.8945 31.1351C17.8258 31.1351 17.7257 31.1539 17.7132 31.0599C17.707 30.9847 17.782 30.9346 17.8508 30.9032C18.0946 30.7904 18.3635 30.8218 18.6198 30.7842C20.9582 30.4019 23.0778 29.4681 24.9535 28.058C27.8609 25.8707 29.7742 22.9753 30.637 19.4156C31.0434 17.7297 31.0934 16.0188 30.8934 14.2953C30.612 11.8762 29.7929 9.65764 28.4174 7.65842C26.104 4.29924 22.9528 2.18095 18.9575 1.34115C18.6448 1.27221 18.3197 1.24088 18.0008 1.19701C17.882 1.17821 17.6945 1.19074 17.7132 1.03406C17.732 0.858581 17.9196 0.940054 18.0258 0.958855C19.3389 1.14687 20.6081 1.49783 21.8336 1.9992C25.3975 3.45944 27.986 5.97883 29.7117 9.40069C30.5807 11.1304 31.0809 12.973 31.206 14.9095C31.2185 15.0975 31.2435 15.2793 31.256 15.4673C31.2498 15.6553 31.2435 15.8433 31.2435 16.0313Z" fill="#014680"/>
<path d="M0.0561523 16.8586C0.0561523 16.3133 0.0561523 15.7681 0.0561523 15.2166C0.243726 11.9013 1.3379 8.9181 3.34494 6.2671C3.43247 6.14803 3.52001 6.03522 3.61379 5.92241C3.65131 5.87227 3.70758 5.82214 3.77636 5.85347C3.85764 5.89734 3.83888 5.98508 3.81387 6.04775C3.7576 6.16683 3.68257 6.28591 3.60129 6.39245C2.06944 8.31646 1.06905 10.4724 0.606367 12.8852C0.0874146 15.5487 0.218716 18.1809 1.01903 20.7818C1.5755 22.5993 2.47585 24.2287 3.6388 25.7203C3.74509 25.8582 3.93267 26.0525 3.78261 26.1715C3.64505 26.2843 3.54502 26.0274 3.45748 25.9146C2.38831 24.5609 1.5755 23.0693 0.981514 21.4524C0.431299 19.9733 0.131182 18.4379 0.0561523 16.8586Z" fill="#014681"/>
<path d="M16.9378 32C16.2313 32 15.5248 32 14.8182 32C14.1555 31.906 13.4802 31.8496 12.8237 31.7054C10.304 31.1727 8.06561 30.0509 6.02106 28.5155C5.93352 28.4465 5.79597 28.3588 5.8835 28.2523C6.0023 28.1144 6.1336 28.2523 6.22739 28.3337C7.5529 29.4618 9.0785 30.2389 10.6979 30.8343C12.6862 31.5676 14.7432 31.8747 16.8503 31.7493C20.1203 31.555 23.0777 30.4708 25.685 28.4653C25.76 28.4089 25.8225 28.34 25.8913 28.2773C25.9726 28.2021 26.0789 28.1394 26.1602 28.2523C26.2352 28.3525 26.1289 28.4215 26.0601 28.4841C25.5849 28.8852 25.0722 29.2425 24.5408 29.5809C22.5838 30.8218 20.4392 31.5237 18.1633 31.8809C17.7631 31.9311 17.3505 31.9561 16.9378 32Z" fill="#014680"/>
<path d="M16.2126 31.2604C16.1375 31.2604 16.0688 31.2667 15.9937 31.2604C15.9 31.2479 15.7562 31.3043 15.7624 31.1351C15.7687 31.016 15.8812 31.0097 15.975 31.0035C16.1376 30.9972 16.3064 30.9972 16.4689 31.0035C16.5502 31.0035 16.6565 31.0035 16.6565 31.1163C16.6565 31.2416 16.5502 31.2479 16.4564 31.2542C16.3814 31.2604 16.3001 31.2604 16.2126 31.2604Z" fill="#01467C"/>
<path d="M16.1938 1.09043C16.05 1.0403 15.7874 1.17191 15.7811 0.958823C15.7749 0.770808 16.0375 0.808411 16.1875 0.820946C16.3501 0.83348 16.6377 0.726939 16.6377 0.927487C16.6502 1.18444 16.3438 1.01523 16.1938 1.09043Z" fill="#01457E"/>
<path d="M26.9667 4.42456C26.998 4.44336 27.0355 4.46216 27.0667 4.4935C27.2293 4.65018 27.3919 4.81312 27.5544 4.9698C27.617 5.02621 27.6357 5.08888 27.5669 5.15782C27.5044 5.22049 27.4544 5.18915 27.4106 5.14528C27.2481 4.98234 27.0855 4.82566 26.9292 4.65644C26.8479 4.5687 26.8416 4.48723 26.9667 4.42456Z" fill="#00457F"/>
<path d="M5.09564 4.43075C5.18318 4.47462 5.22694 4.54356 5.15191 4.62504C4.97685 4.81305 4.78927 4.9948 4.59545 5.16401C4.50791 5.23922 4.45789 5.15148 4.45164 5.08254C4.43288 4.96346 4.9831 4.41822 5.09564 4.43075Z" fill="#01437D"/>
<path d="M4.57047 26.8672C4.60173 26.8923 4.6455 26.9173 4.68301 26.9549C4.82682 27.0991 4.97062 27.2495 5.11443 27.3936C5.16445 27.45 5.21447 27.5002 5.14569 27.5754C5.08317 27.638 5.0269 27.6004 4.98313 27.5628C4.81431 27.3999 4.63924 27.2369 4.48293 27.0615C4.40165 26.98 4.46418 26.9173 4.57047 26.8672Z" fill="#00457F"/>
<path d="M19.7329 14.1011C19.7266 13.606 19.3202 13.1548 18.8263 13.1297C18.6012 13.1172 18.5199 13.0608 18.5261 12.8226C18.5511 12.1081 18.276 11.519 17.7446 11.0302C16.7504 10.1215 14.906 10.2719 14.0807 11.331C13.7305 11.7823 13.5992 12.2899 13.6055 12.8477C13.6055 12.9855 13.618 13.0984 13.4116 13.1297C12.6801 13.2237 12.3612 13.5997 12.355 14.3392C12.355 15.7682 12.355 17.1971 12.355 18.626C12.355 19.3843 12.7927 19.8293 13.5554 19.8293C14.387 19.8355 15.2186 19.8293 16.0564 19.8293C16.4503 19.8293 16.8505 19.8293 17.2444 19.8293C17.6383 19.8293 18.0384 19.8293 18.4324 19.8293C19.389 19.823 19.7829 19.4344 19.7766 18.4818C19.7641 17.0153 19.7454 15.5551 19.7329 14.1011Z" fill="#FCFCFD"/>
<path d="M27.5109 26.886C27.5922 26.9174 27.661 26.9738 27.5797 27.0615C27.4109 27.2433 27.2546 27.4375 27.0483 27.5754C26.9607 27.6318 26.8857 27.6381 26.8794 27.5065C26.8732 27.4375 27.4422 26.8798 27.5109 26.886Z" fill="#00447E"/>
<path d="M16.8753 14.3894C16.8753 14.4771 17.0129 14.452 17.1067 14.4834C17.8507 14.709 18.1946 15.4673 17.8695 16.1755C17.8007 16.3259 17.7882 16.4325 17.8882 16.5703C18.4322 17.3224 18.0383 18.4317 17.0879 18.5758C17.0191 18.5884 16.9378 18.5884 16.9003 18.6698C16.8566 18.7513 16.9316 18.9518 16.7815 18.9644C16.5877 18.9832 16.3876 18.9707 16.1875 18.9707C16.1563 18.9707 16.0875 18.9707 16.0875 18.9707C16.0875 18.9456 16.0875 18.8578 16.0875 18.8328C16.0875 18.7137 16.075 18.6134 15.9249 18.6134C15.7249 18.6134 15.7561 18.8453 15.7561 18.9644C15.556 18.9644 15.3872 18.9644 15.1809 18.9644C15.0934 18.9644 14.9746 18.9644 14.9746 18.9644C14.9746 18.8641 14.9808 18.5445 14.9808 18.5445C14.9808 18.5445 14.6057 18.5508 14.4494 18.5508C14.4494 18.4129 14.4431 18.2813 14.4431 18.1434C14.4431 17.9679 14.4181 17.7799 14.6932 17.7924C14.8245 17.7987 14.8183 17.6796 14.8183 17.5856C14.8183 16.8712 14.8183 16.1504 14.8183 15.436C14.8183 15.3545 14.8245 15.2354 14.7182 15.2417C14.3743 15.2605 14.4431 15.0161 14.4431 14.8218C14.4431 14.709 14.4494 14.5962 14.4494 14.4771C14.6307 14.4771 14.7933 14.4834 14.9871 14.4834C15.0559 14.4834 15.0559 14.1888 15.0559 14.076C15.0559 14.0509 15.0746 14.0321 15.0934 14.0321C15.1371 14.0321 15.2184 14.0259 15.3497 14.0259C15.4623 14.0259 15.6061 14.0259 15.6748 14.0259C15.6936 14.0259 15.7124 14.0447 15.7124 14.0635C15.7124 14.1136 15.7061 14.1888 15.7186 14.2578C15.7436 14.3706 15.7874 14.452 15.9124 14.4583C16.0312 14.4646 16.0875 14.4019 16.1188 14.2828C16.1375 14.2264 16.1438 14.1387 16.15 14.0823C16.15 14.0509 16.175 14.0321 16.2063 14.0321H16.4126C16.5502 14.0321 16.719 14.0384 16.8128 14.0384C16.8503 14.0384 16.8816 14.0697 16.8753 14.1074C16.8691 14.1763 16.8753 14.3142 16.8753 14.3894Z" fill="#76DDFD"/>
<path d="M16.0498 13.0858C15.6309 13.0858 15.2183 13.0795 14.7993 13.0921C14.6055 13.0983 14.5555 13.0231 14.5492 12.8414C14.5242 12.0016 14.9056 11.4626 15.6934 11.2495C16.4187 11.0553 17.1878 11.4125 17.5254 12.0956C17.6567 12.3588 17.638 12.6471 17.6192 12.9229C17.6067 13.0921 17.4504 13.0858 17.3316 13.0921C16.9064 13.0921 16.4813 13.0858 16.0498 13.0858Z" fill="#76DDFD"/>
<path d="M16.3689 17.7923C16.3377 17.7923 16.3064 17.7923 16.2751 17.7923C15.5499 17.7861 15.5499 17.7861 15.5811 17.0528C15.5874 16.9275 15.6311 16.8523 15.7624 16.8523C16.1688 16.8523 16.569 16.8397 16.9754 16.8648C17.2255 16.8773 17.3818 17.1029 17.3506 17.3474C17.3193 17.6106 17.2067 17.8049 16.9004 17.7986C16.7191 17.7923 16.544 17.7923 16.3689 17.7923Z" fill="#FCFCFD"/>
<path d="M16.3063 15.2291C16.4626 15.2291 16.6189 15.2228 16.7752 15.2291C17.0315 15.2353 17.1816 15.3732 17.1878 15.6364C17.2004 15.8746 17.1003 16.025 16.844 16.0626C16.4938 16.119 16.1437 16.0877 15.7936 16.0877C15.6372 16.0877 15.5872 15.9749 15.5872 15.8558C15.5872 15.298 15.5497 15.2291 16.0937 15.2291C16.1624 15.2228 16.2375 15.2228 16.3063 15.2291Z" fill="#F7FCFD"/>
</g>
</svg>
