<svg width="32" height="32" viewBox="0 0 32 32" fill="none" xmlns="http://www.w3.org/2000/svg">
<circle cx="16" cy="16" r="16" fill="#E1AA4C"/>
<path fill-rule="evenodd" clip-rule="evenodd" d="M25.0415 9.98098L24.9351 9.33577C24.9218 9.28415 24.9085 9.23253 24.8819 9.18091C24.8553 9.1422 24.8155 9.10349 24.7756 9.07768C24.7357 9.05187 24.6825 9.02606 24.6293 9.01316C24.5761 9.00025 24.5229 9.00025 24.483 9.01316C24.4564 9.01316 24.4165 9.01316 24.3899 9.02606C24.3367 9.03897 24.2835 9.06477 24.2436 9.10349C24.2037 9.1422 24.1638 9.18091 24.1506 9.23253L20.826 16.1622L20.7728 16.2525C20.7462 16.2525 20.7196 16.2396 20.6797 16.2396H11.411L7.83378 9.23253C7.80719 9.19382 7.76729 9.1422 7.7407 9.10349C7.7008 9.06477 7.64761 9.03897 7.59442 9.02606C7.54123 9.00025 7.48803 9.00025 7.43484 9.01316C7.38165 9.01316 7.32846 9.02606 7.27526 9.05187C7.23537 9.07768 7.19547 9.10349 7.15558 9.1422C7.12898 9.19382 7.10239 9.23253 7.08909 9.28415C7.07579 9.30996 7.07579 9.33577 7.07579 9.37448L6.96941 10.0068C6.87632 10.6391 6.83643 11.2714 6.83643 11.9166C6.83643 13.3103 7.0093 14.6911 7.34175 16.046C7.56782 16.9622 7.87368 17.8655 8.25932 18.7301C8.64497 19.5947 9.1104 20.4206 9.65562 21.2078C10.9056 23.0144 12.7142 24.7823 15.3206 26.176L15.7329 26.3953C15.7462 26.4082 15.7594 26.4211 15.7727 26.4211C15.8126 26.4469 15.8525 26.4598 15.8924 26.4598C15.9057 26.4598 15.9057 26.4598 15.919 26.4598C15.9456 26.4598 15.9722 26.4728 15.9855 26.4728H15.9988C16.0653 26.4728 16.1318 26.4598 16.1983 26.434L16.6903 26.163C19.2834 24.7565 21.1053 22.9886 22.3553 21.1949C23.4458 19.6205 24.2303 17.8655 24.6692 16.0331C25.0016 14.6782 25.1612 13.2974 25.1612 11.9037C25.1745 11.2714 25.1346 10.6262 25.0415 9.98098ZM20.3606 17.0268L15.9855 25.2339L11.8099 17.0268H20.3606ZM10.3205 20.7561C9.28328 19.2592 8.55188 17.6075 8.12634 15.8525C7.80719 14.562 7.64761 13.2458 7.64761 11.9166C7.64761 11.5166 7.66091 11.1295 7.6875 10.7294L15.0414 25.1049C12.9004 23.8403 11.3844 22.3046 10.3205 20.7561ZM23.8846 15.8525C23.459 17.5946 22.7144 19.2592 21.6904 20.7561C20.6133 22.3046 19.1106 23.8145 16.9829 25.1049L21.5441 16.5493L21.5574 16.5364L24.3234 10.7811C24.35 11.1553 24.3633 11.5424 24.3633 11.9166C24.3633 13.2458 24.2037 14.562 23.8846 15.8525ZM9.54924 8.78088C9.53594 8.72926 9.53594 8.67764 9.53594 8.62603C9.53594 8.57441 9.54924 8.52279 9.57583 8.47117C9.60243 8.41956 9.62903 8.38084 9.66892 8.34213C9.70882 8.31632 9.76201 8.29051 9.8152 8.27761L15.8791 6.41938C15.9589 6.39357 16.0387 6.39357 16.1185 6.41938L22.3287 8.32923C22.3819 8.34213 22.4351 8.36794 22.475 8.39375C22.5149 8.43246 22.5415 8.47117 22.5681 8.52279C22.5947 8.57441 22.608 8.62603 22.608 8.67764C22.608 8.72926 22.608 8.78088 22.5947 8.8325C22.5814 8.88411 22.5681 8.93573 22.5282 8.97444C22.4883 9.01316 22.4484 9.05187 22.3952 9.07768C22.3553 9.10349 22.3021 9.11639 22.2356 9.11639C22.1824 9.11639 22.1292 9.11639 22.076 9.10349L15.9988 7.23236L10.0546 9.05187C10.0014 9.06477 9.94818 9.06477 9.89499 9.06477C9.8418 9.06477 9.7886 9.05187 9.73541 9.02606C9.68222 9.00025 9.64232 8.97444 9.60243 8.92283C9.58913 8.88411 9.56254 8.8325 9.54924 8.78088Z" fill="white"/>
</svg>
