<svg width="32" height="32" viewBox="0 0 32 32" fill="none" xmlns="http://www.w3.org/2000/svg">
<mask id="mask0_282_1268" style="mask-type:alpha" maskUnits="userSpaceOnUse" x="0" y="0" width="32" height="32">
<rect width="32" height="32" fill="#D9D9D9"/>
</mask>
<g mask="url(#mask0_282_1268)">
<path d="M23.2152 16.5539C22.8416 16.6165 22.9786 16.7916 23.1031 16.9792C23.4893 17.542 23.8006 18.1549 24.0622 18.7928C24.5978 20.1186 24.548 20.2061 23.3772 21.0191C22.4181 21.682 21.3344 22.0948 20.3505 22.6951C20.1885 22.8077 20.064 22.8827 19.927 22.8827C19.8273 22.8827 19.7775 22.7577 19.8398 22.6826C19.9021 22.5951 19.9768 22.52 20.0391 22.445C21.2971 21.0441 20.338 20.4438 19.354 19.8059C18.8807 19.5682 18.3825 19.4056 17.8594 19.3431C17.685 19.3181 17.5231 19.2681 17.3736 19.1805C17.0498 19.0054 16.7259 18.8428 16.4021 18.6677C15.0693 17.542 14.4715 16.0036 14.048 14.3901C13.8985 13.8148 13.6245 13.3645 13.1263 13.0518C12.9145 12.9393 12.6654 12.8017 12.354 12.8017C12.2295 12.8017 12.0925 12.8142 11.9679 12.8517C11.806 12.8892 11.7188 12.9267 11.4074 13.0143C10.3238 13.352 9.30242 13.6772 8.25616 14.0524C7.84513 14.19 7.43409 14.3401 7.14762 14.6903C6.93587 15.0655 6.61203 15.3282 6.23836 15.5033C5.87715 15.6784 5.49103 15.6909 5.25438 15.2907C5.03018 14.9154 5.05509 14.5402 5.40385 14.2275C6.01417 13.6772 6.78641 13.6022 7.27217 14.0524C7.5711 14.0899 7.82021 13.9774 8.06932 13.8273C8.92876 13.327 9.80064 12.8517 10.7348 12.5265C11.0836 12.2388 11.5818 12.1763 11.8683 11.8136C12.3789 10.2501 13.6619 9.43715 15.2437 9.71231C15.3932 9.73733 15.5925 9.79987 15.7793 9.8624C16.0533 9.94996 16.3149 10.0625 16.5515 10.2126C16.7508 10.3377 16.9626 10.4628 17.1868 10.5378C17.3487 10.6003 17.4857 10.6879 17.6227 10.7755C17.7722 10.8755 17.9465 10.9381 18.1209 10.9881C18.3202 11.0381 18.4946 11.1257 18.6814 11.2132C18.6939 11.2257 18.7063 11.2257 18.7188 11.2382C19.2668 11.5509 19.653 11.5009 20.0391 10.9005C20.6618 9.92494 21.4715 9.07443 22.2811 8.23642C23.153 7.31087 24.1369 6.52289 25.1583 5.77244C25.5444 5.49728 25.7063 5.55981 25.806 6.01008C25.8932 6.34779 26.0675 6.67298 26.1423 7.01069C26.2419 7.39842 26.3789 7.34839 26.653 7.16078C27.3006 6.71051 27.9483 6.26023 28.6209 5.84749C29.007 5.62235 29.007 5.34718 28.8327 5.00948C28.4715 4.28404 27.8487 3.85879 27.0764 3.75873C26.3789 3.67118 25.7686 3.39601 25.1334 3.14586C23.128 2.32036 21.0978 1.46985 18.9804 0.919519C18.6814 0.756921 18.3576 0.681876 18.0088 0.656861C17.6476 0.506771 17.274 0.419218 16.8878 0.419218C16.3647 0.231605 15.8291 0.281635 15.2935 0.369188C13.3629 0.694384 11.5569 1.40731 9.71345 2.0452C8.05687 2.62054 6.49993 3.47106 4.75616 3.83377C3.63516 4.07142 3.19922 4.80936 3.19922 5.99758C3.19922 9.69981 3.28641 13.402 3.64762 17.0918C3.84691 19.143 4.60669 20.8815 5.96434 22.4075C8.94121 25.7595 12.3167 28.6737 15.7419 31.538C16.0782 31.8256 16.2775 31.7256 16.4893 31.4254C16.6885 31.2503 16.9003 31.0877 17.0996 30.9126C17.5604 30.5123 17.7224 30.3998 18.2455 29.937C18.6067 29.6368 18.8433 29.4117 19.2295 29.074C20.0266 28.3861 20.5747 27.9233 21.4964 27.0603C22.7419 25.8595 23.9626 24.6338 25.2206 23.4581C27.4999 21.3193 28.7828 18.7553 28.7704 15.5909C28.7704 15.1031 28.8949 14.6278 28.8078 14.0524C27.1387 15.4408 25.2704 16.2162 23.2152 16.5539Z" fill="url(#paint0_linear_282_1268)"/>
</g>
<defs>
<linearGradient id="paint0_linear_282_1268" x1="3.19922" y1="15.9968" x2="28.962" y2="15.9968" gradientUnits="userSpaceOnUse">
<stop stop-color="#0097D8"/>
<stop offset="0.3827" stop-color="#0097D8"/>
<stop offset="0.4553" stop-color="#019DD3"/>
<stop offset="0.5698" stop-color="#085B92"/>
</linearGradient>
</defs>
</svg>
