<svg width="30" height="30" viewBox="0 0 30 30" fill="none" xmlns="http://www.w3.org/2000/svg">
<path fill-rule="evenodd" clip-rule="evenodd" d="M10.6317 20.9667H7.72062C7.10891 20.9667 6.80676 20.9667 6.62252 20.8488C6.42353 20.7198 6.30193 20.5061 6.28719 20.2702C6.27612 20.0529 6.42722 19.7875 6.72938 19.2568L13.9172 6.58734C14.223 6.04934 14.3778 5.78034 14.5731 5.68085C14.7831 5.57399 15.0337 5.57399 15.2438 5.68085C15.4391 5.78034 15.5938 6.04934 15.8997 6.58734L17.3773 9.16678L17.3849 9.17995C17.7152 9.75712 17.8827 10.0498 17.9559 10.357C18.0369 10.6923 18.0369 11.0461 17.9559 11.3814C17.8822 11.6909 17.7164 11.9857 17.381 12.5716L13.6054 19.2458L13.5957 19.2629C13.2631 19.8448 13.0946 20.1398 12.8611 20.3623C12.6068 20.6055 12.301 20.7823 11.9656 20.882C11.6598 20.9667 11.3171 20.9667 10.6317 20.9667ZM17.9831 20.9667H22.1544C22.7698 20.9667 23.0793 20.9667 23.2637 20.8452C23.4626 20.7162 23.5879 20.4987 23.599 20.263C23.6096 20.0527 23.4618 19.7976 23.1722 19.2978C23.1622 19.2808 23.1522 19.2635 23.1421 19.2459L21.0526 15.6715L21.0289 15.6313C20.7353 15.1348 20.5871 14.8841 20.3967 14.7871C20.1868 14.6803 19.9397 14.6803 19.7298 14.7871C19.5382 14.8866 19.3834 15.1483 19.0776 15.6752L16.9956 19.2496L16.9884 19.2619C16.6837 19.788 16.5314 20.0509 16.5423 20.2666C16.5571 20.5025 16.6787 20.7198 16.8776 20.8488C17.0582 20.9667 17.3678 20.9667 17.9831 20.9667Z" fill="#7770E0"/>
</svg>
