<svg width="74" height="74" viewBox="0 0 74 74" fill="none" xmlns="http://www.w3.org/2000/svg">
<g filter="url(#filter0_d_937_646)">
<path d="M16 10C16 4.47715 20.4772 0 26 0H58V32C58 37.5228 53.5228 42 48 42H16V10Z" fill="url(#paint0_linear_937_646)"/>
<path d="M17 10C17 5.02944 21.0294 1 26 1H57V32C57 36.9706 52.9706 41 48 41H17V10Z" stroke="url(#paint1_linear_937_646)" stroke-width="2"/>
</g>
<path d="M27 10C26.4477 10 26 10.4477 26 11C26 11.5523 26.4477 12 27 12V10ZM47 12C47.5523 12 48 11.5523 48 11C48 10.4477 47.5523 10 47 10V12ZM36 31C36 31.5523 36.4477 32 37 32C37.5523 32 38 31.5523 38 31H36ZM37 15L37.7071 14.2929C37.3166 13.9024 36.6834 13.9024 36.2929 14.2929L37 15ZM40.2929 19.7071C40.6834 20.0976 41.3166 20.0976 41.7071 19.7071C42.0976 19.3166 42.0976 18.6834 41.7071 18.2929L40.2929 19.7071ZM32.2929 18.2929C31.9024 18.6834 31.9024 19.3166 32.2929 19.7071C32.6834 20.0976 33.3166 20.0976 33.7071 19.7071L32.2929 18.2929ZM27 12H47V10H27V12ZM38 31V15H36V31H38ZM36.2929 15.7071L40.2929 19.7071L41.7071 18.2929L37.7071 14.2929L36.2929 15.7071ZM36.2929 14.2929L32.2929 18.2929L33.7071 19.7071L37.7071 15.7071L36.2929 14.2929Z" fill="#F7F7FC"/>
<defs>
<filter id="filter0_d_937_646" x="0" y="0" width="74" height="74" filterUnits="userSpaceOnUse" color-interpolation-filters="sRGB">
<feFlood flood-opacity="0" result="BackgroundImageFix"/>
<feColorMatrix in="SourceAlpha" type="matrix" values="0 0 0 0 0 0 0 0 0 0 0 0 0 0 0 0 0 0 127 0" result="hardAlpha"/>
<feOffset dy="16"/>
<feGaussianBlur stdDeviation="8"/>
<feComposite in2="hardAlpha" operator="out"/>
<feColorMatrix type="matrix" values="0 0 0 0 0.333333 0 0 0 0 0.309804 0 0 0 0 0.847059 0 0 0 0.25 0"/>
<feBlend mode="normal" in2="BackgroundImageFix" result="effect1_dropShadow_937_646"/>
<feBlend mode="normal" in="SourceGraphic" in2="effect1_dropShadow_937_646" result="shape"/>
</filter>
<linearGradient id="paint0_linear_937_646" x1="16" y1="0" x2="58" y2="42" gradientUnits="userSpaceOnUse">
<stop stop-color="#7770E0"/>
<stop offset="1" stop-color="#554FD8"/>
</linearGradient>
<linearGradient id="paint1_linear_937_646" x1="16" y1="0" x2="58" y2="42" gradientUnits="userSpaceOnUse">
<stop stop-color="white"/>
<stop offset="0.578125" stop-color="#7770E0"/>
</linearGradient>
</defs>
</svg>
