<svg width="30" height="30" viewBox="0 0 30 30" fill="none" xmlns="http://www.w3.org/2000/svg">
<path fill-rule="evenodd" clip-rule="evenodd" d="M11.8641 13.7107L15.0016 10.5746L18.1403 13.7133L19.9649 11.8875L15.0016 6.9231L10.0383 11.8862L11.8641 13.7107ZM6.9231 15.0003L8.74826 13.1752L10.5734 15.0003L8.74826 16.8254L6.9231 15.0003ZM15.0016 19.4267L11.8641 16.2893L10.0357 18.1125L10.0383 18.1151L15.0016 23.0769L19.9649 18.1125L19.9661 18.1112L18.1403 16.288L15.0016 19.4267ZM19.4266 15.0007L21.2518 13.1756L23.0769 15.0007L21.2518 16.8259L19.4266 15.0007ZM15.0016 13.1468L16.8529 14.9994H16.8542L16.8529 15.0007L15.0016 16.8532L13.1502 15.0032L13.1477 14.9994L13.1502 14.9968L13.4743 14.6728L13.6325 14.5158L15.0016 13.1468Z" fill="#7770E0"/>
</svg>
