<svg width="57" height="57" viewBox="0 0 57 57" fill="none" xmlns="http://www.w3.org/2000/svg">
<g opacity="0.8">
<path d="M35.0278 31.6074C35.1241 31.7573 35.2635 31.8744 35.4242 31.9515C36.6522 32.541 37.5001 33.7963 37.5001 35.2495V37.4995C37.5001 37.9655 37.8778 38.3433 38.3438 38.3433C38.8098 38.3433 39.1876 37.9655 39.1876 37.4995V35.2495C39.1876 32.2982 36.7951 29.9058 33.8438 29.9058C33.7215 29.9058 33.6664 30.0635 33.7589 30.1435C34.2485 30.5673 34.6766 31.0603 35.0278 31.6074Z" fill="#9664FF"/>
<path fill-rule="evenodd" clip-rule="evenodd" d="M22.5935 31.5933C20.5742 31.5933 18.9373 33.2302 18.9373 35.2495V37.4995C18.9373 37.9655 18.5595 38.3433 18.0935 38.3433C17.6275 38.3433 17.2498 37.9655 17.2498 37.4995V35.2495C17.2498 32.2982 19.6422 29.9058 22.5935 29.9058H29.3435C32.2948 29.9058 34.6873 32.2982 34.6873 35.2495V37.4995C34.6873 37.9655 34.3095 38.3433 33.8435 38.3433C33.3775 38.3433 32.9998 37.9655 32.9998 37.4995V35.2495C32.9998 33.2302 31.3628 31.5933 29.3435 31.5933H22.5935Z" fill="#9664FF"/>
<path d="M31.4477 25.7522C31.5477 25.562 31.7068 25.41 31.892 25.3011C32.7231 24.8124 33.2809 23.9088 33.2809 22.875C33.2809 21.8412 32.7231 20.9377 31.892 20.4489C31.7068 20.34 31.5477 20.1881 31.4477 19.9978C31.168 19.4664 30.8133 18.9805 30.3976 18.5545C30.3327 18.4879 30.3754 18.375 30.4684 18.375C32.9536 18.375 34.9684 20.3897 34.9684 22.875C34.9684 25.3603 32.9536 27.375 30.4684 27.375C30.3754 27.375 30.3327 27.2621 30.3976 27.1955C30.8133 26.7695 31.168 26.2836 31.4477 25.7522Z" fill="#9664FF"/>
<path fill-rule="evenodd" clip-rule="evenodd" d="M25.9685 25.6875C27.5218 25.6875 28.781 24.4283 28.781 22.875C28.781 21.3217 27.5218 20.0625 25.9685 20.0625C24.4152 20.0625 23.156 21.3217 23.156 22.875C23.156 24.4283 24.4152 25.6875 25.9685 25.6875ZM25.9685 27.375C28.4538 27.375 30.4685 25.3603 30.4685 22.875C30.4685 20.3897 28.4538 18.375 25.9685 18.375C23.4832 18.375 21.4685 20.3897 21.4685 22.875C21.4685 25.3603 23.4832 27.375 25.9685 27.375Z" fill="#9664FF"/>
</g>
<path d="M57 28.5C57 44.2401 44.2401 57 28.5 57C12.7599 57 0 44.2401 0 28.5C0 12.7599 12.7599 0 28.5 0C44.2401 0 57 12.7599 57 28.5ZM5.7 28.5C5.7 41.0921 15.9079 51.3 28.5 51.3C41.0921 51.3 51.3 41.0921 51.3 28.5C51.3 15.9079 41.0921 5.7 28.5 5.7C15.9079 5.7 5.7 15.9079 5.7 28.5Z" fill="#9664FF"/>
</svg>
