<svg width="32" height="32" viewBox="0 0 32 32" fill="none" xmlns="http://www.w3.org/2000/svg">
<rect width="32" height="32" rx="6" fill="#F7F7FC"/>
<g clip-path="url(#clip0_383_1743)">
<path d="M26.0001 20.5092C26.0001 22.1897 26.0001 23.8792 26.0001 25.5597C26.0001 27.0346 25.0642 28.0001 23.6518 28.009C21.8493 28.009 20.0382 28.009 18.2358 28.009C18.1058 28.009 17.9759 28.0179 17.8459 27.9911C17.6206 27.9464 17.4906 27.7766 17.4819 27.5531C17.4733 27.3028 17.6032 27.124 17.8459 27.0704C17.9845 27.0436 18.1318 27.0525 18.2792 27.0525C19.8823 27.0525 21.4854 27.0525 23.0885 27.0525C23.2185 27.0525 23.3485 27.0525 23.4785 27.0525C23.7038 27.0436 24.0244 27.0972 24.111 26.8916C24.1977 26.695 23.8857 26.5519 23.7471 26.4C22.3519 24.9519 20.9481 23.5127 19.5616 22.0646C19.3277 21.8232 19.189 21.7785 18.9464 22.0467C18.5391 22.5115 18.1058 22.9406 17.6639 23.3786C16.6847 24.3529 15.3415 24.3529 14.3623 23.3875C13.9031 22.9317 13.4525 22.4668 13.0105 21.9931C12.8285 21.8053 12.7072 21.7875 12.5166 21.9841C11.0261 23.5395 9.51832 25.0859 8.01918 26.6324C7.94986 26.7039 7.82854 26.7665 7.86321 26.8827C7.89787 27.0168 8.05385 26.9989 8.15783 27.0168C8.33114 27.0436 8.50445 27.0525 8.67776 27.0525C10.3675 27.0525 12.0573 27.0525 13.7471 27.0525C13.8771 27.0525 14.0071 27.0436 14.137 27.0704C14.3883 27.1151 14.5183 27.2849 14.5183 27.5352C14.5183 27.7676 14.3797 27.9285 14.163 27.9822C14.0417 28.0179 13.9031 28.009 13.7731 28.009C11.9533 28.009 10.1336 28.009 8.31381 28.009C6.95333 28.009 6.00012 27.0257 6.00012 25.6223C6.00012 22.1987 6.00012 18.7661 5.99146 15.3425C5.99146 14.672 6.20809 14.1268 6.65003 13.653C6.66736 13.6351 6.69336 13.6083 6.71069 13.5904C7.15263 13.1167 7.75055 12.7233 7.99319 12.1602C8.25315 11.5613 8.05385 10.8104 8.07118 10.131C8.07984 9.83604 8.07118 9.53212 8.07118 9.23713C8.09717 8.24491 8.81641 7.49403 9.78695 7.47615C10.6102 7.46721 11.4334 7.46721 12.2566 7.47615C12.5252 7.47615 12.7246 7.3957 12.9065 7.19904C13.4785 6.59119 14.0764 6.00122 14.6483 5.39337C14.8649 5.16096 15.1076 5.08944 15.4109 5.04475C16.5547 4.87491 17.4733 5.21459 18.1492 6.20682C18.8684 7.26162 19.8389 7.69963 21.0868 7.47615C21.4074 7.42252 21.754 7.46721 22.0833 7.46721C23.1925 7.47615 23.9031 8.20021 23.9031 9.33546C23.9117 10.14 23.9117 10.9445 23.9031 11.749C23.9031 12.0261 23.9811 12.2317 24.1717 12.4194C24.5616 12.8127 24.9343 13.2329 25.3242 13.6351C25.7662 14.0999 26.0001 14.6542 25.9915 15.3246C25.9915 17.0498 26.0001 18.775 26.0001 20.5092ZM16.0175 8.42369C14.085 8.42369 12.1526 8.42369 10.2116 8.42369C9.31035 8.42369 9.00705 8.72761 9.00705 9.64833C9.00705 11.7669 9.01572 13.8765 8.99839 15.995C8.99839 16.3436 9.10237 16.576 9.33634 16.8174C11.1821 18.7035 13.0279 20.5896 14.8649 22.4847C15.6708 23.316 16.3381 23.325 17.1353 22.5026C18.9811 20.5986 20.8268 18.6856 22.6812 16.7906C22.8892 16.576 22.9845 16.3526 22.9845 16.0486C22.9759 13.9212 22.9845 11.7937 22.9759 9.65726C22.9759 8.73655 22.6726 8.43262 21.7714 8.43262C19.8563 8.42369 17.9412 8.42369 16.0175 8.42369ZM6.98799 15.8609C6.90133 15.9503 6.936 16.0576 6.936 16.1559C6.936 19.2577 6.936 22.3506 6.936 25.4524C6.936 25.5418 6.92733 25.6312 6.94466 25.7206C6.97066 25.8458 6.95333 26.0245 7.07464 26.0782C7.22196 26.1407 7.29128 25.962 7.37794 25.8815C8.84241 24.3798 10.2895 22.8601 11.7627 21.3673C12.0227 21.0992 12.0053 20.9561 11.754 20.6969C10.2549 19.1683 8.76442 17.6308 7.27395 16.0933C7.19596 16.0039 7.1353 15.8699 6.98799 15.8609ZM25.0729 15.7715C24.9429 15.8788 24.8996 15.9056 24.8563 15.9503C23.2965 17.5593 21.7367 19.1773 20.1682 20.7774C19.9429 21.0098 20.0209 21.126 20.2029 21.3137C21.6067 22.7529 23.0019 24.201 24.4057 25.6402C24.5616 25.8011 24.7263 26.1407 24.9083 26.0603C25.1596 25.953 25.0729 25.5955 25.0729 25.3273C25.0729 22.3059 25.0729 19.2845 25.0729 16.2542C25.0729 16.1291 25.0729 16.0039 25.0729 15.7715ZM14.0157 7.43146C15.3935 7.43146 16.6327 7.43146 18.0105 7.43146C17.5166 6.93981 17.118 6.53756 16.702 6.15318C16.4767 5.94759 15.5235 5.94759 15.3069 6.15318C14.8909 6.53756 14.501 6.93981 14.0157 7.43146ZM8.07118 13.7334C8.03652 13.7066 8.01052 13.6887 7.97586 13.6619C7.75922 13.8943 7.54258 14.1268 7.32594 14.3592C7.23929 14.4486 7.16996 14.5558 7.28262 14.672C7.52525 14.9223 7.73322 15.2173 8.07118 15.4229C8.07118 14.824 8.07118 14.2787 8.07118 13.7334ZM24.0417 13.644C24.0157 13.6709 23.9811 13.6887 23.9551 13.7156C23.9551 14.2787 23.9551 14.8329 23.9551 15.5481C24.2497 15.2084 24.4577 14.967 24.6743 14.7257C24.7783 14.6095 24.8129 14.5022 24.7003 14.377C24.475 14.1446 24.2584 13.8943 24.0417 13.644Z" fill="url(#paint0_linear_383_1743)"/>
<path d="M16.9359 18.7928C16.3987 18.7571 15.7314 18.8554 15.0815 18.6945C13.2098 18.2297 11.7973 16.3793 11.8493 14.4574C11.9099 12.3657 13.3224 10.6405 15.2808 10.265C17.6205 9.82701 19.8649 11.5791 20.1075 14.0373C20.1595 14.5915 20.1942 15.1368 20.0989 15.682C19.9602 16.4687 19.267 17.0318 18.5131 16.9782C17.7158 16.9246 17.1179 16.2899 17.0833 15.4586C17.0659 15.0742 17.0659 14.6809 17.0313 14.2965C16.9619 13.5724 16.5633 13.1613 15.9221 13.0808C15.3762 13.0182 14.7436 13.4384 14.5703 13.9926C14.3623 14.6183 14.5789 15.2798 15.1162 15.6284C15.3502 15.7804 15.6101 15.8608 15.8961 15.8608C16.1127 15.8608 16.3294 15.8519 16.546 15.8787C16.7886 15.9055 16.9446 16.0485 16.9706 16.3078C16.9966 16.567 16.884 16.7726 16.6413 16.8173C15.7314 16.9961 14.8736 16.853 14.1976 16.1469C13.5044 15.4228 13.3398 14.5289 13.695 13.5903C14.033 12.6964 14.7002 12.178 15.6361 12.1154C17.0399 12.0349 18.0018 12.9914 18.0105 14.4395C18.0105 14.7703 17.9931 15.101 18.0278 15.4228C18.0625 15.7267 18.2444 15.9502 18.5737 15.9502C18.903 15.9592 19.111 15.7536 19.137 15.4496C19.2496 14.1982 19.111 13.0093 18.1405 12.0796C17.1526 11.1321 15.6794 10.9265 14.4836 11.588C13.3571 12.2316 12.6552 13.6261 12.8458 14.8865C13.0711 16.3793 14.1023 17.5145 15.4455 17.7559C16.3207 17.9078 17.2046 17.8095 18.0798 17.8363C18.2358 17.8453 18.4004 17.8363 18.5564 17.8363C18.8857 17.8363 19.1457 17.9347 19.137 18.328C19.1283 18.6945 18.8857 18.7928 18.5737 18.7928C18.0711 18.7928 17.5685 18.7928 16.9359 18.7928Z" fill="url(#paint1_linear_383_1743)"/>
</g>
<defs>
<linearGradient id="paint0_linear_383_1743" x1="15.9958" y1="5.00293" x2="15.9958" y2="28.0104" gradientUnits="userSpaceOnUse">
<stop stop-color="#7770E0"/>
<stop offset="1" stop-color="#554FD8"/>
</linearGradient>
<linearGradient id="paint1_linear_383_1743" x1="16.0034" y1="10.1978" x2="16.0034" y2="18.7928" gradientUnits="userSpaceOnUse">
<stop stop-color="#7770E0"/>
<stop offset="1" stop-color="#554FD8"/>
</linearGradient>
<clipPath id="clip0_383_1743">
<rect width="20" height="23" fill="white" transform="translate(6 5)"/>
</clipPath>
</defs>
</svg>
