<svg width="122" height="43" viewBox="0 0 122 43" fill="none" xmlns="http://www.w3.org/2000/svg">
<path d="M56.1045 12.9971H62.1265C62.9063 12.9971 63.6428 13.1054 64.3577 13.322C65.0509 13.517 65.7224 13.7986 66.3506 14.1668C66.9571 14.5351 67.5203 14.9683 68.0402 15.4665C68.5384 15.9648 68.9933 16.5496 69.3399 17.1562C69.6865 17.7844 69.9681 18.4342 70.1631 19.1491C70.358 19.8639 70.4664 20.6004 70.4664 21.3802C70.4664 22.1384 70.358 22.8966 70.1631 23.6114C69.9681 24.3263 69.6865 24.9761 69.3183 25.6043C68.95 26.2108 68.5168 26.7957 67.9969 27.2939C67.477 27.7922 66.9138 28.2254 66.2856 28.5937C65.6574 28.9403 64.9859 29.2219 64.2927 29.4168C63.5779 29.6118 62.8414 29.7201 62.0615 29.7201H56.1045V12.9971ZM62.0399 27.0557C62.5814 27.0557 63.1013 26.9907 63.5995 26.839C64.0977 26.7091 64.5526 26.5141 64.9859 26.2542C65.4191 25.9942 65.809 25.691 66.1556 25.3444C66.5022 24.9978 66.8055 24.6079 67.0438 24.1746C67.282 23.7414 67.477 23.2865 67.607 22.7883C67.737 22.3117 67.8019 21.7918 67.8019 21.2719C67.8019 20.4704 67.6503 19.6906 67.347 19.0191C67.0438 18.3259 66.6322 17.7194 66.1123 17.2211C65.5924 16.7229 64.9642 16.3113 64.271 16.0297C63.5779 15.7481 62.8197 15.5965 62.0615 15.5965H58.7689V27.0123L62.0399 27.0557Z" fill="#554FD8"/>
<path d="M73.0658 34.5073L75.6002 28.247L71.3545 18.1309H73.434C73.9106 18.1309 74.3222 18.4125 74.5171 18.889C74.7121 19.3439 76.9866 24.8027 77.0083 24.8894L78.8279 20.5353C79.1528 19.7122 79.4344 19.0623 79.4994 18.9324C79.8026 18.2175 80.3659 18.1525 80.6041 18.1525H82.6837L80.3875 23.6113C80.0193 24.4995 79.5644 25.6042 79.1095 26.7306C78.0697 29.2868 76.8783 32.1895 76.3367 33.4025C76.0985 33.9657 75.6652 34.5289 74.4305 34.5289L73.0658 34.5073Z" fill="#554FD8"/>
<path d="M117.841 29.7633C115.935 29.7633 114.397 28.1387 113.855 27.2938L113.704 27.0556L113.899 26.8389C114.375 26.3407 114.895 26.0808 115.437 26.0808C115.913 26.0808 116.368 26.2757 116.758 26.6223C117.083 26.9256 117.451 27.2072 117.819 27.2072C117.993 27.2072 118.188 27.1855 118.404 27.1205C118.599 27.0772 118.772 26.9906 118.946 26.8823C119.076 26.7956 119.206 26.6873 119.292 26.5573C119.357 26.4707 119.379 26.3624 119.379 26.2107C119.379 26.0808 119.357 25.9941 119.292 25.9075C119.184 25.7775 119.076 25.6475 118.902 25.5392C118.708 25.4092 118.491 25.3009 118.253 25.2143C117.993 25.106 117.733 25.041 117.473 24.976C117.061 24.8677 116.671 24.7161 116.281 24.5211C115.891 24.3262 115.523 24.0879 115.22 23.8279C114.852 23.5247 114.57 23.1564 114.353 22.7448C114.159 22.3766 114.05 21.965 114.05 21.5101C114.05 21.0119 114.137 20.5353 114.332 20.1021C114.527 19.6688 114.787 19.3006 115.133 18.9973C115.458 18.694 115.87 18.4558 116.346 18.2825C116.801 18.1308 117.299 18.0442 117.841 18.0442C118.621 18.0442 119.357 18.2175 119.986 18.5641C120.614 18.9107 121.415 19.6255 121.632 20.2537L121.719 20.492L121.545 20.6653C121.09 21.0769 120.614 21.2935 120.072 21.2935C119.704 21.2935 119.357 21.1852 118.989 20.9902C118.686 20.8169 118.036 20.622 117.841 20.622C117.646 20.622 117.451 20.6436 117.299 20.7086C117.148 20.7519 117.04 20.8169 116.931 20.9036C116.845 20.9686 116.78 21.0769 116.715 21.1635C116.671 21.2718 116.65 21.3801 116.65 21.5101C116.65 21.5967 116.671 21.6617 116.715 21.7267C116.78 21.835 116.866 21.9217 116.975 21.9867C117.105 22.0733 117.256 22.16 117.429 22.2249C117.624 22.2899 117.798 22.3549 117.971 22.3982L118.274 22.4849C118.816 22.6365 119.292 22.8098 119.726 23.0264C120.181 23.2431 120.57 23.503 120.895 23.8063C121.242 24.1095 121.502 24.4778 121.697 24.8677C121.892 25.2793 122 25.7125 122 26.1674C122 26.7306 121.87 27.2722 121.632 27.7271C121.394 28.182 121.069 28.5502 120.679 28.8535C120.289 29.1351 119.856 29.3734 119.336 29.525C118.859 29.6766 118.361 29.7633 117.841 29.7633Z" fill="#554FD8"/>
<path d="M89.9404 28.897C88.6191 28.897 87.6009 28.3122 86.8644 27.4674V34.4425H84.2217V18.0877H85.5431C85.8896 18.0877 86.2362 18.2177 86.4745 18.456C86.7128 18.7159 86.8861 19.0409 86.8861 19.3658V19.3875C87.6443 18.521 88.6624 17.9578 89.9621 17.9578C92.9948 17.9578 95.1826 20.2539 95.1826 23.4166C95.161 26.6009 92.9514 28.897 89.9404 28.897ZM89.7022 20.0156C88.1208 20.0156 86.8644 21.402 86.8644 23.4166C86.8644 25.4528 88.1208 26.8392 89.7022 26.8392C91.2618 26.8392 92.5399 25.4528 92.5399 23.4166C92.5399 21.402 91.2401 20.0156 89.7022 20.0156Z" fill="#554FD8"/>
<path d="M98.4101 17.1129C97.5436 17.1129 96.8071 16.3981 96.8071 15.51C96.8071 14.6218 97.5436 13.907 98.4101 13.907C99.2982 13.907 100.013 14.6218 100.013 15.51C99.9914 16.4198 99.2982 17.1129 98.4101 17.1129ZM98.4101 18.521H99.7315V29.6119H97.0671V19.864C97.0671 19.1275 97.6736 18.521 98.4101 18.521Z" fill="#554FD8"/>
<path d="M104.822 25.1928C104.822 26.8608 105.819 27.619 106.772 27.554C107.985 27.4673 108.981 26.4925 108.981 24.3697V19.4957C108.981 18.7376 109.631 18.1094 110.389 18.1094H111.776V29.6552H108.981V28.2472C108.331 29.0703 107.227 29.8068 105.645 29.8068C103.652 29.8068 102.028 28.2472 102.028 25.9077V18.1094H104.822V25.1928Z" fill="#554FD8"/>
<path d="M0.802583 21.5791L14.4713 31.7819C14.4929 31.7819 14.4929 31.8036 14.5146 31.8036L19.5835 35.5728C20.0167 35.8977 20.6233 35.5944 20.6233 35.0529L20.6449 6.95734C20.6016 6.45912 20.5366 5.93923 20.4283 5.44101C20.32 4.96444 20.1684 4.50954 19.9517 4.11963C20.32 6.87069 18.7603 10.0767 16.1176 12.1779C15.5327 12.6544 14.7312 13.1743 13.8431 13.5426C12.8899 13.9541 10.0089 14.9506 10.0089 14.9506L1.32247 18.0916C-0.172204 18.6331 -0.475471 20.626 0.802583 21.5791Z" fill="#554FD8"/>
<path d="M14.3628 13.3042C14.3845 13.2826 14.4278 13.2826 14.4495 13.2609C14.4928 13.2392 14.5361 13.2176 14.6011 13.1743C14.6661 13.1526 14.7094 13.1093 14.7744 13.0876C14.7961 13.0659 14.8394 13.0443 14.8611 13.0443C14.926 13.001 15.0127 12.9576 15.0777 12.9143C15.0993 12.8926 15.121 12.8926 15.1427 12.871C15.2077 12.8277 15.2726 12.7843 15.3593 12.741C15.4026 12.7194 15.4243 12.6977 15.4676 12.676C15.5109 12.6327 15.5759 12.611 15.6192 12.5677C15.6842 12.5244 15.7492 12.4594 15.8358 12.4161C15.8575 12.4161 15.8575 12.3944 15.8792 12.3944C15.9658 12.3294 16.0525 12.2645 16.1391 12.1995C18.7819 10.0983 20.3415 6.89229 19.9733 4.14123C19.8216 3.88128 19.6267 3.643 19.4101 3.46971L14.9044 0.133768C14.4711 -0.191161 13.843 0.112106 13.843 0.653654V8.51694C13.843 13.4559 10.0088 14.9505 10.0088 14.9505C10.0088 14.9505 12.9115 13.9757 13.843 13.5642C14.0162 13.4775 14.1895 13.3909 14.3628 13.3042Z" fill="#7770E0"/>
<path d="M42.5668 20.561L28.8981 10.3582C28.8764 10.3582 28.8764 10.3365 28.8548 10.3365L23.7859 6.56736C23.3526 6.24243 22.7461 6.5457 22.7461 7.08725V35.1828C22.7894 35.681 22.8544 36.2009 22.9627 36.6991C23.071 37.1757 23.2227 37.6306 23.4393 38.0205C23.071 35.2694 24.6307 32.0635 27.2734 29.9622C27.8583 29.4857 28.6598 28.9658 29.5479 28.5975C30.4794 28.186 33.3821 27.2112 33.3821 27.2112L42.0685 24.0702C43.5632 23.507 43.8448 21.5141 42.5668 20.561Z" fill="#554FD8"/>
<path d="M29.0282 28.836C29.0066 28.8577 28.9632 28.8577 28.9416 28.8793C28.8982 28.901 28.8549 28.9227 28.7899 28.966C28.7249 28.9876 28.6816 29.031 28.6166 29.0526C28.595 29.0743 28.5517 29.0959 28.53 29.0959C28.465 29.1393 28.3784 29.1826 28.3134 29.2259C28.2917 29.2476 28.27 29.2476 28.2484 29.2692C28.1834 29.3126 28.1184 29.3559 28.0318 29.3992C27.9884 29.4209 27.9668 29.4425 27.9235 29.4642C27.8801 29.5075 27.8151 29.5292 27.7718 29.5725C27.7068 29.6158 27.6418 29.6808 27.5552 29.7241C27.5335 29.7241 27.5335 29.7458 27.5119 29.7458C27.4252 29.8108 27.3386 29.8758 27.2519 29.9408C24.6092 32.042 23.0495 35.2479 23.4178 37.999C23.5694 38.2589 23.7644 38.4972 23.981 38.6705L28.465 42.0065C28.8982 42.3314 29.5264 42.0281 29.5264 41.4866V33.6233C29.5264 28.706 33.3606 27.1897 33.3606 27.1897C33.3606 27.1897 30.4579 28.1645 29.5264 28.5761C29.3748 28.6627 29.2015 28.7494 29.0282 28.836Z" fill="#7770E0"/>
</svg>
