<svg width="189" height="173" viewBox="0 0 189 173" fill="none" xmlns="http://www.w3.org/2000/svg">
<path d="M182.237 30.4898L160.532 9.96216H112.978L11.0578 139.409C12.8995 140.988 24.7193 150.752 34.2485 159.182C43.9077 167.728 54.1776 169.709 57.9267 169.841C73.6464 170.301 111.874 171.38 139.025 172.012C166.491 170.275 175.857 149.445 177.107 139.247C179.935 119.574 186.065 75.769 187.959 57.9257C189.854 40.0825 184.934 32.2004 182.237 30.4898Z" fill="url(#paint0_linear_1302_2665)"/>
<g filter="url(#filter0_i_1302_2665)">
<rect width="147.849" height="147.849" rx="28" transform="matrix(1 0 -0.148327 0.988938 21.9302 0)" fill="url(#paint1_radial_1302_2665)"/>
<rect width="147.849" height="147.849" rx="28" transform="matrix(1 0 -0.148327 0.988938 21.9302 0)" fill="url(#paint2_linear_1302_2665)"/>
</g>
<rect x="1.41243" y="1.64008" width="144.532" height="144.532" rx="26.3416" transform="matrix(1 0 -0.148327 0.988938 22.1734 0.018142)" stroke="url(#paint3_linear_1302_2665)" stroke-width="3.31684"/>
<g filter="url(#filter1_d_1302_2665)">
<path d="M29.7601 71.6887L59.9147 94.8734C59.9682 94.8723 59.9606 94.923 60.014 94.9219L71.2017 103.486C72.1569 104.224 73.7613 103.483 73.9521 102.216L83.9044 36.4446C83.973 35.2805 84.1852 33.8893 84.109 32.5287C84.0328 31.168 83.9491 29.4444 83.481 29.441C83.421 35.8622 78.1521 43.8432 70.8866 48.8972C69.2746 50.0427 67.1125 51.3008 64.7898 52.2083C62.2914 53.2205 54.8268 55.7005 54.8268 55.7005L32.2725 63.4979C28.3912 64.8421 26.9402 69.5228 29.7601 71.6887Z" fill="#F2EEFF"/>
<path d="M66.5348 51.6487C66.5959 51.5968 66.7028 51.5945 66.7639 51.5426C66.8784 51.4896 66.993 51.4365 67.1686 51.3317C67.3366 51.2774 67.4588 51.1737 67.6267 51.1195C67.6878 51.0677 67.8024 51.0146 67.8558 51.0134C68.0314 50.9086 68.2605 50.8025 68.4361 50.6976C68.4972 50.6457 68.5507 50.6446 68.6118 50.5927C68.7874 50.4878 68.963 50.3829 69.1921 50.2769C69.3066 50.2238 69.3677 50.172 69.4823 50.1189C69.6044 50.0152 69.7724 49.961 69.8946 49.8573C70.0702 49.7524 70.2535 49.5969 70.4826 49.4908C70.536 49.4896 70.5436 49.4389 70.5971 49.4378C70.8338 49.281 71.0705 49.1243 71.3072 48.9676C78.5688 43.9085 83.547 36.325 83.6075 29.9111C83.3249 29.3115 82.9278 28.7649 82.4543 28.3715L72.5112 20.8166C71.5566 20.0804 69.8996 20.8241 69.7088 22.0907L66.9385 40.4809C65.1985 52.0318 55.3829 55.4515 55.3829 55.4515C55.3829 55.4515 62.7168 53.2988 65.1603 52.2851C65.6185 52.073 66.0767 51.8608 66.5348 51.6487Z" fill="#DBD9FF"/>
<path d="M133.261 65.6203L103.226 42.4164C103.173 42.4175 103.181 42.3667 103.127 42.3678L91.9842 33.7966C91.0328 33.0575 89.4305 33.7982 89.2374 35.0662L79.2185 100.855C79.1475 102.019 79.1222 103.233 79.2114 104.394C79.3083 105.505 79.5196 106.563 79.9142 107.465C79.988 101.041 84.9735 93.4558 92.2332 88.4028C93.8439 87.2575 96.0038 85.9999 98.323 85.093C100.764 84.0824 108.263 81.654 108.263 81.654L130.782 73.8626C134.665 72.4687 136.069 67.7879 133.261 65.6203Z" fill="#F2EEFF"/>
<path d="M97.2113 85.4989C97.1502 85.5508 97.0432 85.5531 96.9821 85.605C96.8675 85.658 96.7529 85.7111 96.5772 85.8159C96.409 85.8702 96.2869 85.9739 96.1187 86.0281C96.0576 86.0799 95.943 86.1329 95.8895 86.1341C95.7138 86.239 95.4846 86.3451 95.3089 86.4499C95.2478 86.5018 95.1943 86.503 95.1332 86.5548C94.9574 86.6597 94.7817 86.7646 94.5525 86.8707C94.4379 86.9237 94.3768 86.9755 94.2622 87.0286C94.14 87.1323 93.9719 87.1865 93.8497 87.2902C93.674 87.3951 93.4907 87.5506 93.2614 87.6567C93.2079 87.6578 93.2003 87.7085 93.1468 87.7097C92.91 87.8664 92.6732 88.0231 92.4364 88.1799C85.172 93.2387 79.5 101 80 107.5C80.2835 108.1 80.8237 108.382 81.2981 108.776L91.2063 116.333C92.1627 117.069 93.8208 116.325 94.0105 115.059L96.7651 96.6681C98.4876 85.1677 108.382 81.4514 108.382 81.4514C108.382 81.4514 100.978 83.8502 98.5331 84.8637C98.1282 85.0747 97.6698 85.2868 97.2113 85.4989Z" fill="#DBD9FF"/>
</g>
<defs>
<filter id="filter0_i_1302_2665" x="4.1748" y="0" width="163.088" height="146.214" filterUnits="userSpaceOnUse" color-interpolation-filters="sRGB">
<feFlood flood-opacity="0" result="BackgroundImageFix"/>
<feBlend mode="normal" in="SourceGraphic" in2="BackgroundImageFix" result="shape"/>
<feColorMatrix in="SourceAlpha" type="matrix" values="0 0 0 0 0 0 0 0 0 0 0 0 0 0 0 0 0 0 127 0" result="hardAlpha"/>
<feOffset dx="1.65842"/>
<feGaussianBlur stdDeviation="1.65842"/>
<feComposite in2="hardAlpha" operator="arithmetic" k2="-1" k3="1"/>
<feColorMatrix type="matrix" values="0 0 0 0 0.441667 0 0 0 0 0.709501 0 0 0 0 1 0 0 0 0.58 0"/>
<feBlend mode="normal" in2="shape" result="effect1_innerShadow_1302_2665"/>
</filter>
<filter id="filter1_d_1302_2665" x="13.2891" y="4.52515" width="154.448" height="144.099" filterUnits="userSpaceOnUse" color-interpolation-filters="sRGB">
<feFlood flood-opacity="0" result="BackgroundImageFix"/>
<feColorMatrix in="SourceAlpha" type="matrix" values="0 0 0 0 0 0 0 0 0 0 0 0 0 0 0 0 0 0 127 0" result="hardAlpha"/>
<feOffset dx="9" dy="8"/>
<feGaussianBlur stdDeviation="12"/>
<feComposite in2="hardAlpha" operator="out"/>
<feColorMatrix type="matrix" values="0 0 0 0 0 0 0 0 0 0 0 0 0 0 0 0 0 0 0.25 0"/>
<feBlend mode="normal" in2="BackgroundImageFix" result="effect1_dropShadow_1302_2665"/>
<feBlend mode="normal" in="SourceGraphic" in2="effect1_dropShadow_1302_2665" result="shape"/>
</filter>
<linearGradient id="paint0_linear_1302_2665" x1="156.968" y1="-2.2748" x2="32.8927" y2="156.907" gradientUnits="userSpaceOnUse">
<stop offset="0.0370143" stop-color="#5751D8"/>
<stop offset="0.134219" stop-color="#7770E0"/>
<stop offset="0.451646" stop-color="#514BCD"/>
<stop offset="0.485154" stop-color="#7247E7"/>
<stop offset="0.526023" stop-color="#453FC3"/>
<stop offset="0.581312" stop-color="#453EC3"/>
<stop offset="0.620773" stop-color="#443FC3"/>
<stop offset="0.716746" stop-color="#7247E7"/>
<stop offset="0.90079" stop-color="#363290"/>
<stop offset="1" stop-color="#683CDF"/>
</linearGradient>
<radialGradient id="paint1_radial_1302_2665" cx="0" cy="0" r="1" gradientUnits="userSpaceOnUse" gradientTransform="translate(-6.57176 -9.06616) rotate(45.8335) scale(206.436 279.562)">
<stop stop-color="#E2C5FF"/>
<stop offset="0.357897" stop-color="#CD9BFF"/>
<stop offset="0.633096" stop-color="#AB57FF"/>
<stop offset="1" stop-color="#9D3CFF"/>
</radialGradient>
<linearGradient id="paint2_linear_1302_2665" x1="-31.4269" y1="-28.8774" x2="140.537" y2="150.62" gradientUnits="userSpaceOnUse">
<stop stop-color="#554FD8" stop-opacity="0.6"/>
<stop offset="0.134789" stop-color="#554FD8" stop-opacity="0.6"/>
<stop offset="0.215402" stop-color="#554FD8" stop-opacity="0.35"/>
<stop offset="0.718692" stop-color="#554FD8" stop-opacity="0.15"/>
<stop offset="0.797654" stop-color="#7770E0" stop-opacity="0.42"/>
<stop offset="1" stop-color="#554FD8" stop-opacity="0.87"/>
</linearGradient>
<linearGradient id="paint3_linear_1302_2665" x1="10.3956" y1="6.06412" x2="32.1976" y2="40.4275" gradientUnits="userSpaceOnUse">
<stop stop-color="#B56BFF"/>
<stop offset="1" stop-color="#9D3CFF" stop-opacity="0"/>
</linearGradient>
</defs>
</svg>
