<svg width="189" height="173" viewBox="0 0 189 173" fill="none" xmlns="http://www.w3.org/2000/svg">
<path d="M182.854 31.0384L161.149 10.5107H113.596L11.675 139.958C13.5167 141.537 25.3364 151.3 34.8657 159.731C44.5249 168.276 54.7948 170.258 58.5439 170.389C74.2636 170.85 112.491 171.929 139.642 172.561C167.108 170.824 176.474 149.993 177.724 139.795C180.552 120.123 186.682 76.3176 188.577 58.4743C190.471 40.6311 185.551 32.749 182.854 31.0384Z" fill="url(#paint0_linear_14_3506)"/>
<g filter="url(#filter0_i_14_3506)">
<rect width="147.849" height="147.849" rx="28" transform="matrix(1 0 -0.148327 0.988938 22.5474 0.548584)" fill="url(#paint1_radial_14_3506)"/>
<rect width="147.849" height="147.849" rx="28" transform="matrix(1 0 -0.148327 0.988938 22.5474 0.548584)" fill="url(#paint2_linear_14_3506)"/>
</g>
<rect x="1.41243" y="1.64008" width="144.532" height="144.532" rx="26.3416" transform="matrix(1 0 -0.148327 0.988938 22.7906 0.566726)" stroke="url(#paint3_linear_14_3506)" stroke-width="3.31684"/>
<g filter="url(#filter1_d_14_3506)">
<path d="M30.3775 72.237L60.5321 95.4218C60.5856 95.4206 60.578 95.4714 60.6315 95.4703L71.8191 104.034C72.7743 104.773 74.3788 104.032 74.5696 102.764L84.5218 36.9929C84.5904 35.8288 84.8026 34.4377 84.7264 33.077C84.6502 31.7163 84.5665 29.9927 84.0984 29.9893C84.0384 36.4105 78.7696 44.3915 71.504 49.4455C69.892 50.5911 67.7299 51.8491 65.4072 52.7566C62.9089 53.7688 55.4442 56.2489 55.4442 56.2489L32.8899 64.0462C29.0086 65.3904 27.5577 70.0712 30.3775 72.237Z" fill="#F2EEFF"/>
<path d="M67.1518 52.1972C67.2128 52.1453 67.3197 52.1429 67.3808 52.0911C67.4954 52.038 67.6099 51.985 67.7855 51.8801C67.9535 51.8259 68.0757 51.7222 68.2437 51.668C68.3048 51.6161 68.4193 51.5631 68.4728 51.5619C68.6484 51.457 68.8775 51.3509 69.0531 51.2461C69.1142 51.1942 69.1676 51.193 69.2287 51.1412C69.4043 51.0363 69.58 50.9314 69.809 50.8253C69.9236 50.7723 69.9847 50.7204 70.0992 50.6674C70.2214 50.5637 70.3894 50.5095 70.5115 50.4058C70.6872 50.3009 70.8704 50.1453 71.0995 50.0393C71.153 50.0381 71.1606 49.9874 71.214 49.9862C71.4507 49.8295 71.6875 49.6727 71.9242 49.516C79.1858 44.4569 84.1639 36.8734 84.2245 30.4596C83.9419 29.86 83.5447 29.3134 83.0712 28.9199L73.1282 21.3651C72.1736 20.6289 70.5166 21.3726 70.3258 22.6391L67.5555 41.0294C65.8154 52.5803 55.9998 56 55.9998 56C55.9998 56 63.3338 53.8473 65.7773 52.8336C66.2354 52.6215 66.6936 52.4093 67.1518 52.1972Z" fill="#DBD9FF"/>
<path d="M133.878 66.1688L103.843 42.9648C103.79 42.9659 103.798 42.9152 103.744 42.9163L92.6012 34.3451C91.6498 33.606 90.0474 34.3466 89.8543 35.6147L79.8354 101.403C79.7645 102.568 79.7392 103.782 79.8283 104.943C79.9252 106.053 80.1365 107.111 80.5311 108.013C80.605 101.59 85.5904 94.0043 92.8501 88.9513C94.4609 87.806 96.6207 86.5483 98.94 85.6414C101.381 84.6309 108.88 82.2024 108.88 82.2024L131.399 74.411C135.282 73.0171 136.686 68.3364 133.878 66.1688Z" fill="#F2EEFF"/>
<path d="M97.8288 86.0475C97.7677 86.0993 97.6607 86.1017 97.5996 86.1535C97.485 86.2065 97.3704 86.2596 97.1947 86.3645C97.0265 86.4187 96.9043 86.5224 96.7362 86.5766C96.6751 86.6284 96.5605 86.6815 96.507 86.6827C96.3313 86.7875 96.1021 86.8936 95.9263 86.9985C95.8652 87.0503 95.8117 87.0515 95.7506 87.1034C95.5749 87.2082 95.3992 87.3131 95.17 87.4192C95.0554 87.4722 94.9943 87.5241 94.8797 87.5771C94.7575 87.6808 94.5893 87.735 94.4671 87.8387C94.2914 87.9436 94.1081 88.0991 93.8789 88.2052C93.8254 88.2064 93.8178 88.257 93.7643 88.2582C93.5275 88.4149 93.2907 88.5717 93.0539 88.7284C85.7894 93.7872 80.8135 101.371 80.7594 107.785C81.043 108.384 81.4411 108.931 81.9155 109.324L91.8238 116.881C92.7802 117.617 94.4383 116.874 94.628 115.607L97.3826 97.2166C99.1051 85.7162 109 82 109 82C109 82 101.596 84.3987 99.1506 85.4122C98.7457 85.6232 98.2873 85.8353 97.8288 86.0475Z" fill="#DBD9FF"/>
</g>
<defs>
<filter id="filter0_i_14_3506" x="4.79199" y="0.548584" width="163.088" height="146.214" filterUnits="userSpaceOnUse" color-interpolation-filters="sRGB">
<feFlood flood-opacity="0" result="BackgroundImageFix"/>
<feBlend mode="normal" in="SourceGraphic" in2="BackgroundImageFix" result="shape"/>
<feColorMatrix in="SourceAlpha" type="matrix" values="0 0 0 0 0 0 0 0 0 0 0 0 0 0 0 0 0 0 127 0" result="hardAlpha"/>
<feOffset dx="1.65842"/>
<feGaussianBlur stdDeviation="1.65842"/>
<feComposite in2="hardAlpha" operator="arithmetic" k2="-1" k3="1"/>
<feColorMatrix type="matrix" values="0 0 0 0 0.441667 0 0 0 0 0.709501 0 0 0 0 1 0 0 0 0.58 0"/>
<feBlend mode="normal" in2="shape" result="effect1_innerShadow_14_3506"/>
</filter>
<filter id="filter1_d_14_3506" x="13.9067" y="5.07349" width="154.447" height="144.099" filterUnits="userSpaceOnUse" color-interpolation-filters="sRGB">
<feFlood flood-opacity="0" result="BackgroundImageFix"/>
<feColorMatrix in="SourceAlpha" type="matrix" values="0 0 0 0 0 0 0 0 0 0 0 0 0 0 0 0 0 0 127 0" result="hardAlpha"/>
<feOffset dx="9" dy="8"/>
<feGaussianBlur stdDeviation="12"/>
<feComposite in2="hardAlpha" operator="out"/>
<feColorMatrix type="matrix" values="0 0 0 0 0 0 0 0 0 0 0 0 0 0 0 0 0 0 0.25 0"/>
<feBlend mode="normal" in2="BackgroundImageFix" result="effect1_dropShadow_14_3506"/>
<feBlend mode="normal" in="SourceGraphic" in2="effect1_dropShadow_14_3506" result="shape"/>
</filter>
<linearGradient id="paint0_linear_14_3506" x1="157.585" y1="-1.72622" x2="33.5099" y2="157.456" gradientUnits="userSpaceOnUse">
<stop offset="0.0370143" stop-color="#5751D8"/>
<stop offset="0.134219" stop-color="#7770E0"/>
<stop offset="0.451646" stop-color="#514BCD"/>
<stop offset="0.485154" stop-color="#7247E7"/>
<stop offset="0.526023" stop-color="#453FC3"/>
<stop offset="0.581312" stop-color="#453EC3"/>
<stop offset="0.620773" stop-color="#443FC3"/>
<stop offset="0.716746" stop-color="#7247E7"/>
<stop offset="0.90079" stop-color="#363290"/>
<stop offset="1" stop-color="#683CDF"/>
</linearGradient>
<radialGradient id="paint1_radial_14_3506" cx="0" cy="0" r="1" gradientUnits="userSpaceOnUse" gradientTransform="translate(-6.57176 -9.06616) rotate(45.8335) scale(206.436 279.562)">
<stop stop-color="#E2C5FF"/>
<stop offset="0.357897" stop-color="#CD9BFF"/>
<stop offset="0.633096" stop-color="#AB57FF"/>
<stop offset="1" stop-color="#9D3CFF"/>
</radialGradient>
<linearGradient id="paint2_linear_14_3506" x1="-31.4269" y1="-28.8774" x2="140.537" y2="150.62" gradientUnits="userSpaceOnUse">
<stop stop-color="#554FD8" stop-opacity="0.6"/>
<stop offset="0.134789" stop-color="#554FD8" stop-opacity="0.6"/>
<stop offset="0.215402" stop-color="#554FD8" stop-opacity="0.35"/>
<stop offset="0.718692" stop-color="#554FD8" stop-opacity="0.15"/>
<stop offset="0.797654" stop-color="#7770E0" stop-opacity="0.42"/>
<stop offset="1" stop-color="#554FD8" stop-opacity="0.87"/>
</linearGradient>
<linearGradient id="paint3_linear_14_3506" x1="10.3956" y1="6.06412" x2="32.1976" y2="40.4275" gradientUnits="userSpaceOnUse">
<stop stop-color="#B56BFF"/>
<stop offset="1" stop-color="#9D3CFF" stop-opacity="0"/>
</linearGradient>
</defs>
</svg>
