<svg width="354" height="281" viewBox="0 0 354 281" fill="none" xmlns="http://www.w3.org/2000/svg">
<g filter="url(#filter0_f_0_1)">
<ellipse cx="176.975" cy="156.424" rx="121.325" ry="54.2793" transform="rotate(-17.954 176.975 156.424)" fill="#403BBA"/>
</g>
<path d="M228.854 31.0384L207.149 10.5107H159.596L57.675 139.958C59.5167 141.537 71.3364 151.3 80.8657 159.731C90.5249 168.276 100.795 170.258 104.544 170.389C120.264 170.85 158.491 171.929 185.642 172.561C213.108 170.824 222.474 149.993 223.724 139.795C226.552 120.123 232.682 76.3176 234.577 58.4743C236.471 40.6311 231.551 32.749 228.854 31.0384Z" fill="url(#paint0_linear_0_1)"/>
<g filter="url(#filter1_i_0_1)">
<rect width="147.849" height="147.849" rx="28" transform="matrix(1 0 -0.148327 0.988938 68.5474 0.548584)" fill="url(#paint1_radial_0_1)"/>
<rect width="147.849" height="147.849" rx="28" transform="matrix(1 0 -0.148327 0.988938 68.5474 0.548584)" fill="url(#paint2_linear_0_1)"/>
</g>
<rect x="1.41243" y="1.64008" width="144.532" height="144.532" rx="26.3416" transform="matrix(1 0 -0.148327 0.988938 68.7906 0.566726)" stroke="url(#paint3_linear_0_1)" stroke-width="3.31684"/>
<g filter="url(#filter2_d_0_1)">
<path d="M76.3775 72.237L106.532 95.4218C106.586 95.4206 106.578 95.4714 106.631 95.4703L117.819 104.034C118.774 104.773 120.379 104.032 120.57 102.764L130.522 36.9929C130.59 35.8288 130.803 34.4377 130.726 33.077C130.65 31.7163 130.567 29.9927 130.098 29.9893C130.038 36.4105 124.77 44.3915 117.504 49.4455C115.892 50.5911 113.73 51.8491 111.407 52.7566C108.909 53.7688 101.444 56.2489 101.444 56.2489L78.8899 64.0462C75.0086 65.3904 73.5577 70.0712 76.3775 72.237Z" fill="#F2EEFF"/>
<path d="M113.152 52.1972C113.213 52.1453 113.32 52.1429 113.381 52.0911C113.495 52.038 113.61 51.985 113.786 51.8801C113.954 51.8259 114.076 51.7222 114.244 51.668C114.305 51.6161 114.419 51.5631 114.473 51.5619C114.648 51.457 114.877 51.3509 115.053 51.2461C115.114 51.1942 115.168 51.193 115.229 51.1412C115.404 51.0363 115.58 50.9314 115.809 50.8253C115.924 50.7723 115.985 50.7204 116.099 50.6674C116.221 50.5637 116.389 50.5095 116.512 50.4058C116.687 50.3009 116.87 50.1453 117.099 50.0393C117.153 50.0381 117.161 49.9874 117.214 49.9862C117.451 49.8295 117.687 49.6727 117.924 49.516C125.186 44.4569 130.164 36.8734 130.224 30.4596C129.942 29.86 129.545 29.3134 129.071 28.9199L119.128 21.3651C118.174 20.6289 116.517 21.3726 116.326 22.6391L113.555 41.0294C111.815 52.5803 102 56 102 56C102 56 109.334 53.8473 111.777 52.8336C112.235 52.6215 112.694 52.4093 113.152 52.1972Z" fill="#DBD9FF"/>
<path d="M179.878 66.1688L149.843 42.9648C149.79 42.9659 149.798 42.9152 149.744 42.9163L138.601 34.3451C137.65 33.606 136.047 34.3466 135.854 35.6147L125.835 101.403C125.764 102.568 125.739 103.782 125.828 104.943C125.925 106.053 126.137 107.111 126.531 108.013C126.605 101.59 131.59 94.0043 138.85 88.9513C140.461 87.806 142.621 86.5483 144.94 85.6414C147.381 84.6309 154.88 82.2024 154.88 82.2024L177.399 74.411C181.282 73.0171 182.686 68.3364 179.878 66.1688Z" fill="#F2EEFF"/>
<path d="M143.829 86.0475C143.768 86.0993 143.661 86.1017 143.6 86.1535C143.485 86.2065 143.37 86.2596 143.195 86.3645C143.027 86.4187 142.904 86.5224 142.736 86.5766C142.675 86.6284 142.561 86.6815 142.507 86.6827C142.331 86.7875 142.102 86.8936 141.926 86.9985C141.865 87.0503 141.812 87.0515 141.751 87.1034C141.575 87.2082 141.399 87.3131 141.17 87.4192C141.055 87.4722 140.994 87.5241 140.88 87.5771C140.757 87.6808 140.589 87.735 140.467 87.8387C140.291 87.9436 140.108 88.0991 139.879 88.2052C139.825 88.2064 139.818 88.257 139.764 88.2582C139.527 88.4149 139.291 88.5717 139.054 88.7284C131.789 93.7872 126.813 101.371 126.759 107.785C127.043 108.384 127.441 108.931 127.915 109.324L137.824 116.881C138.78 117.617 140.438 116.874 140.628 115.607L143.383 97.2166C145.105 85.7162 155 82 155 82C155 82 147.596 84.3987 145.151 85.4122C144.746 85.6232 144.287 85.8353 143.829 86.0475Z" fill="#DBD9FF"/>
</g>
<defs>
<filter id="filter0_f_0_1" x="0.336426" y="32.6626" width="353.277" height="247.523" filterUnits="userSpaceOnUse" color-interpolation-filters="sRGB">
<feFlood flood-opacity="0" result="BackgroundImageFix"/>
<feBlend mode="normal" in="SourceGraphic" in2="BackgroundImageFix" result="shape"/>
<feGaussianBlur stdDeviation="30" result="effect1_foregroundBlur_0_1"/>
</filter>
<filter id="filter1_i_0_1" x="50.792" y="0.548584" width="163.088" height="146.214" filterUnits="userSpaceOnUse" color-interpolation-filters="sRGB">
<feFlood flood-opacity="0" result="BackgroundImageFix"/>
<feBlend mode="normal" in="SourceGraphic" in2="BackgroundImageFix" result="shape"/>
<feColorMatrix in="SourceAlpha" type="matrix" values="0 0 0 0 0 0 0 0 0 0 0 0 0 0 0 0 0 0 127 0" result="hardAlpha"/>
<feOffset dx="1.65842"/>
<feGaussianBlur stdDeviation="1.65842"/>
<feComposite in2="hardAlpha" operator="arithmetic" k2="-1" k3="1"/>
<feColorMatrix type="matrix" values="0 0 0 0 0.441667 0 0 0 0 0.709501 0 0 0 0 1 0 0 0 0.58 0"/>
<feBlend mode="normal" in2="shape" result="effect1_innerShadow_0_1"/>
</filter>
<filter id="filter2_d_0_1" x="59.9067" y="5.07349" width="154.447" height="144.099" filterUnits="userSpaceOnUse" color-interpolation-filters="sRGB">
<feFlood flood-opacity="0" result="BackgroundImageFix"/>
<feColorMatrix in="SourceAlpha" type="matrix" values="0 0 0 0 0 0 0 0 0 0 0 0 0 0 0 0 0 0 127 0" result="hardAlpha"/>
<feOffset dx="9" dy="8"/>
<feGaussianBlur stdDeviation="12"/>
<feComposite in2="hardAlpha" operator="out"/>
<feColorMatrix type="matrix" values="0 0 0 0 0 0 0 0 0 0 0 0 0 0 0 0 0 0 0.25 0"/>
<feBlend mode="normal" in2="BackgroundImageFix" result="effect1_dropShadow_0_1"/>
<feBlend mode="normal" in="SourceGraphic" in2="effect1_dropShadow_0_1" result="shape"/>
</filter>
<linearGradient id="paint0_linear_0_1" x1="203.585" y1="-1.72622" x2="79.5099" y2="157.456" gradientUnits="userSpaceOnUse">
<stop offset="0.0370143" stop-color="#5751D8"/>
<stop offset="0.134219" stop-color="#7770E0"/>
<stop offset="0.451646" stop-color="#514BCD"/>
<stop offset="0.485154" stop-color="#7247E7"/>
<stop offset="0.526023" stop-color="#453FC3"/>
<stop offset="0.581312" stop-color="#453EC3"/>
<stop offset="0.620773" stop-color="#443FC3"/>
<stop offset="0.716746" stop-color="#7247E7"/>
<stop offset="0.90079" stop-color="#363290"/>
<stop offset="1" stop-color="#683CDF"/>
</linearGradient>
<radialGradient id="paint1_radial_0_1" cx="0" cy="0" r="1" gradientUnits="userSpaceOnUse" gradientTransform="translate(-6.57176 -9.06616) rotate(45.8335) scale(206.436 279.562)">
<stop stop-color="#E2C5FF"/>
<stop offset="0.357897" stop-color="#CD9BFF"/>
<stop offset="0.633096" stop-color="#AB57FF"/>
<stop offset="1" stop-color="#9D3CFF"/>
</radialGradient>
<linearGradient id="paint2_linear_0_1" x1="-31.4269" y1="-28.8774" x2="140.537" y2="150.62" gradientUnits="userSpaceOnUse">
<stop stop-color="#554FD8" stop-opacity="0.6"/>
<stop offset="0.134789" stop-color="#554FD8" stop-opacity="0.6"/>
<stop offset="0.215402" stop-color="#554FD8" stop-opacity="0.35"/>
<stop offset="0.718692" stop-color="#554FD8" stop-opacity="0.15"/>
<stop offset="0.797654" stop-color="#7770E0" stop-opacity="0.42"/>
<stop offset="1" stop-color="#554FD8" stop-opacity="0.87"/>
</linearGradient>
<linearGradient id="paint3_linear_0_1" x1="10.3956" y1="6.06412" x2="32.1976" y2="40.4275" gradientUnits="userSpaceOnUse">
<stop stop-color="#B56BFF"/>
<stop offset="1" stop-color="#9D3CFF" stop-opacity="0"/>
</linearGradient>
</defs>
</svg>
