<svg width="189" height="173" viewBox="0 0 189 173" fill="none" xmlns="http://www.w3.org/2000/svg">
<path d="M182.854 31.0384L161.149 10.5107H113.596L11.675 139.958C13.5167 141.537 25.3364 151.3 34.8657 159.731C44.5249 168.276 54.7948 170.258 58.5439 170.389C74.2636 170.85 112.491 171.929 139.642 172.561C167.108 170.824 176.474 149.993 177.724 139.795C180.552 120.123 186.682 76.3176 188.577 58.4743C190.471 40.6311 185.551 32.749 182.854 31.0384Z" fill="url(#paint0_linear_106_566)"/>
<g filter="url(#filter0_i_106_566)">
<rect width="147.849" height="147.849" rx="27" transform="matrix(1 0 -0.148327 0.988938 22.5474 0.548645)" fill="url(#paint1_radial_106_566)"/>
<rect width="147.849" height="147.849" rx="27" transform="matrix(1 0 -0.148327 0.988938 22.5474 0.548645)" fill="url(#paint2_linear_106_566)"/>
</g>
<rect x="1.41243" y="1.64008" width="144.532" height="144.532" rx="25.3416" transform="matrix(1 0 -0.148327 0.988938 22.7906 0.566787)" stroke="url(#paint3_linear_106_566)" stroke-width="3.31684"/>
<g filter="url(#filter1_d_106_566)">
<path d="M26.6843 72.1149L53.6756 95.5954C53.7258 95.5946 53.7159 95.6455 53.766 95.6447L63.782 104.318C64.6368 105.066 66.1775 104.331 66.4231 103.058L79.2182 37.0214C79.344 35.852 79.6162 34.4552 79.6169 33.0873C79.6177 31.7194 79.6306 29.9868 79.1927 29.9806C78.7966 36.4332 73.4436 44.4221 66.377 49.4575C64.8078 50.599 62.7179 51.8503 60.4963 52.7483C58.1048 53.7506 50.9881 56.1981 50.9881 56.1981L29.4691 63.8986C25.7658 65.2262 24.1602 69.9214 26.6843 72.1149Z" fill="#F2EEFF"/>
<path d="M61.8536 52.2283C61.914 52.1765 62.0169 52.1746 62.0774 52.1228C62.1893 52.07 62.3012 52.0173 62.4736 51.9127C62.637 51.859 62.7578 51.7554 62.9212 51.7017C62.9817 51.6499 63.0936 51.5971 63.1451 51.5961C63.3174 51.4916 63.5413 51.3861 63.7136 51.2815C63.7741 51.2297 63.8255 51.2287 63.886 51.177C64.0583 51.0724 64.2307 50.9679 64.4545 50.8623C64.5664 50.8096 64.6269 50.7578 64.7388 50.705C64.8597 50.6015 65.0231 50.5477 65.144 50.4442C65.3163 50.3396 65.4976 50.1843 65.7215 50.0787C65.7729 50.0778 65.7819 50.027 65.8334 50.026C66.0662 49.8697 66.299 49.7133 66.5318 49.557C73.6812 44.5096 78.7136 36.9205 78.9761 30.4855C78.7233 29.8828 78.3585 29.3328 77.9153 28.9362L68.5871 21.3172C67.6919 20.5748 66.0736 21.3145 65.8496 22.5845L62.5978 41.025C60.5553 52.6075 51.0002 56 51.0002 56C51.0002 56 58.1267 53.8689 60.5105 52.8615C60.9582 52.6504 61.4059 52.4394 61.8536 52.2283Z" fill="#DBD9FF"/>
<path d="M134.409 66.3012L107.921 42.7774C107.872 42.7782 107.882 42.7272 107.832 42.728L98.003 34.0383C97.1642 33.2891 95.6331 34.0232 95.3783 35.2969L82.1582 101.374C82.023 102.544 81.9271 103.765 81.9406 104.933C81.9643 106.05 82.0973 107.115 82.4097 108.024C82.8612 101.567 87.9399 93.9728 94.978 88.9398C96.541 87.7988 98.6203 86.5484 100.827 85.6516C103.152 84.6515 110.256 82.2587 110.256 82.2587L131.617 74.5717C135.304 73.1955 136.886 68.4988 134.409 66.3012Z" fill="#F2EEFF"/>
<path d="M100.133 86.0162C100.072 86.068 99.9696 86.0699 99.9092 86.1217C99.7973 86.1744 99.6854 86.2272 99.5131 86.3317C99.3498 86.3854 99.229 86.489 99.0656 86.5427C99.0052 86.5945 98.8933 86.6472 98.8419 86.6482C98.6696 86.7527 98.4458 86.8582 98.2736 86.9628C98.2131 87.0145 98.1617 87.0155 98.1013 87.0673C97.929 87.1718 97.7567 87.2764 97.5329 87.3819C97.4211 87.4346 97.3606 87.4864 97.2488 87.5391C97.1279 87.6427 96.9646 87.6964 96.8438 87.8C96.6715 87.9045 96.4902 88.0598 96.2665 88.1653C96.215 88.1663 96.2061 88.2171 96.1546 88.2181C95.9219 88.3744 95.6892 88.5307 95.4565 88.687C88.3097 93.7336 83.2791 101.323 83.0164 107.758C83.2691 108.361 83.6337 108.911 84.0767 109.308L93.3493 116.93C94.2441 117.673 95.8618 116.933 96.0857 115.663L99.337 97.2214C101.37 85.689 111 82 111 82C111 82 103.807 84.3771 101.424 85.3842C101.028 85.5942 100.58 85.8052 100.133 86.0162Z" fill="#DBD9FF"/>
</g>
<defs>
<filter id="filter0_i_106_566" x="4.64307" y="0.548645" width="163.386" height="146.214" filterUnits="userSpaceOnUse" color-interpolation-filters="sRGB">
<feFlood flood-opacity="0" result="BackgroundImageFix"/>
<feBlend mode="normal" in="SourceGraphic" in2="BackgroundImageFix" result="shape"/>
<feColorMatrix in="SourceAlpha" type="matrix" values="0 0 0 0 0 0 0 0 0 0 0 0 0 0 0 0 0 0 127 0" result="hardAlpha"/>
<feOffset dx="1.65842"/>
<feGaussianBlur stdDeviation="1.65842"/>
<feComposite in2="hardAlpha" operator="arithmetic" k2="-1" k3="1"/>
<feColorMatrix type="matrix" values="0 0 0 0 0.441667 0 0 0 0 0.709501 0 0 0 0 1 0 0 0 0.58 0"/>
<feBlend mode="normal" in2="shape" result="effect1_innerShadow_106_566"/>
</filter>
<filter id="filter1_d_106_566" x="10.4614" y="5.02121" width="158.144" height="144.205" filterUnits="userSpaceOnUse" color-interpolation-filters="sRGB">
<feFlood flood-opacity="0" result="BackgroundImageFix"/>
<feColorMatrix in="SourceAlpha" type="matrix" values="0 0 0 0 0 0 0 0 0 0 0 0 0 0 0 0 0 0 127 0" result="hardAlpha"/>
<feOffset dx="9" dy="8"/>
<feGaussianBlur stdDeviation="12"/>
<feComposite in2="hardAlpha" operator="out"/>
<feColorMatrix type="matrix" values="0 0 0 0 0 0 0 0 0 0 0 0 0 0 0 0 0 0 0.25 0"/>
<feBlend mode="normal" in2="BackgroundImageFix" result="effect1_dropShadow_106_566"/>
<feBlend mode="normal" in="SourceGraphic" in2="effect1_dropShadow_106_566" result="shape"/>
</filter>
<linearGradient id="paint0_linear_106_566" x1="157.585" y1="-1.72622" x2="33.5099" y2="157.456" gradientUnits="userSpaceOnUse">
<stop offset="0.0370143" stop-color="#5751D8"/>
<stop offset="0.134219" stop-color="#7770E0"/>
<stop offset="0.451646" stop-color="#514BCD"/>
<stop offset="0.485154" stop-color="#7247E7"/>
<stop offset="0.526023" stop-color="#453FC3"/>
<stop offset="0.581312" stop-color="#453EC3"/>
<stop offset="0.620773" stop-color="#443FC3"/>
<stop offset="0.716746" stop-color="#7247E7"/>
<stop offset="0.90079" stop-color="#363290"/>
<stop offset="1" stop-color="#683CDF"/>
</linearGradient>
<radialGradient id="paint1_radial_106_566" cx="0" cy="0" r="1" gradientUnits="userSpaceOnUse" gradientTransform="translate(-6.57176 -9.06616) rotate(45.8335) scale(206.436 279.562)">
<stop stop-color="#E2C5FF"/>
<stop offset="0.357897" stop-color="#CD9BFF"/>
<stop offset="0.633096" stop-color="#AB57FF"/>
<stop offset="1" stop-color="#9D3CFF"/>
</radialGradient>
<linearGradient id="paint2_linear_106_566" x1="-31.4269" y1="-28.8774" x2="140.537" y2="150.62" gradientUnits="userSpaceOnUse">
<stop stop-color="#554FD8" stop-opacity="0.6"/>
<stop offset="0.134789" stop-color="#554FD8" stop-opacity="0.6"/>
<stop offset="0.215402" stop-color="#554FD8" stop-opacity="0.35"/>
<stop offset="0.718692" stop-color="#554FD8" stop-opacity="0.15"/>
<stop offset="0.797654" stop-color="#7770E0" stop-opacity="0.42"/>
<stop offset="1" stop-color="#554FD8" stop-opacity="0.87"/>
</linearGradient>
<linearGradient id="paint3_linear_106_566" x1="10.3956" y1="6.06412" x2="32.1976" y2="40.4275" gradientUnits="userSpaceOnUse">
<stop stop-color="#B56BFF"/>
<stop offset="1" stop-color="#9D3CFF" stop-opacity="0"/>
</linearGradient>
</defs>
</svg>
