<svg width="189" height="173" viewBox="0 0 189 173" fill="none" xmlns="http://www.w3.org/2000/svg">
<path d="M182.854 31.0384L161.149 10.5107H113.596L11.675 139.958C13.5167 141.537 25.3364 151.3 34.8657 159.731C44.5249 168.276 54.7948 170.258 58.5439 170.389C74.2636 170.85 112.491 171.929 139.642 172.561C167.108 170.824 176.474 149.993 177.724 139.795C180.552 120.123 186.682 76.3176 188.577 58.4743C190.471 40.6311 185.551 32.749 182.854 31.0384Z" fill="url(#paint0_linear_106_566)"/>
<g filter="url(#filter0_i_106_566)">
<rect width="147.849" height="147.849" rx="27" transform="matrix(1 0 -0.148327 0.988938 22.5474 0.548645)" fill="url(#paint1_radial_106_566)"/>
<rect width="147.849" height="147.849" rx="27" transform="matrix(1 0 -0.148327 0.988938 22.5474 0.548645)" fill="url(#paint2_linear_106_566)"/>
</g>
<rect x="1.41243" y="1.64008" width="144.532" height="144.532" rx="25.3416" transform="matrix(1 0 -0.148327 0.988938 22.7906 0.566787)" stroke="url(#paint3_linear_106_566)" stroke-width="3.31684"/>
<g filter="url(#filter1_d_106_566)">
<path d="M27.7504 74.9489L64.5104 100.586C64.5709 100.586 64.5678 100.641 64.6284 100.641L78.2625 110.112C79.4274 110.928 81.1657 110.166 81.2424 108.805L85.2823 38.2077C85.2318 36.9558 85.1238 35.6494 84.8916 34.3975C84.6564 33.2 84.297 32.0569 83.7467 31.0772C84.3864 37.99 79.5729 46.0458 71.8886 51.3257C70.1863 52.5232 67.8724 53.8295 65.3379 54.7549C62.6155 55.7891 54.4216 58.2929 54.4216 58.2929L29.6974 66.1855C25.443 67.5462 24.3131 72.5539 27.7504 74.9489Z" fill="#F2EEFF"/>
<path d="M67.4408 54.1561C67.5036 54.1017 67.6206 54.1017 67.6834 54.0473C67.8047 53.9928 67.926 53.9384 68.1102 53.8295C68.29 53.7751 68.4156 53.6662 68.5954 53.6118C68.6582 53.5574 68.7795 53.5029 68.838 53.5029C69.0222 53.3941 69.2648 53.2852 69.4489 53.1764C69.5117 53.1219 69.5702 53.1219 69.6331 53.0675C69.8172 52.9586 70.0013 52.8498 70.244 52.7409C70.3653 52.6865 70.4281 52.632 70.5494 52.5776C70.6751 52.4688 70.8548 52.4143 70.9805 52.3055C71.1647 52.1966 71.3532 52.0333 71.5958 51.9244C71.6543 51.9244 71.6586 51.87 71.7171 51.87C71.9641 51.7067 72.211 51.5434 72.458 51.3801C80.0149 46.1003 84.8709 38.0444 84.4313 31.1316C84.0744 30.4784 83.5962 29.8797 83.0464 29.4442L71.557 21.0618C70.453 20.2453 68.6963 21.0074 68.5871 22.3682L67.0024 42.1268C66.007 54.5371 55.3565 58.2929 55.3565 58.2929C55.3565 58.2929 63.388 55.8435 65.9851 54.8093C66.4704 54.5916 66.9556 54.3739 67.4408 54.1561Z" fill="#DBD9FF"/>
<path d="M138.389 72.3906L101.306 46.7534C101.245 46.7534 101.247 46.699 101.187 46.699L87.4326 37.2279C86.2574 36.4114 84.5126 37.1735 84.4415 38.5343L80.7521 109.132C80.8084 110.384 80.9228 111.69 81.1619 112.942C81.4038 114.14 81.7703 115.283 82.328 116.262C81.6541 109.35 86.4594 101.294 94.1642 96.0139C95.8709 94.8164 98.1922 93.51 100.737 92.5847C103.41 91.5505 111.697 89.1011 111.697 89.1011L136.528 81.2085C140.803 79.7933 141.857 74.7856 138.389 72.3906Z" fill="#F2EEFF"/>
<path d="M98.6118 93.1835C98.5489 93.2379 98.4318 93.2379 98.3689 93.2923C98.2475 93.3467 98.126 93.4012 97.9417 93.51C97.7617 93.5645 97.636 93.6733 97.456 93.7278C97.3931 93.7822 97.2716 93.8366 97.2131 93.8366C97.0288 93.9455 96.7859 94.0544 96.6016 94.1632C96.5387 94.2176 96.4801 94.2177 96.4172 94.2721C96.2329 94.3809 96.0486 94.4898 95.8057 94.5987C95.6843 94.6531 95.6214 94.7075 95.5 94.762C95.3742 94.8708 95.1942 94.9253 95.0685 95.0341C94.8842 95.143 94.6956 95.3063 94.4527 95.4151C94.3941 95.4151 94.3898 95.4696 94.3312 95.4696C94.084 95.6329 93.8369 95.7962 93.5897 95.9595C86.0268 101.239 81.1726 109.295 81.6214 116.208C81.9797 116.861 82.4594 117.46 83.0106 117.895L94.4709 126.278C95.5776 127.094 97.3363 126.332 97.444 124.971L99.0072 105.213C99.9847 92.8569 110.652 89.0467 110.652 89.0467C110.652 89.0467 102.611 91.4961 100.011 92.5303C99.5833 92.748 99.0976 92.9657 98.6118 93.1835Z" fill="#DBD9FF"/>
</g>
<defs>
<filter id="filter0_i_106_566" x="4.64307" y="0.548645" width="163.386" height="146.214" filterUnits="userSpaceOnUse" color-interpolation-filters="sRGB">
<feFlood flood-opacity="0" result="BackgroundImageFix"/>
<feBlend mode="normal" in="SourceGraphic" in2="BackgroundImageFix" result="shape"/>
<feColorMatrix in="SourceAlpha" type="matrix" values="0 0 0 0 0 0 0 0 0 0 0 0 0 0 0 0 0 0 127 0" result="hardAlpha"/>
<feOffset dx="1.65842"/>
<feGaussianBlur stdDeviation="1.65842"/>
<feComposite in2="hardAlpha" operator="arithmetic" k2="-1" k3="1"/>
<feColorMatrix type="matrix" values="0 0 0 0 0.441667 0 0 0 0 0.709501 0 0 0 0 1 0 0 0 0.58 0"/>
<feBlend mode="normal" in2="shape" result="effect1_innerShadow_106_566"/>
</filter>
<filter id="filter1_d_106_566" x="10.7256" y="4.72568" width="162.738" height="153.888" filterUnits="userSpaceOnUse" color-interpolation-filters="sRGB">
<feFlood flood-opacity="0" result="BackgroundImageFix"/>
<feColorMatrix in="SourceAlpha" type="matrix" values="0 0 0 0 0 0 0 0 0 0 0 0 0 0 0 0 0 0 127 0" result="hardAlpha"/>
<feOffset dx="9" dy="8"/>
<feGaussianBlur stdDeviation="12"/>
<feComposite in2="hardAlpha" operator="out"/>
<feColorMatrix type="matrix" values="0 0 0 0 0 0 0 0 0 0 0 0 0 0 0 0 0 0 0.25 0"/>
<feBlend mode="normal" in2="BackgroundImageFix" result="effect1_dropShadow_106_566"/>
<feBlend mode="normal" in="SourceGraphic" in2="effect1_dropShadow_106_566" result="shape"/>
</filter>
<linearGradient id="paint0_linear_106_566" x1="157.585" y1="-1.72622" x2="33.5099" y2="157.456" gradientUnits="userSpaceOnUse">
<stop offset="0.0370143" stop-color="#5751D8"/>
<stop offset="0.134219" stop-color="#7770E0"/>
<stop offset="0.451646" stop-color="#514BCD"/>
<stop offset="0.485154" stop-color="#7247E7"/>
<stop offset="0.526023" stop-color="#453FC3"/>
<stop offset="0.581312" stop-color="#453EC3"/>
<stop offset="0.620773" stop-color="#443FC3"/>
<stop offset="0.716746" stop-color="#7247E7"/>
<stop offset="0.90079" stop-color="#363290"/>
<stop offset="1" stop-color="#683CDF"/>
</linearGradient>
<radialGradient id="paint1_radial_106_566" cx="0" cy="0" r="1" gradientUnits="userSpaceOnUse" gradientTransform="translate(-6.57176 -9.06616) rotate(45.8335) scale(206.436 279.562)">
<stop stop-color="#E2C5FF"/>
<stop offset="0.357897" stop-color="#CD9BFF"/>
<stop offset="0.633096" stop-color="#AB57FF"/>
<stop offset="1" stop-color="#9D3CFF"/>
</radialGradient>
<linearGradient id="paint2_linear_106_566" x1="-31.4269" y1="-28.8774" x2="140.537" y2="150.62" gradientUnits="userSpaceOnUse">
<stop stop-color="#554FD8" stop-opacity="0.6"/>
<stop offset="0.134789" stop-color="#554FD8" stop-opacity="0.6"/>
<stop offset="0.215402" stop-color="#554FD8" stop-opacity="0.35"/>
<stop offset="0.718692" stop-color="#554FD8" stop-opacity="0.15"/>
<stop offset="0.797654" stop-color="#7770E0" stop-opacity="0.42"/>
<stop offset="1" stop-color="#554FD8" stop-opacity="0.87"/>
</linearGradient>
<linearGradient id="paint3_linear_106_566" x1="10.3956" y1="6.06412" x2="32.1976" y2="40.4275" gradientUnits="userSpaceOnUse">
<stop stop-color="#B56BFF"/>
<stop offset="1" stop-color="#9D3CFF" stop-opacity="0"/>
</linearGradient>
</defs>
</svg>
