<svg width="24" height="24" viewBox="0 0 24 24" fill="none" xmlns="http://www.w3.org/2000/svg">
<rect width="24" height="24" rx="6" fill="white" fill-opacity="0.1"/>
<rect x="0.5" y="0.5" width="23" height="23" rx="5.5" stroke="white" stroke-opacity="0.2"/>
<path d="M10.208 5C11.392 5 12.4267 5.23467 13.312 5.704C14.1973 6.17333 14.88 6.83467 15.36 7.688C15.8507 8.53067 16.096 9.50667 16.096 10.616C16.096 11.7147 15.8507 12.6907 15.36 13.544C14.88 14.3973 14.192 15.0587 13.296 15.528C12.4107 15.9973 11.3813 16.232 10.208 16.232H6V5H10.208ZM10.032 13.864C11.0667 13.864 11.872 13.5813 12.448 13.016C13.024 12.4507 13.312 11.6507 13.312 10.616C13.312 9.58133 13.024 8.776 12.448 8.2C11.872 7.624 11.0667 7.336 10.032 7.336H8.736V13.864H10.032Z" fill="white"/>
<path d="M18.9811 9.54003V11.732H16.0051V20.772H13.2691V11.732H10.2931V9.54003H18.9811Z" fill="white"/>
</svg>
