<svg width="30" height="30" viewBox="0 0 30 30" fill="none" xmlns="http://www.w3.org/2000/svg">
<path d="M7.93798 2.82031C9.93574 2.85569 11.3403 3.57025 12.4395 4.74468C13.434 5.82006 14.0272 7.05109 14.4896 8.32457C15.1177 10.0438 15.4492 11.8125 15.8069 13.5812C16.4001 16.4748 17.1678 19.3331 18.6159 22.0428C19.1045 22.9625 19.6977 23.8327 20.5614 24.5685C20.9016 24.8586 21.2854 25.1062 21.7391 25.2689C22.5591 25.559 23.2919 25.4528 23.9288 24.9435C24.7139 24.3209 25.2024 23.5355 25.6125 22.729C26.5285 20.9461 27.0432 19.0642 27.4532 17.1682C27.6102 16.4182 27.7411 15.6683 27.8545 14.9184C27.933 14.4019 28.4739 14.0764 29.1107 14.1472C29.6778 14.2109 30.0616 14.6637 29.9918 15.1589C29.6603 17.4582 29.1456 19.7293 28.2732 21.9366C27.7498 23.2596 27.113 24.5473 26.0399 25.6509C25.3769 26.3301 24.5918 26.889 23.5275 27.0871C21.9746 27.3772 20.6573 26.9598 19.4883 26.1533C18.3542 25.375 17.5865 24.3633 16.9497 23.295C15.5975 21.0381 14.8473 18.6327 14.193 16.1989C13.7393 14.508 13.5038 12.7888 13.085 11.0979C12.7448 9.70417 12.3261 8.32457 11.5845 7.02986C11.1571 6.287 10.6511 5.59366 9.82233 5.08427C8.65334 4.36264 7.29242 4.42631 6.23684 5.25407C5.33828 5.96156 4.77996 6.85299 4.30015 7.77273C3.40159 9.51315 2.88689 11.3385 2.48559 13.1921C2.35473 13.8076 2.25877 14.4302 2.15409 15.0528C2.06685 15.5905 1.55214 15.9301 0.906579 15.8664C0.330807 15.8098 -0.0617655 15.357 0.00802513 14.8405C0.313359 12.7393 0.810617 10.6734 1.60449 8.66416C2.18026 7.19259 2.89561 5.77054 4.0995 4.55366C4.92826 3.7259 5.92278 3.08208 7.25752 2.89106C7.52796 2.84861 7.7984 2.83446 7.93798 2.82031Z" fill="url(#paint0_linear_401_856)"/>
<path d="M7.93798 0C9.93574 0.0435663 11.3403 0.923607 12.4395 2.37001C13.434 3.69443 14.0272 5.21054 14.4896 6.77892C15.1177 8.89625 15.4492 11.0746 15.8069 13.2529C16.4001 16.8166 17.1678 20.3368 18.6159 23.674C19.1045 24.8067 19.6977 25.8784 20.5614 26.7846C20.9016 27.1418 21.2854 27.4468 21.7391 27.6472C22.5591 28.0044 23.2919 27.8737 23.9288 27.2464C24.7139 26.4796 25.2024 25.5124 25.6125 24.5191C26.5285 22.3234 27.0432 20.0057 27.4532 17.6705C27.6102 16.7469 27.7411 15.8233 27.8545 14.8997C27.933 14.2636 28.4739 13.8628 29.1107 13.9499C29.6778 14.0284 30.0616 14.586 29.9918 15.1959C29.6603 18.0278 29.1456 20.8247 28.2732 23.5433C27.7498 25.1726 27.113 26.7584 26.0399 28.1177C25.3769 28.9542 24.5918 29.6425 23.5275 29.8865C21.9746 30.2438 20.6573 29.7297 19.4883 28.7364C18.3542 27.7779 17.5865 26.5319 16.9497 25.2162C15.5975 22.4367 14.8473 19.4742 14.193 16.4768C13.7393 14.3943 13.5038 12.277 13.085 10.1945C12.7448 8.47801 12.3261 6.77892 11.5845 5.18439C11.1571 4.2695 10.6511 3.4156 9.82233 2.78825C8.65334 1.89949 7.29242 1.97791 6.23684 2.99736C5.33828 3.86869 4.77996 4.96656 4.30015 6.09929C3.40159 8.24275 2.88689 10.4908 2.48559 12.7737C2.35473 13.5317 2.25877 14.2985 2.15409 15.0652C2.06685 15.7274 1.55214 16.1457 0.906579 16.0673C0.330807 15.9976 -0.0617655 15.4399 0.00802513 14.8038C0.313359 12.216 0.810617 9.67173 1.60449 7.19716C2.18026 5.3848 2.89561 3.63343 4.0995 2.13475C4.92826 1.1153 5.92278 0.322391 7.25752 0.0871327C7.52796 0.0348531 7.7984 0.0174265 7.93798 0Z" fill="url(#paint1_linear_401_856)"/>
<path d="M7.93798 5.5127C9.93574 5.54025 11.3403 6.09686 12.4395 7.01168C13.434 7.84934 14.0272 8.80825 14.4896 9.80022C15.1177 11.1394 15.4492 12.5171 15.8069 13.8949C16.4001 16.1488 17.1678 18.3753 18.6159 20.486C19.1045 21.2024 19.6977 21.8802 20.5614 22.4534C20.9016 22.6793 21.2854 22.8722 21.7391 22.999C22.5591 23.2249 23.2919 23.1422 23.9288 22.7455C24.7139 22.2605 25.2024 21.6488 25.6125 21.0205C26.5285 19.6318 27.0432 18.1659 27.4532 16.6889C27.6102 16.1048 27.7411 15.5206 27.8545 14.9364C27.933 14.5341 28.4739 14.2806 29.1107 14.3357C29.6778 14.3853 30.0616 14.738 29.9918 15.1238C29.6603 16.9149 29.1456 18.6839 28.2732 20.4033C27.7498 21.4338 27.113 22.4368 26.0399 23.2966C25.3769 23.8256 24.5918 24.261 23.5275 24.4153C21.9746 24.6412 20.6573 24.3161 19.4883 23.6878C18.3542 23.0816 17.5865 22.2936 16.9497 21.4614C15.5975 19.7034 14.8473 17.8297 14.193 15.9339C13.7393 14.6168 13.5038 13.2776 13.085 11.9605C12.7448 10.8749 12.3261 9.80022 11.5845 8.79171C11.1571 8.21306 10.6511 7.67299 9.82233 7.2762C8.65334 6.71408 7.29242 6.76368 6.23684 7.40846C5.33828 7.95956 4.77996 8.65394 4.30015 9.37036C3.40159 10.7261 2.88689 12.1479 2.48559 13.5918C2.35473 14.0712 2.25877 14.5562 2.15409 15.0411C2.06685 15.46 1.55214 15.7245 0.90658 15.6749C0.330808 15.6308 -0.0617655 15.2781 0.00802512 14.8758C0.313359 13.2391 0.810618 11.6299 1.60449 10.0647C2.18026 8.91847 2.89561 7.81076 4.0995 6.86288C4.92826 6.2181 5.92278 5.7166 7.25753 5.5678C7.52796 5.53474 7.7984 5.52372 7.93798 5.5127Z" fill="white"/>
<defs>
<linearGradient id="paint0_linear_401_856" x1="15.0014" y1="-0.156329" x2="15.0014" y2="28.1174" gradientUnits="userSpaceOnUse">
<stop offset="0.0874372" stop-color="white" stop-opacity="0"/>
<stop offset="0.536458" stop-color="white"/>
<stop offset="1" stop-color="white" stop-opacity="0"/>
</linearGradient>
<linearGradient id="paint1_linear_401_856" x1="15.0014" y1="-3.66597" x2="15.0014" y2="31.1553" gradientUnits="userSpaceOnUse">
<stop offset="0.0874372" stop-color="white" stop-opacity="0"/>
<stop offset="0.536458" stop-color="white"/>
<stop offset="1" stop-color="white" stop-opacity="0"/>
</linearGradient>
</defs>
</svg>
