<svg width="1400" height="800" viewBox="0 0 1400 800" fill="none" xmlns="http://www.w3.org/2000/svg">
<rect width="7.09312" height="213.68" rx="3.54656" transform="matrix(-0.819152 0.573576 0.573576 0.819152 311.701 -12.6234)" fill="url(#paint0_linear_104_735)"/>
<rect width="5.31984" height="160.482" rx="2.65992" transform="matrix(-0.819152 0.573576 0.573576 0.819152 640.966 -28.5829)" fill="url(#paint1_linear_104_735)"/>
<rect width="7.97976" height="62.0648" rx="3.98988" transform="matrix(-0.819152 0.573576 0.573576 0.819152 911.796 114.166)" fill="url(#paint2_linear_104_735)"/>
<rect width="26.5992" height="354.656" rx="13.2996" transform="matrix(-0.819152 0.573576 0.573576 0.819152 342.753 -29.4696)" fill="url(#paint3_linear_104_735)"/>
<rect width="20.3927" height="265.992" rx="10.1964" transform="matrix(-0.819152 0.573576 0.573576 0.819152 383.774 -127)" fill="url(#paint4_linear_104_735)"/>
<rect width="16.8462" height="354.656" rx="8.42308" transform="matrix(-0.819152 0.573576 0.573576 0.819152 1196.58 -102.174)" fill="url(#paint5_linear_104_735)"/>
<rect width="16.8462" height="354.656" rx="8.42308" transform="matrix(-0.819152 0.573576 0.573576 0.819152 961.618 530.887)" fill="url(#paint6_linear_104_735)"/>
<rect opacity="0.312783" width="4.29756" height="213.68" rx="2.14878" transform="matrix(-0.809017 0.587785 0.587785 0.809017 602.846 475.915)" fill="url(#paint7_linear_104_735)"/>
<rect opacity="0.312783" width="4.29756" height="213.68" rx="2.14878" transform="matrix(-0.809017 0.587785 0.587785 0.809017 732.295 793.333)" fill="url(#paint8_linear_104_735)"/>
<rect opacity="0.312783" width="4.29756" height="213.68" rx="2.14878" transform="matrix(-0.809017 0.587785 0.587785 0.809017 896.324 605.365)" fill="url(#paint9_linear_104_735)"/>
<rect width="4.29756" height="88.664" rx="2.14878" transform="matrix(-0.809017 0.587785 0.587785 0.809017 555.854 449.316)" fill="url(#paint10_linear_104_735)"/>
<rect opacity="0.169044" width="6.07349" height="66.498" rx="3.03674" transform="matrix(-0.809017 0.587785 0.587785 0.809017 123.723 121.005)" fill="url(#paint11_linear_104_735)"/>
<rect opacity="0.312783" width="7.09312" height="213.68" rx="3.54656" transform="matrix(-0.809017 0.587785 0.587785 0.809017 723.917 523.794)" fill="url(#paint12_linear_104_735)"/>
<rect width="4.29756" height="213.68" rx="2.14878" transform="matrix(-0.809017 0.587785 0.587785 0.809017 37.1692 293.267)" fill="url(#paint13_linear_104_735)"/>
<rect opacity="0.143965" width="10.6397" height="213.68" rx="5.31984" transform="matrix(-0.809017 0.587785 0.587785 0.809017 8.60767 293.267)" fill="url(#paint14_linear_104_735)"/>
<defs>
<linearGradient id="paint0_linear_104_735" x1="-4.02747" y1="-355.825" x2="-30.9797" y2="-355.508" gradientUnits="userSpaceOnUse">
<stop stop-color="#8468F5"/>
<stop offset="1" stop-color="#EC74E7"/>
</linearGradient>
<linearGradient id="paint1_linear_104_735" x1="21.7908" y1="-717.211" x2="-23.583" y2="-716.923" gradientUnits="userSpaceOnUse">
<stop stop-color="#8468F5"/>
<stop offset="1" stop-color="#EC74E7"/>
</linearGradient>
<linearGradient id="paint2_linear_104_735" x1="0.0914804" y1="-181.777" x2="-41.6101" y2="-179.336" gradientUnits="userSpaceOnUse">
<stop stop-color="#8468F5"/>
<stop offset="1" stop-color="#EC74E7"/>
</linearGradient>
<linearGradient id="paint3_linear_104_735" x1="-15.103" y1="-590.581" x2="-116.116" y2="-587.892" gradientUnits="userSpaceOnUse">
<stop stop-color="#8468F5"/>
<stop offset="1" stop-color="#EC74E7"/>
</linearGradient>
<linearGradient id="paint4_linear_104_735" x1="70.9846" y1="-1380.6" x2="-142.998" y2="-1378.28" gradientUnits="userSpaceOnUse">
<stop stop-color="#8468F5"/>
<stop offset="0.946455" stop-color="#E673E8"/>
<stop offset="1" stop-color="#EC74E7"/>
</linearGradient>
<linearGradient id="paint5_linear_104_735" x1="-9.56523" y1="-590.581" x2="-73.5676" y2="-589.502" gradientUnits="userSpaceOnUse">
<stop stop-color="#8468F5"/>
<stop offset="1" stop-color="#EC74E7"/>
</linearGradient>
<linearGradient id="paint6_linear_104_735" x1="-9.56523" y1="-590.581" x2="-73.5676" y2="-589.502" gradientUnits="userSpaceOnUse">
<stop stop-color="#8468F5"/>
<stop offset="1" stop-color="#EC74E7"/>
</linearGradient>
<linearGradient id="paint7_linear_104_735" x1="-2.44015" y1="-355.825" x2="-18.7713" y2="-355.709" gradientUnits="userSpaceOnUse">
<stop stop-color="#8468F5"/>
<stop offset="1" stop-color="#EC74E7"/>
</linearGradient>
<linearGradient id="paint8_linear_104_735" x1="-2.44015" y1="-355.825" x2="-18.7713" y2="-355.709" gradientUnits="userSpaceOnUse">
<stop stop-color="#8468F5"/>
<stop offset="1" stop-color="#EC74E7"/>
</linearGradient>
<linearGradient id="paint9_linear_104_735" x1="-2.44015" y1="-355.825" x2="-18.7713" y2="-355.709" gradientUnits="userSpaceOnUse">
<stop stop-color="#8468F5"/>
<stop offset="1" stop-color="#EC74E7"/>
</linearGradient>
<linearGradient id="paint10_linear_104_735" x1="-2.44015" y1="-147.645" x2="-18.7673" y2="-147.364" gradientUnits="userSpaceOnUse">
<stop stop-color="#8468F5"/>
<stop offset="1" stop-color="#EC74E7"/>
</linearGradient>
<linearGradient id="paint11_linear_104_735" x1="-3.44852" y1="-110.734" x2="-26.5054" y2="-109.987" gradientUnits="userSpaceOnUse">
<stop stop-color="#8468F5"/>
<stop offset="1" stop-color="#EC74E7"/>
</linearGradient>
<linearGradient id="paint12_linear_104_735" x1="-4.02747" y1="-355.825" x2="-30.9797" y2="-355.508" gradientUnits="userSpaceOnUse">
<stop stop-color="#8468F5"/>
<stop offset="1" stop-color="#EC74E7"/>
</linearGradient>
<linearGradient id="paint13_linear_104_735" x1="-2.44015" y1="-355.825" x2="-18.7713" y2="-355.709" gradientUnits="userSpaceOnUse">
<stop stop-color="#8468F5"/>
<stop offset="1" stop-color="#EC74E7"/>
</linearGradient>
<linearGradient id="paint14_linear_104_735" x1="-6.0412" y1="-355.825" x2="-46.4626" y2="-355.111" gradientUnits="userSpaceOnUse">
<stop stop-color="#8468F5"/>
<stop offset="1" stop-color="#EC74E7"/>
</linearGradient>
</defs>
</svg>
