<svg width="403" height="398" viewBox="0 0 403 398" fill="none" xmlns="http://www.w3.org/2000/svg">
<path d="M1 388.024C25.5283 369.705 53.4153 390.162 81.7093 383.444C110.818 376.422 110.41 361.562 149.696 351.486C174.53 345.074 246.079 390.06 271.625 392.095C302.362 394.436 318.036 372.86 348.06 381.511C365.973 386.701 383.784 391.892 401.697 397.083" stroke="url(#paint0_linear_173_2396)" stroke-miterlimit="10"/>
<path d="M1 377.541C17.2843 365.328 35.1973 370.315 53.619 372.961C62.7789 374.285 72.0404 374.997 81.4039 372.758C110.41 365.939 110.512 351.079 149.289 341.919C157.024 340.087 168.932 343.242 182.469 348.23C211.17 358.916 246.995 377.338 266.74 381.002C268.369 381.307 269.895 381.511 271.32 381.613C296.459 383.241 311.726 369.297 332.895 368.89C337.577 368.789 342.564 369.399 347.958 370.926C365.871 376.015 383.784 381.307 401.697 386.498" stroke="url(#paint1_linear_173_2396)" stroke-miterlimit="10"/>
<path d="M1 367.058C17.1826 354.947 34.9936 359.832 53.4152 362.377C62.4734 363.7 71.7353 364.412 81.0988 362.275C109.902 355.659 110.614 340.698 148.882 332.556C156.617 330.927 168.525 334.184 181.96 339.273C210.763 350.265 246.385 367.567 266.435 370.824C268.063 371.129 269.59 371.333 271.015 371.333C296.052 372.554 311.522 358.916 332.692 358.509C337.373 358.407 342.361 358.916 347.755 360.443C365.769 365.43 383.682 370.722 401.595 376.015" stroke="url(#paint2_linear_173_2396)" stroke-miterlimit="10"/>
<path d="M1 356.575C17.1826 344.464 34.8918 349.247 53.2117 351.792C62.2699 353.115 71.4299 353.725 80.7934 351.69C109.393 345.176 110.716 330.317 148.475 322.989C156.312 321.462 168.118 325.024 181.451 330.215C210.457 341.512 245.774 357.695 266.129 360.545C267.758 360.748 269.284 360.952 270.709 361.053C295.543 361.969 311.217 348.637 332.59 348.128C337.272 348.026 342.259 348.535 347.653 350.062C365.667 354.947 383.58 360.341 401.697 365.532" stroke="url(#paint3_linear_173_2396)" stroke-miterlimit="10"/>
<path d="M1 345.991C17.0808 333.981 34.7901 338.561 53.0082 341.207C61.9646 342.428 71.2263 343.141 80.488 341.105C108.884 334.795 110.817 319.936 148.068 313.524C156.007 312.2 167.711 315.864 180.942 321.157C210.05 332.759 245.163 347.822 265.824 350.265C267.453 350.469 268.979 350.672 270.404 350.672C295.136 351.181 311.013 338.154 332.386 337.645C337.17 337.543 342.157 338.052 347.551 339.477C365.667 344.26 383.58 349.654 401.697 354.947" stroke="url(#paint4_linear_173_2396)" stroke-miterlimit="10"/>
<path d="M1 335.507C16.979 323.599 34.6884 328.078 52.8047 330.622C61.7611 331.843 70.9209 332.454 80.1826 330.52C108.375 324.414 110.919 309.656 147.661 304.058C155.701 302.837 167.304 306.806 180.433 312.2C209.643 324.108 244.553 338.052 265.519 340.087C267.147 340.291 268.674 340.393 270.099 340.393C294.729 340.596 310.81 327.874 332.183 327.263C336.966 327.162 341.953 327.671 347.348 329.095C365.566 333.777 383.478 339.273 401.595 344.566" stroke="url(#paint5_linear_173_2396)" stroke-miterlimit="10"/>
<path d="M1 325.024C16.8772 313.116 34.4849 317.493 52.6012 320.037C61.5576 321.259 70.6155 321.869 79.8773 319.935C107.866 313.931 111.123 299.275 147.254 294.593C155.294 293.575 166.897 297.748 179.924 303.142C209.236 315.356 243.942 328.179 265.213 329.808C266.842 329.91 268.369 330.011 269.793 330.011C294.322 329.91 310.606 317.391 331.979 316.78C336.763 316.679 341.852 317.188 347.246 318.511C365.464 323.091 383.377 328.688 401.697 333.981" stroke="url(#paint6_linear_173_2396)" stroke-miterlimit="10"/>
<path d="M1 314.541C16.8772 302.735 34.3829 306.908 52.3974 309.452C61.252 310.674 70.4122 311.285 79.5721 309.351C107.357 303.651 111.225 288.995 146.847 285.128C154.989 284.212 166.49 288.588 179.415 294.186C208.829 306.705 243.23 318.511 265.01 319.732C266.638 319.834 268.165 319.936 269.59 319.936C294.016 319.427 310.504 307.213 331.979 306.603C336.865 306.501 341.852 306.908 347.246 308.333C365.566 312.913 383.478 318.409 401.798 323.701" stroke="url(#paint7_linear_173_2396)" stroke-miterlimit="10"/>
<path d="M1 304.058C16.7754 292.252 34.2812 296.425 52.1939 298.868C61.0485 300.089 70.1068 300.598 79.2667 298.766C106.848 293.168 111.428 278.716 146.44 275.662C154.684 274.95 166.083 279.53 178.906 285.128C208.422 297.952 242.619 308.638 264.705 309.452C266.333 309.554 267.86 309.554 269.285 309.554C293.507 308.74 310.301 296.832 331.776 296.12C336.661 295.916 341.648 296.425 347.042 297.748C365.362 302.226 383.377 307.824 401.697 313.116" stroke="url(#paint8_linear_173_2396)" stroke-miterlimit="10"/>
<path d="M1 293.473C16.6737 281.769 34.0777 285.738 51.9904 288.181C60.7433 289.402 69.8014 289.911 78.9614 288.079C106.339 282.685 111.632 268.335 145.931 266.095C154.276 265.587 165.574 270.37 178.296 275.968C208.015 289.199 241.907 298.664 264.298 299.071C265.926 299.071 267.453 299.173 268.878 299.071C292.999 297.952 309.995 286.247 331.47 285.535C336.356 285.331 341.444 285.84 346.839 287.061C365.26 291.438 383.275 297.036 401.595 302.43" stroke="url(#paint9_linear_173_2396)" stroke-miterlimit="10"/>
<path d="M1 282.99C16.5719 271.388 33.9759 275.255 51.7869 277.596C60.5398 278.716 69.496 279.225 78.656 277.494C105.83 272.304 111.733 258.157 145.523 256.63C153.971 256.223 165.167 261.312 177.787 267.011C207.608 280.548 241.194 288.995 263.992 288.893C265.621 288.893 267.147 288.893 268.572 288.792C292.592 287.367 309.69 275.968 331.267 275.154C336.152 274.95 341.241 275.459 346.635 276.68C365.057 280.955 383.071 286.654 401.595 292.049" stroke="url(#paint10_linear_173_2396)" stroke-miterlimit="10"/>
<path d="M1 272.507C16.4701 260.905 33.8742 264.671 51.5834 267.011C60.3362 268.131 69.2924 268.64 78.3506 266.91C105.322 261.923 111.937 247.979 145.116 247.165C153.666 246.961 164.76 252.152 177.278 257.953C207.201 271.795 240.583 279.225 263.687 278.614C265.315 278.614 266.842 278.614 268.267 278.512C292.184 276.782 309.487 265.586 331.165 264.772C336.152 264.569 341.241 264.976 346.533 266.197C365.057 270.37 383.071 276.07 401.595 281.464" stroke="url(#paint11_linear_173_2396)" stroke-miterlimit="10"/>
<path d="M1 262.024C16.4701 250.524 33.7722 254.086 51.3797 256.427C60.0307 257.546 68.9873 258.055 78.0455 256.427C104.915 251.541 112.243 237.903 144.709 237.801C153.361 237.801 164.352 243.196 176.769 249.099C206.793 263.246 239.973 269.556 263.381 268.538C265.01 268.436 266.537 268.436 267.961 268.335C291.675 266.299 309.283 255.307 330.962 254.493C335.949 254.289 341.037 254.696 346.432 255.918C365.057 259.989 383.071 265.79 401.595 271.184" stroke="url(#paint12_linear_173_2396)" stroke-miterlimit="10"/>
<path d="M1 251.541C16.3683 240.04 33.5687 243.603 51.1762 245.842C59.8272 246.961 68.6819 247.368 77.7401 245.842C104.406 241.16 112.446 227.827 144.302 228.336C153.055 228.438 164.047 234.137 176.26 240.04C206.386 254.595 239.26 259.785 263.076 258.259C264.704 258.157 266.231 258.055 267.656 257.953C291.268 255.511 309.079 244.926 330.758 244.01C335.745 243.806 340.834 244.213 346.228 245.333C364.853 249.302 382.868 255.205 401.595 260.599" stroke="url(#paint13_linear_173_2396)" stroke-miterlimit="10"/>
<path d="M1 240.957C16.2666 229.557 33.467 232.916 50.9727 235.155C59.5219 236.275 68.4783 236.682 77.4347 235.155C103.897 230.677 112.65 217.548 143.895 218.769C152.75 219.074 163.64 224.978 175.751 230.982C205.979 245.842 238.65 250.015 262.771 247.979C264.399 247.877 265.926 247.776 267.351 247.572C290.861 244.824 308.876 234.443 330.554 233.527C335.541 233.323 340.732 233.73 346.126 234.85C364.853 238.717 382.868 244.62 401.595 250.116" stroke="url(#paint14_linear_173_2396)" stroke-miterlimit="10"/>
<path d="M1 230.473C16.1648 219.176 33.3653 222.331 50.7692 224.57C59.3184 225.69 68.1729 225.995 77.1293 224.57C103.388 220.194 112.853 207.472 143.488 209.304C152.444 209.813 163.233 215.817 175.243 221.924C205.674 237.089 237.937 240.244 262.466 237.7C264.094 237.496 265.621 237.394 267.045 237.292C290.454 234.239 308.672 224.163 330.453 223.145C335.542 222.942 340.63 223.349 346.024 224.367C364.751 228.132 382.868 234.137 401.595 239.531" stroke="url(#paint15_linear_173_2396)" stroke-miterlimit="10"/>
<path d="M1 219.99C16.063 208.693 33.1618 211.848 50.5656 213.986C59.1149 215.003 67.8676 215.41 76.8239 213.986C102.879 209.813 113.057 197.396 143.081 199.839C152.139 200.551 162.826 206.759 174.835 212.866C205.368 228.438 237.428 230.372 262.364 227.42C263.992 227.217 265.519 227.115 266.944 226.911C290.251 223.553 308.571 213.68 330.453 212.662C335.542 212.459 340.732 212.764 346.024 213.884C364.853 217.548 382.97 223.553 401.798 229.049" stroke="url(#paint16_linear_173_2396)" stroke-miterlimit="10"/>
<path d="M1 209.507C16.063 198.312 33.0598 201.263 50.3619 203.401C58.8094 204.418 67.5624 204.826 76.5188 203.401C102.37 199.431 113.26 187.422 142.674 190.271C151.834 191.187 162.419 197.599 174.326 203.808C204.961 219.685 236.818 220.601 262.058 217.141C263.687 216.937 265.213 216.733 266.74 216.53C289.843 212.866 308.469 203.197 330.351 202.179C335.44 201.976 340.63 202.281 346.024 203.299C364.853 206.861 382.97 212.968 401.9 218.464" stroke="url(#paint17_linear_173_2396)" stroke-miterlimit="10"/>
<path d="M1 199.024C15.9612 187.829 32.9581 190.679 50.1584 192.816C58.6059 193.834 67.3588 194.139 76.2134 192.816C101.861 188.948 113.464 177.346 142.267 180.806C151.528 181.926 162.011 188.541 173.818 194.75C204.554 210.932 236.105 210.932 261.753 206.861C263.382 206.658 264.908 206.454 266.435 206.149C289.436 202.179 308.265 192.816 330.147 191.696C335.236 191.391 340.427 191.798 345.821 192.816C364.751 196.276 382.868 202.383 401.798 207.981" stroke="url(#paint18_linear_173_2396)" stroke-miterlimit="10"/>
<path d="M1 188.439C15.8595 177.346 32.8563 180.094 49.9549 182.129C58.3006 183.147 67.0534 183.452 75.908 182.129C101.352 178.465 113.769 167.27 141.758 171.239C151.223 172.562 161.503 179.381 173.207 185.691C204.045 202.281 235.393 201.162 261.346 196.582C262.974 196.276 264.501 196.073 266.028 195.869C288.928 191.595 307.96 182.435 329.944 181.315C335.134 181.01 340.325 181.417 345.719 182.333C364.752 185.793 382.868 191.9 401.9 197.396" stroke="url(#paint19_linear_173_2396)" stroke-miterlimit="10"/>
<path d="M0.999999 177.956C15.7577 166.964 32.6528 169.509 49.7514 171.544C58.0971 172.562 66.7481 172.766 75.6027 171.544C100.843 168.084 113.973 157.296 141.351 161.774C150.918 163.3 161.096 170.323 172.698 176.633C203.638 193.528 234.782 191.391 261.04 186.302C262.669 185.997 264.196 185.793 265.722 185.488C288.52 181.01 307.756 171.952 329.74 170.832C334.931 170.527 340.121 170.832 345.515 171.85C364.548 175.208 382.664 181.417 401.798 186.913" stroke="url(#paint20_linear_173_2396)" stroke-miterlimit="10"/>
<path d="M0.999999 167.473C15.6559 156.481 32.5511 158.924 49.5479 160.96C57.7918 161.977 66.5445 162.181 75.2973 160.96C100.334 157.601 114.176 147.322 140.944 152.309C150.612 154.141 160.688 161.265 172.189 167.575C203.231 184.877 234.07 181.62 260.735 176.023C262.364 175.717 263.89 175.412 265.417 175.107C288.011 170.323 307.553 161.57 329.537 160.349C334.727 160.044 340.02 160.349 345.312 161.265C364.446 164.522 382.563 170.73 401.697 176.328" stroke="url(#paint21_linear_173_2396)" stroke-miterlimit="10"/>
<path d="M0.999999 156.99C15.6559 146.1 32.4491 148.441 49.3441 150.375C57.5881 151.291 66.2393 151.494 74.9921 150.477C99.8258 147.322 114.38 137.449 140.536 142.945C150.307 144.981 160.281 152.207 171.68 158.721C202.824 176.328 233.459 172.155 260.43 165.947C262.058 165.54 263.585 165.336 265.112 164.929C287.604 159.84 307.247 151.291 329.435 150.07C334.727 149.764 339.918 150.069 345.312 150.884C364.446 154.039 382.664 160.349 401.9 165.947" stroke="url(#paint22_linear_173_2396)" stroke-miterlimit="10"/>
<path d="M0.999999 146.406C15.5541 135.515 32.2456 137.754 49.1406 139.688C57.3846 140.604 65.9339 140.808 74.6868 139.79C99.3168 136.839 114.583 127.475 140.129 133.378C150.002 135.617 159.874 143.047 171.172 149.561C202.417 167.575 232.848 162.283 260.125 155.566C261.651 155.158 263.28 154.853 264.806 154.446C287.197 149.052 307.044 140.808 329.231 139.485C334.524 139.179 339.816 139.485 345.108 140.299C364.344 143.352 382.562 149.662 401.798 155.26" stroke="url(#paint23_linear_173_2396)" stroke-miterlimit="10"/>
<path d="M0.999999 135.922C15.4523 125.134 32.1439 127.271 48.9371 129.103C57.0793 130.019 65.6286 130.223 74.3814 129.205C98.8079 126.355 114.787 117.603 139.722 123.913C149.696 126.457 159.467 133.989 170.663 140.604C202.01 159.026 232.238 152.716 259.819 145.388C261.346 144.981 262.974 144.675 264.501 144.268C286.79 138.569 306.84 130.528 329.028 129.205C334.32 128.9 339.612 129.103 345.007 129.918C364.344 132.869 382.461 139.281 401.798 144.879" stroke="url(#paint24_linear_173_2396)" stroke-miterlimit="10"/>
<path d="M0.999999 125.439C15.3506 114.753 32.0422 116.687 48.7336 118.519C56.8758 119.435 65.4249 119.536 74.076 118.62C98.4007 115.974 114.99 107.629 139.315 114.448C149.391 117.196 159.06 124.931 170.154 131.546C201.603 150.273 231.525 142.945 259.616 135.21C261.142 134.803 262.771 134.396 264.298 133.989C286.485 127.984 306.739 120.147 328.926 118.824C334.218 118.519 339.511 118.722 344.905 119.536C364.243 122.386 382.461 128.798 401.9 134.498" stroke="url(#paint25_linear_173_2396)" stroke-miterlimit="10"/>
<path d="M0.999999 114.956C15.2488 104.27 31.9404 106.102 48.5301 107.934C56.5705 108.85 65.1196 108.952 73.7706 108.036C97.8918 105.593 115.092 97.7561 138.908 104.982C148.984 108.036 158.653 115.872 169.645 122.59C201.196 141.724 230.914 133.378 259.31 125.032C260.837 124.524 262.465 124.116 263.992 123.709C286.078 117.501 306.535 109.868 328.824 108.443C334.218 108.137 339.511 108.341 344.803 109.053C364.242 111.801 382.461 118.315 401.9 124.015" stroke="url(#paint26_linear_173_2396)" stroke-miterlimit="10"/>
<path d="M0.999999 104.473C15.2488 93.8885 31.7367 95.6188 48.3263 97.349C56.3667 98.265 64.8144 98.2649 73.4655 97.4507C97.3831 95.1098 115.296 87.8838 138.501 95.517C148.679 98.8757 158.246 106.814 169.136 113.532C200.789 132.971 230.304 123.709 259.005 114.753C260.532 114.244 262.16 113.837 263.687 113.328C285.569 106.814 306.331 99.3845 328.621 97.9596C334.015 97.6543 339.307 97.8579 344.701 98.5704C364.141 101.217 382.359 107.832 401.9 113.43" stroke="url(#paint27_linear_173_2396)" stroke-miterlimit="10"/>
<path d="M0.999999 93.8885C15.147 83.3037 31.635 84.9322 48.1228 86.6624C56.1632 87.4766 64.5091 87.5784 73.1601 86.7641C96.8742 84.6268 115.499 78.0114 138.094 85.95C148.373 89.614 157.737 97.6543 168.627 104.372C200.382 124.218 229.693 113.837 258.7 104.372C260.226 103.863 261.855 103.354 263.381 102.947C285.162 96.1277 306.026 89.0033 328.417 87.4766C333.811 87.0695 339.205 87.2731 344.498 87.9855C364.039 90.53 382.257 97.1454 401.9 102.845" stroke="url(#paint28_linear_173_2396)" stroke-miterlimit="10"/>
<path d="M0.999999 83.4055C15.0452 72.9225 31.5332 74.3473 47.9193 76.0775C55.858 76.8917 64.3055 76.8918 72.8547 76.1793C96.3652 74.1438 115.601 68.1389 137.585 76.4846C147.966 80.3521 157.228 88.596 168.016 95.4151C199.771 115.669 228.981 104.27 258.293 94.1938C259.819 93.6849 261.448 93.1761 262.974 92.6672C284.653 85.5428 305.721 78.6219 328.112 77.0952C333.506 76.6881 338.9 76.8917 344.193 77.6041C363.836 79.945 382.054 86.7641 401.697 92.4637" stroke="url(#paint29_linear_173_2396)" stroke-miterlimit="10"/>
<path d="M0.999999 72.9224C14.9435 62.5412 31.3297 63.8644 47.7158 65.4928C55.6545 66.307 64.0001 66.307 72.5493 65.5945C95.8563 63.7626 115.703 58.2666 137.178 67.0194C147.559 71.1923 156.821 79.538 167.507 86.3571C199.364 107.018 228.37 94.601 257.987 83.9144C259.514 83.3038 261.142 82.7949 262.669 82.286C284.246 74.9581 305.517 68.139 328.01 66.6123C333.506 66.2052 338.798 66.4088 344.193 67.0194C363.836 69.2585 382.155 76.0776 401.798 81.8789" stroke="url(#paint30_linear_173_2396)" stroke-miterlimit="10"/>
<path d="M0.999999 62.4395C14.9435 52.0582 31.228 53.2795 47.5123 54.9079C55.3492 55.7221 63.6947 55.7221 72.244 55.1114C95.3474 53.483 115.805 48.4959 136.771 57.5541C147.254 62.1341 156.414 70.4798 166.999 77.4006C198.957 98.3667 227.76 85.0339 257.682 73.7367C259.209 73.126 260.837 72.6171 262.364 72.0064C283.839 64.3731 305.314 57.8594 327.806 56.2309C333.302 55.8238 338.696 56.0274 343.989 56.6381C363.734 58.8772 381.952 65.6962 401.697 71.3958" stroke="url(#paint31_linear_173_2396)" stroke-miterlimit="10"/>
<path d="M0.999999 51.9563C14.8417 41.6769 31.126 42.6946 47.3086 44.3231C55.1454 45.1373 63.4913 45.0354 71.9388 44.5266C94.8387 42.9999 115.906 38.7253 136.364 48.0888C146.948 52.9741 156.007 61.4216 166.49 68.3424C198.549 89.7156 227.149 75.3651 257.377 63.4572C258.903 62.8465 260.532 62.2358 262.058 61.7269C283.431 53.7883 305.11 47.4781 327.603 45.8497C333.099 45.4426 338.493 45.5444 343.887 46.1551C363.632 48.2924 381.952 55.1115 401.798 60.9128" stroke="url(#paint32_linear_173_2396)" stroke-miterlimit="10"/>
<path d="M0.999999 41.3715C14.7399 31.092 31.0243 32.1098 47.1051 33.6365C54.9419 34.4507 63.186 34.3489 71.6335 33.84C94.3297 32.4151 116.008 28.7512 135.957 38.5218C146.541 43.7125 155.6 52.2616 165.981 59.2843C198.142 81.0646 226.64 65.6962 257.071 53.1776C258.598 52.567 260.125 51.9564 261.753 51.3457C283.025 43.2035 304.907 37.0968 327.399 35.3666C332.997 34.9595 338.391 35.0614 343.684 35.5703C363.53 37.6058 381.85 44.5266 401.697 50.3279" stroke="url(#paint33_linear_173_2396)" stroke-miterlimit="10"/>
<path d="M0.999999 30.8885C14.6381 20.7108 30.8208 21.525 46.9016 23.0516C54.6366 23.7641 62.8806 23.6624 71.3281 23.2553C93.8208 22.0339 116.11 18.9806 135.55 29.0565C146.134 34.5525 155.192 43.2036 165.472 50.2262C197.633 72.4136 226.029 56.0274 256.766 42.8981C258.293 42.2875 259.819 41.575 261.448 40.9644C282.617 32.5169 304.601 26.6139 327.297 24.8836C332.895 24.4765 338.289 24.5783 343.582 25.0872C363.53 27.0209 381.748 34.0435 401.697 39.8448" stroke="url(#paint34_linear_173_2396)" stroke-miterlimit="10"/>
<path d="M0.999999 20.4054C14.5364 10.3295 30.7191 11.0419 46.6981 12.4668C54.4331 13.1792 62.5752 13.0775 71.0227 12.6704C93.3119 11.6526 116.11 9.10813 135.142 19.5912C145.829 25.4942 154.785 34.1454 164.963 41.168C197.226 63.7625 225.419 46.3586 256.562 32.6187C258.089 31.9062 259.616 31.2956 261.244 30.5831C282.312 21.9321 304.499 16.1308 327.196 14.4006C332.793 13.9935 338.188 14.0952 343.582 14.5023C363.53 16.3343 381.85 23.3569 401.9 29.1582" stroke="url(#paint35_linear_173_2396)" stroke-miterlimit="10"/>
<path d="M0.999999 9.92231C14.5364 -0.153622 30.6173 0.457139 46.4946 1.88202C74.4833 4.52822 109.189 -4.8353 134.633 10.1259C145.32 16.3343 154.276 25.0871 164.352 32.2115C196.717 55.2131 224.706 36.7915 256.155 22.4409C278.445 12.2632 302.464 6.05482 326.89 4.12105C353.76 1.98373 376.354 11.449 401.697 18.8787" stroke="url(#paint36_linear_173_2396)" stroke-miterlimit="10"/>
<defs>
<linearGradient id="paint0_linear_173_2396" x1="201.294" y1="397.644" x2="201.294" y2="350.283" gradientUnits="userSpaceOnUse">
<stop stop-color="#7770E0"/>
<stop offset="1" stop-color="#554FD8"/>
</linearGradient>
<linearGradient id="paint1_linear_173_2396" x1="201.294" y1="387.045" x2="201.294" y2="340.829" gradientUnits="userSpaceOnUse">
<stop stop-color="#7770E0"/>
<stop offset="1" stop-color="#554FD8"/>
</linearGradient>
<linearGradient id="paint2_linear_173_2396" x1="201.243" y1="376.547" x2="201.243" y2="331.585" gradientUnits="userSpaceOnUse">
<stop stop-color="#7770E0"/>
<stop offset="1" stop-color="#554FD8"/>
</linearGradient>
<linearGradient id="paint3_linear_173_2396" x1="201.294" y1="366.052" x2="201.294" y2="322.096" gradientUnits="userSpaceOnUse">
<stop stop-color="#7770E0"/>
<stop offset="1" stop-color="#554FD8"/>
</linearGradient>
<linearGradient id="paint4_linear_173_2396" x1="201.294" y1="355.453" x2="201.294" y2="312.731" gradientUnits="userSpaceOnUse">
<stop stop-color="#7770E0"/>
<stop offset="1" stop-color="#554FD8"/>
</linearGradient>
<linearGradient id="paint5_linear_173_2396" x1="201.243" y1="345.06" x2="201.243" y2="303.327" gradientUnits="userSpaceOnUse">
<stop stop-color="#7770E0"/>
<stop offset="1" stop-color="#554FD8"/>
</linearGradient>
<linearGradient id="paint6_linear_173_2396" x1="201.294" y1="334.461" x2="201.294" y2="293.945" gradientUnits="userSpaceOnUse">
<stop stop-color="#7770E0"/>
<stop offset="1" stop-color="#554FD8"/>
</linearGradient>
<linearGradient id="paint7_linear_173_2396" x1="201.344" y1="324.171" x2="201.344" y2="284.522" gradientUnits="userSpaceOnUse">
<stop stop-color="#7770E0"/>
<stop offset="1" stop-color="#554FD8"/>
</linearGradient>
<linearGradient id="paint8_linear_173_2396" x1="201.294" y1="313.572" x2="201.294" y2="275.12" gradientUnits="userSpaceOnUse">
<stop stop-color="#7770E0"/>
<stop offset="1" stop-color="#554FD8"/>
</linearGradient>
<linearGradient id="paint9_linear_173_2396" x1="201.243" y1="302.871" x2="201.243" y2="265.603" gradientUnits="userSpaceOnUse">
<stop stop-color="#7770E0"/>
<stop offset="1" stop-color="#554FD8"/>
</linearGradient>
<linearGradient id="paint10_linear_173_2396" x1="201.243" y1="292.479" x2="201.243" y2="256.164" gradientUnits="userSpaceOnUse">
<stop stop-color="#7770E0"/>
<stop offset="1" stop-color="#554FD8"/>
</linearGradient>
<linearGradient id="paint11_linear_173_2396" x1="201.243" y1="281.88" x2="201.243" y2="246.73" gradientUnits="userSpaceOnUse">
<stop stop-color="#7770E0"/>
<stop offset="1" stop-color="#554FD8"/>
</linearGradient>
<linearGradient id="paint12_linear_173_2396" x1="201.243" y1="271.59" x2="201.243" y2="237.384" gradientUnits="userSpaceOnUse">
<stop stop-color="#7770E0"/>
<stop offset="1" stop-color="#554FD8"/>
</linearGradient>
<linearGradient id="paint13_linear_173_2396" x1="201.243" y1="260.991" x2="201.243" y2="227.918" gradientUnits="userSpaceOnUse">
<stop stop-color="#7770E0"/>
<stop offset="1" stop-color="#554FD8"/>
</linearGradient>
<linearGradient id="paint14_linear_173_2396" x1="201.243" y1="250.498" x2="201.243" y2="218.296" gradientUnits="userSpaceOnUse">
<stop stop-color="#7770E0"/>
<stop offset="1" stop-color="#554FD8"/>
</linearGradient>
<linearGradient id="paint15_linear_173_2396" x1="201.243" y1="239.901" x2="201.243" y2="208.744" gradientUnits="userSpaceOnUse">
<stop stop-color="#7770E0"/>
<stop offset="1" stop-color="#554FD8"/>
</linearGradient>
<linearGradient id="paint16_linear_173_2396" x1="201.344" y1="229.407" x2="201.344" y2="199.154" gradientUnits="userSpaceOnUse">
<stop stop-color="#7770E0"/>
<stop offset="1" stop-color="#554FD8"/>
</linearGradient>
<linearGradient id="paint17_linear_173_2396" x1="201.395" y1="219.14" x2="201.395" y2="189.477" gradientUnits="userSpaceOnUse">
<stop stop-color="#7770E0"/>
<stop offset="1" stop-color="#554FD8"/>
</linearGradient>
<linearGradient id="paint18_linear_173_2396" x1="201.344" y1="209.478" x2="201.344" y2="179.808" gradientUnits="userSpaceOnUse">
<stop stop-color="#7770E0"/>
<stop offset="1" stop-color="#554FD8"/>
</linearGradient>
<linearGradient id="paint19_linear_173_2396" x1="201.395" y1="199.876" x2="201.395" y2="170.035" gradientUnits="userSpaceOnUse">
<stop stop-color="#7770E0"/>
<stop offset="1" stop-color="#554FD8"/>
</linearGradient>
<linearGradient id="paint20_linear_173_2396" x1="201.344" y1="190.32" x2="201.344" y2="160.336" gradientUnits="userSpaceOnUse">
<stop stop-color="#7770E0"/>
<stop offset="1" stop-color="#554FD8"/>
</linearGradient>
<linearGradient id="paint21_linear_173_2396" x1="201.294" y1="180.859" x2="201.294" y2="150.598" gradientUnits="userSpaceOnUse">
<stop stop-color="#7770E0"/>
<stop offset="1" stop-color="#554FD8"/>
</linearGradient>
<linearGradient id="paint22_linear_173_2396" x1="201.395" y1="171.666" x2="201.395" y2="140.936" gradientUnits="userSpaceOnUse">
<stop stop-color="#7770E0"/>
<stop offset="1" stop-color="#554FD8"/>
</linearGradient>
<linearGradient id="paint23_linear_173_2396" x1="201.344" y1="162.208" x2="201.344" y2="131.084" gradientUnits="userSpaceOnUse">
<stop stop-color="#7770E0"/>
<stop offset="1" stop-color="#554FD8"/>
</linearGradient>
<linearGradient id="paint24_linear_173_2396" x1="201.344" y1="153.037" x2="201.344" y2="121.289" gradientUnits="userSpaceOnUse">
<stop stop-color="#7770E0"/>
<stop offset="1" stop-color="#554FD8"/>
</linearGradient>
<linearGradient id="paint25_linear_173_2396" x1="201.395" y1="143.73" x2="201.395" y2="111.434" gradientUnits="userSpaceOnUse">
<stop stop-color="#7770E0"/>
<stop offset="1" stop-color="#554FD8"/>
</linearGradient>
<linearGradient id="paint26_linear_173_2396" x1="201.395" y1="134.622" x2="201.395" y2="101.59" gradientUnits="userSpaceOnUse">
<stop stop-color="#7770E0"/>
<stop offset="1" stop-color="#554FD8"/>
</linearGradient>
<linearGradient id="paint27_linear_173_2396" x1="201.395" y1="125.394" x2="201.395" y2="91.6938" gradientUnits="userSpaceOnUse">
<stop stop-color="#7770E0"/>
<stop offset="1" stop-color="#554FD8"/>
</linearGradient>
<linearGradient id="paint28_linear_173_2396" x1="201.395" y1="116.096" x2="201.395" y2="81.727" gradientUnits="userSpaceOnUse">
<stop stop-color="#7770E0"/>
<stop offset="1" stop-color="#554FD8"/>
</linearGradient>
<linearGradient id="paint29_linear_173_2396" x1="201.294" y1="107.057" x2="201.294" y2="71.7503" gradientUnits="userSpaceOnUse">
<stop stop-color="#7770E0"/>
<stop offset="1" stop-color="#554FD8"/>
</linearGradient>
<linearGradient id="paint30_linear_173_2396" x1="201.344" y1="97.931" x2="201.344" y2="61.7625" gradientUnits="userSpaceOnUse">
<stop stop-color="#7770E0"/>
<stop offset="1" stop-color="#554FD8"/>
</linearGradient>
<linearGradient id="paint31_linear_173_2396" x1="201.294" y1="88.8772" x2="201.294" y2="51.8195" gradientUnits="userSpaceOnUse">
<stop stop-color="#7770E0"/>
<stop offset="1" stop-color="#554FD8"/>
</linearGradient>
<linearGradient id="paint32_linear_173_2396" x1="201.344" y1="79.7795" x2="201.344" y2="41.7555" gradientUnits="userSpaceOnUse">
<stop stop-color="#7770E0"/>
<stop offset="1" stop-color="#554FD8"/>
</linearGradient>
<linearGradient id="paint33_linear_173_2396" x1="201.294" y1="70.6957" x2="201.294" y2="31.4953" gradientUnits="userSpaceOnUse">
<stop stop-color="#7770E0"/>
<stop offset="1" stop-color="#554FD8"/>
</linearGradient>
<linearGradient id="paint34_linear_173_2396" x1="201.294" y1="61.6206" x2="201.294" y2="21.3616" gradientUnits="userSpaceOnUse">
<stop stop-color="#7770E0"/>
<stop offset="1" stop-color="#554FD8"/>
</linearGradient>
<linearGradient id="paint35_linear_173_2396" x1="201.395" y1="52.5555" x2="201.395" y2="11.1409" gradientUnits="userSpaceOnUse">
<stop stop-color="#7770E0"/>
<stop offset="1" stop-color="#554FD8"/>
</linearGradient>
<linearGradient id="paint36_linear_173_2396" x1="201.294" y1="43.6059" x2="201.294" y2="0.560209" gradientUnits="userSpaceOnUse">
<stop stop-color="#7770E0"/>
<stop offset="1" stop-color="#554FD8"/>
</linearGradient>
</defs>
</svg>
