<svg width="10" height="18" viewBox="0 0 10 18" fill="none" xmlns="http://www.w3.org/2000/svg">
<path d="M9 9.125L9.70711 9.83211C10.0976 9.44158 10.0976 8.80842 9.70711 8.41789L9 9.125ZM0.417893 16.2929C0.0273685 16.6834 0.0273685 17.3166 0.417893 17.7071C0.808417 18.0976 1.44158 18.0976 1.83211 17.7071L0.417893 16.2929ZM1.83211 0.542892C1.44158 0.152369 0.808417 0.152369 0.417893 0.542892C0.0273685 0.933418 0.0273685 1.56658 0.417893 1.95711L1.83211 0.542892ZM8.29289 8.41789L0.417893 16.2929L1.83211 17.7071L9.70711 9.83211L8.29289 8.41789ZM9.70711 8.41789L1.83211 0.542892L0.417893 1.95711L8.29289 9.83211L9.70711 8.41789Z" fill="#7770E0"/>
</svg>
