<svg width="64" height="72" viewBox="0 0 64 72" fill="none" xmlns="http://www.w3.org/2000/svg">
<g filter="url(#filter0_d_173_2458)">
<path d="M49.7345 43.9999L46.1893 14.7603C46.2181 14.9935 46.2365 15.2293 46.2522 15.4677V15.6564C46.2522 15.8398 46.2522 16.0258 46.2522 16.2145C46.2522 16.2538 46.2522 16.2931 46.2522 16.335C46.2522 16.5604 46.2522 16.7857 46.226 17.0163C46.226 17.074 46.226 17.1342 46.226 17.1945C46.2129 17.3727 46.1971 17.5535 46.1762 17.7369C46.1762 17.8024 46.1631 17.8679 46.1552 17.936C46.1238 18.1719 46.0897 18.4077 46.0478 18.6487V18.6907C46.0137 18.882 45.977 19.0732 45.9351 19.2671C45.9194 19.3379 45.9011 19.4086 45.8853 19.4768C45.8539 19.6156 45.8198 19.7545 45.7858 19.8934C45.7648 19.9772 45.7386 20.0611 45.7176 20.1554C45.681 20.2812 45.6469 20.4174 45.6076 20.538C45.5814 20.6271 45.5526 20.7161 45.5237 20.8C45.4949 20.8838 45.4451 21.0463 45.4032 21.1721C45.3613 21.2978 45.3403 21.3555 45.3062 21.4472C45.2722 21.5389 45.2172 21.6935 45.1674 21.8193C45.1176 21.9451 45.0966 22.0027 45.0599 22.0944C45.0233 22.1861 44.9578 22.3564 44.9053 22.4717L44.7874 22.7338L44.6093 23.1242C44.5673 23.2107 44.528 23.2997 44.4861 23.3862C44.418 23.5277 44.3472 23.6666 44.2739 23.8081C44.2267 23.8998 44.1822 23.9941 44.1324 24.0858C43.9935 24.3479 43.852 24.6099 43.7026 24.8719C43.6502 24.9636 43.5926 25.0527 43.5376 25.1339C43.4406 25.2964 43.3437 25.4615 43.2415 25.6239C43.1733 25.7314 43.1 25.8388 43.0292 25.9462C42.9585 26.0537 42.8458 26.2292 42.7515 26.3681L42.5445 26.6563C42.4423 26.8004 42.3401 26.9498 42.2327 27.0939C42.0021 27.4031 41.761 27.7071 41.5173 28.0084L41.3234 28.2416C41.1007 28.5036 40.8727 28.7656 40.6422 29.0277L40.5531 29.1272C40.312 29.3893 40.0683 29.6513 39.8168 29.895L39.6098 30.0994C39.4211 30.2854 39.2298 30.4662 39.0359 30.647L38.7922 30.8671C38.5617 31.0741 38.3311 31.2785 38.0926 31.4776L37.9773 31.5772C37.7022 31.8052 37.4244 32.0253 37.1441 32.2401C36.9738 32.3685 36.8034 32.5022 36.62 32.6227L36.5283 32.6908C36.3134 32.8454 36.096 32.9948 35.8759 33.1441L35.6898 33.2673C35.53 33.3747 35.3675 33.4795 35.2051 33.5817L34.985 33.718L34.5945 33.9538L34.1884 34.1896L33.8294 34.3888L33.4207 34.6062L33.0564 34.7923L32.6424 34.994L32.2756 35.167L31.859 35.3504L31.4869 35.5076L31.0703 35.6727C30.9445 35.7225 30.8213 35.7697 30.6956 35.8142C30.5698 35.8587 30.4152 35.9164 30.2763 35.9636C30.1374 36.0107 30.0274 36.05 29.9016 36.0893L29.4798 36.2203L29.1077 36.3304L28.6806 36.4404L28.3111 36.5322L27.884 36.6265L27.5145 36.7025L27.0848 36.7758L26.7232 36.8335L26.2909 36.8859L25.9345 36.9252C25.7904 36.9252 25.6437 36.9488 25.4996 36.9566C25.3554 36.9645 25.269 36.975 25.1537 36.9802H24.7108C24.5982 36.9802 24.4881 36.9802 24.3781 36.9802C24.2235 36.9802 24.0689 36.9802 23.9169 36.9671H23.6103C23.4426 36.9671 23.2749 36.9383 23.1072 36.9226C23.0234 36.9226 22.9369 36.9095 22.8452 36.899C22.5963 36.8702 22.3474 36.8335 22.101 36.7889C21.9438 36.7627 21.7866 36.7313 21.632 36.6972C21.4774 36.6632 21.3281 36.6291 21.1787 36.5898L49.7345 43.9999Z" fill="url(#paint0_linear_173_2458)"/>
<path d="M49.5954 42.8575C48.4599 33.4926 47.3244 24.1269 46.189 14.7603C46.2178 14.9935 46.2362 15.2293 46.2519 15.4677V15.6564C46.2519 15.8398 46.2519 16.0258 46.2519 16.2145C46.2519 16.2538 46.2519 16.2931 46.2519 16.335C46.2519 16.5604 46.2519 16.7857 46.2257 17.0163C46.2257 17.074 46.2257 17.1342 46.2257 17.1945C46.2126 17.3727 46.1969 17.5535 46.1759 17.7369C46.1759 17.8024 46.1628 17.8679 46.1549 17.936C46.1235 18.1719 46.0894 18.4077 46.0475 18.6487V18.6907C46.0134 18.882 45.9767 19.0732 45.9348 19.2671C45.9191 19.3379 45.9008 19.4086 45.885 19.4768C45.8536 19.6156 45.8195 19.7545 45.7855 19.8934C45.7645 19.9772 45.7383 20.0611 45.7173 20.1554C45.6807 20.2812 45.6466 20.4174 45.6073 20.538C45.5811 20.6271 45.5523 20.7161 45.5234 20.8C45.4946 20.8838 45.4448 21.0463 45.4029 21.1721C45.361 21.2978 45.34 21.3555 45.306 21.4472C45.2719 21.5389 45.2169 21.6935 45.1671 21.8193C45.1173 21.9451 45.0963 22.0027 45.0596 22.0944C45.023 22.1861 44.9575 22.3564 44.9051 22.4717L44.7871 22.7338L44.609 23.1242C44.567 23.2106 44.5277 23.2997 44.4858 23.3862C44.4177 23.5277 44.3469 23.6666 44.2736 23.8081C44.2264 23.8998 44.1819 23.9941 44.1321 24.0858C43.9932 24.3479 43.8517 24.6099 43.7023 24.8719C43.6499 24.9636 43.5923 25.0527 43.5373 25.1339C43.4403 25.2964 43.3434 25.4615 43.2412 25.6239C43.1731 25.7314 43.0997 25.8388 43.0289 25.9462C42.9582 26.0536 42.8455 26.2292 42.7512 26.3681L42.5442 26.6563C42.442 26.8004 42.3398 26.9498 42.2324 27.0939C42.0018 27.4031 41.7607 27.707 41.517 28.0084L41.3231 28.2416C41.1004 28.5036 40.8725 28.7656 40.6419 29.0277L40.5528 29.1272C40.3117 29.3893 40.068 29.6513 39.8165 29.895L39.6095 30.0994C39.4208 30.2854 39.2295 30.4662 39.0356 30.647L38.792 30.8671C38.5614 31.0741 38.3308 31.2785 38.0923 31.4776L37.977 31.5772C37.7019 31.8052 37.4242 32.0253 37.1438 32.2401C36.9735 32.3685 36.8032 32.5022 36.6197 32.6227L36.528 32.6908C36.3132 32.8454 36.0957 32.9948 35.8756 33.1441L35.7131 33.2516C40.2252 36.6239 45.1697 39.4171 49.5954 42.8575Z" fill="url(#paint1_linear_173_2458)"/>
<path d="M38.4875 31.1452C46.1095 24.475 48.553 14.7992 43.9451 9.53383C39.3372 4.26844 29.4229 5.40729 21.8009 12.0775C14.1789 18.7477 11.7354 28.4235 16.3433 33.6889C20.9512 38.9543 30.8655 37.8154 38.4875 31.1452Z" fill="url(#paint2_linear_173_2458)"/>
<path style="mix-blend-mode:overlay" opacity="0.8" d="M38.171 6.42783C30.4438 5.05743 20.5863 10.746 16.1607 19.1336C11.735 27.5211 14.3998 35.4317 22.127 36.7995C29.8542 38.1673 39.7091 32.4813 44.1374 24.0938C48.5656 15.7062 45.8956 7.79824 38.171 6.42783ZM43.9723 24.0073C40.0419 31.4305 31.8614 36.8178 24.4984 36.8178C23.7123 36.8193 22.9275 36.7518 22.1532 36.6161C18.9644 36.0527 16.5013 34.2893 15.2121 31.6585C13.543 28.2521 13.9465 23.7059 16.3179 19.2174C20.2483 11.7942 28.4314 6.40687 35.7918 6.40687C36.5822 6.4038 37.3713 6.47044 38.15 6.60601C41.3389 7.17199 43.8046 8.93282 45.0912 11.5662C46.7576 14.9857 46.3463 19.5187 43.9723 24.0073Z" fill="url(#paint3_linear_173_2458)"/>
</g>
<defs>
<filter id="filter0_d_173_2458" x="0.0148926" y="6.22375" width="63.7197" height="65.7762" filterUnits="userSpaceOnUse" color-interpolation-filters="sRGB">
<feFlood flood-opacity="0" result="BackgroundImageFix"/>
<feColorMatrix in="SourceAlpha" type="matrix" values="0 0 0 0 0 0 0 0 0 0 0 0 0 0 0 0 0 0 127 0" result="hardAlpha"/>
<feOffset dy="14"/>
<feGaussianBlur stdDeviation="7"/>
<feComposite in2="hardAlpha" operator="out"/>
<feColorMatrix type="matrix" values="0 0 0 0 0.333333 0 0 0 0 0.309804 0 0 0 0 0.847059 0 0 0 0.24 0"/>
<feBlend mode="normal" in2="BackgroundImageFix" result="effect1_dropShadow_173_2458"/>
<feBlend mode="normal" in="SourceGraphic" in2="effect1_dropShadow_173_2458" result="shape"/>
</filter>
<linearGradient id="paint0_linear_173_2458" x1="33.5857" y1="43.9397" x2="38.8499" y2="33.752" gradientUnits="userSpaceOnUse">
<stop stop-color="#8A84E9"/>
<stop offset="0.12" stop-color="#7770E0"/>
<stop offset="0.3" stop-color="#7770E0"/>
<stop offset="0.52" stop-color="#948EE6"/>
<stop offset="0.61" stop-color="#706CDB"/>
<stop offset="0.73" stop-color="#554FD8"/>
<stop offset="0.86" stop-color="#554FD8"/>
</linearGradient>
<linearGradient id="paint1_linear_173_2458" x1="49.4408" y1="28.3543" x2="42.3896" y2="30.4269" gradientUnits="userSpaceOnUse">
<stop offset="0.0099" stop-color="#F9C5C6" stop-opacity="0.5"/>
<stop offset="0.01" stop-color="#F9C5C6" stop-opacity="0.49"/>
<stop offset="0.15" stop-color="#F9C5C6" stop-opacity="0.31"/>
<stop offset="0.28" stop-color="#F9C5C6" stop-opacity="0.18"/>
<stop offset="0.41" stop-color="#F9C5C6" stop-opacity="0.08"/>
<stop offset="0.53" stop-color="#F9C5C6" stop-opacity="0.02"/>
<stop offset="0.62" stop-color="#F9C5C6" stop-opacity="0"/>
</linearGradient>
<linearGradient id="paint2_linear_173_2458" x1="24.2129" y1="8.13198" x2="35.4512" y2="33.6902" gradientUnits="userSpaceOnUse">
<stop offset="0.03" stop-color="#9690EB"/>
<stop offset="1" stop-color="#5E58DC"/>
</linearGradient>
<linearGradient id="paint3_linear_173_2458" x1="14853.4" y1="4298.58" x2="14315.2" y2="7058.53" gradientUnits="userSpaceOnUse">
<stop stop-color="#FEEAEA"/>
<stop offset="0.09" stop-color="#FEE9E9" stop-opacity="0.97"/>
<stop offset="0.22" stop-color="#FEE6E6" stop-opacity="0.89"/>
<stop offset="0.38" stop-color="#FEE0E0" stop-opacity="0.75"/>
<stop offset="0.57" stop-color="#FED9D9" stop-opacity="0.56"/>
<stop offset="0.77" stop-color="#FDCFD0" stop-opacity="0.31"/>
<stop offset="0.99" stop-color="#FDC4C5" stop-opacity="0.02"/>
<stop offset="1" stop-color="#FDC3C4" stop-opacity="0"/>
</linearGradient>
</defs>
</svg>
