<svg width="43" height="43" viewBox="0 0 43 43" fill="none" xmlns="http://www.w3.org/2000/svg">
<path fill-rule="evenodd" clip-rule="evenodd" d="M5.24883 1.21127C3.01894 1.21127 1.21127 3.01894 1.21127 5.24883V37.7512C1.21127 39.8993 2.88875 41.6555 5.00519 41.7815L30.3581 16.4286C30.4717 16.315 30.6258 16.2512 30.7864 16.2512C30.947 16.2512 31.1011 16.315 31.2146 16.4286L41.7887 27.0027V5.24883C41.7887 3.01894 39.9811 1.21127 37.7512 1.21127H5.24883ZM43 28.4636V5.24883C43 2.34998 40.65 0 37.7512 0H5.24883C2.34998 0 0 2.34998 0 5.24883V37.7512C0 40.65 2.34998 43 5.24883 43H37.7512C40.65 43 43 40.65 43 37.7512V28.466C43 28.4652 43 28.4644 43 28.4636ZM41.7887 28.7157L30.7864 17.7133L6.71096 41.7887H37.7512C39.9811 41.7887 41.7887 39.9811 41.7887 37.7512V28.7157ZM13.3744 10.4977C11.7856 10.4977 10.4977 11.7856 10.4977 13.3744C10.4977 14.9632 11.7856 16.2512 13.3744 16.2512C14.9632 16.2512 16.2512 14.9632 16.2512 13.3744C16.2512 11.7856 14.9632 10.4977 13.3744 10.4977ZM9.28639 13.3744C9.28639 11.1167 11.1167 9.28639 13.3744 9.28639C15.6322 9.28639 17.4624 11.1167 17.4624 13.3744C17.4624 15.6322 15.6322 17.4624 13.3744 17.4624C11.1167 17.4624 9.28639 15.6322 9.28639 13.3744Z" fill="#111827"/>
</svg>
