<svg width="164" height="173" viewBox="0 0 164 173" fill="none" xmlns="http://www.w3.org/2000/svg">
<g filter="url(#filter0_df_191_2664)">
<path d="M152.919 164.572C153.065 164.512 153.208 164.444 153.346 164.368C153.438 164.322 153.537 164.282 153.623 164.23C153.708 164.177 153.899 164.039 154.037 163.941C154.175 163.842 154.175 163.849 154.234 163.796C154.422 163.636 154.598 163.463 154.76 163.277L158.795 158.57C158.63 158.753 158.455 158.927 158.27 159.09L158.066 159.234C157.934 159.333 157.796 159.432 157.652 159.524L157.382 159.662C157.238 159.734 157.1 159.806 156.948 159.865L156.626 159.971C156.473 160.024 156.317 160.07 156.16 160.109C156.022 160.109 155.877 160.161 155.726 160.187L155.391 160.233C155.22 160.243 155.049 160.243 154.878 160.233H154.53C154.332 160.233 154.129 160.233 153.918 160.187H153.609C153.294 160.141 152.952 160.089 152.63 160.01L31.5349 132.107C26.9864 131.056 22.8585 126.79 22.3327 122.583L8.11521 9.987C7.98036 9.25032 8.00443 8.49333 8.1858 7.7667C8.36718 7.04008 8.70167 6.36058 9.1669 5.77368L5.13763 10.48C4.6724 11.0669 4.33791 11.7464 4.15654 12.473C3.97516 13.1996 3.95109 13.9566 4.08594 14.6933L18.2968 127.289C18.8293 131.496 22.9571 135.762 27.4991 136.814L148.594 164.769C148.929 164.848 149.251 164.9 149.574 164.946H149.882C150.093 164.946 150.297 164.986 150.494 164.992H150.836C151.008 165.002 151.182 165.002 151.355 164.992L151.69 164.946L151.999 164.9L152.124 164.867C152.282 164.829 152.437 164.783 152.591 164.729L152.919 164.572Z" fill="url(#paint0_linear_191_2664)"/>
<path d="M15.4579 4.23592C17.7826 4.82909 19.8882 6.07696 21.5248 7.83136L156.831 148.389C162.608 154.384 159.96 161.719 152.631 160.03L31.5355 132.108C26.987 131.056 22.8591 126.79 22.3333 122.583L8.11579 9.98732C7.53736 5.35991 11.2183 3.27625 15.4579 4.23592Z" fill="url(#paint1_linear_191_2664)"/>
<path d="M106.593 143.071L106.488 142.861L106.475 142.815C106.433 142.77 106.377 142.741 106.316 142.731C106.255 142.722 106.193 142.733 106.14 142.762C106.099 142.803 106.069 142.853 106.053 142.908C106.037 142.963 106.035 143.022 106.048 143.078C106.056 143.156 106.081 143.232 106.12 143.301V143.361L106.304 143.479H106.37C106.442 143.459 106.593 143.413 106.593 143.124V143.071Z" fill="url(#paint2_linear_191_2664)"/>
<path d="M106.218 126.639L106.08 126.488C106.025 126.477 105.971 126.457 105.923 126.428C105.881 126.37 105.848 126.306 105.824 126.238L105.706 126.106V125.916C105.699 125.866 105.699 125.815 105.706 125.764C105.671 125.666 105.647 125.565 105.633 125.462C105.614 125.389 105.614 125.313 105.634 125.24C105.653 125.167 105.692 125.101 105.745 125.048C105.768 125.031 105.796 125.022 105.824 125.022C105.852 125.022 105.88 125.031 105.903 125.048C106.041 124.956 106.153 125.048 106.225 125.147V125.206H106.264L106.304 125.291C106.376 125.341 106.437 125.406 106.481 125.482L106.514 125.528V125.666C106.613 125.77 106.676 125.904 106.692 126.047C106.695 126.075 106.695 126.104 106.692 126.133V126.192L106.659 126.231C106.672 126.283 106.672 126.337 106.659 126.389C106.658 126.425 106.649 126.46 106.631 126.491C106.614 126.522 106.59 126.549 106.56 126.569C106.531 126.589 106.497 126.601 106.461 126.606C106.426 126.61 106.39 126.605 106.356 126.593H106.284L106.218 126.639Z" fill="url(#paint3_linear_191_2664)"/>
<path d="M104.943 145.332L104.996 145.398L104.963 145.608L105.016 145.641L105.121 145.97V146.036C105.096 146.078 105.059 146.112 105.016 146.134C105.01 146.17 104.996 146.204 104.975 146.233C104.954 146.262 104.926 146.286 104.894 146.303C104.862 146.319 104.827 146.328 104.791 146.329C104.755 146.329 104.719 146.321 104.687 146.305L104.608 146.358H104.575C104.514 146.337 104.46 146.3 104.417 146.252C104.375 146.203 104.345 146.145 104.332 146.082L104.286 146.036V145.937L104.253 145.878V145.674V145.641C104.189 145.569 104.148 145.48 104.135 145.385V145.346L104.174 145.201C104.189 145.194 104.204 145.191 104.22 145.191C104.236 145.191 104.252 145.194 104.266 145.201C104.278 145.16 104.301 145.124 104.332 145.096H104.398C104.468 145.103 104.538 145.103 104.608 145.096H104.753L104.838 145.24C104.879 145.264 104.915 145.295 104.943 145.332Z" fill="url(#paint4_linear_191_2664)"/>
<path d="M107.895 105.395L107.862 105.428L107.842 105.408L107.691 105.342L107.658 105.296L107.605 105.25L107.494 105.04V104.987C107.483 104.933 107.488 104.876 107.509 104.825C107.53 104.773 107.566 104.729 107.612 104.698V104.665L107.875 104.593L107.908 104.645H108.019V104.704C108.093 104.771 108.15 104.854 108.184 104.948L108.223 104.987V105.092L108.263 105.355L108.21 105.395C108.174 105.411 108.135 105.419 108.095 105.419C108.055 105.419 108.016 105.411 107.98 105.395C107.952 105.389 107.923 105.389 107.895 105.395Z" fill="url(#paint5_linear_191_2664)"/>
<path d="M106.573 133.823L106.797 134.079L106.751 134.132C106.76 134.184 106.759 134.237 106.746 134.288C106.734 134.338 106.711 134.386 106.679 134.428V134.612L106.586 134.724H106.554C106.521 134.724 106.501 134.77 106.462 134.77C106.413 134.813 106.355 134.844 106.292 134.861C106.23 134.878 106.164 134.881 106.1 134.868L105.975 134.75V134.71C105.925 134.609 105.894 134.5 105.883 134.388C105.871 134.29 105.871 134.191 105.883 134.093C105.854 134.035 105.834 133.973 105.824 133.908V133.823L105.87 133.705C106.023 133.577 106.207 133.679 106.338 133.751L106.35 133.757C106.397 133.794 106.454 133.817 106.514 133.823H106.573Z" fill="url(#paint6_linear_191_2664)"/>
<path d="M112.916 125.863H112.87L112.883 125.843C112.812 125.797 112.756 125.732 112.72 125.656C112.684 125.579 112.67 125.494 112.68 125.41V125.357V125.311V125.186C112.721 125.16 112.769 125.146 112.818 125.146C112.867 125.146 112.915 125.16 112.956 125.186H113.008L113.153 125.41L113.199 125.758L113.067 125.916H113.008C112.975 125.903 112.944 125.885 112.916 125.863Z" fill="url(#paint7_linear_191_2664)"/>
<path d="M112.476 113.493L112.312 113.453L112.134 113.118L112.167 113.039V112.98L112.325 112.822L112.39 112.862C112.484 112.917 112.556 113.003 112.594 113.105H112.673C112.719 113.113 112.762 113.131 112.801 113.157C112.839 113.183 112.872 113.217 112.897 113.256V113.295L112.962 113.486V113.525C112.96 113.585 112.939 113.642 112.903 113.69L112.778 113.802L112.719 113.769C112.629 113.715 112.561 113.631 112.529 113.532V113.493H112.476Z" fill="url(#paint8_linear_191_2664)"/>
<path d="M107.783 120.611C107.786 120.635 107.786 120.66 107.783 120.684L107.822 120.848L107.743 120.927L107.697 121.012H107.651C107.609 121.011 107.568 120.998 107.533 120.973V121.012C107.526 121.044 107.511 121.074 107.49 121.1C107.47 121.125 107.443 121.146 107.414 121.16C107.384 121.173 107.351 121.18 107.319 121.18C107.286 121.18 107.253 121.172 107.224 121.157H107.185L107.106 121.065C107.086 121.084 107.062 121.097 107.035 121.103C107.008 121.109 106.98 121.107 106.955 121.098C106.897 121.068 106.849 121.023 106.817 120.966C106.779 120.941 106.746 120.91 106.718 120.874C106.668 120.805 106.639 120.723 106.632 120.638C106.629 120.607 106.629 120.576 106.632 120.545V120.46L106.849 120.401L106.902 120.46C106.956 120.497 107.005 120.541 107.047 120.592V120.539C107.047 120.158 107.198 120.033 107.323 120.033H107.408L107.52 120.243H107.553H107.618L107.783 120.532V120.611Z" fill="url(#paint9_linear_191_2664)"/>
<path d="M109.025 111.869L109.097 111.935L109.117 111.902C109.202 112.005 109.257 112.131 109.275 112.263V112.303L109.308 112.395L109.183 112.625H109.117C109.03 112.583 108.956 112.518 108.904 112.437C108.851 112.356 108.823 112.261 108.821 112.165C108.825 112.139 108.825 112.112 108.821 112.086V111.987L109.025 111.869Z" fill="url(#paint10_linear_191_2664)"/>
<path d="M103.326 110.232C103.359 110.508 103.149 110.508 103.063 110.508L103.004 110.522L102.8 110.318V110.193C102.787 110.127 102.781 109.923 102.984 109.923L103.09 109.871L103.155 109.923C103.245 110.005 103.305 110.113 103.326 110.232Z" fill="url(#paint11_linear_191_2664)"/>
<path d="M98.219 104.027H98.2585L98.2782 103.995C98.3293 104.029 98.3727 104.073 98.4055 104.126C98.4384 104.178 98.4599 104.236 98.4688 104.297C98.476 104.333 98.4744 104.371 98.4641 104.406C98.4538 104.442 98.4351 104.474 98.4096 104.501V104.658L98.4425 104.698V104.777C98.4526 104.82 98.4512 104.865 98.4385 104.908C98.4259 104.951 98.4023 104.989 98.3702 105.02C98.3526 105.028 98.3336 105.032 98.3143 105.032C98.2951 105.032 98.276 105.028 98.2585 105.02C98.2421 105.028 98.2241 105.032 98.2059 105.032C98.1876 105.032 98.1696 105.028 98.1533 105.02C98.0284 104.987 97.9495 104.843 97.9167 104.777L97.7918 104.639V104.527C97.7754 104.439 97.7917 104.348 97.8378 104.271C97.8352 104.247 97.8352 104.222 97.8378 104.198C97.8241 104.124 97.8357 104.048 97.8706 103.981V103.942H98.0218H98.0613C98.0979 103.966 98.1311 103.995 98.1599 104.027H98.219Z" fill="url(#paint12_linear_191_2664)"/>
<path d="M98.8237 88.9226C98.7336 88.8391 98.6736 88.7282 98.6528 88.6071L98.6726 88.5742C98.6528 88.3836 98.7514 88.285 98.8435 88.3376C98.8926 88.3352 98.9411 88.3491 98.9815 88.377L99.1458 88.5414L99.1787 88.6597V88.6926C99.1843 88.7195 99.1843 88.7472 99.1786 88.7741C99.1729 88.801 99.1617 88.8264 99.1456 88.8487C99.1295 88.871 99.1089 88.8896 99.0852 88.9035C99.0615 88.9174 99.0351 88.9261 99.0078 88.9292L98.8829 88.9883L98.8237 88.9226Z" fill="url(#paint13_linear_191_2664)"/>
<path d="M97.3316 121.834C97.3831 121.904 97.4169 121.985 97.4302 122.07L97.45 122.038C97.4803 122.101 97.496 122.171 97.496 122.241L97.5289 122.452H97.4697V122.557L97.3448 122.596C97.3292 122.622 97.3069 122.643 97.2802 122.657C97.2536 122.671 97.2236 122.677 97.1936 122.675C96.9665 122.626 96.7667 122.492 96.6349 122.3L96.5297 122.149L96.4706 122.09V121.992C96.4275 121.769 96.4575 121.538 96.556 121.334H96.6941H96.7335C96.7745 121.36 96.8232 121.372 96.8716 121.367H96.9701L97.1016 121.466V121.499C97.1194 121.526 97.1348 121.554 97.1476 121.584V121.63H97.187L97.2265 121.683L97.3316 121.834Z" fill="url(#paint14_linear_191_2664)"/>
<path d="M101.847 94.6806V94.6412C101.864 94.5685 101.898 94.5009 101.946 94.444C101.946 94.3889 101.959 94.3347 101.985 94.2862L101.952 94.089V94.0496V94.0101L102.071 93.8327H102.11V93.7341L102.235 93.6815C102.236 93.6485 102.245 93.6162 102.259 93.5868C102.274 93.5573 102.295 93.5313 102.321 93.5106C102.387 93.4885 102.458 93.4885 102.524 93.5106H102.57L102.636 93.4646L102.912 93.7669V93.8261C102.943 93.8601 102.969 93.8976 102.991 93.9378L103.024 93.9838L102.932 94.181V94.227V94.3388C102.935 94.4744 102.896 94.6075 102.82 94.72C102.81 94.7457 102.797 94.7701 102.781 94.7923H102.656H102.616H102.584C102.617 94.8536 102.639 94.9204 102.649 94.9895C102.664 95.057 102.652 95.1276 102.616 95.1867C102.6 95.2118 102.575 95.231 102.547 95.2416C102.519 95.2523 102.488 95.2537 102.459 95.2459C102.401 95.2266 102.349 95.1926 102.307 95.1473H102.15H102.091L102.012 95.0224C101.964 94.9891 101.924 94.9466 101.893 94.8975V94.858L101.847 94.6806Z" fill="url(#paint15_linear_191_2664)"/>
<path d="M99.2181 129.853C99.2148 129.818 99.2148 129.783 99.2181 129.748L99.2444 129.741C99.251 129.689 99.2378 129.616 99.2378 129.557V129.498C99.24 129.472 99.24 129.445 99.2378 129.419V129.347L99.3233 129.143H99.3627C99.3854 129.114 99.4147 129.092 99.4482 129.077H99.5336H99.5731H99.6191H99.7111C99.9997 129.208 100.098 129.582 100.158 129.805L100.158 129.807L100.198 129.958V130.004V130.195C100.201 130.232 100.201 130.269 100.198 130.306V130.346L100.105 130.444C99.9807 130.452 99.8556 130.452 99.7308 130.444H99.6454C99.6202 130.462 99.5904 130.471 99.5599 130.471C99.5294 130.471 99.4996 130.462 99.4745 130.444H99.435L99.3233 130.241V130.188C99.3203 130.162 99.3203 130.135 99.3233 130.109C99.2684 130.033 99.2324 129.945 99.2181 129.853Z" fill="url(#paint16_linear_191_2664)"/>
<path d="M100.618 100.557H100.677L100.704 100.84V100.905V100.938C100.733 101.048 100.733 101.163 100.704 101.273C100.705 101.339 100.692 101.404 100.664 101.464V101.536L100.447 101.471C100.424 101.457 100.402 101.442 100.382 101.425C100.323 101.396 100.274 101.353 100.237 101.3V101.267C100.175 101.191 100.134 101.101 100.119 101.004C100.106 100.904 100.132 100.803 100.191 100.721L100.27 100.557H100.336C100.428 100.533 100.525 100.533 100.618 100.557Z" fill="url(#paint17_linear_191_2664)"/>
<path d="M102.334 145.161L102.288 145.096L102.137 144.885V144.807C102.104 144.498 102.255 144.412 102.327 144.373L102.38 144.333L102.524 144.373L102.557 144.406C102.648 144.491 102.706 144.604 102.722 144.728C102.802 144.804 102.853 144.907 102.866 145.017C102.876 145.065 102.873 145.115 102.858 145.163C102.843 145.21 102.816 145.252 102.781 145.286C102.747 145.313 102.705 145.328 102.662 145.328C102.619 145.328 102.578 145.313 102.544 145.286L102.498 145.254L102.459 145.161H102.334Z" fill="url(#paint18_linear_191_2664)"/>
<path d="M114.717 105.171L114.632 105.289L114.619 105.303L114.487 105.421L114.435 105.388C114.387 105.361 114.345 105.325 114.31 105.283L114.198 105.112L114.165 104.889L114.198 104.849L114.152 104.665L114.481 104.586L114.52 104.698C114.629 104.795 114.699 104.928 114.717 105.073V105.171Z" fill="url(#paint19_linear_191_2664)"/>
<path d="M119.884 121.84H119.818L119.713 121.518V121.466C119.706 121.183 119.838 121.137 119.963 121.183H120.009L120.153 121.387V121.446C120.15 121.474 120.15 121.503 120.153 121.531C120.175 121.637 120.157 121.748 120.101 121.84C120.069 121.863 120.031 121.876 119.992 121.876C119.953 121.876 119.915 121.863 119.884 121.84Z" fill="url(#paint20_linear_191_2664)"/>
<path d="M123.933 130.247C123.935 130.293 123.935 130.339 123.933 130.385V130.418C123.959 130.475 123.976 130.534 123.985 130.596V130.629V130.707L123.92 130.911L123.545 130.826L123.374 130.55V130.444L123.275 130.326V130.26V130.188C123.257 130.117 123.257 130.042 123.275 129.971C123.269 129.93 123.269 129.888 123.275 129.846V129.787C123.269 129.741 123.269 129.695 123.275 129.649V129.597L123.44 129.537L123.486 129.57C123.537 129.605 123.582 129.65 123.617 129.702L123.657 129.735C123.753 129.827 123.82 129.946 123.847 130.076L123.933 130.195V130.247Z" fill="url(#paint21_linear_191_2664)"/>
<path d="M127.607 124.364C127.62 124.489 127.574 124.608 127.436 124.608L127.338 124.621L127.167 124.378V124.279L127.114 124.174V124.102L127.115 124.096C127.128 123.994 127.136 123.924 127.259 123.931C127.384 123.937 127.502 124.082 127.502 124.134L127.607 124.24V124.364Z" fill="url(#paint22_linear_191_2664)"/>
<path d="M124.064 122.853C124.04 122.736 124.059 122.615 124.117 122.511L124.196 122.432V122.379L124.281 122.235L124.491 122.287L124.57 122.419L124.754 122.78C124.843 122.871 124.898 122.989 124.912 123.116C124.919 123.159 124.919 123.203 124.912 123.247V123.378L124.754 123.49H124.695C124.656 123.518 124.609 123.532 124.56 123.532C124.512 123.532 124.465 123.518 124.426 123.49H124.386L124.261 123.319V123.273L124.097 123.05L124.064 122.853Z" fill="url(#paint23_linear_191_2664)"/>
<path d="M124.695 144.366V144.332C124.61 144.265 124.549 144.17 124.524 144.064L124.386 143.834V143.755V143.637C124.389 143.626 124.389 143.615 124.386 143.604V143.531L124.577 143.472L124.636 143.525H124.675C124.783 143.576 124.872 143.659 124.932 143.761L124.971 143.821V143.992C125.007 144.062 125.031 144.137 125.044 144.215V144.274L124.984 144.432H124.952C124.908 144.451 124.859 144.455 124.812 144.443C124.766 144.431 124.725 144.404 124.695 144.366Z" fill="url(#paint24_linear_191_2664)"/>
<path d="M124.629 142.848L124.445 142.914L124.393 142.841C124.289 142.693 124.223 142.521 124.202 142.342C124.172 142.168 124.203 141.99 124.288 141.836V141.796H124.432H124.472C124.531 141.835 124.599 141.859 124.669 141.868H124.715L124.873 142.039V142.105C124.897 142.18 124.915 142.257 124.925 142.335C124.928 142.381 124.928 142.427 124.925 142.473C124.922 142.526 124.922 142.578 124.925 142.631V142.736C124.896 142.785 124.85 142.823 124.797 142.843C124.743 142.863 124.684 142.865 124.629 142.848Z" fill="url(#paint25_linear_191_2664)"/>
<path d="M127.055 134.816C127.055 134.98 126.969 135.065 126.838 135.026V135.039C126.757 135 126.686 134.943 126.632 134.87C126.578 134.798 126.543 134.714 126.529 134.625V134.461L126.707 134.375L126.759 134.408C126.795 134.433 126.828 134.462 126.858 134.493H126.891L126.937 134.526L127.055 134.756V134.816Z" fill="url(#paint26_linear_191_2664)"/>
<path d="M128.81 130.096V130.188L128.816 130.201C128.823 130.267 128.823 130.333 128.902 130.491L128.961 130.701V130.753C128.947 130.813 128.917 130.868 128.875 130.912C128.832 130.956 128.777 130.988 128.718 131.003C128.639 131.095 128.468 131.049 128.35 130.944C128.284 130.879 128.236 130.797 128.212 130.707L128.113 130.635V130.53C128.109 130.473 128.109 130.416 128.113 130.359C128.093 130.217 128.093 130.074 128.113 129.932V129.794L128.271 129.702V129.669H128.422H128.462C128.539 129.719 128.606 129.784 128.659 129.859C128.72 129.903 128.772 129.959 128.81 130.024V130.096Z" fill="url(#paint27_linear_191_2664)"/>
<path d="M126.628 148.54C126.558 148.457 126.513 148.357 126.496 148.251L126.503 148.264C126.483 148.146 126.509 148.008 126.687 148.034L126.779 147.929L126.851 147.968C126.923 148.014 126.981 148.078 127.022 148.152C127.07 148.201 127.106 148.259 127.127 148.323L127.219 148.409V148.632L127.18 148.77C127.158 148.79 127.132 148.805 127.103 148.813C127.075 148.821 127.045 148.822 127.015 148.816L126.825 148.77L126.746 148.678L126.7 148.626L126.628 148.54Z" fill="url(#paint28_linear_191_2664)"/>
<path d="M114.277 134.678L114.343 134.763L114.494 134.881H114.402C114.406 134.925 114.406 134.969 114.402 135.013C114.42 135.141 114.397 135.273 114.336 135.387V135.44H114.126L114.08 135.381C114.016 135.292 113.975 135.188 113.961 135.078L113.869 134.914V134.855C113.856 134.697 113.902 134.605 113.948 134.605C113.976 134.585 114.009 134.575 114.044 134.575C114.078 134.575 114.111 134.585 114.139 134.605H114.218L114.277 134.678Z" fill="url(#paint29_linear_191_2664)"/>
<path d="M120.074 144.478L119.917 144.438L120.042 144.36C119.976 144.291 119.935 144.204 119.923 144.11C119.916 144.074 119.918 144.036 119.928 144.001C119.938 143.965 119.957 143.933 119.982 143.906V143.761V143.683C119.995 143.584 120.002 143.538 120.107 143.512C120.212 143.485 120.311 143.591 120.357 143.643L120.488 143.853L120.521 143.899C120.547 143.952 120.567 144.007 120.58 144.064C120.583 144.086 120.583 144.108 120.58 144.13V144.222C120.606 144.283 120.626 144.347 120.64 144.412C120.646 144.456 120.646 144.5 120.64 144.544V144.596L120.534 144.669L120.495 144.59V144.655H120.311L120.245 144.55C120.181 144.55 120.12 144.524 120.074 144.478Z" fill="url(#paint30_linear_191_2664)"/>
<path d="M121.06 116.615H121.014L121.021 116.628C121 116.651 120.972 116.667 120.942 116.674C120.928 116.69 120.911 116.702 120.891 116.71C120.872 116.719 120.851 116.723 120.83 116.723C120.809 116.723 120.788 116.719 120.769 116.71C120.75 116.702 120.733 116.69 120.719 116.674H120.679L120.574 116.47V116.418C120.571 116.405 120.571 116.391 120.574 116.378L120.495 116.253V116.168C120.502 116.128 120.508 116.01 120.594 115.971C120.622 115.955 120.653 115.946 120.686 115.946C120.718 115.946 120.75 115.955 120.778 115.971H120.817H120.876C120.955 115.999 121.024 116.049 121.075 116.116C121.127 116.182 121.158 116.262 121.165 116.345C121.179 116.401 121.179 116.46 121.165 116.516V116.556L121.06 116.615Z" fill="url(#paint31_linear_191_2664)"/>
<path d="M117.538 120.791C117.557 120.742 117.591 120.699 117.636 120.67L117.649 120.565L117.741 120.664L117.675 120.539L117.78 120.46H117.833C117.893 120.493 117.944 120.541 117.982 120.598C118.019 120.655 118.043 120.721 118.05 120.789C118.056 120.819 118.056 120.85 118.05 120.881C118.071 120.94 118.087 121.002 118.096 121.065C118.099 121.091 118.099 121.117 118.096 121.144V121.209C118.05 121.328 117.964 121.328 117.925 121.328L117.84 121.288H117.767C117.687 121.259 117.62 121.203 117.577 121.13L117.531 121.032V120.946C117.516 120.895 117.519 120.841 117.538 120.791Z" fill="url(#paint32_linear_191_2664)"/>
<path d="M122.48 132.627L122.526 132.798L122.552 132.771V132.824V132.896C122.556 132.931 122.556 132.966 122.552 133.001V133.041V133.093C122.552 133.218 122.52 133.415 122.276 133.343L122.178 133.429H122.125C122.057 133.395 121.999 133.345 121.954 133.284C121.899 133.254 121.85 133.214 121.81 133.166L121.757 133.074H121.704L121.665 132.929C121.661 132.903 121.661 132.876 121.665 132.85C121.67 132.807 121.67 132.762 121.665 132.719L121.619 132.646V132.37C121.625 132.321 121.636 132.273 121.652 132.226V132.186V132.121C121.672 132.042 121.731 131.871 121.921 131.93C122.028 131.886 122.117 131.998 122.17 132.065L122.178 132.075L122.243 132.16L122.342 132.318V132.357C122.374 132.406 122.403 132.456 122.427 132.508L122.48 132.594V132.627Z" fill="url(#paint33_linear_191_2664)"/>
<path d="M115.557 126.468C115.597 126.49 115.631 126.522 115.657 126.56L115.664 126.573C115.728 126.658 115.771 126.757 115.789 126.862C115.786 126.888 115.786 126.915 115.789 126.941V127L115.703 127.151C115.673 127.178 115.635 127.192 115.595 127.192C115.555 127.192 115.516 127.178 115.486 127.151H115.447L115.348 126.948V126.902C115.344 126.867 115.344 126.831 115.348 126.796V126.718V126.428H115.427C115.473 126.431 115.518 126.445 115.557 126.468Z" fill="url(#paint34_linear_191_2664)"/>
<path d="M122.866 123.687C122.836 123.729 122.793 123.759 122.743 123.773C122.709 123.826 122.656 123.864 122.595 123.879C122.533 123.893 122.469 123.884 122.414 123.852L122.349 123.819L122.309 123.74C122.261 123.7 122.22 123.651 122.191 123.595C122.158 123.564 122.129 123.529 122.105 123.49C122.077 123.437 122.057 123.379 122.046 123.319L121.994 123.28V123.142C121.98 123.076 121.992 123.008 122.027 122.951C122.105 122.432 122.421 122.537 122.612 122.649L122.684 122.721C122.796 122.888 122.872 123.076 122.907 123.273C122.917 123.35 122.917 123.427 122.907 123.503V123.543C122.911 123.594 122.896 123.645 122.866 123.687Z" fill="url(#paint35_linear_191_2664)"/>
<path d="M96.7598 141.704L96.7992 141.783L96.7335 141.868C96.7279 141.897 96.7167 141.923 96.7006 141.947C96.7038 141.984 96.7038 142.022 96.7006 142.059V142.125L96.556 142.237H96.5034H96.4443V142.269L96.326 142.394L96.2602 142.355C96.2159 142.331 96.1777 142.297 96.1485 142.256L96.0631 142.289L96.0105 142.243C95.9462 142.188 95.8965 142.118 95.8659 142.039C95.8071 141.991 95.7599 141.931 95.7278 141.862C95.6969 141.788 95.6748 141.711 95.6621 141.632V141.513V141.454L95.6227 141.362L95.6884 141.218V141.099C95.6707 141.022 95.6692 140.942 95.6839 140.864C95.6986 140.786 95.7292 140.712 95.7738 140.646C95.8097 140.607 95.8574 140.58 95.9096 140.571C95.9618 140.561 96.0157 140.569 96.0631 140.593H96.1354L96.2405 140.836C96.2789 140.889 96.3099 140.946 96.3326 141.007L96.4509 141.29H96.51H96.5758L96.7598 141.625V141.704Z" fill="url(#paint36_linear_191_2664)"/>
<path d="M120.304 152.076C120.212 152.02 120.144 151.931 120.114 151.827C120.066 151.791 120.027 151.745 119.999 151.693C119.97 151.641 119.954 151.583 119.949 151.524V151.465V151.432L119.89 151.261V151.15V151.097C119.897 151.075 119.909 151.055 119.924 151.038C119.94 151.021 119.959 151.008 119.981 150.999C120.003 150.991 120.026 150.988 120.049 150.99C120.072 150.992 120.094 150.999 120.114 151.012H120.147L120.232 151.104L120.285 151.169C120.318 151.144 120.358 151.131 120.4 151.131C120.441 151.131 120.482 151.144 120.515 151.169C120.583 151.234 120.633 151.316 120.659 151.406C120.694 151.411 120.727 151.422 120.758 151.439H120.791L120.903 151.564V151.603C120.936 151.676 120.958 151.754 120.968 151.833C120.975 151.877 120.975 151.921 120.968 151.965C120.962 151.984 120.962 152.005 120.968 152.024V152.116L120.85 152.293L120.62 152.234L120.515 152.155C120.466 152.139 120.421 152.112 120.383 152.076H120.35H120.304Z" fill="url(#paint37_linear_191_2664)"/>
<path d="M81.2474 121.946V122.116L81.3132 122.241L81.3723 122.452V122.504C81.346 122.563 81.2014 122.662 81.1225 122.754C81.0437 122.846 80.8728 122.8 80.7544 122.695C80.6931 122.628 80.6461 122.55 80.6164 122.465L80.5178 122.386V122.287V122.116C80.4978 121.975 80.4978 121.831 80.5178 121.689V121.551L80.6756 121.453V121.42H80.8268H80.8662C80.9465 121.463 81.0143 121.527 81.0634 121.604C81.1264 121.648 81.1782 121.707 81.2146 121.775L81.2474 121.854V121.946Z" fill="url(#paint38_linear_191_2664)"/>
<path d="M82.2925 107.311C82.2524 107.311 82.2133 107.298 82.1808 107.275L82.1479 107.288L81.9376 107.051V106.959C81.9245 106.821 81.9705 106.69 82.0625 106.69C82.1291 106.681 82.1966 106.693 82.2563 106.723C82.3161 106.754 82.3653 106.802 82.3977 106.86V106.893L82.4503 107.031V107.064C82.4619 107.138 82.4455 107.213 82.4043 107.275C82.3718 107.298 82.3327 107.311 82.2925 107.311Z" fill="url(#paint39_linear_191_2664)"/>
<path d="M87.643 107.669C87.6036 107.965 87.4589 108.103 87.2355 108.07L87.2157 108.083L87.0383 107.846V107.774V107.695C86.9971 107.578 86.9664 107.457 86.9463 107.334V107.242L87.0317 107.084H87.0711C87.1217 107.075 87.1738 107.079 87.2222 107.097C87.2707 107.114 87.3137 107.143 87.3472 107.182C87.4145 107.211 87.475 107.254 87.5247 107.307V107.34V107.419L87.643 107.57V107.669Z" fill="url(#paint40_linear_191_2664)"/>
<path d="M84.8232 88.9949V88.9358L84.902 88.8306V88.7649C84.9086 88.6663 84.9152 88.6202 85.0204 88.5939C85.1209 88.5688 85.2155 88.6639 85.2695 88.7182L85.2767 88.7254L85.4345 89.0278H85.4673L85.5002 89.0738C85.5285 89.1251 85.5485 89.1805 85.5593 89.2381C85.562 89.2621 85.562 89.2864 85.5593 89.3104V89.363C85.5909 89.4222 85.611 89.4869 85.6185 89.5536C85.6251 89.5972 85.6251 89.6415 85.6185 89.6851V89.7377L85.5133 89.81L85.4739 89.7311V89.7968H85.2964L85.2241 89.6917C85.1912 89.6919 85.1586 89.6856 85.1282 89.6732C85.0977 89.6608 85.07 89.6425 85.0466 89.6193L84.8823 89.5799V89.4485C84.8187 89.3797 84.7794 89.2919 84.7706 89.1987C84.7607 89.1631 84.7603 89.1255 84.7696 89.0898C84.7788 89.054 84.7973 89.0213 84.8232 88.9949Z" fill="url(#paint41_linear_191_2664)"/>
<path d="M81.8587 109.292V109.214L81.839 109.154L81.9573 109.003L82.2071 109.062L82.378 109.437L82.3386 109.509V109.588L82.2137 109.759H82.1545C82.0672 109.716 81.9935 109.649 81.9413 109.567C81.8892 109.485 81.8606 109.39 81.8587 109.292Z" fill="url(#paint42_linear_191_2664)"/>
<path d="M85.1301 97.0989C85.0973 97.056 85.0735 97.007 85.0598 96.9548H85.0269C84.9738 96.8779 84.9483 96.7852 84.9546 96.6919H84.9875C84.9886 96.6722 84.9886 96.6525 84.9875 96.6328V96.5999L84.9283 96.4224L84.8955 96.3107V96.2581C84.9021 96.236 84.9138 96.2157 84.9295 96.1988C84.9453 96.1819 84.9646 96.1688 84.9862 96.1605C85.0078 96.1523 85.031 96.1491 85.054 96.1512C85.077 96.1533 85.0992 96.1606 85.1189 96.1727L85.2044 96.2647L85.257 96.3304C85.2901 96.3054 85.3305 96.2918 85.372 96.2918C85.4135 96.2918 85.4539 96.3054 85.487 96.3304C85.5554 96.394 85.6034 96.4763 85.6251 96.567C85.6638 96.5719 85.7016 96.583 85.7368 96.5999L85.8485 96.7248V96.7642C85.8844 96.8363 85.9066 96.9142 85.9143 96.9943C85.9173 97.0381 85.9173 97.082 85.9143 97.1258V97.1849V97.2769L85.8025 97.4544L85.5659 97.3953L85.4607 97.3164V97.2835C85.413 97.2685 85.37 97.2413 85.3359 97.2046H85.303H85.2504C85.2037 97.1777 85.1628 97.1417 85.1301 97.0989Z" fill="url(#paint43_linear_191_2664)"/>
<path d="M86.469 134.95C86.5255 134.99 86.5682 135.046 86.5913 135.111L86.6242 135.151V135.276C86.6298 135.303 86.6298 135.33 86.6241 135.357C86.6184 135.384 86.6072 135.41 86.5911 135.432C86.575 135.454 86.5544 135.473 86.5307 135.487C86.507 135.5 86.4806 135.509 86.4533 135.512L86.3284 135.571L86.2627 135.512C86.1763 135.424 86.119 135.312 86.0983 135.19C86.0786 135 86.1772 134.888 86.2758 134.888C86.345 134.888 86.4125 134.91 86.469 134.95Z" fill="url(#paint44_linear_191_2664)"/>
<path d="M86.5059 77.8273V77.5513C86.4971 77.539 86.4936 77.5239 86.4961 77.5091C86.4986 77.4943 86.5068 77.4811 86.519 77.4724C86.5312 77.4637 86.5464 77.4601 86.5612 77.4626C86.576 77.4651 86.5892 77.4733 86.5979 77.4855C86.5895 77.4377 86.5895 77.3887 86.5979 77.3409V77.3015V77.2357C86.6176 77.1569 86.6768 76.986 86.8674 77.0451C86.9791 76.9991 87.0711 77.124 87.1237 77.1897L87.1895 77.2752L87.288 77.4329V77.4724C87.3221 77.5206 87.3528 77.5711 87.3801 77.6235C87.3914 77.654 87.4069 77.6828 87.4261 77.709V77.7419L87.4655 77.9128V77.9522V78.0048V78.0771V78.1823V78.2217V78.2743C87.4721 78.3992 87.4392 78.5964 87.1895 78.5241L87.0909 78.6095H87.0448C86.9753 78.5757 86.9145 78.5262 86.8674 78.4649C86.8135 78.4386 86.7663 78.4004 86.7293 78.3532L86.6702 78.2546H86.6176L86.5782 78.11V78.0311C86.5727 77.9861 86.5617 77.9419 86.5453 77.8996L86.5059 77.8273Z" fill="url(#paint45_linear_191_2664)"/>
<path d="M86.8937 130.99L86.8542 131.115L86.8608 131.082C86.8052 131.081 86.7503 131.069 86.6995 131.046C86.6487 131.024 86.603 130.991 86.565 130.951L86.5322 130.983H86.4796C86.419 130.952 86.367 130.906 86.328 130.85C86.2891 130.794 86.2644 130.729 86.2561 130.661V130.615L86.2035 130.517V130.438C86.2157 130.402 86.2311 130.366 86.2495 130.333L86.2166 130.195H86.2692L86.2723 130.183C86.2918 130.111 86.3209 130.002 86.427 129.971C86.5433 129.959 86.6602 129.989 86.7556 130.057L86.8279 130.096L86.9265 130.195V130.228C86.9579 130.282 86.978 130.343 86.9857 130.405C86.9887 130.433 86.9887 130.462 86.9857 130.491C87.0135 130.546 87.0312 130.606 87.0383 130.668C87.05 130.748 87.0386 130.83 87.0054 130.905C86.9943 130.926 86.9785 130.945 86.9591 130.96C86.9398 130.975 86.9175 130.985 86.8937 130.99Z" fill="url(#paint46_linear_191_2664)"/>
<path d="M87.0186 117.2V117.312L87.0251 117.574L86.9068 117.739L86.7491 117.699L86.657 117.594C86.6087 117.598 86.5606 117.586 86.519 117.561C86.3639 117.439 86.2606 117.263 86.2298 117.068V116.976L86.2955 116.845H86.3284H86.4073L86.5124 116.681H86.5584H86.6176H86.6702C86.7598 116.727 86.8298 116.804 86.8674 116.897L87.0186 117.2Z" fill="url(#paint47_linear_191_2664)"/>
<path d="M83.5809 82.2378L83.6334 82.3759C83.6548 82.4218 83.6624 82.4729 83.6554 82.523C83.6484 82.5731 83.6271 82.6202 83.594 82.6585C83.5283 82.7177 83.4297 82.6585 83.3771 82.6585H83.3179L83.1142 82.4219V82.3364C83.101 82.1918 83.1536 82.0603 83.2456 82.0603C83.3127 82.0544 83.38 82.068 83.4395 82.0995C83.499 82.131 83.5481 82.179 83.5809 82.2378Z" fill="url(#paint48_linear_191_2664)"/>
<path d="M80.2812 72.0891V72.043C80.2812 72.0167 80.2746 71.9839 80.2812 71.8984C80.2878 71.8815 80.2878 71.8628 80.2812 71.8459V71.5566H80.3601C80.4059 71.5597 80.4504 71.573 80.4903 71.5958C80.5301 71.6186 80.5643 71.6502 80.5901 71.6881C80.669 71.7884 80.7169 71.9094 80.7282 72.0365V72.1219V72.1745L80.6361 72.3257C80.6062 72.352 80.5676 72.3666 80.5277 72.3666C80.4878 72.3666 80.4492 72.352 80.4192 72.3257L80.3864 72.2928L80.2812 72.0891Z" fill="url(#paint49_linear_191_2664)"/>
<path d="M131.137 135.525L131.084 135.611C130.959 135.834 130.808 135.742 130.703 135.585C130.612 135.511 130.553 135.405 130.539 135.289V135.256V135.124C130.549 135.11 130.563 135.098 130.579 135.09C130.595 135.082 130.613 135.078 130.631 135.078L130.756 134.993H130.802C130.874 135.024 130.937 135.074 130.983 135.137C131.029 135.201 131.058 135.276 131.064 135.355V135.387L131.137 135.525Z" fill="url(#paint50_linear_191_2664)"/>
<path d="M81.4512 96.4816C81.4522 96.6179 81.4109 96.7511 81.3329 96.8628L81.2277 96.9089C81.2178 96.9346 81.2045 96.9589 81.1883 96.9811H81.07H81.0305H80.9911C81.0275 97.0411 81.05 97.1085 81.0568 97.1783C81.0809 97.2441 81.0809 97.3163 81.0568 97.3821C81.038 97.4047 81.0133 97.4216 80.9854 97.4309C80.9576 97.4402 80.9276 97.4415 80.8991 97.4347C80.8398 97.418 80.7871 97.3836 80.7479 97.3361L80.5901 97.3032H80.531L80.4521 97.1718C80.4063 97.1367 80.3664 97.0945 80.3338 97.0469V97.0074L80.2878 96.83V96.7905C80.2935 96.7143 80.3208 96.6414 80.3666 96.5802C80.3644 96.5249 80.3781 96.4702 80.4061 96.4224L80.3666 96.2253V96.1858V96.1464L80.4784 95.9689H80.5178V95.8637L80.6427 95.8111C80.6444 95.7792 80.6529 95.7481 80.6676 95.7197C80.6824 95.6914 80.703 95.6665 80.7282 95.6468C80.7603 95.6329 80.795 95.6257 80.83 95.6257C80.8651 95.6257 80.8998 95.6329 80.9319 95.6468H80.9845L81.0437 95.6008L81.3197 95.9032V95.9689C81.3518 96.0009 81.3804 96.0362 81.4052 96.0741V96.1201L81.4512 96.3238V96.3699C81.4444 96.4068 81.4444 96.4447 81.4512 96.4816Z" fill="url(#paint51_linear_191_2664)"/>
<path d="M81.9902 131.989V131.904L81.9442 131.818C81.9305 131.753 81.9305 131.686 81.9442 131.621L81.9967 131.516C82.0242 131.498 82.0562 131.489 82.0888 131.489C82.1214 131.489 82.1533 131.498 82.1808 131.516H82.2137L82.2728 131.562C82.3248 131.599 82.3681 131.647 82.3998 131.703C82.4316 131.759 82.451 131.82 82.4569 131.884C82.4635 131.923 82.4635 131.963 82.4569 132.002L82.5817 132.219V132.305C82.577 132.332 82.5668 132.359 82.5515 132.383C82.5363 132.407 82.5165 132.427 82.4931 132.443C82.4698 132.459 82.4436 132.47 82.4159 132.476C82.3882 132.481 82.3596 132.481 82.332 132.476H82.286L82.1282 132.311V132.252C82.112 132.212 82.1009 132.17 82.0954 132.127V132.081L81.9902 131.989Z" fill="url(#paint52_linear_191_2664)"/>
<path d="M79.6633 140.37L79.6239 140.508L79.5844 140.547C79.561 140.567 79.5336 140.581 79.5041 140.589C79.4746 140.597 79.4437 140.598 79.4136 140.593L79.2229 140.554L79.1441 140.455L79.1046 140.403L79.0323 140.317C78.9655 140.233 78.9204 140.134 78.9009 140.028C78.8877 139.91 78.9074 139.772 79.0981 139.772H79.1375L79.2229 139.666L79.2952 139.706C79.366 139.751 79.4228 139.815 79.4596 139.89C79.5078 139.94 79.5478 139.998 79.5779 140.061L79.6633 140.146V140.37Z" fill="url(#paint53_linear_191_2664)"/>
<path d="M89.4374 89.2184L89.2994 88.9883L89.2863 88.9226C89.2818 88.8833 89.2818 88.8436 89.2863 88.8043V88.7714V88.6991L89.4834 88.64L89.536 88.6926H89.582C89.6848 88.7479 89.771 88.8295 89.8318 88.9292L89.8713 88.9883V89.1592C89.9067 89.2302 89.9332 89.3053 89.9501 89.3827V89.4287L89.8844 89.5865C89.8419 89.6045 89.7947 89.6085 89.7498 89.5978C89.7049 89.5872 89.6645 89.5625 89.6346 89.5273V89.4748C89.543 89.4128 89.4738 89.3229 89.4374 89.2184Z" fill="url(#paint54_linear_191_2664)"/>
<path d="M82.9433 136.091C82.8775 136.176 82.7789 136.124 82.7264 136.124L82.7198 136.104L82.5094 135.749V135.657C82.5229 135.613 82.5513 135.575 82.5897 135.55C82.6281 135.525 82.6741 135.514 82.7198 135.519H82.7921L82.9893 135.69V135.762C82.9924 135.801 82.9924 135.841 82.9893 135.88C82.9965 135.917 82.9961 135.954 82.9882 135.99C82.9803 136.027 82.965 136.061 82.9433 136.091Z" fill="url(#paint55_linear_191_2664)"/>
<path d="M83.5086 127.27L83.4625 127.355H83.4823C83.3508 127.579 83.1996 127.506 83.0747 127.329C82.9872 127.255 82.9289 127.153 82.9104 127.04V127V126.869C82.934 126.842 82.967 126.826 83.0024 126.823L83.1273 126.737H83.1733C83.2454 126.769 83.3078 126.819 83.3541 126.882C83.4003 126.946 83.4287 127.021 83.4362 127.099V127.138L83.5086 127.27Z" fill="url(#paint56_linear_191_2664)"/>
<path d="M93.7099 136.945L93.5456 137.037L93.4996 136.985C93.4022 136.901 93.339 136.784 93.3221 136.656C93.3143 136.611 93.3161 136.565 93.3274 136.521C93.3387 136.477 93.3593 136.435 93.3878 136.4C93.4236 136.372 93.4675 136.357 93.5127 136.357C93.5579 136.357 93.6019 136.372 93.6376 136.4H93.6836L93.8217 136.643V136.709C93.8247 136.754 93.816 136.8 93.7964 136.841C93.7769 136.883 93.7471 136.919 93.7099 136.945Z" fill="url(#paint57_linear_191_2664)"/>
<path d="M93.2301 112.388H93.2827L93.4075 112.671V112.783L93.4404 113.052L93.3221 113.21L93.1644 113.177L93.0066 112.98V112.914V112.829V112.796V112.73C93.0035 112.702 93.0035 112.673 93.0066 112.645C92.9869 112.5 93.0329 112.349 93.2301 112.388Z" fill="url(#paint58_linear_191_2664)"/>
<path d="M96.7532 106.433L96.7992 106.473C96.8942 106.504 96.979 106.56 97.0449 106.635C97.1108 106.71 97.1554 106.802 97.1739 106.9V106.952L97.1082 107.117H97.0885C97.0108 107.137 96.9294 107.137 96.8518 107.117C96.7973 107.109 96.742 107.109 96.6875 107.117H96.6349L96.4509 106.906V106.795C96.4246 106.571 96.5232 106.473 96.5626 106.473L96.7532 106.433Z" fill="url(#paint59_linear_191_2664)"/>
<path d="M96.865 114.755V114.676L97.1147 114.623L97.1673 114.689C97.2372 114.779 97.2825 114.885 97.2988 114.998C97.3159 115.079 97.3018 115.163 97.2594 115.234C97.2359 115.262 97.2044 115.283 97.1691 115.292C97.1338 115.301 97.0964 115.3 97.0622 115.287H96.9964L96.8321 114.985V114.906C96.8383 114.865 96.8493 114.825 96.865 114.788C96.8643 114.777 96.8643 114.766 96.865 114.755Z" fill="url(#paint60_linear_191_2664)"/>
<path d="M92.9212 118.764C92.9076 118.693 92.9076 118.619 92.9212 118.547L92.9014 118.514L93.0329 118.442C93.0562 118.388 93.0951 118.342 93.1446 118.311H93.2498C93.3085 118.354 93.3614 118.405 93.4075 118.462L93.447 118.501H93.493L93.539 118.554L93.6639 118.718V118.817C93.6738 118.882 93.6738 118.949 93.6639 119.014C93.6617 119.027 93.6617 119.04 93.6639 119.053V119.106V119.218C93.6671 119.237 93.6671 119.257 93.6639 119.277V119.402C93.658 119.431 93.6424 119.457 93.6198 119.476C93.5971 119.495 93.5686 119.506 93.539 119.507H93.4864C93.3484 119.507 93.2892 119.474 93.2892 119.474C93.2154 119.427 93.1508 119.367 93.0986 119.297L92.9212 119.06V118.961C92.9232 118.94 92.9232 118.918 92.9212 118.896C92.9187 118.852 92.9187 118.808 92.9212 118.764Z" fill="url(#paint61_linear_191_2664)"/>
<path d="M97.1082 132.029V132.107C97.1037 132.145 97.0893 132.18 97.0664 132.21C97.0435 132.24 97.013 132.263 96.9781 132.278C96.9432 132.292 96.9051 132.296 96.8678 132.29C96.8306 132.285 96.7956 132.269 96.7664 132.245H96.7138L96.556 132.009V131.937C96.5495 131.805 96.5758 131.601 96.8716 131.687H96.9438L96.9899 131.785L97.1082 132.029Z" fill="url(#paint62_linear_191_2664)"/>
<path d="M95.5175 89.5076C95.4518 89.5668 95.3532 89.5076 95.3006 89.5076L95.294 89.5273L95.0837 89.1658V89.0804C95.098 89.0365 95.1264 88.9986 95.1644 88.9725C95.2024 88.9464 95.2479 88.9335 95.294 88.9358H95.3663L95.5635 89.1001V89.1724C95.5659 89.214 95.5659 89.2557 95.5635 89.2973C95.5707 89.3336 95.5703 89.371 95.5624 89.4072C95.5545 89.4434 95.5392 89.4776 95.5175 89.5076Z" fill="url(#paint63_linear_191_2664)"/>
<path d="M94.847 84.867L94.9062 84.9065V84.9131C94.9933 85.0004 95.0428 85.1184 95.0442 85.2417C95.0508 85.2809 95.0508 85.3209 95.0442 85.36L95.1691 85.5769V85.6624C95.1653 85.6907 95.1556 85.7178 95.1407 85.7421C95.1257 85.7664 95.1058 85.7873 95.0822 85.8034C95.0587 85.8195 95.032 85.8305 95.004 85.8356C94.9759 85.8408 94.9471 85.84 94.9194 85.8333H94.8733L94.7156 85.669V85.6098C94.7015 85.5668 94.6906 85.5229 94.6827 85.4783C94.6858 85.4654 94.6858 85.4519 94.6827 85.4389L94.5775 85.3469V85.2614C94.572 85.231 94.572 85.1998 94.5775 85.1694C94.5614 85.1047 94.5614 85.037 94.5775 84.9722L94.6301 84.867C94.6573 84.8487 94.6894 84.8389 94.7222 84.8389C94.755 84.8389 94.787 84.8487 94.8142 84.867H94.847Z" fill="url(#paint64_linear_191_2664)"/>
<path d="M95.1576 113.141C95.1036 113.066 95.0692 112.979 95.0574 112.888L95.0377 112.829V112.697L95.11 112.592C95.1367 112.58 95.1659 112.573 95.1954 112.573C95.2249 112.573 95.2541 112.58 95.2809 112.592C95.3065 112.584 95.3341 112.584 95.3597 112.592C95.4715 112.605 95.5504 112.717 95.5964 112.783C95.686 112.83 95.7634 112.897 95.8227 112.979C95.882 113.061 95.9215 113.156 95.9382 113.256V113.361L95.8001 113.499H95.741C95.6775 113.47 95.623 113.425 95.5832 113.368C95.5294 113.382 95.4727 113.382 95.4189 113.368L95.3663 113.315C95.2833 113.275 95.2115 113.215 95.1576 113.141Z" fill="url(#paint65_linear_191_2664)"/>
<path d="M91.9943 130.734L92.1652 131.108L92.1061 131.194V131.273L91.9812 131.437H91.922C91.8357 131.393 91.7627 131.326 91.7107 131.244C91.6587 131.162 91.6295 131.067 91.6263 130.97V130.891V130.826L91.7446 130.675L91.9943 130.734Z" fill="url(#paint66_linear_191_2664)"/>
<path d="M90.2525 141.448H90.1276L89.983 141.461C90.0166 141.522 90.0389 141.589 90.0487 141.658C90.0563 141.693 90.0567 141.729 90.05 141.764C90.0432 141.799 90.0293 141.832 90.0093 141.862C89.9921 141.885 89.9685 141.902 89.9416 141.911C89.9147 141.92 89.8857 141.922 89.8581 141.914C89.7976 141.896 89.743 141.862 89.7003 141.816C89.6491 141.809 89.5985 141.798 89.5492 141.783H89.49L89.4111 141.652C89.3638 141.618 89.3235 141.576 89.2928 141.527V141.487L89.2468 141.31V141.257C89.2506 141.182 89.2757 141.109 89.3191 141.047C89.3201 140.992 89.3336 140.938 89.3586 140.889L89.3257 140.692V140.659L89.4374 140.482H89.4834V140.376L89.6083 140.324C89.6086 140.292 89.6165 140.26 89.6313 140.231C89.6462 140.203 89.6676 140.178 89.6938 140.159C89.7259 140.146 89.7606 140.138 89.7957 140.138C89.8307 140.138 89.8654 140.146 89.8975 140.159H89.9436L90.0093 140.113L90.2788 140.416V140.482C90.3085 140.514 90.3349 140.549 90.3577 140.587V140.633L90.4037 140.836V140.882V141.001C90.4053 141.134 90.3663 141.265 90.2919 141.375C90.282 141.401 90.2687 141.425 90.2525 141.448Z" fill="url(#paint67_linear_191_2664)"/>
<path d="M88.4252 124.082L88.4778 124.22L88.4515 124.286C88.4692 124.343 88.4692 124.405 88.4515 124.463V124.529L88.5172 124.673L88.4778 124.785C88.4752 124.803 88.4752 124.82 88.4778 124.838V124.917V124.982C88.4186 125.147 88.3069 125.101 88.2609 125.101C88.1097 125.035 88.0242 124.831 88.0242 124.746C87.9476 124.633 87.8961 124.505 87.873 124.371C87.8631 124.321 87.8631 124.27 87.873 124.22V124.18L87.9651 124.102H88.0242C88.0287 124.065 88.0425 124.03 88.0644 124C88.0863 123.97 88.1154 123.946 88.1491 123.931C88.2346 123.904 88.3397 123.957 88.4252 124.082Z" fill="url(#paint68_linear_191_2664)"/>
<path d="M94.1174 101.727V101.793C94.124 101.97 94.032 102.115 93.8151 102.042H93.7625L93.6179 101.825C93.5663 101.749 93.5346 101.661 93.5259 101.569V101.687L93.4601 101.655L93.5127 101.687V101.964H93.4338H93.3681C93.2961 101.999 93.2181 102.022 93.1381 102.029H93.0789L93.0197 101.957C92.9597 101.923 92.9082 101.876 92.8695 101.819C92.8307 101.762 92.8056 101.697 92.7963 101.628L92.7502 101.536V101.418C92.7394 101.32 92.7507 101.221 92.7831 101.129V101.07L92.8291 100.984L92.9474 100.794L93 100.833C93.0628 100.821 93.1274 100.826 93.1882 100.845C93.249 100.865 93.304 100.899 93.3484 100.945L93.3944 101.004C93.4394 101.074 93.4706 101.152 93.4864 101.234C93.5247 101.296 93.5556 101.362 93.5785 101.431C93.5793 101.438 93.5799 101.446 93.5803 101.453L93.631 101.326C93.6574 101.312 93.6867 101.305 93.7165 101.305C93.7462 101.305 93.7756 101.312 93.8019 101.326C93.8384 101.326 93.8744 101.334 93.9066 101.352C93.9388 101.369 93.9661 101.394 93.986 101.425L94.0583 101.595V101.668L94.1174 101.727Z" fill="url(#paint69_linear_191_2664)"/>
<path d="M89.1548 135.072L88.997 134.855L89.0233 134.77C89.0036 134.632 89.0168 134.401 89.3125 134.454H89.352L89.5229 134.651V134.724V134.789C89.539 134.876 89.5201 134.966 89.4703 135.039C89.398 135.131 89.2731 135.072 89.2074 135.072H89.1548Z" fill="url(#paint70_linear_191_2664)"/>
<path d="M88.0045 132.324L87.9519 132.259V132.226C87.8831 132.163 87.8312 132.084 87.8007 131.996C87.7905 131.949 87.793 131.901 87.808 131.856C87.8231 131.811 87.8501 131.77 87.8862 131.739L88.0505 131.549L88.1294 131.608C88.1864 131.654 88.2353 131.71 88.274 131.772C88.3514 131.773 88.4277 131.791 88.4975 131.825C88.5393 131.844 88.5835 131.857 88.629 131.864H88.6815L88.8524 132.068V132.186C88.8553 132.206 88.8553 132.226 88.8524 132.245L88.9116 132.324V132.384C88.9146 132.41 88.9146 132.436 88.9116 132.462C88.9149 132.489 88.9149 132.515 88.9116 132.541L88.9707 132.646V132.712C88.967 132.762 88.9536 132.812 88.9313 132.857C88.9344 132.87 88.9344 132.883 88.9313 132.896V132.929L88.859 133.015H88.813C88.7587 133.025 88.7029 133.025 88.6487 133.015C88.5829 133.041 88.5106 132.975 88.4712 132.975H88.4383L88.2346 132.791V132.712C88.1963 132.577 88.1411 132.446 88.0702 132.324H88.0045Z" fill="url(#paint71_linear_191_2664)"/>
<path d="M92.185 128.597L92.2375 128.735C92.2549 128.777 92.2616 128.822 92.257 128.867C92.2524 128.912 92.2367 128.955 92.2113 128.992C92.1455 129.051 92.0404 128.992 91.9878 128.992H91.9352L91.7248 128.755V128.663C91.7117 128.525 91.7577 128.387 91.8497 128.387C91.9167 128.382 91.9837 128.396 92.043 128.427C92.1024 128.459 92.1516 128.506 92.185 128.565V128.597Z" fill="url(#paint72_linear_191_2664)"/>
<path d="M89.971 85.2069C89.9179 85.2275 89.8591 85.2281 89.8055 85.2088V85.13L89.628 85.1957L89.5557 85.0905C89.4581 84.9415 89.3932 84.7735 89.3651 84.5975C89.3399 84.4212 89.3721 84.2414 89.4572 84.0849V84.052H89.5952H89.6346C89.6937 84.0914 89.7613 84.1162 89.8318 84.1243H89.8778L90.0422 84.3741V84.4398C90.0669 84.5169 90.0845 84.5961 90.0947 84.6764V84.8145C90.092 84.8648 90.092 84.9153 90.0947 84.9656V84.9985V85.0971C90.068 85.1474 90.0241 85.1864 89.971 85.2069Z" fill="url(#paint73_linear_191_2664)"/>
<path d="M91.4488 93.4251C91.4356 93.3068 91.4554 93.1688 91.6525 93.1688L91.6394 93.2082L91.7248 93.1031L91.7971 93.1425C91.8685 93.1887 91.9272 93.252 91.968 93.3265C92.0156 93.3761 92.0535 93.434 92.0798 93.4974L92.1652 93.5829V93.8064L92.1258 93.9444C92.1024 93.964 92.0749 93.9783 92.0454 93.9863C92.0159 93.9942 91.985 93.9956 91.9549 93.9904L91.7643 93.9444L91.692 93.8524L91.6525 93.7998L91.5802 93.7143C91.5134 93.6301 91.4683 93.5308 91.4488 93.4251Z" fill="url(#paint74_linear_191_2664)"/>
<path d="M8.52277 7.13136C8.49427 7.17292 8.45291 7.20397 8.40505 7.21975C8.38661 7.26006 8.3597 7.29593 8.32617 7.32492C8.3902 7.11572 8.46928 6.91141 8.5628 6.71362C8.57592 6.79195 8.57592 6.87192 8.5628 6.95025V6.98969C8.56533 7.04002 8.55127 7.0898 8.52277 7.13136Z" fill="url(#paint75_linear_191_2664)"/>
<path d="M16.8054 18.9658L16.7594 19.0512C16.6279 19.301 16.4767 19.209 16.3716 19.0315C16.2822 18.9565 16.2237 18.8512 16.2072 18.7357V18.6043C16.2313 18.577 16.2636 18.5586 16.2993 18.5517L16.4242 18.4662H16.4636C16.5369 18.4966 16.6007 18.5462 16.6481 18.6099C16.6956 18.6735 16.7249 18.7488 16.7331 18.8277L16.8054 18.9658Z" fill="url(#paint76_linear_191_2664)"/>
<path d="M17.8242 45.442H17.7848V45.4683C17.7022 45.4786 17.6184 45.4672 17.5416 45.4354C17.4904 45.4186 17.4375 45.4076 17.3838 45.4025H17.3312L17.1472 45.1922V45.0804C17.1209 44.8504 17.2195 44.7584 17.2589 44.7584L17.4495 44.7189L17.4956 44.7584H17.535C17.6303 44.7957 17.7136 44.8583 17.7761 44.9393C17.8386 45.0204 17.878 45.1168 17.8899 45.2185V45.2776L17.8242 45.442Z" fill="url(#paint77_linear_191_2664)"/>
<path d="M22.9406 53.7846C22.9048 53.7942 22.8668 53.7913 22.8329 53.7766L22.8394 53.7568L22.6685 53.4545V53.3822C22.6641 53.3407 22.6641 53.2988 22.6685 53.2573V53.2244V53.1521L22.8854 53.1127L22.9446 53.1784C23.0155 53.2702 23.0608 53.379 23.0761 53.4939C23.0916 53.5737 23.075 53.6563 23.0301 53.724C23.0079 53.7537 22.9764 53.7751 22.9406 53.7846Z" fill="url(#paint78_linear_191_2664)"/>
<path d="M15.2936 23.304L15.3462 23.1988H15.3527C15.3949 23.182 15.442 23.182 15.4842 23.1988L15.5434 23.2448C15.5955 23.2835 15.6388 23.3328 15.6706 23.3894C15.7023 23.4461 15.7217 23.5088 15.7274 23.5735C15.734 23.6126 15.734 23.6526 15.7274 23.6918L15.8589 23.9087V23.9941C15.8551 24.0224 15.8454 24.0496 15.8304 24.0739C15.8154 24.0981 15.7955 24.119 15.772 24.1351C15.7484 24.1513 15.7218 24.1622 15.6937 24.1674C15.6657 24.1725 15.6368 24.1717 15.6091 24.165H15.5631L15.4053 24.0007V23.9416C15.3993 23.8979 15.3993 23.8537 15.4053 23.8101V23.7707L15.2936 23.6786V23.5932C15.288 23.5628 15.288 23.5316 15.2936 23.5012C15.2805 23.4361 15.2805 23.3691 15.2936 23.304Z" fill="url(#paint79_linear_191_2664)"/>
<path d="M14.2419 39.9469C14.242 39.9459 14.2421 39.9448 14.2422 39.9438L14.209 39.9272L14.255 39.96V40.2295H14.1762H14.1104C14.0405 40.2646 13.9648 40.2868 13.887 40.2953H13.8212L13.7686 40.223C13.7082 40.1895 13.6565 40.1424 13.6177 40.0853C13.5789 40.0282 13.554 39.9628 13.5452 39.8943L13.4992 39.8023C13.496 39.7629 13.496 39.7234 13.4992 39.684C13.4807 39.5865 13.4922 39.4857 13.532 39.3948L13.4992 39.3356L13.5452 39.2502L13.6635 39.0595L13.7161 39.099C13.7788 39.0856 13.844 39.0889 13.9051 39.1085C13.9662 39.1281 14.0211 39.1633 14.0644 39.2107L14.1104 39.2699C14.155 39.339 14.1821 39.418 14.1893 39.4999C14.2351 39.5584 14.2686 39.6254 14.2879 39.6971C14.2888 39.7042 14.2895 39.7112 14.29 39.7183L14.3405 39.592C14.3669 39.5781 14.3962 39.5709 14.426 39.5709C14.4557 39.5709 14.485 39.5781 14.5114 39.592C14.5479 39.5916 14.5839 39.6004 14.6161 39.6177C14.6482 39.6349 14.6755 39.66 14.6954 39.6906L14.7677 39.8615V39.9338L14.8269 39.9929V40.0915C14.8335 40.269 14.7415 40.4136 14.5311 40.3281H14.4785L14.3339 40.1047C14.3059 40.058 14.2833 40.0084 14.2667 39.9568L14.2419 39.9469Z" fill="url(#paint80_linear_191_2664)"/>
<path style="mix-blend-mode:overlay" opacity="0.8" d="M156.83 148.389L21.5175 7.83123C19.8809 6.07683 17.7753 4.82896 15.4505 4.23579C11.2109 3.25641 7.5629 5.35977 8.10847 9.95433L22.3259 122.55C22.8518 126.757 26.9796 131.023 31.5282 132.075L152.623 160.03C159.959 161.719 162.608 154.384 156.83 148.389ZM154.674 159.82C154.021 159.815 153.37 159.736 152.735 159.583L31.6399 131.621C27.2623 130.616 23.2922 126.521 22.786 122.491L8.56858 9.89517C8.44385 9.21277 8.46734 8.51151 8.63745 7.83898C8.80757 7.16645 9.12034 6.53838 9.55454 5.99736C10.0627 5.47254 10.678 5.06347 11.3586 4.79804C12.0392 4.53261 12.7691 4.41706 13.4984 4.45927C14.1335 4.46449 14.7661 4.53943 15.3848 4.68275C17.6217 5.25913 19.647 6.46336 21.2217 8.15331L156.501 148.705C159.13 151.426 160.149 154.752 159.13 157.171C158.407 158.853 156.784 159.82 154.674 159.82Z" fill="url(#paint81_linear_191_2664)"/>
</g>
<defs>
<filter id="filter0_df_191_2664" x="0" y="0" width="163.973" height="173" filterUnits="userSpaceOnUse" color-interpolation-filters="sRGB">
<feFlood flood-opacity="0" result="BackgroundImageFix"/>
<feColorMatrix in="SourceAlpha" type="matrix" values="0 0 0 0 0 0 0 0 0 0 0 0 0 0 0 0 0 0 127 0" result="hardAlpha"/>
<feOffset dy="4"/>
<feGaussianBlur stdDeviation="2"/>
<feComposite in2="hardAlpha" operator="out"/>
<feColorMatrix type="matrix" values="0 0 0 0 0 0 0 0 0 0 0 0 0 0 0 0 0 0 0.25 0"/>
<feBlend mode="normal" in2="BackgroundImageFix" result="effect1_dropShadow_191_2664"/>
<feBlend mode="normal" in="SourceGraphic" in2="effect1_dropShadow_191_2664" result="shape"/>
<feGaussianBlur stdDeviation="2" result="effect2_foregroundBlur_191_2664"/>
</filter>
<linearGradient id="paint0_linear_191_2664" x1="155.22" y1="167.115" x2="-23.6654" y2="42.4906" gradientUnits="userSpaceOnUse">
<stop stop-color="#B9B4FE"/>
<stop offset="0.09" stop-color="#5147E3"/>
<stop offset="0.55" stop-color="#413CB0"/>
<stop offset="0.6" stop-color="#332F8C"/>
<stop offset="0.7" stop-color="#554FD8"/>
<stop offset="0.8" stop-color="#554FD8"/>
<stop offset="0.87" stop-color="#7770E0"/>
<stop offset="0.9" stop-color="#7770E0"/>
<stop offset="0.97" stop-color="#B9B4FE"/>
<stop offset="1" stop-color="#B9B4FE"/>
</linearGradient>
<linearGradient id="paint1_linear_191_2664" x1="41662.3" y1="38846.3" x2="26723.5" y2="61995.9" gradientUnits="userSpaceOnUse">
<stop offset="0.03" stop-color="#7770E0"/>
<stop offset="1" stop-color="#4742BA"/>
</linearGradient>
<linearGradient id="paint2_linear_191_2664" x1="30744.1" y1="35571.8" x2="21409.1" y2="65426.5" gradientUnits="userSpaceOnUse">
<stop stop-color="#7770E0"/>
<stop offset="0.42" stop-color="#736EE9"/>
<stop offset="0.49" stop-color="#7570EB"/>
<stop offset="0.78" stop-color="#554FD8"/>
<stop offset="0.99" stop-color="#524CCB"/>
</linearGradient>
<linearGradient id="paint3_linear_191_2664" x1="30744.1" y1="35571.8" x2="21409.1" y2="65426.5" gradientUnits="userSpaceOnUse">
<stop stop-color="#7770E0"/>
<stop offset="0.42" stop-color="#736EE9"/>
<stop offset="0.49" stop-color="#7570EB"/>
<stop offset="0.78" stop-color="#554FD8"/>
<stop offset="0.99" stop-color="#524CCB"/>
</linearGradient>
<linearGradient id="paint4_linear_191_2664" x1="30744.1" y1="35571.8" x2="21409.1" y2="65426.5" gradientUnits="userSpaceOnUse">
<stop stop-color="#7770E0"/>
<stop offset="0.42" stop-color="#736EE9"/>
<stop offset="0.49" stop-color="#7570EB"/>
<stop offset="0.78" stop-color="#554FD8"/>
<stop offset="0.99" stop-color="#524CCB"/>
</linearGradient>
<linearGradient id="paint5_linear_191_2664" x1="30744.1" y1="35571.8" x2="21409.1" y2="65426.5" gradientUnits="userSpaceOnUse">
<stop stop-color="#7770E0"/>
<stop offset="0.42" stop-color="#736EE9"/>
<stop offset="0.49" stop-color="#7570EB"/>
<stop offset="0.78" stop-color="#554FD8"/>
<stop offset="0.99" stop-color="#524CCB"/>
</linearGradient>
<linearGradient id="paint6_linear_191_2664" x1="30744.1" y1="35571.8" x2="21409.1" y2="65426.5" gradientUnits="userSpaceOnUse">
<stop stop-color="#7770E0"/>
<stop offset="0.42" stop-color="#736EE9"/>
<stop offset="0.49" stop-color="#7570EB"/>
<stop offset="0.78" stop-color="#554FD8"/>
<stop offset="0.99" stop-color="#524CCB"/>
</linearGradient>
<linearGradient id="paint7_linear_191_2664" x1="30744.1" y1="35571.8" x2="21409.1" y2="65426.5" gradientUnits="userSpaceOnUse">
<stop stop-color="#7770E0"/>
<stop offset="0.42" stop-color="#736EE9"/>
<stop offset="0.49" stop-color="#7570EB"/>
<stop offset="0.78" stop-color="#554FD8"/>
<stop offset="0.99" stop-color="#524CCB"/>
</linearGradient>
<linearGradient id="paint8_linear_191_2664" x1="30744.1" y1="35571.8" x2="21409.1" y2="65426.5" gradientUnits="userSpaceOnUse">
<stop stop-color="#7770E0"/>
<stop offset="0.42" stop-color="#736EE9"/>
<stop offset="0.49" stop-color="#7570EB"/>
<stop offset="0.78" stop-color="#554FD8"/>
<stop offset="0.99" stop-color="#524CCB"/>
</linearGradient>
<linearGradient id="paint9_linear_191_2664" x1="30744.1" y1="35571.8" x2="21409.1" y2="65426.5" gradientUnits="userSpaceOnUse">
<stop stop-color="#7770E0"/>
<stop offset="0.42" stop-color="#736EE9"/>
<stop offset="0.49" stop-color="#7570EB"/>
<stop offset="0.78" stop-color="#554FD8"/>
<stop offset="0.99" stop-color="#524CCB"/>
</linearGradient>
<linearGradient id="paint10_linear_191_2664" x1="30744.1" y1="35571.8" x2="21409.1" y2="65426.5" gradientUnits="userSpaceOnUse">
<stop stop-color="#7770E0"/>
<stop offset="0.42" stop-color="#736EE9"/>
<stop offset="0.49" stop-color="#7570EB"/>
<stop offset="0.78" stop-color="#554FD8"/>
<stop offset="0.99" stop-color="#524CCB"/>
</linearGradient>
<linearGradient id="paint11_linear_191_2664" x1="30744.1" y1="35571.8" x2="21409.1" y2="65426.5" gradientUnits="userSpaceOnUse">
<stop stop-color="#7770E0"/>
<stop offset="0.42" stop-color="#736EE9"/>
<stop offset="0.49" stop-color="#7570EB"/>
<stop offset="0.78" stop-color="#554FD8"/>
<stop offset="0.99" stop-color="#524CCB"/>
</linearGradient>
<linearGradient id="paint12_linear_191_2664" x1="30744.1" y1="35571.8" x2="21409.1" y2="65426.5" gradientUnits="userSpaceOnUse">
<stop stop-color="#7770E0"/>
<stop offset="0.42" stop-color="#736EE9"/>
<stop offset="0.49" stop-color="#7570EB"/>
<stop offset="0.78" stop-color="#554FD8"/>
<stop offset="0.99" stop-color="#524CCB"/>
</linearGradient>
<linearGradient id="paint13_linear_191_2664" x1="30744.1" y1="35571.8" x2="21409.1" y2="65426.5" gradientUnits="userSpaceOnUse">
<stop stop-color="#7770E0"/>
<stop offset="0.42" stop-color="#736EE9"/>
<stop offset="0.49" stop-color="#7570EB"/>
<stop offset="0.78" stop-color="#554FD8"/>
<stop offset="0.99" stop-color="#524CCB"/>
</linearGradient>
<linearGradient id="paint14_linear_191_2664" x1="30744.1" y1="35571.8" x2="21409.1" y2="65426.5" gradientUnits="userSpaceOnUse">
<stop stop-color="#7770E0"/>
<stop offset="0.42" stop-color="#736EE9"/>
<stop offset="0.49" stop-color="#7570EB"/>
<stop offset="0.78" stop-color="#554FD8"/>
<stop offset="0.99" stop-color="#524CCB"/>
</linearGradient>
<linearGradient id="paint15_linear_191_2664" x1="30744.1" y1="35571.8" x2="21409.1" y2="65426.5" gradientUnits="userSpaceOnUse">
<stop stop-color="#7770E0"/>
<stop offset="0.42" stop-color="#736EE9"/>
<stop offset="0.49" stop-color="#7570EB"/>
<stop offset="0.78" stop-color="#554FD8"/>
<stop offset="0.99" stop-color="#524CCB"/>
</linearGradient>
<linearGradient id="paint16_linear_191_2664" x1="30744.1" y1="35571.8" x2="21409.1" y2="65426.5" gradientUnits="userSpaceOnUse">
<stop stop-color="#7770E0"/>
<stop offset="0.42" stop-color="#736EE9"/>
<stop offset="0.49" stop-color="#7570EB"/>
<stop offset="0.78" stop-color="#554FD8"/>
<stop offset="0.99" stop-color="#524CCB"/>
</linearGradient>
<linearGradient id="paint17_linear_191_2664" x1="30744.1" y1="35571.8" x2="21409.1" y2="65426.5" gradientUnits="userSpaceOnUse">
<stop stop-color="#7770E0"/>
<stop offset="0.42" stop-color="#736EE9"/>
<stop offset="0.49" stop-color="#7570EB"/>
<stop offset="0.78" stop-color="#554FD8"/>
<stop offset="0.99" stop-color="#524CCB"/>
</linearGradient>
<linearGradient id="paint18_linear_191_2664" x1="30744.1" y1="35571.8" x2="21409.1" y2="65426.5" gradientUnits="userSpaceOnUse">
<stop stop-color="#7770E0"/>
<stop offset="0.42" stop-color="#736EE9"/>
<stop offset="0.49" stop-color="#7570EB"/>
<stop offset="0.78" stop-color="#554FD8"/>
<stop offset="0.99" stop-color="#524CCB"/>
</linearGradient>
<linearGradient id="paint19_linear_191_2664" x1="30744.1" y1="35571.8" x2="21409.1" y2="65426.5" gradientUnits="userSpaceOnUse">
<stop stop-color="#7770E0"/>
<stop offset="0.42" stop-color="#736EE9"/>
<stop offset="0.49" stop-color="#7570EB"/>
<stop offset="0.78" stop-color="#554FD8"/>
<stop offset="0.99" stop-color="#524CCB"/>
</linearGradient>
<linearGradient id="paint20_linear_191_2664" x1="30744.1" y1="35571.8" x2="21409.1" y2="65426.5" gradientUnits="userSpaceOnUse">
<stop stop-color="#7770E0"/>
<stop offset="0.42" stop-color="#736EE9"/>
<stop offset="0.49" stop-color="#7570EB"/>
<stop offset="0.78" stop-color="#554FD8"/>
<stop offset="0.99" stop-color="#524CCB"/>
</linearGradient>
<linearGradient id="paint21_linear_191_2664" x1="30744.1" y1="35571.8" x2="21409.1" y2="65426.5" gradientUnits="userSpaceOnUse">
<stop stop-color="#7770E0"/>
<stop offset="0.42" stop-color="#736EE9"/>
<stop offset="0.49" stop-color="#7570EB"/>
<stop offset="0.78" stop-color="#554FD8"/>
<stop offset="0.99" stop-color="#524CCB"/>
</linearGradient>
<linearGradient id="paint22_linear_191_2664" x1="30744.1" y1="35571.8" x2="21409.1" y2="65426.5" gradientUnits="userSpaceOnUse">
<stop stop-color="#7770E0"/>
<stop offset="0.42" stop-color="#736EE9"/>
<stop offset="0.49" stop-color="#7570EB"/>
<stop offset="0.78" stop-color="#554FD8"/>
<stop offset="0.99" stop-color="#524CCB"/>
</linearGradient>
<linearGradient id="paint23_linear_191_2664" x1="30744.1" y1="35571.8" x2="21409.1" y2="65426.5" gradientUnits="userSpaceOnUse">
<stop stop-color="#7770E0"/>
<stop offset="0.42" stop-color="#736EE9"/>
<stop offset="0.49" stop-color="#7570EB"/>
<stop offset="0.78" stop-color="#554FD8"/>
<stop offset="0.99" stop-color="#524CCB"/>
</linearGradient>
<linearGradient id="paint24_linear_191_2664" x1="30744.1" y1="35571.8" x2="21409.1" y2="65426.5" gradientUnits="userSpaceOnUse">
<stop stop-color="#7770E0"/>
<stop offset="0.42" stop-color="#736EE9"/>
<stop offset="0.49" stop-color="#7570EB"/>
<stop offset="0.78" stop-color="#554FD8"/>
<stop offset="0.99" stop-color="#524CCB"/>
</linearGradient>
<linearGradient id="paint25_linear_191_2664" x1="30744.1" y1="35571.8" x2="21409.1" y2="65426.5" gradientUnits="userSpaceOnUse">
<stop stop-color="#7770E0"/>
<stop offset="0.42" stop-color="#736EE9"/>
<stop offset="0.49" stop-color="#7570EB"/>
<stop offset="0.78" stop-color="#554FD8"/>
<stop offset="0.99" stop-color="#524CCB"/>
</linearGradient>
<linearGradient id="paint26_linear_191_2664" x1="30744.1" y1="35571.8" x2="21409.1" y2="65426.5" gradientUnits="userSpaceOnUse">
<stop stop-color="#7770E0"/>
<stop offset="0.42" stop-color="#736EE9"/>
<stop offset="0.49" stop-color="#7570EB"/>
<stop offset="0.78" stop-color="#554FD8"/>
<stop offset="0.99" stop-color="#524CCB"/>
</linearGradient>
<linearGradient id="paint27_linear_191_2664" x1="30744.1" y1="35571.8" x2="21409.1" y2="65426.5" gradientUnits="userSpaceOnUse">
<stop stop-color="#7770E0"/>
<stop offset="0.42" stop-color="#736EE9"/>
<stop offset="0.49" stop-color="#7570EB"/>
<stop offset="0.78" stop-color="#554FD8"/>
<stop offset="0.99" stop-color="#524CCB"/>
</linearGradient>
<linearGradient id="paint28_linear_191_2664" x1="30744.1" y1="35571.8" x2="21409.1" y2="65426.5" gradientUnits="userSpaceOnUse">
<stop stop-color="#7770E0"/>
<stop offset="0.42" stop-color="#736EE9"/>
<stop offset="0.49" stop-color="#7570EB"/>
<stop offset="0.78" stop-color="#554FD8"/>
<stop offset="0.99" stop-color="#524CCB"/>
</linearGradient>
<linearGradient id="paint29_linear_191_2664" x1="30744.1" y1="35571.8" x2="21409.1" y2="65426.5" gradientUnits="userSpaceOnUse">
<stop stop-color="#7770E0"/>
<stop offset="0.42" stop-color="#736EE9"/>
<stop offset="0.49" stop-color="#7570EB"/>
<stop offset="0.78" stop-color="#554FD8"/>
<stop offset="0.99" stop-color="#524CCB"/>
</linearGradient>
<linearGradient id="paint30_linear_191_2664" x1="30744.1" y1="35571.8" x2="21409.1" y2="65426.5" gradientUnits="userSpaceOnUse">
<stop stop-color="#7770E0"/>
<stop offset="0.42" stop-color="#736EE9"/>
<stop offset="0.49" stop-color="#7570EB"/>
<stop offset="0.78" stop-color="#554FD8"/>
<stop offset="0.99" stop-color="#524CCB"/>
</linearGradient>
<linearGradient id="paint31_linear_191_2664" x1="30744.1" y1="35571.8" x2="21409.1" y2="65426.5" gradientUnits="userSpaceOnUse">
<stop stop-color="#7770E0"/>
<stop offset="0.42" stop-color="#736EE9"/>
<stop offset="0.49" stop-color="#7570EB"/>
<stop offset="0.78" stop-color="#554FD8"/>
<stop offset="0.99" stop-color="#524CCB"/>
</linearGradient>
<linearGradient id="paint32_linear_191_2664" x1="30744.1" y1="35571.8" x2="21409.1" y2="65426.5" gradientUnits="userSpaceOnUse">
<stop stop-color="#7770E0"/>
<stop offset="0.42" stop-color="#736EE9"/>
<stop offset="0.49" stop-color="#7570EB"/>
<stop offset="0.78" stop-color="#554FD8"/>
<stop offset="0.99" stop-color="#524CCB"/>
</linearGradient>
<linearGradient id="paint33_linear_191_2664" x1="30744.1" y1="35571.8" x2="21409.1" y2="65426.5" gradientUnits="userSpaceOnUse">
<stop stop-color="#7770E0"/>
<stop offset="0.42" stop-color="#736EE9"/>
<stop offset="0.49" stop-color="#7570EB"/>
<stop offset="0.78" stop-color="#554FD8"/>
<stop offset="0.99" stop-color="#524CCB"/>
</linearGradient>
<linearGradient id="paint34_linear_191_2664" x1="30744.1" y1="35571.8" x2="21409.1" y2="65426.5" gradientUnits="userSpaceOnUse">
<stop stop-color="#7770E0"/>
<stop offset="0.42" stop-color="#736EE9"/>
<stop offset="0.49" stop-color="#7570EB"/>
<stop offset="0.78" stop-color="#554FD8"/>
<stop offset="0.99" stop-color="#524CCB"/>
</linearGradient>
<linearGradient id="paint35_linear_191_2664" x1="30744.1" y1="35571.8" x2="21409.1" y2="65426.5" gradientUnits="userSpaceOnUse">
<stop stop-color="#7770E0"/>
<stop offset="0.42" stop-color="#736EE9"/>
<stop offset="0.49" stop-color="#7570EB"/>
<stop offset="0.78" stop-color="#554FD8"/>
<stop offset="0.99" stop-color="#524CCB"/>
</linearGradient>
<linearGradient id="paint36_linear_191_2664" x1="30744.1" y1="35571.8" x2="21409.1" y2="65426.5" gradientUnits="userSpaceOnUse">
<stop stop-color="#7770E0"/>
<stop offset="0.42" stop-color="#736EE9"/>
<stop offset="0.49" stop-color="#7570EB"/>
<stop offset="0.78" stop-color="#554FD8"/>
<stop offset="0.99" stop-color="#524CCB"/>
</linearGradient>
<linearGradient id="paint37_linear_191_2664" x1="30744.1" y1="35571.8" x2="21409.1" y2="65426.5" gradientUnits="userSpaceOnUse">
<stop stop-color="#7770E0"/>
<stop offset="0.42" stop-color="#736EE9"/>
<stop offset="0.49" stop-color="#7570EB"/>
<stop offset="0.78" stop-color="#554FD8"/>
<stop offset="0.99" stop-color="#524CCB"/>
</linearGradient>
<linearGradient id="paint38_linear_191_2664" x1="30744.1" y1="35571.8" x2="21409.1" y2="65426.5" gradientUnits="userSpaceOnUse">
<stop stop-color="#7770E0"/>
<stop offset="0.42" stop-color="#736EE9"/>
<stop offset="0.49" stop-color="#7570EB"/>
<stop offset="0.78" stop-color="#554FD8"/>
<stop offset="0.99" stop-color="#524CCB"/>
</linearGradient>
<linearGradient id="paint39_linear_191_2664" x1="30744.1" y1="35571.8" x2="21409.1" y2="65426.5" gradientUnits="userSpaceOnUse">
<stop stop-color="#7770E0"/>
<stop offset="0.42" stop-color="#736EE9"/>
<stop offset="0.49" stop-color="#7570EB"/>
<stop offset="0.78" stop-color="#554FD8"/>
<stop offset="0.99" stop-color="#524CCB"/>
</linearGradient>
<linearGradient id="paint40_linear_191_2664" x1="30744.1" y1="35571.8" x2="21409.1" y2="65426.5" gradientUnits="userSpaceOnUse">
<stop stop-color="#7770E0"/>
<stop offset="0.42" stop-color="#736EE9"/>
<stop offset="0.49" stop-color="#7570EB"/>
<stop offset="0.78" stop-color="#554FD8"/>
<stop offset="0.99" stop-color="#524CCB"/>
</linearGradient>
<linearGradient id="paint41_linear_191_2664" x1="30744.1" y1="35571.8" x2="21409.1" y2="65426.5" gradientUnits="userSpaceOnUse">
<stop stop-color="#7770E0"/>
<stop offset="0.42" stop-color="#736EE9"/>
<stop offset="0.49" stop-color="#7570EB"/>
<stop offset="0.78" stop-color="#554FD8"/>
<stop offset="0.99" stop-color="#524CCB"/>
</linearGradient>
<linearGradient id="paint42_linear_191_2664" x1="30744.1" y1="35571.8" x2="21409.1" y2="65426.5" gradientUnits="userSpaceOnUse">
<stop stop-color="#7770E0"/>
<stop offset="0.42" stop-color="#736EE9"/>
<stop offset="0.49" stop-color="#7570EB"/>
<stop offset="0.78" stop-color="#554FD8"/>
<stop offset="0.99" stop-color="#524CCB"/>
</linearGradient>
<linearGradient id="paint43_linear_191_2664" x1="30744.1" y1="35571.8" x2="21409.1" y2="65426.5" gradientUnits="userSpaceOnUse">
<stop stop-color="#7770E0"/>
<stop offset="0.42" stop-color="#736EE9"/>
<stop offset="0.49" stop-color="#7570EB"/>
<stop offset="0.78" stop-color="#554FD8"/>
<stop offset="0.99" stop-color="#524CCB"/>
</linearGradient>
<linearGradient id="paint44_linear_191_2664" x1="30744.1" y1="35571.8" x2="21409.1" y2="65426.5" gradientUnits="userSpaceOnUse">
<stop stop-color="#7770E0"/>
<stop offset="0.42" stop-color="#736EE9"/>
<stop offset="0.49" stop-color="#7570EB"/>
<stop offset="0.78" stop-color="#554FD8"/>
<stop offset="0.99" stop-color="#524CCB"/>
</linearGradient>
<linearGradient id="paint45_linear_191_2664" x1="30744.1" y1="35571.8" x2="21409.1" y2="65426.5" gradientUnits="userSpaceOnUse">
<stop stop-color="#7770E0"/>
<stop offset="0.42" stop-color="#736EE9"/>
<stop offset="0.49" stop-color="#7570EB"/>
<stop offset="0.78" stop-color="#554FD8"/>
<stop offset="0.99" stop-color="#524CCB"/>
</linearGradient>
<linearGradient id="paint46_linear_191_2664" x1="30744.1" y1="35571.8" x2="21409.1" y2="65426.5" gradientUnits="userSpaceOnUse">
<stop stop-color="#7770E0"/>
<stop offset="0.42" stop-color="#736EE9"/>
<stop offset="0.49" stop-color="#7570EB"/>
<stop offset="0.78" stop-color="#554FD8"/>
<stop offset="0.99" stop-color="#524CCB"/>
</linearGradient>
<linearGradient id="paint47_linear_191_2664" x1="30744.1" y1="35571.8" x2="21409.1" y2="65426.5" gradientUnits="userSpaceOnUse">
<stop stop-color="#7770E0"/>
<stop offset="0.42" stop-color="#736EE9"/>
<stop offset="0.49" stop-color="#7570EB"/>
<stop offset="0.78" stop-color="#554FD8"/>
<stop offset="0.99" stop-color="#524CCB"/>
</linearGradient>
<linearGradient id="paint48_linear_191_2664" x1="30744.1" y1="35571.8" x2="21409.1" y2="65426.5" gradientUnits="userSpaceOnUse">
<stop stop-color="#7770E0"/>
<stop offset="0.42" stop-color="#736EE9"/>
<stop offset="0.49" stop-color="#7570EB"/>
<stop offset="0.78" stop-color="#554FD8"/>
<stop offset="0.99" stop-color="#524CCB"/>
</linearGradient>
<linearGradient id="paint49_linear_191_2664" x1="30744.1" y1="35571.8" x2="21409.1" y2="65426.5" gradientUnits="userSpaceOnUse">
<stop stop-color="#7770E0"/>
<stop offset="0.42" stop-color="#736EE9"/>
<stop offset="0.49" stop-color="#7570EB"/>
<stop offset="0.78" stop-color="#554FD8"/>
<stop offset="0.99" stop-color="#524CCB"/>
</linearGradient>
<linearGradient id="paint50_linear_191_2664" x1="30744.1" y1="35571.8" x2="21409.1" y2="65426.5" gradientUnits="userSpaceOnUse">
<stop stop-color="#7770E0"/>
<stop offset="0.42" stop-color="#736EE9"/>
<stop offset="0.49" stop-color="#7570EB"/>
<stop offset="0.78" stop-color="#554FD8"/>
<stop offset="0.99" stop-color="#524CCB"/>
</linearGradient>
<linearGradient id="paint51_linear_191_2664" x1="30744.1" y1="35571.8" x2="21409.1" y2="65426.5" gradientUnits="userSpaceOnUse">
<stop stop-color="#7770E0"/>
<stop offset="0.42" stop-color="#736EE9"/>
<stop offset="0.49" stop-color="#7570EB"/>
<stop offset="0.78" stop-color="#554FD8"/>
<stop offset="0.99" stop-color="#524CCB"/>
</linearGradient>
<linearGradient id="paint52_linear_191_2664" x1="30744.1" y1="35571.8" x2="21409.1" y2="65426.5" gradientUnits="userSpaceOnUse">
<stop stop-color="#7770E0"/>
<stop offset="0.42" stop-color="#736EE9"/>
<stop offset="0.49" stop-color="#7570EB"/>
<stop offset="0.78" stop-color="#554FD8"/>
<stop offset="0.99" stop-color="#524CCB"/>
</linearGradient>
<linearGradient id="paint53_linear_191_2664" x1="30744.1" y1="35571.8" x2="21409.1" y2="65426.5" gradientUnits="userSpaceOnUse">
<stop stop-color="#7770E0"/>
<stop offset="0.42" stop-color="#736EE9"/>
<stop offset="0.49" stop-color="#7570EB"/>
<stop offset="0.78" stop-color="#554FD8"/>
<stop offset="0.99" stop-color="#524CCB"/>
</linearGradient>
<linearGradient id="paint54_linear_191_2664" x1="30744.1" y1="35571.8" x2="21409.1" y2="65426.5" gradientUnits="userSpaceOnUse">
<stop stop-color="#7770E0"/>
<stop offset="0.42" stop-color="#736EE9"/>
<stop offset="0.49" stop-color="#7570EB"/>
<stop offset="0.78" stop-color="#554FD8"/>
<stop offset="0.99" stop-color="#524CCB"/>
</linearGradient>
<linearGradient id="paint55_linear_191_2664" x1="30744.1" y1="35571.8" x2="21409.1" y2="65426.5" gradientUnits="userSpaceOnUse">
<stop stop-color="#7770E0"/>
<stop offset="0.42" stop-color="#736EE9"/>
<stop offset="0.49" stop-color="#7570EB"/>
<stop offset="0.78" stop-color="#554FD8"/>
<stop offset="0.99" stop-color="#524CCB"/>
</linearGradient>
<linearGradient id="paint56_linear_191_2664" x1="30744.1" y1="35571.8" x2="21409.1" y2="65426.5" gradientUnits="userSpaceOnUse">
<stop stop-color="#7770E0"/>
<stop offset="0.42" stop-color="#736EE9"/>
<stop offset="0.49" stop-color="#7570EB"/>
<stop offset="0.78" stop-color="#554FD8"/>
<stop offset="0.99" stop-color="#524CCB"/>
</linearGradient>
<linearGradient id="paint57_linear_191_2664" x1="30744.1" y1="35571.8" x2="21409.1" y2="65426.5" gradientUnits="userSpaceOnUse">
<stop stop-color="#7770E0"/>
<stop offset="0.42" stop-color="#736EE9"/>
<stop offset="0.49" stop-color="#7570EB"/>
<stop offset="0.78" stop-color="#554FD8"/>
<stop offset="0.99" stop-color="#524CCB"/>
</linearGradient>
<linearGradient id="paint58_linear_191_2664" x1="30744.1" y1="35571.8" x2="21409.1" y2="65426.5" gradientUnits="userSpaceOnUse">
<stop stop-color="#7770E0"/>
<stop offset="0.42" stop-color="#736EE9"/>
<stop offset="0.49" stop-color="#7570EB"/>
<stop offset="0.78" stop-color="#554FD8"/>
<stop offset="0.99" stop-color="#524CCB"/>
</linearGradient>
<linearGradient id="paint59_linear_191_2664" x1="30744.1" y1="35571.8" x2="21409.1" y2="65426.5" gradientUnits="userSpaceOnUse">
<stop stop-color="#7770E0"/>
<stop offset="0.42" stop-color="#736EE9"/>
<stop offset="0.49" stop-color="#7570EB"/>
<stop offset="0.78" stop-color="#554FD8"/>
<stop offset="0.99" stop-color="#524CCB"/>
</linearGradient>
<linearGradient id="paint60_linear_191_2664" x1="30744.1" y1="35571.8" x2="21409.1" y2="65426.5" gradientUnits="userSpaceOnUse">
<stop stop-color="#7770E0"/>
<stop offset="0.42" stop-color="#736EE9"/>
<stop offset="0.49" stop-color="#7570EB"/>
<stop offset="0.78" stop-color="#554FD8"/>
<stop offset="0.99" stop-color="#524CCB"/>
</linearGradient>
<linearGradient id="paint61_linear_191_2664" x1="30744.1" y1="35571.8" x2="21409.1" y2="65426.5" gradientUnits="userSpaceOnUse">
<stop stop-color="#7770E0"/>
<stop offset="0.42" stop-color="#736EE9"/>
<stop offset="0.49" stop-color="#7570EB"/>
<stop offset="0.78" stop-color="#554FD8"/>
<stop offset="0.99" stop-color="#524CCB"/>
</linearGradient>
<linearGradient id="paint62_linear_191_2664" x1="30744.1" y1="35571.8" x2="21409.1" y2="65426.5" gradientUnits="userSpaceOnUse">
<stop stop-color="#7770E0"/>
<stop offset="0.42" stop-color="#736EE9"/>
<stop offset="0.49" stop-color="#7570EB"/>
<stop offset="0.78" stop-color="#554FD8"/>
<stop offset="0.99" stop-color="#524CCB"/>
</linearGradient>
<linearGradient id="paint63_linear_191_2664" x1="30744.1" y1="35571.8" x2="21409.1" y2="65426.5" gradientUnits="userSpaceOnUse">
<stop stop-color="#7770E0"/>
<stop offset="0.42" stop-color="#736EE9"/>
<stop offset="0.49" stop-color="#7570EB"/>
<stop offset="0.78" stop-color="#554FD8"/>
<stop offset="0.99" stop-color="#524CCB"/>
</linearGradient>
<linearGradient id="paint64_linear_191_2664" x1="30744.1" y1="35571.8" x2="21409.1" y2="65426.5" gradientUnits="userSpaceOnUse">
<stop stop-color="#7770E0"/>
<stop offset="0.42" stop-color="#736EE9"/>
<stop offset="0.49" stop-color="#7570EB"/>
<stop offset="0.78" stop-color="#554FD8"/>
<stop offset="0.99" stop-color="#524CCB"/>
</linearGradient>
<linearGradient id="paint65_linear_191_2664" x1="30744.1" y1="35571.8" x2="21409.1" y2="65426.5" gradientUnits="userSpaceOnUse">
<stop stop-color="#7770E0"/>
<stop offset="0.42" stop-color="#736EE9"/>
<stop offset="0.49" stop-color="#7570EB"/>
<stop offset="0.78" stop-color="#554FD8"/>
<stop offset="0.99" stop-color="#524CCB"/>
</linearGradient>
<linearGradient id="paint66_linear_191_2664" x1="30744.1" y1="35571.8" x2="21409.1" y2="65426.5" gradientUnits="userSpaceOnUse">
<stop stop-color="#7770E0"/>
<stop offset="0.42" stop-color="#736EE9"/>
<stop offset="0.49" stop-color="#7570EB"/>
<stop offset="0.78" stop-color="#554FD8"/>
<stop offset="0.99" stop-color="#524CCB"/>
</linearGradient>
<linearGradient id="paint67_linear_191_2664" x1="30744.1" y1="35571.8" x2="21409.1" y2="65426.5" gradientUnits="userSpaceOnUse">
<stop stop-color="#7770E0"/>
<stop offset="0.42" stop-color="#736EE9"/>
<stop offset="0.49" stop-color="#7570EB"/>
<stop offset="0.78" stop-color="#554FD8"/>
<stop offset="0.99" stop-color="#524CCB"/>
</linearGradient>
<linearGradient id="paint68_linear_191_2664" x1="30744.1" y1="35571.8" x2="21409.1" y2="65426.5" gradientUnits="userSpaceOnUse">
<stop stop-color="#7770E0"/>
<stop offset="0.42" stop-color="#736EE9"/>
<stop offset="0.49" stop-color="#7570EB"/>
<stop offset="0.78" stop-color="#554FD8"/>
<stop offset="0.99" stop-color="#524CCB"/>
</linearGradient>
<linearGradient id="paint69_linear_191_2664" x1="30744.1" y1="35571.8" x2="21409.1" y2="65426.5" gradientUnits="userSpaceOnUse">
<stop stop-color="#7770E0"/>
<stop offset="0.42" stop-color="#736EE9"/>
<stop offset="0.49" stop-color="#7570EB"/>
<stop offset="0.78" stop-color="#554FD8"/>
<stop offset="0.99" stop-color="#524CCB"/>
</linearGradient>
<linearGradient id="paint70_linear_191_2664" x1="30744.1" y1="35571.8" x2="21409.1" y2="65426.5" gradientUnits="userSpaceOnUse">
<stop stop-color="#7770E0"/>
<stop offset="0.42" stop-color="#736EE9"/>
<stop offset="0.49" stop-color="#7570EB"/>
<stop offset="0.78" stop-color="#554FD8"/>
<stop offset="0.99" stop-color="#524CCB"/>
</linearGradient>
<linearGradient id="paint71_linear_191_2664" x1="30744.1" y1="35571.8" x2="21409.1" y2="65426.5" gradientUnits="userSpaceOnUse">
<stop stop-color="#7770E0"/>
<stop offset="0.42" stop-color="#736EE9"/>
<stop offset="0.49" stop-color="#7570EB"/>
<stop offset="0.78" stop-color="#554FD8"/>
<stop offset="0.99" stop-color="#524CCB"/>
</linearGradient>
<linearGradient id="paint72_linear_191_2664" x1="30744.1" y1="35571.8" x2="21409.1" y2="65426.5" gradientUnits="userSpaceOnUse">
<stop stop-color="#7770E0"/>
<stop offset="0.42" stop-color="#736EE9"/>
<stop offset="0.49" stop-color="#7570EB"/>
<stop offset="0.78" stop-color="#554FD8"/>
<stop offset="0.99" stop-color="#524CCB"/>
</linearGradient>
<linearGradient id="paint73_linear_191_2664" x1="30744.1" y1="35571.8" x2="21409.1" y2="65426.5" gradientUnits="userSpaceOnUse">
<stop stop-color="#7770E0"/>
<stop offset="0.42" stop-color="#736EE9"/>
<stop offset="0.49" stop-color="#7570EB"/>
<stop offset="0.78" stop-color="#554FD8"/>
<stop offset="0.99" stop-color="#524CCB"/>
</linearGradient>
<linearGradient id="paint74_linear_191_2664" x1="30744.1" y1="35571.8" x2="21409.1" y2="65426.5" gradientUnits="userSpaceOnUse">
<stop stop-color="#7770E0"/>
<stop offset="0.42" stop-color="#736EE9"/>
<stop offset="0.49" stop-color="#7570EB"/>
<stop offset="0.78" stop-color="#554FD8"/>
<stop offset="0.99" stop-color="#524CCB"/>
</linearGradient>
<linearGradient id="paint75_linear_191_2664" x1="30744.1" y1="35571.8" x2="21409.1" y2="65426.5" gradientUnits="userSpaceOnUse">
<stop stop-color="#7770E0"/>
<stop offset="0.42" stop-color="#736EE9"/>
<stop offset="0.49" stop-color="#7570EB"/>
<stop offset="0.78" stop-color="#554FD8"/>
<stop offset="0.99" stop-color="#524CCB"/>
</linearGradient>
<linearGradient id="paint76_linear_191_2664" x1="30744.1" y1="35571.8" x2="21409.1" y2="65426.5" gradientUnits="userSpaceOnUse">
<stop stop-color="#7770E0"/>
<stop offset="0.42" stop-color="#736EE9"/>
<stop offset="0.49" stop-color="#7570EB"/>
<stop offset="0.78" stop-color="#554FD8"/>
<stop offset="0.99" stop-color="#524CCB"/>
</linearGradient>
<linearGradient id="paint77_linear_191_2664" x1="30744.1" y1="35571.8" x2="21409.1" y2="65426.5" gradientUnits="userSpaceOnUse">
<stop stop-color="#7770E0"/>
<stop offset="0.42" stop-color="#736EE9"/>
<stop offset="0.49" stop-color="#7570EB"/>
<stop offset="0.78" stop-color="#554FD8"/>
<stop offset="0.99" stop-color="#524CCB"/>
</linearGradient>
<linearGradient id="paint78_linear_191_2664" x1="30744.1" y1="35571.8" x2="21409.1" y2="65426.5" gradientUnits="userSpaceOnUse">
<stop stop-color="#7770E0"/>
<stop offset="0.42" stop-color="#736EE9"/>
<stop offset="0.49" stop-color="#7570EB"/>
<stop offset="0.78" stop-color="#554FD8"/>
<stop offset="0.99" stop-color="#524CCB"/>
</linearGradient>
<linearGradient id="paint79_linear_191_2664" x1="30744.1" y1="35571.8" x2="21409.1" y2="65426.5" gradientUnits="userSpaceOnUse">
<stop stop-color="#7770E0"/>
<stop offset="0.42" stop-color="#736EE9"/>
<stop offset="0.49" stop-color="#7570EB"/>
<stop offset="0.78" stop-color="#554FD8"/>
<stop offset="0.99" stop-color="#524CCB"/>
</linearGradient>
<linearGradient id="paint80_linear_191_2664" x1="30744.1" y1="35571.8" x2="21409.1" y2="65426.5" gradientUnits="userSpaceOnUse">
<stop stop-color="#7770E0"/>
<stop offset="0.42" stop-color="#736EE9"/>
<stop offset="0.49" stop-color="#7570EB"/>
<stop offset="0.78" stop-color="#554FD8"/>
<stop offset="0.99" stop-color="#524CCB"/>
</linearGradient>
<linearGradient id="paint81_linear_191_2664" x1="37711" y1="31303" x2="35625.1" y2="56990.3" gradientUnits="userSpaceOnUse">
<stop stop-color="#FEEAEA"/>
<stop offset="0.09" stop-color="#FEE9E9" stop-opacity="0.97"/>
<stop offset="0.22" stop-color="#FEE6E6" stop-opacity="0.89"/>
<stop offset="0.38" stop-color="#FEE0E0" stop-opacity="0.75"/>
<stop offset="0.57" stop-color="#FED9D9" stop-opacity="0.56"/>
<stop offset="0.77" stop-color="#FDCFD0" stop-opacity="0.31"/>
<stop offset="0.99" stop-color="#FDC4C5" stop-opacity="0.02"/>
<stop offset="1" stop-color="#FDC3C4" stop-opacity="0"/>
</linearGradient>
</defs>
</svg>
