<svg width="310" height="40" viewBox="0 0 310 40" fill="none" xmlns="http://www.w3.org/2000/svg">
<path d="M3.81757 14.0031H7.89397L1.09998 1.50706H7.89397L22.3231 28.0691L36.6875 1.50706H38.8875L44.5815 38.4301H38.1757L34.8111 17.3312L23.3584 38.4301H21.1584L9.7704 17.5196L6.40576 38.4301H0L3.81757 14.0031ZM52.2814 1.50706H76.9338V7.40973H58.8165V17.0173H72.9868V22.9199H58.8165V32.5275H76.9338V38.4301H52.2814V12.5589L58.8165 7.47253H52.2814V1.50706ZM81.9161 7.40973V1.50706H113.233V7.40973H81.9161ZM100.81 38.4301H94.2747V12.5589L100.81 7.47253V38.4301ZM123.715 12.5589H128.956L123.715 1.50706H130.574L147.98 38.4301H141.25L138.791 33.281H120.739L118.28 38.4301H111.486L123.715 12.5589ZM135.944 27.3783L129.733 14.3171L123.586 27.3783H135.944ZM143.127 1.50706H149.921L161.309 25.5573L172.826 1.50706H179.555L161.891 38.9953H160.597L157.879 32.7787L160.532 27.2528H155.291L143.127 1.50706ZM185.702 1.50706H210.29V7.40973H192.173V17.0173H206.408V22.9199H192.238V32.5275H210.355V38.4301H185.702V12.5589L192.238 7.47253H185.702V1.50706ZM229.507 1.50706C244.519 1.50706 246.395 18.5243 235.137 22.7943L246.201 38.4929H238.437L228.149 23.7991H224.008V38.4929H217.472V12.5589L223.878 7.47253H217.472V1.50706H229.507ZM224.008 7.47253V17.7708H229.507C237.79 17.7708 237.725 7.47253 229.507 7.47253H224.008ZM278.165 29.4506C278.165 36.6091 270.854 40 264.383 40C258.754 40 252.995 38.0534 249.566 33.595L254.613 29.7645C257.007 32.9042 260.889 33.8462 264.642 33.8462C267.554 33.8462 271.824 32.7787 271.824 29.325C271.824 22.5432 252.736 22.9199 250.86 12.6845H257.525C260.566 17.3312 278.165 17.6452 278.165 29.4506ZM251.119 7.34694C252.801 2.44898 258.042 0 263.671 0C268.589 0 273.571 2.07221 277.065 5.46311L272.795 10.1099C270.271 7.66091 267.036 6.27944 263.477 6.27944C260.242 6.27944 257.072 7.40973 257.072 11.0518C257.072 11.4286 257.136 11.7425 257.266 12.0565L251.119 7.34694ZM285.348 1.50706H309.935V7.40973H291.818V17.0173H306.053V22.9199H291.883V32.5275H310V38.4301H285.348V12.5589L291.883 7.47253H285.348V1.50706Z" fill="url(#paint0_linear_1242_1292)"/>
<defs>
<linearGradient id="paint0_linear_1242_1292" x1="155" y1="0" x2="155" y2="40" gradientUnits="userSpaceOnUse">
<stop stop-color="#D54EC7"/>
<stop offset="1" stop-color="#714ED5"/>
</linearGradient>
</defs>
</svg>
