<svg width="180" height="46" viewBox="0 0 180 46" fill="none" xmlns="http://www.w3.org/2000/svg">
<path d="M0 12C0 5.37258 5.37258 0 12 0H180V34C180 40.6274 174.627 46 168 46H0V12Z" fill="url(#paint0_linear_1297_2664)"/>
<path d="M21.938 10.8203C23.9357 10.8557 25.3403 11.5702 26.4395 12.7447C27.434 13.8201 28.0272 15.0511 28.4896 16.3246C29.1177 18.0438 29.4492 19.8125 29.8069 21.5812C30.4001 24.4748 31.1678 27.3331 32.6159 30.0428C33.1045 30.9625 33.6977 31.8327 34.5614 32.5685C34.9016 32.8586 35.2854 33.1062 35.7391 33.2689C36.5591 33.559 37.2919 33.4528 37.9288 32.9435C38.7139 32.3209 39.2024 31.5355 39.6125 30.729C40.5285 28.9461 41.0432 27.0642 41.4532 25.1682C41.6102 24.4182 41.7411 23.6683 41.8545 22.9184C41.933 22.4019 42.4739 22.0764 43.1107 22.1472C43.6778 22.2109 44.0616 22.6637 43.9918 23.1589C43.6603 25.4582 43.1456 27.7293 42.2732 29.9366C41.7498 31.2596 41.113 32.5473 40.0399 33.6509C39.3769 34.3301 38.5918 34.889 37.5275 35.0871C35.9746 35.3772 34.6573 34.9598 33.4883 34.1533C32.3542 33.375 31.5865 32.3633 30.9497 31.295C29.5975 29.0381 28.8473 26.6327 28.193 24.1989C27.7393 22.508 27.5038 20.7888 27.085 19.0979C26.7448 17.7042 26.3261 16.3246 25.5845 15.0299C25.1571 14.287 24.6511 13.5937 23.8223 13.0843C22.6533 12.3626 21.2924 12.4263 20.2368 13.2541C19.3383 13.9616 18.78 14.853 18.3001 15.7727C17.4016 17.5131 16.8869 19.3385 16.4856 21.1921C16.3547 21.8076 16.2588 22.4302 16.1541 23.0528C16.0668 23.5905 15.5521 23.9301 14.9066 23.8664C14.3308 23.8098 13.9382 23.357 14.008 22.8405C14.3134 20.7393 14.8106 18.6734 15.6045 16.6642C16.1803 15.1926 16.8956 13.7705 18.0995 12.5537C18.9283 11.7259 19.9228 11.0821 21.2575 10.8911C21.528 10.8486 21.7984 10.8345 21.938 10.8203Z" fill="url(#paint1_linear_1297_2664)"/>
<path d="M21.938 8C23.9357 8.04357 25.3403 8.92361 26.4395 10.37C27.434 11.6944 28.0272 13.2105 28.4896 14.7789C29.1177 16.8962 29.4492 19.0746 29.8069 21.2529C30.4001 24.8166 31.1678 28.3368 32.6159 31.674C33.1045 32.8067 33.6977 33.8784 34.5614 34.7846C34.9016 35.1418 35.2854 35.4468 35.7391 35.6472C36.5591 36.0044 37.2919 35.8737 37.9288 35.2464C38.7139 34.4796 39.2024 33.5124 39.6125 32.5191C40.5285 30.3234 41.0432 28.0057 41.4532 25.6705C41.6102 24.7469 41.7411 23.8233 41.8545 22.8997C41.933 22.2636 42.4739 21.8628 43.1107 21.9499C43.6778 22.0284 44.0616 22.586 43.9918 23.1959C43.6603 26.0278 43.1456 28.8247 42.2732 31.5433C41.7498 33.1726 41.113 34.7584 40.0399 36.1177C39.3769 36.9542 38.5918 37.6425 37.5275 37.8865C35.9746 38.2438 34.6573 37.7297 33.4883 36.7364C32.3542 35.7779 31.5865 34.5319 30.9497 33.2162C29.5975 30.4367 28.8473 27.4742 28.193 24.4768C27.7393 22.3943 27.5038 20.277 27.085 18.1945C26.7448 16.478 26.3261 14.7789 25.5845 13.1844C25.1571 12.2695 24.6511 11.4156 23.8223 10.7882C22.6533 9.89949 21.2924 9.97791 20.2368 10.9974C19.3383 11.8687 18.78 12.9666 18.3001 14.0993C17.4016 16.2428 16.8869 18.4908 16.4856 20.7737C16.3547 21.5317 16.2588 22.2985 16.1541 23.0652C16.0668 23.7274 15.5521 24.1457 14.9066 24.0673C14.3308 23.9976 13.9382 23.4399 14.008 22.8038C14.3134 20.216 14.8106 17.6717 15.6045 15.1972C16.1803 13.3848 16.8956 11.6334 18.0995 10.1348C18.9283 9.1153 19.9228 8.32239 21.2575 8.08713C21.528 8.03485 21.7984 8.01743 21.938 8Z" fill="url(#paint2_linear_1297_2664)"/>
<path d="M21.938 13.5127C23.9357 13.5403 25.3403 14.0969 26.4395 15.0117C27.434 15.8493 28.0272 16.8082 28.4896 17.8002C29.1177 19.1394 29.4492 20.5171 29.8069 21.8949C30.4001 24.1488 31.1678 26.3753 32.6159 28.486C33.1045 29.2024 33.6977 29.8802 34.5614 30.4534C34.9016 30.6793 35.2854 30.8722 35.7391 30.999C36.5591 31.2249 37.2919 31.1422 37.9288 30.7455C38.7139 30.2605 39.2024 29.6488 39.6125 29.0205C40.5285 27.6318 41.0432 26.1659 41.4532 24.6889C41.6102 24.1048 41.7411 23.5206 41.8545 22.9364C41.933 22.5341 42.4739 22.2806 43.1107 22.3357C43.6778 22.3853 44.0616 22.738 43.9918 23.1238C43.6603 24.9149 43.1456 26.6839 42.2732 28.4033C41.7498 29.4338 41.113 30.4368 40.0399 31.2966C39.3769 31.8256 38.5918 32.261 37.5275 32.4153C35.9746 32.6412 34.6573 32.3161 33.4883 31.6878C32.3542 31.0816 31.5865 30.2936 30.9497 29.4614C29.5975 27.7034 28.8473 25.8297 28.193 23.9339C27.7393 22.6168 27.5038 21.2776 27.085 19.9605C26.7448 18.8749 26.3261 17.8002 25.5845 16.7917C25.1571 16.2131 24.6511 15.673 23.8223 15.2762C22.6533 14.7141 21.2924 14.7637 20.2368 15.4085C19.3383 15.9596 18.78 16.6539 18.3001 17.3704C17.4016 18.7261 16.8869 20.1479 16.4856 21.5918C16.3547 22.0712 16.2588 22.5562 16.1541 23.0411C16.0668 23.46 15.5521 23.7245 14.9066 23.6749C14.3308 23.6308 13.9382 23.2781 14.008 22.8758C14.3134 21.2391 14.8106 19.6299 15.6045 18.0647C16.1803 16.9185 16.8956 15.8108 18.0995 14.8629C18.9283 14.2181 19.9228 13.7166 21.2575 13.5678C21.528 13.5347 21.7984 13.5237 21.938 13.5127Z" fill="white"/>
<path d="M54 27.7382C54 27.6346 54.0345 27.5483 54.1036 27.4792C54.1842 27.3986 54.2706 27.3583 54.3627 27.3583H63.0664C63.3542 27.3583 63.6017 27.2605 63.8089 27.0647C64.0162 26.8575 64.1198 26.61 64.1198 26.3222V22.0567C64.1198 21.7688 64.0162 21.5213 63.8089 21.3141C63.6017 21.1068 63.3542 21.0032 63.0664 21.0032H54.3627C54.2706 21.0032 54.1842 20.9687 54.1036 20.8996C54.0345 20.8305 54 20.7442 54 20.6406V19.3799C54 19.2763 54.0345 19.19 54.1036 19.1209C54.1842 19.0403 54.2706 19 54.3627 19H63.4808C64.2061 19 64.8278 19.259 65.3459 19.7771C65.864 20.2952 66.123 20.9169 66.123 21.6422V26.7194C66.123 27.4447 65.864 28.0664 65.3459 28.5844C64.8278 29.1025 64.2061 29.3615 63.4808 29.3615H54.3627C54.2706 29.3615 54.1842 29.327 54.1036 29.2579C54.0345 29.1773 54 29.091 54 28.9989V27.7382Z" fill="white"/>
<path d="M69.1117 21.5731C68.9044 21.2162 68.6339 21.0205 68.3 20.986H67.6956C67.6035 20.986 67.5171 20.9514 67.4366 20.8823C67.3675 20.8133 67.3329 20.7269 67.3329 20.6233V19.3627C67.3329 19.2706 67.3617 19.19 67.4193 19.1209C67.4884 19.0518 67.569 19.0173 67.6611 19.0173L68.7836 19C69.5549 19.0115 70.1306 19.3454 70.5105 20.0016L71.4258 21.5731L71.9438 22.4711L72.082 22.7302C72.2662 23.0525 72.5483 23.2137 72.9282 23.2137H74.4997C74.8796 23.2137 75.1617 23.0525 75.3459 22.7302L75.484 22.4711L76.0021 21.5731L76.9174 20.0016C77.2973 19.3454 77.8672 19.0115 78.627 19L79.7495 19.0173C79.8416 19.0173 79.9222 19.0518 79.9913 19.1209C80.0604 19.19 80.0949 19.2706 80.0949 19.3627V20.6233C80.0949 20.7269 80.0546 20.8133 79.974 20.8823C79.905 20.9514 79.8186 20.986 79.715 20.986H79.1278C78.794 21.0205 78.5234 21.2162 78.3162 21.5731L77.7981 22.4711L77.7808 22.4884L77.2973 23.3346L77.1246 23.6109L76.7965 24.198V24.2153C76.4051 24.8715 75.8294 25.1997 75.0696 25.1997H74.7069V28.9989C74.7069 29.091 74.6724 29.1773 74.6033 29.2579C74.5342 29.327 74.4479 29.3615 74.3443 29.3615H73.0836C72.98 29.3615 72.8936 29.327 72.8246 29.2579C72.7555 29.1773 72.7209 29.091 72.7209 28.9989V25.1997H72.3583C71.5869 25.1997 71.0113 24.8715 70.6314 24.2153V24.198L70.286 23.6109L70.1306 23.3346L69.6297 22.4884V22.4711L69.1117 21.5731Z" fill="white"/>
<path d="M83.9144 24.0426H90.3386C90.6264 24.0426 90.8739 23.9448 91.0811 23.749C91.2884 23.5418 91.392 23.2943 91.392 23.0065V22.0567C91.392 21.7688 91.2884 21.5213 91.0811 21.3141C90.8739 21.1068 90.6264 21.0032 90.3386 21.0032H81.6348C81.5427 21.0032 81.4564 20.9687 81.3758 20.8996C81.3067 20.8305 81.2722 20.7442 81.2722 20.6406V19.3799C81.2722 19.2763 81.3067 19.19 81.3758 19.1209C81.4564 19.0403 81.5427 19 81.6348 19H90.753C91.4783 19 92.1 19.259 92.6181 19.7771C93.1362 20.2952 93.3952 20.9169 93.3952 21.6422V23.4037C93.3952 23.8757 93.2743 24.3189 93.0326 24.7334C92.7908 25.1363 92.4684 25.4587 92.0655 25.7005C91.6625 25.9307 91.225 26.0459 90.753 26.0459H84.3116C84.0238 26.0459 83.7762 26.1495 83.569 26.3567C83.3733 26.5524 83.2754 26.7942 83.2754 27.082V28.9989C83.2754 29.091 83.2351 29.1773 83.1545 29.2579C83.0855 29.327 82.9991 29.3615 82.8955 29.3615H81.6348C81.5427 29.3615 81.4564 29.327 81.3758 29.2579C81.3067 29.1773 81.2722 29.091 81.2722 28.9989V26.6848C81.2722 25.9595 81.5312 25.3378 82.0493 24.8197C82.5674 24.3017 83.1891 24.0426 83.9144 24.0426Z" fill="white"/>
<path d="M106.318 21.0032H101.621C101.529 21.0032 101.443 20.9687 101.362 20.8996C101.293 20.8305 101.259 20.7442 101.259 20.6406V19.3799C101.259 19.2763 101.293 19.19 101.362 19.1209C101.443 19.0403 101.529 19 101.621 19H113.002C113.105 19 113.192 19.0403 113.261 19.1209C113.341 19.19 113.382 19.2763 113.382 19.3799V20.6406C113.382 20.7442 113.341 20.8305 113.261 20.8996C113.192 20.9687 113.105 21.0032 113.002 21.0032H108.322V28.9989C108.322 29.091 108.281 29.1773 108.201 29.2579C108.132 29.327 108.045 29.3615 107.942 29.3615H106.681C106.589 29.3615 106.503 29.327 106.422 29.2579C106.353 29.1773 106.318 29.091 106.318 28.9989V21.0032Z" fill="white"/>
<path d="M114.574 21.6422C114.574 20.9169 114.833 20.2952 115.351 19.7771C115.869 19.259 116.491 19 117.216 19H124.694C125.419 19 126.041 19.259 126.559 19.7771C127.077 20.2952 127.336 20.9169 127.336 21.6422V26.7194C127.336 27.4447 127.077 28.0664 126.559 28.5844C126.041 29.1025 125.419 29.3615 124.694 29.3615H117.216C116.491 29.3615 115.869 29.1025 115.351 28.5844C114.833 28.0664 114.574 27.4447 114.574 26.7194V21.6422ZM116.578 26.3222C116.578 26.61 116.675 26.8575 116.871 27.0647C117.078 27.2605 117.326 27.3583 117.614 27.3583H124.297C124.481 27.3583 124.654 27.3123 124.815 27.2202C124.976 27.1281 125.103 27.0014 125.195 26.8402C125.287 26.6791 125.333 26.5064 125.333 26.3222V22.0567C125.333 21.7688 125.229 21.5213 125.022 21.3141C124.826 21.1068 124.585 21.0032 124.297 21.0032H117.614C117.326 21.0032 117.078 21.1068 116.871 21.3141C116.675 21.5213 116.578 21.7688 116.578 22.0567V26.3222Z" fill="white"/>
<path d="M128.531 21.6422C128.531 20.9169 128.79 20.2952 129.308 19.7771C129.826 19.259 130.448 19 131.173 19H138.651C139.376 19 139.998 19.259 140.516 19.7771C141.034 20.2952 141.293 20.9169 141.293 21.6422V26.7194C141.293 27.4447 141.034 28.0664 140.516 28.5844C139.998 29.1025 139.376 29.3615 138.651 29.3615H131.173C130.448 29.3615 129.826 29.1025 129.308 28.5844C128.79 28.0664 128.531 27.4447 128.531 26.7194V21.6422ZM130.534 26.3222C130.534 26.61 130.632 26.8575 130.828 27.0647C131.035 27.2605 131.282 27.3583 131.57 27.3583H138.253C138.438 27.3583 138.61 27.3123 138.771 27.2202C138.933 27.1281 139.059 27.0014 139.151 26.8402C139.243 26.6791 139.29 26.5064 139.29 26.3222V22.0567C139.29 21.7688 139.186 21.5213 138.979 21.3141C138.783 21.1068 138.541 21.0032 138.253 21.0032H131.57C131.282 21.0032 131.035 21.1068 130.828 21.3141C130.632 21.5213 130.534 21.7688 130.534 22.0567V26.3222Z" fill="white"/>
<path d="M142.487 26.7194V19.3799C142.487 19.2763 142.522 19.19 142.591 19.1209C142.672 19.0403 142.758 19 142.85 19H144.111C144.214 19 144.301 19.0403 144.37 19.1209C144.45 19.19 144.491 19.2763 144.491 19.3799V26.3222C144.491 26.61 144.588 26.8575 144.784 27.0647C144.991 27.2605 145.239 27.3583 145.527 27.3583H152.279C152.348 27.3583 152.411 27.3756 152.469 27.4101C152.527 27.4447 152.567 27.4907 152.59 27.5483C152.624 27.6058 152.642 27.6692 152.642 27.7382V28.9989C152.642 29.091 152.607 29.1773 152.538 29.2579C152.469 29.327 152.383 29.3615 152.279 29.3615H145.13C144.404 29.3615 143.783 29.1025 143.264 28.5844C142.746 28.0664 142.487 27.4447 142.487 26.7194Z" fill="white"/>
<path d="M154.158 27.7382C154.158 27.6346 154.192 27.5483 154.261 27.4792C154.33 27.3986 154.417 27.3583 154.52 27.3583H162.654C162.942 27.3583 163.184 27.2605 163.379 27.0647C163.587 26.8575 163.69 26.61 163.69 26.3222V26.2185C163.69 26.0343 163.644 25.8616 163.552 25.7005C163.46 25.5393 163.333 25.4126 163.172 25.3205C163.011 25.2284 162.838 25.1824 162.654 25.1824H156.506C155.781 25.1824 155.159 24.9234 154.641 24.4053C154.123 23.8872 153.864 23.2655 153.864 22.5402V21.6422C153.864 20.9169 154.123 20.2952 154.641 19.7771C155.159 19.259 155.781 19 156.506 19H165.037C165.141 19 165.227 19.0403 165.296 19.1209C165.365 19.19 165.4 19.2763 165.4 19.3799V20.6406C165.4 20.7442 165.365 20.8305 165.296 20.8996C165.227 20.9687 165.141 21.0032 165.037 21.0032H156.903C156.616 21.0032 156.368 21.1068 156.161 21.3141C155.965 21.5213 155.867 21.7688 155.867 22.0567V22.143C155.867 22.4308 155.965 22.6784 156.161 22.8856C156.368 23.0813 156.616 23.1792 156.903 23.1792H163.051C163.777 23.1792 164.398 23.4382 164.916 23.9563C165.434 24.4744 165.693 25.096 165.693 25.8214V26.7194C165.693 27.4447 165.434 28.0664 164.916 28.5844C164.398 29.1025 163.777 29.3615 163.051 29.3615H154.52C154.417 29.3615 154.33 29.327 154.261 29.2579C154.192 29.1773 154.158 29.091 154.158 28.9989V27.7382Z" fill="white"/>
<defs>
<linearGradient id="paint0_linear_1297_2664" x1="164.943" y1="40.296" x2="53.063" y2="-43.8801" gradientUnits="userSpaceOnUse">
<stop stop-color="#48C7C4"/>
<stop offset="1" stop-color="#53E4E1"/>
</linearGradient>
<linearGradient id="paint1_linear_1297_2664" x1="29.0014" y1="7.84367" x2="29.0014" y2="36.1174" gradientUnits="userSpaceOnUse">
<stop offset="0.0874372" stop-color="white" stop-opacity="0"/>
<stop offset="0.536458" stop-color="white"/>
<stop offset="1" stop-color="white" stop-opacity="0"/>
</linearGradient>
<linearGradient id="paint2_linear_1297_2664" x1="29.0014" y1="4.33403" x2="29.0014" y2="39.1553" gradientUnits="userSpaceOnUse">
<stop offset="0.0874372" stop-color="white" stop-opacity="0"/>
<stop offset="0.536458" stop-color="white"/>
<stop offset="1" stop-color="white" stop-opacity="0"/>
</linearGradient>
</defs>
</svg>
