<svg width="22" height="22" viewBox="0 0 22 22" fill="none" xmlns="http://www.w3.org/2000/svg">
<path d="M0 4C0 1.79086 1.79086 0 4 0H22V18C22 20.2091 20.2091 22 18 22H0V4Z" fill="url(#paint0_linear_289_7953)"/>
<path fill-rule="evenodd" clip-rule="evenodd" d="M8.23508 9.81797L10.9243 7.12989L13.6147 9.82016L15.1786 8.25521L10.9243 4L6.67009 8.25412L8.23508 9.81797ZM4 10.9233L5.56442 9.35894L7.12885 10.9233L5.56442 12.4877L4 10.9233ZM10.9243 14.7173L8.23504 12.0282L6.66786 13.5909L6.67005 13.5931L10.9243 17.8461L15.1785 13.5909L15.1796 13.5898L13.6146 12.0271L10.9243 14.7173ZM14.7173 10.9237L16.2818 9.35928L17.8462 10.9237L16.2818 12.488L14.7173 10.9237ZM10.9242 9.33461L12.5111 10.9225H12.5122L12.5111 10.9236L10.9242 12.5115L9.33735 10.9258L9.33516 10.9225L9.33735 10.9203L9.61514 10.6426L9.75075 10.508L10.9242 9.33461Z" fill="white"/>
<defs>
<linearGradient id="paint0_linear_289_7953" x1="22" y1="22" x2="0" y2="0" gradientUnits="userSpaceOnUse">
<stop stop-color="#D1A000"/>
<stop offset="1" stop-color="#FFD632"/>
</linearGradient>
</defs>
</svg>
