<svg width="22" height="22" viewBox="0 0 22 22" fill="none" xmlns="http://www.w3.org/2000/svg">
<path d="M0 4C0 1.79086 1.79086 0 4 0H22V18C22 20.2091 20.2091 22 18 22H0V4Z" fill="url(#paint0_linear_383_1161)"/>
<path d="M5.71523 11.1788L5.72386 14.3425L8.41208 15.9244V17.7766L4.15062 15.2773V10.2536L5.71523 11.1788ZM5.71523 8.01507V9.85866L4.14966 8.93255V7.08895L5.71523 6.16284L7.28847 7.08895L5.71523 8.01507ZM9.53472 7.08895L11.1003 6.16284L12.6735 7.08895L11.1003 8.01507L9.53472 7.08895Z" fill="white"/>
<path d="M6.84668 13.6868V11.8346L8.41225 12.7607V14.6043L6.84668 13.6868ZM9.5349 16.5878L11.1005 17.5139L12.6737 16.5878V18.4314L11.1005 19.3575L9.5349 18.4314V16.5878ZM14.919 7.08895L16.4846 6.16284L18.0578 7.08895V8.93255L16.4846 9.85866V8.01507L14.919 7.08895ZM16.4846 14.3425L16.4932 11.1788L18.0588 10.2527V15.2763L13.7973 17.7757V15.9235L16.4846 14.3425Z" fill="white"/>
<path d="M15.3617 13.6867L13.7961 14.6042V12.7606L15.3617 11.8345V13.6867Z" fill="white"/>
<path d="M15.3619 8.67076L15.3706 10.523L12.6747 12.1049V15.2763L11.1091 16.1937L9.54353 15.2763V12.1049L6.84764 10.523V8.67076L8.41992 7.74465L11.0995 9.33418L13.7954 7.74465L15.3686 8.67076H15.3619ZM6.84668 5.50798L11.1005 3L15.3619 5.50798L13.7964 6.43409L11.1005 4.84455L8.41225 6.43409L6.84668 5.50798Z" fill="white"/>
<defs>
<linearGradient id="paint0_linear_383_1161" x1="22" y1="22" x2="0" y2="0" gradientUnits="userSpaceOnUse">
<stop stop-color="#D1A000"/>
<stop offset="1" stop-color="#FFD632"/>
</linearGradient>
</defs>
</svg>
