<svg width="708" height="362" viewBox="0 0 708 362" fill="none" xmlns="http://www.w3.org/2000/svg">
<path d="M1080.82 417.766C879.902 319.424 811.338 210.973 786.49 128.699C758.761 36.877 773.061 -63.4799 743.128 -69.7121C723.961 -73.7042 700.377 -36.2299 656.407 45.9184C523.068 295.023 520.049 361.175 463.24 378.345C383.658 402.414 334.6 289.18 212.273 291.62C122.428 293.417 49.7254 356.465 0.723971 412.507" stroke="url(#paint0_radial_95_5457)" stroke-miterlimit="10"/>
<path d="M1085.65 407.88C890.384 311.656 817.882 206.238 791.063 129.13C761.094 42.9594 775.248 -52.2134 745.626 -56.7146C726.582 -59.6106 703.44 -22.7772 660.968 56.5559C531.89 297.613 527.886 364.589 471.515 380.911C391.472 403.762 344.552 282.336 220.928 280.683C218.233 280.647 215.579 280.647 212.923 280.719C125.21 283.16 51.4714 346.237 1.42179 401.935" stroke="url(#paint1_radial_95_5457)" stroke-miterlimit="10"/>
<path d="M1090.46 397.994C900.866 303.896 824.482 201.691 795.624 129.567C763.46 49.1736 777.413 -40.9349 748.111 -43.7111C729.184 -45.508 706.483 -9.31243 665.52 67.2025C540.731 300.2 535.766 368.216 479.768 383.478C399.336 405.4 354.458 275.433 229.562 269.743C226.822 269.617 224.09 269.491 221.359 269.506C132.197 269.998 54.6248 334.378 2.10447 391.36" stroke="url(#paint2_radial_95_5457)" stroke-miterlimit="10"/>
<path d="M1095.28 388.108C911.331 296.11 831.186 197.364 800.193 130.004C765.923 55.5197 779.573 -29.6474 750.607 -30.7045C731.788 -31.3933 709.554 4.14933 670.079 77.8462C549.564 302.812 543.616 371.723 488.029 386.044C407.169 406.876 364.358 268.479 238.203 258.803C235.403 258.587 232.606 258.381 229.818 258.291C139.212 255.398 57.8007 322.515 2.80958 380.779" stroke="url(#paint3_radial_95_5457)" stroke-miterlimit="10"/>
<path d="M1100.09 378.222C921.806 288.35 838.023 193.267 804.762 130.442C768.525 61.9946 781.72 -18.3477 753.098 -17.6979C734.384 -17.2756 712.611 17.6142 674.634 88.4929C558.395 305.412 551.462 375.221 496.289 388.608C414.976 408.338 374.243 261.474 246.843 247.851C243.983 247.551 241.12 247.252 238.248 247.066C146.205 241.55 60.9538 310.647 3.48296 370.205" stroke="url(#paint4_radial_95_5457)" stroke-miterlimit="10"/>
<path d="M1104.91 368.336C932.279 280.587 845.034 189.419 809.324 130.882C771.325 68.5892 783.868 -7.03931 755.584 -4.69435C736.968 -3.14902 715.666 31.0759 679.186 99.1395C567.218 308.011 559.297 378.707 504.542 391.175C422.784 409.787 384.12 254.422 255.477 236.92C252.554 236.521 249.631 236.117 246.684 235.86C153.207 227.744 64.0985 298.793 4.16592 359.639" stroke="url(#paint5_radial_95_5457)" stroke-miterlimit="10"/>
<path d="M1109.73 358.45C942.755 272.816 852.272 185.816 813.896 131.319C774.415 75.2496 785.996 4.28407 758.081 8.31212C739.558 10.9835 718.729 44.5496 683.75 109.783C576.055 310.607 567.137 382.184 512.807 393.738C430.584 411.225 394.006 247.327 264.123 225.98C261.128 225.488 258.151 224.985 255.138 224.647C160.232 213.949 67.2693 286.939 4.86597 349.064" stroke="url(#paint6_radial_95_5457)" stroke-miterlimit="10"/>
<path d="M1114.55 348.564C953.231 265.047 868.672 173.666 818.463 131.756C788.054 75.1328 788.129 15.6225 760.573 21.3157C742.143 25.1251 721.787 58.0024 688.305 120.445C584.887 313.222 574.971 385.664 521.067 396.32C438.383 412.662 403.889 240.205 272.766 215.054C269.717 214.47 266.665 213.871 263.578 213.446C167.237 200.194 70.4111 275.086 5.54605 338.504" stroke="url(#paint7_radial_95_5457)" stroke-miterlimit="10"/>
<path d="M1119.37 338.678C963.703 257.279 876.859 168.332 823.03 132.193C792.237 80.5984 790.261 26.9759 763.065 34.3223C744.724 39.2757 724.848 71.4582 692.863 131.076C593.734 315.807 582.8 389.105 529.324 398.871C446.175 414.055 413.774 233.014 281.406 204.099C278.297 203.419 275.182 202.725 272.02 202.216C174.245 186.43 73.5823 263.211 6.23452 327.915" stroke="url(#paint8_radial_95_5457)" stroke-miterlimit="10"/>
<path d="M1124.18 328.792C974.179 249.51 885.05 163.004 827.6 132.631C796.424 86.061 792.393 38.3414 765.556 47.3259C747.309 53.4323 727.905 84.923 697.421 141.72C602.551 318.415 590.625 392.546 537.584 401.432C453.962 415.445 423.669 225.803 290.046 193.153C286.877 192.381 283.697 191.593 280.462 190.997C181.253 172.693 76.742 251.346 6.92345 317.337" stroke="url(#paint9_radial_95_5457)" stroke-miterlimit="10"/>
<path d="M1129 318.906C984.65 241.741 893.239 157.674 832.168 133.071C800.609 91.5296 794.529 49.7248 768.052 60.3325C749.897 67.6039 730.964 98.3908 701.977 152.358C611.383 320.997 598.449 395.972 545.844 403.992C461.749 416.813 433.571 218.555 298.687 182.207C295.455 181.336 292.212 180.461 288.909 179.775C188.255 158.97 79.9023 239.48 7.61308 306.756" stroke="url(#paint10_radial_95_5457)" stroke-miterlimit="10"/>
<path d="M1133.82 309.017C995.132 233.976 901.421 152.343 836.732 133.52C804.79 97.0073 796.668 61.1262 770.547 73.3511C752.491 81.7965 734.025 111.865 706.538 163.025C620.218 323.617 606.274 399.413 554.101 406.577C469.527 418.194 443.481 211.314 307.327 171.288C304.033 170.321 300.738 169.353 297.351 168.593C195.254 145.299 83.0619 227.648 8.30185 296.212" stroke="url(#paint11_radial_95_5457)" stroke-miterlimit="10"/>
<path d="M1138.64 299.131C1005.6 226.207 909.62 147.012 841.302 133.946C808.976 102.461 798.82 72.5185 773.035 86.3427C755.084 95.9681 737.082 125.317 711.092 173.66C629.034 326.205 614.09 402.813 562.363 409.132C477.31 419.521 453.408 204.001 315.966 160.336C312.615 159.27 309.243 158.216 305.784 157.356C202.237 131.601 86.2117 215.755 8.98092 285.619" stroke="url(#paint12_radial_95_5457)" stroke-miterlimit="10"/>
<path d="M1143.45 289.245C1016.08 218.439 917.811 141.684 845.869 134.389C813.162 107.932 800.979 83.9288 775.526 99.3492C757.683 110.161 740.139 138.779 715.647 184.304C637.875 328.804 621.909 406.221 570.623 411.698C485.084 420.844 463.345 196.669 324.609 149.396C321.195 148.231 317.757 147.087 314.235 146.14C209.236 117.917 89.38 203.905 9.6606 275.044" stroke="url(#paint13_radial_95_5457)" stroke-miterlimit="10"/>
<path d="M1148.27 279.36C1026.56 210.67 925.999 136.353 850.436 134.823C817.346 113.395 803.145 95.3421 778.018 112.362C760.291 124.362 743.197 152.247 720.218 194.956C646.718 331.41 629.741 409.608 578.894 414.268C492.874 422.153 473.306 189.356 333.261 138.459C329.787 137.198 326.283 135.967 322.692 134.931C216.229 104.258 92.5516 192.051 10.3764 264.475" stroke="url(#paint14_radial_95_5457)" stroke-miterlimit="10"/>
<path d="M1153.09 269.474C1037.03 202.902 934.19 131.023 855.006 135.26C821.53 118.861 805.322 106.761 780.51 125.359C762.906 138.555 746.258 165.706 724.761 205.597C655.538 334 637.548 412.98 587.139 416.828C500.637 423.432 483.255 181.986 341.89 127.528C338.356 126.168 334.786 124.85 331.108 123.727C223.195 90.5983 95.6995 180.183 11.0536 253.883" stroke="url(#paint15_radial_95_5457)" stroke-miterlimit="10"/>
<path d="M1157.91 259.588C1047.5 195.136 942.38 125.704 859.573 135.698C825.731 124.317 807.507 118.187 783.001 138.366C765.529 152.756 749.315 179.168 729.318 216.232C664.369 336.588 645.367 416.337 595.398 419.38C508.413 424.681 493.23 174.6 350.529 116.561C346.935 115.099 343.299 113.698 339.565 112.485C230.167 76.954 98.8492 168.323 11.7415 243.32" stroke="url(#paint16_radial_95_5457)" stroke-miterlimit="10"/>
<path d="M1162.73 249.69C1057.98 187.355 950.571 120.352 864.143 136.126C829.903 129.78 809.703 129.597 785.498 151.357C768.158 166.931 752.376 192.617 733.88 226.875C673.204 339.181 653.19 419.694 603.661 421.947C516.191 425.936 503.218 167.224 359.169 105.638C355.518 104.075 351.814 102.59 348.01 101.287C237.13 63.3213 102.018 156.467 12.4304 232.76" stroke="url(#paint17_radial_95_5457)" stroke-miterlimit="10"/>
<path d="M1167.54 239.807C1068.46 179.61 959.897 152.636 868.708 136.575C834.584 130.564 811.902 141.034 787.988 164.376C770.789 181.147 755.431 206.094 738.432 237.534C682.034 341.799 661.01 423.054 611.919 424.525C523.972 427.157 513.218 159.821 367.81 94.689C364.102 93.0299 360.323 91.4576 356.453 90.065C244.09 49.6857 105.187 144.601 13.1168 222.17" stroke="url(#paint18_radial_95_5457)" stroke-miterlimit="10"/>
<path d="M1172.36 229.924C1078.92 171.824 969.014 118.133 873.275 137.006C838.738 143.816 814.112 152.451 790.48 177.377C773.427 195.346 758.492 219.55 742.991 248.174C690.863 344.392 668.836 426.385 620.179 427.083C531.759 428.352 523.233 152.403 376.453 83.7431C372.683 81.9821 368.837 80.335 364.896 78.8466C250.961 36.287 108.338 132.739 13.797 211.595" stroke="url(#paint19_radial_95_5457)" stroke-miterlimit="10"/>
<path d="M1177.18 220.041C1089.41 164.058 976.465 108.561 877.842 137.446C842.859 147.695 816.328 163.876 792.971 190.383C776.071 209.55 761.549 233.017 747.549 258.821C699.694 346.995 676.661 429.925 628.438 429.652C539.548 429.149 533.364 144.772 385.093 72.8059C381.27 70.9371 377.352 69.2131 373.341 67.6338C257.944 22.5586 111.497 120.876 14.4945 201.018" stroke="url(#paint20_radial_95_5457)" stroke-miterlimit="10"/>
<path d="M1182 210.158C1099.88 156.296 983.332 99.0496 882.412 137.89C730.274 196.451 717.112 433.596 636.695 432.219C545.023 430.649 543.148 122.137 381.784 56.4212C264.931 8.83328 114.645 109.016 15.1833 190.449" stroke="url(#paint21_radial_95_5457)" stroke-miterlimit="10"/>
<defs>
<radialGradient id="paint0_radial_95_5457" cx="0" cy="0" r="1" gradientUnits="userSpaceOnUse" gradientTransform="translate(540.773 173.883) rotate(90) scale(243.883 540.049)">
<stop stop-color="#4E4B66"/>
<stop offset="0.96875" stop-color="#4E4B66" stop-opacity="0"/>
</radialGradient>
<radialGradient id="paint1_radial_95_5457" cx="0" cy="0" r="1" gradientUnits="userSpaceOnUse" gradientTransform="translate(543.534 175.503) rotate(90) scale(232.376 542.113)">
<stop stop-color="#4E4B66"/>
<stop offset="0.96875" stop-color="#4E4B66" stop-opacity="0"/>
</radialGradient>
<radialGradient id="paint2_radial_95_5457" cx="0" cy="0" r="1" gradientUnits="userSpaceOnUse" gradientTransform="translate(546.281 177.109) rotate(90) scale(220.884 544.176)">
<stop stop-color="#4E4B66"/>
<stop offset="0.96875" stop-color="#4E4B66" stop-opacity="0"/>
</radialGradient>
<radialGradient id="paint3_radial_95_5457" cx="0" cy="0" r="1" gradientUnits="userSpaceOnUse" gradientTransform="translate(549.043 178.731) rotate(90) scale(209.446 546.233)">
<stop stop-color="#4E4B66"/>
<stop offset="0.96875" stop-color="#4E4B66" stop-opacity="0"/>
</radialGradient>
<radialGradient id="paint4_radial_95_5457" cx="0" cy="0" r="1" gradientUnits="userSpaceOnUse" gradientTransform="translate(551.789 186.363) rotate(90) scale(204.065 548.306)">
<stop stop-color="#4E4B66"/>
<stop offset="0.96875" stop-color="#4E4B66" stop-opacity="0"/>
</radialGradient>
<radialGradient id="paint5_radial_95_5457" cx="0" cy="0" r="1" gradientUnits="userSpaceOnUse" gradientTransform="translate(554.54 193.986) rotate(90) scale(198.734 550.374)">
<stop stop-color="#4E4B66"/>
<stop offset="0.96875" stop-color="#4E4B66" stop-opacity="0"/>
</radialGradient>
<radialGradient id="paint6_radial_95_5457" cx="0" cy="0" r="1" gradientUnits="userSpaceOnUse" gradientTransform="translate(557.297 201.595) rotate(90) scale(193.447 552.431)">
<stop stop-color="#4E4B66"/>
<stop offset="0.96875" stop-color="#4E4B66" stop-opacity="0"/>
</radialGradient>
<radialGradient id="paint7_radial_95_5457" cx="0" cy="0" r="1" gradientUnits="userSpaceOnUse" gradientTransform="translate(560.047 209.173) rotate(90) scale(188.236 554.501)">
<stop stop-color="#4E4B66"/>
<stop offset="0.96875" stop-color="#4E4B66" stop-opacity="0"/>
</radialGradient>
<radialGradient id="paint8_radial_95_5457" cx="0" cy="0" r="1" gradientUnits="userSpaceOnUse" gradientTransform="translate(562.8 216.709) rotate(90) scale(183.065 556.566)">
<stop stop-color="#4E4B66"/>
<stop offset="0.96875" stop-color="#4E4B66" stop-opacity="0"/>
</radialGradient>
<radialGradient id="paint9_radial_95_5457" cx="0" cy="0" r="1" gradientUnits="userSpaceOnUse" gradientTransform="translate(565.554 224.199) rotate(90) scale(177.971 558.631)">
<stop stop-color="#4E4B66"/>
<stop offset="0.96875" stop-color="#4E4B66" stop-opacity="0"/>
</radialGradient>
<radialGradient id="paint10_radial_95_5457" cx="0" cy="0" r="1" gradientUnits="userSpaceOnUse" gradientTransform="translate(568.307 231.625) rotate(90) scale(172.962 560.694)">
<stop stop-color="#4E4B66"/>
<stop offset="0.96875" stop-color="#4E4B66" stop-opacity="0"/>
</radialGradient>
<radialGradient id="paint11_radial_95_5457" cx="0" cy="0" r="1" gradientUnits="userSpaceOnUse" gradientTransform="translate(571.061 238.981) rotate(90) scale(168.067 562.759)">
<stop stop-color="#4E4B66"/>
<stop offset="0.96875" stop-color="#4E4B66" stop-opacity="0"/>
</radialGradient>
<radialGradient id="paint12_radial_95_5457" cx="0" cy="0" r="1" gradientUnits="userSpaceOnUse" gradientTransform="translate(573.809 246.187) rotate(90) scale(163.308 564.828)">
<stop stop-color="#4E4B66"/>
<stop offset="0.96875" stop-color="#4E4B66" stop-opacity="0"/>
</radialGradient>
<radialGradient id="paint13_radial_95_5457" cx="0" cy="0" r="1" gradientUnits="userSpaceOnUse" gradientTransform="translate(576.554 253.236) rotate(90) scale(158.734 566.893)">
<stop stop-color="#4E4B66"/>
<stop offset="0.96875" stop-color="#4E4B66" stop-opacity="0"/>
</radialGradient>
<radialGradient id="paint14_radial_95_5457" cx="0" cy="0" r="1" gradientUnits="userSpaceOnUse" gradientTransform="translate(579.324 260.041) rotate(90) scale(154.423 568.948)">
<stop stop-color="#4E4B66"/>
<stop offset="0.96875" stop-color="#4E4B66" stop-opacity="0"/>
</radialGradient>
<radialGradient id="paint15_radial_95_5457" cx="0" cy="0" r="1" gradientUnits="userSpaceOnUse" gradientTransform="translate(582.072 266.469) rotate(90) scale(150.492 571.019)">
<stop stop-color="#4E4B66"/>
<stop offset="0.96875" stop-color="#4E4B66" stop-opacity="0"/>
</radialGradient>
<radialGradient id="paint16_radial_95_5457" cx="0" cy="0" r="1" gradientUnits="userSpaceOnUse" gradientTransform="translate(584.825 262.019) rotate(90) scale(157.444 573.084)">
<stop stop-color="#4E4B66"/>
<stop offset="0.96875" stop-color="#4E4B66" stop-opacity="0"/>
</radialGradient>
<radialGradient id="paint17_radial_95_5457" cx="0" cy="0" r="1" gradientUnits="userSpaceOnUse" gradientTransform="translate(587.579 257.259) rotate(90) scale(164.733 575.149)">
<stop stop-color="#4E4B66"/>
<stop offset="0.96875" stop-color="#4E4B66" stop-opacity="0"/>
</radialGradient>
<radialGradient id="paint18_radial_95_5457" cx="0" cy="0" r="1" gradientUnits="userSpaceOnUse" gradientTransform="translate(590.33 252.493) rotate(90) scale(172.051 577.214)">
<stop stop-color="#4E4B66"/>
<stop offset="0.96875" stop-color="#4E4B66" stop-opacity="0"/>
</radialGradient>
<radialGradient id="paint19_radial_95_5457" cx="0" cy="0" r="1" gradientUnits="userSpaceOnUse" gradientTransform="translate(593.08 247.755) rotate(90) scale(179.332 579.283)">
<stop stop-color="#4E4B66"/>
<stop offset="0.96875" stop-color="#4E4B66" stop-opacity="0"/>
</radialGradient>
<radialGradient id="paint20_radial_95_5457" cx="0" cy="0" r="1" gradientUnits="userSpaceOnUse" gradientTransform="translate(595.838 242.965) rotate(90) scale(186.688 581.343)">
<stop stop-color="#4E4B66"/>
<stop offset="0.96875" stop-color="#4E4B66" stop-opacity="0"/>
</radialGradient>
<radialGradient id="paint21_radial_95_5457" cx="0" cy="0" r="1" gradientUnits="userSpaceOnUse" gradientTransform="translate(598.592 238.17) rotate(90) scale(194.055 583.408)">
<stop stop-color="#4E4B66"/>
<stop offset="0.96875" stop-color="#4E4B66" stop-opacity="0"/>
</radialGradient>
</defs>
</svg>
