<svg width="12" height="7" viewBox="0 0 12 7" fill="none" xmlns="http://www.w3.org/2000/svg">
<path d="M6 6.33337L6.35355 6.68693C6.15829 6.88219 5.84171 6.88219 5.64645 6.68693L6 6.33337ZM10.6464 0.979821C10.8417 0.784559 11.1583 0.784559 11.3536 0.979821C11.5488 1.17508 11.5488 1.49167 11.3536 1.68693L10.6464 0.979821ZM0.646447 1.68693C0.451184 1.49166 0.451184 1.17508 0.646447 0.97982C0.841709 0.784558 1.15829 0.784558 1.35355 0.97982L0.646447 1.68693ZM5.64645 5.97982L10.6464 0.979821L11.3536 1.68693L6.35355 6.68693L5.64645 5.97982ZM5.64645 6.68693L0.646447 1.68693L1.35355 0.97982L6.35355 5.97982L5.64645 6.68693Z" fill="#6962DC"/>
</svg>
