<svg width="22" height="22" viewBox="0 0 22 22" fill="none" xmlns="http://www.w3.org/2000/svg">
<path d="M0 4C0 1.79086 1.79086 0 4 0H22V18C22 20.2091 20.2091 22 18 22H0V4Z" fill="url(#paint0_linear_289_7941)"/>
<path d="M11.1569 4.40002L11.0693 4.69009V13.1065L11.1569 13.1917L15.1623 10.8824L11.1569 4.40002Z" fill="#C1CCF8"/>
<path d="M11.1554 4.40002L7.1499 10.8824L11.1554 13.1917V9.10661V4.40002Z" fill="white"/>
<path d="M11.1565 13.9313L11.1072 13.99V16.988L11.1565 17.1285L15.1644 11.6232L11.1565 13.9313Z" fill="#C1CCF8"/>
<path d="M11.1554 17.1285V13.9313L7.1499 11.6232L11.1554 17.1285Z" fill="white"/>
<path d="M11.1553 13.1915L15.1607 10.8822L11.1553 9.10645V13.1915Z" fill="#8197EE"/>
<path d="M7.1499 10.8822L11.1554 13.1915V9.10645L7.1499 10.8822Z" fill="#C1CCF8"/>
<defs>
<linearGradient id="paint0_linear_289_7941" x1="22" y1="22" x2="0" y2="0" gradientUnits="userSpaceOnUse">
<stop stop-color="#556ECC"/>
<stop offset="1" stop-color="#627EEA"/>
</linearGradient>
</defs>
</svg>
