<svg width="73" height="163" viewBox="0 0 73 163" fill="none" xmlns="http://www.w3.org/2000/svg">
<path d="M17.327 36.6346L66.8858 113.765C76.0995 128.074 71.9114 147.13 57.6022 156.343C43.293 165.557 24.2373 161.369 15.0236 147.06L-34.5352 69.9297" stroke="#7E7BF1" stroke-width="2" stroke-miterlimit="10"/>
<path d="M13.5575 30.7015L58.5094 100.712C67.7231 115.021 63.535 134.077 49.2258 143.291C34.9166 152.504 15.8609 148.316 6.64717 134.007L-38.3047 63.9966" stroke="#C4C3F3" stroke-width="2" stroke-miterlimit="10"/>
<path d="M9.71861 24.7684L50.0636 87.5894C59.2773 101.899 55.0893 120.954 40.7801 130.168C26.4709 139.382 7.41518 135.194 -1.79856 120.884L-42.1436 58.0635" stroke="#7E7BF1" stroke-width="2" stroke-miterlimit="10"/>
<path d="M5.94956 18.8353L41.6877 74.5366C50.9014 88.8458 46.7134 107.901 32.4041 117.115C18.0949 126.329 -0.960735 122.141 -10.1745 107.832L-45.9126 52.1304" stroke="#C4C3F3" stroke-width="2" stroke-miterlimit="10"/>
<path d="M2.11021 12.9722L33.3113 61.4839C42.525 75.7931 38.3369 94.8488 24.0277 104.063C9.71851 113.276 -9.33716 109.088 -18.5509 94.779L-49.752 46.2673" stroke="#7E7BF1" stroke-width="2" stroke-miterlimit="10"/>
<path d="M-1.65883 7.03906L24.9354 48.4311C34.1491 62.7403 29.961 81.796 15.6518 91.0097C1.34261 100.223 -17.7131 96.0354 -26.9268 81.7262L-53.521 40.3342" stroke="#C4C3F3" stroke-width="2" stroke-miterlimit="10"/>
<path d="M-5.49769 1.10596L16.4896 35.3783C25.7034 49.6875 21.5153 68.7432 7.20609 77.9569C-7.10312 87.1706 -26.1588 82.9826 -35.3725 68.6734L-57.3599 34.4011" stroke="#7E7BF1" stroke-width="2" stroke-miterlimit="10"/>
</svg>
