<svg width="192" height="383" viewBox="0 0 192 383" fill="none" xmlns="http://www.w3.org/2000/svg">
<g opacity="0.2">
<path d="M-0.400314 0.00537172C24.6837 -0.184658 49.7678 4.66104 72.9516 14.1626C96.2304 23.6641 117.514 37.8215 135.377 55.5894C153.24 73.2623 167.492 94.6407 177.183 117.825C186.875 141.008 191.816 166.187 191.911 191.366C191.911 216.545 186.875 241.725 177.183 264.908C167.492 288.092 153.24 309.471 135.377 327.143C117.514 344.816 96.2304 359.069 72.9516 368.57C49.6728 378.072 24.5887 382.822 -0.40033 382.727C24.6837 382.537 49.5778 377.502 72.6665 367.715C95.7553 358.118 116.754 343.866 134.332 326.098C151.909 308.425 166.067 287.332 175.568 264.243C185.07 241.25 190.011 216.26 189.916 191.366C189.916 166.472 185.07 141.483 175.568 118.49C166.067 95.4008 151.909 74.3074 134.332 56.6345C116.754 38.9617 95.6603 24.7093 72.6666 15.0177C49.5778 5.23115 24.6837 0.195404 -0.400314 0.00537172Z" fill="#7770E0"/>
<path d="M-0.400391 10.9322C23.1634 10.7422 46.9173 15.3029 68.7709 24.2344C90.7194 33.1658 110.768 46.563 127.585 63.2857C144.403 80.0084 157.895 100.057 167.017 122.005C176.138 143.859 180.794 167.613 180.889 191.366C180.889 215.12 176.138 238.779 167.017 260.728C157.895 282.581 144.498 302.725 127.585 319.447C110.768 336.17 90.6244 349.472 68.7708 358.499C46.8223 367.43 23.1634 371.896 -0.400404 371.801C23.1634 371.611 46.7273 366.86 68.3908 357.643C90.1493 348.522 110.008 335.125 126.54 318.402C143.073 301.679 156.375 281.821 165.401 260.063C174.428 238.399 178.989 214.835 178.989 191.366C178.989 167.898 174.428 144.429 165.402 122.67C156.47 100.912 143.073 81.0535 126.54 64.3308C110.008 47.6081 90.0543 34.2109 68.3908 25.0894C46.7273 15.8729 23.2585 11.1222 -0.400391 10.9322Z" fill="#7770E0"/>
<path d="M-0.400375 21.9539C21.7382 21.7639 43.9718 26.0396 64.5902 34.4009C85.2085 42.8573 104.022 55.3993 119.889 71.0769C135.757 86.7544 148.394 105.662 156.945 126.186C165.497 146.804 169.962 169.038 169.962 191.366C169.962 213.695 165.497 235.929 156.945 256.547C148.394 277.165 135.757 295.978 119.889 311.656C104.117 327.333 85.2085 339.876 64.5902 348.332C43.9718 356.693 21.7382 360.969 -0.400388 360.779C21.7382 360.589 43.8768 356.123 64.2101 347.477C84.6384 338.925 103.261 326.288 118.844 310.611C134.331 294.933 146.874 276.215 155.33 255.882C163.786 235.454 168.062 213.41 168.062 191.366C168.062 169.323 163.786 147.279 155.33 126.851C146.969 106.423 134.426 87.7996 118.844 72.122C103.261 56.4445 84.6384 43.8075 64.2101 35.2561C43.8768 26.6097 21.7382 22.049 -0.400375 21.9539Z" fill="#7770E0"/>
<path d="M-0.400314 32.8806C20.313 32.6906 41.1214 36.6812 60.4096 44.4725C79.6977 52.3587 97.3706 64.0456 112.098 78.773C126.92 93.4054 138.702 111.078 146.779 130.366C154.855 149.655 158.941 170.463 158.941 191.366C158.941 212.27 154.76 233.078 146.779 252.366C138.797 271.654 126.92 289.327 112.098 303.96C97.2755 318.592 79.6027 330.374 60.4095 338.26C41.1214 346.146 20.313 350.042 -0.400326 349.852C20.313 349.662 41.0264 345.481 60.0295 337.405C79.1276 329.424 96.5154 317.642 111.053 302.914C125.59 288.282 137.277 270.799 145.163 251.701C153.05 232.603 157.04 211.985 157.04 191.366C157.04 170.748 153.05 150.13 145.163 131.031C137.277 111.933 125.59 94.5457 111.053 79.8183C96.5154 65.1859 79.0326 53.4039 60.0295 45.3276C41.0264 37.2513 20.313 32.9756 -0.400314 32.8806Z" fill="#7770E0"/>
<path d="M-0.400467 43.8074C18.8877 43.6173 38.2708 47.3229 56.2287 54.544C74.1866 61.8602 90.6243 72.7871 104.402 86.4693C118.179 100.152 129.201 116.589 136.707 134.452C144.213 152.41 148.014 171.793 148.109 191.271C148.109 210.654 144.213 230.133 136.707 248.091C129.201 266.048 118.274 282.486 104.402 296.073C90.6243 309.756 74.1866 320.682 56.2287 327.998C38.2708 335.315 18.8877 338.925 -0.400478 338.735C18.8877 338.545 38.1758 334.65 55.8487 327.048C73.6165 319.637 89.8642 308.615 103.356 294.933C116.849 281.251 127.775 265.003 135.092 247.235C142.408 229.467 146.208 210.274 146.113 191.081C146.113 171.888 142.408 152.695 135.092 134.927C127.775 117.159 116.849 100.912 103.356 87.2294C89.8642 73.5471 73.6166 62.6204 55.8487 55.1142C38.1758 47.8931 18.8877 43.9974 -0.400467 43.8074Z" fill="#7770E0"/>
<path d="M-0.400452 54.7341C17.4624 54.544 35.4204 57.9646 52.0481 64.7107C68.6758 71.4568 83.8782 81.6234 96.7053 94.2605C109.532 106.898 119.699 122.1 126.635 138.728C133.571 155.355 137.087 173.313 137.182 191.271C137.182 209.229 133.571 227.282 126.635 243.815C119.699 260.442 109.532 275.645 96.7053 288.282C83.9732 300.919 68.6758 310.991 52.0481 317.832C35.4204 324.578 17.4624 327.903 -0.400462 327.808C17.4624 327.618 35.3254 324.008 51.668 316.977C68.1057 310.04 83.1181 299.874 95.6601 287.237C108.107 274.6 118.274 259.587 125.02 243.15C131.766 226.712 135.282 208.944 135.282 191.271C135.282 173.503 131.861 155.735 125.02 139.393C118.274 122.955 108.202 107.943 95.6601 95.3056C83.1181 82.6686 68.1057 72.502 51.668 65.5658C35.3254 58.6297 17.4624 54.9241 -0.400452 54.7341Z" fill="#7770E0"/>
<path d="M-0.400398 65.661C16.0373 65.4709 32.57 68.6064 47.8675 74.7824C63.1649 80.9584 77.2272 90.2699 88.9141 101.957C100.696 113.549 110.103 127.611 116.469 142.908C122.835 158.206 126.16 174.739 126.16 191.271C126.16 207.804 122.835 224.432 116.469 239.634C110.103 254.932 100.696 268.899 88.9141 280.586C77.1322 292.178 63.1649 301.489 47.8674 307.76C32.57 313.936 16.0373 317.072 -0.400408 316.882C16.0373 316.692 32.3799 313.366 47.4874 306.905C62.5948 300.539 76.3721 291.228 87.8689 279.541C99.3658 267.949 108.582 254.077 114.853 238.969C121.124 223.862 124.26 207.519 124.26 191.271C124.26 174.929 121.124 158.586 114.853 143.574C108.677 128.466 99.3658 114.689 87.8689 103.002C76.3721 91.4101 62.5948 82.0036 47.4874 75.6376C32.3799 69.2716 16.0373 65.946 -0.400398 65.661Z" fill="#7770E0"/>
<path d="M-0.400131 76.6827C14.6123 76.4927 29.7198 79.3431 43.687 84.949C57.6543 90.65 70.4814 99.1064 81.2181 109.748C91.9549 120.39 100.506 133.122 106.397 147.089C112.193 161.056 115.234 176.164 115.234 191.271C115.234 206.379 112.193 221.486 106.397 235.453C100.601 249.421 92.0499 262.248 81.2181 272.795C70.4814 283.436 57.6543 291.893 43.687 297.594C29.7198 303.2 14.6123 306.05 -0.40014 305.86C14.6123 305.67 29.5297 302.629 43.307 296.738C57.0842 290.942 69.6262 282.391 80.173 271.749C90.6246 261.108 99.081 248.566 104.782 234.788C110.483 221.011 113.333 206.094 113.333 191.271C113.333 176.354 110.483 161.532 104.782 147.754C99.081 133.977 90.6247 121.34 80.173 110.793C69.7213 100.152 57.0842 91.6952 43.307 85.8042C29.5297 79.9132 14.6123 76.8728 -0.400131 76.6827Z" fill="#7770E0"/>
<path d="M-0.400238 87.6094C13.187 87.4194 26.7742 89.9849 39.4112 95.0207C52.0483 100.152 63.6402 107.848 73.4268 117.444C83.2133 127.041 90.9096 138.633 96.2305 151.27C101.551 163.907 104.212 177.589 104.307 191.271C104.307 204.953 101.551 218.636 96.2304 231.273C91.0046 243.91 83.2133 255.502 73.4267 265.098C63.7352 274.695 52.0483 282.391 39.4112 287.522C26.7742 292.653 13.0919 295.218 -0.400246 294.933C13.187 294.743 26.6792 291.988 39.1262 286.667C51.5732 281.441 62.975 273.65 72.3816 264.053C81.7881 254.456 89.4843 243.055 94.6152 230.608C99.746 218.161 102.406 204.668 102.311 191.271C102.311 177.779 99.746 164.382 94.6152 151.935C89.4843 139.488 81.8831 128.086 72.3816 118.489C62.88 108.893 51.5732 101.197 39.1262 95.8757C26.6792 90.5549 13.187 87.7995 -0.400238 87.6094Z" fill="#7770E0"/>
<path d="M-0.400299 98.5362C11.7617 98.3462 23.9237 100.627 35.2305 105.187C46.5373 109.748 56.894 116.589 65.6354 125.236C74.3768 133.787 81.313 144.239 86.0637 155.545C90.8145 166.852 93.1899 179.109 93.2849 191.366C93.2849 203.623 90.8145 215.88 86.0637 227.187C81.313 238.494 74.3768 248.851 65.6354 257.497C56.894 266.048 46.5373 272.985 35.2305 277.545C23.9236 282.106 11.6667 284.386 -0.400306 284.196C23.9236 283.911 47.7725 273.745 64.6853 256.547C73.1416 247.996 79.9828 237.829 84.5435 226.617C89.1042 215.5 91.4796 203.433 91.4796 191.461C91.4796 179.489 89.1993 167.422 84.5435 156.306C79.9828 145.189 73.1416 135.022 64.6853 126.376C47.7725 108.988 23.9237 98.8213 -0.400299 98.5362Z" fill="#7770E0"/>
<path d="M-0.400284 109.463C10.3365 109.273 21.0732 111.268 31.0498 115.259C41.0264 119.25 50.243 125.331 57.9392 132.932C65.6355 140.533 71.8115 149.655 75.9921 159.631C80.1728 169.608 82.3582 180.44 82.3582 191.271C82.3582 202.103 80.1728 212.935 75.9921 222.912C71.8115 232.888 65.7305 242.105 57.9392 249.611C50.243 257.212 41.0264 263.198 31.0498 267.284C21.0732 271.274 10.2414 273.27 -0.40029 273.08C21.0732 272.795 42.0716 263.768 56.894 248.566C64.3052 240.964 70.2912 232.033 74.3769 222.246C78.4625 212.46 80.4578 201.818 80.4578 191.271C80.4578 180.725 78.4625 170.083 74.3769 160.296C70.3862 150.51 64.3052 141.578 56.894 133.977C42.0716 118.775 21.0732 109.843 -0.400284 109.463Z" fill="#7770E0"/>
<path d="M-0.400085 120.485C8.91143 120.295 18.2229 122.005 26.8694 125.426C35.5158 128.941 43.497 134.167 50.1481 140.723C56.8942 147.279 62.1201 155.26 65.8257 163.907C69.4362 172.553 71.3365 181.96 71.3365 191.366C71.3365 200.773 69.4362 210.179 65.8257 218.826C62.2151 227.472 56.8942 235.453 50.1481 242.009C43.497 248.566 35.5157 253.791 26.8693 257.307C18.2229 260.728 8.8164 262.438 -0.400091 262.248C18.1279 261.963 36.3709 254.171 49.198 240.964C55.564 234.408 60.7898 226.617 64.3054 218.161C67.821 209.704 69.5313 200.583 69.5313 191.366C69.5313 182.245 67.821 173.028 64.3054 164.572C60.8849 156.116 55.659 148.324 49.198 141.768C36.3709 128.561 18.1279 120.77 -0.400085 120.485Z" fill="#7770E0"/>
<path d="M-0.400196 131.412C7.48608 131.222 15.3724 132.647 22.6886 135.497C30.0048 138.443 36.7508 142.813 42.4518 148.419C48.1527 153.93 52.6184 160.676 55.7539 167.993C58.7944 175.309 60.4097 183.29 60.4097 191.271C60.4097 199.253 58.7944 207.139 55.7539 214.55C52.7134 221.866 48.1527 228.612 42.4518 234.123C36.7508 239.634 30.0047 244.1 22.6886 247.045C15.3724 249.896 7.39106 251.416 -0.400201 251.131C15.2773 250.846 30.5748 244.195 41.4066 233.078C46.8225 227.567 51.1932 221.011 54.1387 213.885C57.0841 206.759 58.6044 199.063 58.5094 191.271C58.5094 183.575 57.0842 175.879 54.1387 168.658C51.1932 161.532 46.8225 154.975 41.4066 149.465C30.5748 138.348 15.2773 131.697 -0.400196 131.412Z" fill="#7770E0"/>
<path d="M-0.400181 142.338C5.96585 142.148 12.4269 143.289 18.5079 145.664C24.4939 148.039 30.0998 151.65 34.7555 156.211C44.162 165.237 49.4829 178.254 49.4829 191.366C49.4829 204.383 44.067 217.401 34.7555 226.522C30.0998 231.083 24.5889 234.693 18.5079 237.069C12.5219 239.444 6.06086 240.584 -0.400185 240.394C12.4269 240.014 24.8739 234.598 33.7104 225.572C38.0811 221.011 41.6917 215.69 44.067 209.894C46.4424 204.098 47.6776 197.827 47.6776 191.461C47.6776 185.19 46.4424 178.919 44.067 173.028C41.6917 167.232 38.0811 161.912 33.7104 157.351C24.8739 148.134 12.4269 142.718 -0.400181 142.338Z" fill="#7770E0"/>
<path d="M-0.400169 153.265C4.54063 153.075 9.57645 153.93 14.3272 155.735C18.983 157.541 23.3537 160.296 26.9643 163.907C30.5749 167.422 33.5204 171.698 35.5157 176.449C37.511 181.105 38.4611 186.235 38.5562 191.366C38.5562 196.497 37.511 201.533 35.5157 206.284C33.5204 210.94 30.6699 215.215 26.9643 218.826C23.3537 222.341 18.983 225.097 14.3272 226.997C9.67146 228.802 4.63564 229.658 -0.400172 229.468C9.57645 229.087 19.173 224.812 25.9191 217.781C32.7602 210.749 36.6558 201.153 36.6558 191.461C36.6558 181.77 32.7602 172.078 25.9191 165.142C19.173 157.921 9.57645 153.645 -0.400169 153.265Z" fill="#7770E0"/>
<path d="M-0.400276 164.287C3.1153 164.097 6.72589 164.667 10.1464 165.902C13.472 167.137 16.6075 169.133 19.2679 171.698C21.9284 174.168 24.0187 177.304 25.4439 180.63C26.8692 183.955 27.6293 187.661 27.6293 191.271C27.6293 194.977 26.8692 198.587 25.4439 201.913C24.0187 205.239 21.9284 208.374 19.2679 210.844C16.6075 213.41 13.567 215.31 10.1464 216.64C6.72588 217.876 3.21031 218.446 -0.400278 218.256C6.72588 217.876 13.377 214.74 18.2227 209.799C22.9735 204.858 25.729 198.017 25.729 191.176C25.729 184.335 22.9735 177.589 18.2228 172.553C13.377 167.707 6.72588 164.572 -0.400276 164.287Z" fill="#7770E0"/>
<path d="M-0.40036 175.214C3.78032 174.834 8.24604 176.354 11.4766 179.394C13.0918 180.915 14.327 182.72 15.2772 184.81C16.1323 186.806 16.6074 189.086 16.6074 191.271C16.6074 193.457 16.1323 195.737 15.2772 197.732C14.422 199.728 13.0918 201.628 11.4766 203.148C8.24604 206.189 3.78032 207.709 -0.400361 207.329C3.78032 206.949 7.67597 205.049 10.4314 202.103C13.1869 199.158 14.7071 195.262 14.7071 191.271C14.7071 187.281 13.1869 183.385 10.4314 180.439C7.67597 177.494 3.78032 175.594 -0.40036 175.214Z" fill="#7770E0"/>
</g>
</svg>
