<svg width="32" height="32" viewBox="0 0 32 32" fill="none" xmlns="http://www.w3.org/2000/svg">
<path d="M14.6667 28H5.33333C5.33333 23.298 8.81027 19.4082 13.3333 18.7612M26.4968 20.2717C26.4059 20.2772 26.3143 20.28 26.2222 20.28C24.8562 20.28 23.6102 19.6699 22.6666 18.6667C21.7231 19.6699 20.4771 20.2799 19.1111 20.2799C19.019 20.2799 18.9275 20.2771 18.8365 20.2716C18.7256 20.7804 18.6667 21.314 18.6667 21.8639C18.6667 24.8161 20.3664 27.2967 22.6667 28C24.967 27.2967 26.6667 24.8161 26.6667 21.8639C26.6667 21.314 26.6077 20.7805 26.4968 20.2717ZM20 9.33333C20 12.2789 17.6122 14.6667 14.6667 14.6667C11.7211 14.6667 9.33333 12.2789 9.33333 9.33333C9.33333 6.38781 11.7211 4 14.6667 4C17.6122 4 20 6.38781 20 9.33333Z" stroke="#F7F7FC" stroke-width="2" stroke-linecap="round" stroke-linejoin="round"/>
</svg>
