<svg width="228" height="285" viewBox="0 0 228 285" fill="none" xmlns="http://www.w3.org/2000/svg">
<path d="M113.61 105.41L184.61 215.91C197.81 236.41 191.81 263.71 171.31 276.91C150.81 290.11 123.51 284.11 110.31 263.61L39.3103 153.11" stroke="#7E7BF1" stroke-width="2" stroke-miterlimit="10"/>
<path d="M108.11 97.0103L172.51 197.21C185.71 217.71 179.71 245.01 159.21 258.21C138.71 271.41 111.41 265.41 98.2103 244.91L33.8103 144.71" stroke="#C4C3F3" stroke-width="2" stroke-miterlimit="10"/>
<path d="M102.71 88.5103L160.51 178.51C173.71 199.01 167.71 226.31 147.21 239.51C126.71 252.71 99.4104 246.71 86.2104 226.21L28.4104 136.21" stroke="#7E7BF1" stroke-width="2" stroke-miterlimit="10"/>
<path d="M97.3103 80.0103L148.51 159.81C161.71 180.31 155.71 207.61 135.21 220.81C114.71 234.01 87.4103 228.01 74.2103 207.51L23.0103 127.71" stroke="#C4C3F3" stroke-width="2" stroke-miterlimit="10"/>
<path d="M91.8103 71.5103L136.51 141.01C149.71 161.51 143.71 188.81 123.21 202.01C102.71 215.21 75.4103 209.21 62.2103 188.71L17.5103 119.21" stroke="#7E7BF1" stroke-width="2" stroke-miterlimit="10"/>
<path d="M86.4104 63.0103L124.51 122.31C137.71 142.81 131.71 170.11 111.21 183.31C90.7104 196.51 63.4103 190.51 50.2104 170.01L12.1104 110.71" stroke="#C4C3F3" stroke-width="2" stroke-miterlimit="10"/>
<path d="M80.9104 54.6104L112.41 103.71C125.61 124.21 119.61 151.51 99.1104 164.71C78.6104 177.91 51.3103 171.91 38.1103 151.41L6.61035 102.31" stroke="#7E7BF1" stroke-width="2" stroke-miterlimit="10"/>
<path d="M262.21 10.0103L333.21 120.51C346.41 141.01 340.41 168.31 319.91 181.51C299.41 194.71 272.11 188.71 258.91 168.21L187.91 57.7103" stroke="#7E7BF1" stroke-width="2" stroke-miterlimit="10"/>
<path d="M256.81 1.51025L321.21 101.81C334.41 122.31 328.41 149.61 307.91 162.81C287.41 176.01 260.11 170.01 246.91 149.51L182.51 49.2103" stroke="#C4C3F3" stroke-width="2" stroke-miterlimit="10"/>
<path d="M251.31 -6.98975L309.11 83.0103C322.31 103.51 316.31 130.81 295.81 144.01C275.31 157.21 248.01 151.21 234.81 130.71L177.01 40.7103" stroke="#7E7BF1" stroke-width="2" stroke-miterlimit="10"/>
<path d="M245.91 -15.4897L297.11 64.3103C310.31 84.8103 304.31 112.11 283.81 125.31C263.31 138.51 236.01 132.51 222.81 112.01L171.61 32.2103" stroke="#C4C3F3" stroke-width="2" stroke-miterlimit="10"/>
<path d="M240.41 -23.8896L285.11 45.6104C298.31 66.1104 292.31 93.4104 271.81 106.61C251.31 119.81 224.01 113.81 210.81 93.3104L166.11 23.8104" stroke="#7E7BF1" stroke-width="2" stroke-miterlimit="10"/>
<path d="M235.01 -32.3896L273.11 26.9103C286.31 47.4103 280.31 74.7103 259.81 87.9103C239.31 101.11 212.01 95.1104 198.81 74.6104L160.71 15.3104" stroke="#C4C3F3" stroke-width="2" stroke-miterlimit="10"/>
<path d="M229.51 -40.8896L261.01 8.21035C274.21 28.7104 268.21 56.0104 247.71 69.2104C227.21 82.4103 199.91 76.4103 186.71 55.9103L155.21 6.81036" stroke="#7E7BF1" stroke-width="2" stroke-miterlimit="10"/>
<path d="M79.0103 51.5103L8.01033 -58.9897C-5.18967 -79.4897 0.810331 -106.79 21.3103 -119.99C41.8103 -133.19 69.1103 -127.19 82.3103 -106.69L153.31 3.81033" stroke="#7E7BF1" stroke-width="2" stroke-miterlimit="10"/>
<path d="M84.4103 60.0103L20.0103 -40.2897C6.81033 -60.7897 12.8103 -88.0897 33.3103 -101.29C53.8103 -114.49 81.2103 -108.49 94.3103 -87.9897L158.71 12.3103" stroke="#C4C3F3" stroke-width="2" stroke-miterlimit="10"/>
<path d="M89.9104 68.5103L32.1104 -21.4897C18.9104 -41.9897 24.9104 -69.2897 45.4104 -82.4897C65.9104 -95.6897 93.2104 -89.6897 106.41 -69.1897L164.21 20.8103" stroke="#7E7BF1" stroke-width="2" stroke-miterlimit="10"/>
<path d="M95.3104 77.0103L44.1104 -2.78972C30.9104 -23.2897 36.9104 -50.5897 57.4104 -63.7897C77.9104 -76.9897 105.21 -70.9897 118.41 -50.4897L169.61 29.3103" stroke="#C4C3F3" stroke-width="2" stroke-miterlimit="10"/>
<path d="M100.81 85.4102L56.1104 15.9102C42.9104 -4.58978 48.9104 -31.8898 69.4104 -45.0898C89.9104 -58.2898 117.21 -52.2898 130.41 -31.7898L175.11 37.7102" stroke="#7E7BF1" stroke-width="2" stroke-miterlimit="10"/>
<path d="M106.21 93.9104L68.1104 34.6104C54.9104 14.1104 60.9104 -13.1896 81.4104 -26.3896C101.91 -39.5896 129.21 -33.5896 142.41 -13.0896L180.51 46.2104" stroke="#C4C3F3" stroke-width="2" stroke-miterlimit="10"/>
<path d="M111.61 102.41L80.1104 53.3104C66.9104 32.8104 72.9104 5.51038 93.4104 -7.68962C113.91 -20.8896 141.21 -14.8896 154.41 5.61038L185.91 54.7104" stroke="#7E7BF1" stroke-width="2" stroke-miterlimit="10"/>
</svg>
