<svg width="248" height="239" viewBox="0 0 248 239" fill="none" xmlns="http://www.w3.org/2000/svg">
<path d="M19.6103 233.41L90.6103 343.91C103.81 364.41 97.8103 391.71 77.3103 404.91C56.8103 418.11 29.5103 412.11 16.3103 391.61L-54.6897 281.11" stroke="#7E7BF1" stroke-width="2" stroke-miterlimit="10"/>
<path d="M14.1103 225.01L78.5103 325.21C91.7103 345.71 85.7103 373.01 65.2103 386.21C44.7103 399.41 17.4103 393.41 4.2103 372.91L-60.1897 272.71" stroke="#C4C3F3" stroke-width="2" stroke-miterlimit="10"/>
<path d="M8.7104 216.51L66.5104 306.51C79.7104 327.01 73.7104 354.31 53.2104 367.51C32.7104 380.71 5.4104 374.71 -7.7896 354.21L-65.5896 264.21" stroke="#7E7BF1" stroke-width="2" stroke-miterlimit="10"/>
<path d="M3.31038 208.01L54.5104 287.81C67.7104 308.31 61.7104 335.61 41.2104 348.81C20.7104 362.01 -6.58963 356.01 -19.7896 335.51L-70.9896 255.71" stroke="#C4C3F3" stroke-width="2" stroke-miterlimit="10"/>
<path d="M-2.18962 199.51L42.5104 269.01C55.7104 289.51 49.7104 316.81 29.2104 330.01C8.71037 343.21 -18.5896 337.21 -31.7896 316.71L-76.4896 247.21" stroke="#7E7BF1" stroke-width="2" stroke-miterlimit="10"/>
<path d="M-7.58965 191.01L30.5104 250.31C43.7104 270.81 37.7104 298.11 17.2104 311.31C-3.28965 324.51 -30.5897 318.51 -43.7896 298.01L-81.8896 238.71" stroke="#C4C3F3" stroke-width="2" stroke-miterlimit="10"/>
<path d="M-13.0896 182.61L18.4104 231.71C31.6104 252.21 25.6104 279.51 5.11035 292.71C-15.3896 305.91 -42.6897 299.91 -55.8897 279.41L-87.3896 230.31" stroke="#7E7BF1" stroke-width="2" stroke-miterlimit="10"/>
<path d="M168.21 138.01L239.21 248.51C252.41 269.01 246.41 296.31 225.91 309.51C205.41 322.71 178.11 316.71 164.91 296.21L93.9102 185.71" stroke="#7E7BF1" stroke-width="2" stroke-miterlimit="10"/>
<path d="M162.81 129.51L227.21 229.81C240.41 250.31 234.41 277.61 213.91 290.81C193.41 304.01 166.11 298.01 152.91 277.51L88.5103 177.21" stroke="#C4C3F3" stroke-width="2" stroke-miterlimit="10"/>
<path d="M157.31 121.01L215.11 211.01C228.31 231.51 222.31 258.81 201.81 272.01C181.31 285.21 154.01 279.21 140.81 258.71L83.0103 168.71" stroke="#7E7BF1" stroke-width="2" stroke-miterlimit="10"/>
<path d="M151.91 112.51L203.11 192.31C216.31 212.81 210.31 240.11 189.81 253.31C169.31 266.51 142.01 260.51 128.81 240.01L77.6102 160.21" stroke="#C4C3F3" stroke-width="2" stroke-miterlimit="10"/>
<path d="M146.41 104.11L191.11 173.61C204.31 194.11 198.31 221.41 177.81 234.61C157.31 247.81 130.01 241.81 116.81 221.31L72.1102 151.81" stroke="#7E7BF1" stroke-width="2" stroke-miterlimit="10"/>
<path d="M141.01 95.6104L179.11 154.91C192.31 175.41 186.31 202.71 165.81 215.91C145.31 229.11 118.01 223.11 104.81 202.61L66.7102 143.31" stroke="#C4C3F3" stroke-width="2" stroke-miterlimit="10"/>
<path d="M135.51 87.1104L167.01 136.21C180.21 156.71 174.21 184.01 153.71 197.21C133.21 210.41 105.91 204.41 92.7102 183.91L61.2102 134.81" stroke="#7E7BF1" stroke-width="2" stroke-miterlimit="10"/>
<path d="M-14.9897 179.51L-85.9897 69.0103C-99.1897 48.5103 -93.1897 21.2103 -72.6897 8.01033C-52.1897 -5.18967 -24.8897 0.810331 -11.6897 21.3103L59.3103 131.81" stroke="#7E7BF1" stroke-width="2" stroke-miterlimit="10"/>
<path d="M-9.58967 188.01L-73.9897 87.7103C-87.1897 67.2103 -81.1897 39.9103 -60.6897 26.7103C-40.1897 13.5103 -12.7897 19.5103 0.310333 40.0103L64.7103 140.31" stroke="#C4C3F3" stroke-width="2" stroke-miterlimit="10"/>
<path d="M-4.08969 196.51L-61.8897 106.51C-75.0897 86.0103 -69.0897 58.7103 -48.5897 45.5103C-28.0897 32.3103 -0.789691 38.3103 12.4103 58.8103L70.2103 148.81" stroke="#7E7BF1" stroke-width="2" stroke-miterlimit="10"/>
<path d="M1.31031 205.01L-49.8897 125.21C-63.0897 104.71 -57.0897 77.4103 -36.5897 64.2103C-16.0897 51.0103 11.2103 57.0103 24.4103 77.5103L75.6103 157.31" stroke="#C4C3F3" stroke-width="2" stroke-miterlimit="10"/>
<path d="M6.81031 213.41L-37.8897 143.91C-51.0897 123.41 -45.0897 96.1102 -24.5897 82.9102C-4.08969 69.7102 23.2103 75.7102 36.4103 96.2102L81.1103 165.71" stroke="#7E7BF1" stroke-width="2" stroke-miterlimit="10"/>
<path d="M12.2103 221.91L-25.8897 162.61C-39.0897 142.11 -33.0897 114.81 -12.5897 101.61C7.91031 88.4104 35.2103 94.4104 48.4103 114.91L86.5103 174.21" stroke="#C4C3F3" stroke-width="2" stroke-miterlimit="10"/>
<path d="M17.6103 230.41L-13.8897 181.31C-27.0897 160.81 -21.0897 133.51 -0.589689 120.31C19.9103 107.11 47.2103 113.11 60.4103 133.61L91.9103 182.71" stroke="#7E7BF1" stroke-width="2" stroke-miterlimit="10"/>
</svg>
