<svg width="1400" height="1146" viewBox="0 0 1400 1146" fill="none" xmlns="http://www.w3.org/2000/svg">
<path d="M-686.061 84.653C-316.46 233.741 -117.232 430.37 -2.33022 591.226C93.452 725.334 91.7527 780.192 193.459 880.246C414.172 1097.36 836.972 1247.08 1041.88 1060.5C1142.82 968.591 1105.49 852.117 1153.77 631.624C1197.2 433.275 1309.51 160.476 1623.04 -136" stroke="url(#paint0_linear_73_122)" stroke-miterlimit="10"/>
<path d="M-685.321 132.754C-325.823 260.884 -128.588 445.864 -13.7462 596.405C82.8823 723.108 90.7392 773.775 198.77 872.109C425.394 1078.39 822.457 1222.01 1027.66 1047.92C1133.35 958.255 1109.31 843.774 1165.88 623.927C1215.69 430.377 1330.28 162.243 1638.42 -131.575" stroke="url(#paint1_linear_73_122)" stroke-miterlimit="10"/>
<path d="M-684.582 180.848C-335.193 288.026 -139.797 461.405 -25.142 601.583C72.5328 721.002 89.5527 767.364 204.101 863.972C436.136 1059.67 808.576 1197.27 1013.46 1035.34C1124.14 947.859 1112.98 835.544 1178.02 616.237C1234 427.531 1351.09 164.028 1653.84 -127.117" stroke="url(#paint2_linear_73_122)" stroke-miterlimit="10"/>
<path d="M-683.843 228.95C-344.563 315.176 -150.813 476.992 -36.538 606.801C62.3097 719.023 88.1728 761 209.458 855.829C446.445 1041.21 795.294 1172.91 999.28 1022.76C1115.18 937.463 1116.49 827.407 1190.18 608.54C1252.07 424.726 1371.91 165.814 1669.23 -122.678" stroke="url(#paint3_linear_73_122)" stroke-miterlimit="10"/>
<path d="M-683.101 277.044C-353.897 342.305 -161.6 492.579 -47.9313 611.945C52.2625 717.15 86.6822 754.695 214.752 847.692C456.276 1023.02 782.495 1148.95 985.041 1010.18C1106.39 927.047 1119.74 819.323 1202.29 600.843C1269.89 421.933 1392.69 167.594 1684.59 -118.207" stroke="url(#paint4_linear_73_122)" stroke-miterlimit="10"/>
<path d="M-682.362 325.138C-363.294 369.447 -172.143 508.172 -59.3273 617.123C42.4259 715.391 84.9491 748.484 220.082 839.548C465.779 1005.14 770.219 1125.39 970.833 997.606C1097.86 916.691 1122.77 811.279 1214.42 593.145C1287.51 419.134 1413.48 169.379 1699.98 -113.802" stroke="url(#paint5_linear_73_122)" stroke-miterlimit="10"/>
<path d="M-681.622 373.233C-372.664 396.557 -182.392 523.7 -70.7232 622.301C32.816 713.725 83.1029 742.38 225.407 831.412C474.975 987.544 758.383 1102.26 956.625 985.025C1089.53 906.429 1125.66 803.236 1226.56 585.456C1304.92 416.309 1434.31 171.166 1715.37 -109.357" stroke="url(#paint6_linear_73_122)" stroke-miterlimit="10"/>
<path d="M-680.857 421.333C-382.008 423.726 -192.296 539.154 -82.0928 627.479C23.4989 712.112 81.1761 736.409 230.757 823.275C483.924 970.25 746.973 1079.55 942.443 972.443C1081.43 896.293 1128.32 795.179 1238.72 577.758C1322.12 413.45 1455.08 172.971 1730.76 -104.919" stroke="url(#paint7_linear_73_122)" stroke-miterlimit="10"/>
<path d="M-680.144 469.428C-391.404 450.868 -201.906 554.461 -93.5152 632.663C14.4422 710.526 79.0302 730.625 236.062 815.131C492.627 953.25 735.864 1057.26 928.209 959.868C1073.48 886.323 1130.71 787.056 1250.83 570.061C1339.14 410.531 1475.88 174.731 1746.19 -100.481" stroke="url(#paint8_linear_73_122)" stroke-miterlimit="10"/>
<path d="M-679.404 517.502C-400.768 477.991 -211.136 569.549 -104.911 637.822C5.66551 708.887 76.8308 724.907 241.386 806.975C501.137 936.511 725.035 1035.36 914.001 947.266C1065.71 876.541 1132.91 778.833 1262.96 562.345C1355.98 407.519 1496.68 176.497 1761.54 -96.0623" stroke="url(#paint9_linear_73_122)" stroke-miterlimit="10"/>
<path d="M-678.662 565.623C-410.102 505.154 -220.003 584.423 -116.298 643.019C-2.75572 707.181 74.5538 719.436 246.719 798.851C509.536 920.083 714.461 1013.91 899.795 934.711C1058.11 867.051 1134.89 770.536 1275.1 554.668C1372.66 404.467 1517.48 178.303 1776.94 -91.5908" stroke="url(#paint10_linear_73_122)" stroke-miterlimit="10"/>
<path d="M-677.923 613.718C-419.505 532.29 -228.533 598.957 -127.693 648.197C-10.8593 705.255 72.228 714.131 252.044 790.714C517.832 903.896 704.079 992.821 885.587 922.129C1050.66 857.841 1136.67 762.086 1287.24 546.977C1389.2 401.301 1538.28 180.082 1792.32 -87.1592" stroke="url(#paint11_linear_73_122)" stroke-miterlimit="10"/>
<path d="M-677.184 661.819C-428.876 559.433 -236.771 613.118 -139.09 653.383C-18.6574 703.023 69.7878 709.007 257.374 782.578C526.061 887.957 693.828 972.104 871.385 909.548C1043.32 848.972 1138.25 753.483 1299.37 539.281C1405.61 398.037 1559.08 181.869 1807.72 -82.7205" stroke="url(#paint12_linear_73_122)" stroke-miterlimit="10"/>
<path d="M-676.445 709.913C-438.239 586.575 -244.762 626.866 -150.486 658.56C-26.1815 700.35 67.335 704.075 262.685 774.434C534.231 872.235 683.658 951.697 857.163 896.972C1036.11 840.495 1139.64 744.692 1311.49 531.583C1421.92 394.657 1579.88 183.634 1823.1 -78.2629" stroke="url(#paint13_linear_73_122)" stroke-miterlimit="10"/>
<path d="M-675.706 758.008C-447.609 613.711 -252.592 640.168 -161.908 663.738C-33.5321 697.098 64.8291 699.331 268.002 766.298C542.394 856.736 673.529 931.686 842.942 884.391C1028.97 832.458 1140.86 735.71 1323.61 523.867C1438.11 391.146 1600.66 185.414 1838.47 -73.864" stroke="url(#paint14_linear_73_122)" stroke-miterlimit="10"/>
<path d="M-674.966 806.108C-456.945 640.853 -260.356 653.015 -173.277 668.916C-40.7296 693.12 62.3565 694.779 273.353 758.154C550.577 841.454 663.439 911.953 828.761 871.816C1021.92 824.908 1141.97 726.54 1335.77 516.196C1454.3 387.553 1621.48 187.219 1853.88 -69.3997" stroke="url(#paint15_linear_73_122)" stroke-miterlimit="10"/>
<path d="M-674.193 854.203C-466.315 667.996 -267.22 689.521 -184.639 674.101C-49.566 648.871 59.8909 690.421 278.718 750.017C558.807 826.314 653.283 892.515 814.553 859.234C1014.87 817.917 1142.92 717.097 1347.91 508.499C1470.4 383.842 1642.28 189.005 1869.28 -64.9346" stroke="url(#paint16_linear_73_122)" stroke-miterlimit="10"/>
<path d="M-673.485 902.297C-475.71 695.139 -274.242 697.318 -196.067 679.279C-59.0473 647.664 57.3601 686.242 284.011 741.88C567.066 811.386 643.009 873.362 800.347 846.653C1007.8 811.48 1143.76 707.454 1360.05 500.789C1486.48 379.99 1663.08 190.771 1884.67 -60.5364" stroke="url(#paint17_linear_73_122)" stroke-miterlimit="10"/>
<path d="M-672.745 950.399C-485.079 722.275 -282.186 704.349 -207.462 684.457C-67.9773 647.332 54.8742 682.251 289.342 733.771C575.369 796.586 632.606 854.43 786.139 834.111C1000.67 805.716 1144.51 697.605 1372.18 493.139C1502.52 376.085 1683.88 192.591 1900.06 -56.051" stroke="url(#paint18_linear_73_122)" stroke-miterlimit="10"/>
<path d="M-672.006 998.492C-494.45 749.417 -293.456 700.61 -218.852 689.634C-71.9031 668.063 52.4278 678.425 294.672 725.62C583.758 781.911 622.023 835.69 771.937 821.516C993.437 800.55 1145.18 687.435 1384.33 485.408C1518.58 371.986 1704.7 194.356 1915.45 -51.6467" stroke="url(#paint19_linear_73_122)" stroke-miterlimit="10"/>
<path d="M-671.267 1046.59C-503.82 776.56 -302.746 711.925 -230.254 694.819C-81.213 659.653 49.9952 674.773 299.99 717.476C592.201 767.37 611.201 817.157 757.723 808.934C986.039 796.125 1145.79 677.119 1396.45 477.731C1534.62 367.821 1725.48 196.156 1930.84 -47.1885" stroke="url(#paint20_linear_73_122)" stroke-miterlimit="10"/>
<path d="M-670.527 1094.69C-513.183 803.703 -312.669 723.255 -241.65 699.997C-91.3758 650.763 47.6093 671.282 305.321 709.327C600.744 752.936 600.125 798.771 743.521 796.346C978.429 792.347 1146.36 666.524 1408.59 470.028C1550.69 363.563 1746.28 197.922 1946.23 -42.7632" stroke="url(#paint21_linear_73_122)" stroke-miterlimit="10"/>
<defs>
<linearGradient id="paint0_linear_73_122" x1="468.491" y1="-136" x2="468.491" y2="1145.12" gradientUnits="userSpaceOnUse">
<stop stop-color="#554FD8"/>
<stop offset="1" stop-color="#554FD8" stop-opacity="0"/>
</linearGradient>
<linearGradient id="paint1_linear_73_122" x1="476.547" y1="-131.575" x2="476.547" y2="1125.84" gradientUnits="userSpaceOnUse">
<stop stop-color="#554FD8"/>
<stop offset="1" stop-color="#554FD8" stop-opacity="0"/>
</linearGradient>
<linearGradient id="paint2_linear_73_122" x1="484.627" y1="-127.117" x2="484.627" y2="1106.78" gradientUnits="userSpaceOnUse">
<stop stop-color="#554FD8"/>
<stop offset="1" stop-color="#554FD8" stop-opacity="0"/>
</linearGradient>
<linearGradient id="paint3_linear_73_122" x1="492.693" y1="-122.678" x2="492.693" y2="1087.97" gradientUnits="userSpaceOnUse">
<stop stop-color="#554FD8"/>
<stop offset="1" stop-color="#554FD8" stop-opacity="0"/>
</linearGradient>
<linearGradient id="paint4_linear_73_122" x1="500.742" y1="-118.207" x2="500.742" y2="1069.42" gradientUnits="userSpaceOnUse">
<stop stop-color="#554FD8"/>
<stop offset="1" stop-color="#554FD8" stop-opacity="0"/>
</linearGradient>
<linearGradient id="paint5_linear_73_122" x1="508.809" y1="-113.802" x2="508.809" y2="1051.15" gradientUnits="userSpaceOnUse">
<stop stop-color="#554FD8"/>
<stop offset="1" stop-color="#554FD8" stop-opacity="0"/>
</linearGradient>
<linearGradient id="paint6_linear_73_122" x1="516.872" y1="-109.357" x2="516.872" y2="1033.15" gradientUnits="userSpaceOnUse">
<stop stop-color="#554FD8"/>
<stop offset="1" stop-color="#554FD8" stop-opacity="0"/>
</linearGradient>
<linearGradient id="paint7_linear_73_122" x1="524.951" y1="-104.919" x2="524.951" y2="1015.44" gradientUnits="userSpaceOnUse">
<stop stop-color="#554FD8"/>
<stop offset="1" stop-color="#554FD8" stop-opacity="0"/>
</linearGradient>
<linearGradient id="paint8_linear_73_122" x1="533.021" y1="-100.481" x2="533.021" y2="998.006" gradientUnits="userSpaceOnUse">
<stop stop-color="#554FD8"/>
<stop offset="1" stop-color="#554FD8" stop-opacity="0"/>
</linearGradient>
<linearGradient id="paint9_linear_73_122" x1="541.068" y1="-96.0623" x2="541.068" y2="980.827" gradientUnits="userSpaceOnUse">
<stop stop-color="#554FD8"/>
<stop offset="1" stop-color="#554FD8" stop-opacity="0"/>
</linearGradient>
<linearGradient id="paint10_linear_73_122" x1="549.137" y1="-91.5908" x2="549.137" y2="963.962" gradientUnits="userSpaceOnUse">
<stop stop-color="#554FD8"/>
<stop offset="1" stop-color="#554FD8" stop-opacity="0"/>
</linearGradient>
<linearGradient id="paint11_linear_73_122" x1="557.2" y1="-87.1592" x2="557.2" y2="947.338" gradientUnits="userSpaceOnUse">
<stop stop-color="#554FD8"/>
<stop offset="1" stop-color="#554FD8" stop-opacity="0"/>
</linearGradient>
<linearGradient id="paint12_linear_73_122" x1="565.266" y1="-82.7205" x2="565.266" y2="930.975" gradientUnits="userSpaceOnUse">
<stop stop-color="#554FD8"/>
<stop offset="1" stop-color="#554FD8" stop-opacity="0"/>
</linearGradient>
<linearGradient id="paint13_linear_73_122" x1="573.329" y1="-78.2629" x2="573.329" y2="914.852" gradientUnits="userSpaceOnUse">
<stop stop-color="#554FD8"/>
<stop offset="1" stop-color="#554FD8" stop-opacity="0"/>
</linearGradient>
<linearGradient id="paint14_linear_73_122" x1="581.382" y1="-73.864" x2="581.382" y2="899.006" gradientUnits="userSpaceOnUse">
<stop stop-color="#554FD8"/>
<stop offset="1" stop-color="#554FD8" stop-opacity="0"/>
</linearGradient>
<linearGradient id="paint15_linear_73_122" x1="589.459" y1="-69.3997" x2="589.459" y2="883.405" gradientUnits="userSpaceOnUse">
<stop stop-color="#554FD8"/>
<stop offset="1" stop-color="#554FD8" stop-opacity="0"/>
</linearGradient>
<linearGradient id="paint16_linear_73_122" x1="597.542" y1="-64.9346" x2="597.542" y2="868.059" gradientUnits="userSpaceOnUse">
<stop stop-color="#554FD8"/>
<stop offset="1" stop-color="#554FD8" stop-opacity="0"/>
</linearGradient>
<linearGradient id="paint17_linear_73_122" x1="605.591" y1="-60.5364" x2="605.591" y2="902.297" gradientUnits="userSpaceOnUse">
<stop stop-color="#554FD8"/>
<stop offset="1" stop-color="#554FD8" stop-opacity="0"/>
</linearGradient>
<linearGradient id="paint18_linear_73_122" x1="613.657" y1="-56.051" x2="613.657" y2="950.399" gradientUnits="userSpaceOnUse">
<stop stop-color="#554FD8"/>
<stop offset="1" stop-color="#554FD8" stop-opacity="0"/>
</linearGradient>
<linearGradient id="paint19_linear_73_122" x1="621.723" y1="-51.6467" x2="621.723" y2="998.492" gradientUnits="userSpaceOnUse">
<stop stop-color="#554FD8"/>
<stop offset="1" stop-color="#554FD8" stop-opacity="0"/>
</linearGradient>
<linearGradient id="paint20_linear_73_122" x1="629.787" y1="-47.1885" x2="629.787" y2="1046.59" gradientUnits="userSpaceOnUse">
<stop stop-color="#554FD8"/>
<stop offset="1" stop-color="#554FD8" stop-opacity="0"/>
</linearGradient>
<linearGradient id="paint21_linear_73_122" x1="637.853" y1="-42.7632" x2="637.853" y2="1094.69" gradientUnits="userSpaceOnUse">
<stop stop-color="#554FD8"/>
<stop offset="1" stop-color="#554FD8" stop-opacity="0"/>
</linearGradient>
</defs>
</svg>
