<svg width="1296" height="653" viewBox="0 0 1296 653" fill="none" xmlns="http://www.w3.org/2000/svg">
<path d="M3 56C3 26.7289 26.7289 3 56 3H1293V597C1293 626.271 1269.27 650 1240 650H3V56Z" fill="url(#paint0_linear_0_1)" stroke="#EFF0F6" stroke-width="6"/>
<g opacity="0.1">
<line x1="754" y1="178.5" x2="1234" y2="178.5" stroke="white" stroke-dasharray="8 8"/>
<line x1="754" y1="122.5" x2="1234" y2="122.5" stroke="white" stroke-dasharray="8 8"/>
<line x1="754" y1="67.5" x2="1234" y2="67.5" stroke="white" stroke-dasharray="8 8"/>
</g>
<mask id="mask0_0_1" style="mask-type:alpha" maskUnits="userSpaceOnUse" x="750" y="36" width="489" height="173">
<rect x="750" y="36" width="489" height="173" fill="white"/>
</mask>
<g mask="url(#mask0_0_1)">
<g filter="url(#filter0_d_0_1)">
<path d="M746 41L746 56.5792L751.141 56.5792C756.282 56.5792 766.564 56.5792 776.378 75.057C786.66 93.1724 796.942 129.765 807.224 127.229C817.506 124.331 827.788 82.6654 837.603 80.1293C847.885 77.5931 858.167 114.186 868.449 121.795C878.731 129.765 888.545 108.752 898.827 106.215C909.109 103.679 919.391 119.259 929.673 134.838C939.955 150.417 949.769 166.359 960.051 160.924C970.333 155.852 980.615 129.765 990.897 127.229C1000.71 124.331 1010.99 145.345 1021.28 134.838C1031.56 124.331 1041.84 82.6655 1052.12 75.057C1061.94 67.0862 1072.22 93.1724 1082.5 95.7086C1092.78 98.2447 1103.06 77.5931 1112.88 80.1293C1123.16 82.6655 1133.44 108.752 1143.72 121.795C1154.01 134.838 1164.29 134.838 1174.1 140.272C1184.38 145.345 1194.67 155.852 1204.95 160.924C1215.23 166.359 1225.05 166.359 1235.33 160.924C1245.61 155.852 1255.89 145.345 1266.17 145.345C1276.45 145.345 1286.27 155.852 1296.55 158.388C1306.83 160.924 1317.12 155.852 1327.4 153.316C1337.21 150.417 1347.49 150.417 1357.78 153.316C1368.06 155.852 1378.34 160.924 1388.62 147.881C1398.44 134.838 1408.72 103.679 1413.86 88.1001L1419 72.1586L1419 41.0001" stroke="url(#paint1_linear_0_1)" stroke-width="4" shape-rendering="crispEdges"/>
</g>
</g>
<defs>
<filter id="filter0_d_0_1" x="718" y="19" width="729" height="178" filterUnits="userSpaceOnUse" color-interpolation-filters="sRGB">
<feFlood flood-opacity="0" result="BackgroundImageFix"/>
<feColorMatrix in="SourceAlpha" type="matrix" values="0 0 0 0 0 0 0 0 0 0 0 0 0 0 0 0 0 0 127 0" result="hardAlpha"/>
<feOffset dy="4"/>
<feGaussianBlur stdDeviation="13"/>
<feComposite in2="hardAlpha" operator="out"/>
<feColorMatrix type="matrix" values="0 0 0 0 0.588235 0 0 0 0 0.392157 0 0 0 0 1 0 0 0 0.5 0"/>
<feBlend mode="normal" in2="BackgroundImageFix" result="effect1_dropShadow_0_1"/>
<feBlend mode="normal" in="SourceGraphic" in2="effect1_dropShadow_0_1" result="shape"/>
</filter>
<linearGradient id="paint0_linear_0_1" x1="537" y1="653" x2="537" y2="11" gradientUnits="userSpaceOnUse">
<stop stop-color="#554FD8"/>
<stop offset="1" stop-color="#756EDF"/>
</linearGradient>
<linearGradient id="paint1_linear_0_1" x1="1238" y1="119.5" x2="762.5" y2="119.5" gradientUnits="userSpaceOnUse">
<stop stop-color="white" stop-opacity="0"/>
<stop offset="0.511685" stop-color="white"/>
<stop offset="1" stop-color="white" stop-opacity="0"/>
</linearGradient>
</defs>
</svg>
